<svg width="395" height="424" viewBox="0 0 395 424" fill="none" xmlns="http://www.w3.org/2000/svg">
<g clip-path="url(#clip0_1901_25633)">
<path d="M0.222656 129.082C2.02169 126.488 3.86894 124.061 5.41573 121.459C6.09083 120.314 5.99066 118.747 6.46917 117.453C7.30377 115.189 8.4648 113.036 9.21038 110.746C10.0784 108.093 10.2416 105.395 9.14363 102.653C8.74673 101.66 8.62803 100.107 9.14363 99.2842C10.9983 96.3196 8.80979 92.2062 5.84974 90.7017C7.96406 88.8006 7.64506 86.2103 8.02712 83.772C8.19964 82.9252 8.68751 82.1756 9.39213 81.6745C12.9049 79.4511 14.4331 75.8157 16.1802 72.3546C17.2485 70.2349 18.4837 68.3931 20.5684 67.0628C21.4549 66.4958 22.1152 65.2099 22.423 64.1464C23.38 60.7334 25.7095 58.6915 28.651 57.0313C29.6192 56.4829 30.2794 55.3823 31.051 54.5077C33.4101 51.8285 34.8938 47.9967 39.5824 48.4785C40.5098 48.5711 41.9416 48.1079 42.4127 47.4038C43.8964 45.2063 46.2704 44.9469 48.4107 44.1872C49.4048 43.8352 49.8944 43.3423 50.436 42.3714C51.3262 40.7446 52.7283 39.4068 53.9524 37.9467C54.7573 37.0055 54.8797 36.1532 54.3233 34.9303C53.3404 32.7068 54.7425 30.7724 55.6735 28.9455C56.6046 27.1186 57.977 25.5177 58.8302 23.4832C59.598 21.6563 62.0202 20.3222 63.9788 19.2513C65.8334 18.2507 67.996 17.8838 70.025 17.2353C72.347 16.4942 73.7714 14.7191 75.0066 12.7885C76.3271 10.7244 77.4845 8.55279 78.8198 6.48869C80.0513 4.59505 82.4438 4.71363 83.3971 6.71102C84.2466 8.48607 85.4669 9.37918 87.4774 9.09384C89.4879 8.80849 91.4501 8.5565 93.4421 8.35269C93.7833 8.31934 94.3842 8.54537 94.4806 8.80107C94.9777 10.1055 95.9644 9.99434 97.0772 9.97951C99.4474 9.94616 101.528 9.78682 103.383 7.75607C104.24 6.81852 106.247 6.27377 107.99 6.82963C108.209 6.87057 108.433 6.86737 108.65 6.82027C108.867 6.77317 109.073 6.68314 109.255 6.55541C112.483 4.29149 116.374 3.16742 120.312 3.36106C123.198 3.44629 126.114 2.39386 129.018 1.87877C129.431 1.76291 129.863 1.73385 130.287 1.7935C132.212 2.29377 134.111 3.22762 136.04 3.27579C137.769 3.32767 139.634 2.66436 141.233 1.90098C142.346 1.36735 143.143 0.967145 144.175 1.87135C144.471 2.13075 145.143 2.45314 145.287 2.33085C147.535 0.429809 149.739 3.31288 151.964 2.33085C152.543 2.08257 153.292 2.22337 153.882 1.98991C155.329 1.41923 156.679 0.437217 158.159 0.196343C159.209 0.029585 160.919 0.459462 161.445 1.22655C162.729 3.07942 163.931 2.90894 165.407 1.81204C166.831 3.22393 166.842 3.99473 165.485 5.19539C165.196 5.42367 164.895 5.63642 164.583 5.83276C162.543 7.2743 162.525 8.42679 164.509 9.96097C166.494 11.4951 166.601 12.7292 164.828 14.4968C163.604 15.716 162.18 16.7499 161.019 18.0284C160.648 18.4286 160.544 19.6626 160.852 19.9591C161.861 20.9263 162.707 22.2381 164.379 22.3085C164.75 22.3085 165.366 22.5679 165.466 22.8458C166.138 24.7617 167.733 25.5177 169.435 26.0884C170.967 26.6035 172.54 26.9814 174.109 27.3817C174.409 27.4722 174.733 27.4402 175.01 27.2927C176.821 25.9327 178.297 27.3224 179.903 27.8004C181.691 28.3303 183.497 28.8269 185.322 29.216C186.695 29.5087 187.73 29.8682 187.785 31.5988C187.86 34.1409 189.51 35.5714 191.992 35.6751C196.181 35.861 200.221 37.2791 203.606 39.7514C204.103 40.1035 204.663 40.3703 205.193 40.6742C207.79 42.1565 208.454 42.0156 210.227 39.5624C210.301 39.4624 210.331 39.3105 210.423 39.2512C212.46 37.9171 211.829 36.457 210.794 34.8043C209.715 33.0811 210.423 30.9651 211.907 29.6644C215.405 26.6331 219.586 26.4145 223.862 26.5442C224.549 26.5664 225.25 27 225.899 27.3298C228.095 28.4415 230.254 29.6236 232.461 30.7094C233.01 30.986 233.623 31.1138 234.237 31.08C236.426 30.8873 238.373 31.0096 238.689 34.2743C241.604 31.2023 244.802 32.8773 247.628 33.1626C249.182 33.3108 251.604 33.1923 252.821 35.2045C253.029 35.5491 253.815 35.575 254.342 35.701C255.325 35.9493 256.312 36.3347 257.309 36.3644C258.229 36.41 259.145 36.2105 259.962 35.7863C261.913 34.6746 263.749 33.3664 265.641 32.151C265.718 32.0983 265.806 32.0633 265.898 32.0486C265.99 32.0339 266.085 32.0397 266.175 32.0657C268.193 33.3998 270.199 31.5395 272.184 32.0657C272.947 32.3232 273.676 32.6729 274.354 33.107C274.543 33.2108 274.599 33.6592 274.766 33.6851C277.511 34.1669 276.917 36.3347 277.103 38.158C277.44 41.4487 277.34 44.8283 278.957 47.8782C279.408 48.6071 279.941 49.2822 280.545 49.8903C282.166 51.7432 283.905 53.4738 285.393 55.4156C286.135 56.3976 286.443 57.728 286.984 58.8842C287.526 60.0404 288.041 61.1892 288.687 62.2675C289.777 64.0945 290.912 65.8992 292.122 67.6446C293.935 70.2386 295.809 72.8326 297.712 75.3747C298.312 76.1789 298.932 76.82 297.752 77.6538C297.485 77.8428 297.248 78.5765 297.381 78.7655C298.754 80.6554 298.784 83.3532 301.462 84.5279C303.268 85.321 305.319 86.1881 305.969 88.7191C306.339 90.1533 308.12 91.1909 308.632 92.6324C309.11 93.9961 308.502 95.7082 308.821 97.1682C309.467 100.085 310.289 102.96 311.284 105.777C311.485 106.216 311.773 106.61 312.13 106.935C312.488 107.26 312.908 107.509 313.365 107.667C317.568 108.952 319.356 112.006 320.413 116.008C321.132 118.721 322.612 121.226 323.629 123.868C324.1 125.091 324.211 126.462 326.114 125.854C326.263 125.862 326.407 125.907 326.533 125.986C326.659 126.066 326.762 126.176 326.834 126.306C327.575 129.071 330.61 128.586 332.234 130.109C333.503 131.294 334.894 132.354 336.255 133.444C337.491 134.429 338.722 135.426 340.02 136.323C343.403 138.654 345.833 141.882 348.333 145.032C349.045 145.928 348.596 146.94 347.339 147.363C346.756 147.555 346.167 147.733 345.217 148.026C345.892 148.548 346.204 148.8 346.526 149.041C348.463 150.479 350.547 151.761 352.298 153.399C354.194 155.171 356.126 155.5 358.356 154.422C360.674 153.31 362.907 152.261 365.682 152.513C366.935 152.628 368.36 151.576 369.61 150.872C370.771 150.22 371.531 149.371 373.211 150.305C374.161 150.831 375.96 149.779 377.396 149.53C378.137 149.401 378.916 149.53 379.666 149.441C380.484 149.359 381.288 149.171 382.058 148.882C384.221 147.967 386.343 146.959 388.475 145.988C388.591 145.941 388.7 145.881 388.802 145.81C389.722 145.095 390.512 143.457 391.803 144.42C392.57 144.991 392.711 146.518 392.945 147.652C393.253 149.134 393.316 150.679 393.616 152.161C393.757 152.806 394.303 153.362 394.729 154.059C394.522 154.233 394.31 154.574 394.084 154.581C391.643 154.67 391.958 156.531 391.58 158.124C390.974 160.584 390.217 163.005 389.314 165.372C388.742 166.903 387.83 168.311 387.088 169.786C385.871 172.232 384.667 174.682 383.475 177.138C383.275 177.452 383.168 177.815 383.164 178.187C383.572 180.899 382.051 183.004 380.968 185.228C380.886 185.395 380.842 185.661 380.719 185.706C378.538 186.503 378.612 188.756 377.592 190.294C376.008 192.68 373.823 194.666 371.917 196.845C370.084 198.943 368.367 201.144 366.434 203.145C364.967 204.585 363.407 205.927 361.764 207.162C359.888 208.644 357.799 209.927 356.067 211.576C352.395 215.07 348.789 218.65 345.362 222.385C343.221 224.716 341.474 227.403 339.505 229.893C339.05 230.356 338.538 230.759 337.98 231.09C337.238 231.635 336.348 232.046 335.755 232.721C334.953 233.628 334.749 234.944 332.987 234.996C332.431 234.996 332.023 237.004 331.389 237.994C329.534 240.91 329 244.512 326.355 247.11C325.098 248.344 324.66 250.427 323.907 252.15C323.601 252.881 323.365 253.639 323.202 254.414C322.876 255.848 322.79 257.182 324.315 258.164C325.313 258.876 326.242 259.68 327.09 260.566C327.783 261.236 327.98 261.911 326.834 262.418C325.687 262.926 325.643 263.734 326.181 264.827C326.552 265.568 326.963 266.75 326.633 267.221C325.435 268.922 326.396 270.33 326.796 271.872C327.167 273.269 327.616 274.729 327.538 276.13C327.412 278.316 328.247 279.546 330.268 280.15C330.892 280.336 331.878 280.521 331.997 280.914C332.322 282.012 332.434 283.161 332.327 284.301C332.16 286.046 331.619 287.758 331.478 289.489C331.4 290.489 331.893 291.523 331.964 292.554C332.06 293.943 332.253 295.403 331.945 296.726C331.255 299.691 330.832 302.544 331.882 305.572C332.739 308.006 330.858 309.885 329.723 311.753C328.239 314.184 326.711 316.715 324.645 318.586C323.384 319.724 322.175 321.214 320.613 321.896C319.051 322.577 317.145 322.444 315.476 322.948C313.105 323.663 310.527 324.178 309.296 326.783C309.192 327.071 309.032 327.336 308.825 327.562C305.089 330.793 301.94 334.714 297.504 337.13C295.312 338.323 295.033 340.313 296.365 342.374C297.782 344.571 298.91 346.913 297.734 349.655C297.658 349.818 297.619 349.995 297.619 350.174C297.619 350.353 297.658 350.53 297.734 350.693C300.137 353.739 298.928 356.767 297.767 359.813C297.494 360.415 297.34 361.064 297.315 361.725C297.411 364.252 296.031 366.205 293.52 367.169C290.452 368.343 287.414 369.6 284.384 370.874C283.651 371.181 282.967 371.594 282.355 372.101C281.632 372.709 281.353 373.557 282.54 373.902C283.727 374.247 283.605 375.058 283.342 375.777C282.092 379.212 280.745 382.614 279.447 386.027C278.683 388.036 277.618 389.755 275.456 390.556C271.746 391.923 270.374 395.206 268.875 398.453C267.21 402.047 264.991 405.012 261.249 407.031C258.281 408.632 256.022 411.478 253.307 413.602C251.193 415.251 248.856 416.648 246.604 418.089C246.062 418.356 245.469 418.506 244.865 418.53C242.361 418.849 239.838 419.068 237.346 419.464C236.437 419.609 235.621 420.324 234.716 420.465C233.974 420.58 233.188 420.161 232.409 420.094C231.344 419.966 230.272 419.914 229.2 419.938C228.544 419.964 227.772 420.565 227.264 420.368C224.816 419.405 222.861 420.661 220.695 421.391C218.528 422.121 216.18 422.347 213.918 422.807C213.438 422.849 212.971 422.986 212.545 423.211C210.843 424.452 209.481 423.729 208.094 422.632C207.46 422.097 206.726 421.691 205.935 421.439C203.602 420.828 202.686 419.097 202.063 417.022C201.852 416.22 201.519 415.455 201.076 414.754C199.83 412.923 199.804 411.234 201.183 409.399C201.62 408.871 201.883 408.221 201.937 407.538C201.99 406.855 201.832 406.172 201.484 405.582C200.33 403.418 198.973 401.35 197.99 399.112C196.45 395.61 195.163 391.997 193.728 388.443C193.565 388.013 193.257 387.654 192.856 387.428C191.09 386.635 190.004 385.301 189.032 383.637C187.871 381.651 186.346 379.879 185.879 377.534C185.786 377.059 185.578 376.611 185.452 376.14C184.885 373.976 184.306 371.808 183.783 369.633C183.656 369.024 183.622 368.399 183.683 367.78C183.819 366.123 183.371 364.471 182.414 363.111C181.832 362.229 181.761 360.691 182.077 359.631C182.392 358.571 182.54 357.934 181.977 356.815C181.413 355.696 181.606 354.173 181.824 352.872C182.236 350.278 181.88 349.374 179.718 347.925C177.555 346.476 176.847 344.219 176.335 341.858C175.678 338.783 175.593 335.559 173.044 333.087C171.561 331.634 170.874 329.326 169.335 327.984C167.655 326.531 166.913 325.112 166.891 322.922C166.854 319.565 166.457 316.211 166.23 312.857C166.204 312.487 166.175 311.949 166.379 311.801C169.057 309.87 168.196 306.743 168.842 304.193C169.773 300.51 170.385 296.763 172.826 293.71C173.527 292.831 174.599 292.227 175.519 291.546C176.105 291.142 176.568 290.583 176.856 289.932C177.144 289.282 177.246 288.564 177.151 287.858C177.1 286.868 177.149 285.875 177.295 284.894C177.455 283.389 176.869 282.259 176.019 281.006C174.944 279.413 174.562 277.353 173.501 275.744C171.731 273.072 172.844 271.257 174.558 269.155C175.059 268.544 174.558 266.799 174.072 265.761C173.122 263.664 171.895 261.685 170.771 259.676C170.564 259.297 170.315 258.943 170.029 258.62C168.895 257.377 168.177 255.813 167.974 254.143C167.232 249.345 165.132 245.098 161.123 241.985C160.173 241.244 159.639 240.017 158.801 239.094C158.263 238.437 157.609 237.884 156.872 237.464C154.442 236.234 152.665 234.329 151.17 232.15C150.301 230.963 149.623 229.648 149.16 228.251C148.741 226.795 148.218 225.224 149.553 223.73C150.147 223.067 150.317 221.929 150.455 220.973C150.729 219.013 150.722 217.016 152.142 215.374C152.376 215.107 152.268 214.125 151.983 213.892C150.395 212.617 151.241 211.438 151.983 210.23C153.897 207.2 154.568 203.548 153.856 200.036C153.589 198.694 152.903 196.219 150.406 195.923C149.906 195.863 149.49 195.007 149.052 194.507C147.999 193.299 146.827 192.521 145.158 193.299C145.101 193.324 145.041 193.338 144.98 193.34C140.591 193.681 136.203 194.196 131.808 194.273C130.042 194.303 129.252 192.358 128.395 190.938C128.26 190.593 128.177 190.23 128.15 189.86C127.353 186.184 124.953 184.046 121.473 182.927C120.264 182.537 119.085 181.874 117.853 181.77C116.622 181.667 115.412 182.078 114.207 182.345C111.733 182.897 109.27 183.486 106.788 184.094C105.675 184.364 104.585 184.735 103.479 185.024C102.181 185.365 100.85 185.595 99.5773 186.002C97.4889 186.677 95.4117 187.403 93.3678 188.226C90.7713 189.252 88.2416 190.594 85.5597 191.342C84.4655 191.65 82.9409 190.938 81.7836 190.353C79.8213 189.363 77.8999 188.5 75.6372 188.871C75.3961 188.908 75.0549 188.959 74.8954 188.833C72.9999 187.218 71.4049 188.945 69.6837 189.26C68.6748 189.499 67.6419 189.624 66.605 189.63C64.231 189.501 62.2651 190.394 60.2398 191.505C56.1595 193.758 51.9383 194.433 47.769 191.505C45.5434 189.964 43.2695 188.541 41.0922 186.966C39.8829 186.084 38.937 184.835 37.7203 183.972C33.7736 181.163 29.7564 178.457 25.7652 175.711C25.7169 175.678 25.6205 175.637 25.6242 175.604C25.7243 173.158 22.4268 172.78 22.4453 170.386C22.4453 170.268 22.4453 170.086 22.3489 170.042C20.2865 168.763 20.828 166.473 20.1752 164.642C19.8562 163.746 19.003 163.034 18.3873 162.245C18.2055 162.011 17.8012 161.748 17.842 161.585C18.2352 159.958 16.8887 159.554 16.0319 158.717C15.0378 157.75 13.9249 156.657 13.5095 155.404C13.3559 154.859 13.0842 154.354 12.7137 153.926C12.3432 153.498 11.883 153.156 11.3655 152.925C10.6533 152.554 9.88179 151.628 9.78905 150.879C9.58875 149.026 8.20147 148.359 6.96997 147.485C2.54843 144.342 0.7939 142.078 3.70573 137.602C4.34374 136.62 4.30664 135.549 3.42382 134.4C2.19232 132.684 1.19821 130.709 0.222656 129.082Z" stroke="white" stroke-miterlimit="10"/>
</g>
<defs>
<clipPath id="clip0_1901_25633">
<rect width="395" height="424" fill="white"/>
</clipPath>
</defs>
</svg>
