<svg width="374" height="470" viewBox="0 0 374 470" fill="none" xmlns="http://www.w3.org/2000/svg">
<g clip-path="url(#clip0_1901_25569)">
<path d="M249.024 465.952L247.603 465.969C248.112 466.191 248.615 466.314 249.024 465.952Z" stroke="white" stroke-miterlimit="10"/>
<path d="M246.715 465.557C247 465.675 247.299 465.838 247.603 465.969L249.024 465.952C249.264 465.714 249.437 465.418 249.525 465.092C250.569 461.913 249.161 459.99 245.86 460.174C243.403 460.296 242.36 458.535 241.234 456.869C240.288 455.464 240.441 454.288 241.567 452.905C242.213 452.117 242.117 450.721 242.373 449.604C242.73 448.035 242.947 446.403 243.552 444.947C243.832 444.275 244.928 443.482 245.607 443.53C247.578 443.622 247.973 442.429 248.234 440.982C248.43 439.917 248.557 438.843 248.697 437.769C249.054 435.053 248.743 434.676 246.05 434.407C244.389 434.242 242.691 434.09 241.372 431.818C242.707 431.665 244.049 431.587 245.393 431.583C248.299 431.753 248.828 431.287 248.658 428.369C248.648 427.827 248.588 427.287 248.48 426.755C247.967 424.663 248.593 423.778 250.903 423.899C253.14 424.021 253.682 423.141 252.964 421.028C252.709 420.284 252.051 419.684 251.606 418.998C251.232 418.417 250.904 417.813 250.553 417.219C251.314 417.103 252.109 416.796 252.822 416.927C253.925 417.127 254.977 417.629 256.237 418.069C257.097 415.482 257.224 413.271 255.125 411.073C256.024 410.839 256.749 410.459 257.441 410.506C260.552 410.733 263.109 409.635 265.506 407.73C266.698 406.787 267.424 405.743 266.771 404.396C265.561 401.89 268.092 400.271 268.089 398.076C268.087 397.927 268.901 397.602 269.31 397.652C272.566 397.947 274.048 396.007 275.373 393.355C276.589 390.912 278.068 388.383 280.068 386.613C282.067 384.844 283.205 382.861 283.346 380.307C283.393 379.068 283.361 377.828 283.25 376.594C283.126 374.785 283.68 373.729 285.692 373.399C288.502 372.933 288.963 372.189 288.579 369.251C288.323 367.313 289.179 366.658 290.928 366.841C291.691 366.956 292.442 367.143 293.17 367.399C296.197 368.346 297.307 367.938 298.406 365.042C298.609 364.39 298.988 363.806 299.501 363.355C300.015 362.904 300.642 362.604 301.316 362.486C304.646 361.647 306.424 359.175 306.683 355.648C306.772 354.501 307.064 353.364 307.223 352.22C307.381 351.077 307.945 349.71 307.521 348.828C306.048 345.754 307.124 343.346 308.846 340.869C310.079 339.095 310.452 337.266 308.701 335.403C307.567 334.2 308.021 332.955 309.367 332.113C310.044 331.745 310.739 331.412 311.451 331.117C312.647 330.532 313.179 329.578 312.196 328.546C310.506 326.77 311.652 325.837 313.081 324.933C314.183 324.218 315.389 323.665 316.439 322.877C317.009 322.4 317.419 321.76 317.615 321.043C317.936 319.939 318.113 318.798 318.141 317.648C318.231 316.524 318.093 315.394 317.734 314.325C316.714 311.863 315.455 309.501 314.297 307.101C313.435 306.273 312.436 305.601 311.345 305.113C309.008 303.93 306.711 302.625 304.279 301.694C303.028 301.217 301.39 301.756 300.143 301.279C296.81 299.992 293.563 298.458 290.333 296.904C286.403 295.012 286.43 294.96 284.679 298.83C284.588 299.035 284.442 299.223 284.569 299.012C282.64 298.488 280.999 297.663 279.396 297.715C277.901 297.774 276.014 298.475 275.617 296.799C275.167 294.883 277.369 294.921 278.694 294.585C280.978 294.033 282.983 292.333 283.204 290.185C283.274 289.465 282.585 288.577 282.056 287.92C281.33 287 279.947 286.376 279.67 285.396C278.17 280.08 275.262 278.193 269.859 278.635C267.933 278.793 265.831 277.852 263.958 277.063C263.271 276.774 263.01 275.477 262.581 274.61C261.413 272.136 259.871 270.33 256.739 270.651C255.946 270.73 255.089 270.179 254.366 269.951L255.92 266.734L251.958 266.782C251.689 264.171 253.653 263.693 255.526 263.294C257.398 262.895 258.088 261.935 257.895 259.83C257.104 260.09 256.333 260.104 256.045 260.484C254.365 262.588 251.86 262.939 249.58 263.77C248.497 264.159 247.549 264.936 246.457 265.247C245.169 265.61 243.706 266.041 242.481 265.759C240.23 265.234 238.117 264.154 235.915 263.41C234.865 263.052 233.736 261.858 232.663 263.45C231.787 264.751 231.476 265.911 232.907 267.109C233.269 267.411 233.505 268.495 233.285 268.725C233.051 268.946 232.769 269.11 232.462 269.204C232.154 269.298 231.829 269.319 231.512 269.266C230.136 268.661 228.798 267.974 227.505 267.207C229.233 265.265 230.55 263.87 231.758 262.393C232.39 261.714 232.843 260.888 233.077 259.991C233.138 259.633 231.964 258.658 231.445 258.725C230.991 258.782 230.552 258.929 230.156 259.158C229.76 259.387 229.414 259.693 229.138 260.057C228.045 261.89 226.724 262.941 224.483 262.834C222.963 262.759 221.984 263.268 221.383 265.081C219.989 269.276 219.323 269.535 215.11 268.058C212.623 267.183 210.754 267.874 209.004 269.525C208.25 270.244 207.396 271.076 206.585 269.679C205.261 267.503 204.063 265.253 202.995 262.941C202.628 262.109 202.84 260.867 203.15 259.931C203.822 257.889 204.797 255.951 205.507 253.923C205.978 252.576 205.414 251.603 203.916 251.477C200.851 251.25 197.783 251.087 194.71 250.967C193.158 250.906 191.602 251.004 189.549 251.029C190.909 248.227 191.666 245.846 193.068 243.879C195.476 240.503 194.888 237.242 193.564 233.781C192.902 232.044 192.045 231.479 190.248 232.364C188.945 233.006 187.472 233.326 186.083 233.756C184.514 234.239 183.695 234.917 184.508 236.787C184.823 237.508 184.45 239.314 184.075 239.416C181.829 240.018 180.97 241.667 180.601 243.408C175.353 243.973 173.685 240.892 172.919 236.756C172.688 235.941 172.319 235.171 171.828 234.481C170.448 232.148 168.305 231.297 165.561 231.859C165.721 231.296 165.719 231.091 165.816 231.021C166.276 230.644 166.801 230.298 167.303 229.953C169.861 228.223 171.072 223.873 169.569 221.77C167.518 218.921 168.32 216.808 171.603 215.488C172.722 215.042 174.308 213.691 174.274 212.809C174.153 209.649 175.872 208.877 178.423 208.117C181.075 207.314 181.515 207.151 182.625 209.802C183.629 212.171 184.995 213.705 187.786 214.001C190.396 214.281 190.888 214.191 191.61 211.671C190.671 210.912 189.587 210.359 188.991 209.474C188.314 208.471 188.682 207.403 190.137 207.464C194.879 207.653 199.174 209.026 202.181 212.922C203.286 214.357 203.972 216.127 204.744 217.788C205.384 219.173 206.135 220.557 206.366 222.021C206.693 224.097 208.024 224.229 209.556 224.155C211.525 224.057 211.014 222.554 210.963 221.394C210.957 220.87 210.574 220.341 210.614 219.834C210.627 219.574 210.692 219.319 210.805 219.085C210.919 218.85 211.079 218.641 211.276 218.471C211.53 218.305 212.175 218.669 212.61 218.868C214.427 219.691 216.235 220.541 218.072 221.397C219.418 217.485 218.984 216.878 215.486 216.985C214.715 216.995 213.95 217.111 213.166 217.199C211.277 217.412 209.665 215.849 209.466 213.994C209.345 212.853 208.905 211.77 208.197 210.867C206.915 209.36 206.528 208.176 207.897 206.423C211.598 201.681 215.14 196.852 220.219 193.374C222.983 191.483 222.239 187.96 219.207 186.562C218.128 186.064 216.691 184.814 216.684 183.895C216.67 182.744 217.962 181.582 218.691 180.427L219.534 180.551C220.108 181.974 220.683 183.401 221.344 185.055C225.58 182.613 225.823 178.836 225.335 174.608C227.511 174.731 229.572 174.956 231.625 174.899C232.27 174.891 233.445 174.088 233.422 173.698C233.316 172.784 232.91 171.931 232.268 171.27C231.727 170.697 230.653 170.622 230.112 170.043C229.721 169.625 229.506 168.347 229.763 168.144C231.636 166.645 233.477 164.761 235.666 164.094C238.416 163.253 240.843 162.24 242.886 160.219C243.515 159.599 244.398 159.235 245.164 158.752C245.385 159.005 245.602 159.262 245.823 159.52L239.594 166.558C243.49 168.303 245.401 167.593 247.145 164.308C247.6 163.495 248.514 162.258 249.072 162.321C251.529 162.589 253.19 161.612 254.646 159.826C254.948 159.46 255.621 159.41 256.106 159.182C257.27 158.634 258.416 158.067 259.723 157.439C258.714 156.606 257.899 156.04 257.217 155.343C255.081 153.15 254.677 153.225 253.311 155.855C252.879 156.672 252.05 157.262 251.399 157.985L249.227 155.909C248.587 155.967 247.532 156.31 246.618 156.084C245.688 155.833 244.88 155.254 244.345 154.454C244.117 154.076 244.825 153.005 245.291 152.382C245.757 151.759 246.55 151.239 247.105 150.6C247.906 149.662 248.056 148.955 246.613 148.355C244.054 147.295 241.623 146.86 239.068 148.391C238.607 148.675 237.153 148.377 237.085 148.108C236.89 147.358 236.862 146.175 237.325 145.701C240.359 142.591 244.293 142.469 247.751 145.254C248.553 145.917 249.495 146.39 250.506 146.638C251.517 146.887 252.571 146.903 253.59 146.688C254.953 144.136 249.623 144.094 251.958 141.22C253.651 142.161 255.202 144.338 257.261 142.47C258.727 141.138 259.807 139.38 261.084 137.781C263.521 140.742 263.278 142.146 260.324 143.742C259.784 144.036 258.978 144.974 259.082 145.15C260.776 148.081 259.281 150.049 257.235 151.912C257.185 151.959 257.295 152.19 257.432 152.797L267.861 152.67C267.469 153.636 267.185 154.331 266.909 155.003C269.251 156.516 272.265 156.442 273.608 154.922C274.69 153.693 274.424 150.892 273.076 149.335C272.83 149.036 272.536 148.779 272.207 148.575C270.995 147.888 270.92 146.998 271.566 145.857C271.843 145.367 271.924 144.762 272.255 143.686C270.513 144.092 269.202 144.414 267.886 144.704C265.842 145.147 264.901 144.169 265.532 142.138C265.978 140.67 266.742 139.291 267.105 137.806C267.274 137.122 266.882 136.272 266.664 135.523C266.33 134.371 265.708 133.255 265.605 132.091C265.438 130.157 265.595 128.559 263.084 127.591C260.962 126.718 258.686 126.281 256.391 126.307C254.533 126.33 253.872 125.474 253.94 123.361C254.027 120.63 253.344 117.872 252.911 115.138C252.843 114.919 252.729 114.715 252.579 114.541C252.428 114.367 252.243 114.227 252.035 114.128C249.638 113.015 248.82 110.722 247.633 108.643C247.059 107.647 246.051 106.485 245.044 106.246C243.292 105.836 242.735 107.416 242.079 108.826C241.422 110.236 240.452 111.863 239.177 112.482C235.944 114.048 233.266 111.648 233.75 107.845C234.018 105.776 234.495 103.728 234.874 101.671C234.177 101.703 233.518 101.994 233.025 102.488C231.419 104.127 230.661 104.095 229.282 102.208C228.94 101.788 228.685 101.306 228.53 100.787C228.251 99.5976 227.662 99.3123 226.51 99.7162C223.077 100.923 219.932 99.7958 217.022 98.1366C215.581 97.3138 214.543 97.902 213.711 98.6409C213.251 99.0503 213.238 100.318 213.425 101.109C213.704 102.294 214.544 103.361 214.749 104.547C215.009 105.929 214.998 107.348 214.715 108.725C214.415 110.038 213.594 111.236 212.99 112.46C211.658 115.21 211.694 115.131 214.572 116.433C215.506 116.863 216.229 117.829 217.051 118.552C216.226 119.133 215.397 119.71 214.577 120.3C214.427 120.444 214.29 120.601 214.169 120.769C215.643 123.151 214.213 124.417 212.235 125.658C209.412 127.409 209.438 128.37 212.09 130.241C212.465 130.506 212.886 130.696 213.284 130.946L212.293 131.278C212.318 133.311 212.343 135.344 212.367 137.377C212.377 138.199 212.285 139.026 212.239 139.849C211.204 139.531 210.022 139.411 209.174 138.846C207.862 137.933 206.861 136.613 205.591 135.64C204.32 134.666 203.879 133.938 205.511 132.883C206.115 132.495 206.425 131.665 206.919 131.009C203.648 129.443 203.648 129.443 204.485 125.31L195.018 125.425C194.952 125.012 194.864 124.647 194.841 124.276C194.71 122.239 194.411 120.567 191.575 121.256C190.857 121.436 189.822 120.767 189.059 120.293C186.836 118.927 184.667 117.835 181.87 118.648C180.741 118.978 179.26 118.323 180.044 116.725C181.033 114.713 179.329 114.037 178.468 113.133C177.879 112.513 176.601 112.459 175.647 112.308C174.873 112.25 174.096 112.259 173.324 112.336C173.448 111.448 173.257 110.295 173.757 109.722C176.208 106.875 176.124 102.624 179.398 100.152C180.627 99.2082 181.345 98.2711 183.097 98.6584C185.478 99.2145 186.057 98.7386 186.088 96.2733C186.111 94.379 186.831 93.5208 188.719 93.7022C190.324 93.8592 190.965 93.118 190.937 91.5446C190.929 90.6151 191.033 89.6879 191.248 88.7834C191.614 87.1821 192.611 86.3065 194.559 86.3294C194.294 88.6537 194.252 90.9382 193.655 93.0529C193.481 93.6724 191.708 93.8146 190.696 94.2353C190.46 94.331 190.329 94.6668 189.848 95.2669C190.923 95.3421 191.711 95.6157 192.331 95.39C193.858 94.8377 194.733 95.0221 195.293 96.7468C195.742 98.1108 196.975 98.277 198.146 97.5247C198.716 97.1211 199.198 96.6069 199.564 96.0128C200.805 94.1409 202.047 93.5409 204.065 95.2156C204.962 95.9614 206.474 96.1149 207.729 96.2018C208.231 96.2282 208.848 95.3155 209.273 94.7348C209.369 94.6036 208.946 93.8103 208.661 93.7395C205.866 93.0816 203.898 91.3553 202.249 89.0774C201.88 88.5712 200.885 88.495 200.167 88.2623C198.301 87.6536 196.371 87.1059 195.093 84.8189C196.312 84.5999 197.184 84.4361 198.056 84.2863C199.02 84.1215 200.094 84.1781 200.935 83.7641C202.343 83.0693 203.863 82.2896 204.857 81.1356C205.673 80.1973 206.442 77.7323 206.119 77.5041C203.972 75.9703 204.451 74.0612 204.728 72.0617C204.793 71.5967 204.521 71.0661 204.436 70.5565C204.296 69.7273 204.184 68.8931 204.057 68.059C204.912 67.9883 205.878 67.6331 206.602 67.9122C208.138 68.4971 209.503 68.8055 211.015 67.8588C211.389 67.6314 212.408 67.7491 212.611 68.0576C213.708 69.6413 215.201 71.2433 215.491 73.0131C215.898 75.515 217.041 74.777 218.53 74.5686C219.328 74.4568 220.833 74.8332 220.964 75.2912C221.522 77.2435 222.686 78.2181 225.089 78.2866C224.233 79.6664 223.819 81.2219 222.918 81.5948C220.916 82.4314 220.956 83.8004 220.911 85.4953C220.887 86.4557 220.488 87.3684 219.799 88.0388C219.445 88.3169 218.259 87.4957 217.425 87.2551C216.59 87.0145 215.534 86.4842 214.994 86.8203C213.785 87.5266 212.842 88.7032 211.395 90.0159C212.699 90.2925 213.553 90.635 214.408 90.62C216.494 90.5948 218.587 90.3745 220.663 90.2844C221.41 90.2522 222.421 90.0867 222.867 90.4852C224.215 91.6851 225.224 93.242 226.59 94.4463C227.797 95.4994 229.266 96.2708 230.655 97.0896C231.783 97.7584 233.181 98.1128 234.084 98.9932C236.844 101.685 240.374 101.591 243.777 102.511C243.969 100.368 243.274 99.3462 241.709 98.6271C240.728 98.1965 239.843 97.5749 239.105 96.7988C238.367 96.0226 237.792 95.1074 237.412 94.1065C238.104 94.1658 238.763 94.4311 239.303 94.8682C242.924 97.6747 243.711 97.4005 244.855 92.8931C244.937 92.5942 245.003 92.2913 245.053 91.9855C245.336 90.0695 244.874 88.766 242.712 88.1887C241.017 87.6594 239.399 86.9111 237.899 85.9629C237.38 85.6628 237.211 84.7689 236.878 84.1509C237.698 83.8996 238.693 83.2284 239.295 83.481C240.686 84.1462 241.987 84.9835 243.168 85.9735C244.453 86.9606 245.601 88.1305 246.872 89.1317C247.754 89.8267 248.473 89.688 249.105 88.5987C250.243 86.6492 251.503 84.7632 252.781 82.9047C253.53 81.8141 254.419 80.8238 255.495 79.4739C254.424 79.3011 253.921 79.1633 253.414 79.1416C251.485 79.0628 249.169 79.6943 247.714 78.8392C244.354 76.8697 241.195 74.9908 237.093 74.9986C236.261 75.0087 235.327 73.0703 234.681 71.899C234.586 71.7237 235.82 70.8221 236.436 70.2483C237.052 69.6745 237.575 69.1576 238.144 68.6122L237.883 68.1186L233.82 68.6831L233.384 68.0152L236.84 64.4593C235.181 64.4794 234.115 64.2927 233.161 64.541C230.966 65.1153 229.375 64.6285 228.355 62.5194C227.641 61.0426 226.575 60.5495 224.939 61.2795C223.303 62.0095 222.281 61.191 221.486 59.6455C220.974 58.6577 220.186 57.8399 219.218 57.2915C217.6 56.4337 216.203 55.8006 216.046 53.5372C215.922 51.7329 214.215 51.2382 212.488 52.0994C211.389 52.6558 210.334 53.402 209.167 53.6993C208.228 53.9291 207.238 53.816 206.375 53.3803C202.501 51.1618 198.81 52.1859 196.823 56.1512C196.424 56.9498 195.912 57.6802 195.415 58.4429L194.346 59.1939C193.815 58.2487 192.808 57.2581 192.895 56.3797C192.974 55.6128 194.272 54.9333 195.068 54.2877C195.864 53.6421 196.827 53.0316 197.832 52.3231C196.092 51.049 190.046 51.2846 186.757 52.4849C186.994 55.6016 186.162 58.2299 182.783 59.3291C183.897 61.4743 184.857 63.3149 185.8 65.1603C186.547 66.6229 187.628 67.269 189.355 67.1738C190.219 67.1262 191.192 67.6669 191.983 68.1586C192.919 68.7276 193.595 69.6757 194.535 70.1982C196.734 71.411 196.942 72.1559 195.042 73.6551C193.62 74.7772 192.991 75.8385 194.095 77.5613C194.492 78.1832 194.471 79.0748 194.667 79.9405C190.016 79.5743 188.968 78.1526 189.854 74.2517C190.009 73.5582 189.831 72.3116 189.4 72.0568C188.427 71.4976 187.026 70.9111 186.073 71.2104C183.106 72.133 182.557 72.121 181.357 69.2713C180.342 66.865 179.118 64.763 176.755 63.3758C175.267 62.4978 175.048 61.2982 176.716 60.1267C177.384 59.6544 177.74 58.7774 178.351 58.2036C180.189 56.4777 182.027 54.7983 183.921 53.1367C184.521 52.6618 185.149 52.2233 185.801 51.8234C184.81 51.4247 183.744 51.249 182.677 51.3088C181.46 51.2864 180.088 51.5676 179.06 51.1019C176.542 49.9671 174.591 50.3992 172.484 52.1098C170.183 53.9945 168.915 54.0099 171.737 57.1928C173.013 58.6303 173.067 60.0177 171.322 61.3293C170.125 62.2304 169.14 63.4122 168.006 64.5215L174.752 71.8023C174.828 72.5927 174.829 73.3886 174.753 74.1791C174.534 75.6579 173.649 76.5924 172.039 76.3937C170.289 76.1782 170.195 74.9073 170.611 73.6257C171.141 72.0735 170.491 71.3293 169.137 70.784C168.203 70.41 167.373 69.8119 166.44 69.4518C166.019 69.2898 165.22 69.253 165.018 69.5015C163.929 70.8423 162.975 72.2883 161.82 73.9224L166.019 75.3757C165.797 75.8426 165.754 76.1866 165.606 76.2394C162.789 77.2855 159.968 78.3363 157.117 79.2806C156.696 79.4203 156.097 79.0423 155.588 78.8721C153.853 78.2942 152.127 77.6977 150.391 77.1245C149.64 76.8783 148.881 76.6785 148.13 76.437L148.09 75.4811L156.075 73.7969C156.114 72.3759 154.479 69.7404 158.156 69.9048C157.763 67.3796 156.376 66.0037 153.972 65.8564C151.824 65.7246 151.066 64.5221 150.861 62.5795C150.735 61.3695 150.694 59.9355 150.024 59.0523C148.943 57.631 148.92 56.4893 149.795 55.0814C150.054 54.6605 150.094 54.0937 150.464 52.7523C148.276 53.2429 146.287 53.1834 144.937 54.0771C142.106 55.9404 143.724 58.734 144.422 61.5108C140.398 61.0674 140.366 56.4535 137.281 55.3628C136.695 56.8507 136.172 58.194 135.645 59.5605C135.285 57.0674 133.729 57.0816 132.082 57.2825C130.69 57.4619 129.152 57.4108 129.043 55.6992C128.928 53.9134 127.841 53.5505 126.559 53.1714C124.559 52.5828 122.571 51.892 120.531 51.5035C119.465 51.2982 118.294 51.7116 117.165 51.7346C116.236 51.7458 114.989 51.9698 114.398 51.4803C110.681 48.4196 106.945 49.9317 103.244 51.2438C102.888 51.3688 102.464 52.4788 102.61 52.6441C104.141 54.3107 103.109 55.4559 102.094 56.8562C101.181 58.1206 100.632 59.6591 99.73 61.5037C100.723 61.8166 101.632 62.372 102.504 62.315C104.477 62.1844 105.83 62.623 106.681 64.6227C106.944 65.2416 108.283 65.6989 109.129 65.698C110.225 65.6847 111.335 65.207 112.404 64.8413C112.866 64.6779 113.59 64.2049 113.554 63.9593C113.224 61.6422 114.981 60.5115 116.285 59.2191C117.102 58.4108 118.281 57.9462 119.348 57.4227C119.454 57.3703 120.189 58.1645 120.13 58.2674C119.579 59.2025 118.798 59.9825 118.304 60.9355C117.891 61.7529 117.365 62.878 117.625 63.599C118.106 64.9302 119.141 66.0596 120.173 67.6301C120.937 67.3748 122.159 66.6173 123.344 66.6633C124.372 66.7066 125.359 67.6695 126.36 68.2237L126.076 68.9374L120.981 70.2617C122.627 75.6917 126.308 72.7551 129.367 72.1007C129.881 76.1842 129.88 76.096 133.857 75.3191C137.134 74.6806 140.46 74.2829 143.698 73.8074C144.037 73.0698 144.234 71.6887 144.959 71.3086C145.684 70.9284 146.991 71.4557 148.043 71.5869L148.149 72.2727C147.161 73.2131 146.316 74.3653 145.163 75.0941C144.01 75.823 142.666 76.1085 141.404 76.588C141.455 76.7963 141.531 76.998 141.629 77.1887C142.101 77.7818 142.573 78.3564 143.044 78.9403C142.407 79.2915 141.76 79.9399 141.128 79.9244C140.496 79.9088 139.486 79.3547 139.312 78.8229C138.785 77.1674 137.795 77.4951 136.581 77.7511C133.911 78.3126 131.217 78.7445 128.496 79.2416C128.546 75.323 128.049 74.9437 124.272 75.7182C123.75 75.8653 123.213 75.9497 122.672 75.9697C120.812 75.8947 119.177 75.4967 118.551 73.341C118.066 71.6246 116.632 71.7488 115.164 71.8037C113.671 71.7873 112.181 71.6673 110.704 71.4445C109.35 71.3123 108.001 71.1476 106.265 70.955C106.046 70.4563 105.573 69.399 104.971 68.0507L102.503 71.8315C101.715 70.7733 101.222 69.9901 100.614 69.3011C100.014 68.595 99.302 67.992 98.5064 67.5162C97.8237 67.2231 97.0723 67.1276 96.3379 67.2407C96.1568 67.2429 95.834 68.217 95.9645 68.6379C96.4479 70.1871 95.8431 71.2714 94.4222 71.3397C93.8582 71.347 93.2988 71.2373 92.7795 71.0174C92.2602 70.7976 91.7922 70.4724 91.4052 70.0625C90.4187 68.7885 89.3179 68.4305 88.0368 68.9195C87.0703 69.2933 86.2813 70.1337 85.4345 70.8078C84.4081 71.614 83.4212 72.2248 82.1403 71.1912C81.3911 70.5586 80.4258 70.2405 79.4469 70.3034C78.468 70.3663 77.5515 70.8054 76.8895 71.5286C76.5774 71.8527 76.5383 72.4613 76.3767 72.9274C76.843 73.0611 77.3672 73.3797 77.8075 73.2908C78.554 73.1611 79.3169 72.4694 79.9687 72.5822C80.9 72.752 81.7771 73.4284 82.6793 73.8864C82.1893 74.4726 81.7689 75.4432 81.1989 75.5616C80.0171 75.808 78.5923 75.9413 77.5275 75.4946C73.871 73.9697 70.272 72.5835 66.1957 72.4564C64.7223 72.4093 63.101 71.2822 61.8852 70.2525C60.3031 68.9068 58.9447 67.6142 56.883 69.2546C55.6818 70.1975 54.5682 69.9371 53.5351 69.0351C52.1266 67.8313 50.8114 67.0394 49.1541 68.6935C48.8098 69.0366 47.9916 68.9954 47.3966 68.9701C45.9444 68.9477 44.4963 68.81 43.0659 68.5583C41.8894 68.2496 40.7466 67.8249 39.6542 67.2905C39.1171 67.0602 38.6696 66.555 38.1198 66.427C35.7901 65.8842 33.4602 65.3275 31.1052 64.9985C30.1744 64.8705 28.726 64.9763 28.2268 65.5718C26.7749 67.3024 24.9214 67.7147 22.9078 67.9573C21.0517 68.1211 19.3357 69.0112 18.1335 70.4336C17.451 71.2403 16.2193 71.5848 15.2363 72.1398L14.6773 71.6313C14.4658 72.5855 14.315 73.5622 14.0149 74.4896C13.8447 75.0116 13.4737 75.8378 13.1302 75.8698C11.2741 76.0686 9.35428 75.9897 7.47921 76.1563C6.77648 76.226 6.1215 76.5433 5.63153 77.0514C5.26511 77.4875 5.35861 78.3034 5.25033 78.9546C5.88998 79.1233 6.54808 79.212 7.20959 79.2188C8.6712 79.0572 10.2438 78.4671 10.4814 80.8225C10.4842 81.0546 10.8633 81.2821 11.1025 81.4649C13.5406 83.2923 15.8384 85.4184 19.232 85.1917C19.3482 85.1903 19.4866 85.495 19.7039 85.7894C16.6522 87.7807 14.4477 86.0712 12.3208 84.2354C12.0344 84.4463 11.7625 84.676 11.5067 84.923C10.2096 86.3964 9.00802 88.0775 6.70648 86.4063C6.49552 86.251 5.95852 86.4153 5.63966 86.5584C4.28155 87.2108 2.95206 87.9233 1.61299 88.6126L1.6186 89.0767C3.26943 91.1132 5.00851 88.539 6.84135 89.1064C6.85184 89.6483 6.80858 90.19 6.71223 90.7234C6.06513 92.9223 7.09198 94.4604 9.26634 94.4527C9.7309 94.447 10.195 94.4043 10.66 94.4358C12.2645 94.5649 14.099 95.2669 15.4119 94.7172C16.7248 94.1675 17.5161 92.3706 18.9036 90.6873L18.9541 94.8647L20.7664 96.4164L20.846 97.2418C17.7087 95.9985 15.7973 98.157 13.435 99.1419C13.3703 99.1705 13.2817 99.1437 13.2074 99.1446C9.42531 99.144 9.17742 99.393 9.53161 102.555L5.89399 106.043L12.4169 107.543L10.5109 108.991C11.9944 116.4 16.1735 113.123 20.11 110.913C20.174 111.209 20.2334 111.51 20.2928 111.806L17.425 115.179L24.708 118.057C25.0926 117.588 25.5655 116.737 26.2894 116.274C26.8981 115.89 27.8051 115.972 28.5795 115.847C28.7112 116.746 29.099 117.697 28.8719 118.513C28.7382 118.978 27.6539 119.228 26.9745 119.524C25.9946 119.945 24.3471 120.099 24.1226 120.752C23.3737 122.985 22.2786 124.251 19.9142 125.064C19.1184 125.338 18.2434 125.99 17.1388 126.082C16.0341 126.174 14.6151 126.024 14.641 127.774C14.6557 128.99 14.805 130.2 14.9345 132.069C16.0124 131.295 16.9929 130.926 17.4257 130.215C18.337 128.732 19.3983 128.51 20.9516 129.007C21.5952 129.208 22.6077 129.177 23.0909 128.795C26.6164 126.018 30.0569 123.14 33.4974 120.253C34.7208 119.222 35.793 117.974 37.0686 117.035C38.7037 115.845 38.8134 114.929 37.2408 113.597C36.6258 113.076 36.0842 112.474 35.219 111.621C37.197 111.133 39.3708 112.23 39.3729 109.329C39.3749 106.427 41.6383 104.562 45.3988 104.312C44.9707 105.413 44.8758 106.783 44.2293 107.111C40.8362 108.921 42.0469 112.216 41.4709 114.916C41.4924 115.121 41.5674 115.317 41.6885 115.484C41.8095 115.651 41.9724 115.784 42.1608 115.868C42.3677 115.863 42.5696 115.803 42.7467 115.696C42.9238 115.589 43.07 115.438 43.1709 115.257C43.5702 112.931 45.1561 112.675 46.9958 113.038C48.8355 113.401 49.7119 112.495 50.0915 110.842L51.0975 106.429C51.9682 106.967 52.5278 107.141 52.8298 107.523C54.0992 109.141 55.8166 109.766 57.7463 110.272C59.5079 110.714 61.1503 111.665 62.8501 112.378C63.7841 112.766 64.7552 113.534 65.5899 113.403C66.7816 113.208 67.8391 112.285 69.004 111.793C69.6172 111.616 70.2492 111.514 70.8867 111.487C70.9345 111.983 71.1833 112.579 70.9927 112.952C70.2163 114.447 71.1081 114.808 72.2611 115.258C73.0173 115.541 73.9233 115.93 74.3258 116.551C75.7461 118.735 76.6777 118.932 78.8641 117.611C79.6621 117.137 81.0939 116.813 81.7261 117.219C82.3582 117.624 82.259 119.027 82.5077 119.994C82.7217 121.051 83.0185 122.089 83.3955 123.099C83.8913 124.067 84.4537 125 85.0787 125.891L84.5487 126.246L88.4358 128.399L86.911 131.403L92.117 132.352C92.1747 132.535 92.2083 132.725 92.2167 132.917C92.1878 133.144 92.123 133.366 92.0249 133.574C90.7476 136.3 90.8994 136.554 94.0375 137.091C94.4611 137.16 95.2166 137.388 95.2184 137.541C95.1907 139.863 97.2548 140.339 98.5605 141.502C99.0301 141.914 99.0912 142.74 99.4879 143.269C100.059 144.033 100.639 145.112 101.427 145.339C105.471 146.581 106.637 147.755 107.233 152.047L102.448 152.104C103.237 155.117 107.555 154.888 107.334 158.484C104.777 157.99 105.262 159.67 105.248 161.206C105.228 162.998 104.929 164.789 104.802 166.583C104.719 167.781 104.719 168.984 104.697 170.186C104.658 171.965 104.983 173.841 104.501 175.481C104.019 177.121 104.15 178.029 105.266 179.185C106.258 180.218 107.486 181.479 107.66 182.749C107.946 184.863 108.925 185.984 110.62 187.04C111.856 187.819 113.647 188.763 112.525 190.879C111.044 193.65 113.704 194.969 114.802 196.668C115.276 197.424 117.281 197.632 118.473 197.427C121.621 196.883 123.128 198.164 121.983 201.098C121.236 203.057 121.862 203.732 123.55 204.25C124.949 204.697 125.635 205.339 124.712 206.97C124.412 207.494 124.897 208.825 125.438 209.389C127.132 211.156 129.06 212.692 130.814 214.398C131.162 214.737 131.129 215.453 131.27 215.994C130.733 216.148 130.178 216.23 129.619 216.237C128.903 216.096 128.2 215.896 127.516 215.64L126.902 216.33C127.59 217.153 128.146 218.172 128.999 218.746C130.067 219.472 131.45 219.72 132.564 220.393C133.196 220.775 134.081 221.721 133.98 222.205C133.379 224.779 134.791 225.881 136.768 226.855C138.025 227.476 139.658 228.027 138.665 230.082C138.557 230.311 139.063 231.066 139.446 231.247C140.577 231.781 141.78 232.147 142.966 232.597C142.741 231.471 142.3 230.4 141.668 229.442C141.032 228.303 140.15 227.209 139.866 225.982C139.341 223.645 138.144 221.512 136.423 219.845C135.595 219.015 135.433 217.536 134.936 216.358C134.505 215.342 133.95 214.369 133.593 213.334C132.775 210.976 131.971 208.609 131.347 206.203C131.239 205.777 131.917 204.919 132.429 204.648C132.734 204.492 133.581 204.978 133.934 205.392C135.126 206.77 136.112 208.327 137.359 209.649C138.38 210.732 138.745 211.712 137.658 212.844C136.68 213.858 137.015 214.625 137.953 215.333C138.755 215.941 139.63 216.455 140.399 217.091C140.868 217.461 141.566 218.269 141.465 218.419C140.489 219.898 141.742 220.533 142.525 221.136C143.993 222.274 146.095 222.815 145.773 225.344C145.747 225.549 146.304 225.867 146.627 226.063C149.281 227.697 149.719 230.505 150.253 233.163C150.787 235.821 150.989 238.678 151.394 241.431C151.438 241.615 151.523 241.787 151.644 241.933C151.765 242.079 151.919 242.195 152.092 242.272C155.042 243.03 156.607 246.767 160.374 245.932C161.639 245.652 162.325 246.67 161.547 248.053C161.331 248.538 161.151 249.039 161.008 249.55C161.942 249.752 162.889 249.886 163.842 249.952C165.7 249.93 167.339 250.179 168.265 252.182C168.499 252.7 169.474 253.096 170.135 253.158C172.749 253.377 175.29 253.318 176.362 250.181C176.51 249.743 177.097 249.457 177.51 249.076C179.926 250.588 181.005 252.562 180.21 255.232C181.61 255.744 183.307 255.84 183.945 256.714C185.064 258.228 186.284 258.078 187.752 257.991C189.056 257.91 190.373 258.029 191.683 258.027C193.207 258.008 193.494 258.724 193.134 260.121C192.366 263.065 192.881 264.107 195.469 265.664C196.779 266.442 197.764 266.388 198.447 264.857C198.863 263.924 199.415 263.058 200.137 261.74C202.12 266.581 196.779 266.019 195.831 269.099C197.388 268.755 198.583 268.407 199.798 268.253C200.726 268.135 201.881 267.958 202.587 268.391C202.981 268.641 202.645 270.052 202.618 270.939C202.62 271.083 202.496 271.219 202.447 271.363C201.863 272.995 202.755 273.379 204.071 273.08C204.997 272.869 205.86 272.343 206.909 271.89C207.089 272.575 207.056 273.308 207.393 273.532C208.47 274.211 209.583 274.83 210.729 275.386C210.914 274.603 211.063 273.808 211.291 273.058C211.487 272.401 211.777 271.775 211.998 271.192C213.948 273.063 215.656 274.806 217.483 276.409C218.845 277.599 218.804 278.468 217.32 279.479C216.587 280.066 215.905 280.715 215.281 281.416C215.949 282.527 216.485 283.412 217.063 284.38C215.74 285.231 213.447 285.008 214.467 287.48C214.609 287.863 214.674 288.27 214.658 288.678C214.641 289.087 214.543 289.487 214.37 289.858C214.197 290.175 212.977 289.93 212.122 289.94C212.2 290.599 212.292 291.331 212.38 292.036L211.817 291.606C211.083 292.39 210.171 293.079 209.653 293.99C209.03 295.089 208.114 296.576 208.423 297.547C209.123 299.762 208.606 301.185 206.556 302.249C209.028 304.54 211.426 301.94 213.91 302.889C213.008 303.797 211.997 304.589 210.899 305.247C210.231 305.677 209.31 305.948 208.931 306.556C208.189 307.758 207.741 309.142 207.121 310.57C207.288 310.912 207.783 311.458 207.775 311.992C207.752 314.276 208.775 313.958 210.238 313.193C210.825 312.888 211.629 312.967 212.307 312.871C212.205 313.731 212.419 314.865 211.952 315.405C210.472 317.122 211.789 317.686 212.917 318.355C213.49 318.622 214.087 318.837 214.699 318.997L213.184 320.914L213.872 320.873C214.534 323.019 214.975 325.27 215.919 327.282C217.069 329.743 220.033 331.285 219.631 334.563C221.71 335.879 221.449 337.735 220.841 339.692C220.282 341.495 220.976 342.378 222.865 342.23C223.863 342.153 224.855 341.946 225.853 341.883C226.593 341.87 227.333 341.897 228.07 341.963C227.902 342.656 227.729 343.359 227.566 344.048C227.517 344.262 227.506 344.485 227.497 344.513C228.776 345.027 230.618 345.195 231.028 346.049C231.781 347.644 233.014 348.965 234.554 349.827C236.145 350.787 236.681 352.057 235.505 353.914C235.099 354.56 235.477 355.85 235.785 356.747C236.012 357.413 236.729 357.92 237.389 358.719C236.317 359.25 235.282 359.853 234.293 360.526C233.754 360.941 233.03 362.096 233.157 362.238C235.277 364.627 235.146 367.284 234.358 370.078C234.304 370.265 234.544 370.54 234.514 370.74C234.232 372.731 234.847 375.23 232.663 376.333C230.686 377.327 231.195 378.31 231.679 379.85C232.133 381.293 232.649 383.236 232.05 384.386C230.987 386.395 231.075 387.958 232.142 389.755C233.21 391.553 233.115 393.313 231.649 395.058C230.444 396.465 229.753 398.103 230.238 400.182C230.674 402.061 230.441 403.893 227.74 404.162C226.724 404.258 225.606 404.843 226.509 406.521L229.014 404.592L229.789 404.931L229.029 407.763C228.709 408.946 228.365 410.12 228.077 411.312C227.48 413.77 226.308 416.017 226.281 418.728C226.273 419.991 225.336 421.279 226.005 422.808C226.602 424.193 226.508 425.977 228.796 425.81C229.029 425.807 229.47 426.572 229.564 427.031C230.182 430.12 228.787 431.914 225.502 432.349C222.858 432.696 222.389 433.449 223.317 434.928C224.931 435.076 226.702 434.734 227.324 435.428C228.11 436.3 227.959 438.015 228.207 439.335C228.735 439.87 229.193 440.47 229.572 441.12C229.93 441.895 230.099 442.744 230.066 443.597C230.004 444.577 229.625 445.534 229.353 446.502L226.968 445.208L228.086 442.762C227.926 442.579 227.77 442.395 227.615 442.206L223.527 443.806L229.46 455.34C230.717 456.309 231.923 457.264 231.491 459.591C231.408 460.056 232.932 460.799 233.716 461.421C234.173 460.821 234.877 460.279 235.041 459.608C235.306 458.5 235.222 457.285 235.283 456.147L235.821 456.08L239.137 461.35L233.054 463.23C236.127 465.254 238.43 464.79 240.441 462.031C240.647 464.029 240.37 465.319 239.561 466.066L243.008 466.025C244.189 464.557 244.544 464.678 246.715 465.557Z" stroke="white" stroke-miterlimit="10"/>
<path d="M368.239 14.0481C365.144 14.3455 362.09 14.6517 359.869 17.3107C359.411 17.8779 358.387 18.0574 357.585 18.2667C356.252 18.6589 355.234 18.9962 354.599 20.624C354.184 21.7013 352.298 22.5086 350.908 22.8365C349.925 23.0295 349 23.4443 348.202 24.0493C347.404 24.6543 346.755 25.4335 346.304 26.3274C345.768 27.3227 345.035 28.1996 344.401 29.1357C343.871 29.922 343.351 30.7128 342.434 32.098L347.853 31.4661C349.092 31.3211 349.926 31.5432 350.598 32.8952C351.122 33.9473 352.445 34.6044 353.515 35.5338C350.757 37.9996 346.455 34.57 343.466 38.3014C347.76 37.957 348.979 41.2196 351.5 43.3106L345.154 44.5293L345.251 45.6469C346.209 45.6817 347.196 45.8926 348.114 45.7144C350.052 45.3381 350.632 46.4917 350.929 47.9736C351.238 49.6735 349.99 50.2735 348.708 50.2519C346.217 50.2077 344.54 51.4071 342.869 53.0614C340.688 55.2464 338.793 54.9119 337.048 52.3751C336.731 51.9148 335.87 51.4099 335.44 51.5358C334.673 51.788 334.02 52.3042 333.599 52.9925C333.412 53.3244 333.894 54.3816 334.353 54.6638C336.409 56.0316 338.52 57.3244 340.7 58.4772C343.337 59.8704 344.959 61.8655 343.955 62.9918C342.25 64.9018 340.344 63.2583 339.093 62.4007C334.478 59.207 330.727 62.1445 326.726 63.6691C326.486 63.7602 326.351 64.1378 325.811 64.8082C327.166 65.0935 328.245 65.5818 329.276 65.4951C332.334 65.226 335.376 64.7389 338.424 64.326C339.607 64.1678 340.946 63.5017 341.617 65.1415C342.23 66.6521 341.167 68.6982 339.717 69.4307C336.023 71.2997 332.404 73.2979 328.719 75.1668C328.099 75.4087 327.426 75.4778 326.77 75.3668C325.546 75.2377 324.343 74.8577 323.12 74.7843C321.335 74.6759 320.267 75.5105 320.536 77.4291C320.806 79.3476 320.014 80.3646 318.146 80.675C317.766 80.753 317.401 80.8889 317.063 81.078C312.386 83.4882 307.614 85.426 301.803 83.5837C302.211 84.6883 302.646 85.3097 302.602 85.8951C302.517 86.8527 302.259 87.7869 301.841 88.6525C301.388 89.5864 300.425 90.313 300.172 91.263C299.647 93.2144 299.34 95.0936 297.334 96.3016C296.36 96.889 296.355 98.0171 297.432 99.0254C299.843 101.294 298.455 106.821 295.299 107.871C294.854 107.947 294.397 107.871 294 107.655C293.369 107.363 292.774 106.996 292.231 106.562C288.946 103.905 285.243 102.33 280.954 102.321C279.054 102.316 278.066 101.335 277.505 99.531C276.708 96.9597 275.664 94.4469 274.68 91.8175L277.802 89.1197L277.25 88.3976L274.264 90.4298C271.35 88.4922 270.23 84.9962 271.434 81.5883C271.816 80.5016 272.024 79.3618 272.053 78.2106C272.111 75.6984 272.087 73.3498 274.919 71.9925C275.727 71.6067 275.964 70.0255 276.462 68.9936C274.992 68.8675 272.679 68.1109 272.203 68.7248C269.998 71.6203 267.43 69.7388 264.869 70.118L269.546 62.6711C270.329 63.59 270.786 64.5129 271.52 64.8662C272.379 65.2643 273.484 65.1441 274.479 65.2481C274.13 64.426 273.965 63.4346 273.391 62.8149C272.538 61.8968 271.509 60.9344 270.343 60.5307C269.596 60.2798 268.367 60.8192 267.63 61.3759C267.036 61.8194 266.858 62.8104 266.268 64.0059C266.002 63.1364 265.657 62.6206 265.783 62.2617C266.583 59.6477 265.098 57.8831 263.764 55.9356C263.127 54.9694 262.874 53.8003 263.055 52.6575C263.772 49.6639 262.994 47.5983 260.6 45.5569C257.158 42.5997 253.33 41.4669 248.932 41.2183C247.239 41.1274 245.458 40.2019 243.983 39.2449C242.395 38.2104 241.466 37.8549 240.272 39.7865C239.598 40.8902 237.54 42.4656 237.235 42.2511C235.797 41.2194 233.306 41.2263 233.103 38.6477C233.071 38.2535 231.838 37.781 231.107 37.6645C229.711 37.4354 228.294 37.4386 226.86 36.8153C230.083 34.4135 233.992 37.1933 237.377 35.4904C236.809 33.0973 235.159 32.6948 233.308 33.33C229.662 34.5811 227.382 32.3897 224.382 30.1885C225.692 30.1726 226.448 30.0381 227.146 30.1782C229.405 30.6151 231.202 30.1617 232.642 28.1992C233.049 27.6465 234.092 27.4574 234.88 27.3179C236.016 27.1185 237.283 27.3538 238.319 26.956C239.355 26.5582 240.785 25.696 240.891 24.887C241.074 23.4921 240.746 21.7367 238.611 21.5165C238.313 21.4876 238.061 20.9986 237.793 20.7187C238.119 20.4548 238.448 19.9541 238.773 19.9594C243.248 20.0306 246.531 16.7368 250.663 15.7769C251.998 15.4683 252.997 13.929 254.279 13.1753C255.339 12.4868 256.538 12.0396 257.79 11.8655C259.647 11.7177 261.51 12.1083 263.368 12.0859C265.124 12.0646 266.876 11.6999 268.632 11.6973C269.455 11.6873 270.517 11.9483 271.058 12.4896C273.071 14.5263 274.15 14.9636 277.622 14.3134C276.675 12.8348 275.799 11.5131 274.781 9.90991C277.219 9.14853 279.86 9.37844 282.13 10.5498C283.957 11.4561 285.536 12.1055 286.875 9.85642C287.102 9.47765 287.798 9.38104 288.283 9.1477C290.908 8.02039 291.106 7.02923 289.157 4.55532C290.672 4.96407 292.16 5.47992 293.697 5.74914C295.233 6.01837 296.911 6.08627 298.525 6.21994C300.139 6.35361 301.836 6.4677 303.92 6.6189C303.369 5.23291 303.019 4.36443 302.483 3.07575C305.237 3.33025 307.669 3.54221 310.097 3.79136C314.047 4.20779 317.848 4.18503 321.698 2.55547C325.461 0.954827 329.475 1.70933 333.255 3.0841C333.862 3.30423 334.357 4.25455 334.598 4.97117C335.287 7.01931 336.353 7.5913 338.252 6.73738C342.023 5.04379 342.023 5.04379 345.59 8.36157C344.813 8.69592 344.162 9.01482 343.487 9.25974C342.441 9.63912 340.737 9.75724 341.472 11.3313C342.006 12.4529 343.406 13.7079 344.55 13.8519C345.946 14.0254 347.573 13.314 348.87 12.5741C351.177 11.2511 353.427 10.6111 356.157 11.1583C358.323 11.5963 360.641 11.2155 362.865 11.4485C364.679 11.6401 366.461 12.2035 368.254 12.5996L368.239 14.0481Z" stroke="white" stroke-miterlimit="10"/>
<path d="M172.522 40.2533C169.144 41.0137 168.379 40.4334 168.528 37.001L171.07 36.6639L170.227 34.5712L164.718 33.8858C164.588 31.9841 164.459 30.1752 164.313 28.0741L172.682 30.851C171.881 35.6607 176.371 33.9491 178.78 35.6654L173.073 37.0992C175.919 37.9932 178.47 39.5964 181.563 38.6677C183.206 38.1836 183.706 39.1385 183.588 40.5279C183.417 42.5586 184.391 43.1689 186.237 42.8912C186.539 42.8016 186.861 42.7977 187.166 42.88C192.211 45.5439 196.758 41.9284 201.556 41.7775C203.214 41.7203 204.882 41.7372 206.545 41.7171C206.655 41.9618 206.77 42.2065 206.884 42.4511C207.016 41.4654 207.153 40.4842 207.349 39.0474C204.111 40.2378 200.724 38.3105 198.042 40.9287C197.735 41.2295 197.023 41.1685 196.494 41.1795C193.706 41.2364 190.92 41.3537 188.131 41.2343C187.42 41.2057 186.174 40.3945 186.168 39.9304C186.156 38.9185 186.497 37.4893 187.22 36.9745C188.385 36.1527 189.27 35.5292 189.204 33.9377C189.199 33.4736 189.917 32.9543 190.377 32.5309C191.227 31.7639 192.124 31.0521 193.003 30.322L192.5 29.46C190.919 30.0826 188.956 30.3152 187.835 31.4058C185.833 33.3611 183.583 33.198 181.348 32.8351C179.56 32.5411 177.885 31.5633 176.162 30.8785C175.952 30.7928 175.616 30.6669 175.591 30.5187C174.968 26.599 171.298 27.4604 168.942 26.2773C168.615 26.1141 168.256 26.0117 167.971 25.8991C167.365 21.9095 170.426 19.8717 172.651 17.9508C175.024 15.9166 177.879 17.5765 180.305 19.1719C181.696 20.0026 183.131 20.76 184.602 21.441L185.265 20.5417L179.956 14.5943C183.139 13.8084 185.888 11.3566 189.554 12.9045C190.254 13.2024 191.651 12.2756 192.526 11.6337C194.083 10.5008 195.387 10.044 196.996 11.6261C198.604 13.2082 201.039 12.9141 202.833 11.393C203.941 10.4511 205.364 9.38482 206.715 9.28492C211.548 8.92936 216.413 8.98653 221.262 8.82575C222.478 8.75136 223.686 8.58152 224.875 8.31782C226.915 7.92641 228.929 7.37748 230.979 7.09272C231.749 6.98128 232.866 7.16273 233.36 7.67204C235.153 9.50722 237.263 9.17995 239.417 8.99142C241.57 8.80289 243.868 8.66367 246.217 8.50063C246.678 12.8076 249.791 10.5092 252.502 11.0567C251.561 11.9965 251.051 12.8476 250.312 13.1861C249.1 13.68 247.838 14.0393 246.547 14.2576C244.809 14.6221 242.761 14.3034 242.478 17.0225C242.424 17.5477 241.05 18.0239 240.217 18.3543C236.38 19.8924 232.526 21.3904 228.656 22.8485C227.801 23.1745 226.892 23.334 226.008 23.5954C225.424 23.7603 224.551 23.7616 224.314 24.1498C222.915 26.4135 221.045 25.8558 219.013 25.3883C218.021 25.1589 216.881 25.3863 215.843 25.5984C215.629 25.708 215.448 25.8707 215.316 26.0707C215.184 26.2707 215.106 26.5013 215.09 26.7402C215.135 27.0646 215.758 27.461 216.187 27.5626C217.193 27.7964 218.975 27.6078 219.125 28.0516C219.562 29.5179 219.699 31.0571 219.528 32.5775C219.495 32.9724 218.171 33.7173 217.681 33.5607C215.083 32.7287 213.329 34.8621 211.104 35.2326C210.835 35.2776 210.404 36.1695 210.489 36.2474C210.933 36.8052 211.502 37.2514 212.149 37.5503C214.529 38.3664 214.959 39.3453 213.511 41.3915C213.074 41.8582 212.5 42.1754 211.872 42.2979C210.849 42.5796 209.782 42.6992 208.678 42.8936C209.942 45.5708 208.82 49.6184 206.412 50.6874C205.714 50.9976 204.385 50.5866 203.682 50.0612C201.806 48.6356 200.061 48.4385 197.915 49.5925C195.607 50.8274 193.193 50.2763 191.037 49.0722C189.587 48.2588 188.437 48.0917 186.999 49.0886C185.364 50.2225 180.192 49.8208 178.842 48.4631C178.489 48.1099 178.761 47.1039 178.817 46.3976C178.875 45.371 179.164 44.3091 178.971 43.3412C178.882 42.9059 177.801 42.297 177.277 42.3869C173.971 42.9236 173.981 42.9791 172.522 40.2533Z" stroke="white" stroke-miterlimit="10"/>
<path d="M119.74 37.9442C120.719 36.3215 121.516 34.9889 123.369 36.0435C124.567 36.7346 125.871 37.3594 124.157 38.9306C123.913 39.1564 124.114 40.4352 124.324 40.4977C125.338 40.8642 126.419 41.0095 127.493 40.9235C128.282 40.8026 128.96 40.0099 129.702 39.5413C130.175 39.313 130.659 39.1103 131.154 38.9342C130.885 40.539 130.69 41.7251 130.43 43.2462C131.095 43.2753 132.243 43.6885 132.717 43.2882C134.253 42.0023 134.778 43.189 135.699 44.032C136.827 45.0629 138.17 45.859 139.674 46.9363C140.324 44.6074 139.253 43.6455 138.122 42.7029C136.78 41.5864 136.915 40.0297 138.55 39.6478C139.824 39.3492 141.436 39.3437 142.54 39.9106C143.208 40.2506 143.2 41.9173 143.575 43.2729C143.751 43.2151 144.431 42.9886 145.116 42.79C146.042 42.5096 147.604 41.8315 147.727 42.0296C148.382 43.2423 148.892 44.5278 149.247 45.8596C149.329 46.1186 149.045 46.4934 149.322 47.1399L152.541 44.3667L154.135 47.0399C153.957 47.3206 153.895 47.5442 153.797 47.5593C150.225 48.0435 146.629 48.3887 143.082 49.0258C140.875 49.4239 138.753 50.2806 136.6 50.8962C136.102 51.0657 135.576 51.1367 135.051 51.1052C132.98 50.8564 130.918 50.5332 128.833 50.252C129.228 49.1517 129.638 48.0233 130.267 46.2703C128.465 47.1137 127.396 47.8462 126.219 48.1065C124.989 48.3244 123.731 48.3239 122.502 48.105C121.822 48.0111 120.663 47.4448 120.664 47.0967C120.682 46.1242 120.994 45.18 121.56 44.3887C122.095 43.6767 123.062 43.2889 124.246 42.4994C121.593 41.7469 120.647 43.0072 119.713 44.5132C119.134 45.4487 118.72 46.9531 116.709 45.8679C117.572 44.6134 118.371 43.4478 119.334 42.0528C118.637 42.0102 118.296 41.9075 118.232 41.9965C116.105 45.0768 112.549 44.6092 109.539 45.4208C108.793 45.6202 107.824 44.9774 106.956 44.7233C107.47 43.7886 107.757 42.4992 108.549 41.9558C110.061 40.9255 111.875 40.3465 113.538 39.5233C114.599 39.072 115.598 38.4891 116.514 37.7883C117.677 36.7622 118.62 36.398 119.74 37.9442Z" stroke="white" stroke-miterlimit="10"/>
<path d="M204.257 228.968C203.883 232.58 201.403 232.716 198.93 233.396C197.423 230.583 201.209 229.687 200.96 227.996C203.193 227.807 205.192 227.522 207.194 227.503C208.444 227.488 209.698 227.858 210.946 228.084C211.895 228.201 212.831 228.407 213.742 228.7C214.586 229.024 215.586 229.43 216.082 230.116C217.637 232.334 219.184 234.196 222.293 234.26C224.342 234.3 225.282 235.914 225.267 237.724C222.581 237.757 219.884 237.943 217.228 237.715C216.526 237.654 215.684 236.401 215.343 235.528C214.628 233.61 213.328 232.563 211.468 233.193C209.737 233.776 208.886 232.937 207.848 231.998C206.862 231.132 205.849 230.318 204.257 228.968Z" stroke="white" stroke-miterlimit="10"/>
<path d="M163.335 56.3196L158.469 53.9228L158.551 52.9934C159.97 52.8091 161.474 52.2524 162.797 52.5335C164.763 52.9739 166.524 53.3704 168.108 51.4108C168.82 53.8347 167.981 55.1539 165.246 55.707L170.304 57.0663C169.481 59.7037 169.383 61.9331 166.315 62.9776C163.247 64.0221 163.512 64.4506 161.001 61.9417C159.552 60.4923 157.649 59.4987 156.072 58.1622C155.649 57.8006 155.671 56.9183 155.487 56.2753C156.063 56.3125 156.635 56.4003 157.195 56.5378C159.014 57.1147 160.806 57.7243 163.335 56.3196Z" stroke="white" stroke-miterlimit="10"/>
<path d="M166.34 48.9209C163.898 48.6719 161.28 48.8892 159.076 48.0339C157.149 47.2913 155.694 45.3452 154.384 44.2144C155.627 42.5189 156.667 40.9373 157.882 39.53C158.125 39.3183 158.407 39.1569 158.713 39.0552C159.019 38.9535 159.342 38.9134 159.663 38.9374C162.091 39.0891 164.515 39.3708 166.994 39.6101C167.449 41.5218 167.971 43.5905 168.461 45.6735L166.114 48.2551L166.34 48.9209Z" stroke="white" stroke-miterlimit="10"/>
<path d="M149.113 31.7443C151.475 28.0716 147.28 29.2226 146.704 27.3309C149.75 27.5169 152.629 25.5277 155.632 27.9146C156.443 28.5593 158.069 28.4839 159.247 28.2886C160.707 28.0435 161.347 28.3143 161.695 29.8188C161.94 30.8649 162.708 31.7841 163.222 32.7713C163.484 33.2787 163.699 33.8146 163.938 34.3363C163.372 34.6408 162.773 34.88 162.153 35.0496C161.619 35.166 161.06 35.0713 160.594 34.7853C158.715 33.1415 156.397 33.5409 154.219 33.2562C152.581 33.0439 151.02 32.3293 149.113 31.7443Z" stroke="white" stroke-miterlimit="10"/>
<path d="M138.568 36.9459C133.685 37.6688 128.987 37.6606 124.527 34.5765C125.448 33.9525 126.168 33.164 127.048 32.9212C127.915 32.7499 128.814 32.873 129.603 33.271C130.398 33.6559 130.92 34.592 131.706 35.0188C132.122 35.2413 132.847 34.889 133.436 34.7936C133.136 34.2031 132.955 33.4671 132.486 33.0643C132.016 32.6615 131.344 32.7439 130.263 32.4877C130.704 31.8864 131.191 31.3202 131.72 30.7943C132.299 30.323 133.025 30.0125 133.619 29.5504C135.364 28.2017 138.784 28.6895 139.978 30.5737C140.079 30.7944 140.125 31.0357 140.114 31.2778C140.104 31.52 140.036 31.7562 139.916 31.9671C138.023 34.4736 138 34.4738 138.568 36.9459Z" stroke="white" stroke-miterlimit="10"/>
<path d="M223.04 241.135C224.611 241.492 226.366 242.98 227.636 240.425L225.267 238.899C226.192 238.576 226.837 238.1 227.405 238.186C230.445 238.669 233.458 239.273 236.481 239.896C236.918 240.025 237.287 240.32 237.508 240.719C238.131 241.89 238.915 241.728 239.79 241.114C240.108 240.892 240.382 240.517 240.711 240.448C241.675 240.255 242.664 240.183 243.643 240.06C243.582 241.165 243.811 242.421 243.348 243.313C243.066 243.864 241.735 244.015 240.857 244.072C240.309 244.106 239.682 243.71 239.167 243.377C238.502 242.911 237.723 242.632 236.913 242.571C236.102 242.51 235.291 242.668 234.563 243.029C233.37 243.55 231.995 244.3 230.841 242.647C230.638 242.357 229.688 242.559 229.089 242.571C227.472 242.59 225.838 242.735 224.244 242.662C223.695 242.636 223.178 242.104 222.644 241.809L223.04 241.135Z" stroke="white" stroke-miterlimit="10"/>
<path d="M170.425 44.039C173.768 43.4322 175.862 44.4374 176.421 46.9235C176.539 47.4559 175.927 48.6657 175.555 48.7073C173.699 48.9108 171.78 48.8365 169.568 48.8633C169.912 46.9419 170.16 45.5463 170.425 44.039Z" stroke="white" stroke-miterlimit="10"/>
<path d="M214.744 241.695C215.674 241.684 216.638 241.496 217.505 241.713C218.459 241.906 219.334 242.38 220.016 243.075C220.398 243.535 220.32 244.761 219.96 245.346C219.696 245.781 218.376 246.117 218.005 245.834C216.684 244.769 215.428 243.625 214.247 242.407L214.744 241.695Z" stroke="white" stroke-miterlimit="10"/>
<path d="M152.229 38.1777C150.579 37.9558 148.942 37.6424 147.326 37.239C146.799 37.0829 146.113 36.1163 146.182 35.6095C146.348 34.3726 147.356 34.3697 148.273 34.8878C149.714 35.6921 151.081 36.5854 152.509 37.4455C152.419 37.688 152.324 37.9305 152.229 38.1777Z" stroke="white" stroke-miterlimit="10"/>
<path d="M163.205 27.8693L160.114 23.5477L160.367 22.9412C161.167 23.0568 162.425 22.9163 162.695 23.3494C163.434 24.5892 163.768 26.0753 164.264 27.4619L163.205 27.8693Z" stroke="white" stroke-miterlimit="10"/>
<path d="M150.012 40.0335L154.26 38.5895C154.085 39.8682 153.983 40.6539 153.877 41.4444L150.017 40.818C150.019 40.558 150.016 40.2934 150.012 40.0335Z" stroke="white" stroke-miterlimit="10"/>
</g>
<defs>
<clipPath id="clip0_1901_25569">
<rect width="367.957" height="463.946" fill="white" transform="translate(0.383789 5.4353) rotate(-0.693117)"/>
</clipPath>
</defs>
</svg>
