<svg width="626" height="452" viewBox="0 0 626 452" fill="none" xmlns="http://www.w3.org/2000/svg">
<g clip-path="url(#clip0_1901_25603)">
<path d="M284.548 362.922C284.434 361.966 284.321 361.002 284.108 359.181C282.934 360.213 281.88 360.698 281.607 361.457C280.432 364.735 279.378 368.066 278.492 371.435C278.037 373.195 277.658 374.834 279.924 376.299C281.349 377.217 281.63 379.796 282.676 381.466C283.502 382.786 284.487 384.372 285.799 384.956C288.175 386.109 290.213 387.859 291.714 390.034C293.215 392.209 294.128 394.736 294.364 397.369C294.569 400.093 296.108 402.726 297.351 406.262C295.789 405.943 294.235 405.928 292.962 405.329C286.238 402.142 283.32 396.603 282.069 389.342C281.508 386.109 278.81 382.657 276.111 380.57C274.156 379.053 274.459 377.983 274.595 376.367C274.99 372.573 275.854 368.703 275.642 364.925C275.452 361.692 274.05 358.536 273.155 355.357C272.261 352.178 271.366 349.029 270.479 345.91C268.342 347.397 266.826 348.809 264.999 349.567C263.377 350.266 261.452 350.25 260.55 350.402C259.693 345.599 259.299 341.813 258.276 338.216C257.836 336.699 255.888 335.69 254.849 334.279C253.25 332.116 251.385 329.976 250.483 327.518C249.536 324.938 248.891 322.723 245.579 323.049C245.215 326.038 241.137 328.36 237.021 327.89C234.194 327.541 231.465 327.063 231.541 331.456C231.541 332.42 230.275 333.588 229.335 334.347C226.06 336.98 222.71 339.544 219.314 342.018C215.16 345.053 212.196 349.605 206.905 351.297C205.928 351.616 205.844 355.091 205.564 357.087C205.17 359.97 204.988 362.884 204.692 365.79C204.639 366.283 204.26 366.799 204.343 367.247C205.556 373.681 199.424 375.79 196.763 379.91C196.528 380.274 193.959 379.91 193.451 379.151C192.208 377.338 191.541 375.138 190.623 373.081C187.303 365.668 183.438 358.43 180.822 350.774C178.874 345.076 178.51 338.831 177.48 332.829C177.17 330.593 176.721 328.378 176.138 326.198C176.312 329.992 173.197 331.593 171.12 331.145C168.141 330.5 165.556 328.004 161.918 325.742L166.86 324.119C164.791 322.783 162.494 321.615 160.584 319.991C158.234 318.003 156.263 315.552 153.966 313.481C153.163 312.953 152.199 312.727 151.245 312.844C146.5 313.132 141.74 314.05 137.04 313.792C131.218 313.466 125.435 312.275 119.674 311.265C118.916 311.129 118.158 309.748 117.824 308.792C116.718 305.506 115.209 304.657 112.435 306.561C109.35 308.686 106.545 308.337 103.703 306.432C99.4807 303.602 94.6522 301.614 92.8027 295.992C91.7869 292.903 87.1024 292.122 84.3509 294.011C84.0412 294.283 83.8042 294.628 83.6612 295.015C83.5183 295.402 83.474 295.818 83.5322 296.227C84.6411 298.857 85.9937 301.377 87.5724 303.754C89.1491 305.977 92.3403 307.145 91.4989 310.825C91.3549 311.47 92.4919 312.411 93.2423 313.496L94.8872 309.862L96.0924 309.733C96.3047 311.379 96.4259 313.041 96.7519 314.657C96.9717 315.734 97.1764 317.115 97.9192 317.692C99.4352 318.914 106.659 317.51 108.061 316.053C109.865 314.164 111.715 312.328 113.739 310.271C114.345 311.296 115.103 312.009 115.164 312.775C115.437 316.744 118.014 318.087 121.349 319.407C123.979 320.439 126.14 322.662 128.27 324.179C127.732 330.424 119.553 331.608 120.349 337.443C116.915 340.28 113.746 342.906 110.563 345.501C110.191 345.829 109.738 346.052 109.251 346.145C104.999 346.608 100.754 346.904 98.7454 351.76C98.4347 352.519 96.8201 352.838 95.7513 353.217C88.8459 355.645 81.9101 358.028 75.0047 360.456C72.6852 361.268 70.4566 362.353 68.0916 362.944C67.3336 363.134 65.6281 362.292 65.4462 361.624C64.5138 358.255 63.9908 354.795 63.2177 351.358C62.7325 349.226 62.5733 346.806 61.3833 345.091C58.2451 340.637 54.4854 336.631 51.2791 332.192C50.0771 330.461 49.3433 328.448 49.149 326.349C49.0643 324.54 48.5682 322.774 47.6986 321.186C46.8291 319.598 45.6089 318.229 44.131 317.184C42.2209 315.742 41.478 312.813 40.0378 310.674C37.7638 307.32 35.3685 304.065 33.2157 301.03C32.7306 297.866 32.1091 294.664 31.7983 291.431C31.5441 289.655 31.6681 287.845 32.1621 286.12C33.5417 282.213 35.7626 278.533 36.7708 274.579C37.5288 271.605 36.9224 268.289 36.9224 264.64C34.3755 265.535 31.5026 266.984 28.4782 267.462C26.4846 267.773 24.2258 266.832 22.1716 266.188C20.1174 265.543 18.0632 262.834 16.4107 266.673C16.3046 266.931 15.7816 267.03 15.4405 267.159C12.7268 268.145 4.93452 264.283 3.90363 261.627C3.3806 260.277 2.38759 259.101 1.30365 257.302C2.16019 256.202 4.44937 254.169 0.469833 252.56C0.318231 252.492 0.659352 249.882 1.1748 249.707C3.23658 249.04 5.51817 249.055 7.61027 248.455C9.29293 247.919 10.7956 246.929 11.9537 245.595C16.2366 245.742 20.4719 244.658 24.1575 242.469C28.7056 239.843 33.7994 241.08 38.2868 243.607C43.3655 246.467 48.8989 246.096 54.2049 245.58C56.0469 245.398 57.5023 242.583 59.3973 241.391C60.9133 240.435 62.9145 239.426 64.5593 239.608C72.5184 240.504 80.4244 241.786 88.3456 242.939C90.0359 243.182 92.507 248.114 92.2114 250.625C92.1927 250.887 92.1312 251.143 92.0295 251.384C90.0435 255.739 90.8167 259.017 95.5542 260.945C99.5565 262.568 103.051 265.816 107.993 262.75C111.836 260.368 112.541 258.198 109.509 253.865C108.031 251.756 106.53 249.654 104.65 247.036C105.81 247.041 106.969 246.978 108.122 246.847C108.87 246.658 109.601 246.404 110.305 246.088C109.547 240.724 105.53 239.95 101.618 238.963C99.5792 238.455 94.5915 230.313 95.5542 228.614C96.1758 227.476 97.9116 226.702 99.2988 226.3C100.322 225.996 101.573 226.558 102.922 226.762C100.436 220.412 95.2055 219.243 85.8063 222.65C83.6384 220.563 84.0174 216.36 79.8028 215.76C78.9918 215.647 77.9912 213.067 78.0215 211.648C78.0898 209.076 78.8629 206.519 79.2874 204.242C82.5696 201.708 88.0651 203.446 89.8009 198.172C89.9522 197.994 90.1462 197.856 90.3649 197.772C90.5836 197.689 90.8198 197.662 91.0517 197.694C94.8417 198.742 98.8061 199.402 102.255 201.132C104.756 202.391 106.659 203.947 109.835 203.696C113.845 203.385 117.953 204.235 123.312 204.69C121.872 202.687 121.091 201.139 119.901 200.016C114.504 194.902 114.595 191.45 121.243 186.844L111.707 185.782L111.306 184.264C112.503 183.748 113.731 183.278 114.899 182.694C115.838 182.223 116.71 181.609 117.612 181.055C117.12 180.296 116.794 179.279 116.096 178.779C112.177 175.789 112.033 174.029 115.52 170.243C116.612 169.059 117.559 167.754 118.673 166.6C120.189 165.037 120.083 163.846 118.719 162.048C117.961 161.054 118.438 159.013 118.651 157.45C118.916 155.424 119.409 153.436 119.901 151.44C120.326 149.566 120.963 147.73 121.251 145.833C122.009 140.522 122.767 135.15 123.419 129.801C123.707 127.479 124.419 126.007 127.118 125.347C128.74 124.952 130.013 122.911 131.317 121.492C135.107 117.342 138.897 113.146 142.687 108.95C145.56 105.794 142.164 103.054 142.119 100.08C142.073 97.1058 141.573 94.0101 141.163 89.799L161.342 99.1089L163.184 96.4988L154.899 89.3134C155.145 88.9044 155.307 88.4504 155.376 87.9779C155.679 86.1948 158.34 83.9945 154.618 82.826C155.02 81.574 155.126 79.5026 155.884 79.2219C160.114 77.6512 161.743 74.4189 162.706 70.4051C163.214 68.364 164.351 66.9907 167.087 67.6432C169.619 68.2426 172.393 67.8026 174.94 68.273C178.177 68.8724 178.814 70.4506 177.313 73.4325C176.479 75.1094 175.418 76.6724 174.357 78.4631C177.616 80.231 178.147 82.7273 177.025 86.3162C176.267 88.8353 176.479 91.8476 177.025 94.4805C177.313 95.9145 179.185 97.0224 180.481 98.4336C178.003 106.143 173.606 111.606 163.578 109.2C163.669 109.747 163.752 110.285 163.835 110.824C166.089 111.311 168.366 111.683 170.658 111.94C172.765 112.084 174.91 113.275 176.881 110.634C178.852 107.994 181.929 106.127 184.294 103.707C184.592 103.266 184.775 102.757 184.825 102.226C184.876 101.696 184.792 101.161 184.582 100.672C182.27 97.3486 184.332 96.5367 187.008 95.8462C188.266 95.5124 189.494 95.0344 190.737 94.6247L190.555 93.5928C189.1 93.8128 187.66 94.1239 186.197 94.2301C184.734 94.3363 183.233 94.2301 181.815 94.2301C180.459 90.5349 179.685 87.0674 183.453 84.3662C181.831 82.1431 180.421 80.2462 178.351 77.4084C179.299 76.7028 180.436 75.2915 181.838 74.9349C185.575 73.9864 187.591 72.3854 185.287 67.9619C187.887 69.8057 189.502 71.308 187.849 74.3658C187.205 75.5495 187.743 77.4008 187.743 78.9715L198.605 80.967C196.506 77.932 190.851 79.973 190.032 74.4796L197.415 74.8818L197.483 74.2292L194.368 73.3794C202.16 69.2518 208.012 74.7148 214.235 76.7331C214.47 76.1413 214.705 75.5419 214.933 74.9425C213.417 73.8954 211.901 72.264 210.233 71.9074C205.822 71.0197 208.785 66.4444 206.269 64.7751C207.785 64.0163 209.301 62.772 210.87 62.5747C217.608 61.7477 224.393 61.2393 231.541 59.8356L227.925 57.233L229.911 56.186L227.728 54.8657C230.442 53.5227 233.072 51.8914 235.922 50.8898C240.97 49.1143 246.655 48.5756 251.165 45.9579C257.055 42.5359 262.725 45.4647 268.357 44.6377C271.503 44.1748 274.421 42.1338 277.453 40.897C278.177 40.7377 278.919 40.679 279.659 40.7225L284.897 40.2672C283.866 35.4491 287.398 34.0605 290.097 32.5279C294.986 29.7508 300.61 30.2516 304.264 33.3549L300.474 35.3353L309.653 36.8528L306.242 40.0624C311.139 39.5464 315.808 39.076 320.47 38.5448C325.382 37.9834 328.808 41.246 332.303 43.6589C335.062 45.5785 333.947 49.9642 330.824 51.5348C327.338 53.2875 323.661 54.6684 320.212 56.535C315.596 59.0541 311.169 61.9146 306.629 64.5778C305.782 64.9804 304.902 65.3079 303.999 65.5566L304.264 66.5658L331.272 60.2908L332.151 62.8023H351.98L351.359 63.8722C352.253 64.7144 353.087 66.1485 354.065 66.2775C358.811 66.8545 363.588 67.1333 368.369 67.1121C369.127 67.1121 369.824 64.6006 370.203 62.9541C372.287 61.558 374.539 61.2545 377.404 62.3622C379.481 63.1665 381.755 64.5247 384.65 63.3107C387.357 62.1801 390.214 64.9269 391.101 68.0681C391.541 69.6463 392.617 71.0273 393.837 73.167L389.115 74.2672L392.314 75.7847C391.617 78.6073 394.019 80.011 396.058 81.2098C403.047 85.3071 401.979 77.1277 405.223 75.0183C408.088 78.4327 411.363 79.0094 415.835 77.4843C418.382 76.6117 421.77 78.2431 425.067 78.7363C426.227 74.6162 429.714 78.4252 432.223 77.7575V73.0076H430.555C430.934 69.2973 436.885 72.7573 436.491 68.0757L451.984 69.9195C451.855 70.7921 451.749 71.5281 451.704 71.8164C457.222 72.0592 462.604 72.173 467.955 72.6207C469.593 72.7648 472.056 73.0456 471.071 76.0275C471.064 76.151 471.087 76.2743 471.139 76.3867C471.19 76.4991 471.268 76.5972 471.366 76.6725C475.801 77.5299 478.188 82.6894 483.275 82.219C488.778 81.7182 494.281 81.1491 499.799 80.8001C501.311 80.8232 502.81 81.0949 504.234 81.6044C509.297 83.046 510.063 84.3435 508.873 89.9507C511.086 90.2315 513.246 90.7095 515.414 90.7095C520.409 90.8461 525.412 90.8081 530.408 90.8157C532.553 90.8157 534.819 91.1875 536.798 90.6032C538.965 89.9735 539.83 89.9052 541.194 92.1663C542.286 94.0025 544.893 95.1482 547.053 96.0283C547.94 96.385 550.449 95.2696 550.464 94.7536C550.518 93.2361 549.706 91.7186 548.857 89.154C549.07 87.6365 550.775 87.424 553.239 87.6365C558.674 88.1752 564.177 88.0462 569.581 88.7746C573.049 89.291 576.423 90.3135 579.595 91.8096C587.175 95.2999 594.755 98.9951 602.1 102.971C603.616 103.783 604.374 106.135 605.291 107.857C605.771 108.9 606.169 109.978 606.481 111.082L607.527 111.029C607.679 109.898 607.838 108.753 608.02 107.455C614.546 106.408 619.761 109.8 625.265 114.557L616.1 118.23L615.608 117.403C614.85 119.679 614.531 122.266 613.25 124.231C612.78 124.952 609.543 124.884 608.573 124.034C606.057 121.819 601.713 122.471 600.288 118.252C599.947 117.258 596.15 117.251 593.921 117.145C590.95 117 589.54 115.946 590.578 112.782C587.804 113.062 585.522 113.586 587.827 116.621C585.31 121.545 581.095 122.896 576.055 122.592C576.206 123.192 576.267 123.852 576.388 123.867C580.876 124.285 580.512 128.822 582.558 131.288C583.362 132.259 583.157 134.073 583.415 135.507C582.096 135.696 580.641 136.341 579.481 136C576.494 135.112 573.713 134.983 570.923 136.546C564.313 140.264 557.658 143.883 551.086 147.677C550.093 148.246 549.487 149.506 548.706 150.447C542.263 145.894 539.216 146.031 533.258 151.365L532.78 148.102C530.15 149.968 527.474 151.403 524.207 150.56C524.019 150.556 523.832 150.597 523.662 150.678C523.492 150.76 523.344 150.881 523.229 151.031C521.167 154.415 519.151 157.86 516.923 161.57L520.417 162.071C521.035 164.402 521.524 166.765 521.88 169.15C521.971 170.068 521.311 171.806 520.743 171.919C516.142 172.853 515.672 173.573 517.4 178.118C517.443 178.502 517.443 178.889 517.4 179.272C514.194 181.017 507.341 179.568 509.593 187.064C506.492 187.246 504.704 188.202 503.688 191.571C502.877 194.265 499.936 196.321 497.23 199.477C496.282 195.456 495.357 192.649 494.956 189.765C494.198 183.824 493.515 177.853 493.288 171.874C493.227 170.303 495.259 168.763 495.736 167.041C497.116 162.018 502.187 161.835 505.363 159.21C508.539 156.585 510.987 153.504 514.035 150.94C516.377 148.967 519.28 147.669 521.615 145.712C522.82 144.718 523.555 143.018 524.192 141.501C525.056 139.437 525.632 137.252 526.307 135.18C522.35 134.786 521.524 135.628 521.493 139.877L509.866 147.161C509.722 144.566 509.6 142.442 509.479 140.188C508.006 139.913 506.513 139.761 505.014 139.733C501.399 139.862 498.003 140.234 495.653 143.876C493.644 146.971 490.832 149.544 488.353 152.374C488.892 152.708 489.968 153.353 491.961 154.559L476.142 156.706L475.149 155.325L477.719 154.392C474.148 154.392 471.094 149.695 467.023 153.77C465.856 154.938 462.793 154.339 460.603 154.339C456.055 154.339 451.507 154.172 446.959 154.126C442.115 154.073 439.379 157.617 436.293 160.523C435.134 161.608 434.019 162.731 432.898 163.854C430.715 166.062 428.706 168.459 426.341 170.44C423.551 172.777 420.466 174.75 417.51 176.882C416.828 177.375 416.153 177.876 414.66 178.983L421.058 179.56C421.171 180.911 421.277 182.117 421.429 183.87C422.134 182.914 422.604 182.261 423.582 180.926C424.052 182.754 424.34 183.961 424.529 184.629C426.955 183.604 429.585 181.495 431.889 181.798C434.194 182.102 436.24 184.833 438.439 186.503C438.302 190.228 438.386 193.855 436.445 197.596C434.884 200.631 435.551 204.705 434.793 208.218C434.421 209.933 433.125 211.473 432.132 213.021C431.374 214.175 430.48 215.214 429.623 216.299C425.075 222.088 420.527 227.908 415.865 233.66C412.31 238.068 407.679 238.971 402.63 236.437C400.629 237.84 398.567 239.176 396.65 240.686C395.892 241.277 394.975 242.264 394.975 243.076C394.975 247.689 391.435 249.1 388.251 250.724C385.787 251.976 385.264 252.94 387.493 255.057C391.2 258.516 393.459 262.811 393.474 268.039C393.474 270.186 393.034 271.787 390.396 272.356C387.508 272.978 384.772 274.268 381.361 275.49C381.474 273.525 381.565 272.098 381.649 270.672C381.844 269.275 381.905 267.862 381.831 266.453C381.656 265.239 380.246 263.964 382.513 263.342C381.793 262.371 381.27 260.975 380.315 260.535C378.905 259.89 377.184 259.928 375.494 259.655L377.571 253.266C371.416 249.009 366.875 253.129 361.311 256.741C362.956 253.061 364.116 250.474 365.496 247.408C364.124 247.264 362.547 246.589 361.645 247.105C359.295 248.455 357.271 250.375 355.05 251.976C353.217 253.33 351.22 254.446 349.108 255.299C347.387 259.093 350.904 258.448 353.428 259.093L354.277 263.327C358.461 259.677 362.805 260.975 367.55 262.363L354.664 271.377C358.181 276.841 361.069 281.31 364.078 285.976L361.425 286.879L365.215 289.011L361.683 291.674C362.267 293.503 366.61 293.624 364.343 296.553C363.078 298.177 363.32 300.187 361.539 301.978C359.379 304.148 356.362 306.72 355.877 310.636C355.679 312.252 354.126 313.906 352.799 315.127C347.842 319.68 342.467 323.633 335.66 324.931C334.902 325.075 333.978 324.354 333.227 324.073C330.445 328.626 324.495 326.949 320.576 330.272L321.031 333.148C317.241 333.459 318.31 330.705 317.999 328.891C311.935 327.685 306.629 329.946 303.915 335.432C303.6 336.243 303.474 337.115 303.545 337.983C303.616 338.85 303.882 339.69 304.324 340.44C306.767 343.55 309.435 346.477 312.306 349.196C316.263 353.141 318.628 362.095 315.869 366.685C314.489 368.961 311.26 370.327 308.653 371.693C307.25 372.452 305.401 372.315 303.536 372.626C305.757 376.83 301.793 376.974 299.64 379.205C299.511 377.573 299.2 376.579 299.405 375.699C299.966 373.332 298.647 372.042 296.828 371.359C295.846 371.034 294.939 370.517 294.158 369.839C293.377 369.16 292.739 368.333 292.28 367.406C291.021 365.13 287.914 363.938 285.617 362.277L284.548 362.922ZM197.461 98.6385C195.945 97.2803 194.429 95.8387 192.102 93.7369C193.618 97.2424 194.565 99.5642 195.384 101.507L197.461 98.6385Z" stroke="white" stroke-miterlimit="10"/>
<path d="M353.822 391.58L350.942 393.947C347.622 395.753 346.864 397.438 348.766 401.004C350.025 403.356 351.336 405.685 352.685 408.144C349.259 408.098 347.038 409.548 348.137 413.728C343.68 416.247 344.469 421.612 341.937 425.11C341.088 426.271 339.132 426.627 337.563 427.386C335.479 423.88 332.333 423.941 328.861 424.116C326.135 424.316 323.399 423.898 320.857 422.894C319.758 422.416 319.674 419.654 319.091 417.947C318.787 417.067 318.605 415.944 317.976 415.428C314.345 412.454 313.959 407.931 317.218 403.819L322.843 405.769C323.858 402.301 325.875 400.404 329.506 399.502C331.681 398.955 333.379 396.504 335.57 394.668L336.547 395.321C339.246 392.043 341.77 388.818 344.522 385.814C344.931 385.366 346.697 385.593 347.387 386.102C349.653 387.786 351.723 389.782 353.822 391.58Z" stroke="white" stroke-miterlimit="10"/>
<path d="M263.612 389.782C267.091 392.324 271.95 390.343 275.187 395.48C277.794 399.615 283.275 401.945 287.482 405.078L295.372 411.027C294.228 412.894 293.561 415.048 297.343 415.58C297.813 415.648 297.98 417.097 298.488 417.765C299.193 418.675 299.951 419.942 300.913 420.185C303.794 420.944 304.271 422.553 303.87 425.223C303.468 427.894 303.551 430.656 303.4 433.911C293.985 432.394 288.861 426.324 284.343 419.343C282.464 416.445 280.417 413.637 278.446 410.799C278.166 410.397 277.688 410.041 277.552 409.638C275.93 403.675 271.071 400.351 266.94 396.391C265.287 394.805 264.029 392.817 262.596 391.019L263.612 389.782Z" stroke="white" stroke-miterlimit="10"/>
<path d="M438.181 244.017C439.053 246.194 440.455 248.311 440.637 250.534C440.819 252.757 440.463 255.717 439.121 257.014C435.922 260.049 438.052 264.184 436.006 267.348C435.043 268.866 435.142 271.013 434.944 272L421.46 274.382L416.836 280.278L414.168 274.283H410.976C411.78 275.611 412.439 276.719 413.106 277.827C411.96 278.259 410.843 278.766 409.764 279.344C408.528 280.103 407.429 281.105 406.027 282.19C403.214 280.672 404.169 278.737 406.565 276.036L399.788 277.485C403.146 279.989 403.07 286.029 399.614 288.404C398.969 288.844 397.431 288.965 397.014 288.541C396.343 287.725 396.016 286.68 396.104 285.627C396.339 284.435 396.723 283.277 397.249 282.182L394.217 281.863C394.482 280.885 394.437 279.534 395.073 279.003C398.386 276.241 401.592 273.138 405.382 271.256C408.24 269.837 411.947 269.572 415.236 269.739C417.093 269.845 417.738 270.019 418.473 268.145C419.464 265.762 420.944 263.614 422.816 261.84L422.339 264.192C429.115 262.857 433.482 257.113 432.769 250.648C432.375 247.499 434.384 245.071 438.181 244.017Z" stroke="white" stroke-miterlimit="10"/>
<path d="M437.264 445.558L429.373 441.939C428.532 436.271 426.425 430.633 418.693 429.366C416.654 429.032 414.804 427.697 412.78 427.09C410.934 426.638 409.064 426.291 407.179 426.05L406.876 427.151L403.844 422.112L406.671 421.179L399.394 416.543C399.874 415.304 400.785 414.279 401.958 413.658C403.132 413.036 404.49 412.859 405.784 413.159C408.119 413.713 412.121 413.607 411.53 418.47C411.333 420.117 413.341 422.12 414.562 423.782C414.782 424.07 416.419 423.668 417.078 423.167C419.186 421.566 421.081 419.677 423.203 418.083C423.591 417.788 424.035 417.576 424.509 417.46C424.982 417.343 425.474 417.326 425.955 417.408C429.298 418.441 432.587 419.644 435.809 421.012C436.201 421.259 436.531 421.593 436.774 421.987C437.017 422.382 437.166 422.827 437.211 423.288C437.31 430.709 437.264 438.115 437.264 445.558Z" stroke="white" stroke-miterlimit="10"/>
<path d="M271.859 4.56011C271.344 6.16867 270.298 8.07317 270.7 8.46014C272.149 9.82459 273.862 10.8781 275.733 11.5559C277.416 12.1629 279.341 12.1098 280.842 12.3146C280.463 15.6001 280.182 18.0129 279.781 21.5108C277.393 21.5108 274.012 21.6549 270.684 21.4501C268.706 21.3003 266.76 20.8606 264.908 20.145C262.945 19.3863 261.164 18.1874 259.261 17.2693C257.973 16.6471 256.616 16.1767 255.38 15.6759L259.709 12.7092L248.93 8.6043L253.182 6.60876L252.576 5.97898C253.516 4.86361 254.228 3.30057 255.418 2.71633C262.718 -0.895361 266.068 -0.333885 271.859 4.56011Z" stroke="white" stroke-miterlimit="10"/>
<path d="M452.894 47.7865C450.703 52.0735 445.731 53.8566 441.122 53.1889C437.64 52.8205 434.119 53.1929 430.79 54.2815C428.433 54.972 424.522 52.5667 422.263 50.4877C421.217 49.5241 422.088 45.7986 424.537 44.5238C426.985 43.2491 429.464 42.1793 432.041 44.6225C433.072 45.6013 434.671 45.9959 436.013 46.6484C438.236 42.718 443.863 43.0974 452.894 47.7865Z" stroke="white" stroke-miterlimit="10"/>
<path d="M376.517 405.124C375.539 409.623 373.409 410.822 369.422 410.223C366.314 409.815 363.179 409.658 360.046 409.752C357.832 409.79 356.786 412.324 358.136 414.221C358.753 414.951 359.464 415.597 360.25 416.141L369.915 413.508L370.18 414.267L363.684 418.895L368.232 428L363.828 430.277L360.319 422.31C359.068 422.689 359.106 422.697 359.015 426.779C358.969 428.744 358.734 430.709 358.59 432.667C355.437 433.691 354.383 433.031 355.301 429.753C355.808 427.932 356.309 425.77 353.58 424.669C353.011 424.434 352.617 422.636 352.822 421.756C353.853 417.962 355.134 414.282 356.339 410.556C357.135 408.098 360.607 406.345 363.214 406.983C367.861 408.121 372.553 409.836 376.517 405.124Z" stroke="white" stroke-miterlimit="10"/>
<path d="M440.334 186.063C443.692 185.964 443.889 183.991 442.608 181.222L443.98 181.161C444.609 183.437 446.027 185.774 445.708 187.876C444.746 194.273 448.126 199.538 449.392 205.328C449.529 205.935 449.718 206.526 449.771 206.739C448.066 207.338 445.549 207.498 445.14 208.514C444.139 210.958 441.911 213.621 444.488 216.565C445.632 217.877 446.398 219.516 447.762 221.679L443.26 219.653L441.547 222.741L440.577 222.65C440.743 219.873 440.948 217.096 441.062 214.304C441.281 208.78 442.813 202.824 441.221 197.869C439.894 193.719 440.804 190.13 440.334 186.063Z" stroke="white" stroke-miterlimit="10"/>
<path d="M302.248 437.584C303.642 432.508 306.887 434.283 309.388 434.814C312.708 435.52 315.869 436.992 319.197 437.675C320.713 437.986 322.502 436.817 324.093 436.984C326.676 437.176 329.088 438.345 330.84 440.254C332.424 441.916 335.979 441.696 338.655 442.341C339.447 442.506 340.161 442.931 340.686 443.547C337.775 444.792 334.887 444.39 331.81 443.767C328.52 443.1 325.071 443.206 321.721 442.789C318.278 442.455 314.862 441.89 311.495 441.097C308.372 440.239 305.408 438.79 302.248 437.584Z" stroke="white" stroke-miterlimit="10"/>
<path d="M434.035 243.903C432.473 238.204 433.815 235.481 438.499 235.685C439.06 232.347 439.636 228.94 440.311 224.941C442.411 226.914 444.101 229.084 446.322 230.427C448.247 231.603 450.741 231.854 453.341 232.62C453.424 233.022 453.72 234.525 454.099 236.262C451.317 237.78 446.602 236.558 446.057 240.997L435.225 239.092L434.952 239.851L437.491 242.127L434.035 243.903Z" stroke="white" stroke-miterlimit="10"/>
<path d="M364.018 356.632L371.143 357.929L373.318 363.24C369.369 361.609 366.648 356.996 362.176 359.295C362.555 361.154 362.873 362.694 363.191 364.242L361.554 364.765C359.803 359.742 358.045 354.712 356.566 350.486C357.446 348.968 358.325 348.05 358.454 347.071C359.318 340.242 359.272 340.242 365.822 341.001C366.709 344.689 367.262 348.08 363.752 351.146C362.79 352.018 363.911 355.258 364.018 356.632Z" stroke="white" stroke-miterlimit="10"/>
<path d="M278.446 28.6127C281.266 24.7127 283.495 21.3287 286.072 18.2405C286.83 17.3679 288.566 17.0948 289.862 17.0645C290.764 17.0645 291.658 17.9901 292.606 18.3771C295.047 19.3635 297.563 20.1754 299.951 21.2831C300.845 21.6929 301.467 22.7096 302.225 23.4456C301.353 24.2043 300.595 25.3728 299.595 25.6536C297.321 26.2909 294.918 26.473 292.568 26.8827C288.778 27.5505 284.988 28.2789 281.198 28.9163C280.273 28.9121 279.35 28.8103 278.446 28.6127V28.6127Z" stroke="white" stroke-miterlimit="10"/>
<path d="M378.473 383.378C378.594 386.109 378.67 387.93 378.784 390.381C375.562 388.613 371.386 388.917 372.674 383.856C372.75 383.552 371.158 382.338 370.559 382.437C368.557 382.949 366.592 383.595 364.677 384.372C363.988 381.041 367.793 380.578 369.597 378.734C369.999 378.324 371.666 379.144 373.288 379.531L379.125 374.865C381.801 376.799 383.142 382.74 380.899 386.011L378.473 383.378Z" stroke="white" stroke-miterlimit="10"/>
<path d="M456.775 48.0522L474.421 51.0873L474.596 52.6048C472.632 53.1587 470.571 54.3879 468.721 54.1223C465.04 53.4662 461.429 52.4653 457.935 51.1328C457.374 50.9128 457.252 49.3952 456.775 48.0522Z" stroke="white" stroke-miterlimit="10"/>
<path d="M360.44 326.486C356.597 322.404 357.264 316.493 361.744 313.913C362.312 313.587 363.465 313.382 363.768 313.686C364.273 314.33 364.504 315.148 364.412 315.962C364.288 317.083 363.999 318.18 363.555 319.217C362.585 321.607 361.509 323.997 360.44 326.486Z" stroke="white" stroke-miterlimit="10"/>
<path d="M433.542 64.0241C436.574 61.8617 439.538 58.341 443.995 61.4595C445.168 62.4235 446.261 63.4817 447.262 64.6236C447.012 65.0181 446.762 65.3823 446.504 65.8072L433.542 64.0241Z" stroke="white" stroke-miterlimit="10"/>
<path d="M323.389 335.333C321.964 337.101 320.811 339.256 319.023 340.5C318.014 341.206 315.991 340.425 314.391 340.318C314.8 338.801 314.747 336.631 315.71 336.016C317.673 334.757 320.175 334.347 322.456 333.588L323.389 335.333Z" stroke="white" stroke-miterlimit="10"/>
<path d="M371.431 370.532L372.424 369.614L373.121 370.008C371.828 372.3 370.529 374.594 369.225 376.89L368.058 377.035C367.633 375.251 367.217 373.468 366.701 371.276H364.708C364.821 369.599 364.942 367.929 365.109 365.517L371.431 370.532Z" stroke="white" stroke-miterlimit="10"/>
<path d="M371.431 451.363C371.431 446.575 377.306 443.381 385.454 443.669L371.431 451.363Z" stroke="white" stroke-miterlimit="10"/>
<path d="M386.811 404.198L390.32 406.277C390.169 407.423 390.002 408.736 389.79 410.321H387.516C387.902 411.672 388.228 412.803 388.547 413.933C385.833 412.605 384.886 407.233 386.811 404.198Z" stroke="white" stroke-miterlimit="10"/>
<path d="M374.274 362.99C375.562 363.597 377.404 363.885 377.995 364.902C378.693 366.108 380.459 368.332 377.154 369.356C376.699 369.493 376.874 371.632 375.979 372.945C375.282 371.496 374.584 370.046 373.811 368.453L376.32 367.383L373.773 364.098L374.274 362.99Z" stroke="white" stroke-miterlimit="10"/>
<path d="M341.793 444.777C342.331 444.208 342.862 443.153 343.408 443.153C346.872 443.153 350.336 443.343 353.807 443.479C353.807 444.048 353.807 444.617 353.807 445.186L342.286 446.066C342.119 445.634 341.952 445.209 341.793 444.777Z" stroke="white" stroke-miterlimit="10"/>
<path d="M386.75 423.926C391.746 421.02 396.84 422.006 398.454 425.512L386.75 423.926Z" stroke="white" stroke-miterlimit="10"/>
<path d="M368.437 444.769L356.68 445.528C356.68 444.974 356.605 444.428 356.559 443.881H368.217L368.437 444.769Z" stroke="white" stroke-miterlimit="10"/>
<path d="M355.884 368.757C355.225 374.136 350.775 376.253 346.962 378.863C349.79 375.669 352.61 372.467 355.884 368.757Z" stroke="white" stroke-miterlimit="10"/>
<path d="M352.845 448.297C356.741 445.816 358.53 447.872 360.372 449.769C360.243 450.133 360.122 450.528 359.993 450.869L352.845 448.297Z" stroke="white" stroke-miterlimit="10"/>
</g>
<defs>
<clipPath id="clip0_1901_25603">
<rect width="626" height="452" fill="white"/>
</clipPath>
</defs>
</svg>
