<svg width="577" height="388" viewBox="0 0 577 388" fill="none" xmlns="http://www.w3.org/2000/svg">
<g clip-path="url(#clip0_1901_25635)">
<path d="M573.293 372.125C566.845 366.107 559.497 361.133 551.516 357.384C547.579 355.694 543.529 354.283 539.394 353.161C538.617 352.926 537.496 353.964 536.501 354.326C535.744 354.679 534.925 354.884 534.09 354.929C531.619 354.79 529.166 354.47 526.857 354.241C527.569 351.491 528.436 348.119 529.359 344.536L526.544 344.953C526.586 344.434 526.478 343.969 526.664 343.704C527.575 342.389 529.6 340.296 529.353 339.982C527.966 338.251 526.212 336.116 524.247 335.694C520.631 334.916 517.973 332.883 515.146 330.869C514.248 330.223 512.964 330.121 511.855 329.771C511.734 330.229 511.614 330.688 511.294 331.87L500.005 327.208C499.462 328.136 499.028 328.89 498.546 329.711C496.925 327.594 496.473 324.282 493.724 324.186C492.519 322.346 491.53 320.892 490.264 318.993C496.538 319.383 502.773 317.774 508.076 314.396L507.816 313.504L460.199 317.521C460.802 319.071 461.314 320.283 461.64 321.104C460.38 322.153 459.271 323.13 458.102 324.023C457.506 324.459 456.858 324.818 456.173 325.091C454.678 325.694 453.346 326.043 452.044 327.545C450.839 328.909 447.578 329.24 445.414 328.842C440.917 328.01 436.535 326.502 432.153 325.054C430.604 324.536 429.26 323.402 427.85 322.503C427.536 322.298 427.084 321.845 427.138 321.598C427.946 317.756 424.456 318.329 423.052 318.45C414.734 319.131 406.464 320.301 398.17 321.23C395.233 321.585 392.28 321.786 389.322 321.833C387.031 321.833 384.62 319.421 384.645 317.231C384.645 316.495 385.543 315.766 385.73 315.482C384.952 308.847 379.738 306.308 374.88 303.914C371.993 302.502 368.413 302.382 365.103 302.002C363.494 301.815 361.8 302.478 360.137 302.508C359.776 302.474 359.429 302.355 359.123 302.162C358.816 301.97 358.558 301.708 358.371 301.398C357.527 299.498 356.882 297.502 356.225 295.524C355.845 294.39 355.863 293.021 355.206 292.116C354.284 290.849 352.795 288.961 351.734 289.1C350.161 289.263 348.449 290.698 347.322 292.037C344.743 295.053 346.979 298.19 347.732 301.236C348.075 302.337 348.49 303.415 348.974 304.462L322.718 313.588L323.55 315.838L320.12 316.526C319.789 315.627 319.518 314.819 319.077 313.697L321.35 313.962C321.446 313.769 321.537 313.582 321.627 313.359L319.765 311.7C318.656 310.705 317.354 309.891 316.48 308.685C313.152 304.149 313.87 301.091 319.174 300.451C324.171 299.848 326.485 296.127 329.921 293.696C330.403 293.352 330.632 292.236 330.524 291.549C329.692 286.283 322.375 282.863 317.703 285.372C315.232 286.705 312.586 287.725 309.904 288.937C310.362 293.057 309.024 295.512 304.479 296.742C299.392 298.129 295.528 301.314 291.387 304.239C289.648 305.515 287.574 306.255 285.42 306.368C282.192 306.269 278.988 305.777 275.878 304.903C272.865 304.155 270.176 305.663 270.315 308.763C270.442 311.544 268.953 311.954 266.976 311.465C264.282 310.79 261.672 309.746 259.315 308.956C255.415 311.833 251.57 314.535 247.863 317.461C246.922 318.208 246.5 319.632 245.898 320.772C244.62 323.185 243.372 325.633 242.052 328.179L244.662 328.04C243.764 330.845 242.938 333.414 242.179 335.791C242.643 336.828 243.764 338.131 243.601 339.247C243.276 341.551 241.486 341.237 239.629 340.779C237.429 340.236 233.36 342.685 232.348 345.001C229.828 350.707 225.03 353.614 219.503 355.695C218.587 356.045 217.81 356.774 216.598 357.577C221.372 359.621 219.937 363.608 220.178 367.161L210.305 355.194C210.064 354.905 209.859 354.386 209.6 354.362C205.724 353.988 204.368 350.743 202.277 348.21C200.788 346.43 199.263 344.271 197.286 343.384C192.169 341.135 187.419 337.51 181.307 338.185C180.89 338.234 180.468 338.17 180.083 338.002C179.699 337.833 179.366 337.566 179.119 337.226C178.613 336.623 178.191 335.664 177.588 335.531C175.008 334.976 172.338 334.807 169.752 334.228C167.709 333.764 165.991 333.553 165.039 335.911C164.843 336.266 164.564 336.568 164.225 336.792C162.29 338.366 160.199 339.874 163.279 342.998L161.899 343.089C161.532 342.626 161.215 342.127 160.952 341.599C160.766 341.067 160.627 340.52 160.536 339.964C156.751 340.851 153.303 341.472 149.946 342.51C147.664 343.205 145.497 344.233 143.515 345.562C139.814 348.083 135.727 348.185 131.683 347.504C130.037 347.226 128.458 345.61 127.18 344.283C125.685 342.745 124.546 340.857 122.515 339.313V344.458L116.74 342.413C118.868 338.873 118.712 338.589 114.607 337.938C116.415 333.197 111.593 332.353 109.67 329.777C108.694 328.486 106.735 327.968 105.758 326.647C101.419 320.899 95.8311 315.904 94.0711 308.552C93.3837 305.84 92.1398 303.301 90.4185 301.097C87.7423 297.478 89.3878 293.419 94.2459 290.373C93.5648 288.611 92.8114 286.754 92.1423 284.878C92.0037 284.492 92.0338 283.672 92.2147 283.611C92.7306 283.493 93.2643 283.472 93.7878 283.551C94.487 280.776 92.5823 276.645 97.7841 275.873C97.7841 270.625 97.5369 265.348 97.8503 260.106C98.212 253.984 99.2186 247.94 103.757 243.218C105.951 240.944 106.861 238.392 105.963 235.25C105.005 231.902 104.215 228.549 107.772 226.703C106.566 224.526 105.62 222.638 104.462 220.907C103.892 220.228 103.142 219.724 102.299 219.453C98.0756 217.791 94.3661 215.043 91.5456 211.486C89.5445 208.994 87.1455 207.263 83.746 207.01C82.203 206.902 80.6659 206.184 79.2133 205.538C76.4768 204.332 74.0839 202.987 70.7748 204.935C68.8581 206.057 66.0131 205.707 63.6925 204.079C61.8843 202.788 59.6662 202.028 57.6289 201.063C57.6289 201.413 57.665 201.769 57.6891 202.118C56.7187 202.649 55.7845 203.252 54.7839 203.699C50.1548 205.78 45.2303 203.898 40.4626 204.658C38.7267 204.929 36.7978 203.844 34.9293 203.53C33.2175 203.24 31.4334 203.313 29.7638 202.927C28.9079 202.722 28.2208 201.811 27.7325 200.93C23.676 199.338 19.9872 200.749 16.6961 203.488L7.95628 196.642C8.39026 198.711 8.62533 199.839 9.01109 201.666L3.11622 197.824C6.19024 196.618 7.16668 193.662 10.4818 192.516C13.0194 191.642 14.9 188.065 16.449 185.339C18.1187 182.389 19.1132 179.192 18.0885 175.465C17.6485 173.867 19.1253 171.737 19.4025 169.789C19.5873 168.469 19.8693 167.165 20.2464 165.887C21.4036 162.762 22.802 159.722 23.9111 156.58C24.3209 155.434 24.1823 154.095 24.2908 152.828L19.3543 152.533C21.1264 150.12 22.7719 147.834 24.6524 145.247C25.653 147.122 25.6711 148.262 23.9894 149.246C22.139 150.307 22.8201 151.212 24.2848 152.002C27.5698 153.811 27.9917 155.114 26.316 158.389C25.4408 159.936 24.7971 161.602 24.4053 163.335C25.1527 162.817 26.2136 162.473 26.5994 161.761C28.1585 158.749 29.595 155.677 30.909 152.545C32.7172 148.22 34.3386 143.817 36.0746 139.462C36.9666 137.231 37.9611 135.035 38.8351 132.797C39.0579 131.98 39.2091 131.144 39.2872 130.3L34.5135 130.843C35.508 129.571 35.9781 128.346 36.6411 128.232C39.7453 127.677 39.3414 125.867 39.2993 123.406C39.2329 119.787 41.9393 117.133 44.6216 115.059C48.1296 112.338 51.4627 109.552 53.3252 105.438C53.7411 104.509 53.6085 103.309 53.6327 102.235C53.6327 101.753 53.1746 101.156 53.3373 100.8C54.8321 97.5066 51.6858 96.2581 50.3778 94.2918C49.9438 93.6343 48.3164 93.2725 47.4243 93.5077C42.9459 94.714 38.8713 94.0746 34.4713 92.5185C30.9934 91.3122 26.8947 91.8188 23.0672 91.5715C18.9324 95.7333 13.8994 92.7779 9.30044 93.3086C6.15408 93.6645 3.01374 94.0264 -0.174805 94.4003V95.4981C5.93105 95.2749 12.0369 95.0518 18.1247 94.6416C19.6497 94.5391 21.0962 93.4715 22.6333 93.2604C25.207 92.9166 27.9314 92.3677 30.3906 92.8744C34.7425 93.7731 38.9436 95.4137 43.2171 96.7044C43.8895 96.8607 44.5725 96.9675 45.2605 97.0241C45.5498 95.1845 48.0211 93.6645 49.112 94.7803C50.5044 96.2038 51.8485 98.0495 52.3066 99.9313C53.7351 105.752 50.0523 109.377 46.0018 112.543C41.7826 115.831 38.0395 119.208 37.8768 125.167C37.8768 126.133 36.2373 127.309 35.1102 127.936C32.5545 129.359 31.7287 130.867 34.3206 133.045L37.3343 132.327L37.5392 132.93C36.1589 133.714 34.3266 134.203 33.543 135.385C32.9403 136.254 33.766 138.033 33.9529 139.408H34.9414L29.0224 154.258L24.5259 150.367C27.618 148.769 26.4547 146.2 25.3999 142.719L16.6299 153.462L23.4831 154.065C20.9757 161.158 18.5526 168.022 15.9909 175.284C19.2157 178.058 16.7082 181.364 15.5268 184.494C14.7674 186.491 13.3328 188.276 11.9646 189.971C11.3136 190.773 10.0478 191.038 9.18591 191.714C6.88944 193.523 4.62308 195.333 2.49537 197.293C2.29646 197.48 2.97757 199.048 3.58635 199.591C5.03294 200.876 6.67848 201.931 8.32398 203.138C11.0484 200.779 11.0484 200.779 16.5455 204.893C18.1849 203.922 19.8666 202.921 21.5543 201.931C23.6218 200.725 25.8881 201.853 25.9001 203.994C32.1687 204.543 38.4675 204.79 44.6637 205.725C49.3712 206.437 53.6206 204.899 58.0628 204.26C59.2922 204.162 60.5269 204.152 61.7577 204.23V205.068L55.5795 207.758L55.9653 208.572C57.3241 208.06 58.7155 207.639 60.1303 207.312C62.698 206.871 65.3079 206.709 67.8877 206.31C69.6271 206.071 71.3472 205.708 73.0351 205.225C74.6264 204.736 79.2073 206.642 80.5816 208.283C81.1843 208.964 82.6852 209.76 83.1192 209.489C86.4222 207.354 88.0978 209.803 89.9965 211.673C90.7077 212.372 91.3165 213.168 91.9796 213.928C89.1949 216.009 89.0381 217.324 91.7445 219.357C93.9264 221.003 96.3254 222.572 99.3331 220.768C102.033 219.158 102.407 222.324 103.812 223.271C104.788 223.929 105.264 225.322 105.987 226.42C104.74 227.228 102.57 227.897 102.371 228.941C102.136 230.202 103.643 231.746 104.27 233.223C105.994 237.307 105.071 240.817 101.859 243.797C101.34 244.267 100.653 244.756 100.472 245.359C99.4536 248.978 97.4586 251.33 93.3599 251.36C93.8546 251.641 94.3891 251.844 94.9451 251.964C97.2356 252.09 97.7298 253.055 97.2778 255.335C96.7835 257.838 97.0005 260.474 96.8317 263.05C96.7473 264.328 96.4942 265.589 96.2953 267.043L93.1971 265.028C93.4331 265.955 93.7189 266.87 94.0531 267.766C94.9271 269.66 95.6504 271.385 92.5462 271.922C92.1484 271.988 91.6842 273.514 91.7987 274.28C92.1036 275.667 92.525 277.025 93.0585 278.34L87.905 280.234C87.9954 280.511 88.0798 280.788 88.1642 281.072L91.5637 280.517C91.1358 281.941 91.0634 283.225 90.4245 284.1C89.3335 285.596 89.6951 286.283 91.1478 287.146C92.8174 288.135 93.5588 289.359 91.4552 290.909C90.5328 291.641 89.7753 292.56 89.2325 293.605C88.6898 294.651 88.3739 295.799 88.3056 296.975C88.2373 298.151 88.4181 299.328 88.8363 300.429C89.2544 301.53 89.9004 302.531 90.7319 303.365C91.2999 304.093 91.7718 304.892 92.1363 305.741L89.5867 307.219C90.2919 307.786 91.0031 308.341 91.6963 308.914C92.4369 309.4 93.1081 309.984 93.6914 310.651C96.458 314.698 99.1161 318.8 101.847 322.889C102.564 323.975 103.124 325.211 104.01 326.128C105.626 327.793 107.591 329.144 109.11 330.875C110.152 332.081 110.701 333.686 111.593 335.338L113.841 334.596C113.594 339.011 113.594 339.011 116.982 339.53C116.445 340.375 115.945 341.177 115.457 341.943C117.681 344.741 120.616 345.176 123.799 345.339C125.313 345.45 126.76 346.008 127.958 346.943C131.876 350.11 136.197 348.577 140.368 348.191C141.731 348.071 142.972 346.895 144.322 346.328C146.956 345.218 149.584 344.054 152.303 343.179C154.714 342.401 157.263 341.973 159.915 341.37L157.179 345.103C160.313 346.153 165.051 341.695 166.22 347.257L160.796 352.04L161.76 353.976C154.177 359.091 154.177 359.091 150.615 358.017L146.866 362.637C150.796 366.148 155.033 369.712 157.173 375.237C156.245 375.551 155.552 376.039 154.961 375.937C152.411 375.503 150.953 376.383 148.933 378.235C147.306 379.719 143.509 378.838 140.658 378.91C140.471 378.91 140.194 378.126 140.085 377.704C139.482 375.243 138.843 372.782 138.385 370.291C138.255 369.063 138.219 367.827 138.277 366.594C138.229 365.032 137.632 364.549 136.065 365.231C135.504 365.472 134.654 365.05 133.431 364.851C133.889 366.123 134.232 367.07 134.558 367.963L131.894 369.712C128.615 368.868 128.205 367.788 127.674 363.349C127.439 361.503 125.354 359.887 124.058 358.065L122.768 359.127C121.153 357.022 117.488 359.386 116.21 356.069C116.005 355.538 113.799 355.737 112.509 355.677C110.454 355.586 108.398 355.46 106.349 355.55C104.806 355.717 103.274 355.979 101.762 356.334C100.719 354.82 98.9112 353.276 98.9956 350.236C99.0679 347.57 94.4147 345.616 91.2382 346.846L95.1982 352.124C94.9692 352.365 94.7342 352.601 94.5051 352.836L87.2058 348.825L93.9626 342.19C92.5582 341.75 91.7747 341.726 91.3166 341.328C87.7543 338.233 84.3307 334.964 80.6961 331.96C79.2736 330.79 77.4111 330.151 75.7475 329.276C74.2768 328.498 72.8001 327.732 71.2028 326.9C72.1672 325.458 72.7097 324.644 73.5234 323.438L59.1116 311.809C59.9796 316.031 60.6305 319.704 64.898 321.224C65.2235 321.339 65.3802 323.166 64.9824 323.8C64.3796 324.735 63.2224 325.32 61.9687 326.327C60.7632 322.34 57.7494 320.899 54.0726 319.958C50.9203 319.125 49.2507 312.72 51.1795 310.09C51.9023 309.082 52.7375 308.159 53.6689 307.34C55.5675 305.699 54.8743 302.967 51.9992 301.308C54.8201 299.728 55.0129 298.558 52.843 296.048C49.5641 292.309 46.0139 288.81 42.9881 284.854C40.4565 281.573 38.5157 277.839 36.2915 274.317C35.8914 273.672 35.4313 273.066 34.9173 272.507C31.2204 268.486 27.5135 264.487 23.7966 260.51C23.2685 260.083 22.6844 259.73 22.0606 259.461C20.3488 258.46 20.1559 257.525 22.133 256.638C26.304 260.945 29.3298 262.012 33.1512 260.257C30.5534 259.376 27.853 258.791 28.0459 255.432C28.0459 255.245 27.7687 254.931 27.5577 254.829C24.0678 253.622 25.2432 251.813 26.8887 249.919C25.8158 248.013 22.133 250.884 22.5067 246.354C21.3012 247.693 20.7466 248.296 20.0957 249.044L17.6847 246.306C17.5038 248.278 17.3893 249.551 17.2507 251.089C15.2918 252.518 11.6029 252.193 9.15578 250.998C6.45744 249.719 3.58904 248.836 0.638929 248.375L0.313421 248.314V250.444C5.02692 251.487 9.7284 252.549 14.472 253.315C15.7559 253.526 17.5883 252.386 18.6913 251.342C20.4995 249.623 22.0004 249.442 23.2842 251.451C24.2542 252.911 25.1358 254.427 25.9243 255.993C26.1533 256.463 25.7555 257.235 25.5566 258.351L22.5428 255.052C18.625 257.235 18.6189 257.645 21.7352 260.709C25.9906 264.895 30.24 269.093 34.3145 273.454C35.4115 274.624 35.9058 276.379 36.605 277.905C39.2752 283.726 44.5432 287.327 48.5274 292.025C50.2874 294.1 51.6918 296.471 53.3494 298.865L47.3219 299.782C49.3049 301.115 50.3838 302.195 51.6797 302.635C54.7417 303.678 53.0721 305.518 52.162 306.507C48.0392 311.025 47.9066 316.091 52.162 320.199C52.6341 320.567 53.1721 320.841 53.7471 321.007C59.0031 322.998 59.0032 322.991 61.9506 328.13C63.3791 326.984 64.8136 325.881 66.206 324.711C68.0625 323.154 67.8334 321.405 65.7298 320.042C64.3194 319.125 63.0054 318.064 61.6492 317.068L62.0591 316.363C62.5051 316.477 63.0717 316.453 63.3731 316.725C65.7841 318.95 69.4006 319.933 70.6603 323.408C70.9008 323.884 70.9812 324.426 70.8894 324.952C69.7683 327.69 71.679 329.035 73.5536 329.662C78.912 331.406 83.7291 334.506 87.5373 338.662C88.5001 339.636 89.0885 340.919 89.1988 342.285C89.309 343.651 88.9341 345.012 88.1401 346.129C87.5916 346.985 86.4102 348.24 86.6513 348.656C87.4887 350.01 88.5771 351.191 89.8579 352.136C90.5872 352.703 91.7385 352.739 92.6727 353.047C93.4985 353.342 94.2881 353.741 95.0837 354.078C98.1698 350.888 93.842 349.591 93.3177 347.136C94.7522 347.884 95.8854 348.391 96.9342 349.042C97.4043 349.337 98.1035 350.037 98.0131 350.351C96.687 354.941 102.998 356.612 101.376 361.256L102.552 361.316C102.895 360.623 103.655 359.838 103.516 359.259C102.805 356.244 104.396 356.322 106.53 356.624C108.278 356.865 110.098 356.654 111.846 356.907C113.283 357.195 114.694 357.598 116.065 358.113C116.881 358.459 117.721 358.743 118.579 358.964C123.112 359.664 125.384 362.583 126.656 366.733C127.033 367.939 127.803 368.984 128.844 369.7C130.507 370.707 132.46 371.238 134.413 372.022L136.143 367.734C137.445 371.443 139.946 374.447 138.729 378.476C138.608 378.868 139.898 380.201 140.537 380.219C143.334 380.28 147.029 381.064 148.722 379.616C151.375 377.354 154.099 377.071 157.052 376.468C157.45 376.389 158.017 374.706 157.74 374.121C156.826 372.128 155.7 370.24 154.382 368.488C153.092 366.811 151.308 365.508 150.024 363.825C149.787 363.396 149.645 362.921 149.606 362.432C149.568 361.943 149.634 361.452 149.801 360.99C150.042 360.339 151.067 359.784 151.851 359.555C153.978 358.873 156.317 358.692 158.282 357.715C160.904 356.413 163.255 354.555 165.672 352.968C164.991 352.015 164.267 351.406 164.201 350.743C164.165 350.345 165.105 349.657 165.726 349.44C168.137 348.578 169.801 345.483 172.911 346.659C175.454 347.618 177.92 348.801 180.367 349.989C181.256 350.498 182.084 351.105 182.838 351.798C185.008 353.548 187.093 355.273 187.347 358.433C187.413 359.296 188.739 360.007 189.336 360.888C190.065 361.974 190.638 363.162 191.283 364.308L187.485 365.182C188.624 367.987 189.776 371.112 191.156 374.139C193.115 378.44 196.671 381.528 199.667 385.051C200.36 385.859 200.71 386.963 201.186 387.964H202.632C202.964 384.876 199.709 383.621 198.027 381.721C194.073 377.258 191.361 372.185 189.07 366.678C190.879 366.033 193.012 365.93 192.687 363.126C192.615 362.577 193.995 361.841 194.495 361.413C196.249 362.559 197.78 363.825 199.528 364.615C201.168 365.345 203.042 365.544 204.814 365.979L205.176 365.086C204.573 364.772 203.97 364.404 203.368 364.151C202.409 363.765 201.421 363.457 200.438 363.126C197.636 362.185 197.087 359.645 196.219 357.287C195.76 356.315 195.213 355.386 194.586 354.513C193.012 356.925 191.439 357.124 189.095 355.254C188.974 356.31 188.872 357.275 188.775 358.125C187.967 356.419 187.491 354.314 186.225 352.938C181.958 348.318 176.901 345.14 170.192 345.604C169.336 345.664 168.3 345.001 167.552 344.398C165.877 343.071 164.328 341.581 162.592 340.037C163.351 339.337 163.731 339.126 163.906 338.8C167.028 333.167 171.741 336.273 175.912 336.695C176.612 336.768 177.118 338.3 177.865 338.541C179.348 339.011 180.988 338.951 182.531 339.265C185.026 339.777 187.654 340.073 189.95 341.074C193.567 342.642 197.539 343.656 200.125 347.064C201.607 349.045 203.218 350.927 204.947 352.697C206.074 353.837 207.659 354.507 208.823 355.622C210.601 357.263 212.238 359.051 213.717 360.966C215.525 363.379 217.599 365.792 217.382 369.212C217.382 369.694 218.635 370.78 219.039 370.665C219.998 370.388 221.486 369.61 221.541 368.928C221.896 364.815 222.487 360.556 219.28 357.209C225.495 354.748 230.877 351.605 233.885 345.188C234.855 343.107 236.899 341.346 240.075 342.642C241.076 343.053 243.24 342.19 243.987 341.225C244.813 340.145 244.746 338.294 244.861 336.762C244.975 335.23 244.566 333.8 244.807 332.389C245.337 329.276 246.289 326.236 246.778 323.124C247.151 320.742 247.784 318.902 250.069 317.527C252.79 315.779 255.346 313.786 257.706 311.574C259.14 310.295 260.358 310.289 262.063 310.874C264.183 311.615 266.375 312.131 268.603 312.412C270.484 312.629 271.478 311.55 271.563 309.505C271.713 305.886 273.799 304.818 276.988 306.64C280.996 308.95 290.362 307.116 293.816 304.191C296.879 301.592 300.374 299.551 304.141 298.159C308.529 296.579 311.278 294.299 311.411 289.396C311.911 289.347 312.399 289.142 312.646 289.305C315.244 290.964 315.232 290.976 316.263 288.044C316.311 287.889 316.414 287.756 316.552 287.671C318.246 286.886 319.988 285.415 321.627 285.523C323.652 285.65 325.846 286.796 327.486 288.075C328.625 288.943 329.023 290.789 329.722 292.14C326.106 295.91 322.585 299.299 317.028 299.933C313.412 300.343 312.459 302.756 314.014 306.266C315.696 310.072 317.559 313.805 319.56 317.454C320.94 319.976 320.253 321.984 318.71 324.011C315.969 327.63 313.237 331.249 310.512 334.868C310.452 334.952 310.356 335.049 310.368 335.127C310.446 335.688 310.368 336.599 310.675 336.75C313.815 338.318 310.603 343.897 315.497 344.38C315.979 344.428 316.703 345.586 316.703 346.219C316.552 350.025 318.668 351.75 322.411 351.388C326.431 350.996 328.348 347.655 331.295 345.785C331.579 345.61 331.44 344.735 331.47 344.186C331.44 342.91 331.51 341.634 331.681 340.368C332.332 337.353 331.145 334.94 329.523 332.527C326.895 328.541 323.417 324.94 323.116 319.734C323.032 318.251 324.99 314.571 326.383 313.992C328.318 313.19 330.18 312.183 332.157 311.483C337.106 309.728 342.109 308.118 347.069 306.399C348.289 306.007 349.452 305.458 350.529 304.764C351.777 303.908 352.807 303.268 354.206 304.511C354.484 304.696 354.803 304.812 355.135 304.849C355.468 304.886 355.804 304.842 356.116 304.722C359.444 302.822 363.289 302.991 366.665 303.244C371.149 303.576 375.525 305.301 379.557 307.81C382.915 309.897 383.415 312.756 383.572 316.182C383.849 322.213 388.195 324.228 394.421 322.931C396.073 322.587 397.736 322.238 399.412 322.051C407.236 321.194 415.071 320.376 422.919 319.596C424.36 319.451 425.005 320.271 425.987 321.502C427.982 323.993 429.501 327.292 433.883 327.28C437.18 327.28 440.513 328.715 443.786 329.524C447.548 330.447 451.092 330.35 454.081 327.437C454.437 327.093 454.877 326.616 455.287 326.592C457.855 326.454 459.506 325.127 461.248 323.251C463.189 321.164 466.251 322.117 468.843 321.839C470.271 321.683 471.694 321.423 473.116 321.236L473.243 320.344L469.023 318.48C469.367 318.233 469.735 317.774 469.976 317.834C474.955 319.083 479.505 316.55 484.303 316.236C488.245 315.977 492.187 315.633 496.135 315.446C497.115 315.47 498.092 315.581 499.052 315.778L499.414 316.743C498.395 317.201 497.395 317.985 496.352 318.052C494.466 318.172 492.549 317.696 490.662 317.774C487.082 317.919 486.22 319.131 485.587 325.308L488.703 322.708C491.639 322.708 492.012 325.284 492.368 328.48L495.201 325.977C495.918 330.199 499.987 333.625 495.906 338.402L497.009 338.36C498.847 336.52 500.855 334.807 502.434 332.763C502.946 332.105 502.337 330.585 502.229 329.349C506.412 329.952 508.19 333.571 511.174 336.279C511.053 335.133 510.933 333.987 510.812 332.883L515.031 332.576L521.414 338.052C522.114 337.528 523.223 336.484 523.367 336.611C524.451 337.58 525.458 338.63 526.381 339.753L528.093 339.663C527.78 340.399 527.647 341.581 527.116 341.798C523.723 343.221 523.09 346.02 522.771 349.247C522.59 351.056 521.776 352.866 521.095 355.17C515.871 354.639 510.647 354.104 505.424 353.566C504.821 353.511 504.128 353.065 503.748 353.276C500.571 355.086 497.497 357.028 494.315 358.795C491.958 360.098 490.041 362.547 486.696 361.395C483.809 360.393 481.983 363.023 479.656 363.982C478.24 364.585 476.642 364.742 475.208 365.285C473.52 365.924 471.483 366.377 470.386 367.607C468.632 369.543 467.372 369.224 465.503 368.035C464.551 367.432 463.092 367.517 461.887 367.541C461.079 367.541 460.296 368.096 459.476 368.289C456.848 368.892 456.022 370.653 457.276 373.054C457.225 373.139 457.162 373.216 457.089 373.283C453.599 375.605 450.579 375.147 446.842 373.048C443.883 371.395 439.856 371.528 436.27 371.208C435.354 371.124 434.317 372.33 433.335 372.939C432.093 373.711 430.924 374.797 429.586 375.183C427.464 375.786 425.119 375.683 423.034 376.389C421.738 376.817 420.189 377.921 419.706 379.109C418.212 382.795 414.692 383.699 411.871 385.611C411.443 385.901 411.021 386.215 410.605 386.528H414.396C414.951 386.209 415.511 385.925 416.084 385.654C418.29 384.664 419.863 383.494 420.87 381.106C421.424 379.791 423.281 378.693 424.812 378.181C426.946 377.439 429.338 377.463 431.532 376.842C432.581 376.546 433.443 375.539 434.359 374.815C434.962 374.332 435.601 373.259 436.083 373.337C440.302 374.025 444.932 373.132 448.602 375.973C450.513 377.457 452.092 378.114 454.214 376.522C455.098 375.855 456.133 375.418 457.228 375.249C459.916 374.899 460.766 373.681 459.536 371.268L463.201 369.061C464.858 369.797 466.317 370.78 467.884 371.009C468.957 371.166 471.013 370.496 471.205 369.803C472.019 366.787 474.593 367.493 476.498 366.787C478.661 365.948 480.765 364.947 482.953 364.181C484.131 363.767 485.369 363.547 486.618 363.53C488.079 363.622 489.533 363.811 490.97 364.097C490.698 364.416 490.512 364.833 490.186 365.008C486.817 366.853 485.473 369.338 487.172 373.144C487.498 373.868 486.811 375.044 486.461 376.552C487.588 377.535 489.354 378.699 490.602 380.28C491.488 381.401 492.374 382.988 490.499 384.447C489.884 384.895 489.322 385.411 488.824 385.985H492.35C492.513 385.613 492.65 385.231 492.76 384.839C493.127 383.476 492.989 381.986 493.29 380.617C493.655 379.431 494.112 378.276 494.658 377.161L492.959 376.063L494.972 374.254C493.64 373.916 492.669 373.711 491.723 373.428C490.777 373.144 489.035 372.861 488.962 372.384C488.751 370.985 488.757 369.2 489.469 368.072C491.066 365.556 493.194 363.379 495.002 360.99C496.569 358.922 503.019 356.768 505.647 357.426C506.683 357.697 508.154 358.192 508.805 357.721C512.566 355.013 515.731 357.649 518.955 358.747C520.33 359.217 521.119 359.694 522.349 358.536C522.831 358.083 524.091 358.463 525.471 358.463C527.587 354.404 531.342 355.514 535.308 356.413C537.556 356.925 540.015 356.491 542.372 356.413C542.487 356.413 542.565 355.514 542.716 354.76C545.796 356.443 548.96 357.89 549.87 361.877C550.192 362.699 550.818 363.364 551.618 363.735C553.012 364.345 554.444 364.867 555.904 365.297L554.367 361.763L554.747 361.292L561.256 367.607C561.184 366.69 561.099 365.647 560.967 363.988C563.981 366.292 566.633 368.21 569.164 370.279C570.822 371.63 572.323 373.186 573.878 374.67C574.863 375.531 575.576 376.66 575.929 377.92C576.283 379.18 576.261 380.516 575.867 381.763L576.879 381.703C577.518 377.837 576.542 375.062 573.293 372.125ZM323.815 325.959C325.967 329.632 328.637 333.058 330.343 336.924C332.754 342.353 327.968 349.591 322.031 350.194C319.017 350.502 318.288 349.705 318.493 346.708C318.553 345.743 318.433 344.114 317.89 343.867C314.352 342.232 313.599 338.505 311.169 335.465C314.629 330.857 318.029 326.333 321.681 321.453C322.411 323.022 322.989 324.56 323.815 325.959ZM348.052 300.349C348.052 297.731 347.738 295.349 348.184 293.111C348.407 292.001 349.878 290.765 351.053 290.361C351.807 290.101 353.603 291 353.959 291.814C354.863 293.865 355.218 296.163 355.839 298.533L348.052 300.349ZM355.948 303.316C355.683 303.57 354.887 303.449 354.429 303.256C353.223 302.762 352.126 302.134 350.637 301.38C353.838 299.541 355.688 299.716 356.195 301.766C356.267 302.025 356.282 302.297 356.24 302.562C356.197 302.828 356.097 303.081 355.948 303.304V303.316Z" fill="white"/>
<path d="M144.286 1.52C143.352 4.80722 143.822 7.40683 146.836 9.63248C147.776 10.3201 147.68 12.6 147.825 14.1743C148.09 17.0151 149.633 19.5183 151.984 20.2059C155.106 21.1106 155.678 23.5715 156.806 25.7006C157.848 27.685 159.216 29.6393 157.734 32.3354C156.812 33.9941 158.716 35.7975 160.645 35.7674C162.381 35.7372 164.135 36.0267 165.859 35.894C167.064 35.8035 168.27 35.2426 170.313 34.6455L165.618 39.8447C170.042 39.5371 174.406 34.1811 173.821 30.1942C173.623 29.1404 173.804 28.0504 174.333 27.1181C178.667 21.2855 178.673 14.3311 179.517 7.61794C179.818 5.25355 179.644 2.82885 179.589 0.301618H178.288C179.415 6.53225 178.004 12.6181 176.757 18.698C176.277 20.5182 175.659 22.2987 174.906 24.0239C174.116 26.1349 173.038 28.1736 172.495 30.345C171.748 33.4814 169.409 33.795 166.932 34.0061C165.724 34.0346 164.517 33.9883 163.315 33.8674C162.857 32.5586 162.357 31.1351 161.688 29.2412L159.777 28.638L160.91 27.112C159.946 25.5318 159.265 24.1867 158.367 23.0166C157.767 22.1136 156.934 21.3903 155.956 20.9236C150.651 19.0538 148.12 15.4228 148.331 9.78931C148.331 9.00521 147.686 8.203 147.125 6.99066L150.917 3.53455L150.495 2.84092L145.07 5.96528C145.154 4.10152 145.245 2.14729 145.335 0.0241699H144.13C144.281 0.507418 144.334 1.01592 144.286 1.52V1.52Z" fill="white"/>
<path d="M143.315 2.88917C143.538 1.83968 143.695 1.0797 143.918 0.0241699H140.693C140.876 0.309451 141.02 0.617753 141.121 0.940974C141.332 1.61048 142.345 2.05681 143.315 2.88917Z" fill="white"/>
<path d="M94.7702 92.3857C94.5834 93.2724 94.4146 94.1048 94.0891 95.679C95.6141 95.0758 96.6267 94.6416 97.6514 94.2616C99.0377 93.7549 100.665 92.5968 101.786 92.9286C104.264 93.6524 104.384 92.1445 105.035 90.6547C105.397 89.8283 106.174 88.7246 106.904 88.61C108.749 88.248 110.646 88.248 112.491 88.61C115.969 89.4785 118.115 86.8668 120.062 85.3047C123.485 82.5482 126.692 80.1115 131.273 80.5759C134.944 80.9438 138.632 81.1791 142.267 81.7822C143.545 81.9873 144.678 83.0549 145.883 83.7304L145.558 84.9367C143.37 84.9367 141.182 84.8463 139.006 84.985C138.247 85.0332 137.517 85.6424 136.776 85.9983C137.189 86.6222 137.653 87.2113 138.162 87.7595C142.339 91.5594 148.355 90.7753 152.948 93.6584C153.345 93.9057 154.262 93.1638 154.84 93.2965C156.329 93.6403 157.751 94.5873 159.228 94.6416C163.279 94.7863 167.269 94.7441 169.993 98.5259C170.421 98.9555 170.949 99.2708 171.53 99.4427C176.033 101.325 180.481 103.387 185.092 104.956C187.224 105.619 189.483 105.76 191.68 105.366C196.828 104.473 199.335 106.795 199.408 111.283C199.504 117.182 204.23 119.311 207.533 122.646C208.011 123.023 208.599 123.235 209.208 123.249C212.584 123.533 215.971 123.678 219.334 124.033C220.219 124.191 221.036 124.611 221.679 125.24C222.699 126.329 223.655 127.477 224.542 128.678C221.667 133.111 214.024 133.395 212.21 140.246C217.635 139.999 222.74 139.818 227.821 139.511C232.083 139.251 236.332 138.618 240.593 138.594C243.591 138.6 246.575 139.005 249.466 139.8C254.716 141.224 259.779 142.002 264.74 138.895C265.633 138.459 266.615 138.237 267.609 138.244C270.02 138.057 272.479 138.34 274.745 137.737C276.053 137.393 277.699 135.837 277.952 134.577C278.32 132.767 276.457 132.592 274.842 132.321C273.333 132.045 271.954 131.288 270.912 130.162C268.314 127.11 265.342 124.938 261.268 124.389C259.102 124.195 256.953 123.846 254.836 123.346C253.179 122.869 251.919 121.874 252.636 119.582C253.354 117.29 251.111 116.066 249.767 116.289C245.548 116.995 242.444 114.896 239.177 112.972C238.64 112.714 238.067 112.539 237.477 112.453C233.621 111.574 230.077 109.657 227.23 106.91C224.765 104.557 222.535 101.077 218.045 102.296C217.237 102.513 216.2 101.886 215.441 101.692L217.086 98.0072C214.675 95.7091 212.74 94.147 211.167 92.2711C208.479 89.0744 205.296 86.9392 201.071 86.7221C200.149 86.6738 199.203 87.1925 198.268 87.4519C199.052 88.0852 199.811 88.7608 200.631 89.3338C200.998 89.4893 201.386 89.587 201.782 89.6233C205.634 90.6426 208.569 92.7718 210.263 96.4149C207.918 95.0698 205.875 93.1578 203.464 92.1023C199.148 90.2144 194.79 88.1576 189.776 88.9598C189.246 89.0357 188.707 89.0049 188.189 88.8692C187.671 88.7335 187.186 88.4957 186.762 88.1697C184.315 85.8294 182.066 83.2901 179.842 80.7327C179.553 80.401 179.842 79.5264 179.878 79.1223C176.497 78.4709 173.17 78.2296 170.156 77.1258C167.01 75.9859 164.171 74.0135 161.199 72.4031L155.063 74.4478L154.786 73.724L156.95 71.2209C154.189 71.8663 151.965 72.9278 149.831 72.765C146.149 72.4936 142.544 71.2933 138.861 70.8108C137.053 70.5755 135.154 70.9917 133.322 71.2752C130.61 71.6974 127.934 72.391 125.215 72.7348C122.756 73.0485 120.164 72.6685 117.801 73.2716C114.112 74.2126 110.659 76.1668 106.952 76.8906C103.136 77.6144 100.828 80.015 98.3988 82.5181C96.5544 84.418 95.8552 86.4929 97.4223 88.6944L86.2715 91.8308C89.0803 96.439 92.1001 90.8839 94.7702 92.3857ZM97.561 90.6607C98.1637 90.7029 98.7243 90.6607 99.3029 90.6607C99.3029 90.0576 99.4838 89.3277 99.2306 88.8512C97.2596 85.0332 97.6514 84.792 101.039 81.6857C105.125 77.9582 110.418 77.6747 115.089 75.6541C119.76 73.6335 124.733 74.5383 129.501 73.8446C132.189 73.4466 134.763 71.9025 137.433 71.7577C140.676 71.5828 143.985 72.2282 147.228 72.765C147.939 72.8856 148.481 74.0376 149.343 74.9725C150.748 74.1161 152.815 72.3729 154.696 75.443C154.891 75.5955 155.121 75.6959 155.366 75.7349C155.611 75.774 155.861 75.7503 156.094 75.6662C158.445 73.8567 161.428 74.7494 163.327 75.4249C167.191 76.8061 170.946 78.2175 174.942 79.3575C179.39 80.6181 182.669 84.6774 185.665 88.5497C186.611 89.756 189.203 90.0515 191.09 90.142C193.344 90.2566 195.309 90.0817 197.485 91.5413C200.348 93.4775 203.802 94.5571 206.996 95.9987C207.644 96.2441 208.253 96.5813 208.804 96.9999C210.727 98.7189 212.294 101.294 214.525 102.115C218.587 103.611 221.318 106.222 223.566 110.161L226.694 106.825C226.616 108.599 226.573 109.57 226.519 110.686L229.473 110.245L228.593 112.947C231.534 110.957 232.812 113.967 234.903 114.244C235.506 114.317 236.374 114.89 236.567 114.691C238.978 112.193 241.045 114.835 241.696 115.897C243.258 118.515 245.379 117.531 247.356 117.706C248.839 117.851 250.328 117.857 251.817 117.923C251.871 118.291 251.919 118.653 251.967 119.021C251.443 119.33 250.957 119.7 250.521 120.125C249.659 121.076 248.951 122.157 248.423 123.328C248.327 123.581 249.864 124.872 250.726 124.974C253.233 125.27 255.849 125.186 258.296 125.372C262.166 125.674 266.62 126.036 269.146 129.926C270.773 132.435 272.762 133.853 275.83 133.497C276.129 133.536 276.408 133.669 276.626 133.877C276.764 133.986 276.807 134.221 276.993 134.607C275.432 137.755 272.37 136.579 270.002 137.17C267.114 137.888 264.143 138.25 261.063 138.793L260.364 136.917C259.719 137.52 259.062 138.123 258.441 138.781C256.162 141.109 253.287 140.114 251.172 139.221C246.699 137.321 242.203 137.641 237.634 137.792C232.553 137.96 227.478 138.057 222.402 138.34C219.678 138.497 216.978 138.974 214.247 139.305L213.705 138.268C215.923 136.579 217.924 134.354 220.413 133.334C223.873 131.917 225.838 129.89 226.055 125.939L223.747 126.163C223.686 126.096 223.451 125.952 223.457 125.831C223.62 123.147 221.703 122.912 219.805 122.767C216.248 122.495 212.68 122.417 209.142 122.013C208.184 121.904 207.219 121.018 206.436 120.294C203.512 117.574 201.041 115.058 200.36 110.39C199.474 104.358 197.587 102.989 191.921 104.413C189.643 105.01 187.232 104.844 185.056 103.942C180.933 102.326 176.853 100.595 172.796 98.8094C170.289 97.7056 168.251 96.1434 167.54 93.194C167.341 92.3797 166.214 91.7826 164.906 91.4629C164.954 92.1686 165.003 92.8743 165.057 93.7428C163.05 93.7428 161.067 93.7428 159.084 93.7428C156.799 93.7127 155.28 92.808 154.967 90.2988C154.901 89.7982 154.111 89.3941 153.659 88.9417C153.412 89.4725 153.297 90.2023 152.881 90.4798C152.249 90.9324 151.488 91.1693 150.711 91.1553C149.382 90.9633 148.077 90.6317 146.818 90.1661C143.924 89.1769 141.061 88.0973 138.186 87.0538L138.421 85.9742C140.519 85.9742 142.641 86.0948 144.702 85.9078C145.401 85.8415 146.51 85.0212 146.565 84.4723C146.564 84.0188 146.461 83.5712 146.264 83.1629C146.067 82.7546 145.78 82.396 145.425 82.1139C144.298 81.3394 143.014 80.8244 141.664 80.606C137.204 80.0029 132.725 79.5565 128.241 79.2067C127.403 79.1464 126.481 79.8099 125.637 80.2019C124.856 80.5859 124.104 81.0274 123.389 81.5229C122.141 82.3854 120.978 83.3323 119.694 84.1888C118.41 85.0453 116.945 85.5761 115.951 86.6014C114.595 88.0249 113.666 87.6087 112.057 86.9814C110.623 86.4205 108.688 87.3132 107.006 87.1865C104.3 86.9754 104.342 88.9236 103.763 90.6124C103.582 91.1372 102.642 91.5353 101.955 91.7343C100.074 92.3073 98.1516 92.7537 96.3374 93.2241L94.7582 90.3169C95.602 90.4496 96.5785 90.5823 97.5851 90.6607H97.561Z" fill="white"/>
<path d="M301.019 168.565C297.071 167.962 293.111 167.407 289.175 166.755C287.788 166.52 286.468 165.911 285.088 165.67C283.708 165.428 282.183 165.471 280.748 165.247C278.259 164.861 275.788 164.041 273.304 164.011C270.688 164.011 270.29 166.701 270.417 168.42C270.501 169.584 272.334 171.369 273.581 171.556C276.535 171.997 278.464 173.432 280.17 175.682C280.772 176.484 281.911 176.888 282.514 177.28C283.4 175.682 283.78 174.053 284.491 173.891C286.597 173.408 288.766 173.263 290.917 173.462C294.666 173.818 298.373 174.904 302.116 174.982C305.859 175.061 309.511 174.198 313.218 173.879C316.509 173.589 322.428 178.589 321.132 182.208L324.502 183.867L323.266 187.184C327.009 186.454 333.23 177.099 333.073 173.716L340.523 170.634C341.24 174.62 341.24 174.62 345.218 174.132C345.618 174.075 346.024 174.075 346.424 174.132C348.539 174.494 349.775 173.493 351.246 171.954C352.451 170.706 354.579 170.012 356.387 169.813C358.34 169.602 360.383 170.356 362.415 170.507C365.374 170.73 368.376 170.591 371.287 171.038C372.27 171.188 373.451 172.521 373.831 173.571C374.922 176.544 375.44 176.918 377.821 176.08C378.086 174.415 378.195 172.057 378.502 172.033C381.6 171.774 381.341 168.722 382.758 167.141C382.987 166.888 382.396 165.537 381.865 165.03C380.208 163.433 378.457 161.937 376.621 160.549C374.572 159.023 372.637 157.617 369.587 158.19C367.562 158.57 365.242 157.382 362.897 156.857L368.322 153.986L366.513 151.954C364.199 152.111 362.246 152.098 360.341 152.406C356.23 153.082 355.158 152.406 354.645 148.365C354.302 145.627 353.271 144.933 350.733 145.952C349.922 146.35 348.999 146.461 348.117 146.266C347.234 146.071 346.444 145.582 345.875 144.879C345.144 144.233 344.27 143.77 343.326 143.528C341.608 142.973 339.709 142.816 338.118 142.056C336.008 141.055 334.206 140.608 331.885 141.694C330.339 142.298 328.626 142.321 327.063 141.76C323.628 140.421 321.958 140.711 318.842 145.138L303.87 140.88C303.912 140.608 303.948 140.337 303.99 140.059L305.581 139.239C301.923 136.67 301.019 136.519 297.619 138.003L301.368 140.017C299.681 140.156 298.801 140.138 297.963 140.307C295.763 140.759 293.46 141.018 291.441 141.905C290.489 142.327 290.091 144.004 289.44 145.114C290.475 145.748 291.567 146.285 292.701 146.718C293.508 146.954 294.654 146.326 295.317 146.718C297.517 147.925 300.374 148.974 301.422 150.94C302.321 152.611 301.085 155.434 300.753 158.046L308.824 165.772C306.51 166.755 304.243 167.738 301.959 168.679C301.641 168.721 301.317 168.682 301.019 168.565V168.565ZM309.12 166.725L309.674 167.461C309.861 166.544 310.054 165.651 310.138 165.241L302.411 158.076C302.712 155.446 303.014 152.883 303.381 149.589C301.923 148.66 299.904 146.899 297.565 146.043C295.347 145.235 292.779 145.373 290.296 145.09C292.333 139.486 306.841 139.716 310.12 145.337C311.079 145.09 311.928 144.643 312.736 144.734C314.942 144.933 317.118 145.458 319.324 145.621C319.706 145.587 320.074 145.462 320.397 145.258C320.721 145.053 320.992 144.774 321.187 144.444C322.187 142.176 323.754 141.579 325.924 142.526C328.45 143.63 330.782 143.781 333.356 142.351C334.278 141.845 335.954 142.575 337.244 142.894C339.293 143.395 341.306 144.028 343.338 144.601C343.615 144.68 344.019 144.631 344.176 144.812C346.424 147.291 348.937 148.377 352.168 146.622C352.728 147.118 353.166 147.737 353.446 148.431C354.205 151.031 354.507 153.902 358.153 154.288C357.761 157.02 358.804 157.991 361.625 158.034C364.241 158.07 366.845 159.065 369.461 159.602C371.269 159.982 373.439 159.825 374.928 160.748C377.441 162.31 379.539 164.53 381.92 166.562L379.231 170.784L377.074 170.254C376.688 171.345 376.338 172.334 375.868 173.667C372.161 168.547 367.104 169.337 362.21 169.445C360.934 169.533 359.653 169.433 358.406 169.15C354.874 168.161 352.21 168.77 349.606 171.743C348.437 173.082 345.526 173.016 343.368 173.239C342.976 173.275 342.578 171.43 341.873 170.79C341.168 170.151 339.787 169.319 339.179 169.584C337.141 170.525 335.562 172.678 332.826 171.436C332.723 171.387 331.584 172.775 331.741 173.125C333.037 176.062 330.764 177.552 329.402 179.403C328.299 180.893 327.166 182.353 325.629 184.373C324.098 182.003 322.712 179.645 321.114 177.437C317.046 171.816 310.988 171.846 305.383 173.215C300.35 174.421 295.974 173.257 291.345 172.214C288.277 171.514 285.257 171.665 282.623 173.643C282.056 174.066 281.779 174.85 281.369 175.453C279.513 172.745 277.21 170.772 273.69 170.398C272.858 170.308 271.424 169.065 271.502 168.522C271.665 167.316 272.34 165.615 273.31 165.181C274.419 164.668 276.083 165.139 277.445 165.44C281.17 166.261 284.642 167.853 288.632 167.913C292.761 167.98 296.866 169.065 300.995 169.632C301.769 169.725 302.554 169.624 303.279 169.337C305.25 168.535 307.173 167.6 309.12 166.725V166.725Z" fill="white"/>
<path d="M206.544 50.3456C211.595 53.1925 213.542 58.4339 215.519 63.223C216.393 65.3461 217.231 66.3293 218.756 65.7744C219.792 65.4004 220.847 63.3135 220.775 62.0529C220.642 59.7548 219.768 57.4809 219.057 55.2432C217.502 50.3275 216.188 45.3575 214.235 40.5141C212.951 37.3173 211.824 36.497 208.262 36.0447C211.679 42.0763 206.568 44.4286 203.813 48.0355C204.868 48.9402 205.604 49.8208 206.544 50.3456ZM219.28 57.2759C219.587 59.3869 219.822 60.9913 220.052 62.5897L219.449 63.2652L215.881 61.1662L219.28 57.2759ZM210.118 41.6902C210.721 40.888 210.408 39.3801 210.534 38.0713C211.818 38.0291 212.993 37.5948 212.819 40.0617C212.716 41.5998 213.849 43.4334 214.868 44.8086C217.472 48.325 216.941 51.2262 212.999 52.5592C212.33 52.7884 210.588 51.9198 210.474 51.3528C209.961 48.2285 207.526 45.0981 210.118 41.7083V41.6902Z" fill="white"/>
<path d="M213.361 178.095C216.013 178.149 218.484 178.493 220.335 180.749C220.702 181.189 221.679 181.129 222.378 181.297C222.517 179.874 222.619 178.831 222.692 178.095C224.265 178.294 225.91 178.957 226.356 178.487C228.201 176.514 229.78 177.455 231.648 178.264C232.935 178.863 234.349 179.14 235.767 179.069C237.185 178.999 238.564 178.584 239.786 177.859C238.58 173.885 236.326 171.442 232.257 170.591C230.666 170.26 229.322 168.782 227.851 167.817C227.391 167.451 226.865 167.177 226.302 167.009C218.846 165.766 211.432 163.305 203.807 165.199C202.246 165.585 201.119 167.696 199.787 169.005C200.993 169.608 202.264 170.211 203.47 170.893C204.378 171.406 205.253 171.974 206.092 172.594C208.545 174.379 209.618 178.022 213.361 178.095ZM200.938 169.162C201.776 166.882 203.084 166.327 205.326 166.08C209.817 165.585 214.193 165.386 218.545 166.683C222.161 167.763 226.278 167.135 229.189 170.561C230.142 171.689 232.251 171.858 233.861 172.371C236.778 173.342 237.133 173.764 237.748 177.467C235.621 178.131 233.716 178.173 231.606 176.864C229.72 175.718 227.26 173.698 225.844 177.914C223.379 175.893 221.673 176.327 220.938 178.788C218.804 178.185 216.773 177.063 214.832 177.196C210.655 177.492 209.28 174.017 207.273 171.81C206.068 170.495 205.248 169.723 203.554 169.681C202.668 169.589 201.792 169.415 200.938 169.162V169.162Z" fill="white"/>
<path d="M403.421 179.283C405.53 179.446 407.64 179.048 409.804 178.963C412.215 178.873 414.686 178.915 417.127 178.867C419.351 178.824 421.575 178.728 423.794 178.674C426.837 178.607 428.073 175.923 430.128 174.578C432.817 172.823 432.328 171.436 431.792 169.53C429.869 169.108 428.079 168.48 426.253 168.36C420.828 167.998 415.361 167.678 409.912 167.654C406.742 167.654 402.794 166.086 401.89 170.989C402.028 172.799 402.07 174.608 402.342 176.364C402.51 177.413 402.981 179.247 403.421 179.283ZM407.953 168.722C413.619 169.132 419.321 169.053 424.993 169.391C427.018 169.512 429.007 170.266 431.021 170.73C429.55 175.212 426.645 177.437 422.431 177.455C416.133 177.485 409.84 177.455 403.626 177.455C403.523 175.169 403.427 173.125 403.336 171.08C403.704 168.541 405.578 168.547 407.953 168.722Z" fill="white"/>
<path d="M505.924 327.232C510.601 327.345 515.28 327.182 519.938 326.743C524.302 326.436 525.863 324.011 524.308 319.903C524.026 319.267 523.91 318.57 523.97 317.877C524.35 315.536 524.874 313.22 525.423 310.53C520.317 311.097 515.218 311.785 510.631 314.475C515.291 316.586 514.157 315.723 514.163 322.189L505.924 327.232ZM515.489 320.814C514.887 318.673 516.448 315.82 512.476 314.246L524.326 311.423C522.234 315 522.445 318.1 523.621 321.291C524.38 323.347 523.56 325.06 521.433 325.428C518.123 325.995 514.736 326.158 511.186 326.508C511.614 323.269 516.635 324.741 515.489 320.814Z" fill="white"/>
<path d="M275.348 97.5308C278.573 95.9204 282.238 94.6779 283.787 91.071C284.311 89.8647 283.54 87.0177 282.497 86.4025C280.297 85.1178 277.524 84.8162 274.975 84.1045C274.92 89.2132 280.49 87.5787 282.165 90.1361L274.728 96.7708C274.945 97.0242 275.143 97.2775 275.348 97.5308Z" fill="white"/>
<path d="M242.938 44.857L240.358 44.3262L244.999 50.4905C245.259 48.2347 245.415 46.4192 245.687 44.6157C246.145 41.5215 246.669 38.6505 243.221 36.5274C240.4 34.7903 238.02 32.3475 235.386 30.1821L233.885 33.4754C236.012 34.3077 238.104 34.7963 239.792 35.888C241.529 36.9847 243.028 38.4207 244.198 40.1101C244.62 40.7133 243.595 42.3297 243.245 43.4938C243.131 43.9402 243.046 44.4046 242.938 44.857Z" fill="white"/>
<path d="M128.928 101.566L128.856 101.403C128.811 101.47 128.763 101.535 128.711 101.596L128.928 101.566Z" fill="white"/>
<path d="M126.204 103.116C127.181 102.899 128.061 102.369 128.711 101.608L120.875 102.664L120.689 101.91L122.605 100.149C122.316 99.7203 122.093 99.4006 121.882 99.0749C121.129 97.9048 119.471 96.7769 121.37 95.3293C123.1 93.9963 124.986 94.5452 126.192 95.9324C127.283 97.2172 127.759 99.0267 128.838 101.397C129.621 100.191 129.44 98.5743 128.434 96.7708C126.861 94.0084 124.257 93.8154 121.852 92.9287C119.531 96.0832 119.531 96.0832 120.646 100.516L116.939 98.6165C118.495 103.345 121.177 104.497 126.204 103.116Z" fill="white"/>
<path d="M287.885 122.188C294.81 122.097 297.728 120.378 298.734 116.223C298.915 115.475 298.523 114.594 298.397 113.78C297.746 114.202 297.095 114.612 296.456 115.046C295.594 115.65 294.208 116.928 293.967 116.735C291.718 114.986 290.103 116.735 288.132 117.26C285.884 117.833 285.618 119.226 286.04 120.74C286.257 121.567 287.698 122.055 287.885 122.188ZM292.821 117.604C294.232 117.857 295.835 117.17 297.125 116.934C296.233 120.137 294.268 121.374 287.131 120.861C288.337 117.851 290.103 117.115 292.821 117.592V117.604Z" fill="white"/>
<path d="M503.971 212.071C504.164 212.728 505.611 213.633 506.123 213.446C507.063 212.975 507.81 212.19 508.233 211.226C508.528 210.623 508.154 209.694 508.094 209.031L514.965 207.276C513.157 205.466 511.698 203.862 510.023 202.499C509.649 202.191 508.142 202.571 507.835 203.059C507.443 203.663 507.738 204.742 507.738 205.84L502.591 204.851C503.085 207.607 503.338 209.875 503.971 212.071ZM509.004 203.198L512.223 206.817L508.546 207.83C508.727 206.003 508.859 204.664 509.004 203.198ZM506.792 207.637C507.154 209.139 506.852 210.804 506.828 212.402L505.285 212.565L503.585 206.787L504.273 206.087C505.153 206.594 506.623 206.956 506.792 207.637Z" fill="white"/>
<path d="M260.117 77.4276L267.452 84.2735C267.091 81.6678 267.211 79.3758 264.439 78.2841C263.836 78.0428 263.504 76.9933 263.185 76.2575C261.793 73.0607 260.449 69.8399 259.092 66.6069L257.742 67.1618C258.218 68.2683 258.62 69.4046 258.948 70.5637C259.484 72.9039 263.637 74.6953 260.117 77.4276Z" fill="white"/>
<path d="M470.916 310.361C470.169 309.197 469.379 307.949 468.204 306.139C466.275 308.92 464.714 311.338 461.423 308.938C461.019 308.642 459.392 310.03 458.331 310.633C459.192 311.24 460.104 311.773 461.055 312.225C461.851 312.533 462.864 312.291 463.647 312.617C467.197 314.095 468.288 313.817 470.916 310.361ZM468.108 308.172L469.97 310.759L465.088 312.472L464.889 311.869L468.108 308.172Z" fill="white"/>
<path d="M517.298 233.242C516.653 233.036 515.61 233.067 515.182 233.459C514.754 233.851 514.875 234.894 515.116 235.509C515.828 237.365 516.647 239.177 517.569 240.938C517.774 241.33 518.515 241.541 519.046 241.656C520.191 241.975 521.366 242.211 522.596 242.5C525.23 239.647 520.534 237.554 521.83 235.148C520.352 234.437 518.839 233.801 517.298 233.242V233.242ZM522.421 239.931C520.118 240.594 516.996 237.717 515.875 234.195C519.907 234.388 520.022 238.169 522.421 239.931Z" fill="white"/>
<path d="M260.086 59.3206C260.087 58.888 260.018 58.4582 259.881 58.0479C257.88 54.8692 255.927 51.6604 253.751 48.6085C253.341 48.0053 252.021 48.0958 250.84 47.7942L256.867 56.8838L254.028 59.2964L260.086 59.3206Z" fill="white"/>
<path d="M301.513 163.703C301.109 161.049 300.735 160.688 295.485 158.878C294.419 158.51 293.111 158.824 291.489 158.824C293.731 162.521 297.342 164.126 301.513 163.703Z" fill="white"/>
<path d="M324.791 111.862C325.177 111.53 325.798 111.259 325.9 110.849C326.123 109.677 326.274 108.492 326.352 107.302C326.023 107.046 325.713 106.766 325.424 106.464C323.339 104.093 319.397 105.028 317.588 102.109C317.438 101.873 316.226 102.302 315.503 102.422C315.72 102.989 315.774 103.87 316.178 104.081C318.342 105.203 320.566 106.216 322.808 107.157C324.333 107.803 326.166 108.11 324.466 110.408C324.273 110.674 324.671 111.367 324.791 111.862Z" fill="white"/>
<path d="M377.025 291.983L367.436 284.474C367.876 289.709 372.637 293.244 377.025 291.983Z" fill="white"/>
<path d="M52.9934 112.917C51.4383 113.478 49.6241 113.714 48.3824 114.685C46.7731 115.933 46.5139 117.833 48.2318 120.113L53.7168 114.003L52.9934 112.917Z" fill="white"/>
<path d="M451.176 167.262C449.73 168.583 446.487 165.121 446.354 169.295L441.954 169.596C446.276 172.479 449.989 171.388 451.176 167.262Z" fill="white"/>
<path d="M549.791 266.91C550.394 266.705 550.997 264.714 550.702 264.34C549.55 263.007 547.989 262.018 546.585 260.902L545.645 261.228C545.994 262.941 546.091 264.769 546.814 266.307C547.091 266.898 548.93 267.217 549.791 266.91Z" fill="white"/>
<path d="M512.862 228.054C513.464 226.848 514.483 225.708 514.555 224.49C514.754 221.353 513.452 219.061 509.733 218.784C507.967 222.288 511.469 224.574 511.542 227.608L512.862 228.054ZM512.639 226.408L509.932 220.521C513.392 220.871 514.447 223.084 512.639 226.408V226.408Z" fill="white"/>
<path d="M28.872 169.53C24.0862 171.339 23.0012 175.308 26.1174 177.461C27.1059 174.626 27.9859 172.075 28.872 169.53Z" fill="white"/>
<path d="M486.6 191.4C486.947 191.874 487.375 192.283 487.865 192.607C488.07 192.709 488.872 192.179 488.932 191.847C489.094 191.202 489.001 190.519 488.673 189.941C487.666 188.739 486.512 187.669 485.237 186.756C484.442 186.213 483.303 186.153 482.314 185.9C482.157 186.31 482.001 186.726 481.838 187.136C482.693 187.692 483.516 188.297 484.303 188.946C485.135 189.7 485.84 190.574 486.6 191.4Z" fill="white"/>
<path d="M522.722 254.068C523.325 251.758 523.451 249.4 520.721 246.873C519.877 249.472 519.033 251.439 518.696 253.508C518.599 254.111 519.841 255.281 520.673 255.546C521.197 255.715 522.553 254.732 522.722 254.068ZM519.708 252.482C520.082 251.388 520.575 250.338 521.179 249.352L521.939 249.696C522.092 250.758 522.121 251.835 522.023 252.904C521.92 253.459 521.089 253.881 520.582 254.358C520.263 253.725 519.576 253.007 519.708 252.482Z" fill="white"/>
<path d="M520.004 264.401L517.436 262.048C516.719 263.11 515.592 264.117 515.447 265.245C515.357 265.927 516.81 266.801 517.569 267.591L520.004 264.401Z" fill="white"/>
<path d="M252.944 71.9146C251.304 70.3766 249.725 68.7662 247.983 67.3487C247.668 67.1986 247.322 67.1268 246.974 67.1394C246.625 67.152 246.285 67.2486 245.982 67.4211C245.644 67.6503 245.554 69.0617 245.795 69.2306C247.899 70.5093 250.105 71.6432 252.275 72.7892L252.944 71.9146Z" fill="white"/>
<path d="M297.794 92.0602C297.397 91.8129 296.149 92.9649 295.293 93.4776L295.63 94.2014L304.388 95.5465C303.038 92.1266 299.759 93.2605 297.794 92.0602Z" fill="white"/>
<path d="M533.571 302.906L532.559 301.525C532.143 301.248 531.751 300.807 531.299 300.735C530.806 300.692 530.314 300.834 529.919 301.133C528.532 302.189 527.194 303.317 525.886 304.475C525.814 304.541 526.29 305.422 526.326 305.41C527.954 304.806 529.557 304.155 531.185 303.558C531.974 303.28 532.794 303.124 533.571 302.906Z" fill="white"/>
<path d="M479.053 176.569C479.463 173.722 479.722 171.906 479.969 170.145C476.793 170.278 475.979 170.953 476.353 174.222C476.425 174.994 477.902 175.616 479.053 176.569Z" fill="white"/>
<path d="M152.791 146.767C151.645 144.064 149.777 144.384 147.932 144.698C147.293 144.8 146.63 144.812 145.979 144.867C146.54 145.627 147.016 146.941 147.661 147.038C149.228 147.255 150.874 146.905 152.791 146.767Z" fill="white"/>
<path d="M386.844 288.768L382.276 286.235C382.113 287.134 381.613 288.123 381.914 288.6C383.073 290.227 384.324 291.785 385.663 293.268C386.121 291.525 386.501 290.095 386.844 288.768Z" fill="white"/>
<path d="M510.891 287.84C511.084 286.802 510.463 285.608 510.21 284.48C509.307 285.197 508.47 285.992 507.708 286.856C507.238 287.46 507.172 288.425 506.925 289.221C509.348 289.908 510.559 289.607 510.891 287.84Z" fill="white"/>
<path d="M36.4365 154.65C39.0766 153.884 41.59 149.825 40.7341 148.057C40.3544 147.273 39.3659 146.791 38.1243 145.705C38.7993 147.515 39.5889 148.576 39.3298 149.222C38.6607 151.019 37.5456 152.647 36.4365 154.65Z" fill="white"/>
<path d="M310.555 103.997L306.872 109.196L314.907 105.498C314.792 105.293 314.678 105.088 314.557 104.895L310.555 103.997Z" fill="white"/>
<path d="M505.387 191.714C503.904 190.713 502.705 188.698 500.68 190.562C500.216 190.99 500.306 192.975 500.583 193.083C502.325 193.747 504.266 194.356 505.387 191.714Z" fill="white"/>
<path d="M220.143 40.3453C222.168 42.4323 223.428 42.3961 226.17 40.1885C223.843 38.3851 222.385 38.4213 220.143 40.3453Z" fill="white"/>
<path d="M444.781 183.475L451.067 182.033C445.92 179.651 444.552 180.049 444.781 183.475Z" fill="white"/>
<path d="M45.7061 196.262L53.6865 193.849C50.5039 192.577 47.2551 193.656 45.7061 196.262Z" fill="white"/>
<path d="M350.517 280.246C350.318 283.672 351.155 284.643 354.603 285.336C354.742 282.495 352.518 281.754 350.517 280.246Z" fill="white"/>
<path d="M410.641 297.689L416.512 297.086C416.512 296.815 416.566 296.537 416.596 296.26H413.42L415.114 294.136L411.799 294.336C412.208 295.029 412.443 295.433 412.697 295.855L410.479 297.062L410.641 297.689Z" fill="white"/>
<path d="M438.464 174.566L438.193 173.263L431.562 174.627L431.816 175.863C434.263 176.49 436.354 175.495 438.464 174.566Z" fill="white"/>
<path d="M151.911 42.6855C151.743 42.4853 151.527 42.3313 151.284 42.2384C151.04 42.1455 150.776 42.1167 150.518 42.1548C148.861 43.0112 147.288 44.0366 145.696 44.9956C145.775 45.3153 145.853 45.629 145.937 45.9426C147.842 45.4601 149.771 45.0379 151.633 44.4166C151.911 44.3201 152.067 43.2163 151.911 42.6855Z" fill="white"/>
<path d="M438.072 313.407L444.1 314.077C442.068 310.989 440.748 310.826 438.072 313.407Z" fill="white"/>
<path d="M501.517 179.476C500.994 179.776 500.493 180.113 500.017 180.483L502.566 183.674L503.934 182.63C503.145 181.557 502.385 180.471 501.517 179.476Z" fill="white"/>
<path d="M276.035 58.1987C274.938 59.7006 274.142 60.7983 272.931 62.451C276.969 61.9986 277.216 61.6609 276.035 58.1987Z" fill="white"/>
<path d="M126.765 377.016C125.77 374.272 124.89 371.859 124.016 369.453L123.016 369.224C122.286 370.677 120.725 372.324 121.002 373.554C121.551 376.009 123.751 377.173 126.765 377.016Z" fill="white"/>
<path d="M73.2522 331.454L72.553 330.784C70.8171 331.472 68.7677 331.792 67.4175 332.938C65.9649 334.174 65.0427 336.183 67.5441 338.264L73.2522 331.454Z" fill="white"/>
<path d="M181.223 359.7C181.277 358.831 180.306 357.89 179.788 356.998C179.185 357.733 178.227 358.433 178.161 359.211C178.064 360.369 178.613 361.582 178.884 362.776L179.637 362.709C180.204 361.708 181.15 360.731 181.223 359.7Z" fill="white"/>
</g>
<defs>
<clipPath id="clip0_1901_25635">
<rect width="577" height="388" fill="white"/>
</clipPath>
</defs>
</svg>
