<svg width="306" height="284" viewBox="0 0 306 284" fill="none" xmlns="http://www.w3.org/2000/svg">
<g clip-path="url(#clip0_1900_24391)">
<path d="M121.088 158.479C120.098 158.617 119.189 158.693 118.237 158.815C118.107 158.817 117.979 158.856 117.869 158.927C117.819 158.961 117.778 159.007 117.748 159.06C117.719 159.113 117.702 159.172 117.7 159.233C117.715 159.294 117.745 159.35 117.786 159.397C117.828 159.444 117.881 159.48 117.939 159.503C118.064 159.544 118.197 159.553 118.327 159.53L119.01 159.434C119.436 159.375 119.87 159.375 120.296 159.387C120.705 159.387 121.103 159.524 121.427 159.775C121.75 160.026 121.981 160.377 122.084 160.773C122.113 160.981 122.201 161.181 122.24 161.388C122.333 162.051 122.494 162.705 122.615 163.355C123.891 164.319 124.975 165.514 125.811 166.878C126.946 168.767 127.495 170.949 127.391 173.15C127.264 175.454 126.381 177.653 124.88 179.406L124.989 180.188C125.339 182.704 125.688 185.21 125.898 187.735C125.951 188.475 125.944 189.223 125.935 189.961C125.919 190.256 125.868 190.548 125.784 190.83C125.722 191.071 125.597 191.292 125.42 191.467C125.244 191.643 125.023 191.768 124.782 191.828C124.425 191.878 124.078 191.997 123.726 192.076C123.597 192.094 123.458 192.113 123.347 192.179C123.265 192.203 123.195 192.255 123.149 192.326C123.103 192.398 123.085 192.483 123.098 192.567C123.108 192.65 123.147 192.726 123.209 192.782C123.27 192.839 123.35 192.871 123.433 192.874C123.597 192.893 123.763 192.887 123.925 192.856L128.069 192.158C128.683 192.072 129.307 191.986 129.921 191.9L135.465 191.259C135.629 191.238 135.79 191.195 135.943 191.132C136.024 191.109 136.094 191.057 136.14 190.985C136.186 190.914 136.204 190.828 136.191 190.744C136.177 190.662 136.135 190.587 136.072 190.531C136.009 190.476 135.93 190.443 135.846 190.439C135.682 190.435 135.517 190.441 135.354 190.457C134.75 190.541 134.145 190.625 133.536 190.599C133.088 190.634 132.64 190.517 132.267 190.267C131.893 190.017 131.614 189.648 131.476 189.22C131.357 188.946 131.267 188.661 131.206 188.369C130.88 186.678 130.523 184.981 130.254 183.272C129.892 180.667 129.529 178.062 129.165 175.447C129.13 175.304 129.11 175.158 129.104 175.011C129.101 174.896 129.138 174.783 129.207 174.69C129.277 174.598 129.376 174.532 129.488 174.504L129.835 174.455L135.361 173.686C136.015 173.595 136.669 173.504 137.352 173.479C137.876 173.46 138.402 173.492 138.92 173.574C139.478 173.615 140.004 173.852 140.404 174.244C140.804 174.635 141.053 175.156 141.106 175.713C141.119 175.877 141.169 176.036 141.251 176.178C141.29 176.238 141.341 176.289 141.4 176.33C141.46 176.37 141.526 176.398 141.597 176.412C141.681 176.419 141.764 176.394 141.83 176.342C141.896 176.289 141.939 176.214 141.951 176.131C142.001 175.924 142.015 175.71 141.995 175.499C141.824 174.212 141.738 172.915 141.737 171.617C141.741 171.236 141.765 170.855 141.81 170.476C141.833 170.314 141.84 170.151 141.833 169.988C141.836 169.92 141.818 169.852 141.781 169.795C141.744 169.737 141.69 169.693 141.627 169.667C141.563 169.642 141.494 169.637 141.427 169.652C141.361 169.668 141.301 169.704 141.256 169.756C141.119 169.876 140.999 170.015 140.899 170.169C140.632 170.551 140.245 170.832 139.799 170.968C139.6 171.044 139.396 171.106 139.189 171.154C138.266 171.343 137.355 171.541 136.425 171.68C134.444 171.956 132.463 172.232 130.56 172.557L129.569 172.695C128.965 172.779 128.724 172.57 128.649 171.955C128.613 171.697 128.577 171.44 128.54 171.173C128.047 167.637 127.555 164.101 127.063 160.565C127.032 160.418 127.012 160.269 127.001 160.119C126.986 160.029 126.991 159.936 127.015 159.848C127.04 159.759 127.083 159.677 127.143 159.607C127.202 159.537 127.276 159.481 127.36 159.443C127.443 159.405 127.534 159.385 127.626 159.386L127.962 159.339L129.288 159.215L135.112 158.404C135.508 158.349 135.894 158.295 136.29 158.24C136.913 158.173 137.542 158.208 138.153 158.344C138.648 158.418 139.109 158.641 139.474 158.983C139.839 159.326 140.091 159.772 140.196 160.261C140.207 160.407 140.228 160.553 140.257 160.697C140.284 160.806 140.333 160.909 140.4 161C140.433 161.052 140.478 161.096 140.532 161.126C140.587 161.156 140.647 161.171 140.709 161.17C140.771 161.17 140.832 161.154 140.885 161.123C140.939 161.092 140.984 161.048 141.015 160.995C141.094 160.866 141.143 160.722 141.158 160.571C141.168 160.36 141.162 160.148 141.141 159.938C140.98 158.63 140.965 157.307 141.097 155.996C141.096 155.882 141.08 155.769 141.05 155.659C141.048 155.588 141.028 155.519 140.991 155.458C140.955 155.396 140.903 155.345 140.842 155.31C140.78 155.274 140.711 155.254 140.639 155.253C140.568 155.251 140.498 155.268 140.435 155.301C140.356 155.323 140.282 155.361 140.218 155.412C139.837 155.646 139.411 155.798 138.968 155.858C138.304 155.951 137.64 156.114 136.996 156.203L124.021 158.01L121.088 158.479Z" fill="#E1D9CE"/>
<path d="M119.875 143.089C119.459 143.147 119.095 143.147 118.752 143.144L117.255 143.131C116.507 143.124 115.758 143.107 115.012 143.12C114.009 143.13 113.008 143.202 112.014 143.335C111.351 143.423 110.695 143.549 110.046 143.71C108.156 144.182 106.338 144.907 104.642 145.866C103.182 146.696 101.979 147.911 101.163 149.379C100.211 151.141 99.9053 153.18 100.3 155.143C100.617 156.947 101.521 158.596 102.871 159.834C103.198 160.152 103.567 160.484 104.019 160.825C105.552 162.052 107.216 163.107 108.98 163.971C109.872 164.432 110.781 164.871 111.692 165.32L113.862 166.401C115.273 167.113 116.342 167.681 117.34 168.249C118.317 168.768 119.196 169.456 119.935 170.281C120.995 171.454 121.556 172.996 121.497 174.577C121.438 176.158 120.764 177.654 119.619 178.745C118.512 179.764 117.163 180.484 115.699 180.835C115.101 180.992 114.495 181.114 113.882 181.199C113.377 181.27 112.892 181.337 112.288 181.351C110.906 181.451 109.518 181.302 108.188 180.912C106.954 180.585 105.853 179.881 105.04 178.897C104.464 178.192 104.091 177.343 103.962 176.442L103.959 176.422C103.947 176.229 103.92 176.037 103.879 175.848C103.839 175.671 103.737 175.514 103.59 175.408C103.443 175.302 103.262 175.254 103.082 175.272C102.915 175.303 102.765 175.39 102.656 175.519C102.547 175.649 102.486 175.812 102.484 175.981C102.472 176.079 102.469 176.177 102.474 176.275L102.484 176.345C102.523 176.622 102.492 176.909 102.499 177.181C102.508 177.674 102.518 178.188 102.532 178.65C102.59 179.864 102.711 180.947 102.851 182.099L102.898 182.436C102.919 182.673 103.003 182.901 103.142 183.095C103.281 183.289 103.469 183.441 103.687 183.537C103.967 183.674 104.259 183.782 104.56 183.86C105.082 183.979 105.599 184.069 106.153 184.133C108.695 184.393 111.261 184.308 113.781 183.879L113.9 183.862C115.295 183.66 116.668 183.33 118.003 182.877C120.201 182.246 122.177 181.009 123.705 179.307C125.305 177.636 126.263 175.454 126.411 173.145C126.507 171.142 126.006 169.156 124.971 167.439C124.041 165.943 122.802 164.663 121.338 163.684C119.497 162.423 117.537 161.344 115.488 160.46C114.765 160.126 114.034 159.804 113.332 159.478C112.63 159.151 111.55 158.716 110.652 158.286C109.333 157.697 108.088 156.955 106.942 156.076C106.184 155.499 105.574 154.75 105.164 153.891C104.645 152.883 104.5 151.725 104.755 150.621C105.01 149.517 105.648 148.539 106.555 147.861C107.586 147.089 108.762 146.534 110.013 146.229C110.511 146.098 111.016 145.998 111.526 145.927C112.393 145.811 113.266 145.76 114.14 145.775C115.372 145.786 116.59 146.027 117.733 146.487C118.509 146.772 119.15 147.339 119.529 148.074C119.679 148.356 119.802 148.662 119.924 148.958C120.046 149.254 120.058 149.263 120.119 149.416L120.137 149.545C120.194 149.699 120.265 149.848 120.351 149.989C120.406 150.097 120.494 150.186 120.601 150.243C120.708 150.3 120.83 150.323 120.951 150.31C121.004 150.312 121.058 150.305 121.109 150.288C121.217 150.241 121.313 150.171 121.391 150.083C121.47 149.996 121.528 149.892 121.563 149.78C121.603 149.529 121.605 149.274 121.569 149.022C121.528 148.725 121.49 148.458 121.453 148.19C121.416 147.923 121.347 147.428 121.293 147.041C121.201 146.378 121.198 145.702 121.156 145.041L121.103 144.15C121.106 144 121.08 143.851 121.026 143.711C120.972 143.572 120.891 143.444 120.787 143.336C120.659 143.236 120.512 143.163 120.356 143.121C120.199 143.079 120.036 143.068 119.875 143.089V143.089Z" fill="#E1D9CE"/>
<path d="M213.715 122.665C212.9 122.822 212.108 123.081 211.359 123.437C221.233 143.3 224.21 165.886 219.821 187.629C215.431 209.372 203.926 229.034 187.12 243.511C170.313 257.988 149.164 266.456 127.011 267.577C104.858 268.699 82.9616 262.41 64.7796 249.703C46.5977 236.997 33.1654 218.597 26.6032 197.408C20.041 176.219 20.7227 153.448 28.5406 132.69C36.3585 111.932 50.8674 94.3682 69.7769 82.7723C88.6863 71.1764 110.919 66.2085 132.966 68.6529L132.616 66.1372C118.185 64.6111 103.594 66.1651 89.8086 70.6965C76.0229 75.2278 63.3558 82.6333 52.6446 92.4236C41.9333 102.214 33.4219 114.166 27.6727 127.49C21.9235 140.814 19.0675 155.206 19.2935 169.716C19.5195 184.225 22.8223 198.522 28.9837 211.66C35.145 224.798 44.0246 236.48 55.0355 245.932C66.0465 255.383 78.938 262.391 92.8582 266.491C106.778 270.59 121.41 271.689 135.787 269.715C139.293 269.225 142.772 268.559 146.211 267.718C161.128 264.064 175.034 257.105 186.902 247.356C198.769 237.607 208.295 225.316 214.776 211.392C221.257 197.468 224.527 182.265 224.345 166.908C224.163 151.55 220.534 136.43 213.725 122.663L213.715 122.665Z" fill="#E1D9CE"/>
<path d="M136.012 226.077C120.647 229.838 104.417 227.342 90.8928 219.138C77.3683 210.933 67.6571 197.692 63.8954 182.328C60.1336 166.963 62.6296 150.733 70.8341 137.209C79.0386 123.684 92.2797 113.973 107.644 110.211C109.186 109.825 110.721 109.541 112.261 109.286L111.922 106.849C110.297 107.076 108.68 107.422 107.059 107.819C95.1249 110.732 84.3227 117.119 76.0184 126.171C67.714 135.223 62.2806 146.535 60.4052 158.676C58.5297 170.816 60.2965 183.24 65.4821 194.376C70.6678 205.512 79.0393 214.861 89.538 221.239C100.037 227.618 112.191 230.74 124.464 230.21C136.737 229.681 148.578 225.524 158.488 218.265C168.398 211.006 175.934 200.971 180.141 189.43C184.348 177.888 185.038 165.358 182.124 153.424C181.65 151.471 181.084 149.554 180.425 147.674C179.804 148.215 179.147 148.861 178.392 149.461C178.883 150.958 179.356 152.467 179.732 154.01C181.597 161.618 181.945 169.518 180.756 177.261C179.567 185.003 176.864 192.435 172.802 199.133C168.74 205.83 163.398 211.662 157.081 216.294C150.765 220.926 143.597 224.269 135.989 226.13L136.012 226.077Z" fill="#E1D9CE"/>
<path d="M188.305 77.0728C188.364 77.384 188.348 77.7047 188.259 78.0085C188.17 78.3123 188.009 78.5906 187.791 78.8204C186.545 80.2458 185.512 81.8452 184.727 83.5683C184.62 83.8154 184.384 84.1511 184.177 84.19C183.971 84.2289 183.716 83.9211 183.492 83.7605C183.492 83.7605 183.418 83.6697 183.382 83.6243C182.936 83.028 182.344 82.5559 181.664 82.2529C180.984 81.9499 180.238 81.8262 179.496 81.8936C178.112 81.9553 176.774 82.4112 175.64 83.2078C175.356 83.2986 175.058 83.3401 174.759 83.3305C174.704 83.0669 174.69 82.7963 174.718 82.5285C174.975 81.695 175.295 80.8731 175.574 80.0467C175.638 79.8174 175.759 79.608 175.926 79.4382C176.093 79.2684 176.301 79.1437 176.529 79.0757C176.799 78.9992 177.031 78.8278 177.184 78.5931C177.337 78.3584 177.4 78.0762 177.361 77.7988C177.363 77.5608 177.28 77.3299 177.127 77.1477C176.974 76.9654 176.761 76.8437 176.526 76.8045C176.275 76.7484 176.013 76.7709 175.776 76.869C175.538 76.9671 175.337 77.136 175.199 77.3527C174.128 78.7965 173.406 80.4696 173.093 82.2398C172.825 83.1871 172.828 84.1906 173.102 85.1362C173.145 85.3737 173.131 85.618 173.06 85.8488C172.982 86.2332 172.853 86.6146 172.797 87.0061C172.083 91.9854 171.38 96.9666 170.687 101.95C170.666 102.162 170.613 102.37 170.531 102.567C170.504 102.655 170.453 102.732 170.383 102.792C170.314 102.851 170.229 102.889 170.138 102.902C170.048 102.914 169.956 102.901 169.873 102.863C169.789 102.825 169.719 102.764 169.669 102.687C169.498 102.445 169.369 102.177 169.286 101.892C169.101 101.363 168.925 100.822 168.778 100.277C168.506 99.4098 168.292 98.5256 168.137 97.6301C167.84 95.4907 167.669 93.3235 167.429 91.166C167.154 88.6095 166.206 87.6713 163.565 87.3423C162.918 87.2607 162.779 86.9873 162.753 86.365C162.742 85.6574 162.624 84.9555 162.402 84.2834C162.15 83.6319 161.3 83.619 160.788 84.1447C160.077 84.8394 160.052 87.276 160.733 87.8879L160.949 88.0598C161.735 88.6297 162.678 88.9427 163.648 88.9562C164.007 88.9219 164.365 89.0283 164.647 89.2527C164.928 89.4772 165.112 89.8022 165.159 90.1594C165.315 91.2786 165.589 92.3813 165.686 93.5088C165.747 95.706 166.075 97.8878 166.661 100.006C167.006 101.432 167.653 102.768 168.559 103.922C169.882 105.374 171.173 105.073 171.806 103.167C172.048 102.369 172.208 101.549 172.283 100.718C172.929 95.8624 173.546 91.011 174.175 86.1681C174.177 85.9333 174.246 85.7039 174.374 85.5071C174.502 85.3103 174.684 85.1544 174.898 85.0577C176.117 84.5247 177.346 84.0002 178.584 83.535C179.285 83.2581 180.066 83.2614 180.766 83.5443C181.676 83.9049 182.463 84.5211 183.032 85.3187C183.188 85.5001 183.273 85.7311 183.273 85.97C183.273 86.209 183.187 86.4399 183.032 86.6212C182.69 87.0337 182.376 87.4687 182.092 87.9232C180.474 90.8592 179.461 94.0901 179.114 97.4246C179.058 98.1508 179.16 98.8805 179.412 99.564C179.82 100.608 180.919 100.747 181.795 99.9289C182.19 99.55 182.525 99.1117 182.785 98.6299C183.719 96.8765 184.41 95.0039 184.837 93.0638C185.532 90.7587 185.506 88.2965 184.763 86.0065C184.685 85.782 184.667 85.5406 184.713 85.3072C184.759 85.0737 184.865 84.8566 185.023 84.6781C185.558 83.9305 186.067 83.163 186.55 82.3755C187.11 81.4696 187.618 80.5508 188.189 79.6435C188.475 79.1594 188.855 79.1367 189.179 79.5056C189.265 79.611 189.339 79.7261 189.399 79.8486C189.671 80.3601 190.046 80.8095 190.501 81.1685C190.956 81.5274 191.481 81.7881 192.041 81.9341C192.632 82.1431 193.264 82.2071 193.885 82.1207C194.505 82.0343 195.096 81.8001 195.607 81.4377C196.269 80.9624 196.87 80.4074 197.396 79.7852C199.267 77.6849 200.697 75.23 201.601 72.5665C201.668 72.3249 201.945 72.135 202.127 71.9178C202.334 72.1035 202.511 72.3208 202.65 72.5617C202.962 73.3463 203.131 74.2011 203.517 74.945C204.445 76.6736 205.382 78.4009 206.459 80.0481C207.508 81.7995 208.898 83.3227 210.546 84.5274C212.432 85.8196 214.265 85.3524 215.342 83.2943C215.487 83.0725 215.596 82.829 215.665 82.5728C215.824 81.541 215.952 80.5741 216.096 79.5748C216.148 79.2243 216.09 78.7376 216.58 78.6997C217.069 78.6618 217.038 79.161 217.104 79.495C217.192 80.3694 217.35 81.2355 217.576 82.0847C218.551 84.7356 219.594 87.3669 220.693 89.9702C221.081 90.7924 221.545 91.5762 222.079 92.3114C222.198 92.4998 222.38 92.6398 222.593 92.7063C222.806 92.7729 223.035 92.7617 223.24 92.6748C223.441 92.6029 223.613 92.4691 223.731 92.2927C223.85 92.1164 223.91 91.9068 223.902 91.6943C223.924 91.4186 223.896 91.1498 223.92 90.884C224.135 87.6723 223.507 84.4602 222.098 81.5662C221.506 79.9214 220.33 78.551 218.795 77.7148C218.582 77.6295 218.391 77.4974 218.236 77.3283C218.081 77.1591 217.966 76.9573 217.9 76.7378C217.834 76.5183 217.817 76.2866 217.853 76.0599C217.888 75.8333 217.973 75.6174 218.103 75.4284C218.604 74.5307 219.105 73.6331 219.639 72.7511C221.408 69.5898 223.498 66.6192 225.876 63.8864C225.946 63.806 226.053 63.7102 226.061 63.6183C226.068 63.5264 226.142 63.1123 226.026 63.0073C225.929 62.942 225.818 62.9001 225.702 62.8847C225.586 62.8693 225.468 62.8809 225.358 62.9186C225.05 63.0791 224.781 63.3062 224.572 63.5833C223.37 65.1743 222.146 66.7581 221.032 68.3974C219.815 69.9269 218.793 71.6022 217.99 73.3844C217.72 73.8571 217.386 74.2908 216.999 74.6735C216.979 74.1714 217 73.8151 216.952 73.4684C216.787 72.2799 216.621 71.0913 216.454 69.8929C216.337 69.051 216.172 68.2259 216.025 67.3882C215.742 65.7919 215.37 64.2081 215.175 62.5895C214.774 59.7073 214.47 56.8014 214.277 53.8903C214.121 51.3172 214.185 48.7337 214.159 46.1526C214.142 46.0338 214.255 45.897 214.297 45.7699L214.476 45.745C214.553 45.8977 214.613 46.0588 214.654 46.2251C214.739 46.8392 214.826 47.4632 214.913 48.0871C215.018 49.8595 215.095 51.646 215.191 53.4198C215.175 53.5442 215.186 53.6704 215.222 53.7904C215.259 53.9104 215.32 54.0215 215.401 54.1166C215.483 54.2116 215.584 54.2886 215.697 54.3426C215.81 54.3965 215.933 54.4262 216.058 54.4298C216.256 54.4022 216.465 54.0904 216.618 53.8774C216.682 53.7394 216.703 53.5851 216.677 53.435C216.536 51.0416 216.424 48.6441 216.203 46.2617C216.108 45.4325 215.873 44.6254 215.508 43.8749C215.422 43.6785 215.28 43.5117 215.1 43.3948C214.92 43.2779 214.71 43.2161 214.496 43.217C214.281 43.2179 214.072 43.2814 213.893 43.3998C213.714 43.5181 213.574 43.6862 213.49 43.8832C213.253 44.293 213.087 44.7393 212.997 45.2038C212.465 48.2997 212.354 51.4532 212.667 54.5789C212.861 57.6414 213.174 60.6873 213.536 63.7264C213.831 65.8459 214.126 67.9655 214.567 70.0445C215.117 72.2061 215.343 74.4375 215.237 76.6655C215.189 78.7381 214.774 80.7858 214.009 82.7126C213.503 83.7926 212.765 84.0771 211.807 83.3623C211.159 82.8712 210.566 82.3105 210.04 81.6901C207.827 78.9439 206.04 75.8813 204.736 72.6045C204.247 71.4813 203.845 70.3358 203.345 69.2139C203.222 68.9488 203.154 68.6611 203.146 68.3686C203.138 68.0761 203.191 67.7851 203.301 67.5139C203.668 66.6865 203.96 65.8281 204.175 64.9488C205.204 59.2828 205.838 53.6112 204.489 48.0542C204.272 46.8585 203.743 45.7411 202.957 44.8144C202.83 44.6629 202.673 44.5384 202.496 44.4482C202.32 44.3581 202.127 44.304 201.93 44.2892C201.732 44.2744 201.533 44.2992 201.346 44.3621C201.158 44.425 200.984 44.5247 200.835 44.6555C200.474 44.894 200.173 45.2123 199.955 45.5857C199.538 46.3913 199.196 47.2331 198.932 48.1008C198.388 50.275 198.21 52.5244 198.405 54.7571C198.5 57.6134 198.895 60.4518 199.584 63.2254C200.175 65.445 200.846 67.6536 201.44 69.8831C201.515 70.229 201.473 70.5902 201.32 70.9094C200.877 71.8596 200.37 72.7884 199.874 73.7256C198.764 76.1593 197.168 78.34 195.183 80.1337C194.871 80.408 194.491 80.5938 194.083 80.6719C193.675 80.75 193.254 80.7176 192.862 80.578C192.021 80.2395 191.319 79.6251 190.873 78.8356C190.685 78.6252 190.58 78.3535 190.578 78.0713C190.576 77.7891 190.677 77.5158 190.862 77.3026C191.357 76.511 191.582 75.5795 191.502 74.6489C191.466 74.392 191.362 74.1493 191.2 73.9463C191.039 73.7432 190.826 73.5872 190.584 73.4945C190.297 73.4127 189.991 73.4228 189.71 73.5236C189.429 73.6243 189.186 73.8104 189.016 74.056C188.679 74.4731 188.439 74.9609 188.316 75.4832C188.193 76.0055 188.19 76.5489 188.305 77.0728V77.0728ZM184.194 88.519C184.164 91.3098 183.606 94.0697 182.55 96.6534C182.274 97.2775 182.017 97.8988 181.719 98.5158C181.6 98.7706 181.429 98.9974 181.216 99.1815C180.889 99.4391 180.556 99.3743 180.406 99.0216C180.302 98.7437 180.26 98.446 180.285 98.15C180.462 95.7065 181.058 93.3115 182.046 91.0697C182.482 89.9992 182.849 88.9385 183.276 87.8694C183.361 87.6768 183.517 87.5247 183.712 87.4453C183.831 87.4288 184.01 87.626 184.121 87.7013C184.167 87.9715 184.192 88.2449 184.194 88.519V88.519ZM218.977 79.8198C219.188 79.8814 219.5 79.8783 219.59 80.0172C220.119 80.7358 220.592 81.4934 221.006 82.2836C222.007 84.4869 222.673 86.8273 222.983 89.2274C223.005 89.5671 222.988 89.9082 222.932 90.2441L222.596 90.2909C222.415 90.0499 222.261 89.7905 222.134 89.5171C221.463 87.5914 220.811 85.5922 220.126 83.648C219.8 82.6837 219.417 81.8183 219.057 80.8992C218.969 80.7437 218.908 80.5748 218.876 80.3993C218.877 80.1958 218.899 79.9929 218.943 79.7943L218.977 79.8198ZM200.163 49.4742C200.346 48.4028 200.625 47.3501 200.998 46.3291C201.123 45.9279 201.435 45.4807 201.904 45.587C202.253 45.7241 202.538 45.987 202.703 46.3239C202.874 46.6878 203.005 47.069 203.094 47.4609C204.068 50.2165 204.445 53.1479 204.2 56.0605C204.074 58.1983 203.784 60.3285 203.525 62.4546C203.429 63.3565 203.312 64.2612 203.194 65.156C203.175 65.4609 203.122 65.7628 203.037 66.0563C202.977 66.206 202.772 66.3255 202.64 66.465C202.511 66.3415 202.295 66.2403 202.254 66.0846C202.036 65.2466 201.868 64.4017 201.68 63.5596C201.396 62.2462 201.094 60.9454 200.841 59.6378C200.108 56.3028 199.88 52.8769 200.163 49.4742V49.4742ZM190.002 75.3323L190.297 75.4225L190.005 76.079L189.762 76.0018L190.002 75.3323Z" fill="#E1D9CE"/>
<path d="M120.07 93.9427C120.013 93.7238 119.879 93.5328 119.692 93.4049C119.505 93.2769 119.279 93.2206 119.054 93.2461C118.837 93.2475 118.627 93.3257 118.462 93.467C118.297 93.6083 118.187 93.8034 118.152 94.0179C118.078 94.2966 118.04 94.5834 118.039 94.8717C117.986 98.3633 118.754 101.818 120.281 104.959C120.873 106.377 121.795 107.633 122.972 108.623C123.186 108.804 123.44 108.933 123.713 108.999C123.986 109.066 124.27 109.069 124.544 109.007C124.818 108.946 125.074 108.821 125.292 108.644C125.51 108.467 125.684 108.242 125.801 107.987C126.008 107.609 126.159 107.204 126.249 106.783C126.492 105.629 126.667 104.462 126.772 103.288C126.984 100.381 127.073 97.4707 127.255 94.568C127.469 90.9842 127.721 87.4052 128.011 83.8311C128.037 83.5045 128.336 83.1902 128.514 82.8726C128.835 83.0275 129.129 83.2318 129.386 83.4782C129.872 84.0842 130.301 84.7344 130.666 85.4203C131.605 87.3088 132.526 89.1392 133.365 91.1023C134.532 94.0726 135.439 97.1388 136.075 100.266C136.171 100.579 136.154 100.915 136.026 101.216C135.898 101.517 135.667 101.762 135.374 101.909C134.954 102.172 134.571 102.491 134.234 102.855C131.175 105.968 128.683 109.592 126.87 113.562C125.821 115.78 125.169 118.163 124.943 120.605C124.767 122.174 124.988 123.76 125.585 125.221C125.883 125.915 126.414 126.483 127.087 126.824C127.761 127.166 128.533 127.261 129.268 127.091C130.532 126.768 131.662 126.056 132.499 125.056C133.962 123.403 135.093 121.484 135.831 119.403C138.021 113.659 138.703 107.45 137.813 101.367C137.763 101.107 137.801 100.837 137.919 100.6C138.037 100.363 138.23 100.171 138.468 100.054C138.883 99.8143 139.277 99.5399 139.646 99.2339C140.593 98.4156 141.513 97.5605 142.46 96.7422C142.758 96.4887 143.092 96.2806 143.58 95.9401C143.568 96.3657 143.573 96.6175 143.558 96.872C143.481 97.5128 143.45 98.1582 143.464 98.8035C143.529 99.5743 143.679 100.336 143.911 101.073C144.123 101.783 144.432 102.46 144.827 103.086C144.981 103.373 145.236 103.592 145.542 103.702C145.848 103.812 146.184 103.806 146.485 103.683C146.803 103.604 147.082 103.416 147.274 103.151C147.467 102.886 147.559 102.561 147.536 102.235C147.565 101.293 147.515 100.351 147.386 99.4185C147.24 97.8606 146.585 96.394 145.523 95.2456C145.141 94.8949 145.244 94.5474 145.721 94.2082C146.238 93.923 146.733 93.601 147.203 93.2448C148.469 92.2698 149.568 91.0937 150.454 89.7633C150.577 89.5643 150.927 89.4651 151.171 89.3302C151.275 89.5682 151.492 89.8207 151.453 90.0483C151.309 91.0513 151.359 92.0725 151.599 93.0568C151.717 94.1376 152.215 95.1414 153.003 95.8903C153.182 96.0444 153.395 96.1552 153.624 96.2139C153.853 96.2726 154.093 96.2778 154.324 96.2289C154.556 96.1801 154.773 96.0786 154.959 95.9324C155.145 95.7861 155.294 95.599 155.396 95.3855C155.522 95.1535 155.61 94.9026 155.656 94.6425C155.855 93.3124 156.012 91.978 156.232 90.6551C156.322 90.3942 156.455 90.1504 156.626 89.9338C156.806 90.1409 156.985 90.3381 157.167 90.5552C157.167 90.5552 157.167 90.5552 157.178 90.6344C157.444 92.4553 158.082 94.2018 159.053 95.7648C159.549 96.5655 160.166 97.2835 160.884 97.8927C161.267 98.18 161.739 98.3208 162.217 98.2896C162.694 98.2583 163.144 98.0571 163.486 97.7224C163.582 97.591 163.648 97.4402 163.68 97.2806C163.712 97.121 163.708 96.9563 163.67 96.7981C163.548 96.4314 163.111 96.4115 162.785 96.6083C162.636 96.7207 162.463 96.7955 162.279 96.8264C162.095 96.8573 161.906 96.8435 161.729 96.7859C161.551 96.7284 161.39 96.6289 161.259 96.4959C161.129 96.3629 161.032 96.2004 160.977 96.022C160.355 94.8383 159.798 93.6216 159.309 92.3772C158.466 90.3339 157.947 88.1715 157.77 85.9682C157.776 85.8352 157.756 85.7024 157.71 85.5775C157.664 85.4526 157.594 85.3381 157.503 85.2407C157.413 85.1433 157.303 85.065 157.182 85.0103C157.061 84.9557 156.93 84.9258 156.797 84.9224C156.312 84.99 155.964 85.3211 155.834 85.9853C155.417 88.0627 155.024 90.2477 154.584 92.3788C154.431 92.9896 154.245 93.5918 154.027 94.1827L153.839 94.2089C153.749 94.0777 153.679 93.9347 153.628 93.7839C153.561 91.9055 153.277 90.0411 152.784 88.2273C152.644 87.8025 152.514 87.3763 151.983 87.3292C151.751 87.3154 151.519 87.3636 151.312 87.4687C151.105 87.5739 150.93 87.7322 150.804 87.9274C148.998 89.8952 147.337 92.0347 145.08 93.5908C144.862 93.7744 144.597 93.8927 144.315 93.932C144.033 93.9713 143.745 93.93 143.486 93.8128C143.13 93.6545 142.743 93.5773 142.354 93.5867C142.119 93.5826 141.891 93.661 141.708 93.8082C141.526 93.9554 141.401 94.1621 141.355 94.3921C141.242 94.8824 141.613 95.0831 142.023 95.1977C142.241 95.2394 142.463 95.2559 142.686 95.2468L142.591 95.5123C142.512 95.5898 142.427 95.6622 142.339 95.7292C141.732 96.1158 141.147 96.5343 140.585 96.983C139.847 97.6309 139.191 98.3583 138.478 99.0332C138.269 99.1832 138.041 99.3064 137.802 99.3999C137.658 99.1957 137.539 98.9749 137.448 98.7424C137.398 98.3858 137.426 98.0083 137.299 97.6727C136.776 95.6556 136.31 93.6203 135.661 91.6409C134.987 89.1485 133.931 86.7753 132.531 84.6053C131.806 83.5444 130.969 82.5642 130.034 81.6816C128.812 80.5897 127.389 81.1008 126.938 82.7185C126.794 83.3053 126.711 83.9055 126.692 84.5095C126.406 90.3548 126.168 96.1933 125.821 102.037C125.656 103.71 125.382 105.371 124.998 107.008C124.961 107.174 124.885 107.33 124.777 107.462C124.669 107.594 124.533 107.7 124.378 107.771C124.211 107.768 124.047 107.729 123.897 107.656C123.747 107.582 123.615 107.477 123.511 107.346C123.078 106.831 122.697 106.276 122.371 105.688C121.399 103.882 120.734 101.927 120.405 99.9035C120.085 98.2548 119.986 96.5708 120.112 94.8961C120.156 94.5784 120.142 94.2553 120.07 93.9427V93.9427ZM145.128 97.6328C145.623 97.998 146.164 101.446 145.823 101.827C145.377 101.526 144.815 98.2115 145.128 97.6328ZM134.737 118.727C134.118 120.505 133.239 122.183 132.129 123.704C131.496 124.649 130.597 125.386 129.546 125.821C129.291 125.965 129.007 126.052 128.714 126.075C128.422 126.098 128.128 126.056 127.853 125.953C127.579 125.85 127.33 125.687 127.126 125.477C126.921 125.267 126.765 125.014 126.669 124.737C126.65 124.598 126.561 124.469 126.467 124.23C125.849 122.119 125.888 119.871 126.579 117.783C128.025 112.742 130.701 108.14 134.367 104.391C134.79 103.949 135.11 103.419 135.521 102.958C135.678 102.785 136.001 102.568 136.169 102.616C136.276 102.671 136.367 102.753 136.432 102.853C136.497 102.954 136.535 103.07 136.542 103.19C136.815 108.412 136.611 113.62 134.737 118.727Z" fill="#E1D9CE"/>
<path d="M163.278 49.672C162.868 50.5458 162.542 51.4566 162.304 52.3923C162.134 52.9814 162.121 53.6192 161.974 54.2254C161.861 54.4852 161.711 54.7271 161.528 54.9436L161.291 54.906C161.196 54.6745 161.126 54.434 161.08 54.1882C160.917 53.0195 160.873 51.8342 160.74 50.6614C160.744 50.5429 160.723 50.425 160.679 50.3151C160.634 50.2051 160.568 50.1055 160.483 50.0225C160.399 49.9395 160.298 49.8748 160.187 49.8326C160.076 49.7903 159.958 49.7714 159.84 49.7771C159.589 49.765 159.342 49.8481 159.149 50.0096C158.957 50.1712 158.832 50.3994 158.8 50.6488C158.753 50.986 158.733 51.3264 158.74 51.6668C158.67 53.1204 158.971 54.5625 158.427 56.0215C157.958 57.2884 157.635 58.5954 157.186 59.8694C156.737 61.1434 156.166 62.697 155.578 64.1318C155.45 64.4425 154.977 64.8919 154.741 64.8642C154.559 64.8043 154.392 64.7044 154.253 64.5718C154.114 64.4392 154.006 64.2772 153.938 64.0976C153.462 62.8931 153.058 61.6615 152.728 60.4093C152.384 59.397 152.32 58.3105 152.543 57.2648C152.586 57.1495 152.602 57.026 152.591 56.9034C152.58 56.7808 152.541 56.6623 152.478 56.5566C152.415 56.451 152.329 56.3609 152.226 56.2931C152.123 56.2253 152.007 56.1815 151.885 56.165C151.757 56.13 151.623 56.1207 151.491 56.1379C151.36 56.1551 151.233 56.1983 151.118 56.265C151.003 56.3317 150.903 56.4206 150.823 56.5266C150.743 56.6325 150.685 56.7532 150.652 56.8819C150.557 57.2769 150.518 57.6834 150.537 58.0892C150.625 60.4187 151.212 62.7023 152.257 64.786C152.55 65.3349 152.962 65.8121 153.461 66.1833C153.832 66.4636 154.295 66.5948 154.758 66.5509C155.221 66.507 155.65 66.2912 155.962 65.9462C156.339 65.5897 156.643 65.1633 156.858 64.6907C157.447 63.1952 157.972 61.6683 158.476 60.1441C158.669 59.572 158.684 58.9541 158.833 58.3578C158.928 58.1228 159.053 57.9016 159.206 57.7001L159.454 57.6657C159.488 57.9133 159.613 58.1584 159.659 58.4145C159.773 59.2366 159.889 60.0686 160.103 60.8768C160.142 61.1066 160.266 61.3133 160.451 61.4559C160.635 61.5985 160.866 61.6667 161.098 61.6469C161.348 61.6658 161.597 61.6075 161.812 61.4801C162.028 61.3526 162.198 61.162 162.302 60.9342C162.416 60.6686 162.486 60.386 162.508 60.0977C162.659 57.0478 163.555 54.1264 164.078 51.1357C164.081 51.0751 164.101 51.0166 164.135 50.9662C164.285 50.814 164.452 50.5586 164.583 50.5605C164.715 50.5624 164.956 50.7712 165.097 50.9131C165.162 51.0141 165.2 51.131 165.204 51.2515C165.577 52.6441 166.371 53.8876 167.477 54.8121C167.666 54.9922 167.892 55.1295 168.139 55.2147C168.861 55.5096 169.667 55.5296 170.403 55.2709C171.139 55.0121 171.754 54.4926 172.133 53.8105C172.759 52.9359 173.263 51.9873 173.82 51.0616C173.91 50.8835 174.015 50.7136 174.133 50.5536C174.259 50.4173 174.431 50.3322 174.615 50.3149C174.697 50.3424 174.771 50.3874 174.834 50.4467C174.896 50.5061 174.944 50.5783 174.976 50.6584C175.052 50.9017 175.114 51.1494 175.16 51.4001C175.244 51.6947 175.417 51.9561 175.655 52.1488C175.894 52.3415 176.185 52.456 176.491 52.4769C176.793 52.5243 177.102 52.4811 177.378 52.3527C177.655 52.2242 177.888 52.0164 178.046 51.7555C178.745 50.8436 179.199 49.7693 179.369 48.6334C179.41 48.3181 179.489 48.0088 179.604 47.7122C179.644 47.6389 179.701 47.5759 179.77 47.5278C179.838 47.4798 179.917 47.448 179.999 47.435C180.108 47.4198 180.27 47.5689 180.327 47.6822C180.407 47.8724 180.468 48.0702 180.51 48.2726C180.647 48.9302 180.819 49.5804 181.023 50.2204C181.565 51.6493 182.15 53.0925 182.766 54.4707C183.093 55.2402 183.509 55.9685 184.007 56.6403C184.387 57.1099 184.872 57.4848 185.422 57.7357C185.794 57.9259 186.225 57.9692 186.628 57.857C187.031 57.7447 187.378 57.4852 187.599 57.1297C187.655 57.0004 187.681 56.8602 187.675 56.7194C187.67 56.5786 187.632 56.4409 187.566 56.3164C187.453 56.2353 187.322 56.182 187.184 56.1609C187.046 56.1397 186.905 56.1514 186.772 56.1948C185.805 56.5011 185.435 56.381 185.015 55.5408C184.617 54.7598 184.265 53.9557 183.963 53.1329C182.952 50.2952 181.962 47.4646 181.019 44.6073C180.857 44.0687 180.823 43.4995 180.919 42.9453C181.151 41.4895 181.526 40.0539 181.758 38.5981C182.485 33.7265 182.654 28.7879 182.263 23.8779C182.088 21.1657 181.603 18.4825 180.816 15.8809C180.601 15.1531 180.324 14.4451 179.987 13.7651C179.47 13.1 177.998 12.6083 176.841 15.0309C176.738 15.4492 176.623 15.8589 176.53 16.2758C175.942 18.9353 175.724 21.6633 175.881 24.3826C176.012 27.1309 176.193 29.8822 176.463 32.6211C176.622 34.2239 176.91 35.8112 177.326 37.3675C177.61 38.8966 178.038 40.3954 178.605 41.8438C179.04 42.7697 179.184 43.8057 179.019 44.8152C178.635 46.4412 178.132 48.0367 177.513 49.5884C177.455 49.7579 177.148 49.8714 176.955 50.0093C176.832 49.8257 176.718 49.6361 176.614 49.441C176.605 49.3816 176.594 49.3023 176.583 49.2231C176.757 48.0782 176.889 46.919 177.112 45.7672C177.289 44.8641 177.569 43.977 177.819 43.0841C177.94 42.6532 177.936 42.26 177.49 42.0293C177.284 41.94 177.053 41.9229 176.836 41.9806C176.619 42.0383 176.427 42.1676 176.292 42.3475C176.174 42.4911 176.063 42.6413 175.961 42.7975C175.327 43.9138 174.919 45.1439 174.759 46.4178C174.684 47.0212 174.49 47.6039 174.19 48.1327C173.095 49.84 171.92 51.4777 170.743 53.1762C169.897 54.3541 169.217 54.3983 168.258 53.3908C168.159 53.2966 168.073 53.1898 168.002 53.0731C167.478 52.1364 166.973 51.2677 166.455 50.3706C166.283 50.0218 166.081 49.6884 165.852 49.3743C165.717 49.1311 165.514 48.9333 165.267 48.8061C165.02 48.6789 164.741 48.6281 164.465 48.66C164.189 48.6919 163.929 48.8052 163.718 48.9854C163.506 49.1656 163.353 49.4046 163.278 49.672ZM177.567 25.6826C177.455 23.6289 177.448 21.5709 177.546 19.5165C177.643 18.1358 177.822 16.7622 178.084 15.4031C178.124 15.2545 178.197 15.1171 178.298 15.0015C178.399 14.8858 178.526 14.7951 178.668 14.7362C178.846 14.7114 179.129 15.0052 179.362 15.1545C180.144 17.9663 180.68 20.8411 180.962 23.7459C181.222 26.8738 181.241 30.0171 181.019 33.1479C180.846 35.3832 180.63 37.6041 180.394 39.8279C180.362 40.1049 180.085 40.3656 179.932 40.6394C179.737 40.4242 179.582 40.1755 179.476 39.9052C179.072 37.7301 178.64 35.569 178.347 33.3887C178.01 30.8207 177.733 28.2543 177.567 25.6826Z" fill="#E1D9CE"/>
<path d="M127.688 54.6772C128.633 54.2124 129.573 53.7081 130.522 53.2731C131.471 52.838 132.589 52.1674 133.657 51.7159C134.25 51.4852 134.882 51.3699 135.518 51.376C135.699 51.3912 135.873 51.4493 136.027 51.5455C136.181 51.6417 136.31 51.7733 136.403 51.9293C136.832 52.9802 137.166 54.0746 137.51 55.1676C137.666 55.6405 138.345 58.4841 138.413 58.7573C138.622 59.6773 138.736 60.6408 139.003 61.5426C139.27 62.4444 139.21 62.5234 138.446 63.0538C137.792 63.5037 137.166 63.9921 136.57 64.5165C136.474 64.5836 136.395 64.6716 136.339 64.7737C136.282 64.8759 136.25 64.9896 136.243 65.1062C136.237 65.2228 136.258 65.3392 136.303 65.4468C136.349 65.5543 136.418 65.6501 136.506 65.7268C136.687 65.8742 136.917 65.9467 137.149 65.9294C137.382 65.9121 137.599 65.8062 137.755 65.6337C137.93 65.4515 138.092 65.2569 138.24 65.0514C138.442 64.7721 138.661 64.5056 138.896 64.2533C139.34 63.8179 139.72 63.9366 139.879 64.5C140.368 66.1988 140.8 67.9257 141.386 69.591C142.43 72.5957 143.59 75.564 144.654 78.566C144.813 79.1361 144.928 79.7176 144.997 80.3053C145.019 80.5988 145.093 80.886 145.216 81.1532C145.284 81.2569 145.376 81.3422 145.485 81.4011C145.593 81.4601 145.715 81.4908 145.839 81.4906C145.968 81.4541 146.088 81.392 146.193 81.3081C146.297 81.2242 146.384 81.1201 146.447 81.002C146.542 80.7974 146.56 80.5655 146.498 80.3488C146.271 79.3708 146.034 78.3941 145.747 77.4243C145.187 75.574 144.578 73.7404 143.968 71.8969C143.069 68.9931 142.15 66.0921 141.271 63.1855C141.193 62.9835 141.186 62.7605 141.253 62.5543C141.32 62.3481 141.456 62.1713 141.639 62.054L144.195 60.113C145.394 59.2192 146.614 58.3425 147.862 57.4419C148.22 57.1801 148.495 56.8388 148.2 56.3852C147.904 55.9316 147.461 56.0842 147.05 56.3231C146.958 56.3804 146.869 56.4434 146.784 56.5117L141.477 60.6732C140.995 61.0533 140.585 60.9387 140.427 60.3852C140.185 59.2275 139.981 58.0544 139.728 56.8881C139.405 55.4388 139.047 53.954 138.73 52.5443C138.57 51.8296 138.449 51.1093 138.309 50.3918C138.084 49.2822 137.849 48.1741 137.643 47.0618C137.438 45.9494 137.269 44.9532 137.062 43.9017C136.993 43.69 136.989 43.4623 137.051 43.2484C137.113 43.0345 137.238 42.8442 137.41 42.7023C138.362 41.9236 139.291 41.1279 140.244 40.3591C144.056 37.2841 147.835 34.1835 151.708 31.1807C153.598 29.614 155.687 28.3047 157.92 27.2869C158.875 26.8915 159.847 26.6249 160.81 26.2889C161.254 26.1364 161.601 25.876 161.491 25.3763C161.381 24.8767 160.952 24.7649 160.419 24.9299C159.452 25.2361 158.566 25.5413 157.658 25.91C155.547 26.8357 153.558 28.018 151.737 29.43C148.899 31.528 146.106 33.6804 143.357 35.8872C141.379 37.4852 139.521 39.228 137.592 40.8899C137.42 41.035 137.082 41.2134 136.942 41.152C136.843 41.0845 136.761 40.9958 136.701 40.8923C136.641 40.7888 136.605 40.6732 136.596 40.554C136.549 39.7831 136.561 38.994 136.553 38.2176C136.537 38.0975 136.548 37.9753 136.584 37.8599C136.918 36.8769 136.973 35.8211 136.745 34.8086C136.75 34.6782 136.727 34.5483 136.677 34.4278C136.628 34.3073 136.552 34.1991 136.456 34.1106C136.36 34.0222 136.246 33.9556 136.122 33.9155C135.998 33.8755 135.867 33.8629 135.737 33.8786C135.475 33.9152 135.237 34.0546 135.077 34.2662C134.917 34.4778 134.848 34.7443 134.885 35.007C134.951 35.4824 134.897 35.9644 134.933 36.444C135.054 38.2546 135.174 40.0554 135.313 41.8533C135.364 42.0867 135.35 42.3295 135.273 42.5556C135.196 42.7816 135.058 42.9823 134.876 43.1359C132.301 45.2018 129.941 47.5227 127.833 50.0631C127.131 50.9654 126.49 51.9148 125.917 52.9045C125.764 53.1775 125.709 53.4947 125.761 53.8034C125.813 54.1121 125.969 54.3937 126.204 54.6011C126.413 54.7654 126.668 54.8609 126.934 54.8745C127.2 54.8881 127.463 54.8192 127.688 54.6772ZM128.863 51.1515C129.825 50.0787 130.822 49.0513 131.818 48.004C132.813 46.9568 133.809 45.9195 134.818 44.9006C134.899 44.8221 134.996 44.7614 135.102 44.7223C135.207 44.6832 135.32 44.6667 135.433 44.6737C135.523 44.729 135.598 44.8056 135.651 44.8969C135.704 44.9881 135.734 45.0911 135.738 45.1967C135.718 46.4009 135.892 47.6005 136.253 48.7496C136.533 49.5991 136.232 49.7621 135.3 49.7404C134.08 49.6679 132.866 49.9599 131.813 50.5793C130.553 51.3201 129.317 52.0879 128.088 52.8344C127.968 52.8954 127.844 52.9465 127.716 52.9873L127.61 52.8808C128.012 52.2897 128.392 51.6815 128.863 51.1515Z" fill="#E1D9CE"/>
<path d="M151.111 53.3649C151.798 53.0775 152.185 52.4481 151.927 51.9692C151.668 51.4902 151.106 51.3666 150.447 51.64C149.788 51.9134 149.488 52.4399 149.687 52.9271C149.746 53.0547 149.831 53.1685 149.937 53.2611C150.043 53.3536 150.167 53.4228 150.301 53.4641C150.436 53.5054 150.577 53.5179 150.717 53.5009C150.856 53.4838 150.991 53.4374 151.111 53.3649Z" fill="#E1D9CE"/>
<path d="M174.173 151.573C173.149 149.151 172.114 146.721 171.195 144.254C169.856 140.654 168.585 137.035 167.332 133.403C166.928 132.237 166.706 131.006 166.311 129.84C165.995 128.874 165.946 128.881 166.796 128.247C166.896 128.165 166.975 128.061 167.029 127.943C167.082 127.826 167.108 127.697 167.106 127.568C167.089 127.449 166.695 127.302 166.474 127.313C165.77 127.33 165.585 127.235 165.486 126.592C165.295 125.226 165.104 123.849 164.912 122.472C164.466 118.94 164.386 115.372 164.671 111.824C164.731 111.338 164.83 110.859 164.966 110.389L165.224 110.353L165.984 111.752C166.169 111.484 166.387 111.312 166.377 111.162C166.331 110.242 166.23 109.326 166.075 108.417C166.023 108.162 165.88 107.935 165.672 107.778C165.464 107.621 165.206 107.545 164.947 107.565C164.698 107.578 164.463 107.684 164.287 107.861C164.112 108.039 164.01 108.275 164 108.525C163.628 110.013 163.335 111.519 163.124 113.039C162.756 117.018 162.941 121.028 163.673 124.957C163.8 125.868 164.045 126.763 164.27 127.65C164.335 128.116 164.187 128.358 163.772 128.568C160.327 130.293 157.15 132.507 154.338 135.141C154.161 135.317 153.765 135.524 153.625 135.462C153.52 135.38 153.432 135.276 153.367 135.159C153.302 135.041 153.261 134.912 153.247 134.778C153.184 134.322 153.218 133.843 153.126 133.402C152.732 131.437 152.18 129.576 151.958 127.617C151.663 124.993 151.616 122.334 151.47 119.689C151.476 119.439 151.388 119.196 151.223 119.008C151.059 118.819 150.83 118.7 150.581 118.672C150.333 118.662 150.09 118.744 149.9 118.903C149.709 119.062 149.584 119.286 149.55 119.532C149.495 119.72 149.464 119.915 149.459 120.11C149.418 121.174 149.442 122.24 149.529 123.301C149.863 125.698 150.197 128.095 150.589 130.474C150.964 132.521 151.507 134.536 151.963 136.572C151.997 136.677 152.009 136.787 151.998 136.896C151.987 137.006 151.954 137.111 151.9 137.207C151.434 137.706 150.901 138.154 150.381 138.63L150.312 138.569C150.544 138.204 150.796 137.835 151.006 137.463C151.027 137.405 151.034 137.344 151.026 137.283C151.017 137.223 150.994 137.165 150.958 137.116C150.879 137.056 150.692 137.092 150.582 137.168C150.466 137.22 150.366 137.3 150.291 137.401C149.56 138.391 148.829 139.371 148.119 140.369C147.892 140.693 147.736 141.098 148.099 141.381C148.461 141.664 148.863 141.507 149.236 141.283C149.355 141.203 149.467 141.113 149.572 141.014C150.277 140.351 150.962 139.68 151.689 139.034C151.868 138.867 152.205 138.679 152.375 138.736C152.484 138.8 152.579 138.886 152.652 138.989C152.726 139.092 152.777 139.209 152.801 139.333C152.937 139.799 152.939 140.324 153.093 140.777C154.996 145.695 156.917 150.6 158.857 155.492C159.141 156.155 159.499 156.782 159.925 157.363C160.139 157.658 160.426 157.893 160.757 158.045C160.945 158.14 161.161 158.16 161.363 158.102C161.564 158.044 161.737 157.912 161.845 157.732C161.909 157.661 161.957 157.577 161.985 157.486C162.013 157.395 162.021 157.299 162.008 157.204C161.995 157.11 161.961 157.019 161.909 156.939C161.857 156.859 161.788 156.792 161.707 156.741C161.005 156.271 160.502 155.557 160.297 154.737C157.887 149.176 155.889 143.457 154.036 137.687C153.956 137.506 153.94 137.302 153.993 137.111C154.045 136.92 154.162 136.752 154.324 136.637C155.233 135.915 156.196 135.145 157.159 134.446C159.333 132.871 161.532 131.333 163.73 129.795C164.374 129.342 164.697 129.489 164.88 130.221C165.073 131.273 165.325 132.313 165.637 133.336C166.688 136.39 167.807 139.425 168.926 142.46C170.206 146.145 171.719 149.745 173.456 153.238C173.68 153.633 174.033 153.94 174.455 154.108C174.624 154.116 174.792 154.084 174.947 154.017C175.102 153.95 175.24 153.849 175.351 153.721C175.461 153.575 175.272 153.157 175.148 152.921C174.794 152.494 174.468 152.043 174.173 151.573V151.573Z" fill="#E1D9CE"/>
<path d="M171.437 127.42C171.527 127.055 171.697 126.714 171.934 126.422C172.032 126.286 172.162 126.177 172.313 126.105C172.464 126.033 172.63 126 172.797 126.009C172.964 126.018 173.126 126.069 173.269 126.156C173.411 126.244 173.529 126.366 173.612 126.511C173.894 127.136 173.96 127.838 173.799 128.504C173.733 129.056 173.598 129.597 173.397 130.115C173.251 130.514 173.198 130.941 173.243 131.364C173.288 131.787 173.429 132.193 173.656 132.553C173.867 133.111 174.24 133.593 174.727 133.938C174.872 134.058 175.04 134.145 175.221 134.196C175.402 134.247 175.592 134.26 175.778 134.234C175.964 134.209 176.143 134.144 176.303 134.046C176.463 133.947 176.601 133.817 176.708 133.663C177.605 132.738 178.353 131.68 178.926 130.527C179.516 129.324 180.093 128.103 180.662 126.893C180.849 126.493 180.889 126.346 180.765 126.182C180.771 126.36 180.729 126.536 180.644 126.693C180.24 127.486 179.857 128.287 179.466 129.109C178.799 130.725 177.867 132.22 176.71 133.531C176.602 133.694 176.462 133.832 176.297 133.936C176.132 134.041 175.947 134.108 175.754 134.135C175.561 134.162 175.364 134.147 175.177 134.092C174.99 134.037 174.817 133.943 174.669 133.815C174.104 133.338 173.695 132.703 173.493 131.992C173.292 131.281 173.307 130.525 173.538 129.823C174.031 128.737 174.087 127.504 173.695 126.378C173.61 126.21 173.487 126.063 173.337 125.949C173.186 125.835 173.011 125.757 172.826 125.722C172.432 125.76 172.067 125.948 171.808 126.247C171.583 126.569 171.428 126.935 171.352 127.32C170.972 128.64 170.967 130.039 171.339 131.361C171.369 131.579 171.469 131.787 171.529 132.001C171.104 130.507 171.072 128.929 171.437 127.42Z" fill="#E1D9CE"/>
<path d="M179.553 122.483C179.663 122.22 179.839 121.99 180.066 121.816C180.154 121.726 180.261 121.658 180.38 121.617C180.498 121.577 180.625 121.564 180.749 121.581C180.873 121.599 180.992 121.645 181.095 121.716C181.198 121.787 181.283 121.882 181.343 121.992C181.521 122.26 181.658 122.555 181.747 122.865C181.681 122.496 181.58 122.135 181.445 121.786C181.375 121.638 181.267 121.512 181.132 121.42C180.997 121.328 180.84 121.273 180.677 121.262C180.514 121.251 180.351 121.283 180.205 121.356C180.059 121.429 179.934 121.539 179.845 121.675C179.607 121.989 179.453 122.358 179.398 122.747C179.363 123.152 179.348 123.558 179.356 123.965C179.321 124.214 179.341 124.468 179.415 124.709C179.488 124.95 179.614 125.172 179.782 125.359C179.649 125.205 179.558 125.02 179.515 124.821C179.337 124.05 179.35 123.248 179.553 122.483Z" fill="#E1D9CE"/>
<path d="M184.389 128.353C184.316 128.07 184.224 127.793 184.112 127.523C184.41 128.64 184.616 129.78 184.728 130.931C184.819 132.241 184.93 133.548 185.129 134.832C185.077 134.456 185.023 134.07 184.971 133.693C184.866 131.905 184.672 130.122 184.389 128.353Z" fill="#E1D9CE"/>
<path d="M192.933 124.599C192.829 125.158 192.714 125.71 192.65 126.264C192.286 129.162 191.95 132.045 191.596 134.942C191.394 136.606 191.211 138.267 190.977 139.925C190.907 140.361 190.772 140.785 190.577 141.182C190.451 141.546 190.194 141.851 189.855 142.034C189.516 142.218 189.12 142.268 188.746 142.174C188.935 142.233 189.133 142.254 189.33 142.236C189.526 142.219 189.718 142.162 189.892 142.07C190.067 141.978 190.222 141.853 190.348 141.701C190.475 141.549 190.57 141.374 190.628 141.185C190.923 140.516 191.12 139.809 191.214 139.084C191.767 134.504 192.282 129.929 192.824 125.341C192.874 125.092 192.948 124.848 193.046 124.613L193.115 124.604L192.933 124.599Z" fill="#E1D9CE"/>
<path d="M181.921 126.869C181.739 127.379 181.515 127.874 181.344 128.383C180.766 130.13 179.935 131.784 178.877 133.29C180.175 131.453 181.157 129.412 181.782 127.252C181.858 127.013 181.974 126.789 182.124 126.588C182.029 126.659 181.958 126.757 181.921 126.869V126.869Z" fill="#E1D9CE"/>
<path d="M185.445 136.444C185.655 137.402 185.958 138.337 186.348 139.236C186.477 139.511 186.608 139.796 186.747 140.069C186.665 139.912 186.592 139.75 186.528 139.585C186.109 138.559 185.747 137.511 185.445 136.444V136.444Z" fill="#E1D9CE"/>
<path d="M198.064 125.268C199.074 124.313 199.889 123.171 200.463 121.905C201.123 120.621 201.718 119.317 202.358 118.036C202.529 117.698 202.731 117.376 202.961 117.074C202.81 117.063 202.658 117.092 202.522 117.159C202.385 117.226 202.27 117.328 202.186 117.455C202.049 117.642 201.938 117.848 201.857 118.066C201.239 119.424 200.698 120.832 199.972 122.145C199.362 123.184 198.665 124.17 197.888 125.09C197.761 125.279 197.587 125.43 197.382 125.529C197.178 125.629 196.951 125.672 196.725 125.656C196.963 125.705 197.209 125.696 197.443 125.628C197.676 125.56 197.889 125.437 198.064 125.268V125.268Z" fill="#E1D9CE"/>
<path d="M189.336 140.466C189.714 139.792 189.931 139.04 189.969 138.268C190.334 135.814 190.628 133.35 190.963 130.901C191.291 128.836 191.667 126.673 192.041 124.571C192.257 123.473 192.382 122.358 192.415 121.238C192.479 120.299 192.633 119.368 192.876 118.458C192.924 118.228 193.028 118.014 193.179 117.834C193.33 117.655 193.524 117.515 193.742 117.429C194.266 117.204 194.614 117.307 194.891 117.703C194.806 117.559 194.688 117.439 194.545 117.353C194.403 117.267 194.241 117.218 194.075 117.211C193.851 117.197 193.628 117.252 193.435 117.367C193.242 117.482 193.088 117.652 192.994 117.856C192.833 118.104 192.721 118.38 192.663 118.669C192.538 119.515 192.476 120.371 192.393 121.231C192.311 122.09 192.297 122.789 192.163 123.565C192.029 124.341 191.694 125.276 191.563 126.142C191.144 128.795 190.777 131.451 190.42 134.106C190.167 135.918 189.987 137.74 189.714 139.555C189.674 139.844 189.377 140.107 189.194 140.385C189.011 140.229 188.79 140.098 188.626 139.929C188.682 140.076 188.778 140.205 188.904 140.3C189.03 140.395 189.179 140.452 189.336 140.466V140.466Z" fill="#E1D9CE"/>
<path d="M172.948 134.509C172.37 133.825 171.92 133.043 171.617 132.2C171.899 133.053 172.352 133.838 172.948 134.509V134.509Z" fill="#E1D9CE"/>
<path d="M182.919 125.044C183.537 125.069 184.141 125.237 184.683 125.535C185.15 125.787 185.526 126.18 185.758 126.658C186.038 127.249 186.253 127.869 186.399 128.507C186.552 129.606 186.707 130.716 186.791 131.825C186.906 132.657 186.953 133.498 187.079 134.329C187.207 135.322 187.388 136.308 187.621 137.282C187.797 137.877 188.006 138.461 188.248 139.032C188.221 138.834 188.193 138.636 188.096 138.448C187.371 136.252 186.932 133.972 186.788 131.663C186.766 130.078 186.513 128.505 186.037 126.992C185.83 126.322 185.4 125.742 184.818 125.35C184.236 124.957 183.538 124.774 182.839 124.833C182.325 124.844 182.068 124.738 181.95 124.472C182.034 124.854 182.247 124.935 182.919 125.044Z" fill="#E1D9CE"/>
<path d="M172.379 129.187C172.352 129.28 172.354 129.38 172.387 129.471C172.42 129.563 172.481 129.642 172.561 129.696C172.523 129.582 172.531 129.458 172.584 129.35L172.415 129.373L172.379 129.187Z" fill="#E1D9CE"/>
<path d="M194.301 126.155C194.552 126.46 194.863 126.712 195.215 126.893C195.566 127.075 195.951 127.184 196.346 127.213C195.568 127.09 194.85 126.719 194.301 126.155V126.155Z" fill="#E1D9CE"/>
<path d="M193.903 120.395L193.922 120.534C193.931 120.603 194.04 120.658 194.198 120.778C194.16 120.5 194.079 120.36 194.03 120.226L193.903 120.395Z" fill="#E1D9CE"/>
<path d="M282.13 74.8848C282.052 74.8225 281.963 74.7766 281.868 74.75C281.772 74.7234 281.672 74.7166 281.573 74.7301C281.384 74.7597 281.204 74.8299 281.044 74.9358C280.885 75.0416 280.75 75.1806 280.649 75.3434C280.383 75.7369 280.037 76.0705 279.634 76.3226C277.268 77.6011 274.885 78.8315 272.502 80.0618C271.909 80.3765 271.324 80.67 270.728 80.9549L266.496 82.9777C264.075 84.1528 261.678 85.3548 259.243 86.5015C256.162 87.9401 253.063 89.3206 249.968 90.7309L249.57 90.9176L239.688 95.504C237.251 96.6408 234.815 97.7776 232.392 98.9428C229.97 100.108 227.526 101.337 225.1 102.553C223.59 103.308 222.092 104.082 220.605 104.855C219.794 105.27 219.008 105.713 218.227 106.195C217.223 106.749 216.22 107.302 215.231 107.884C214.242 108.466 213.323 109.049 212.378 109.655C211.09 110.507 209.808 111.359 208.533 112.209C208.086 112.498 207.654 112.811 207.24 113.147C206.212 114.027 205.207 114.934 204.201 115.831C203.756 116.234 203.355 116.682 203.004 117.169C202.774 117.47 202.572 117.793 202.401 118.131C201.762 119.412 201.166 120.716 200.507 122C199.933 123.265 199.118 124.408 198.107 125.362C197.935 125.535 197.723 125.662 197.49 125.733C197.257 125.804 197.01 125.817 196.771 125.771V125.771C196.714 125.765 196.658 125.752 196.604 125.733C196.435 125.668 196.276 125.578 196.133 125.466C195.533 124.934 195.089 124.249 194.847 123.484C194.624 122.931 194.61 122.315 194.808 121.753C195.026 120.999 195.189 120.231 195.296 119.454C195.372 118.882 195.242 118.302 194.927 117.819V117.819C194.644 117.384 194.302 117.32 193.778 117.545C193.56 117.631 193.367 117.771 193.215 117.95C193.064 118.13 192.96 118.344 192.912 118.574C192.669 119.484 192.515 120.415 192.451 121.354C192.418 122.474 192.293 123.589 192.077 124.688C191.699 126.759 191.321 128.902 190.999 131.017C190.624 133.472 190.331 135.936 190.006 138.384C189.967 139.156 189.751 139.908 189.373 140.582C189.216 140.568 189.066 140.511 188.94 140.416C188.814 140.321 188.718 140.192 188.662 140.045L188.303 139.207C188.061 138.636 187.851 138.051 187.675 137.456C187.442 136.482 187.261 135.496 187.133 134.503C187.017 133.671 186.901 132.839 186.845 131.999C186.692 130.899 186.646 129.775 186.454 128.681C186.307 128.043 186.092 127.423 185.813 126.832C185.581 126.354 185.205 125.961 184.738 125.709C184.195 125.411 183.591 125.243 182.973 125.218C182.307 125.149 182.094 125.068 182.012 124.695C181.974 124.519 181.949 124.341 181.937 124.161C181.93 123.779 181.877 123.4 181.78 123.032C181.691 122.722 181.555 122.427 181.376 122.159C181.316 122.049 181.231 121.954 181.128 121.883C181.025 121.812 180.906 121.766 180.782 121.748C180.658 121.731 180.531 121.744 180.413 121.784C180.294 121.825 180.187 121.893 180.1 121.983C179.873 122.157 179.696 122.387 179.587 122.65C179.387 123.405 179.373 124.197 179.544 124.958C179.587 125.157 179.678 125.342 179.811 125.497C180.014 125.719 180.238 125.921 180.481 126.1C180.604 126.19 180.715 126.297 180.808 126.418C180.932 126.582 180.852 126.735 180.705 127.129C180.136 128.339 179.559 129.56 178.969 130.763C178.396 131.917 177.648 132.975 176.751 133.899C176.643 134.053 176.505 134.184 176.345 134.282C176.185 134.381 176.007 134.445 175.82 134.471C175.634 134.497 175.445 134.484 175.264 134.433C175.083 134.382 174.915 134.294 174.77 134.175C174.283 133.83 173.91 133.347 173.698 132.789C173.472 132.43 173.331 132.023 173.286 131.6C173.241 131.178 173.294 130.751 173.44 130.351C173.641 129.834 173.776 129.292 173.841 128.741C174.003 128.074 173.937 127.373 173.655 126.747C173.572 126.602 173.454 126.48 173.311 126.393C173.169 126.305 173.007 126.254 172.84 126.245C172.673 126.236 172.507 126.27 172.356 126.342C172.205 126.414 172.074 126.522 171.976 126.658C171.74 126.95 171.57 127.291 171.479 127.656C171.116 129.162 171.147 130.737 171.571 132.227C171.587 132.312 171.599 132.398 171.606 132.485C171.909 133.328 172.359 134.109 172.937 134.793C172.946 134.853 173.013 134.904 173.06 134.948C173.504 135.457 174.107 135.801 174.771 135.925C175.435 136.049 176.121 135.945 176.719 135.63C177.478 135.202 178.128 134.603 178.616 133.881C178.711 133.767 178.775 133.647 178.86 133.534C179.919 132.028 180.75 130.375 181.327 128.627C181.499 128.119 181.723 127.623 181.904 127.113C181.942 127.001 182.013 126.903 182.107 126.833C182.215 126.78 182.336 126.763 182.454 126.784C182.803 126.746 183.156 126.826 183.454 127.011C183.753 127.197 183.98 127.477 184.101 127.807V127.807C184.213 128.077 184.305 128.354 184.378 128.637C184.671 130.404 184.875 132.186 184.99 133.974C185.042 134.35 185.096 134.736 185.148 135.113C185.176 135.569 185.239 136.023 185.337 136.469C185.345 136.559 185.357 136.648 185.374 136.737C185.677 137.803 186.038 138.852 186.458 139.877C186.522 140.043 186.595 140.205 186.676 140.362C186.745 140.507 186.822 140.648 186.907 140.784C186.907 140.784 186.921 140.883 186.928 140.933C187.056 141.127 187.182 141.311 187.329 141.493C187.485 141.683 187.655 141.862 187.837 142.028C188.055 142.216 188.312 142.353 188.59 142.428C188.964 142.522 189.359 142.472 189.698 142.288C190.037 142.105 190.295 141.8 190.42 141.436C190.615 141.039 190.75 140.615 190.821 140.179C191.054 138.521 191.237 136.86 191.44 135.196C191.794 132.299 192.129 129.416 192.493 126.518C192.557 125.964 192.672 125.412 192.776 124.853L192.925 124.832C193.05 125.006 193.177 125.191 193.293 125.376C193.52 125.752 193.799 126.094 194.121 126.392C194.751 126.906 195.534 127.195 196.346 127.213L196.494 127.192C196.659 127.207 196.825 127.207 196.989 127.194C197.611 127.134 198.211 126.93 198.74 126.597C199.268 126.264 199.712 125.811 200.034 125.276C201.234 123.723 202.168 121.983 202.8 120.125C203.072 119.35 203.395 118.593 203.767 117.86C204.674 116.41 205.852 115.149 207.238 114.146C208.537 113.107 209.893 112.111 211.278 111.181C212.941 110.071 214.646 109.046 216.358 108C217.354 107.397 218.387 106.839 219.41 106.283C221.128 105.347 222.848 104.431 224.582 103.544L225.679 102.937C227.707 101.917 229.722 100.869 231.764 99.8682C234.39 98.5737 237.042 97.316 239.693 96.0485C241.7 95.0925 243.71 94.1564 245.726 93.1892L254.989 88.9414C255.615 88.6523 256.245 88.393 256.89 88.0912L266.092 83.7004C268.231 82.6756 270.372 81.6608 272.498 80.6176C274.986 79.4131 277.461 78.1901 279.921 76.9289C280.564 76.5741 281.183 76.1776 281.775 75.742C281.917 75.6516 282.032 75.5239 282.107 75.3726C282.124 75.2086 282.2 74.9558 282.13 74.8848ZM172.715 128.918C172.698 129.069 172.653 129.215 172.583 129.35C172.531 129.458 172.523 129.582 172.561 129.696C172.481 129.642 172.42 129.563 172.387 129.471C172.354 129.38 172.352 129.28 172.379 129.187C172.439 128.995 172.486 128.8 172.52 128.602C172.568 128.627 172.61 128.662 172.643 128.704C172.677 128.746 172.702 128.795 172.715 128.847C172.71 128.87 172.71 128.894 172.715 128.918V128.918ZM193.892 120.538C193.869 120.495 193.862 120.446 193.873 120.399L193.971 120.234C193.99 120.373 194.011 120.521 194.139 120.786C194.01 120.663 193.921 120.604 193.892 120.538V120.538Z" fill="#E1D9CE"/>
<path d="M200.701 167.487C201.454 167.445 202.178 167.181 202.781 166.728C203.384 166.275 203.84 165.654 204.09 164.942C204.341 164.231 204.375 163.461 204.189 162.73C204.003 161.999 203.605 161.34 203.044 160.835C202.484 160.33 201.786 160.003 201.04 159.893C200.294 159.784 199.532 159.899 198.85 160.222C198.169 160.545 197.598 161.063 197.21 161.71C196.823 162.357 196.635 163.105 196.672 163.858C196.696 164.362 196.82 164.855 197.036 165.311C197.252 165.766 197.556 166.174 197.931 166.512C198.305 166.849 198.743 167.109 199.218 167.276C199.694 167.444 200.198 167.515 200.701 167.487V167.487Z" fill="#E1D9CE"/>
<path d="M192.505 194.051L193.114 191.604C190.694 190.759 188.543 191.624 187.715 193.658C186.761 196.012 187.51 198.058 189.778 198.974C191.041 199.485 192.518 199.653 195.967 197.739C197.384 196.966 198.356 196.7 199.222 197.043C199.406 197.087 199.579 197.17 199.727 197.288C199.875 197.406 199.995 197.555 200.079 197.725C200.163 197.895 200.207 198.081 200.21 198.271C200.213 198.46 200.174 198.648 200.095 198.82C199.817 199.505 199.074 199.82 198.006 199.474L197.332 201.89C199.59 202.515 201.357 201.794 202.103 199.894C203.066 197.528 202.348 195.639 200.09 194.722C198.11 193.917 196.506 194.504 193.88 195.95C192.521 196.704 191.437 196.966 190.474 196.575C190.289 196.511 190.121 196.407 189.98 196.271C189.84 196.135 189.731 195.97 189.661 195.787C189.592 195.604 189.563 195.408 189.577 195.213C189.591 195.018 189.647 194.829 189.743 194.658C190.095 193.852 191.016 193.582 192.505 194.051Z" fill="#E1D9CE"/>
<path d="M194.713 213.755L196.637 210.892L183.969 202.357L182.689 204.262L192.592 210.92L192.566 210.954L181.342 206.257L180.641 207.314L189.211 215.934L189.187 215.978L179.293 209.309L178.012 211.203L190.69 219.737L192.613 216.874L186.241 210.34L186.267 210.306L194.713 213.755Z" fill="#E1D9CE"/>
<path d="M183.395 227.82L174.769 214.886L172.947 216.664L174.975 219.411L172.911 221.414L170.216 219.316L168.442 221.077L181.104 230.077L183.395 227.82ZM180.09 226.786L174.77 222.801L176.292 221.327L180.076 226.757L180.09 226.786Z" fill="#E1D9CE"/>
<path d="M163.563 237.668C165.321 240.362 167.268 240.636 169.655 239.072L172.83 237.004L164.496 224.211L162.292 225.639L165.709 230.888C165.326 231.126 164.961 231.393 164.618 231.686L159.599 227.397L157.289 228.859L162.974 233.439C162.24 234.622 162.443 236.007 163.563 237.668ZM166.062 233.282L166.894 232.732L169.463 236.675L168.711 237.154C167.426 237.999 166.776 237.756 165.771 236.271C164.767 234.785 164.85 234.006 165.977 233.253L166.062 233.282Z" fill="#E1D9CE"/>
<path d="M152.312 247.867L159.42 244.899L158.541 242.79L156.194 243.773L151.183 231.779L148.759 232.793L153.781 244.785L151.433 245.758L152.312 247.867Z" fill="#E1D9CE"/>
<path d="M137.989 251.81L145.11 250.092L141.527 235.234L138.978 235.851L140.561 242.436L137.151 243.254L137.683 245.482L141.093 244.664L142.018 248.482L137.456 249.582L137.989 251.81Z" fill="#E1D9CE"/>
<path d="M129.558 252.822L128.867 237.562L122.124 237.864L122.231 240.151L126.354 239.961L126.94 252.944L129.558 252.822Z" fill="#E1D9CE"/>
<path d="M114.05 237.231L113.374 243.545L109.273 252.092L111.927 252.369L114.287 246.77L114.328 246.774L115.546 252.764L118.19 253.042L115.988 243.827L116.664 237.514L114.05 237.231Z" fill="#E1D9CE"/>
<path d="M105.985 235.8L98.9698 233.707L98.3143 235.888L102.814 237.241L101.524 241.54L98.2891 240.567L97.6336 242.748L100.869 243.721L99.738 247.493L95.5239 246.232L94.8684 248.413L101.591 250.435L105.985 235.8Z" fill="#E1D9CE"/>
<path d="M86.2185 227.617L84.9639 234.779C83.5825 234.719 82.4692 235.57 81.5354 237.275C80.0446 240.128 80.7536 241.958 83.2817 243.292L86.6357 245.046L93.7494 231.526L91.4189 230.306L88.5056 235.85C88.1089 235.63 87.6976 235.438 87.2744 235.275L88.5746 228.804L86.2185 227.617ZM85.3187 241.968L84.5339 241.553C83.1717 240.834 83.0427 240.125 83.8629 238.546C84.6832 236.968 85.3927 236.698 86.6236 237.344L87.5058 237.807L85.3187 241.968Z" fill="#E1D9CE"/>
<path d="M72.0834 216.086L62.8681 225.244L61.0814 223.433L59.4591 225.052L64.883 230.507L66.5066 228.897L64.7212 227.096L73.9378 217.948L72.0834 216.086Z" fill="#E1D9CE"/>
<path d="M68.315 212.007L66.8175 209.954L63.7869 211.537L62.118 209.194L64.5956 206.83L63.1167 204.764L52.3514 215.915L54.2455 218.569L68.315 212.007ZM60.4985 210.833L61.7482 212.558L55.8106 215.525L60.4985 210.833Z" fill="#E1D9CE"/>
<path d="M46.8666 206.905L60.7207 200.464L59.6119 198.084L54.7006 200.373L52.7226 200.234L58.3011 195.268L57.1769 192.85L49.8336 199.788L43.4787 199.613L44.5874 201.993L50.8633 202.109L50.8787 202.147L45.7578 204.526L46.8666 206.905Z" fill="#E1D9CE"/>
<path d="M40.9285 192.173L55.7264 188.377L53.9019 181.291L51.6894 181.861L52.8569 186.404L48.5197 187.522L47.6787 184.237L45.4563 184.809L46.3059 188.083L42.4953 189.068L41.3961 184.799L39.1836 185.369L40.9285 192.173Z" fill="#E1D9CE"/>
<path d="M37.4866 162.808L37.2184 166.247L52.4481 167.439L52.6259 165.163L40.7342 164.233L40.7386 164.192L52.8169 162.763L52.9134 161.498L41.2069 158.201L41.2113 158.16L53.103 159.089L53.2808 156.813L38.0511 155.621L37.7828 159.061L46.5377 161.608L46.5333 161.649L37.4866 162.808Z" fill="#E1D9CE"/>
<path d="M41.884 140.003L39.8942 146.742L54.54 151.064L56.6227 144.05L54.4316 143.396L53.1003 147.902L48.7943 146.634L49.7562 143.39L47.5651 142.736L46.6045 145.99L42.834 144.869L44.0738 140.648L41.884 140.003Z" fill="#E1D9CE"/>
<path d="M53.6835 117.279L49.4391 123.706L51.3409 124.966L52.7415 122.842L63.5828 130.006L65.0247 127.816L54.1933 120.651L55.5953 118.538L53.6835 117.279Z" fill="#E1D9CE"/>
<path d="M72.5658 118.962C72.968 118.619 73.2914 118.193 73.5139 117.714C73.7364 117.234 73.8527 116.712 73.8549 116.184C73.857 115.655 73.745 115.133 73.5264 114.651C73.3078 114.17 72.9879 113.742 72.5885 113.396L66.8438 107.885C66.0715 107.146 65.0374 106.745 63.9691 106.769C62.9007 106.792 61.8855 107.239 61.1468 108.012C60.4082 108.784 60.0066 109.818 60.0303 110.886C60.0541 111.955 60.5013 112.97 61.2736 113.709L67.0125 119.25C67.3773 119.632 67.8201 119.93 68.3107 120.125C68.8013 120.32 69.3281 120.406 69.8553 120.379C70.3824 120.351 70.8974 120.211 71.3652 119.966C71.8329 119.722 72.2424 119.379 72.5658 118.962V118.962ZM62.9484 109.639C63.7689 108.788 64.445 109.148 65.0862 109.765L70.7448 115.237C71.4664 115.924 71.7088 116.577 70.9508 117.369C70.1927 118.161 69.6177 118.019 68.803 117.244L63.1331 111.764C62.2508 110.937 62.2643 110.31 62.9484 109.639Z" fill="#E1D9CE"/>
<path d="M96.7986 98.3738C97.2891 98.2146 97.7423 97.9577 98.1309 97.6187C98.5195 97.2796 98.8354 96.8654 99.0595 96.4009C99.2837 95.9365 99.4115 95.4315 99.4353 94.9163C99.459 94.4012 99.3782 93.8865 99.1977 93.4035C99.0172 92.9204 98.7408 92.4788 98.3851 92.1054C98.0293 91.7321 97.6017 91.4346 97.1279 91.2309C96.6541 91.0273 96.144 90.9216 95.6283 90.9204C95.1126 90.9192 94.602 91.0225 94.1272 91.2239C93.2212 91.6083 92.4985 92.3276 92.1098 93.2319C91.7211 94.1361 91.6965 95.1554 92.0409 96.0774C92.3854 96.9994 93.0724 97.7528 93.9588 98.1806C94.8452 98.6085 95.8625 98.6777 96.7986 98.3738Z" fill="#E1D9CE"/>
</g>
<defs>
<clipPath id="clip0_1900_24391">
<rect width="274.17" height="248.12" fill="white" transform="translate(0.203125 38.0872) rotate(-7.92556)"/>
</clipPath>
</defs>
</svg>
