<?xml version="1.0" standalone="no"?>
<!DOCTYPE svg PUBLIC "-//W3C//DTD SVG 1.1//EN" "http://www.w3.org/Graphics/SVG/1.1/DTD/svg11.dtd" >
<svg xmlns="http://www.w3.org/2000/svg">
<metadata></metadata>
<defs>
<font id="freightdispboldregular" horiz-adv-x="1077" >
<font-face units-per-em="2048" ascent="1536" descent="-512" />
<missing-glyph horiz-adv-x="284" />
<glyph horiz-adv-x="0" />
<glyph horiz-adv-x="0" />
<glyph horiz-adv-x="682" />
<glyph unicode=" "  horiz-adv-x="284" />
<glyph unicode="&#x09;" horiz-adv-x="284" />
<glyph unicode="&#xa0;" horiz-adv-x="284" />
<glyph unicode="!" horiz-adv-x="567" d="M145 111q0 55 40 95t100 40q59 0 99 -41t40 -94q0 -55 -40 -97.5t-99 -42.5t-99.5 41t-40.5 99zM152 1229q2 22 16 40.5t42 29t73 10.5h6q90 0 113.5 -39t15.5 -88l-117 -783q-4 -10 -15.5 -10t-15.5 10l-116 783q-4 25 -2 47z" />
<glyph unicode="&#x22;" horiz-adv-x="724" d="M2 825l219 496h4l158 -64l-346 -432h-35zM354 825l219 496h2l158 -64l-344 -432h-35z" />
<glyph unicode="#" horiz-adv-x="1067" d="M-16 385v41h284l113 424h-277v41h287l107 403h47l-109 -403h330l106 403h48l-107 -403h274v-41h-286l-111 -424h275v-41h-285l-105 -395h-47l105 395h-328l-106 -395h-45l104 395h-274zM313 426h332l111 424h-330z" />
<glyph unicode="$" horiz-adv-x="1026" d="M70 387h51l112 -248q51 -49 109 -78l127 488q-4 0 -12 4q-76 27 -142.5 57.5t-115.5 73.5t-78 101.5t-29 138.5q0 76 32 145.5t90 121.5t141 83t184 31q33 0 64.5 -2.5t62.5 -6.5l57 215h45l-29 -110q-10 -41 -19 -77t-11 -36q31 -4 58.5 -11t53.5 -15l90 28l4 -377h-45 l-147 293q-8 4 -15.5 8.5t-15.5 8.5l-110 -426q86 -31 159.5 -65t129 -81t86 -110.5t30.5 -153.5q0 -80 -34.5 -154.5t-99.5 -132t-155 -92.5t-200 -35q-35 0 -67 1t-64 3l-80 -307h-47l82 314q-125 14 -230 53zM295 1055q0 -51 18.5 -88t51 -65t77.5 -49.5t97 -39.5l57 213 q10 41 20.5 79t18.5 67.5t10 38.5l6 26q-29 10 -60.5 15t-64.5 5q-104 0 -167.5 -58t-63.5 -144zM383 43q63 -23 125 -23q123 0 195.5 68t72.5 174q0 57 -20.5 98t-55 73t-84 55.5t-104.5 43.5z" />
<glyph unicode="%" horiz-adv-x="1216" d="M23 1030q0 57 19 109.5t55 91.5t88.5 62.5t115.5 23.5q66 0 118 -23.5t89 -62.5t56.5 -91.5t19.5 -109.5t-19.5 -108.5t-56.5 -90t-89 -61t-118 -22.5q-63 0 -115.5 22.5t-88.5 61t-55 90t-19 108.5zM70 1030q0 -49 16 -93t46 -76t73 -51t96 -19q55 0 98 19t74 51 t47.5 76t16.5 93q0 100 -62.5 172t-173.5 72q-109 0 -170 -72t-61 -172zM119 -29l925 1340h50l-924 -1340h-51zM635 248q0 57 19.5 109.5t55 91t87 62.5t116.5 24q66 0 118 -24t88 -62.5t55.5 -91t19.5 -109.5t-19.5 -108.5t-55.5 -90.5t-88 -61.5t-118 -22.5t-117 22.5 t-86.5 61.5t-55 90t-19.5 109zM682 250q0 -102 61 -172t170 -70t171.5 69.5t62.5 172.5q0 49 -16.5 92t-47 77t-73.5 53.5t-97 19.5q-53 0 -96 -19.5t-72.5 -53.5t-46 -77t-16.5 -92z" />
<glyph unicode="&#x26;" horiz-adv-x="1484" d="M31 326q0 74 26.5 137t73.5 113.5t111.5 87t140.5 59.5q-86 41 -142.5 112.5t-56.5 163.5q0 66 34 121.5t88 96t124 64.5t141 24q78 0 141.5 -18.5t110.5 -50.5t73 -75t26 -92t-21.5 -90t-57.5 -71.5t-84 -52t-102 -34.5q49 -23 101.5 -62.5t100.5 -87.5t89 -101.5 t70 -102.5q55 74 97 143.5t44 108.5q14 80 -135 96l-31 6l-6 33h512l-6 -33l-37 -6q-37 -2 -66.5 -12t-58 -30.5t-58.5 -53.5t-67 -82l-166 -211q41 -86 75 -145.5t68 -96.5t70.5 -54t79.5 -17q49 0 90 22.5t70 50.5l20 -20q-29 -31 -63.5 -64.5t-75.5 -62.5t-89 -48.5 t-103 -19.5q-119 0 -194 67.5t-130 197.5q-98 -113 -205.5 -189t-236.5 -76q-90 0 -162 29t-121 77t-75.5 112.5t-26.5 136.5zM258 422q0 -59 21.5 -111.5t60.5 -90.5t93.5 -60.5t115.5 -22.5q76 0 150.5 33t142.5 104q-63 147 -171 260t-253 173q-90 -59 -125 -130 t-35 -155zM397 1081q1 -153 226 -243q51 35 70.5 91t19.5 122q0 39 -10.5 77.5t-30 69.5t-49 49.5t-70.5 18.5q-72 0 -114 -53.5t-42 -131.5z" />
<glyph unicode="'" horiz-adv-x="376" d="M2 825l219 496h4l158 -64l-346 -432h-35z" />
<glyph unicode="(" horiz-adv-x="696" d="M129 401q0 186 53.5 342t134 276t175 204t176.5 127l24 -37q-80 -43 -170 -126t-165.5 -200t-126 -264.5t-50.5 -321.5q0 -176 50.5 -324.5t126 -264t165.5 -198.5t170 -126l-24 -35q-82 43 -176.5 127t-175 205t-134 275.5t-53.5 340.5z" />
<glyph unicode=")" horiz-adv-x="696" d="M4 -512q80 43 170 126t165 198.5t125 264t50 324.5q0 174 -50 321.5t-125 264.5t-165 200t-170 126l25 37q82 -43 176 -127t175 -204t134 -275.5t53 -342.5q0 -186 -53 -340.5t-134 -275.5t-175 -205t-176 -127z" />
<glyph unicode="*" horiz-adv-x="665" d="M33 764l26 133l238 66q4 4 4 11t-4 11l-238 70l-26 131q0 4 5 9t9 5l137 8l121 -213q2 -4 10.5 -2t8.5 4l-11 254l117 64q4 4 10 0l9 -6l51 -117l-164 -197q-2 -2 3 -10t7 -6l236 92l98 -88q2 -4 2 -12t-2 -8l-98 -89l-236 95q-2 0 -7 -8.5t-3 -12.5l162 -192l-52 -117 q-2 -2 -10 -6t-8 -2l-115 65l11 250q0 4 -7.5 8t-9.5 0l-123 -211l-135 7q-4 0 -9 5t-7 9z" />
<glyph unicode="+" horiz-adv-x="915" d="M27 459l6 51h399v403h53v-403h400l4 -51h-404v-410h-53v410h-405z" />
<glyph unicode="," horiz-adv-x="428" d="M51 163.5q6 29.5 24.5 55t49.5 41.5t74 16q86 0 138 -56t52 -140q0 -51 -22.5 -105.5t-63.5 -104.5t-97 -92t-124 -73l-23 23q86 47 132.5 110.5t46.5 134.5q0 47 -21.5 77t-50.5 46.5t-60.5 19.5t-52.5 -7q-8 25 -2 54.5z" />
<glyph unicode="-" horiz-adv-x="606" d="M47 438l6 94h508l-4 -94h-510z" />
<glyph unicode="." horiz-adv-x="450" d="M80 119q0 57 42 99t103 42t102.5 -43t41.5 -98q0 -59 -41.5 -102.5t-102.5 -43.5t-103 43t-42 103z" />
<glyph unicode="/" horiz-adv-x="528" d="M25 -473l434 1796h47l-432 -1796h-49z" />
<glyph unicode="0" horiz-adv-x="1171" d="M66 487q0 115 40.5 210.5t112.5 164t168 107.5t207 39t205 -38t161.5 -106.5t106.5 -163t39 -206.5q0 -113 -41 -209.5t-111.5 -165t-167.5 -107.5t-208 -39t-205 38t-162 105.5t-106.5 163t-38.5 207.5zM315 510q0 -242 70 -366t201 -124q61 0 110 36t85 97.5 t55.5 145.5t19.5 178q0 229 -71.5 356.5t-200.5 127.5q-59 0 -108.5 -35t-85.5 -96.5t-55.5 -143.5t-19.5 -176z" />
<glyph unicode="1" horiz-adv-x="737" d="M61 895l7 31l434 75v-925q0 -12 20.5 -20.5t73.5 -12.5l70 -8l6 -35h-570l7 35l73 8q41 4 60.5 11t19.5 26v790z" />
<glyph unicode="2" horiz-adv-x="974" d="M43 82q133 100 227.5 175t154.5 138.5t89 120.5t29 121q0 94 -59.5 152.5t-149.5 58.5q-84 0 -143.5 -40t-106.5 -122l-25 12q59 147 168 227.5t250 80.5q66 0 121 -19.5t95 -55.5t63.5 -84t23.5 -106q0 -72 -36.5 -134t-106.5 -125.5t-169 -134.5t-226 -163v-6h403 q49 0 85 10.5t62.5 34t50 63.5t48.5 97l20 43l35 -4l-80 -422h-813z" />
<glyph unicode="3" horiz-adv-x="886" d="M16 -240q0 47 34 80t81 33q39 0 69.5 -19.5t52 -51t31 -71.5t5.5 -81q4 -2 23.5 -6t37.5 -4q53 0 99.5 23.5t82 64.5t56 99t20.5 128q0 141 -77.5 227t-206.5 86q-45 0 -88 -12t-84 -29l-13 35q90 51 161 93t120 83t74.5 88t25.5 109q0 94 -60.5 154.5t-154.5 60.5 q-78 0 -141.5 -41t-104.5 -123q-2 0 -14 6t-10 6q55 145 161.5 226.5t245.5 81.5q70 0 126.5 -20.5t97.5 -55.5t63.5 -82t22.5 -100q0 -61 -23.5 -108.5t-64.5 -87.5t-95.5 -74t-113.5 -66v-4q88 0 158.5 -28t119.5 -76t76 -111.5t27 -137.5q0 -92 -41 -177t-114 -149.5 t-170 -102.5t-208 -38q-129 0 -208 50.5t-79 121.5z" />
<glyph unicode="4" horiz-adv-x="1042" d="M23 53l651 934h112v-815h242l-39 -156h-203v-393h-225v393h-534zM156 172h405v573h-4z" />
<glyph unicode="5" horiz-adv-x="862" d="M-27 -240q0 49 34 83t85 34q37 0 64.5 -18.5t47 -49t29 -68.5t5.5 -77q20 -10 39.5 -15t52.5 -5q49 0 94 21.5t79 61.5t53 94t19 120q0 164 -130 261t-373 128l164 643h569l-35 -215h-541l-57 -228q164 -20 278.5 -64t186.5 -104.5t105.5 -135t33.5 -158.5 q0 -98 -44 -184.5t-116.5 -152t-167 -103.5t-192.5 -38q-147 0 -215 46.5t-68 123.5z" />
<glyph unicode="6" horiz-adv-x="1083" d="M61 489q0 174 73 326t200 266.5t299 187t371 87.5l8 -35q-145 -20 -259 -82.5t-197 -147.5t-136 -186.5t-80 -204.5l4 -4q68 55 147.5 87t159.5 32t147.5 -26.5t117 -78t78 -122t28.5 -160.5q0 -98 -38 -182t-102.5 -145.5t-151.5 -95.5t-185 -34q-109 0 -198 40 t-152.5 109.5t-98.5 165t-35 203.5zM322 479q0 -98 14 -183t45 -146.5t78 -97.5t110 -36q100 0 152.5 92.5t52.5 258.5t-72.5 257t-185.5 91q-55 0 -100 -20.5t-74 -49.5q-8 -16 -14 -61t-6 -105z" />
<glyph unicode="7" horiz-adv-x="948" d="M49 586l47 389h819l7 -37l-572 -1315h-188l633 1145v6h-326q-104 0 -170 -5t-104.5 -20.5t-57 -42t-31.5 -71.5l-20 -49h-37z" />
<glyph unicode="8" horiz-adv-x="1038" d="M66 309q0 53 23.5 99.5t63.5 84t94 66.5t118 45v2q-55 27 -104.5 58.5t-86.5 71.5t-58.5 88t-21.5 110q0 70 28 137.5t81 120.5t132 86t181 33q92 0 170 -22.5t134.5 -64.5t88 -100.5t31.5 -130.5q0 -98 -80 -166.5t-196 -105.5v-2q63 -29 119.5 -62.5t99.5 -77.5 t67.5 -98.5t24.5 -122.5q0 -78 -33 -148.5t-93.5 -123.5t-143.5 -85t-185 -32q-96 0 -179 24.5t-144.5 70t-96 107.5t-34.5 138zM287 322q0 -57 18.5 -112.5t51 -99.5t79 -71t103.5 -27q111 0 172 65.5t61 160.5q0 63 -28.5 114t-78 92t-116 76t-141.5 66 q-59 -41 -89 -107.5t-32 -156.5zM299 1053q0 -57 23.5 -102.5t65.5 -83.5t101.5 -68.5t131.5 -61.5q51 39 76.5 100.5t25.5 137.5q0 57 -15.5 110.5t-44 95.5t-69.5 67.5t-94 25.5q-49 0 -86 -18.5t-62.5 -49t-39 -70.5t-13.5 -83z" />
<glyph unicode="9" horiz-adv-x="1083" d="M57 555q0 100 39 184t104.5 143.5t152.5 93.5t184 34q111 0 198.5 -40t151 -111t97.5 -164t34 -201q0 -174 -73 -326t-198.5 -266.5t-298 -187t-370.5 -89.5l-8 35q145 20 258.5 82.5t196.5 148.5t136.5 188.5t77.5 203.5l-4 2q-66 -55 -146.5 -87t-158.5 -32 q-80 0 -148.5 26.5t-117.5 76.5t-78 122t-29 164zM305 618q0 -80 19.5 -144t53.5 -110.5t82 -71t105 -24.5q55 0 98.5 19.5t73.5 48.5q8 18 14.5 64t6.5 106q0 86 -13.5 168t-43 146.5t-75.5 104.5t-114 40q-92 0 -149.5 -89.5t-57.5 -257.5z" />
<glyph unicode=":" horiz-adv-x="446" d="M80 119q0 55 42 97t103 42t102.5 -42t41.5 -97q0 -59 -41.5 -101.5t-102.5 -42.5t-103 42t-42 102zM80 731q0 55 42 97t103 42t102.5 -42t41.5 -97q0 -59 -41.5 -102t-102.5 -43t-103 43t-42 102z" />
<glyph unicode=";" horiz-adv-x="428" d="M51 163.5q6 29.5 24.5 54t49.5 41.5t74 17q86 0 138 -57t52 -137q0 -53 -22.5 -107.5t-63.5 -103.5t-97 -91t-124 -73l-23 23q86 47 132.5 109.5t46.5 133.5q0 47 -21.5 77t-50.5 46.5t-60.5 19.5t-52.5 -7q-8 25 -2 54.5zM70 729q0 57 43 99t102 42q61 0 102 -43t41 -98 q0 -59 -41 -101t-102 -42q-59 0 -102 42t-43 101z" />
<glyph unicode="&#x3c;" horiz-adv-x="897" d="M23 465v35l821 395l16 -47l-756 -363v-4l756 -366l-16 -47z" />
<glyph unicode="=" horiz-adv-x="909" d="M45 279l6 49h807l6 -49h-819zM45 684h819l-6 -49h-807z" />
<glyph unicode="&#x3e;" horiz-adv-x="897" d="M39 115l754 366v4l-754 363l14 47l821 -395v-35l-821 -397z" />
<glyph unicode="?" horiz-adv-x="702" d="M59 1186q-2 53 36 88t128 35t166 -36t131 -94.5t86 -134t31 -153.5q0 -57 -10.5 -98t-33 -70t-58 -49.5t-84.5 -40.5q-88 -35 -135.5 -57.5t-47.5 -67.5q0 -37 22.5 -66.5t61.5 -66.5l-35 -4q-31 23 -61.5 52.5t-54 61t-39 64.5t-15.5 61q0 43 17.5 75t49.5 55.5t76 42 t99 36.5q102 35 148.5 61.5t46.5 67.5q0 59 -82 106.5t-228 47.5q-49 0 -91 -7.5t-72 -13.5q-20 16 -35 44t-17 61zM188 111q0 55 40 95t100 40q59 0 98 -41t39 -94q0 -55 -39 -96.5t-98 -41.5t-99.5 41t-40.5 97z" />
<glyph unicode="@" horiz-adv-x="1634" d="M61 500q2 170 67 320.5t175.5 263t258 177t315.5 64.5q152 0 280.5 -49t223 -137t146.5 -209t50 -266q0 -117 -40 -218.5t-106.5 -178.5t-152.5 -121t-178 -44q-115 0 -172.5 51.5t-53.5 122.5q0 16 5.5 42t13.5 54.5t16.5 56.5t16.5 46h-11q-51 -82 -95 -148.5 t-87 -114.5t-86 -73.5t-90 -25.5q-82 0 -140.5 57t-60.5 143q0 61 21.5 130t58.5 136.5t86 130t103 113.5q70 72 137 105t125 33q66 0 97.5 -58.5t29.5 -136.5h8l82 225l192 -6l-131 -342l-86 -272q-25 -78 3 -124t122 -46q59 0 117.5 34.5t106 96t77 146.5t31.5 186 q2 137 -47 250.5t-137 196.5t-210 129t-268 46q-158 0 -297 -62.5t-243.5 -170t-166 -251t-63.5 -302.5q0 -154 52.5 -282t147.5 -221t227.5 -144.5t289.5 -51.5q88 0 169 22.5t151.5 60.5t127 90.5t93.5 111.5l20 -29q-39 -61 -98 -115.5t-132 -94.5t-157 -62.5t-176 -22.5 q-166 0 -305 54.5t-240.5 153t-158 233.5t-54.5 297zM567 367q0 -57 24.5 -89t59.5 -32q49 0 122 85t151 228q8 14 17 35.5t17.5 43t14.5 40t6 27.5q-4 27 -19.5 55t-37 51t-48 38t-53.5 15q-23 0 -38 -8t-31 -25q-29 -27 -62 -83t-60.5 -122.5t-45 -135t-17.5 -123.5z" />
<glyph unicode="A" horiz-adv-x="1329" d="M-27 0l7 35l38 6q45 6 75 19.5t57.5 54.5t59.5 118.5t81 212.5l233 650l-16 69q25 6 52.5 21.5t54 36t48 44t31.5 48.5h37l365 -1065q23 -63 40 -102t36.5 -62t41 -32t52.5 -11l61 -8l6 -35h-635l7 35l59 6q37 4 56.5 14.5t24.5 33t-2 58t-26 89.5l-90 276h-362l-58 -168 q-31 -92 -47 -148q-12 -41 -12 -70q0 -12 2 -20q6 -32 35.5 -45.5t91.5 -19.5l47 -6l6 -35h-457zM381 557h332l-156 481h-8z" />
<glyph unicode="B" horiz-adv-x="1251" d="M45 0l6 33l76 8q49 6 69.5 15.5t20.5 21.5v1130q0 6 -3 10.5t-14.5 7.5t-33 6t-55.5 7l-58 6l-6 35h551q145 0 246.5 -20.5t164 -57.5t90 -89t27.5 -118q0 -115 -95 -188.5t-273 -101.5v-7q205 -16 317.5 -107t112.5 -233q0 -162 -140.5 -260t-433.5 -98h-569zM483 70 l109 -31q8 0 16 2q6 2 10.5 2t-0.5 0q63 4 116.5 27.5t91.5 64.5t59.5 95.5t21.5 117.5q0 74 -26.5 132.5t-73.5 100.5t-109.5 63.5t-136.5 21.5h-41.5t-36.5 -4v-592zM483 705h68q137 0 218 70.5t81 195.5q0 131 -81 197.5t-224 66.5h-62v-530z" />
<glyph unicode="C" horiz-adv-x="1419" d="M66 627q0 147 52 272t149.5 216t236.5 142.5t313 51.5q96 0 186.5 -22.5t137.5 -47.5l147 43l10 -424h-51l-172 342q-41 27 -106.5 44.5t-149.5 17.5q-111 0 -197.5 -47.5t-146 -129t-90.5 -194.5t-31 -246q0 -143 35 -259t96.5 -198t145.5 -126t184 -44 q139 0 229.5 59.5t157.5 170.5l76 178h55l-61 -381h-88q-29 -12 -73 -24.5t-95 -23.5t-106.5 -17.5t-108.5 -6.5q-166 0 -301 47.5t-231.5 133.5t-149.5 206.5t-53 266.5z" />
<glyph unicode="D" horiz-adv-x="1427" d="M45 0l6 33l76 8q49 6 69.5 15.5t20.5 21.5v1130q0 12 -18.5 18.5t-87.5 12.5l-58 8l-6 33q166 0 295 2q55 0 108.5 1t94.5 1h64.5t21.5 0h15q169 0 300 -42q137 -44 230.5 -126t141.5 -198.5t48 -258.5q0 -135 -53 -254.5t-151.5 -210t-240 -142.5t-317.5 -52h-559z M483 76l140 -35q111 0 195.5 47t142 125t87 181.5t29.5 219.5q0 139 -29.5 254t-91 197t-154.5 127t-222 45h-97v-1161z" />
<glyph unicode="E" horiz-adv-x="1267" d="M45 0l6 33l74 8q49 6 70.5 15.5t21.5 21.5v1130q0 6 -3 10.5t-14.5 8.5t-33 7t-55.5 5l-58 8l-6 33h1067l14 -420h-53l-18 68q-25 88 -57.5 147.5t-83 96t-122 51t-173.5 14.5l-138 -2v-561l76 2q121 4 181.5 36.5t86.5 116.5l23 66h43l-51 -492l-41 3l-8 63 q-4 45 -16.5 74.5t-40 48t-74 28t-117.5 11.5l-62 2v-584l170 -6q106 0 182 21.5t130.5 62.5t91.5 99.5t63 131.5l21 62h53l-53 -420h-1096z" />
<glyph unicode="F" horiz-adv-x="1193" d="M45 0l6 33l78 8q51 6 69.5 15.5t18.5 21.5v1130q0 6 -3 10.5t-13.5 8.5t-32 7t-55.5 5l-60 8l-6 33h1063l14 -403h-51l-20 67q-29 84 -63 139.5t-83 90t-117.5 49t-171.5 14.5l-135 -2v-573l78 2q121 4 181.5 34.5t86.5 114.5l25 68h41l-51 -492l-41 2l-6 64 q-4 45 -16.5 75.5t-40 49t-75 27.5t-118.5 9l-64 2v-546q0 -12 16.5 -19.5t86.5 -11.5l94 -8l6 -33h-641z" />
<glyph unicode="G" horiz-adv-x="1478" d="M66 629q0 147 52 271t149.5 215t236.5 142.5t313 51.5q49 0 98.5 -6.5t93.5 -15.5t79.5 -21.5t58.5 -24.5l145 41l4 -422h-53l-166 338q-43 31 -112.5 48.5t-151.5 17.5q-111 0 -196 -47.5t-143 -130t-88 -195.5t-30 -244q0 -154 37 -272.5t98.5 -199.5t142.5 -122 t171 -41q68 0 129 19.5t90 38.5v422q0 12 -26.5 20t-94.5 12l-74 6l-6 35h625l-6 -35l-84 -8q-47 -4 -63.5 -12t-16.5 -18v-371l119 10l4 -25q-59 -27 -135 -52t-158 -44.5t-165 -31t-155 -11.5q-166 0 -300 49.5t-227 137.5t-144 209.5t-51 265.5z" />
<glyph unicode="H" horiz-adv-x="1536" d="M45 0l6 33l76 8q49 6 69.5 15.5t20.5 21.5v1130q0 6 -3 10.5t-14.5 8.5t-33 7t-55.5 5l-58 8l-6 33h606l-6 -33l-76 -8q-49 -6 -69.5 -16.5t-20.5 -20.5v-528h574v534q0 12 -17.5 18.5t-87.5 12.5l-59 8l-6 33h606l-6 -33l-76 -8q-47 -6 -67.5 -15.5t-20.5 -21.5v-1130 q0 -12 17.5 -18.5t86.5 -12.5l58 -8l6 -33h-606l6 33l78 8q47 6 67.5 15.5t20.5 21.5v551h-574v-557q0 -12 17.5 -18.5t87.5 -12.5l59 -8l6 -33h-606z" />
<glyph unicode="I" horiz-adv-x="747" d="M61 0l7 33l84 8q90 8 90 37v1130q0 6 -3 10.5t-14.5 8.5t-33 7t-56.5 5l-67 8l-7 33h625l-6 -33l-84 -8q-51 -4 -70.5 -15.5t-19.5 -21.5v-1130q0 -12 18.5 -18.5t85.5 -12.5l68 -8l6 -33h-623z" />
<glyph unicode="J" horiz-adv-x="745" d="M-162 -154q0 53 38 91t97 38q43 0 75 -21.5t48 -55.5q13 -28 13 -63q0 -6 -1 -12q-2 -42 -24 -81q88 6 129 111.5t41 302.5v1052q0 12 -17.5 19.5t-86.5 11.5l-74 8l-6 33h626l-6 -33l-80 -8q-49 -6 -69.5 -15.5t-20.5 -21.5v-1012q0 -80 -41 -166.5t-107.5 -160.5 t-151.5 -121t-173 -47q-92 0 -150.5 43t-58.5 108z" />
<glyph unicode="K" horiz-adv-x="1417" d="M45 0l6 33l78 8q49 6 68.5 15.5t19.5 21.5v1130q0 6 -3 10.5t-13.5 8.5t-32 7t-55.5 5l-60 8l-6 33h617l-7 -33l-86 -8q-49 -4 -69.5 -15.5t-20.5 -21.5v-614l320 327q94 96 141 155.5t53 95.5t-23.5 51.5t-88.5 21.5l-64 8l-4 33h549l-6 -33l-55 -8q-51 -6 -89 -21.5 t-82.5 -49t-102.5 -92t-148 -150.5l-82 -80l395 -639q31 -53 53.5 -85t43 -49.5t42 -23.5t49.5 -10l39 -6l6 -33h-598l5 33l40 8q31 4 47.5 13t15.5 30.5t-18.5 59.5t-52.5 100l-250 420l-135 -136v-456q0 -12 18.5 -18.5t88.5 -12.5l67 -8l7 -33h-617z" />
<glyph unicode="L" horiz-adv-x="1181" d="M45 0l6 33l78 10q51 4 69.5 14.5t18.5 20.5v1128q0 6 -3 11.5t-13.5 8.5t-32 7t-55.5 6l-60 8l-6 33h631l-6 -33l-101 -10q-90 -6 -90 -35v-1153l117 -8q96 0 162.5 19.5t118 60.5t90.5 106.5t80 157.5l24 68h53l-59 -453h-1022z" />
<glyph unicode="M" horiz-adv-x="1755" d="M31 0l6 33l59 6q41 4 66.5 13t41 29.5t21.5 54.5t8 87l27 932q-37 70 -125 82l-74 8l-6 35h492l327 -922h7l333 922h494l-6 -35l-111 -8q-43 -4 -62.5 -16.5t-19.5 -26.5l23 -1016q0 -41 4 -66.5t15.5 -40t31 -19.5t49.5 -9l74 -10l6 -33h-629l7 33l100 10q42 5 58 33 q14 25 14 89v17l-25 994h-8l-430 -1164h-68l-405 1116q-4 8 -11.5 14.5t-9.5 10.5l-22 -942q-1 -14 -1 -27q0 -32 4 -54q5 -32 20.5 -51.5t45 -27.5t76.5 -12l59 -6l7 -33h-463z" />
<glyph unicode="N" horiz-adv-x="1452" d="M12 1280h457l713 -895h6l-2 676q0 51 -7.5 84t-24.5 52.5t-46 28.5t-74 13l-59 8l-6 33h461l-7 -33l-57 -8q-72 -6 -100.5 -44t-28.5 -144l-6 -1063h-72l-870 1079h-6l2 -850q0 -51 7 -83t24.5 -51.5t47 -28.5t72.5 -13l62 -8l6 -33h-463l6 33l57 8q74 6 101.5 44 t27.5 142l7 867q-31 53 -75 92t-104 49l-43 12z" />
<glyph unicode="O" horiz-adv-x="1527" d="M66 635q0 137 56 259t152.5 214t225.5 145.5t274 53.5q152 0 278 -48.5t217 -135.5t142 -209.5t51 -272.5q0 -137 -56 -259t-152.5 -213t-225.5 -144.5t-274 -53.5q-152 0 -278 48.5t-217 135.5t-142 209.5t-51 270.5zM354 643q0 -301 114 -464t302 -163t293.5 154 t105.5 465q0 150 -29.5 266.5t-84 196.5t-130 122t-167.5 42q-190 0 -297 -154t-107 -465z" />
<glyph unicode="P" horiz-adv-x="1212" d="M35 0l6 33l86 8q49 6 69.5 15.5t20.5 21.5v1130q0 6 -3 10.5t-14.5 8.5t-33 7t-55.5 5l-68 8l-6 33h588q270 0 403 -83t133 -239q0 -88 -41 -156.5t-113.5 -116.5t-174 -73.5t-224.5 -25.5q-35 0 -66.5 2t-58.5 6v-522q0 -12 16.5 -19.5t86.5 -11.5l90 -8l6 -33h-647z M483 641q25 -4 51.5 -9t67.5 -5q123 0 199 82t76 219q0 150 -71 230.5t-218 80.5h-60q-23 0 -45 -2v-596z" />
<glyph unicode="Q" horiz-adv-x="1525" d="M66 635q0 135 56 257t152.5 213t225.5 145.5t274 54.5q154 0 281 -50.5t218 -139.5t140 -210t49 -264q0 -104 -34.5 -202.5t-97 -179.5t-149.5 -143.5t-190 -97.5q49 -106 103.5 -172.5t122 -102.5t151.5 -42q28 -2 59 -2q61 0 134 8l6 -31q-23 -8 -60 -16t-81 -15 t-91 -11.5t-94 -4.5q-96 0 -177 16.5t-149.5 56.5t-125 106.5t-103.5 166.5q-139 10 -254 64.5t-195.5 141.5t-125.5 203t-45 251zM354 639q0 -150 30 -265.5t84 -195.5t131 -122t171 -42q188 0 293.5 155t105.5 466q0 150 -29.5 266.5t-84 196.5t-130 122t-167.5 42 q-190 0 -297 -156t-107 -467z" />
<glyph unicode="R" horiz-adv-x="1368" d="M35 0l6 33l86 8q41 4 65.5 14.5t24.5 22.5v1130q0 6 -3 10.5t-14.5 8.5t-33 7t-55.5 5l-68 8l-6 33l610 2q262 0 391 -82t129 -242q0 -119 -83 -204.5t-226 -120.5l266 -420q31 -49 54.5 -81t46 -51.5t47 -28.5t57.5 -13l33 -6l8 -33h-430l-37 72l-305 542 q-20 4 -58 10.5t-57 14.5v-567q0 -23 103 -31l73 -8l7 -33h-631zM483 680q18 -4 54.5 -10t54.5 -6q137 4 215 75.5t78 210.5q0 137 -83 215q-79 74 -222 74h-15h-43q-18 0 -39 -2v-557z" />
<glyph unicode="S" horiz-adv-x="1075" d="M82 389h49l86 -203q111 -168 305 -168q129 2 199 71t70 177q0 63 -25 107.5t-67 78t-99 58.5t-125 47q-76 27 -142.5 57.5t-115.5 73.5t-77.5 101.5t-28.5 138.5q0 78 30.5 146.5t88 119.5t139.5 82t182 31q86 0 156.5 -13.5t126.5 -29.5l90 28l6 -379h-45l-148 295 q-37 23 -84 38.5t-110 15.5q-106 0 -170 -58.5t-64 -144.5q0 -55 23.5 -95t63.5 -69t94.5 -51.5t115.5 -44.5q84 -29 154.5 -63t123 -81t81 -110.5t28.5 -151.5q0 -82 -34.5 -157.5t-97 -134t-151.5 -93.5t-200 -35h-22q-106 -1 -198 17q-100 20 -186 51z" />
<glyph unicode="T" horiz-adv-x="1359" d="M55 883l54 397h1159l26 -395h-49l-22 71q-23 55 -54.5 106.5t-75.5 90.5t-100.5 62.5t-126.5 23.5h-53v-1167q0 -12 18.5 -18.5t86.5 -12.5l79 -8l7 -33h-648l6 33l97 8q47 4 67.5 14.5t20.5 22.5v1161h-49q-72 -2 -130.5 -27.5t-102.5 -65.5t-76.5 -89t-55.5 -101 l-22 -73h-56z" />
<glyph unicode="U" horiz-adv-x="1435" d="M29 1280h624l-6 -33l-86 -8q-49 -4 -68.5 -13t-19.5 -22v-733q0 -203 90 -300t264 -97q176 0 268.5 102.5t92.5 317.5l-2 567q0 51 -7.5 84t-24.5 52.5t-47 28.5t-73 13l-61 8l-6 33h463l-7 -33l-57 -8q-72 -6 -100.5 -44t-28.5 -144l-4 -570q-2 -246 -121 -381 t-375 -135q-268 0 -399 106.5t-131 338.5v800q0 10 -16.5 17.5t-86.5 11.5l-69 8z" />
<glyph unicode="V" horiz-adv-x="1339" d="M-16 1280h624l-4 -33l-72 -6q-43 -2 -63 -10t-24.5 -27.5t7 -54.5t31.5 -90l295 -766h13l225 616q37 102 54 164q13 46 13 77q0 12 -2 20q-6 34 -38.5 49.5t-94.5 21.5l-45 6l-6 33h463l-6 -33l-39 -8q-43 -6 -73 -17.5t-56.5 -48t-56 -105.5t-72.5 -189l-338 -893h-90 l-410 1054q-27 63 -44 101.5t-34.5 59t-38 27.5t-51.5 9l-63 10z" />
<glyph unicode="W" horiz-adv-x="2015" d="M-23 1280h627l-6 -35l-72 -4q-74 -5 -81 -35q-1 -6 -1 -13q0 -34 25 -108l283 -790h8l244 645l-35 100q-20 55 -37 92t-34 59.5t-37.5 33t-51.5 12.5l-68 8l-6 35h635l-6 -35l-70 -4q-37 -2 -57 -9t-26.5 -25.5t0 -48.5t22.5 -79l264 -774h8l203 580q36 103 54 169 q13 48 13 81q1 12 -1 23q-6 38 -39 55.5t-99 25.5l-51 6l-6 35h471l-6 -35l-37 -6q-45 -8 -74.5 -21.5t-54.5 -50.5t-52.5 -104.5t-68.5 -181.5l-323 -904h-80l-320 900h-6l-342 -900h-82l-397 1063q-23 59 -40 96.5t-33.5 59t-38 30.5t-52.5 11l-59 8z" />
<glyph unicode="X" horiz-adv-x="1339" d="M-6 0l6 33l63 10q41 4 73 20.5t64.5 49t71.5 84t93 125.5l196 268l-291 440q-35 55 -59.5 93t-45 62.5t-40 36t-43.5 13.5l-72 12l-8 33h631l-4 -33l-66 -6q-70 -4 -70 -46q0 -39 66 -138l170 -273h4l125 183q57 82 84 132t27 78.5t-27 42t-80 19.5l-53 8l-6 33h483 l-6 -33l-57 -10q-41 -4 -74 -19.5t-67.5 -48t-76.5 -86t-102 -135.5l-143 -198l356 -549q29 -43 49.5 -73t37 -48.5t33.5 -26.5t40 -10l57 -10l8 -33h-618l4 33l66 6q69 4 75 38q1 4 0 9q0 34 -41 94l-239 375h-4q2 0 -23.5 -36t-54.5 -81q-35 -53 -80 -116 q-57 -80 -83 -132q-25 -51 -25 -81q0 -31 28 -47q27 -14 76 -21l53 -8l6 -33h-487z" />
<glyph unicode="Y" horiz-adv-x="1300" d="M-4 1280h618l-6 -35l-45 -4q-82 -10 -91 -44q-2 -6 -2 -13q0 -34 38 -99l242 -438h8l162 299q47 86 70 140q20 51 20 81v5q-2 32 -31 46.5t-86 20.5l-47 6l-6 35h460l-6 -35l-51 -8q-35 -6 -63.5 -17.5t-57 -42t-64.5 -87t-85 -148.5l-189 -338v-532q0 -12 18.5 -18.5 t86.5 -12.5l78 -8l6 -33h-645l6 33l96 8q47 4 67.5 14.5t20.5 22.5v487l-295 516q-25 41 -44 70t-37.5 46t-40 26.5t-52.5 13.5l-47 8z" />
<glyph unicode="Z" horiz-adv-x="1234" d="M66 0v35l772 1194v6h-197q-104 0 -179 -19.5t-128 -57.5t-89 -94t-63 -132l-16 -62h-51l18 410h1018v-37l-786 -1190v-6l215 -4h23q105 1 179 17q82 18 140.5 61t100.5 111.5t81 162.5l22 64h54l-60 -459h-1054z" />
<glyph unicode="[" horiz-adv-x="665" d="M131 -481v1786h510v-43h-459v-1700h459v-43h-510z" />
<glyph unicode="\" horiz-adv-x="503" d="M-6 1323h49l432 -1796h-47z" />
<glyph unicode="]" horiz-adv-x="665" d="M23 -438h458v1700h-458v43h509v-1786h-509v43z" />
<glyph unicode="^" horiz-adv-x="776" d="M90 1006l279 403h39l278 -403h-31l-264 200h-4l-268 -200h-29z" />
<glyph unicode="_" horiz-adv-x="927" d="M23 -74l6 74h872l6 -74h-884z" />
<glyph unicode="`" horiz-adv-x="819" d="M80 1399h248l202 -379h-34z" />
<glyph unicode="a" horiz-adv-x="946" d="M51 672q0 49 44 94t110.5 80t145.5 55.5t149 20.5q168 0 240 -77q63 -68 62 -222q0 -22 -1 -45l-17 -369q-1 -10 -1 -19q-1 -41 15 -62q18 -26 54 -26q23 0 44.5 17.5t43.5 40.5l21 -21q-18 -25 -44 -53.5t-57 -54t-64.5 -42t-70.5 -16.5q-70 0 -113 44t-53 130l-4 3 q-63 -72 -130 -123.5t-149 -51.5q-45 0 -85.5 16.5t-71.5 44t-48.5 66.5t-17.5 82q0 57 26.5 105.5t86 89.5t158 79t239.5 72l2 54v18q0 118 -50 180q-54 66 -153 66q-55 0 -93 -16.5t-38 -32.5q0 -6 9.5 -17.5t19.5 -27t19.5 -34t9.5 -40.5q0 -41 -33 -74t-86 -33 q-49 0 -84 27t-35 72zM283 262q0 -66 37 -104.5t90 -38.5q41 0 74.5 17.5t68.5 51.5l12 306q-86 -20 -140 -46t-86 -56t-44 -61.5t-12 -68.5z" />
<glyph unicode="b" horiz-adv-x="1079" d="M-23 1272l3 24l362 97v-656l8 -2q59 74 139 125t175 51q78 0 144 -32.5t115.5 -91t78 -138.5t28.5 -174q0 -121 -43 -214t-111.5 -157.5t-157.5 -98.5t-181 -34q-70 0 -140.5 18.5t-130.5 41.5h-2l-137 -74h-16v1184q0 55 -14.5 75.5t-55.5 32.5zM342 193 q43 -76 103.5 -127.5t123.5 -51.5q47 0 85 30t64.5 82t41 124t14.5 153q0 78 -17.5 144.5t-49 115t-77.5 76t-102 27.5q-59 0 -105 -24.5t-81 -57.5v-491z" />
<glyph unicode="c" horiz-adv-x="903" d="M49 420q0 106 36 197.5t101.5 159t155.5 106.5t199 39q70 0 129 -15.5t102 -42t66.5 -64.5t23.5 -83q0 -57 -35.5 -91t-87.5 -34q-59 0 -94 44q-31 39 -31 91v12q0 33 18.5 55.5t18.5 32.5q-4 18 -35.5 34t-72.5 16q-104 0 -173 -98.5t-69 -272.5q0 -180 81 -282.5 t218 -102.5q82 0 144.5 36t109.5 115l25 -12q-61 -139 -162 -215t-242 -76q-92 0 -170 34t-135 94.5t-89 142.5t-32 180z" />
<glyph unicode="d" horiz-adv-x="1099" d="M49 414q0 121 42 213t111.5 155.5t160 96t184.5 32.5q109 0 184 -30h2v278q0 55 -13 76.5t-54 32.5l-84 22l4 23l381 78v-1217q0 -53 10 -70.5t41 -27.5l84 -21l-4 -24l-365 -62v178l-4 3q-59 -74 -139 -126.5t-172 -52.5q-78 0 -145.5 34t-117 92.5t-78 140t-28.5 176.5 zM303 481q0 -80 17.5 -146.5t50 -115.5t79 -76.5t103.5 -27.5q59 0 102 24.5t78 59.5v493q-41 76 -100.5 125t-118.5 49q-49 0 -89 -29.5t-66.5 -80.5t-41 -122t-14.5 -153z" />
<glyph unicode="e" horiz-adv-x="933" d="M49 424q0 106 36 197.5t100.5 159t152.5 105.5t192 38q84 0 148.5 -23.5t108.5 -64.5t67 -95.5t23 -115.5q0 -29 -7 -58q-150 0 -270 2q-51 0 -101 1t-92 2t-70 2t-36 1q-4 -16 -4 -38.5v-38.5q0 -84 22.5 -154t62.5 -119t96.5 -76.5t123.5 -27.5q82 0 146.5 36 t113.5 115l25 -12q-61 -139 -163 -215t-249 -76q-92 0 -170 34t-134 95.5t-89 144.5t-33 181zM303 610l344 2q0 51 -7 99.5t-24.5 85.5t-45 59.5t-66.5 22.5q-72 0 -129.5 -74t-71.5 -195z" />
<glyph unicode="f" horiz-adv-x="673" d="M10 780l37 107h123l4 94q6 92 47 166t103.5 125t139.5 78.5t154 27.5q98 0 145.5 -36.5t47.5 -90.5q0 -47 -35 -79.5t-84 -32.5q-106 0 -143 159l-4 13l-41 8q-55 -25 -75.5 -92.5t-20.5 -210.5v-129h260l-29 -107h-231v-712q0 -14 15 -21.5t79 -11.5l73 -2l7 -33h-537 l6 33l41 2q43 4 61.5 10t18.5 25v706z" />
<glyph unicode="g" horiz-adv-x="987" d="M23 -289q0 43 21.5 78t55 62.5t76.5 49t86 38.5v4q-92 10 -151.5 61t-59.5 117q0 41 19.5 74.5t50.5 61.5t70.5 47.5t80.5 31.5q0 2 2 4q-82 31 -135 95.5t-53 166.5q0 66 27.5 123t78 100t120 69t151.5 26q72 0 135.5 -18.5t112.5 -49.5l278 35l-16 -121l-203 31l-2 -9 q31 -29 51.5 -71.5t20.5 -93.5q0 -68 -29 -124.5t-80 -98.5t-122.5 -65.5t-155.5 -23.5q-35 0 -70 4t-61 11q-43 -10 -72 -37t-29 -62q0 -80 156 -80q25 0 58.5 1.5t69.5 2.5t71.5 2t62.5 1q139 0 222 -69t83 -187q0 -84 -40 -157t-113.5 -126t-175 -85t-224.5 -32 q-180 0 -274 54.5t-94 158.5zM205 -238q0 -92 80 -150t213 -58q66 0 118 17t90.5 48t59 71t20.5 87q0 78 -54 117.5t-177 46.5q-21 2 -47 2t-58 -2q-65 -4 -141 -9q-47 -18 -75.5 -63t-28.5 -107zM315 621q0 -133 39 -203t107 -70q153 0 153 253q0 133 -36 206 q-37 74 -117 74q-70 0 -108 -64.5t-38 -195.5z" />
<glyph unicode="h" horiz-adv-x="1101" d="M10 1270l4 24l365 97v-641l4 -2q37 31 77 61.5t83 55t90 40t96 15.5q96 0 166 -66q37 -39 52.5 -98.5t15.5 -130.5v-555q0 -10 15 -18.5t85 -16.5l29 -2l6 -33h-486l6 33l39 2q51 4 61.5 13t10.5 22v499q0 111 -44 153t-126 42q-57 0 -103 -19.5t-79 -42.5v-301v-333 q0 -14 15.5 -21.5t72.5 -11.5l37 -2l6 -33h-488l7 33l34 2q45 4 62.5 10t17.5 25v1069q0 55 -12 75.5t-53 32.5z" />
<glyph unicode="i" horiz-adv-x="559" d="M35 793l2 24l362 101v-850q0 -14 16.5 -20.5t80.5 -12.5l28 -2l6 -33h-489l6 33l35 2q45 4 63.5 10t18.5 25v551q0 47 -3 75.5t-12.5 45t-27 25.5t-43.5 15zM121 1202q0 53 38 99.5t107 46.5q72 0 110 -46.5t38 -99.5t-38 -99t-110 -46q-70 0 -107.5 46t-37.5 99z" />
<glyph unicode="j" horiz-adv-x="536" d="M-193 -391q0 49 36 82t83 33q35 0 61.5 -16.5t43 -42t21.5 -57.5t-1 -63q59 8 83 96.5t24 231.5v748q0 47 -4 75.5t-13.5 45t-26 25.5t-42.5 15l-45 11l2 24l362 101v-961q-2 -82 -41 -167t-98 -154.5t-132 -113.5t-143 -44q-78 0 -124 36.5t-46 94.5zM115 1202 q0 53 37.5 99.5t109.5 46.5q70 0 107 -46.5t37 -99.5t-37 -99t-107 -46q-72 0 -109.5 46t-37.5 99z" />
<glyph unicode="k" horiz-adv-x="1060" d="M10 1270l4 24l365 97v-957l135 125q92 86 138 140.5t46 88.5q0 29 -23.5 45.5t-90.5 22.5l-25 2l-4 33h461l-6 -33l-37 -6q-35 -4 -67 -16.5t-66.5 -36t-78.5 -62.5t-106 -98q-10 -8 -18 -16q-4 -4 -5 -6.5t-5 -6.5l-6 -6l256 -438q23 -37 39 -60.5t31.5 -38t32.5 -20.5 t42 -10l31 -4l6 -33h-367l-39 78l-204 368l-70 -63v-315q0 -14 16.5 -20.5t75.5 -12.5l35 -2l4 -33h-485l6 33l32 2q43 6 60.5 11t17.5 24v1069q0 55 -12 75.5t-53 32.5z" />
<glyph unicode="l" horiz-adv-x="546" d="M25 1270l2 24l364 97v-1323q0 -14 16.5 -20.5t71.5 -12.5l33 -2l6 -33h-481l6 33l35 2q45 4 60.5 10t15.5 25v1044q0 74 -13.5 97.5t-54.5 35.5z" />
<glyph unicode="m" horiz-adv-x="1667" d="M33 793l2 24l364 101l-4 -170h6q33 31 70 61.5t78 55t86 40t94 15.5q51 0 92 -17.5t74 -48.5q41 -43 55 -111l6 -2q72 70 156 124.5t182 54.5q96 0 166 -66q35 -37 51.5 -102.5t16.5 -157.5v-524q0 -6 2 -10.5t11 -8.5t29.5 -8t55.5 -8l29 -2l6 -33h-485l6 33l39 2 q51 4 62 13t11 22v495q0 113 -43 156t-127 43q-49 0 -96 -21.5t-63 -50.5v-12t-1 -25.5t-1 -26v-14.5v-546q0 -12 13 -18.5t77 -14.5l32 -2l7 -33h-480l6 33l37 2q47 4 60.5 13t13.5 22v495q0 113 -43 156t-125 43q-51 0 -91 -18.5t-73 -40.5v-228v-409q0 -14 14.5 -21.5 t73.5 -11.5l35 -2l6 -33h-487l6 33l35 2q45 4 63.5 10t18.5 25v548q0 47 -3 77t-12.5 46.5t-27 25.5t-43.5 15z" />
<glyph unicode="n" horiz-adv-x="1122" d="M33 793l2 24l364 101l-4 -170h6q37 31 77 61.5t84 55t91 40t97 15.5q98 0 163 -66q37 -37 53.5 -97.5t16.5 -131.5v-555q0 -6 2 -10.5t12.5 -8.5t30 -8t53.5 -8l29 -2l6 -33h-483l6 33l37 2q51 4 62.5 13t11.5 22v495q0 115 -45.5 157t-126.5 42q-57 0 -102.5 -19.5 t-78.5 -42.5v-301v-333q0 -14 14.5 -21.5t71.5 -11.5l39 -2l4 -33h-487l6 33l35 2q45 4 63.5 10t18.5 25v548q0 47 -3 77t-12.5 46.5t-27 25.5t-43.5 15z" />
<glyph unicode="o" d="M49 444q0 98 37 185.5t103.5 152t157.5 102.5t202 38t199 -37t151.5 -100.5t97 -148.5t33.5 -181q0 -100 -37 -188.5t-103.5 -154t-157.5 -103.5t-202 -38t-199.5 37t-151 101.5t-96.5 150.5t-34 184zM309 473q0 -303 101 -407q49 -54 129 -54q53 0 96 32t71.5 87t44 130 t15.5 163q0 152 -26.5 252t-75.5 149q-23 23 -53.5 38.5t-73.5 15.5q-55 0 -97.5 -31t-72 -86t-44 -129t-14.5 -160z" />
<glyph unicode="p" horiz-adv-x="1101" d="M4 -514l6 33l43 4q43 4 62.5 9t19.5 24v1065q0 47 -4 75.5t-13 45t-25.5 25.5t-43.5 15l-45 11l2 24l365 101l-2 -181l6 -2q61 74 140 125t173 51q78 0 145.5 -32.5t116.5 -91t77 -138.5t28 -174q0 -121 -42 -214t-112 -157.5t-157 -98.5t-179 -34q-59 0 -108 9.5 t-84 23.5h-4v-453q0 -12 16 -19t80 -9l72 -4l6 -33h-539zM369 190q43 -78 103.5 -127t121.5 -49q47 0 85 30t64.5 82t41 124t14.5 153q0 78 -17.5 143.5t-49.5 114t-78 76t-103 27.5t-102.5 -23.5t-79.5 -56.5v-494z" />
<glyph unicode="q" horiz-adv-x="1087" d="M49 414q0 121 42 214t111.5 156.5t160 95t184.5 31.5q72 0 139.5 -15t126.5 -44h2l137 76h15v-1374q0 -16 19.5 -21.5t66.5 -9.5l39 -4l6 -33h-537l6 33l74 4q61 2 76.5 9t15.5 19v596l-4 3q-59 -74 -139 -126.5t-172 -52.5q-78 0 -145.5 34t-117 92.5t-78 140 t-28.5 176.5zM303 485q0 -80 17.5 -147.5t50 -116.5t79 -77.5t103.5 -28.5t101 24.5t79 59.5v491q-41 76 -100.5 126t-118.5 50q-49 0 -89 -28.5t-66.5 -79.5t-41 -121t-14.5 -152z" />
<glyph unicode="r" horiz-adv-x="831" d="M33 793l2 24l364 101l-4 -304h6q53 147 118 226.5t159 79.5q63 0 105 -37t42 -103q0 -47 -34.5 -88t-90.5 -41q-53 0 -89 33t-48 86q-49 -14 -89 -74.5t-77 -177.5v-450q0 -14 17.5 -21.5t81.5 -11.5l53 -2l6 -33h-514l6 33l33 2q45 4 63.5 10t18.5 25v548q0 47 -3 77 t-12.5 46.5t-27 25.5t-43.5 15z" />
<glyph unicode="s" horiz-adv-x="804" d="M57 285l49 -2l52 -117q45 -74 97 -114t128 -40q80 0 128 43t48 113q0 37 -17.5 64.5t-47 49t-69.5 40t-85 34.5q-53 20 -102.5 44t-86 55.5t-58 75.5t-21.5 108q0 61 24.5 113.5t68.5 89.5t106.5 57.5t138.5 20.5q59 0 110 -9.5t92 -23.5l84 20l11 -276l-48 -2l-122 205 q-25 16 -58 30.5t-73 14.5q-72 0 -113 -38t-41 -104q0 -72 59.5 -107.5t155.5 -70.5q53 -20 103.5 -43.5t90 -56.5t63.5 -79t24 -112q0 -57 -24 -110.5t-71 -95.5t-117.5 -66.5t-164.5 -24.5q-88 0 -165 14.5t-136 37.5z" />
<glyph unicode="t" horiz-adv-x="729" d="M4 778l31 70l147 113l183 143l34 -4l-2 -211h314l-27 -109h-289l-10 -497v-9q0 -90 38 -130q40 -42 118 -42q53 0 95 17.5t75 42.5l8 -25q-66 -70 -143.5 -117t-169.5 -47q-122 -1 -186 65q-60 62 -60 190v16l10 530z" />
<glyph unicode="u" horiz-adv-x="1081" d="M0 891h377l-6 -567v-9q0 -103 43 -144q45 -42 131 -42q53 0 96 18.5t74 40.5v318v293q0 31 -17.5 42t-79.5 15l-36 2l-9 33h375v-694q0 -53 10.5 -70.5t40.5 -28.5l84 -20l-4 -23l-364 -88l2 178h-4q-37 -33 -78 -64.5t-84 -56t-89 -39t-95 -14.5q-51 0 -89 17.5 t-75 52.5q-35 37 -51 95q-15 52 -15 118v16l2 555q0 6 -2 10.5t-12 7.5t-30.5 6t-55.5 7l-33 2z" />
<glyph unicode="v" horiz-adv-x="985" d="M-25 891h517l-5 -33l-43 -6q-53 -4 -65 -24q-5 -9 -5 -23q0 -18 9 -45l207 -518l149 393q25 63 32 103t0 62.5t-30.5 34t-64.5 15.5l-43 8l-6 33h370l-6 -33l-39 -6q-31 -4 -51 -13.5t-36.5 -34t-34 -66.5t-46.5 -113l-249 -645h-84l-322 768q-12 31 -22.5 49t-21.5 29.5 t-26.5 17.5t-38.5 8l-36 6z" />
<glyph unicode="w" horiz-adv-x="1521" d="M-23 891h500l-4 -33l-43 -6q-48 -4 -60 -22q-5 -7 -4 -20q0 -18 11 -46l194 -526l166 426l-32 88q-25 59 -47.5 76.5t-63.5 23.5l-37 6l-6 33h502l-4 -33l-43 -6q-51 -6 -59.5 -25.5t5.5 -62.5l197 -520l129 381q23 61 30 101q3 19 3 35q1 17 -3 31q-8 26 -33.5 39 t-68.5 19l-37 8l-6 33h369l-6 -33l-37 -8q-31 -2 -51.5 -11.5t-37 -34t-32.5 -67.5t-41 -114l-225 -643h-86l-254 626l-248 -626h-86l-295 753q-14 35 -24.5 57.5t-22.5 35t-27.5 18.5t-40.5 8l-36 6z" />
<glyph unicode="x" horiz-adv-x="999" d="M-2 0l6 33l45 8q31 6 55.5 17.5t50 33t55.5 57t73 91.5l125 157l-213 316q-49 72 -83 103.5t-75 35.5l-33 6l-6 33h514l-6 -33l-39 -6q-47 -6 -47 -35t39 -86l116 -178h3l86 117q39 53 57 87t17 54t-20.5 29.5t-60.5 11.5l-32 6l-7 33h373l-6 -33l-49 -10 q-31 -6 -54.5 -16.5t-49 -33t-55 -57t-72.5 -90.5l-103 -131l232 -342q47 -72 80.5 -102.5t68.5 -36.5l33 -6l6 -33h-508l6 33l35 6q51 4 51 33.5t-37 83.5l-137 209h-2l-106 -144q-39 -51 -58.5 -86t-18.5 -55.5t20.5 -29.5t58.5 -13l36 -4l7 -33h-371z" />
<glyph unicode="y" horiz-adv-x="983" d="M-27 891h512l-6 -33l-41 -6q-53 -6 -64 -26q-5 -6 -5 -17q0 -19 14 -49l215 -506l139 385q23 61 31 100t0 61.5t-31.5 33t-66.5 16.5l-41 8l-6 33h370l-6 -33l-41 -6q-31 -2 -50 -11.5t-35.5 -34t-34 -66.5t-44.5 -113l-227 -604l-92 -281q-47 -137 -105.5 -203.5 t-148.5 -66.5q-55 0 -99 33.5t-44 93.5q0 47 32.5 81.5t85.5 34.5q59 0 91 -32.5t42 -73.5q35 10 58.5 48t50.5 116l70 198h-19l-348 777q-14 31 -24.5 49t-21.5 28.5t-26.5 16.5t-40.5 8l-36 8z" />
<glyph unicode="z" horiz-adv-x="929" d="M43 0v29l537 821l-91 -2q-78 -2 -130 -15.5t-87.5 -38t-60.5 -61.5t-45 -86l-41 -102h-43v346h774v-31l-543 -817h99q84 2 146.5 19.5t108.5 46t77.5 69.5t56.5 88l43 84h43l-70 -350h-774z" />
<glyph unicode="{" horiz-adv-x="673" d="M8 414l10 26q127 12 199 46t72 118q0 41 -16.5 89t-36 100.5t-36 107.5t-16.5 113q0 68 34 125t94.5 101t144.5 71.5t184 34.5l2 -31q-135 -16 -199.5 -68.5t-64.5 -130.5q0 -49 16.5 -100t36 -106.5t35.5 -112t16 -113.5q0 -111 -92 -178.5t-285 -87.5v-10 q377 -39 377 -267q0 -57 -16 -113.5t-35.5 -110.5t-36 -106.5t-16.5 -101.5q0 -78 64.5 -129t199.5 -67l-2 -31q-100 6 -184 33.5t-144.5 70.5t-94.5 101.5t-34 126.5q0 57 16.5 112.5t36 107.5t36 99t16.5 90q0 82 -64.5 117t-206.5 47z" />
<glyph unicode="|" horiz-adv-x="387" d="M172 -451v1797h45v-1797h-45z" />
<glyph unicode="}" horiz-adv-x="673" d="M10 -487q135 16 199.5 67t64.5 129q0 49 -16 101.5t-35.5 106.5t-36 110.5t-16.5 113.5q0 227 377 267v10q-193 20 -285 87.5t-92 178.5q0 57 16.5 113.5t36 112t35.5 106.5t16 100q0 78 -64.5 130t-199.5 69l4 31q98 -6 182.5 -34t144.5 -72t94 -101.5t34 -124.5 q0 -57 -16.5 -112.5t-36 -108t-35.5 -100.5t-16 -89q0 -84 73.5 -117.5t198.5 -46.5l8 -26l-8 -27q-141 -12 -206.5 -47t-65.5 -117q0 -43 16 -90t35.5 -99t36 -107.5t16.5 -112.5q0 -68 -34 -126.5t-94 -101.5t-144 -70.5t-183 -33.5z" />
<glyph unicode="~" horiz-adv-x="804" d="M68 334q14 145 53 202.5t125 57.5q47 0 97 -20.5t99.5 -46t92.5 -46t75 -20.5q33 0 56.5 19.5t35.5 94.5h33q-12 -143 -51 -201.5t-125 -58.5q-47 0 -98 20.5t-99.5 46.5t-92.5 46.5t-76 20.5q-14 0 -28.5 -3.5t-26 -15.5t-19.5 -34.5t-15 -61.5h-36z" />
<glyph unicode="&#xa1;" horiz-adv-x="567" d="M145 1165q0 55 40 97.5t100 42.5q59 0 99 -42t40 -98q0 -55 -40 -95t-99 -40t-99.5 41t-40.5 94zM154 94l114 783q4 10 15.5 10t15.5 -10l113 -783q4 -25 1 -48t-16.5 -40.5t-40 -28t-69.5 -10.5h-4q-88 0 -113 39t-16 88z" />
<glyph unicode="&#xa2;" horiz-adv-x="899" d="M49 426q0 106 37 197.5t102.5 158t155.5 104.5t197 38q29 0 56.5 -4.5t53.5 -8.5l90 344h45l-96 -354q78 -23 125 -71t47 -113q0 -53 -33.5 -88t-80.5 -35q-43 0 -73 23.5t-42 58.5l-141 -529q53 -27 110 -26q80 0 142.5 36t111.5 115l25 -10q-59 -137 -161 -215 t-243 -78q-20 0 -31 2l-79 -297h-41l77 301q-78 12 -143 52.5t-112.5 99.5t-73 135t-25.5 164zM301 506q0 -123 41 -209t111 -131l182 682q-18 12 -43 21.5t-49 9.5q-104 0 -173 -99.5t-69 -273.5z" />
<glyph unicode="&#xa3;" horiz-adv-x="1126" d="M0 117q0 80 65.5 135t182.5 55q41 0 86 -8t92 -23q2 10 2 33q0 66 -23.5 136.5t-52.5 142.5h-227l6 43h205q-16 47 -27.5 95t-11.5 95q0 102 39 188.5t108.5 149t165 97t205.5 34.5q123 0 187.5 -46t64.5 -132q0 -47 -38 -85t-91 -38q-43 0 -71.5 22.5t-42 56.5t-10.5 73 t24 73q-8 8 -33 19.5t-60 11.5q-39 0 -75.5 -16.5t-65.5 -50t-45 -87t-16 -128.5q0 -59 13 -145.5t22 -186.5h266l6 -43h-268q2 -16 2 -34.5v-37.5q0 -59 -19.5 -129t-54.5 -137q90 -31 178 -58.5t168 -27.5q45 0 79 10t57.5 37t39 72t23.5 114l28 -6q0 -82 -20.5 -158.5 t-60 -135t-97 -93.5t-129.5 -35q-55 0 -105 11.5t-95.5 30t-86 42t-79.5 47.5q-53 -59 -115 -95t-131 -36q-72 0 -118 41t-46 107zM39 113q0 -49 37 -78t90 -29t108.5 34t94.5 87q-57 39 -108.5 65.5t-100.5 26.5q-53 0 -87 -27.5t-34 -78.5z" />
<glyph unicode="&#xa4;" horiz-adv-x="1058" d="M10 461l6 43h119q-6 55 -6 102q0 29 2 58.5t8 58.5h-129l6 43h129q25 121 80.5 218t132 165t170 104.5t191.5 36.5q141 0 223 -47t82 -133q0 -47 -37 -83t-90 -36q-43 0 -72.5 21.5t-44 55.5t-11.5 73t24 71q-16 10 -36 20.5t-59 10.5q-66 0 -120 -36t-95 -98 t-66.5 -150.5t-35.5 -192.5h393l6 -43h-403v-68q0 -37 2 -74.5t8 -76.5h387l6 -43h-383q37 -160 128 -248t223 -88q92 0 161.5 38t122.5 122l23 -15q-66 -137 -170.5 -217t-251.5 -80q-92 0 -173 34t-145.5 96.5t-109.5 153.5t-64 204h-131z" />
<glyph unicode="&#xa5;" horiz-adv-x="1271" d="M-20 1280h634l-6 -35l-55 -4q-72 -4 -81 -44t40 -126l231 -428h5l124 238q55 109 82 175t26 105t-31.5 55.5t-90.5 24.5l-45 6l-8 33h473l-6 -33l-43 -8q-31 -6 -59.5 -18.5t-58.5 -41t-61.5 -75.5t-70.5 -121q-53 -98 -96 -178q-18 -33 -36 -65.5t-31 -58.5t-22 -41 l-10 -15h367l-2 -45h-375v-220h373l6 -43h-379v-237q0 -14 16.5 -21.5t81.5 -13.5l89 -10l6 -35h-652l7 35l104 12q45 4 63.5 14.5t18.5 22.5v233h-373l6 43h369v220h-371l-2 45h350l-11 21q-11 20 -29.5 51.5t-43 73.5t-49.5 85l-135 229q-25 41 -45 69t-39.5 45.5 t-42 26.5t-53.5 11l-51 8z" />
<glyph unicode="&#xa7;" horiz-adv-x="860" d="M23 623q0 84 54 144t126 99q-68 72 -68 160q0 61 29 112.5t77 89.5t109.5 59.5t126.5 21.5q117 0 188.5 -40t71.5 -118q0 -45 -31.5 -78t-78.5 -33q-37 0 -62.5 17.5t-40 45t-16.5 64.5t6 74q-18 10 -37.5 18.5t-46.5 8.5q-68 0 -106.5 -43t-38.5 -95q0 -39 20.5 -69.5 t56 -58t81.5 -52t98 -49.5q55 -27 108 -57.5t95 -66.5t69 -81t27 -104q0 -84 -54.5 -146.5t-126.5 -101.5q70 -70 70 -160q0 -61 -29.5 -113.5t-79 -90t-112.5 -60t-129 -22.5q-117 0 -191.5 41t-74.5 118q0 43 28.5 77t75.5 34q37 0 64.5 -16.5t42 -44t16.5 -64.5t-10 -76 q18 -10 43.5 -18t54.5 -8q68 0 109 45t41 96q0 39 -20.5 69.5t-56.5 57.5t-82 51.5t-97 50.5q-53 29 -106.5 58.5t-96.5 66.5t-69.5 83t-26.5 104zM160 735q0 -78 63.5 -126t163.5 -99q72 -37 137.5 -71t114.5 -77q31 23 47 50.5t16 64.5q0 78 -63.5 126t-165.5 97 q-70 39 -135.5 73t-112.5 75q-29 -23 -47 -49.5t-18 -63.5z" />
<glyph unicode="&#xa8;" horiz-adv-x="808" d="M72 1180q0 45 33.5 87t95.5 42q61 0 93 -42t32 -87q0 -47 -32 -87t-93 -40t-95 40t-34 87zM485 1180q0 45 32 87t93 42t93 -42t32 -87q0 -47 -32 -87t-93 -40t-93 40t-32 87z" />
<glyph unicode="&#xa9;" horiz-adv-x="1480" d="M57 639q0 143 53.5 268t146.5 218.5t218 147.5t266 54t266.5 -54t218.5 -147.5t146 -218.5t53 -268q0 -141 -53 -265t-146 -217.5t-218.5 -146.5t-266.5 -53t-266 53t-218 146.5t-146.5 217.5t-53.5 265zM96 639q0 -133 51.5 -251t138.5 -206t204.5 -139t250.5 -51 t250 51t205 139t138 206t50 251t-50 252t-138 208t-205 140t-250 51t-250.5 -51t-204.5 -140t-138.5 -208t-51.5 -252zM330 635q0 84 30.5 157.5t89 128t140.5 86t182 31.5q59 0 111.5 -12t81.5 -29l88 27l6 -260h-31l-104 201q-53 43 -154 43q-63 0 -112.5 -27t-84 -75 t-53 -113.5t-18.5 -145.5q0 -84 20.5 -154.5t57 -120.5t87 -78t109.5 -28q80 0 132.5 38t90.5 104l50 106h30l-35 -231l-53 -2q-18 -8 -44.5 -15.5t-57.5 -13.5t-62.5 -10t-60.5 -4q-102 0 -183 30.5t-137.5 85t-86 127t-29.5 154.5z" />
<glyph unicode="&#xaa;" horiz-adv-x="733" d="M39 1116q0 37 38 72t93 60.5t119.5 41t118.5 15.5q115 0 174 -58.5t53 -175.5l-12 -297q-2 -92 55 -92q20 0 37.5 9t34.5 26l8 -17q-14 -20 -32.5 -41.5t-42.5 -40t-52.5 -29.5t-59.5 -11q-113 0 -131 139h-4q-53 -66 -110.5 -102.5t-116.5 -36.5q-68 0 -116 44t-48 109 q0 82 92 146.5t307 115.5l2 56q2 94 -46 143t-119 49q-47 0 -67.5 -15.5t-20.5 -21.5q0 -10 18 -35.5t18 -54.5q0 -35 -27.5 -58.5t-68.5 -23.5q-39 0 -66.5 22.5t-27.5 61.5zM231 799q0 -49 27 -79t68 -30q29 0 57.5 16.5t52.5 41.5l8 215q-121 -29 -167 -72t-46 -92z" />
<glyph unicode="&#xab;" horiz-adv-x="950" d="M35 426v57l454 324l11 -16l-244 -338l244 -336l-11 -17zM442 426v57l465 346l13 -16l-265 -360l263 -357l-11 -16z" />
<glyph unicode="&#xad;" horiz-adv-x="606" d="M47 438l6 94h508l-4 -94h-510z" />
<glyph unicode="&#xae;" horiz-adv-x="1480" d="M57 641q0 141 53.5 266t146.5 218.5t218 147.5t266 54t266.5 -54t218.5 -147.5t146 -218.5t53 -266t-53 -266t-146 -218.5t-218.5 -146.5t-266.5 -53t-266 53t-218 146.5t-146.5 218.5t-53.5 266zM96 641q0 -133 51.5 -251t138.5 -206t204.5 -139t250.5 -51t251 51 t205 139t137 206t50 251t-50 252t-137 207t-205 139t-251 51t-250.5 -51t-204.5 -139t-138.5 -207t-51.5 -252zM358 258l7 31l53 6q51 6 51 22v650q0 8 -10 12t-49 8l-45 8l-5 29h357q168 0 250 -51t82 -146q0 -72 -51.5 -125t-137.5 -73l154 -238q37 -59 64.5 -74.5 t66.5 -23.5l22 -4l4 -31h-268l-20 41l-185 322q-12 4 -34.5 8t-36.5 8v-324q0 -12 57 -18l49 -6l4 -31h-379zM627 672q20 -8 47 -12.5t43 -6.5q76 2 120 45t44 127q0 86 -55.5 127t-147.5 37h-51v-317z" />
<glyph unicode="&#xaf;" horiz-adv-x="774" d="M106 1083l23 97h537l-17 -97h-543z" />
<glyph unicode="&#xb0;" horiz-adv-x="659" d="M49 1032q0 57 19.5 109.5t55.5 91.5t88 61.5t118 22.5t118 -22.5t87.5 -61.5t55 -91t19.5 -110q0 -57 -19.5 -108.5t-55 -90t-87.5 -61t-118 -22.5q-63 0 -115.5 22.5t-89.5 61t-56.5 90t-19.5 108.5zM96 1032q0 -100 62.5 -170.5t171.5 -70.5t172 70.5t63 170.5 q0 49 -16.5 94t-47 78t-74.5 52.5t-97 19.5t-96.5 -19.5t-74 -52.5t-47 -78t-16.5 -94z" />
<glyph unicode="&#xb1;" horiz-adv-x="733" d="M82 975h571l-6 -35l-74 -8q-41 -4 -62.5 -11.5t-21.5 -25.5v-819q0 -12 18.5 -20.5t72.5 -12.5l71 -8l6 -35h-571l6 35l76 8q41 4 61.5 11t20.5 26v819q0 12 -18.5 20.5t-71.5 12.5l-72 8z" />
<glyph unicode="&#xb4;" horiz-adv-x="819" d="M287 1020l205 379h245l-413 -379h-37z" />
<glyph unicode="&#xb6;" horiz-adv-x="919" d="M55 887q0 193 132 293t411 100h205v-1346h-55v580q-33 -6 -82.5 -10t-90.5 -4q-119 0 -215 26.5t-163.5 76.5t-104.5 122t-37 162z" />
<glyph unicode="&#xb7;" horiz-adv-x="452" d="M80 481q0 57 42 99.5t103 42.5t102.5 -43t41.5 -99q0 -59 -41.5 -102t-102.5 -43t-103 43t-42 102z" />
<glyph unicode="&#xb8;" horiz-adv-x="802" d="M184 -242l232 248h47l-127 -133q66 8 123 -1t100 -31.5t67.5 -58.5t24.5 -79q0 -66 -40 -111t-104.5 -75.5t-144 -48t-161.5 -25.5l-11 22q154 25 236 67t82 114q0 59 -51 85.5t-123 26.5q-78 0 -150 -22v22z" />
<glyph unicode="&#xba;" horiz-adv-x="831" d="M35 932q0 78 28.5 144.5t79 117.5t121 80t156.5 29t155.5 -29t117.5 -78t75 -114.5t27 -139.5q0 -78 -28 -145.5t-78 -117.5t-120.5 -79t-156.5 -29t-156 29t-119 78t-75.5 114.5t-26.5 139.5zM246 952q0 -123 19.5 -197.5t56.5 -111.5q20 -20 44.5 -29.5t49.5 -9.5 q41 0 70.5 25.5t51 68.5t32 100.5t10.5 123.5q0 119 -18.5 194.5t-53.5 110.5q-23 23 -45.5 32t-48.5 9q-43 0 -75 -24.5t-52.5 -67.5t-30.5 -100.5t-10 -123.5z" />
<glyph unicode="&#xbb;" horiz-adv-x="948" d="M37 96l262 357l-260 360l10 16l467 -346v-57l-467 -346zM457 117l241 336l-239 338l8 16l455 -324v-57l-455 -326z" />
<glyph unicode="&#xbf;" horiz-adv-x="702" d="M68 393q0 57 10 97t32.5 68t56.5 48.5t83 40.5q92 35 138 58.5t46 66.5q0 39 -21.5 68.5t-62.5 64.5l35 6q31 -23 61.5 -52.5t54 -61t39 -64.5t15.5 -61q0 -45 -17.5 -76t-49 -54.5t-75.5 -42t-98 -36.5q-104 -35 -149 -62.5t-45 -66.5q0 -61 81 -108.5t226 -47.5 q51 0 93 7.5t73 15.5q20 -16 33.5 -44t15.5 -63q2 -53 -37 -88t-127 -35q-92 0 -167.5 36t-130 95.5t-84 135t-29.5 155.5zM238 1169q0 55 39.5 97.5t99.5 42.5q57 0 98 -41t41 -99q0 -55 -41 -95t-98 -40q-59 0 -99 41t-40 94z" />
<glyph unicode="&#xc0;" horiz-adv-x="1329" d="M-27 0l7 35l38 6q45 6 75 19.5t57.5 54.5t59.5 118.5t81 212.5l233 650l-16 69q25 6 52.5 21.5t54 36t48 44t31.5 48.5h37l365 -1065q23 -63 40 -102t36.5 -62t41 -32t52.5 -11l61 -8l6 -35h-635l7 35l59 6q37 4 56.5 14.5t24.5 33t-2 58t-26 89.5l-90 276h-362l-58 -168 q-31 -92 -47 -148.5t-10 -89t35.5 -46t91.5 -19.5l47 -6l6 -35h-457zM279 1741h248l202 -379h-34zM381 557h332l-156 481h-8z" />
<glyph unicode="&#xc1;" horiz-adv-x="1329" d="M-27 0l7 35l38 6q45 6 75 19.5t57.5 54.5t59.5 118.5t81 212.5l233 650l-16 69q25 6 52.5 21.5t54 36t48 44t31.5 48.5h37l365 -1065q23 -63 40 -102t36.5 -62t41 -32t52.5 -11l61 -8l6 -35h-635l7 35l59 6q37 4 56.5 14.5t24.5 33t-2 58t-26 89.5l-90 276h-362l-58 -168 q-31 -92 -47 -148.5t-10 -89t35.5 -46t91.5 -19.5l47 -6l6 -35h-457zM381 557h332l-156 481h-8zM555 1362l205 379h245l-413 -379h-37z" />
<glyph unicode="&#xc2;" horiz-adv-x="1329" d="M-27 0l7 35l38 6q45 6 75 19.5t57.5 54.5t59.5 118.5t81 212.5l233 650l-16 69q25 6 52.5 21.5t54 36t48 44t31.5 48.5h37l365 -1065q23 -63 40 -102t36.5 -62t41 -32t52.5 -11l61 -8l6 -35h-635l7 35l59 6q37 4 56.5 14.5t24.5 33t-2 58t-26 89.5l-90 276h-362l-58 -168 q-31 -92 -47 -148.5t-10 -89t35.5 -46t91.5 -19.5l47 -6l6 -35h-457zM373 1348l279 403h39l278 -403h-31l-264 200h-4l-268 -200h-29zM381 557h332l-156 481h-8z" />
<glyph unicode="&#xc3;" horiz-adv-x="1329" d="M-27 0l7 35l38 6q45 6 75 19.5t57.5 54.5t59.5 118.5t81 212.5l233 650l-16 69q25 6 52.5 21.5t54 36t48 44t31.5 48.5h37l365 -1065q23 -63 40 -102t36.5 -62t41 -32t52.5 -11l61 -8l6 -35h-635l7 35l59 6q37 4 56.5 14.5t24.5 33t-2 58t-26 89.5l-90 276h-362l-58 -168 q-31 -92 -47 -148.5t-10 -89t35.5 -46t91.5 -19.5l47 -6l6 -35h-457zM330 1395q14 145 53 202.5t125 57.5q47 0 97 -20.5t99.5 -46t92.5 -46t75 -20.5q33 0 56.5 19.5t35.5 94.5h33q-12 -143 -51 -201.5t-125 -58.5q-47 0 -98 20.5t-99.5 46t-92.5 46t-76 20.5 q-14 0 -28.5 -3t-26 -15t-19.5 -34.5t-15 -61.5h-36zM381 557h332l-156 481h-8z" />
<glyph unicode="&#xc4;" horiz-adv-x="1329" d="M-27 0l7 35l38 6q45 6 75 19.5t57.5 54.5t59.5 118.5t81 212.5l233 650l-16 69q25 6 52.5 21.5t54 36t48 44t31.5 48.5h37l365 -1065q23 -63 40 -102t36.5 -62t41 -32t52.5 -11l61 -8l6 -35h-635l7 35l59 6q37 4 56.5 14.5t24.5 33t-2 58t-26 89.5l-90 276h-362l-58 -168 q-31 -92 -47 -148.5t-10 -89t35.5 -46t91.5 -19.5l47 -6l6 -35h-457zM332 1522q0 45 33.5 87t95.5 42q61 0 93 -42t32 -87q0 -47 -32 -87t-93 -40t-95 40t-34 87zM381 557h332l-156 481h-8zM745 1522q0 45 32 87t93 42t93 -42t32 -87q0 -47 -32 -87t-93 -40t-93 40t-32 87z " />
<glyph unicode="&#xc5;" horiz-adv-x="1329" d="M-27 0l7 35l38 6q45 6 76 19.5t58.5 54.5t58.5 118.5t80 212.5l295 816q-55 23 -84 68.5t-29 103.5q0 78 50 134t139 56q86 0 136 -56.5t50 -133.5q0 -53 -25.5 -98.5t-72.5 -67.5l346 -1018q23 -63 40 -102t36.5 -62t41 -32t52.5 -11l61 -8l6 -35h-635l7 35l59 6 q37 4 56.5 14.5t24.5 33t-2 58t-26 89.5l-88 274h-364l-58 -166q-31 -92 -47 -148.5t-10 -89t35.5 -46t91.5 -19.5l47 -6l6 -35h-457zM381 557h332l-7 21q-6 20 -17 54t-25.5 78t-28.5 89l-78 241h-8zM508 1434q0 -63 41 -110.5t113 -47.5t111.5 47t39.5 111q0 63 -40 110 t-111 47q-72 0 -113 -47t-41 -110z" />
<glyph unicode="&#xc6;" horiz-adv-x="1796" d="M-96 0l6 35l67 8q31 6 60 20.5t63.5 52.5t77.5 106.5t103 178.5l389 725q14 27 18 46.5t-6 33t-37 21.5t-74 12l-75 8l-7 33h1156l14 -420h-51l-19 68q-25 88 -55.5 147.5t-78.5 96t-116.5 51t-171.5 14.5l-127 -2v-561l60 2q59 2 102 10t74 26.5t51.5 46t32.5 70.5 l22 66h43l-53 -492l-39 3l-6 63q-4 45 -16.5 74.5t-38 48t-71.5 28t-118 11.5l-43 2v-584l144 -6q109 0 184.5 21.5t129.5 62.5t91 99.5t64 131.5l18 62h53l-51 -420h-1085l6 33l102 12q45 6 63.5 16.5t18.5 22.5v432h-383l-90 -172q-43 -82 -62.5 -137t-16.5 -90t28 -52.5 t68 -23.5l57 -6l6 -35h-481zM422 563h356v654h-8z" />
<glyph unicode="&#xc7;" horiz-adv-x="1419" d="M66 627q0 147 52 272t149.5 216t236.5 142.5t313 51.5q96 0 186.5 -22.5t137.5 -47.5l147 43l10 -424h-51l-172 342q-41 27 -106.5 44.5t-149.5 17.5q-111 0 -197.5 -47.5t-146 -129t-90.5 -194.5t-31 -246q0 -143 35 -259t96.5 -198t145.5 -126t184 -44 q139 0 229.5 59.5t157.5 170.5l76 178h55l-61 -381h-88q-27 -12 -67 -23.5t-87 -21.5t-99 -17.5t-102 -9.5l-96 -100q66 8 123 -1t100 -31.5t68 -58.5t25 -79q0 -66 -40 -111t-104.5 -75.5t-144.5 -48t-162 -25.5l-10 22q154 25 235.5 67t81.5 114q0 59 -51 85.5t-123 26.5 q-78 0 -149 -22v22l200 215q-162 2 -294 51.5t-226 135.5t-145 204.5t-51 262.5z" />
<glyph unicode="&#xc8;" horiz-adv-x="1267" d="M45 0l6 33l74 8q49 6 70.5 15.5t21.5 21.5v1130q0 6 -3 10.5t-14.5 8.5t-33 7t-55.5 5l-58 8l-6 33h1067l14 -420h-53l-18 68q-25 88 -57.5 147.5t-83 96t-122 51t-173.5 14.5l-138 -2v-561l76 2q121 4 181.5 36.5t86.5 116.5l23 66h43l-51 -492l-41 3l-8 63 q-4 45 -16.5 74.5t-40 48t-74 28t-117.5 11.5l-62 2v-584l170 -6q106 0 182 21.5t130.5 62.5t91.5 99.5t63 131.5l21 62h53l-53 -420h-1096zM291 1741h248l202 -379h-34z" />
<glyph unicode="&#xc9;" horiz-adv-x="1267" d="M45 0l6 33l74 8q49 6 70.5 15.5t21.5 21.5v1130q0 6 -3 10.5t-14.5 8.5t-33 7t-55.5 5l-58 8l-6 33h1067l14 -420h-53l-18 68q-25 88 -57.5 147.5t-83 96t-122 51t-173.5 14.5l-138 -2v-561l76 2q121 4 181.5 36.5t86.5 116.5l23 66h43l-51 -492l-41 3l-8 63 q-4 45 -16.5 74.5t-40 48t-74 28t-117.5 11.5l-62 2v-584l170 -6q106 0 182 21.5t130.5 62.5t91.5 99.5t63 131.5l21 62h53l-53 -420h-1096zM529 1362l205 379h245l-413 -379h-37z" />
<glyph unicode="&#xca;" horiz-adv-x="1267" d="M45 0l6 33l74 8q49 6 70.5 15.5t21.5 21.5v1130q0 6 -3 10.5t-14.5 8.5t-33 7t-55.5 5l-58 8l-6 33h1067l14 -420h-53l-18 68q-25 88 -57.5 147.5t-83 96t-122 51t-173.5 14.5l-138 -2v-561l76 2q121 4 181.5 36.5t86.5 116.5l23 66h43l-51 -492l-41 3l-8 63 q-4 45 -16.5 74.5t-40 48t-74 28t-117.5 11.5l-62 2v-584l170 -6q106 0 182 21.5t130.5 62.5t91.5 99.5t63 131.5l21 62h53l-53 -420h-1096zM344 1348l279 403h39l278 -403h-31l-264 200h-4l-268 -200h-29z" />
<glyph unicode="&#xcb;" horiz-adv-x="1267" d="M45 0l6 33l74 8q49 6 70.5 15.5t21.5 21.5v1130q0 6 -3 10.5t-14.5 8.5t-33 7t-55.5 5l-58 8l-6 33h1067l14 -420h-53l-18 68q-25 88 -57.5 147.5t-83 96t-122 51t-173.5 14.5l-138 -2v-561l76 2q121 4 181.5 36.5t86.5 116.5l23 66h43l-51 -492l-41 3l-8 63 q-4 45 -16.5 74.5t-40 48t-74 28t-117.5 11.5l-62 2v-584l170 -6q106 0 182 21.5t130.5 62.5t91.5 99.5t63 131.5l21 62h53l-53 -420h-1096zM308 1522q0 45 33.5 87t95.5 42q61 0 93 -42t32 -87q0 -47 -32 -87t-93 -40t-95 40t-34 87zM721 1522q0 45 32 87t93 42t93 -42 t32 -87q0 -47 -32 -87t-93 -40t-93 40t-32 87z" />
<glyph unicode="&#xcc;" horiz-adv-x="747" d="M19 1741h248l202 -379h-34zM61 0l7 33l84 8q90 8 90 37v1130q0 6 -3 10.5t-14.5 8.5t-33 7t-56.5 5l-67 8l-7 33h625l-6 -33l-84 -8q-51 -4 -70.5 -15.5t-19.5 -21.5v-1130q0 -12 18.5 -18.5t85.5 -12.5l68 -8l6 -33h-623z" />
<glyph unicode="&#xcd;" horiz-adv-x="747" d="M61 0l7 33l84 8q90 8 90 37v1130q0 6 -3 10.5t-14.5 8.5t-33 7t-56.5 5l-67 8l-7 33h625l-6 -33l-84 -8q-51 -4 -70.5 -15.5t-19.5 -21.5v-1130q0 -12 18.5 -18.5t85.5 -12.5l68 -8l6 -33h-623zM285 1362l205 379h245l-413 -379h-37z" />
<glyph unicode="&#xce;" horiz-adv-x="747" d="M61 0l7 33l84 8q90 8 90 37v1130q0 6 -3 10.5t-14.5 8.5t-33 7t-56.5 5l-67 8l-7 33h625l-6 -33l-84 -8q-51 -4 -70.5 -15.5t-19.5 -21.5v-1130q0 -12 18.5 -18.5t85.5 -12.5l68 -8l6 -33h-623zM78 1348l279 403h39l278 -403h-31l-264 200h-4l-268 -200h-29z" />
<glyph unicode="&#xcf;" horiz-adv-x="747" d="M45 1522q0 45 33.5 87t95.5 42q61 0 93 -42t32 -87q0 -47 -32 -87t-93 -40t-95 40t-34 87zM61 0l7 33l84 8q90 8 90 37v1130q0 6 -3 10.5t-14.5 8.5t-33 7t-56.5 5l-67 8l-7 33h625l-6 -33l-84 -8q-51 -4 -70.5 -15.5t-19.5 -21.5v-1130q0 -12 18.5 -18.5t85.5 -12.5 l68 -8l6 -33h-623zM458 1522q0 45 32 87t93 42t93 -42t32 -87q0 -47 -32 -87t-93 -40t-93 40t-32 87z" />
<glyph unicode="&#xd0;" horiz-adv-x="1421" d="M35 0l6 33l94 14q45 4 63.5 14.5t18.5 22.5v537h-176l6 47h170v532q0 25 -96 35l-78 12l-6 33q168 0 299 2q55 0 108.5 1t95.5 1h65.5t21.5 0q178 2 316 -42t231.5 -126t141.5 -198.5t48 -258.5q0 -135 -53.5 -255.5t-151.5 -210t-239.5 -141.5t-317.5 -52h-567zM481 78 l140 -35q111 0 196.5 45t143 123t87 181.5t29.5 219.5q0 141 -29.5 256t-92 197t-156.5 127t-224 45h-94v-569h252l6 -47h-258v-543z" />
<glyph unicode="&#xd1;" horiz-adv-x="1452" d="M12 1280h457l713 -895h6l-2 676q0 51 -7.5 84t-24.5 52.5t-46 28.5t-74 13l-59 8l-6 33h461l-7 -33l-57 -8q-72 -6 -100.5 -44t-28.5 -144l-6 -1063h-72l-870 1079h-6l2 -850q0 -51 7 -83t24.5 -51.5t47 -28.5t72.5 -13l62 -8l6 -33h-463l6 33l57 8q74 6 101.5 44 t27.5 142l7 867q-31 53 -75 92t-104 49l-43 12zM422 1395q14 145 53 202.5t125 57.5q47 0 97 -20.5t99.5 -46t92.5 -46t75 -20.5q33 0 56.5 19.5t35.5 94.5h33q-12 -143 -51 -201.5t-125 -58.5q-47 0 -98 20.5t-99.5 46t-92.5 46t-76 20.5q-14 0 -28.5 -3t-26 -15 t-19.5 -34.5t-15 -61.5h-36z" />
<glyph unicode="&#xd2;" horiz-adv-x="1527" d="M66 635q0 137 56 259t152.5 214t225.5 145.5t274 53.5q152 0 278 -48.5t217 -135.5t142 -209.5t51 -272.5q0 -137 -56 -259t-152.5 -213t-225.5 -144.5t-274 -53.5q-152 0 -278 48.5t-217 135.5t-142 209.5t-51 270.5zM354 643q0 -301 114 -464t302 -163t293.5 154 t105.5 465q0 150 -29.5 266.5t-84 196.5t-130 122t-167.5 42q-190 0 -297 -154t-107 -465zM410 1741h248l202 -379h-34z" />
<glyph unicode="&#xd3;" horiz-adv-x="1527" d="M66 635q0 137 56 259t152.5 214t225.5 145.5t274 53.5q152 0 278 -48.5t217 -135.5t142 -209.5t51 -272.5q0 -137 -56 -259t-152.5 -213t-225.5 -144.5t-274 -53.5q-152 0 -278 48.5t-217 135.5t-142 209.5t-51 270.5zM354 643q0 -301 114 -464t302 -163t293.5 154 t105.5 465q0 150 -29.5 266.5t-84 196.5t-130 122t-167.5 42q-190 0 -297 -154t-107 -465zM676 1362l205 379h245l-413 -379h-37z" />
<glyph unicode="&#xd4;" horiz-adv-x="1527" d="M66 635q0 137 56 259t152.5 214t225.5 145.5t274 53.5q152 0 278 -48.5t217 -135.5t142 -209.5t51 -272.5q0 -137 -56 -259t-152.5 -213t-225.5 -144.5t-274 -53.5q-152 0 -278 48.5t-217 135.5t-142 209.5t-51 270.5zM354 643q0 -301 114 -464t302 -163t293.5 154 t105.5 465q0 150 -29.5 266.5t-84 196.5t-130 122t-167.5 42q-190 0 -297 -154t-107 -465zM467 1348l279 403h39l278 -403h-31l-264 200h-4l-268 -200h-29z" />
<glyph unicode="&#xd5;" horiz-adv-x="1527" d="M66 635q0 137 56 259t152.5 214t225.5 145.5t274 53.5q152 0 278 -48.5t217 -135.5t142 -209.5t51 -272.5q0 -137 -56 -259t-152.5 -213t-225.5 -144.5t-274 -53.5q-152 0 -278 48.5t-217 135.5t-142 209.5t-51 270.5zM354 643q0 -301 114 -464t302 -163t293.5 154 t105.5 465q0 150 -29.5 266.5t-84 196.5t-130 122t-167.5 42q-190 0 -297 -154t-107 -465zM441 1395q14 145 53 202.5t125 57.5q47 0 97 -20.5t99.5 -46t92.5 -46t75 -20.5q33 0 56.5 19.5t35.5 94.5h33q-12 -143 -51 -201.5t-125 -58.5q-47 0 -98 20.5t-99.5 46t-92.5 46 t-76 20.5q-14 0 -28.5 -3t-26 -15t-19.5 -34.5t-15 -61.5h-36z" />
<glyph unicode="&#xd6;" horiz-adv-x="1527" d="M66 635q0 137 56 259t152.5 214t225.5 145.5t274 53.5q152 0 278 -48.5t217 -135.5t142 -209.5t51 -272.5q0 -137 -56 -259t-152.5 -213t-225.5 -144.5t-274 -53.5q-152 0 -278 48.5t-217 135.5t-142 209.5t-51 270.5zM354 643q0 -301 114 -464t302 -163t293.5 154 t105.5 465q0 150 -29.5 266.5t-84 196.5t-130 122t-167.5 42q-190 0 -297 -154t-107 -465zM430 1522q0 45 33.5 87t95.5 42q61 0 93 -42t32 -87q0 -47 -32 -87t-93 -40t-95 40t-34 87zM843 1522q0 45 32 87t93 42t93 -42t32 -87q0 -47 -32 -87t-93 -40t-93 40t-32 87z" />
<glyph unicode="&#xd8;" horiz-adv-x="1527" d="M66 635q0 137 56 259t152.5 214t225.5 145.5t274 53.5q176 0 320 -66l98 168h49l-108 -188q154 -82 241.5 -231.5t87.5 -348.5q0 -137 -56 -259t-152.5 -213t-225.5 -144.5t-274 -53.5q-170 0 -310 62l-106 -185h-49l117 203q-158 80 -249 230.5t-91 353.5zM354 643 q0 -154 31 -272.5t90 -200.5l555 960q-102 131 -272 132q-190 0 -297 -155t-107 -464zM504 135q106 -119 266 -119q188 0 293.5 154t105.5 465q0 147 -28.5 262t-81.5 197z" />
<glyph unicode="&#xd9;" horiz-adv-x="1435" d="M29 1280h624l-6 -33l-86 -8q-49 -4 -68.5 -13t-19.5 -22v-733q0 -203 90 -300t264 -97q176 0 268.5 102.5t92.5 317.5l-2 567q0 51 -7.5 84t-24.5 52.5t-47 28.5t-73 13l-61 8l-6 33h463l-7 -33l-57 -8q-72 -6 -100.5 -44t-28.5 -144l-4 -570q-2 -246 -121 -381 t-375 -135q-268 0 -399 106.5t-131 338.5v800q0 10 -16.5 17.5t-86.5 11.5l-69 8zM397 1741h248l202 -379h-34z" />
<glyph unicode="&#xda;" horiz-adv-x="1435" d="M29 1280h624l-6 -33l-86 -8q-49 -4 -68.5 -13t-19.5 -22v-733q0 -203 90 -300t264 -97q176 0 268.5 102.5t92.5 317.5l-2 567q0 51 -7.5 84t-24.5 52.5t-47 28.5t-73 13l-61 8l-6 33h463l-7 -33l-57 -8q-72 -6 -100.5 -44t-28.5 -144l-4 -570q-2 -246 -121 -381 t-375 -135q-268 0 -399 106.5t-131 338.5v800q0 10 -16.5 17.5t-86.5 11.5l-69 8zM693 1362l205 379h245l-413 -379h-37z" />
<glyph unicode="&#xdb;" horiz-adv-x="1435" d="M29 1280h624l-6 -33l-86 -8q-49 -4 -68.5 -13t-19.5 -22v-733q0 -203 90 -300t264 -97q176 0 268.5 102.5t92.5 317.5l-2 567q0 51 -7.5 84t-24.5 52.5t-47 28.5t-73 13l-61 8l-6 33h463l-7 -33l-57 -8q-72 -6 -100.5 -44t-28.5 -144l-4 -570q-2 -246 -121 -381 t-375 -135q-268 0 -399 106.5t-131 338.5v800q0 10 -16.5 17.5t-86.5 11.5l-69 8zM477 1348l279 403h39l278 -403h-31l-264 200h-4l-268 -200h-29z" />
<glyph unicode="&#xdc;" horiz-adv-x="1435" d="M29 1280h624l-6 -33l-86 -8q-49 -4 -68.5 -13t-19.5 -22v-733q0 -203 90 -300t264 -97q176 0 268.5 102.5t92.5 317.5l-2 567q0 51 -7.5 84t-24.5 52.5t-47 28.5t-73 13l-61 8l-6 33h463l-7 -33l-57 -8q-72 -6 -100.5 -44t-28.5 -144l-4 -570q-2 -246 -121 -381 t-375 -135q-268 0 -399 106.5t-131 338.5v800q0 10 -16.5 17.5t-86.5 11.5l-69 8zM453 1522q0 45 33.5 87t95.5 42q61 0 93 -42t32 -87q0 -47 -32 -87t-93 -40t-95 40t-34 87zM866 1522q0 45 32 87t93 42t93 -42t32 -87q0 -47 -32 -87t-93 -40t-93 40t-32 87z" />
<glyph unicode="&#xdd;" horiz-adv-x="1300" d="M-4 1280h618l-6 -35l-45 -4q-82 -10 -91 -44t36 -112l242 -438h8l162 299q47 86 69.5 140.5t20.5 86t-31 46t-86 20.5l-47 6l-6 35h460l-6 -35l-51 -8q-35 -6 -63.5 -17.5t-57 -42t-64.5 -87t-85 -148.5l-189 -338v-532q0 -12 18.5 -18.5t86.5 -12.5l78 -8l6 -33h-645 l6 33l96 8q47 4 67.5 14.5t20.5 22.5v487l-295 516q-25 41 -44 70t-37.5 46t-40 26.5t-52.5 13.5l-47 8zM588 1362l205 379h245l-413 -379h-37z" />
<glyph unicode="&#xde;" horiz-adv-x="1228" d="M43 0l6 37l86 8q47 4 67.5 13.5t20.5 19.5v1128q0 12 -17.5 18.5t-86.5 12.5l-68 6l-6 37h623l-6 -37l-84 -8q-88 -8 -89 -33v-188h82q25 0 54 -2q270 0 403 -87t133 -245q0 -86 -41 -155.5t-113.5 -119t-173 -76t-221.5 -26.5q-76 0 -123 10v-239q0 -12 17.5 -19.5 t87.5 -11.5l90 -6l6 -37h-647zM489 362q23 -4 47.5 -9t71.5 -5q119 0 194 84t75 223q0 147 -73 231.5t-226 86.5h-43q-20 0 -46 -2v-609z" />
<glyph unicode="&#xdf;" horiz-adv-x="1150" d="M10 780l37 109l125 -2l4 92q6 92 42 166t93.5 126t132 79.5t158.5 27.5q184 0 285.5 -72.5t101.5 -199.5q0 -102 -71 -159.5t-177 -80.5q72 -35 137.5 -88t117 -118.5t81 -139.5t29.5 -149q0 -80 -28.5 -152t-78 -126t-115 -87t-139.5 -33q-111 0 -177 49.5t-66 122.5 q0 55 36.5 92t90.5 37q53 0 80.5 -27.5t31.5 -64.5t-12 -72.5t-51 -50.5q4 -14 25.5 -28.5t58.5 -14.5q66 0 107.5 50.5t41.5 144.5q0 76 -23.5 154.5t-71.5 153.5t-123 144.5t-179 127.5v53q66 16 113 37.5t77.5 53.5t46 76t15.5 107q0 92 -49 152.5t-127 60.5 q-98 0 -140 -65.5t-42 -229.5v-1036h-363l6 37l43 2q41 4 59.5 9t18.5 24v704z" />
<glyph unicode="&#xe0;" horiz-adv-x="946" d="M51 672q0 49 44 94t110.5 80t145.5 55.5t149 20.5q168 0 239.5 -77t61.5 -267l-17 -369q-4 -55 14.5 -81t53.5 -26q23 0 44.5 17.5t43.5 40.5l21 -21q-18 -25 -44 -53.5t-57 -54t-64.5 -42t-70.5 -16.5q-70 0 -113 44t-53 130l-4 3q-63 -72 -130 -123.5t-149 -51.5 q-45 0 -85.5 16.5t-71.5 44t-48.5 66.5t-17.5 82q0 57 26.5 105.5t86 89.5t158 79t239.5 72l2 54q4 131 -50 197.5t-153 66.5q-55 0 -93 -16.5t-38 -32.5q0 -6 9.5 -17.5t19.5 -27t19.5 -34t9.5 -40.5q0 -41 -33 -74t-86 -33q-49 0 -84 27t-35 72zM115 1399h248l202 -379 h-34zM283 262q0 -66 37 -104.5t90 -38.5q41 0 74.5 17.5t68.5 51.5l12 306q-86 -20 -140 -46t-86 -56t-44 -61.5t-12 -68.5z" />
<glyph unicode="&#xe1;" horiz-adv-x="946" d="M51 672q0 49 44 94t110.5 80t145.5 55.5t149 20.5q168 0 239.5 -77t61.5 -267l-17 -369q-4 -55 14.5 -81t53.5 -26q23 0 44.5 17.5t43.5 40.5l21 -21q-18 -25 -44 -53.5t-57 -54t-64.5 -42t-70.5 -16.5q-70 0 -113 44t-53 130l-4 3q-63 -72 -130 -123.5t-149 -51.5 q-45 0 -85.5 16.5t-71.5 44t-48.5 66.5t-17.5 82q0 57 26.5 105.5t86 89.5t158 79t239.5 72l2 54q4 131 -50 197.5t-153 66.5q-55 0 -93 -16.5t-38 -32.5q0 -6 9.5 -17.5t19.5 -27t19.5 -34t9.5 -40.5q0 -41 -33 -74t-86 -33q-49 0 -84 27t-35 72zM283 262q0 -66 37 -104.5 t90 -38.5q41 0 74.5 17.5t68.5 51.5l12 306q-86 -20 -140 -46t-86 -56t-44 -61.5t-12 -68.5zM361 1020l205 379h245l-413 -379h-37z" />
<glyph unicode="&#xe2;" horiz-adv-x="946" d="M51 672q0 49 44 94t110.5 80t145.5 55.5t149 20.5q168 0 239.5 -77t61.5 -267l-17 -369q-4 -55 14.5 -81t53.5 -26q23 0 44.5 17.5t43.5 40.5l21 -21q-18 -25 -44 -53.5t-57 -54t-64.5 -42t-70.5 -16.5q-70 0 -113 44t-53 130l-4 3q-63 -72 -130 -123.5t-149 -51.5 q-45 0 -85.5 16.5t-71.5 44t-48.5 66.5t-17.5 82q0 57 26.5 105.5t86 89.5t158 79t239.5 72l2 54q4 131 -50 197.5t-153 66.5q-55 0 -93 -16.5t-38 -32.5q0 -6 9.5 -17.5t19.5 -27t19.5 -34t9.5 -40.5q0 -41 -33 -74t-86 -33q-49 0 -84 27t-35 72zM153 1006l279 403h39 l278 -403h-31l-264 200h-4l-268 -200h-29zM283 262q0 -66 37 -104.5t90 -38.5q41 0 74.5 17.5t68.5 51.5l12 306q-86 -20 -140 -46t-86 -56t-44 -61.5t-12 -68.5z" />
<glyph unicode="&#xe3;" horiz-adv-x="946" d="M51 672q0 49 44 94t110.5 80t145.5 55.5t149 20.5q168 0 239.5 -77t61.5 -267l-17 -369q-4 -55 14.5 -81t53.5 -26q23 0 44.5 17.5t43.5 40.5l21 -21q-18 -25 -44 -53.5t-57 -54t-64.5 -42t-70.5 -16.5q-70 0 -113 44t-53 130l-4 3q-63 -72 -130 -123.5t-149 -51.5 q-45 0 -85.5 16.5t-71.5 44t-48.5 66.5t-17.5 82q0 57 26.5 105.5t86 89.5t158 79t239.5 72l2 54q4 131 -50 197.5t-153 66.5q-55 0 -93 -16.5t-38 -32.5q0 -6 9.5 -17.5t19.5 -27t19.5 -34t9.5 -40.5q0 -41 -33 -74t-86 -33q-49 0 -84 27t-35 72zM119 1053q14 145 53 202.5 t125 57.5q47 0 97 -20.5t99.5 -46t92.5 -46t75 -20.5q33 0 56.5 19.5t35.5 94.5h33q-12 -143 -51 -201.5t-125 -58.5q-47 0 -98 20.5t-99.5 46t-92.5 46t-76 20.5q-14 0 -28.5 -3t-26 -15t-19.5 -34.5t-15 -61.5h-36zM283 262q0 -66 37 -104.5t90 -38.5q41 0 74.5 17.5 t68.5 51.5l12 306q-86 -20 -140 -46t-86 -56t-44 -61.5t-12 -68.5z" />
<glyph unicode="&#xe4;" horiz-adv-x="946" d="M51 672q0 49 44 94t110.5 80t145.5 55.5t149 20.5q168 0 239.5 -77t61.5 -267l-17 -369q-4 -55 14.5 -81t53.5 -26q23 0 44.5 17.5t43.5 40.5l21 -21q-18 -25 -44 -53.5t-57 -54t-64.5 -42t-70.5 -16.5q-70 0 -113 44t-53 130l-4 3q-63 -72 -130 -123.5t-149 -51.5 q-45 0 -85.5 16.5t-71.5 44t-48.5 66.5t-17.5 82q0 57 26.5 105.5t86 89.5t158 79t239.5 72l2 54q4 131 -50 197.5t-153 66.5q-55 0 -93 -16.5t-38 -32.5q0 -6 9.5 -17.5t19.5 -27t19.5 -34t9.5 -40.5q0 -41 -33 -74t-86 -33q-49 0 -84 27t-35 72zM115 1180q0 45 33.5 87 t95.5 42q61 0 93 -42t32 -87q0 -47 -32 -87t-93 -40t-95 40t-34 87zM283 262q0 -66 37 -104.5t90 -38.5q41 0 74.5 17.5t68.5 51.5l12 306q-86 -20 -140 -46t-86 -56t-44 -61.5t-12 -68.5zM528 1180q0 45 32 87t93 42t93 -42t32 -87q0 -47 -32 -87t-93 -40t-93 40t-32 87z " />
<glyph unicode="&#xe5;" horiz-adv-x="946" d="M51 672q0 49 44 94t110.5 80t145.5 55.5t149 20.5q168 0 239.5 -77t61.5 -267l-17 -369q-4 -55 14.5 -81t53.5 -26q23 0 44.5 17.5t43.5 40.5l21 -21q-18 -25 -44 -53.5t-57 -54t-64.5 -42t-70.5 -16.5q-70 0 -113 44t-53 130l-4 3q-63 -72 -130 -123.5t-149 -51.5 q-45 0 -85.5 16.5t-71.5 44t-48.5 66.5t-17.5 82q0 57 26.5 105.5t86 89.5t158 79t239.5 72l2 54q4 131 -50 197.5t-153 66.5q-55 0 -93 -16.5t-38 -32.5q0 -6 9.5 -17.5t19.5 -27t19.5 -34t9.5 -40.5q0 -41 -33 -74t-86 -33q-49 0 -84 27t-35 72zM254 1221q0 78 50 134 t138 56t138.5 -56.5t50.5 -133.5q0 -78 -50.5 -134.5t-138.5 -56.5t-138 56.5t-50 134.5zM283 262q0 -66 37 -104.5t90 -38.5q41 0 74.5 17.5t68.5 51.5l12 306q-86 -20 -140 -46t-86 -56t-44 -61.5t-12 -68.5zM289 1221q0 -66 40.5 -112t112.5 -46t112 46t40 112 q0 63 -40 110t-112 47t-112.5 -47t-40.5 -110z" />
<glyph unicode="&#xe6;" horiz-adv-x="1439" d="M51 672q0 49 43 94t109.5 80t145.5 55.5t153 20.5q86 0 141 -25t88 -82q53 45 127 77t174 32q84 0 149.5 -23.5t110.5 -64.5t67.5 -95.5t22.5 -115.5q0 -14 -2 -28.5t-6 -29.5q-147 0 -268 2q-51 0 -102.5 1t-92.5 2t-70.5 2t-37.5 1q-2 -16 -2 -38.5v-38.5 q0 -84 22.5 -153t62.5 -118t96 -75.5t124 -26.5q84 0 148.5 35t113.5 116l23 -12q-61 -141 -166 -216t-248 -75q-129 0 -224.5 60.5t-142.5 161.5q-84 -104 -167 -163t-169 -59q-45 0 -84.5 16.5t-70.5 45t-48.5 67.5t-17.5 82q0 57 26.5 105.5t86 89.5t157 79t240.5 72 l2 56q6 129 -49 195.5t-154 66.5q-55 0 -93 -16.5t-38 -32.5q0 -6 9.5 -17.5t19.5 -27t19.5 -34t9.5 -40.5q0 -41 -33 -74t-86 -33q-49 0 -84 27t-35 72zM283 256q0 -63 38 -102t85 -39t91 25.5t97 82.5q-18 45 -26.5 106.5t-8.5 119.5q0 10 1 21t3 22q-84 -23 -138 -48.5 t-86 -55.5t-44 -62.5t-12 -69.5zM807 610q96 2 172 2h172q0 51 -7 99.5t-24.5 85.5t-45 59.5t-68.5 22.5q-72 0 -128.5 -73t-70.5 -196z" />
<glyph unicode="&#xe7;" horiz-adv-x="903" d="M49 420q0 106 36 197.5t101.5 159t155.5 106.5t199 39q70 0 129 -15.5t102 -42t66.5 -64.5t23.5 -83q0 -57 -35.5 -91t-87.5 -34q-59 0 -94 44t-31 103q0 33 18.5 55.5t18.5 32.5q-4 18 -35.5 34t-72.5 16q-104 0 -173 -98.5t-69 -272.5q0 -180 81 -282.5t218 -102.5 q82 0 144.5 36t109.5 115l25 -12q-55 -125 -143.5 -199.5t-209.5 -89.5l-94 -98q66 8 123 -1t100 -31.5t68 -58.5t25 -79q0 -66 -40 -111t-104.5 -75.5t-144.5 -48t-162 -25.5l-10 22q154 25 235.5 67t81.5 114q0 59 -51 85.5t-123 26.5q-78 0 -149 -22v22l196 211h-2 q-92 0 -170 34t-135 94.5t-89 142.5t-32 180z" />
<glyph unicode="&#xe8;" horiz-adv-x="933" d="M49 424q0 106 36 197.5t100.5 159t152.5 105.5t192 38q84 0 148.5 -23.5t108.5 -64.5t67 -95.5t23 -115.5q0 -29 -7 -58q-150 0 -270 2q-51 0 -101 1t-92 2t-70 2t-36 1q-4 -16 -4 -38.5v-38.5q0 -84 22.5 -154t62.5 -119t96.5 -76.5t123.5 -27.5q82 0 146.5 36 t113.5 115l25 -12q-61 -139 -163 -215t-249 -76q-92 0 -170 34t-134 95.5t-89 144.5t-33 181zM152 1399h248l202 -379h-34zM303 610l344 2q0 51 -7 99.5t-24.5 85.5t-45 59.5t-66.5 22.5q-72 0 -129.5 -74t-71.5 -195z" />
<glyph unicode="&#xe9;" horiz-adv-x="933" d="M49 424q0 106 36 197.5t100.5 159t152.5 105.5t192 38q84 0 148.5 -23.5t108.5 -64.5t67 -95.5t23 -115.5q0 -29 -7 -58q-150 0 -270 2q-51 0 -101 1t-92 2t-70 2t-36 1q-4 -16 -4 -38.5v-38.5q0 -84 22.5 -154t62.5 -119t96.5 -76.5t123.5 -27.5q82 0 146.5 36 t113.5 115l25 -12q-61 -139 -163 -215t-249 -76q-92 0 -170 34t-134 95.5t-89 144.5t-33 181zM303 610l344 2q0 51 -7 99.5t-24.5 85.5t-45 59.5t-66.5 22.5q-72 0 -129.5 -74t-71.5 -195zM391 1020l205 379h245l-413 -379h-37z" />
<glyph unicode="&#xea;" horiz-adv-x="933" d="M49 424q0 106 36 197.5t100.5 159t152.5 105.5t192 38q84 0 148.5 -23.5t108.5 -64.5t67 -95.5t23 -115.5q0 -29 -7 -58q-150 0 -270 2q-51 0 -101 1t-92 2t-70 2t-36 1q-4 -16 -4 -38.5v-38.5q0 -84 22.5 -154t62.5 -119t96.5 -76.5t123.5 -27.5q82 0 146.5 36 t113.5 115l25 -12q-61 -139 -163 -215t-249 -76q-92 0 -170 34t-134 95.5t-89 144.5t-33 181zM194 1006l279 403h39l278 -403h-31l-264 200h-4l-268 -200h-29zM303 610l344 2q0 51 -7 99.5t-24.5 85.5t-45 59.5t-66.5 22.5q-72 0 -129.5 -74t-71.5 -195z" />
<glyph unicode="&#xeb;" horiz-adv-x="933" d="M49 424q0 106 36 197.5t100.5 159t152.5 105.5t192 38q84 0 148.5 -23.5t108.5 -64.5t67 -95.5t23 -115.5q0 -29 -7 -58q-150 0 -270 2q-51 0 -101 1t-92 2t-70 2t-36 1q-4 -16 -4 -38.5v-38.5q0 -84 22.5 -154t62.5 -119t96.5 -76.5t123.5 -27.5q82 0 146.5 36 t113.5 115l25 -12q-61 -139 -163 -215t-249 -76q-92 0 -170 34t-134 95.5t-89 144.5t-33 181zM156 1180q0 45 33.5 87t95.5 42q61 0 93 -42t32 -87q0 -47 -32 -87t-93 -40t-95 40t-34 87zM303 610l344 2q0 51 -7 99.5t-24.5 85.5t-45 59.5t-66.5 22.5q-72 0 -129.5 -74 t-71.5 -195zM569 1180q0 45 32 87t93 42t93 -42t32 -87q0 -47 -32 -87t-93 -40t-93 40t-32 87z" />
<glyph unicode="&#xec;" horiz-adv-x="559" d="M-49 1399h248l202 -379h-34zM35 793l2 24l362 101v-850q0 -14 16.5 -20.5t80.5 -12.5l28 -2l6 -33h-489l6 33l35 2q45 4 63.5 10t18.5 25v551q0 47 -3 75.5t-12.5 45t-27 25.5t-43.5 15z" />
<glyph unicode="&#xed;" horiz-adv-x="559" d="M35 793l2 24l362 101v-850q0 -14 16.5 -20.5t80.5 -12.5l28 -2l6 -33h-489l6 33l35 2q45 4 63.5 10t18.5 25v551q0 47 -3 75.5t-12.5 45t-27 25.5t-43.5 15zM166 1020l205 379h245l-413 -379h-37z" />
<glyph unicode="&#xee;" horiz-adv-x="559" d="M0 1006l266 403h39l264 -403h-30l-252 200h-4l-250 -200h-33zM35 793l2 24l362 101v-850q0 -14 16.5 -20.5t80.5 -12.5l28 -2l6 -33h-489l6 33l35 2q45 4 63.5 10t18.5 25v551q0 47 -3 75.5t-12.5 45t-27 25.5t-43.5 15z" />
<glyph unicode="&#xef;" horiz-adv-x="559" d="M-43 1180q0 45 33.5 87t95.5 42q61 0 93 -42t32 -87q0 -47 -32 -87t-93 -40t-95 40t-34 87zM35 793l2 24l362 101v-850q0 -14 16.5 -20.5t80.5 -12.5l28 -2l6 -33h-489l6 33l35 2q45 4 63.5 10t18.5 25v551q0 47 -3 75.5t-12.5 45t-27 25.5t-43.5 15zM370 1180 q0 45 32 87t93 42t93 -42t32 -87q0 -47 -32 -87t-93 -40t-93 40t-32 87z" />
<glyph unicode="&#xf0;" horiz-adv-x="1058" d="M49 446q0 102 35 189.5t96.5 152t147.5 100.5t186 36q41 0 78 -5.5t70 -15.5q-35 66 -82.5 124.5t-110.5 105.5q2 0 -41 -13.5t-94 -29.5l-135 -46l4 48l221 73q-109 72 -262 103l12 30q201 -20 365 -96l241 80l4 -47l-188 -61q100 -55 178 -129t130 -160t79 -180.5 t27 -190.5q0 -121 -36 -220t-99.5 -171t-152.5 -111t-196 -39q-111 0 -198.5 37t-149 100.5t-95.5 150.5t-34 185zM307 477q1 -461 230 -461q106 0 161.5 104.5t55.5 305.5q0 104 -16.5 188t-47.5 144.5t-74 93.5t-96 33q-51 0 -91 -30t-66.5 -83t-41 -129t-14.5 -166z" />
<glyph unicode="&#xf1;" horiz-adv-x="1122" d="M33 793l2 24l364 101l-4 -170h6q37 31 77 61.5t84 55t91 40t97 15.5q98 0 163 -66q37 -37 53.5 -97.5t16.5 -131.5v-555q0 -6 2 -10.5t12.5 -8.5t30 -8t53.5 -8l29 -2l6 -33h-483l6 33l37 2q51 4 62.5 13t11.5 22v495q0 115 -45.5 157t-126.5 42q-57 0 -102.5 -19.5 t-78.5 -42.5v-301v-333q0 -14 14.5 -21.5t71.5 -11.5l39 -2l4 -33h-487l6 33l35 2q45 4 63.5 10t18.5 25v548q0 47 -3 77t-12.5 46.5t-27 25.5t-43.5 15zM232 1053q14 145 53 202.5t125 57.5q47 0 97 -20.5t99.5 -46t92.5 -46t75 -20.5q33 0 56.5 19.5t35.5 94.5h33 q-12 -143 -51 -201.5t-125 -58.5q-47 0 -98 20.5t-99.5 46t-92.5 46t-76 20.5q-14 0 -28.5 -3t-26 -15t-19.5 -34.5t-15 -61.5h-36z" />
<glyph unicode="&#xf2;" d="M49 444q0 98 37 185.5t103.5 152t157.5 102.5t202 38t199 -37t151.5 -100.5t97 -148.5t33.5 -181q0 -100 -37 -188.5t-103.5 -154t-157.5 -103.5t-202 -38t-199.5 37t-151 101.5t-96.5 150.5t-34 184zM172 1399h248l202 -379h-34zM309 473q0 -303 101 -407 q49 -54 129 -54q53 0 96 32t71.5 87t44 130t15.5 163q0 152 -26.5 252t-75.5 149q-23 23 -53.5 38.5t-73.5 15.5q-55 0 -97.5 -31t-72 -86t-44 -129t-14.5 -160z" />
<glyph unicode="&#xf3;" d="M49 444q0 98 37 185.5t103.5 152t157.5 102.5t202 38t199 -37t151.5 -100.5t97 -148.5t33.5 -181q0 -100 -37 -188.5t-103.5 -154t-157.5 -103.5t-202 -38t-199.5 37t-151 101.5t-96.5 150.5t-34 184zM309 473q0 -303 101 -407q49 -54 129 -54q53 0 96 32t71.5 87t44 130 t15.5 163q0 152 -26.5 252t-75.5 149q-23 23 -53.5 38.5t-73.5 15.5q-55 0 -97.5 -31t-72 -86t-44 -129t-14.5 -160zM447 1020l205 379h245l-413 -379h-37z" />
<glyph unicode="&#xf4;" d="M49 444q0 98 37 185.5t103.5 152t157.5 102.5t202 38t199 -37t151.5 -100.5t97 -148.5t33.5 -181q0 -100 -37 -188.5t-103.5 -154t-157.5 -103.5t-202 -38t-199.5 37t-151 101.5t-96.5 150.5t-34 184zM240 1006l279 403h39l278 -403h-31l-264 200h-4l-268 -200h-29z M309 473q0 -303 101 -407q49 -54 129 -54q53 0 96 32t71.5 87t44 130t15.5 163q0 152 -26.5 252t-75.5 149q-23 23 -53.5 38.5t-73.5 15.5q-55 0 -97.5 -31t-72 -86t-44 -129t-14.5 -160z" />
<glyph unicode="&#xf5;" d="M49 444q0 98 37 185.5t103.5 152t157.5 102.5t202 38t199 -37t151.5 -100.5t97 -148.5t33.5 -181q0 -100 -37 -188.5t-103.5 -154t-157.5 -103.5t-202 -38t-199.5 37t-151 101.5t-96.5 150.5t-34 184zM203 1053q14 145 53 202.5t125 57.5q47 0 97 -20.5t99.5 -46 t92.5 -46t75 -20.5q33 0 56.5 19.5t35.5 94.5h33q-12 -143 -51 -201.5t-125 -58.5q-47 0 -98 20.5t-99.5 46t-92.5 46t-76 20.5q-14 0 -28.5 -3t-26 -15t-19.5 -34.5t-15 -61.5h-36zM309 473q0 -303 101 -407q49 -54 129 -54q53 0 96 32t71.5 87t44 130t15.5 163 q0 152 -26.5 252t-75.5 149q-23 23 -53.5 38.5t-73.5 15.5q-55 0 -97.5 -31t-72 -86t-44 -129t-14.5 -160z" />
<glyph unicode="&#xf6;" d="M49 444q0 98 37 185.5t103.5 152t157.5 102.5t202 38t199 -37t151.5 -100.5t97 -148.5t33.5 -181q0 -100 -37 -188.5t-103.5 -154t-157.5 -103.5t-202 -38t-199.5 37t-151 101.5t-96.5 150.5t-34 184zM205 1180q0 45 33.5 87t95.5 42q61 0 93 -42t32 -87q0 -47 -32 -87 t-93 -40t-95 40t-34 87zM309 473q0 -303 101 -407q49 -54 129 -54q53 0 96 32t71.5 87t44 130t15.5 163q0 152 -26.5 252t-75.5 149q-23 23 -53.5 38.5t-73.5 15.5q-55 0 -97.5 -31t-72 -86t-44 -129t-14.5 -160zM618 1180q0 45 32 87t93 42t93 -42t32 -87q0 -47 -32 -87 t-93 -40t-93 40t-32 87z" />
<glyph unicode="&#xf7;" horiz-adv-x="1148" d="M70 487q0 115 37.5 210.5t105.5 165t161 107.5t204 38t202.5 -38t159.5 -105.5t105.5 -162t37.5 -208.5q0 -115 -38.5 -211.5t-106.5 -165t-161 -106.5t-204 -38t-202.5 37t-158.5 104.5t-104.5 163t-37.5 209.5zM135 489q0 -100 33 -183t91 -142.5t139 -92t177 -32.5 t177.5 33.5t139.5 93t92 143.5t34 185q0 98 -34 182t-92 143.5t-139 93t-178 33.5q-94 0 -175 -33.5t-140 -95t-92 -145.5t-33 -183z" />
<glyph unicode="&#xf8;" d="M49 444q0 98 37 185.5t103.5 152t157.5 102.5t202 38q113 0 207 -41l178 307h45q-53 -90 -94 -162q-18 -31 -34.5 -59.5t-30 -52t-21.5 -36.5l-8 -14q115 -59 177 -168.5t62 -240.5q0 -100 -37 -188.5t-103.5 -154t-157.5 -103.5t-202 -38q-129 0 -225 49l-166 -284h-45 l176 303q-106 61 -163.5 168.5t-57.5 236.5zM309 473q0 -190 39 -299l350 606q-16 27 -34 45q-23 23 -53.5 39.5t-73.5 16.5q-55 0 -97.5 -32t-72 -86t-44 -129t-14.5 -161zM367 127q18 -37 43 -61q49 -53 129 -54q53 0 96 32t71.5 87t44 130t15.5 163q0 201 -47 313z" />
<glyph unicode="&#xf9;" horiz-adv-x="1081" d="M0 891h377l-6 -567q-2 -111 43 -153t131 -42q53 0 96 18.5t74 40.5v318v293q0 31 -17.5 42t-79.5 15l-36 2l-9 33h375v-694q0 -53 10.5 -70.5t40.5 -28.5l84 -20l-4 -23l-364 -88l2 178h-4q-37 -33 -78 -64.5t-84 -56t-89 -39t-95 -14.5q-51 0 -89 17.5t-75 52.5 q-35 37 -51.5 95.5t-14.5 133.5l2 555q0 6 -2 10.5t-12 7.5t-30.5 6t-55.5 7l-33 2zM174 1399h248l202 -379h-34z" />
<glyph unicode="&#xfa;" horiz-adv-x="1081" d="M0 891h377l-6 -567q-2 -111 43 -153t131 -42q53 0 96 18.5t74 40.5v318v293q0 31 -17.5 42t-79.5 15l-36 2l-9 33h375v-694q0 -53 10.5 -70.5t40.5 -28.5l84 -20l-4 -23l-364 -88l2 178h-4q-37 -33 -78 -64.5t-84 -56t-89 -39t-95 -14.5q-51 0 -89 17.5t-75 52.5 q-35 37 -51.5 95.5t-14.5 133.5l2 555q0 6 -2 10.5t-12 7.5t-30.5 6t-55.5 7l-33 2zM439 1020l205 379h245l-413 -379h-37z" />
<glyph unicode="&#xfb;" horiz-adv-x="1081" d="M0 891h377l-6 -567q-2 -111 43 -153t131 -42q53 0 96 18.5t74 40.5v318v293q0 31 -17.5 42t-79.5 15l-36 2l-9 33h375v-694q0 -53 10.5 -70.5t40.5 -28.5l84 -20l-4 -23l-364 -88l2 178h-4q-37 -33 -78 -64.5t-84 -56t-89 -39t-95 -14.5q-51 0 -89 17.5t-75 52.5 q-35 37 -51.5 95.5t-14.5 133.5l2 555q0 6 -2 10.5t-12 7.5t-30.5 6t-55.5 7l-33 2zM233 1006l279 403h39l278 -403h-31l-264 200h-4l-268 -200h-29z" />
<glyph unicode="&#xfc;" horiz-adv-x="1081" d="M0 891h377l-6 -567q-2 -111 43 -153t131 -42q53 0 96 18.5t74 40.5v318v293q0 31 -17.5 42t-79.5 15l-36 2l-9 33h375v-694q0 -53 10.5 -70.5t40.5 -28.5l84 -20l-4 -23l-364 -88l2 178h-4q-37 -33 -78 -64.5t-84 -56t-89 -39t-95 -14.5q-51 0 -89 17.5t-75 52.5 q-35 37 -51.5 95.5t-14.5 133.5l2 555q0 6 -2 10.5t-12 7.5t-30.5 6t-55.5 7l-33 2zM217 1180q0 45 33.5 87t95.5 42q61 0 93 -42t32 -87q0 -47 -32 -87t-93 -40t-95 40t-34 87zM630 1180q0 45 32 87t93 42t93 -42t32 -87q0 -47 -32 -87t-93 -40t-93 40t-32 87z" />
<glyph unicode="&#xfd;" horiz-adv-x="983" d="M-27 891h512l-6 -33l-41 -6q-53 -6 -64.5 -25.5t9.5 -66.5l215 -506l139 385q23 61 31 100t0 61.5t-31.5 33t-66.5 16.5l-41 8l-6 33h370l-6 -33l-41 -6q-31 -2 -50 -11.5t-35.5 -34t-34 -66.5t-44.5 -113l-227 -604l-92 -281q-47 -137 -105.5 -203.5t-148.5 -66.5 q-55 0 -99 33.5t-44 93.5q0 47 32.5 81.5t85.5 34.5q59 0 91 -32.5t42 -73.5q35 10 58.5 48t50.5 116l70 198h-19l-348 777q-14 31 -24.5 49t-21.5 28.5t-26.5 16.5t-40.5 8l-36 8zM416 1020l205 379h245l-413 -379h-37z" />
<glyph unicode="&#xfe;" d="M-23 1270l3 24l362 97v-654l8 -2q59 74 139 125t175 51q78 0 144 -32.5t115.5 -91t78 -139.5t28.5 -175q0 -119 -42 -213t-111.5 -157.5t-157.5 -97.5t-180 -34q-57 0 -106.5 9.5t-84.5 23.5h-6v-453q0 -10 19.5 -17t78.5 -9l70 -2l6 -37h-536l6 37l43 2q43 4 62.5 9 t19.5 26v1579q0 55 -14.5 75.5t-55.5 32.5zM342 190q43 -78 103.5 -127t123.5 -49q47 0 85 30t64.5 82t41 122.5t14.5 152.5q0 80 -17.5 146.5t-49 115t-77.5 76t-102 27.5q-59 0 -105 -24.5t-81 -57.5v-494z" />
<glyph unicode="&#xff;" horiz-adv-x="983" d="M-27 891h512l-6 -33l-41 -6q-53 -6 -64.5 -25.5t9.5 -66.5l215 -506l139 385q23 61 31 100t0 61.5t-31.5 33t-66.5 16.5l-41 8l-6 33h370l-6 -33l-41 -6q-31 -2 -50 -11.5t-35.5 -34t-34 -66.5t-44.5 -113l-227 -604l-92 -281q-47 -137 -105.5 -203.5t-148.5 -66.5 q-55 0 -99 33.5t-44 93.5q0 47 32.5 81.5t85.5 34.5q59 0 91 -32.5t42 -73.5q35 10 58.5 48t50.5 116l70 198h-19l-348 777q-14 31 -24.5 49t-21.5 28.5t-26.5 16.5t-40.5 8l-36 8zM172 1180q0 45 33.5 87t95.5 42q61 0 93 -42t32 -87q0 -47 -32 -87t-93 -40t-95 40t-34 87z M585 1180q0 45 32 87t93 42t93 -42t32 -87q0 -47 -32 -87t-93 -40t-93 40t-32 87z" />
<glyph unicode="&#x152;" horiz-adv-x="1978" d="M66 623q0 133 52 252.5t150.5 210t239.5 142.5t319 52h998l14 -418h-49l-21 70q-25 86 -57.5 145.5t-83.5 95t-124.5 50t-176.5 14.5l-119 -2v-561l66 2q123 4 182.5 36.5t85.5 114.5l25 68l39 -2l-52 -487h-38l-7 65q-4 45 -16 73.5t-40 47t-75 28t-118 11.5l-52 2v-584 l156 -6q109 0 185.5 21.5t131 61.5t90 98.5t62.5 131.5l20 64l52 -2l-52 -418h-1062q-176 0 -311.5 44t-227.5 125t-139 196.5t-47 257.5zM348 668q0 -139 31 -254t92 -197t156.5 -127t224.5 -45h94v1163l-139 29q-113 0 -199 -46t-143 -124t-87 -180.5t-30 -218.5z" />
<glyph unicode="&#x153;" horiz-adv-x="1652" d="M49 440q0 100 37 188.5t103.5 154t157.5 103.5t202 38q115 0 205 -41t149 -109q63 68 150.5 109t195.5 41q84 0 148.5 -23.5t108.5 -64.5t67.5 -95.5t23.5 -115.5q0 -14 -2 -28.5t-6 -29.5q-150 0 -270 2q-51 0 -102.5 1t-92.5 2t-70.5 2t-37.5 1q-2 -16 -3 -38.5 t-1 -38.5q0 -84 23.5 -154t64.5 -119t97 -76.5t124 -27.5q82 0 146.5 36t115.5 115l23 -12q-61 -139 -164 -215t-250 -76q-100 0 -174 38t-133 104q-66 -66 -155 -105t-200 -39q-113 0 -201.5 37t-151 101.5t-95.5 150.5t-33 184zM309 467q0 -154 25.5 -253t73.5 -151 q51 -55 131 -55q53 0 95 32t70.5 87t44 131t15.5 164q0 154 -25.5 254t-72.5 149q-23 25 -54.5 40.5t-74.5 15.5q-55 0 -97.5 -31t-71 -86t-44 -131t-15.5 -166zM1018 610q98 2 174 2h172q0 51 -7 99.5t-23.5 85.5t-44 59.5t-68.5 22.5q-72 0 -129.5 -73t-73.5 -196z" />
<glyph unicode="&#x178;" horiz-adv-x="1300" d="M-4 1280h618l-6 -35l-45 -4q-82 -10 -91 -44t36 -112l242 -438h8l162 299q47 86 69.5 140.5t20.5 86t-31 46t-86 20.5l-47 6l-6 35h460l-6 -35l-51 -8q-35 -6 -63.5 -17.5t-57 -42t-64.5 -87t-85 -148.5l-189 -338v-532q0 -12 18.5 -18.5t86.5 -12.5l78 -8l6 -33h-645 l6 33l96 8q47 4 67.5 14.5t20.5 22.5v487l-295 516q-25 41 -44 70t-37.5 46t-40 26.5t-52.5 13.5l-47 8zM338 1522q0 45 33.5 87t95.5 42q61 0 93 -42t32 -87q0 -47 -32 -87t-93 -40t-95 40t-34 87zM751 1522q0 45 32 87t93 42t93 -42t32 -87q0 -47 -32 -87t-93 -40t-93 40 t-32 87z" />
<glyph unicode="&#x2c6;" horiz-adv-x="776" d="M90 1006l279 403h39l278 -403h-31l-264 200h-4l-268 -200h-29z" />
<glyph unicode="&#x2dc;" horiz-adv-x="804" d="M68 1053q14 145 53 202.5t125 57.5q47 0 97 -20.5t99.5 -46t92.5 -46t75 -20.5q33 0 56.5 19.5t35.5 94.5h33q-12 -143 -51 -201.5t-125 -58.5q-47 0 -98 20.5t-99.5 46t-92.5 46t-76 20.5q-14 0 -28.5 -3t-26 -15t-19.5 -34.5t-15 -61.5h-36z" />
<glyph unicode="&#x2000;" horiz-adv-x="875" />
<glyph unicode="&#x2001;" horiz-adv-x="1751" />
<glyph unicode="&#x2002;" horiz-adv-x="875" />
<glyph unicode="&#x2003;" horiz-adv-x="1751" />
<glyph unicode="&#x2004;" horiz-adv-x="583" />
<glyph unicode="&#x2005;" horiz-adv-x="437" />
<glyph unicode="&#x2006;" horiz-adv-x="291" />
<glyph unicode="&#x2007;" horiz-adv-x="291" />
<glyph unicode="&#x2008;" horiz-adv-x="218" />
<glyph unicode="&#x2009;" horiz-adv-x="350" />
<glyph unicode="&#x200a;" horiz-adv-x="97" />
<glyph unicode="&#x2010;" horiz-adv-x="606" d="M47 438l6 94h508l-4 -94h-510z" />
<glyph unicode="&#x2011;" horiz-adv-x="606" d="M47 438l6 94h508l-4 -94h-510z" />
<glyph unicode="&#x2012;" horiz-adv-x="606" d="M47 438l6 94h508l-4 -94h-510z" />
<glyph unicode="&#x2013;" horiz-adv-x="901" d="M25 442l6 86h839l4 -86h-849z" />
<glyph unicode="&#x2014;" horiz-adv-x="1861" d="M25 442l6 86h1802l6 -86h-1814z" />
<glyph unicode="&#x2018;" horiz-adv-x="428" d="M41 971q0 106 85 205.5t230 164.5l25 -24q-88 -47 -134 -110.5t-46 -133.5q0 -55 28.5 -86t62.5 -47t61.5 -21.5t27.5 -9.5q0 -23 -9.5 -48t-26.5 -45.5t-44.5 -34t-64.5 -13.5q-92 0 -143.5 60.5t-51.5 142.5z" />
<glyph unicode="&#x2019;" horiz-adv-x="428" d="M49 786q88 47 134 111t46 133q0 55 -27.5 86t-61.5 47.5t-62.5 22.5t-28.5 8q0 23 9.5 48.5t26.5 46t45 33.5t65 13q90 0 142 -60.5t52 -141.5q0 -109 -85 -206.5t-230 -162.5z" />
<glyph unicode="&#x201a;" horiz-adv-x="428" d="M49 135q0 23 9.5 48.5t26.5 46t45 33.5t65 13q90 0 142 -60t52 -142q0 -109 -85 -206t-230 -163l-25 23q88 47 134 110.5t46 132.5q0 55 -27.5 86t-61.5 47.5t-62.5 22.5t-28.5 8z" />
<glyph unicode="&#x201c;" horiz-adv-x="829" d="M41 971q0 106 85 205.5t230 164.5l25 -24q-88 -47 -134 -110.5t-46 -133.5q0 -55 28.5 -86t62.5 -47t61.5 -21.5t27.5 -9.5q0 -23 -9.5 -48t-26.5 -45.5t-44.5 -34t-64.5 -13.5q-92 0 -143.5 60.5t-51.5 142.5zM449 971q0 106 83.5 205.5t229.5 164.5l24 -24 q-86 -47 -134 -110.5t-48 -133.5q0 -55 29 -86t62.5 -47t62 -21.5t28.5 -9.5q0 -23 -9 -48t-26.5 -45.5t-45 -34t-64.5 -13.5q-90 0 -141 60.5t-51 142.5z" />
<glyph unicode="&#x201d;" horiz-adv-x="829" d="M49 786q88 47 134 111t46 133q0 55 -27.5 86t-61.5 47.5t-62.5 22.5t-28.5 8q0 23 9.5 48.5t26.5 46t45 33.5t65 13q90 0 142 -60.5t52 -141.5q0 -109 -85 -206.5t-230 -162.5zM455 786q88 47 134 111t46 133q0 55 -27.5 86t-61.5 47.5t-62.5 22.5t-28.5 8q0 23 9 48.5 t27.5 46t45 33.5t63.5 13q90 0 142.5 -60.5t52.5 -141.5q0 -109 -85 -206.5t-231 -162.5z" />
<glyph unicode="&#x201e;" horiz-adv-x="825" d="M49 135q0 23 9.5 48.5t26.5 46t45 33.5t65 13q90 0 142 -60t52 -142q0 -109 -85 -206t-230 -163l-25 23q88 47 134 110.5t46 132.5q0 55 -27.5 86t-61.5 47.5t-62.5 22.5t-28.5 8zM455 135q0 23 9 48.5t27.5 46t45 33.5t63.5 13q90 0 142.5 -60t52.5 -142 q0 -109 -85 -206t-231 -163l-24 23q88 47 134 110.5t46 132.5q0 55 -27.5 86t-61.5 47.5t-62.5 22.5t-28.5 8z" />
<glyph unicode="&#x2022;" horiz-adv-x="888" d="M51 475q0 23 12.5 63t31 83t39 80.5t34.5 52.5q16 16 53 35.5t80 37t84 29.5t61 12q23 0 63 -12t83 -29.5t81 -37t52 -35.5q16 -14 35.5 -52t37 -81t30 -83t12.5 -63t-12.5 -62.5t-30 -82.5t-37 -81t-35.5 -54q-14 -14 -52 -35t-81 -38.5t-84 -29.5t-64 -12q-20 0 -61 12 t-84 29.5t-80 38t-51 35.5q-14 16 -34.5 54t-39 81t-31 83t-12.5 62z" />
<glyph unicode="&#x2026;" horiz-adv-x="1347" d="M76 119q0 57 42 99t101 42q61 0 102 -43t41 -98q0 -59 -41 -102.5t-100 -43.5q-61 0 -103 43t-42 103zM530 119q0 57 42 99t104 42q59 0 101 -43t42 -98q0 -59 -42 -102.5t-101 -43.5q-61 0 -103.5 43t-42.5 103zM987 119q0 57 42 99t101 42q61 0 102.5 -43t41.5 -98 q0 -59 -41.5 -102.5t-102.5 -43.5q-59 0 -101 43t-42 103z" />
<glyph unicode="&#x202f;" horiz-adv-x="350" />
<glyph unicode="&#x2039;" horiz-adv-x="575" d="M37 426v57l481 346l10 -16l-260 -360l262 -357l-12 -16z" />
<glyph unicode="&#x203a;" horiz-adv-x="577" d="M49 96l264 357l-264 360l12 16l482 -346v-57l-482 -346z" />
<glyph unicode="&#x205f;" horiz-adv-x="437" />
<glyph unicode="&#x20ac;" horiz-adv-x="1058" d="M10 461l6 43h119q-6 55 -6 102q0 29 2 58.5t8 58.5h-129l6 43h129q25 121 80.5 218t132 165t170 104.5t191.5 36.5q141 0 223 -47t82 -133q0 -47 -37 -83t-90 -36q-43 0 -72.5 21.5t-44 55.5t-11.5 73t24 71q-16 10 -36 20.5t-59 10.5q-66 0 -120 -36t-95 -98 t-66.5 -150.5t-35.5 -192.5h393l6 -43h-403v-68q0 -37 2 -74.5t8 -76.5h387l6 -43h-383q37 -160 128 -248t223 -88q92 0 161.5 38t122.5 122l23 -15q-66 -137 -170.5 -217t-251.5 -80q-92 0 -173 34t-145.5 96.5t-109.5 153.5t-64 204h-131z" />
<glyph unicode="&#x2122;" horiz-adv-x="1165" d="M43 1114l12 166h428l6 -166h-26l-6 19q-20 57 -45 89.5t-78 32.5h-15v-389q0 -4 5.5 -6t23.5 -6l33 -4l2 -25h-236v25l41 4q23 2 23 14v387h-10q-49 0 -77 -35.5t-46 -86.5l-8 -19h-27zM526 825l4 25l25 2q27 2 33 15.5t8 76.5l8 281q-10 25 -35 26l-32 6l-2 23h194 l90 -317h8l105 317h196l-2 -23l-36 -6q-27 -2 -27 -14l8 -342q0 -25 6 -31t25 -10l31 -4l4 -25h-236v25l39 4q14 4 18.5 11t2.5 32l-7 338h-6l-139 -401h-49l-119 389h-8l-6 -283q-2 -59 5 -72.5t36 -15.5l26 -2l2 -25h-170z" />
<glyph unicode="&#x25fc;" horiz-adv-x="890" d="M0 0v891h891v-891h-891z" />
<glyph unicode="&#xfb01;" horiz-adv-x="1146" d="M10 786l37 101h123l6 84q6 98 53 175t118 131t159 81.5t180 27.5q98 0 158.5 -41.5t60.5 -109.5q0 -51 -34.5 -87t-88.5 -36q-68 0 -110.5 55.5t-53.5 139.5l-73 18q-66 -27 -101.5 -100.5t-35.5 -225.5v-112h415l160 28v-847q0 -16 18.5 -21.5t77.5 -11.5l29 -2l6 -33 h-485l4 33l41 2q47 4 61.5 10t14.5 25v714h-342v-716q0 -14 14 -21.5t70 -11.5l57 -2l6 -33h-510l6 33l41 2q43 4 61.5 10t18.5 25v708z" />
<glyph unicode="&#xfb02;" horiz-adv-x="1138" d="M10 784l37 103h123l6 84q6 98 51 175t115 131t156 81.5t176 27.5q104 0 162 -47l147 52v-1323q0 -14 16.5 -19.5t79.5 -13.5l29 -2l6 -33h-485l6 33l33 2q43 4 62.5 10t19.5 25v714h-342v-716q0 -14 14 -21.5t70 -11.5l57 -2l6 -33h-510l6 33l41 2q43 4 61.5 10t18.5 25 v708zM408 887h342v252q-61 8 -99.5 55t-44.5 113l-69 18q-66 -27 -97.5 -100.5t-31.5 -225.5v-112z" />
</font>
</defs>
</svg>
