<?xml version="1.0" standalone="no"?>
<!DOCTYPE svg PUBLIC "-//W3C//DTD SVG 1.1//EN" "http://www.w3.org/Graphics/SVG/1.1/DTD/svg11.dtd" >
<svg xmlns="http://www.w3.org/2000/svg">
<metadata></metadata>
<defs>
<font id="freighttext_bookitalicregular" horiz-adv-x="966" >
<font-face units-per-em="2048" ascent="1638" descent="-410" />
<missing-glyph horiz-adv-x="323" />
<glyph horiz-adv-x="0" />
<glyph unicode="&#xd;" horiz-adv-x="323" />
<glyph unicode=" "  horiz-adv-x="323" />
<glyph unicode="&#x09;" horiz-adv-x="323" />
<glyph unicode="&#xa0;" horiz-adv-x="323" />
<glyph unicode="!" horiz-adv-x="575" d="M123 86q0 45 32.5 79t86.5 34q51 0 82.5 -34t31.5 -79q0 -47 -31.5 -82t-82.5 -35q-53 0 -87 35t-32 82zM254 406l33 831q2 33 18.5 53.5t59.5 20.5h30q59 0 78 -22.5t8 -59.5l-184 -826q-4 -12 -23.5 -11t-19.5 14z" />
<glyph unicode="&#x22;" horiz-adv-x="727" d="M80 825l233 500h2l152 -53l-320 -447h-67zM399 825l236 500h2l151 -53l-319 -447h-70z" />
<glyph unicode="#" horiz-adv-x="1148" d="M4 371v71h283l104 389h-264v72h283l108 389h74l-107 -389h359l104 389h74l-104 -389h266v-72h-287l-104 -389h268v-71h-287l-102 -383h-74l102 383h-358l-102 -383h-74l102 383h-264zM360 442h359l104 389h-356z" />
<glyph unicode="$" horiz-adv-x="1019" d="M41 25l20 362h80l52 -283q55 -29 126 -41l146 537q-61 35 -115.5 72t-94.5 81t-63.5 99t-23.5 125q0 80 38 141.5t99.5 103.5t139 64.5t157.5 22.5h27.5t25.5 -2q2 0 10.5 31.5t18.5 70.5l29 102h73l-28 -102q-10 -39 -18.5 -71.5t-10.5 -32.5q39 -4 72 -9.5t69 -15.5 q0 2 17.5 6t38.5 8l53 13l-53 -394h-84l-21 256q-25 14 -54.5 23.5t-61.5 17.5l-132 -481q61 -35 119 -71.5t102 -82t71.5 -100.5t27.5 -129q0 -88 -38 -158.5t-103.5 -119t-152.5 -74t-185 -25.5h-45l-84 -309h-74l84 313q-72 6 -133.5 19.5t-120.5 32.5zM322 1034 q-2 -90 50 -150.5t138 -115.5q35 129 61 227q12 43 23.5 83t20 72t13.5 52l5 19q-14 2 -29.5 3t-32.5 1q-45 0 -89 -11.5t-79.5 -35t-58 -59.5t-22.5 -85zM393 55q12 -2 24.5 -2h26.5q129 0 211 59.5t82 174.5q0 47 -15 85t-43 70.5t-67 61t-84 57.5z" />
<glyph unicode="%" horiz-adv-x="1527" d="M92 -31l1294 1340h117l-1294 -1340h-117zM113 946q0 78 29.5 146.5t79.5 121t119 82t144 29.5q68 0 126.5 -20.5t102.5 -59.5t69.5 -95t25.5 -126q0 -80 -29.5 -149.5t-80 -122t-119 -82t-148.5 -29.5q-66 0 -124 21.5t-101 61.5t-68.5 96.5t-25.5 125.5zM203 950 q0 -51 18.5 -94t51 -73.5t75.5 -47t92 -16.5q59 0 109.5 22.5t87.5 61.5t57.5 91.5t20.5 109.5q0 104 -66.5 171.5t-171.5 67.5q-57 0 -107.5 -24.5t-87 -65.5t-58 -93t-21.5 -110zM801 254q0 80 28.5 149.5t78.5 122t118 82t148 29.5q66 0 124 -20.5t101 -59.5t68.5 -95 t25.5 -126q0 -80 -29.5 -149.5t-81 -122t-120 -82t-146.5 -29.5q-137 0 -226 80t-89 221zM891 262q0 -104 67.5 -167.5t165.5 -63.5q59 0 109.5 23.5t88.5 64.5t59.5 94.5t21.5 110.5q0 51 -18.5 93t-51.5 72.5t-76 48t-92 17.5q-57 0 -107 -24.5t-87 -65.5t-58.5 -93.5 t-21.5 -109.5z" />
<glyph unicode="&#x26;" horiz-adv-x="1265" d="M12 268q0 88 32 157t84 118t119.5 80.5t137.5 48.5v2q-59 66 -100 133t-41 160q0 74 30.5 137t83 108t121 71t144.5 26q66 0 124 -19.5t101 -54.5t68.5 -83t25.5 -108q0 -248 -385 -352v-2l272 -297h2l252 236v4q-45 10 -69.5 39.5t-24.5 64.5q0 43 32 70t79 27 q53 0 85 -38t32 -83q0 -139 -228 -285l-119 -78l306 -332l-166 -49l-252 289h-2q-55 -66 -108.5 -120t-110 -92t-118 -58.5t-130.5 -20.5q-59 0 -110.5 23.5t-88.5 65.5t-57.5 96.5t-20.5 115.5zM162 307q0 -98 53 -156.5t123 -58.5q78 0 170 52.5t211 154.5l-299 338 q-117 -59 -187.5 -141t-70.5 -189zM393 1010q0 -47 9.5 -85t25.5 -70t40 -61.5t50 -62.5q133 63 204 132t71 169q0 88 -48.5 146.5t-136.5 58.5q-98 0 -156.5 -66.5t-58.5 -160.5z" />
<glyph unicode="'" horiz-adv-x="405" d="M78 825l235 500h2l152 -53l-320 -447h-69z" />
<glyph unicode="(" horiz-adv-x="808" d="M190 428q0 186 54.5 342t135.5 275.5t176 202.5t177 124l25 -33q10 -12 17 -23t7 -13q-76 -41 -163 -121t-158.5 -192.5t-119.5 -254t-48 -307.5t48 -307t119.5 -254t159 -193t162.5 -118q0 -2 -7 -12.5t-17 -24.5q-11 -17 -25 -35q-82 41 -177 124t-176 202.5 t-135.5 275.5t-54.5 342z" />
<glyph unicode=")" horiz-adv-x="808" d="M27 -446q78 41 163.5 120.5t157.5 192.5t120 254t48 307t-48 307.5t-120 254t-158 192.5t-163 121q0 2 8 13t18 23l25 33q82 -41 176 -124t175 -202.5t135 -275.5t54 -342t-54 -342t-135 -275.5t-175 -202.5t-176 -124l-25 33q-10 12 -18 23t-8 14z" />
<glyph unicode="*" horiz-adv-x="710" d="M129 793l70 116l178 49l2 35l-174 54l-64 110l27 37l129 -25l100 -155l35 10l6 190l86 93l45 -15l11 -127l-125 -151l20 -27l184 62l111 -56l-2 -45l-115 -55l-180 63l-20 -26l108 -152l-22 -127l-43 -10l-82 94l12 189l-31 8l-112 -150l-127 -26z" />
<glyph unicode="+" horiz-adv-x="983" d="M68 430l6 100h368v379h103v-379h366l7 -100h-373v-381h-103v381h-374z" />
<glyph unicode="," horiz-adv-x="462" d="M-55 -307q39 23 74.5 51.5t65.5 62t48.5 72.5t20.5 80t-18.5 71.5t-45 51t-46 31t-21.5 12.5q2 43 39.5 73.5t91.5 30.5q35 0 65.5 -14t54 -38.5t37 -58.5t11.5 -75q-2 -66 -35 -122t-81 -104t-106.5 -89t-111.5 -72z" />
<glyph unicode="-" horiz-adv-x="671" d="M51 428l6 104h525l6 -104h-537z" />
<glyph unicode="." horiz-adv-x="464" d="M59 96q0 49 35 86t92 37q55 0 91 -37t34 -86q0 -49 -34.5 -88t-90.5 -39q-57 0 -93 39t-34 88z" />
<glyph unicode="/" horiz-adv-x="571" d="M18 -432l439 1790h92l-438 -1790h-93z" />
<glyph unicode="0" horiz-adv-x="1034" d="M82 410q0 111 34 214t95 185t147 131t193 49q84 0 154.5 -29.5t123 -86t82 -137.5t29.5 -183q0 -111 -33 -215.5t-94 -186t-147 -132t-193 -50.5q-84 0 -155.5 31t-124 87t-82 138t-29.5 185zM203 410q0 -74 20.5 -134.5t57 -105.5t88 -69.5t110.5 -24.5q90 0 154.5 47 t105.5 117.5t60.5 154.5t19.5 158q0 72 -20.5 132t-57 103t-87 68t-109.5 25q-90 0 -154.5 -46.5t-106.5 -117t-61.5 -152.5t-19.5 -155z" />
<glyph unicode="1" horiz-adv-x="749" d="M57 0l9 70l161 20q23 2 31 12.5t10 24.5l99 727l-232 29l15 59l376 35l-114 -850q-2 -14 5 -24.5t27 -12.5l160 -20l4 -70h-551z" />
<glyph unicode="2" horiz-adv-x="917" d="M20 0l5 113q117 84 225 157.5t190 142t131.5 135t49.5 134.5q0 45 -17.5 80t-46.5 57.5t-66.5 34.5t-80.5 12q-76 0 -153 -37.5t-134 -89.5l-19 47q35 39 81 75t98.5 63.5t107.5 44t111 16.5q57 0 109.5 -16.5t91 -47t62 -76.5t23.5 -106q0 -90 -52 -167.5t-140 -150.5 t-199.5 -142.5t-232.5 -143.5l-2 -10h59q141 0 225 4t132.5 15.5t72 34t43.5 59.5l49 100h84l-98 -338h-709z" />
<glyph unicode="3" horiz-adv-x="849" d="M-68 -279q0 41 31 71t72 30q29 0 54.5 -12.5t44 -33t30.5 -47t14 -53.5q31 -8 68 -8q66 0 124 28t102 74t70.5 107.5t26.5 126.5q0 106 -65.5 175t-181.5 69q-88 0 -166 -33l-19 49q53 33 127 76t141.5 95t114.5 112.5t47 130.5q0 92 -56 141t-142 49q-78 0 -154 -36.5 t-141 -88.5l-21 48q39 37 85 72.5t98.5 63t108.5 44t118 16.5q55 0 108.5 -16.5t94.5 -48t65.5 -79.5t24.5 -110q0 -70 -38 -129t-95.5 -108.5t-124 -89t-123.5 -68.5v-4q31 6 71 6q59 0 112.5 -19.5t93.5 -56.5t62.5 -88.5t22.5 -114.5q0 -100 -51 -186t-133 -150.5 t-180.5 -101.5t-194.5 -37q-29 0 -70.5 6.5t-80.5 21.5t-67 42t-28 65z" />
<glyph unicode="4" horiz-adv-x="956" d="M-25 80l2 74l777 841h59l-108 -825h231l-27 -90h-217l-59 -457h-146l60 457h-572zM100 170h459l86 588h-8z" />
<glyph unicode="5" horiz-adv-x="874" d="M-74 -276q2 43 33 72.5t72 29.5q59 0 98 -45t43 -103q27 -8 64 -8q63 0 120.5 21.5t101.5 59.5t71.5 90.5t29.5 113.5q4 80 -37 148.5t-106.5 124t-148.5 99.5t-165 76l217 560h521l-25 -154h-469l-108 -289q96 -37 182 -85t150.5 -108.5t101.5 -133t35 -160.5 q-4 -102 -49.5 -184t-119 -140.5t-166.5 -90.5t-196 -32q-35 0 -79 7.5t-82 23.5t-63.5 43t-25.5 64z" />
<glyph unicode="6" horiz-adv-x="1036" d="M84 449q0 170 86 321.5t226.5 271t320.5 197.5t368 98l27 -55q-158 -33 -295 -94.5t-248.5 -147.5t-195.5 -195.5t-135 -238.5l20 -2q72 100 172 160.5t195 60.5q66 0 123 -24.5t100 -71.5t68.5 -115.5t25.5 -156.5q0 -98 -40 -187.5t-106.5 -156t-149.5 -105.5t-169 -39 q-84 0 -156.5 36t-125 99.5t-82 151.5t-29.5 193zM233 385q0 -66 16.5 -128t48.5 -111.5t78 -79t107 -29.5t116.5 31.5t97.5 86t66.5 128t24.5 159.5q0 70 -19 125.5t-51 94t-71 59t-80 20.5q-102 0 -181 -64.5t-132 -152.5q-8 -35 -14.5 -69.5t-6.5 -69.5z" />
<glyph unicode="7" horiz-adv-x="915" d="M23 -379l749 1188v10h-283q-82 0 -128 -2t-71.5 -8t-36.5 -17.5t-22 -31.5q-18 -31 -32 -58q-12 -23 -22.5 -42t-12.5 -23h-68l86 326h725v-89l-780 -1253h-104z" />
<glyph unicode="8" horiz-adv-x="997" d="M80 313q2 70 29.5 123t71.5 93t100.5 69t115.5 49v4q-90 53 -146 129t-52 178q2 78 34.5 141.5t87 107.5t127 68.5t154.5 22.5q68 -2 129.5 -25.5t107.5 -66.5t72.5 -101t22.5 -128q-2 -63 -24.5 -113.5t-59.5 -88.5t-86 -66.5t-107 -49.5v-4q100 -57 169 -136.5 t65 -196.5q-2 -90 -38 -157t-95.5 -111t-137 -65.5t-167.5 -19.5q-74 2 -142.5 28t-121 71t-82 107.5t-27.5 137.5zM231 313q-6 -121 64 -198.5t201 -79.5q111 -4 178.5 55t73.5 172q4 63 -24 114.5t-72 94.5t-99 80t-109 67q-88 -53 -148 -126.5t-65 -178.5zM344 1020 q-2 -55 18.5 -102.5t57.5 -87t87 -74.5t103 -66q166 99 174 283q2 51 -10 98t-38.5 84t-68.5 59.5t-98 24.5q-102 2 -161.5 -59.5t-63.5 -159.5z" />
<glyph unicode="9" horiz-adv-x="1036" d="M-80 -326q317 66 543.5 240t331.5 436l-21 2q-37 -49 -81 -90t-92 -70.5t-97 -45t-96 -15.5q-66 0 -123.5 24.5t-100.5 71.5t-68.5 116t-25.5 157q0 98 40 187t105.5 155.5t148.5 105.5t169 39q84 0 156.5 -36t126 -99.5t83 -151.5t29.5 -192q0 -168 -86 -320.5 t-226 -272.5t-320.5 -197.5t-370.5 -98.5zM244 514q0 -70 19.5 -125t50 -94t70.5 -59.5t79 -20.5q102 0 181 64.5t132 152.5q8 35 14.5 70t6.5 69q0 66 -16.5 128.5t-47.5 111.5t-78 79t-108 30q-59 0 -114.5 -32t-97.5 -86t-66.5 -128t-24.5 -160z" />
<glyph unicode=":" horiz-adv-x="462" d="M59 96q0 49 35 86t92 37q55 0 91 -37t34 -86q0 -49 -34.5 -88t-90.5 -39q-57 0 -93 39t-34 88zM143 731q0 49 36 86t91 37q57 0 92 -37t35 -86q-2 -49 -36.5 -87t-90.5 -38q-57 0 -92 38t-35 87z" />
<glyph unicode=";" horiz-adv-x="462" d="M-55 -307q39 23 74.5 51.5t65.5 62t48.5 72.5t20.5 80t-18.5 71.5t-45 51t-46 31t-21.5 12.5q2 43 39.5 73.5t91.5 30.5q35 0 65.5 -14t54 -38.5t37 -58.5t11.5 -75q-2 -66 -35 -122t-81 -104t-106.5 -89t-111.5 -72zM145 731q0 49 35 86t92 37q55 0 91 -37t34 -86 q0 -49 -34.5 -87t-90.5 -38q-57 0 -92 38t-35 87z" />
<glyph unicode="&#x3c;" horiz-adv-x="983" d="M41 457v49l819 385l25 -92l-668 -312v-10l668 -313l-25 -92z" />
<glyph unicode="=" horiz-adv-x="983" d="M68 250l6 104h798l7 -104h-811zM68 711h811l-7 -105h-798z" />
<glyph unicode="&#x3e;" horiz-adv-x="983" d="M59 164l670 313v10l-670 312l27 92l819 -385v-49l-819 -385z" />
<glyph unicode="?" horiz-adv-x="727" d="M123 86q0 45 32.5 79t86.5 34q53 0 83.5 -34t30.5 -79q0 -47 -30.5 -82t-83.5 -35t-86 35t-33 82zM166 590q0 59 22.5 99t59.5 68.5t84 48t94 34.5q39 12 75 25.5t63.5 28.5t44 35.5t16.5 49.5q0 35 -25 66.5t-69 56t-103 40t-131 15.5q-29 0 -53.5 -2t-42.5 -6 q-10 16 -11 45q0 51 39 82t111 31q80 0 147.5 -28t116.5 -74t77 -104.5t28 -119.5q0 -70 -21.5 -116t-56.5 -77.5t-80 -51t-92 -36.5q-37 -12 -73 -25t-63.5 -31.5t-45 -45.5t-17.5 -66q0 -43 23.5 -82.5t58.5 -78.5l-63 4q-14 16 -35 37.5t-37.5 49t-28.5 60.5t-12 68z" />
<glyph unicode="@" horiz-adv-x="1708" d="M94 537q6 162 74 304t178.5 246.5t257 164t307.5 55.5q156 -4 293 -57.5t236.5 -147.5t155 -223t46.5 -285q-6 -115 -43.5 -210t-99 -163.5t-141.5 -106.5t-168 -38q-76 0 -119 16.5t-64.5 41t-24.5 52t3 47.5l72 314h-27q-43 -84 -91 -164t-96 -141.5t-94.5 -98.5 t-89.5 -37q-41 0 -78.5 17.5t-66.5 46.5t-45 64.5t-16 70.5q0 61 19.5 138t52 154t75.5 146.5t90 116.5t99.5 70.5t101.5 23.5q74 0 128 -45t77 -116h22l51 137h97l-117 -334l-45 -365q-6 -35 19.5 -59.5t90.5 -24.5q72 0 133.5 35t107.5 95.5t73.5 141.5t32.5 175 q6 139 -42.5 255t-137.5 201t-211.5 133t-262.5 52q-145 4 -275 -51.5t-229.5 -150.5t-160 -223t-66.5 -271q-8 -158 41 -290t138 -228.5t213 -150.5t266 -54q66 0 129 11t122 30l21 -68q-74 -25 -138.5 -36t-140.5 -11q-158 0 -296 59.5t-237 165t-153.5 250.5t-46.5 320z M592 334q0 -37 11 -61.5t28.5 -41t37 -23.5t36.5 -7q23 0 59.5 40t81.5 102.5t92 140t88 153.5q10 20 19.5 49t9.5 33q-10 20 -30.5 46t-48.5 48.5t-59.5 37.5t-66.5 15q-55 0 -88 -32q-29 -29 -59.5 -90.5t-55 -135t-40 -147.5t-15.5 -127z" />
<glyph unicode="A" horiz-adv-x="1181" d="M-66 0l7 70l96 20q35 10 52 30.5t40 67.5l451 1012v60l190 47l211 -1166q4 -23 13.5 -35t37.5 -16l117 -20l6 -70h-512l6 70l121 16q25 4 31 19.5t2 33.5l-53 324h-402l-98 -234q-24 -61 -24 -93v-6q3 -32 36 -40l111 -20l6 -70h-445zM383 547h352l-94 583h-10z" />
<glyph unicode="B" horiz-adv-x="1169" d="M27 0l6 70l127 20q35 6 41 37l137 1026q2 14 -4 23.5t-29 13.5l-119 20l-6 70h498q219 0 323.5 -83t104.5 -212q0 -63 -25.5 -115.5t-69.5 -94.5t-104.5 -70.5t-130.5 -45.5l6 -8q141 -29 220 -108t79 -183q0 -72 -25.5 -128t-70.5 -101q-70 -68 -183.5 -99.5 t-242.5 -31.5h-532zM369 102q4 0 27.5 -4t49 -9t49 -9t27.5 -4h76q61 0 115.5 18.5t94.5 54t63.5 86t23.5 111.5q0 66 -25.5 116t-69.5 86t-104.5 54.5t-130.5 18.5h-129zM446 694h138q74 0 136 16.5t109.5 49.5t74 81t26.5 111q0 129 -90 190.5t-234 61.5h-90z" />
<glyph unicode="C" horiz-adv-x="1255" d="M102 532q0 158 58.5 305.5t169.5 258.5q98 98 224 155.5t277 57.5q72 0 150 -11.5t127 -27.5l145 33l-55 -416h-84l-20 272q-55 31 -119 50.5t-150 19.5q-113 0 -211 -54.5t-171.5 -148.5t-116.5 -223t-43 -279q0 -121 35.5 -216t101.5 -161q45 -45 112.5 -71.5 t151.5 -26.5q66 0 126 16.5t120 45.5l121 274h96l-98 -387l-95 20q-63 -20 -139 -34.5t-141 -14.5q-139 0 -245.5 40t-179.5 113t-110 177t-37 233z" />
<glyph unicode="D" horiz-adv-x="1331" d="M27 0l6 70l127 20q35 6 41 37l137 1026q2 14 -4 23.5t-29 13.5l-119 20l-6 70h490q139 0 250.5 -40t190.5 -113.5t122 -177t43 -232.5q0 -147 -48 -270t-153 -226q-102 -104 -259 -162.5t-345 -58.5h-444zM369 104l149 -28q121 4 226.5 48t182.5 126t121 200.5t44 272.5 q0 111 -30 199t-88.5 151.5t-145.5 97t-199 33.5h-115z" />
<glyph unicode="E" horiz-adv-x="1175" d="M27 0l6 70l127 20q35 6 41 37l137 1026q4 14 -2 23.5t-29 13.5l-119 20l-6 70h983l-49 -371h-88l-18 207q-2 31 -13.5 48.5t-53.5 26.5t-126 11t-231 2h-70l-70 -514h70q66 0 103.5 1t59 5t32 11.5t16.5 21.5l66 137h69l-100 -426h-68l8 131q2 12 -3 20.5t-25.5 14.5 t-61.5 8t-110 2h-66l-71 -540h47q164 0 256 3t140 12t65.5 26.5t29.5 46.5l82 198h98l-86 -362h-970z" />
<glyph unicode="F" horiz-adv-x="1128" d="M27 0l6 70l127 20q35 6 41 37l137 1026q4 14 -2 23.5t-29 13.5l-119 20l-6 70h967l-49 -371h-90l-19 207q-2 31 -13 48.5t-52 26.5t-125 11t-234 2h-51l-72 -526h82q66 0 104 1t60.5 5t32.5 11t16 22l66 137h69l-100 -426h-67l8 131q2 12 -3 20.5t-26.5 14.5t-62.5 8 t-111 2h-78l-63 -477q-6 -29 30 -37l134 -20l6 -70h-514z" />
<glyph unicode="G" horiz-adv-x="1341" d="M102 532q0 158 58.5 305.5t169.5 258.5q98 98 224 155.5t277 57.5q68 0 145 -11.5t126 -27.5l145 33l-55 -416h-84l-21 272q-53 29 -115.5 49.5t-146.5 20.5q-111 0 -209 -53.5t-171.5 -147.5t-117.5 -223t-44 -281q0 -121 35.5 -215t101.5 -159q45 -47 115.5 -74 t150.5 -27q55 0 112.5 11.5t106.5 33.5l47 342q4 18 -3 26.5t-29 12.5l-134 21l-6 67h502l-6 -67l-117 -21q-37 -8 -43 -39l-45 -311l115 -21l4 -55q-47 -12 -108.5 -26.5t-130 -26.5t-140.5 -19.5t-139 -7.5q-137 0 -243.5 41t-179.5 115t-110 177.5t-37 229.5z" />
<glyph unicode="H" horiz-adv-x="1468" d="M31 0l6 70l125 20q37 6 41 37l137 1026q4 14 -2 23.5t-29 13.5l-119 20l-6 70h500l-6 -70l-127 -20q-35 -6 -41 -37l-59 -455h620l62 455q4 18 -2.5 25.5t-28.5 11.5l-121 20l-6 70h502l-9 -70l-125 -20q-35 -6 -40 -37l-138 -1026q-6 -29 31 -37l119 -20l6 -70h-500 l6 70l127 20q20 4 28.5 11.5t12.5 25.5l66 487h-623l-65 -487q-2 -29 33 -37l118 -20l6 -70h-499z" />
<glyph unicode="I" horiz-adv-x="716" d="M37 0l6 70l141 20q35 6 41 37l137 1026q4 14 -2 23.5t-28 13.5l-135 20l-7 70h529l-6 -70l-142 -20q-35 -6 -41 -37l-135 -1026q-6 -31 31 -37l135 -20l6 -70h-530z" />
<glyph unicode="J" horiz-adv-x="798" d="M-22 168q26 25 69 25q55 -2 92 -38t47 -118h2q41 8 73 29.5t57.5 69.5t45 128t35.5 203l93 686q4 31 -31 37l-154 20l-6 70h547l-6 -70l-140 -20q-37 -6 -40 -37l-89 -666q-35 -264 -144.5 -391t-272.5 -127q-90 0 -150 37q-57 36 -57 92q0 43 29 70z" />
<glyph unicode="K" horiz-adv-x="1294" d="M27 0l6 70l127 20q35 6 41 37l137 1026q4 14 -2 23.5t-29 13.5l-119 20l-6 70h500l-8 -70l-125 -20q-35 -6 -41 -37l-72 -543l461 418q53 51 87 83t34 50q0 23 -41 37l-84 14l-6 70h485l-6 -68l-61 -8q-47 -8 -90.5 -33.5t-102.5 -72.5l-401 -359l344 -594q25 -41 42 -49 t44 -14l73 -14l7 -70h-441l6 70l82 18q27 6 6 39l-284 516l-172 -147l-47 -369q-6 -29 30 -37l121 -20l6 -70h-501z" />
<glyph unicode="L" horiz-adv-x="1124" d="M27 0l6 70l127 20q35 6 41 37l135 1026q6 31 -31 37l-123 20l-6 70h522l-6 -70l-145 -20q-23 -4 -30 -13.5t-11 -23.5l-141 -1077h41q147 0 231 3t129 12t61.5 26.5t28.5 46.5l96 244h97l-99 -408h-923z" />
<glyph unicode="M" horiz-adv-x="1617" d="M-23 0l7 70l139 22q12 2 22.5 9.5t20.5 35t22.5 83.5t28.5 157l129 780q6 29 -27 35l-139 18l-6 70h418l166 -1020h10l496 1020h393l-6 -70l-142 -20q-37 -6 -41 -37l-77 -782q-9 -91 -13 -145q-2 -29 -2 -51q0 -19 1 -31q3 -28 11.5 -39t18.5 -13l123 -22l6 -70h-522 l6 70l135 22q12 2 21.5 14.5t16.5 43t14 84t16 137.5l80 774h-11l-542 -1104h-119l-187 1118h-10l-129 -782q-16 -98 -24.5 -154.5t-9.5 -85t5.5 -36t16.5 -9.5l133 -22l6 -70h-455z" />
<glyph unicode="N" horiz-adv-x="1433" d="M16 0l7 70l124 16q23 4 37.5 14.5t25.5 40t21.5 86t22.5 150.5l90 676q4 29 4 51q0 26 -6 42q-10 28 -45 38l-113 26l-6 70h363l534 -1028h8l88 651q13 101 19 157q5 43 4 70v15q-2 29 -13.5 37t-33.5 12l-121 16l-6 70h477l-6 -70l-125 -16q-20 -4 -34.5 -13.5t-26 -38 t-22.5 -85t-23 -154.5l-123 -919h-103l-590 1126h-8l-94 -733q-12 -99 -18 -155q-4 -37 -5 -61q-1 -13 1 -23q4 -28 15 -38t34 -14l118 -16l7 -70h-478z" />
<glyph unicode="O" horiz-adv-x="1409" d="M102 567q0 143 45.5 273.5t131.5 234.5q90 106 216 170t281 64q129 0 235.5 -46t183.5 -127t119 -190.5t42 -236.5q0 -154 -54.5 -294.5t-154.5 -244.5q-88 -92 -206 -146.5t-259 -54.5q-129 0 -235.5 46t-183.5 126t-119 189.5t-42 236.5zM287 547q0 -115 31.5 -216.5 t101.5 -170.5q51 -51 119.5 -80t160.5 -29q123 0 212 67.5t146.5 169t85 221.5t27.5 224q0 115 -30.5 215.5t-100.5 169.5q-51 53 -120.5 82t-161.5 29q-123 0 -212 -67.5t-146.5 -169t-85 -221.5t-27.5 -224z" />
<glyph unicode="P" horiz-adv-x="1124" d="M27 0l6 70l127 20q35 6 41 37l137 1026q4 14 -2 23.5t-29 13.5l-119 20l-6 70h475q104 0 189.5 -24.5t147 -70.5t94 -111.5t32.5 -145.5q0 -98 -43 -174t-114.5 -128.5t-164.5 -79t-194 -26.5q-49 0 -93 4t-85 11l-55 -408q-6 -35 30 -37l162 -20l6 -70h-542zM436 612 q37 -8 79 -13t83 -5q150 0 245 87t95 247q0 133 -86 205.5t-225 72.5h-68t-43 -2z" />
<glyph unicode="Q" horiz-adv-x="1413" d="M102 567q0 143 45.5 273.5t131.5 234.5q90 106 216 170t281 64q129 0 235.5 -46t183.5 -127t119 -190.5t42 -236.5q0 -154 -54.5 -294.5t-154.5 -244.5q-82 -88 -192.5 -140.5t-235.5 -60.5q41 -84 93 -139t122 -88t157 -43q54 -6 117 -6q38 0 78 2l2 -66 q-47 -10 -100 -16t-127 -6q-106 0 -187 16.5t-144.5 60.5t-117 118.5t-108.5 191.5q-92 27 -166 80t-126 126.5t-81 167t-29 199.5zM287 547q0 -115 31.5 -216.5t101.5 -170.5q51 -51 119.5 -80t160.5 -29q123 0 212 67.5t146.5 169t85 221.5t27.5 224q0 115 -30.5 215.5 t-100.5 169.5q-51 53 -120.5 82t-161.5 29q-123 0 -212 -67.5t-146.5 -169t-85 -221.5t-27.5 -224z" />
<glyph unicode="R" horiz-adv-x="1212" d="M29 0l6 70l125 20q35 6 41 37l135 1026q6 29 -31 37l-121 20l-6 70h529q104 0 183 -23.5t131 -64.5t77.5 -96.5t25.5 -118.5q0 -154 -100 -253t-266 -142l223 -412q29 -57 49.5 -69.5t36.5 -16.5l78 -14l6 -70h-283l-67 141l-207 422l-164 6l-59 -442q-6 -31 30 -37 l134 -20l6 -70h-512zM442 657l176 -26q141 18 229.5 97t88.5 216q0 120 -81 192q-77 68 -218 68h-16l-109 -2z" />
<glyph unicode="S" horiz-adv-x="1011" d="M41 25l20 362h80l52 -283q98 -51 251 -51q129 0 211 59.5t82 174.5q0 55 -20.5 98t-58 80t-88 69.5t-107.5 65.5q-63 39 -117.5 76t-94.5 80t-61.5 96t-21.5 125q0 80 38 141.5t99.5 103.5t139 64.5t157.5 22.5q47 0 83 -2t66.5 -5.5t59.5 -9.5t59 -12q0 2 17.5 6t38.5 8 l53 13l-53 -394h-84l-21 256q-51 27 -114.5 41.5t-135.5 14.5q-45 0 -89 -11.5t-79.5 -35t-58 -59.5t-22.5 -85q0 -55 19 -99t56 -81t88.5 -70.5t112.5 -68.5q57 -33 110.5 -69t94.5 -79t65.5 -97t24.5 -124q0 -88 -38 -158.5t-103.5 -119t-152.5 -74t-185 -25.5 q-111 0 -201 14.5t-172 41.5z" />
<glyph unicode="T" horiz-adv-x="1257" d="M102 887l86 393h1096l-51 -393h-84l-19 215q-2 29 -11 48t-39.5 30.5t-91 17.5t-169.5 6h-14l-141 -1077q-6 -31 30 -37l152 -20l6 -70h-567l8 70l160 20q20 2 28 12.5t13 24.5l141 1077h-14q-104 0 -165 -3t-94.5 -12t-50 -26.5t-28.5 -46.5l-84 -229h-97z" />
<glyph unicode="U" horiz-adv-x="1458" d="M164 1280h502l-7 -70l-127 -20q-37 -6 -40 -37l-89 -651q-4 -23 -7 -53.5t-3 -59.5q0 -166 94.5 -241.5t247.5 -75.5q72 0 134.5 18.5t111.5 60.5t83 109.5t48 165.5l64 477q14 101 20 157q4 38 4 63q0 13 -1 22q-3 29 -14 37t-34 12l-121 16l-6 70h477l-6 -70l-125 -16 q-20 -4 -34.5 -13.5t-26 -38t-21.5 -85t-24 -154.5l-68 -495q-33 -223 -174 -331t-346 -108q-98 0 -181 23.5t-144.5 72t-96.5 121t-35 170.5q0 33 3 70t7 66l93 661q2 14 -4.5 23.5t-28.5 13.5l-119 20z" />
<glyph unicode="V" horiz-adv-x="1189" d="M70 1280h512l-7 -70l-122 -16q-25 -4 -30 -19.5t-1 -33.5l170 -977h8l418 950q10 25 4 46.5t-37 29.5l-108 20l-7 70h447l-6 -70l-99 -20q-35 -10 -53 -30.5t-39 -67.5l-504 -1094h-153l-219 1141q-4 23 -13.5 35t-37.5 16l-117 20z" />
<glyph unicode="W" horiz-adv-x="1757" d="M59 1280h512l-6 -70l-123 -16q-25 -4 -29.5 -20.5t-0.5 -32.5l131 -983l8 -2l364 852l-20 131q-4 23 -14.5 35t-38.5 16l-117 20l-6 70h508l-6 -70l-123 -16q-23 -4 -30 -19.5t-3 -33.5l145 -981l7 -2l376 956q10 23 3 45.5t-37 30.5l-109 20l-6 70h446l-6 -70l-98 -20 q-33 -10 -56.5 -32.5t-39.5 -65.5l-445 -1094h-164l-129 848h-8l-371 -848h-163l-177 1141q-4 23 -13 35t-38 16l-116 20z" />
<glyph unicode="X" horiz-adv-x="1273" d="M-39 0l6 70l80 14q41 10 77 30.5t77 73.5l385 459l-250 445q-27 47 -44.5 67.5t-51.5 30.5l-95 20l-4 70h502l-8 -70l-105 -12q-40 -4 -40 -33q0 -28 30 -82l172 -333h10l291 364q23 27 19 48.5t-47 31.5l-99 16l-6 70h469l-6 -70l-80 -14q-41 -10 -75.5 -30.5 t-77.5 -73.5l-345 -412l277 -492q27 -47 44 -67.5t50 -30.5l94 -20l7 -70h-504l8 70l102 12q41 4 41 31.5t-28 83.5l-201 381h-6l-332 -412q-20 -25 -16 -46.5t45 -31.5l98 -18l6 -70h-469z" />
<glyph unicode="Y" horiz-adv-x="1210" d="M76 1280h499l-8 -70l-102 -12q-40 -4 -40 -34q0 -29 28 -85l209 -450h8l331 485q16 29 15.5 49.5t-43.5 30.5l-107 16l-6 70h467l-6 -70l-82 -14q-41 -10 -75 -29.5t-70 -74.5l-381 -543l-56 -422q-6 -31 31 -37l152 -20l6 -70h-567l6 70l161 20q20 2 28.5 12.5 t12.5 24.5l54 420l-269 545q-23 47 -43 67.5t-55 30.5l-92 20z" />
<glyph unicode="Z" horiz-adv-x="1116" d="M-2 0l8 70l955 1126v8h-224q-137 0 -215 -5t-120 -18.5t-59 -36t-34 -57.5l-65 -186h-84l49 379h962l-10 -72l-950 -1126l-2 -8l205 2q150 0 235.5 5t131.5 17.5t64.5 32t33.5 49.5l77 203h97l-95 -383h-960z" />
<glyph unicode="[" horiz-adv-x="753" d="M195 -451v1784h516v-86h-416v-1612h416v-86h-516z" />
<glyph unicode="\" horiz-adv-x="571" d="M20 1358h93l438 -1790h-92z" />
<glyph unicode="]" horiz-adv-x="753" d="M43 -365h416v1612h-416v86h516v-1784h-516v86z" />
<glyph unicode="^" horiz-adv-x="819" d="M188 1040l226 377h182l125 -377h-43l-182 271h-4l-259 -271h-45z" />
<glyph unicode="_" horiz-adv-x="962" d="M-78 -106l6 104h983l7 -104h-996z" />
<glyph unicode="`" horiz-adv-x="819" d="M238 1417h192l141 -377h-45z" />
<glyph unicode="a" d="M45 233q0 78 17.5 161t48 162t72.5 146.5t89 114.5q55 55 122 93t132 38q37 0 63.5 -15t47 -39t35 -51.5t22.5 -49.5h15l41 153h127l-101 -364l-108 -488l61 -18l162 137l35 -37q-18 -33 -49 -69.5t-66 -67.5t-72 -50.5t-65 -19.5q-16 0 -41 6.5t-48.5 15.5t-41 20.5 t-17.5 23.5q0 10 10.5 47t27 92t37 124t42.5 138h-18q-49 -88 -98.5 -172t-98.5 -149.5t-98 -105.5t-99 -40q-84 0 -135 72t-51 192zM186 270q0 -180 101 -180q29 0 62.5 28.5t76.5 87t98.5 148.5t126.5 211l29 119q-18 25 -45 54.5t-58.5 55t-65.5 43t-69 17.5 q-41 0 -82 -41q-27 -27 -57.5 -90.5t-57 -142t-43 -161.5t-16.5 -149z" />
<glyph unicode="b" horiz-adv-x="915" d="M80 102l223 1106q6 35 -14 41l-142 45l7 52l333 81l-112 -477l-121 -485h18q49 92 99.5 179t100.5 154.5t99.5 108.5t96.5 41q41 0 73.5 -23.5t56 -63.5t37 -92.5t13.5 -109.5q0 -78 -14.5 -156.5t-41 -152.5t-64.5 -137t-85 -111q-59 -59 -136 -98t-155 -39 q-43 0 -91 16.5t-90 40t-67.5 46t-23.5 34.5zM205 164q25 -25 55.5 -47.5t62 -40t62.5 -27.5t55 -10q47 0 92 49q33 33 64 95.5t55.5 137t39 154.5t14.5 148q0 82 -25 141t-74 61q-51 0 -134 -118.5t-228 -374.5z" />
<glyph unicode="c" horiz-adv-x="763" d="M61 287q0 121 39 238.5t105.5 211.5t155 151.5t186.5 57.5q45 0 85 -11t70.5 -32.5t48 -50.5t17.5 -64q0 -45 -26.5 -76.5t-67.5 -31.5q-80 0 -80 76q0 35 14 55q-4 6 -21.5 16.5t-41 18.5t-51 14t-52.5 6q-10 0 -28.5 -13t-32.5 -28q-27 -27 -58.5 -83t-57 -127.5 t-43 -150.5t-17.5 -153q0 -115 56 -174t128 -59q45 0 106.5 36t139.5 95l29 -37q-76 -88 -157 -145.5t-173 -57.5q-57 0 -107.5 24.5t-87.5 66.5t-57.5 100.5t-20.5 126.5z" />
<glyph unicode="d" d="M45 233q0 78 17.5 161t48 162t72.5 146.5t89 114.5q55 55 122 93t132 38q37 0 63.5 -15t47 -39t35 -51.5t22.5 -49.5h15l82 415q6 35 -15 41l-141 45l8 52l332 81l-203 -862l-104 -471l61 -18l162 137l35 -37q-18 -33 -49 -69.5t-66 -67.5t-72 -50.5t-65 -19.5 q-16 0 -41 6.5t-48.5 15.5t-41 20.5t-17.5 23.5q0 10 10.5 47t27 92t37 124t42.5 138h-18q-49 -88 -98.5 -172t-98.5 -149.5t-98 -105.5t-99 -40q-84 0 -135 72t-51 192zM186 270q0 -180 101 -180q29 0 62.5 28.5t76.5 87t98.5 148.5t126.5 211l29 119q-18 25 -45 54.5 t-58.5 55t-65.5 43t-69 17.5q-41 0 -82 -41q-27 -27 -57.5 -90.5t-57 -142t-43 -161.5t-16.5 -149z" />
<glyph unicode="e" horiz-adv-x="751" d="M61 287q0 123 40 241.5t106.5 212t151.5 149.5t178 56q49 0 89 -15.5t67.5 -40t43 -57t15.5 -69.5q0 -49 -26 -88t-88.5 -82t-166.5 -98.5t-264 -139.5q-2 -10 -2 -22v-23q0 -115 56 -174t128 -59q45 0 106.5 36t139.5 95l29 -37q-76 -88 -157 -145.5t-173 -57.5 q-57 0 -107.5 24.5t-87.5 66.5t-57.5 100.5t-20.5 126.5zM209 418l4 -2q123 66 202 114t124 86.5t61 72.5t16 73q0 20 -16 37.5t-40.5 31t-50.5 20.5t-44 7q-33 0 -55.5 -11t-38.5 -28q-39 -41 -86 -147.5t-76 -253.5z" />
<glyph unicode="f" horiz-adv-x="552" d="M-305 -385q0 45 25.5 73.5t66.5 28.5q49 0 78 -38.5t35 -92.5l120 64q10 23 21.5 63.5t24 93t23.5 110.5t22 114l137 788l-185 8l7 58l194 43q20 104 59 205.5t103 164.5q49 51 112.5 81t141.5 30q82 0 130 -41t48 -92q0 -43 -24.5 -74t-65.5 -31q-47 0 -78 37t-41 97 l-166 -37q-29 -66 -52 -155t-40 -195h244l8 -93h-268l-117 -645q-16 -96 -37.5 -186t-46 -168t-53.5 -138.5t-64 -97.5q-45 -47 -102 -70.5t-115 -23.5q-61 0 -103 34t-42 85z" />
<glyph unicode="g" horiz-adv-x="872" d="M-121 -254q0 45 26.5 85t66.5 73t87 56.5t91 37.5v10q-45 25 -72 57.5t-27 79.5q0 61 53.5 105.5t131.5 71.5v10q-53 39 -89 104.5t-36 143.5q0 80 32.5 146.5t87 115.5t127 76.5t152.5 27.5q78 0 136.5 -13t98.5 -24h207l-39 -135l-239 47v-16q43 -49 65.5 -94 t22.5 -107q0 -70 -32 -130t-81 -105t-109.5 -71t-119.5 -26q-66 0 -135 27q-49 -12 -77 -45t-28 -61q0 -41 38 -67t136 -60l95 -33q61 -20 116.5 -44t96 -53.5t65.5 -69.5t25 -91q0 -53 -34 -103.5t-97.5 -89.5t-156.5 -63.5t-214 -24.5q-74 0 -140.5 16.5t-117.5 48t-82 79 t-31 108.5zM6 -231q0 -43 25.5 -79t69.5 -61.5t105.5 -41t133.5 -15.5q59 0 111.5 12.5t92.5 34t63.5 52t23.5 65.5q0 57 -61.5 94t-151.5 70q-59 23 -112.5 39t-102.5 36q-37 -18 -72 -39.5t-62.5 -47t-45 -55.5t-17.5 -64zM246 543q2 -61 18.5 -107.5t38.5 -68.5 q14 -14 33.5 -24.5t42.5 -10.5q43 0 83 19.5t75 54.5q51 51 76.5 131.5t25.5 158.5q0 33 -17.5 64t-45 54.5t-61.5 37.5t-64 14q-37 0 -58.5 -12t-40.5 -29q-49 -49 -78 -127q-28 -72 -28 -145v-10z" />
<glyph unicode="h" horiz-adv-x="1005" d="M45 0l72 301l186 907q6 35 -14 41l-142 45l7 52l333 81l-114 -479l-137 -590h18q94 199 172 331t131 188q67 69 139 69h2q29 0 55.5 -11t49 -29.5t36 -45t13.5 -57.5q0 -25 -7 -66t-19.5 -90t-28 -104.5t-31.5 -110.5q-29 -98 -56.5 -190t-43.5 -148l59 -18l164 137 l33 -37q-18 -33 -49 -69.5t-66 -67.5t-72 -50.5t-65 -19.5q-16 0 -40 6.5t-46.5 15.5t-39 20.5t-16.5 23.5q0 20 10.5 64t27 99.5t34.5 116t35 113.5q14 47 28.5 93t26.5 87t19.5 73t7.5 50q0 35 -31 62.5t-68 27.5q-23 0 -60.5 -43t-86.5 -119.5t-107.5 -183t-121.5 -233.5 l-45 -252z" />
<glyph unicode="i" horiz-adv-x="522" d="M41 707q18 37 48 78.5t63.5 77.5t69.5 59.5t65 23.5q16 0 42.5 -6t51.5 -15.5t42 -20.5t13 -23l-217 -787l62 -18l163 137l35 -37q-18 -33 -50 -69.5t-66.5 -67.5t-71.5 -50.5t-66 -19.5q-14 0 -38.5 6.5t-48 16.5t-39 21.5t-13.5 21.5l209 788l-62 11l-157 -164z M346 1233q0 57 32 95t73 38q47 0 73.5 -29.5t26.5 -74.5q0 -57 -31 -95.5t-71 -38.5q-49 0 -76 30t-27 75z" />
<glyph unicode="j" horiz-adv-x="499" d="M-274 -426v5q0 38 28 63q29 28 70 28q47 0 74.5 -28.5t44.5 -71.5l41 8q29 51 61.5 163t75.5 316l168 766l-62 11l-157 -164l-35 37q18 37 48 78.5t63.5 77.5t69.5 59.5t65 23.5q16 0 42.5 -6t51 -15.5t42 -20.5t13.5 -23l-174 -752q-47 -207 -99.5 -358.5t-129.5 -229.5 q-37 -37 -77 -57.5t-91 -20.5t-92 30t-41 81zM338 1233q0 57 30.5 95t71.5 38q47 0 74 -29.5t27 -74.5q0 -57 -31 -95.5t-72 -38.5q-49 0 -74.5 30t-25.5 75z" />
<glyph unicode="k" horiz-adv-x="884" d="M41 0l76 301l186 907q6 35 -14 41l-142 45l7 52l333 81l-114 -479l-107 -442h13l405 221l16 29q-41 10 -61.5 34.5t-20.5 59.5q0 41 34 71.5t77 30.5q49 0 81 -34.5t32 -75.5q0 -51 -20.5 -89t-60.5 -69t-100.5 -59.5t-142.5 -63.5l43 -328l78 -143l111 94l71 27 q-12 -29 -12 -34t4 -1q6 7 18 23q-18 -37 -46.5 -77t-62.5 -74t-69 -56.5t-63 -22.5q-10 0 -26.5 6.5t-33 15.5t-29 19t-14.5 17l-141 454l-80 -37l-76 -454z" />
<glyph unicode="l" horiz-adv-x="501" d="M53 35l250 1173q6 35 -14 41l-142 45l9 52l327 81l-297 -1333l62 -18l164 137l34 -37q-18 -33 -48.5 -69.5t-65.5 -67.5t-72 -50.5t-65 -19.5q-16 0 -41 7.5t-47.5 16.5t-39 21.5t-14.5 20.5z" />
<glyph unicode="m" horiz-adv-x="1523" d="M35 707q18 37 48 78.5t63.5 77.5t69.5 59.5t65 23.5q16 0 40.5 -6t48 -15.5t41 -20.5t17.5 -23q0 -16 -14.5 -76t-34 -138.5t-42 -161.5t-38.5 -147h20q94 199 170 331t129 188q35 35 68 52t74 17q55 0 94 -42t39 -107q0 -25 -12.5 -77t-28.5 -115.5t-35.5 -129 t-36.5 -117.5h19q94 199 172 331t131 188q67 69 139 69h2q29 0 56.5 -11t49 -29.5t35 -45t13.5 -57.5q0 -25 -7.5 -66t-19.5 -90t-28.5 -104.5t-32.5 -110.5q-14 -49 -29.5 -101t-29 -99.5t-25 -83t-17.5 -54.5l62 -18l162 137l34 -37q-18 -33 -49 -69.5t-65.5 -67.5 t-71.5 -50.5t-66 -19.5q-16 0 -39.5 6.5t-46 15.5t-39 20.5t-16.5 23.5q0 18 10.5 61t26.5 99.5t34.5 118t35.5 114.5q14 47 28.5 93t26.5 87t19.5 73t7.5 50q0 35 -31 62.5t-68 27.5q-23 0 -60.5 -43t-86.5 -119.5t-107.5 -183t-122.5 -233.5l-57 -252l-151 10l120 428 q12 43 26.5 90t26 88t19.5 74t8 51q0 35 -30.5 62.5t-67.5 27.5q-23 0 -60.5 -43t-86 -119.5t-105.5 -183t-121 -233.5l-47 -252l-149 10l69 301l111 522l-62 11l-159 -164z" />
<glyph unicode="n" horiz-adv-x="1042" d="M35 707q18 37 48 78.5t63.5 77.5t69.5 59.5t65 23.5q16 0 40.5 -6t48 -15.5t41 -20.5t17.5 -23q0 -16 -14.5 -76t-34 -138.5t-42 -161.5t-38.5 -147h20q94 199 171 331t131 188q67 69 139 69h2q29 0 56.5 -11t49 -29.5t34.5 -45t13 -57.5q0 -25 -7 -66t-19 -90 t-27.5 -104.5t-32.5 -110.5q-29 -98 -56.5 -191.5t-45.5 -146.5l61 -18l164 137l35 -37q-18 -33 -49 -69.5t-66.5 -67.5t-72.5 -50.5t-66 -19.5q-14 0 -38.5 6.5t-46 15.5t-38 20.5t-16.5 23.5q0 20 10 64t26.5 99.5t35 116t34.5 113.5q14 47 28.5 93t26 87t18.5 73t7 50 q0 35 -30.5 62.5t-67.5 27.5q-23 0 -60.5 -43t-87 -119.5t-106.5 -183t-121 -233.5l-47 -252l-149 10l69 301l109 514l-60 12l-161 -157z" />
<glyph unicode="o" horiz-adv-x="894" d="M68 362q0 100 33.5 204t94 189t143.5 138t181 53q78 0 135.5 -30.5t94 -85t55 -126t18.5 -151.5q0 -100 -33.5 -203.5t-94 -187.5t-143.5 -138.5t-181 -54.5q-80 0 -137.5 31t-94.5 85t-54 126t-17 151zM207 317q0 -51 9 -101t29.5 -91t52.5 -66.5t77 -25.5q55 0 102 39 t82 95t59.5 119.5t36.5 112.5q12 53 19.5 108.5t7.5 102.5q0 51 -9 100.5t-29.5 87.5t-52.5 61.5t-77 23.5q-53 0 -98 -38t-81 -93.5t-61.5 -117t-37.5 -108.5q-29 -109 -29 -209z" />
<glyph unicode="p" horiz-adv-x="972" d="M-156 -504l4 70l129 20q23 2 31 11.5t12 25.5l271 1196l-64 15l-157 -164l-35 37q18 37 48 78.5t63.5 77.5t69.5 59.5t65 23.5q16 0 41.5 -6t50 -15.5t42 -20.5t17.5 -23q0 -8 -11 -51.5t-27.5 -102.5t-38 -129t-40.5 -133h19q49 92 99 179t100.5 154.5t99.5 108.5t96 41 q41 0 74 -23.5t56.5 -63.5t36.5 -92t13 -110q0 -78 -17.5 -157.5t-46 -154.5t-68.5 -139.5t-87 -111.5q-59 -59 -128.5 -94t-141.5 -35q-53 0 -98.5 22.5t-75.5 53.5h-4l-82 -420q-6 -35 28 -37l152 -20l6 -70h-502zM268 178q23 -25 49.5 -49.5t56 -43.5t58.5 -32.5 t53 -13.5q43 0 93 49q33 33 66.5 95.5t60 137t44 154.5t17.5 148q0 82 -24.5 141t-73.5 61q-51 0 -134 -118.5t-229 -374.5z" />
<glyph unicode="q" horiz-adv-x="901" d="M45 233q0 78 17.5 161t48 162t72.5 146.5t89 114.5q55 55 122 93t132 38q37 0 63.5 -15t47 -39t35 -51.5t22.5 -49.5h15l39 147l126 -4l-98 -354l-207 -959q-6 -31 29 -37l133 -20l4 -70h-491l4 70l135 20q23 2 31 12.5t12 24.5l113 463q23 80 43 150q16 59 34.5 116.5 t26.5 83.5h-18q-49 -88 -98.5 -172t-98.5 -149.5t-98 -105.5t-99 -40q-84 0 -135 72t-51 192zM186 270q0 -180 101 -180q29 0 62.5 28.5t76.5 87t98.5 148.5t126.5 211l29 119q-18 25 -45 54.5t-58.5 55t-65.5 43t-69 17.5q-41 0 -82 -41q-27 -27 -57.5 -90.5t-57 -142 t-43 -161.5t-16.5 -149z" />
<glyph unicode="r" horiz-adv-x="804" d="M35 707q18 37 48 78.5t63.5 77.5t69.5 59.5t65 23.5q16 0 40.5 -6t48 -15.5t41 -20.5t17.5 -23q0 -16 -14.5 -76t-34 -138.5t-42 -161.5t-40.5 -147h27q18 53 48.5 122t64.5 136.5t67 124t59 82.5q25 37 44.5 60.5t38 38t39 19.5t46.5 5q53 0 88 -36t35 -87t-27.5 -83.5 t-68.5 -32.5q-42 -1 -68 29q-16 18 -16 46q0 17 6 39q-6 4 -14 8q-14 8 -21 5q-14 -12 -40.5 -52.5t-59.5 -93.5t-68 -116.5t-66.5 -125t-59 -114.5t-44.5 -90l-47 -252l-149 10l69 301l109 522l-62 11l-157 -164z" />
<glyph unicode="s" horiz-adv-x="696" d="M-8 119q0 41 26.5 68.5t69.5 27.5q35 0 54.5 -23.5t19.5 -56.5q0 -10 -4 -22.5t-8 -22.5q39 -16 91 -29.5t101 -17.5q41 16 75 61.5t38 88.5q2 29 -11.5 56t-35 55t-51 55.5t-60.5 56.5q-27 25 -58.5 57.5t-58 68.5t-44.5 76q-16 35 -15 72v8q4 61 35.5 108.5t78 78 t101.5 46t104 15.5t93.5 -6t78 -23.5t53 -45t19.5 -70.5t-26.5 -71t-67.5 -28q-35 0 -54.5 24t-19.5 56q0 23 10 47q-37 16 -81 28.5t-91 14.5q-41 -12 -73.5 -54t-34.5 -87v-9q0 -54 42 -102q46 -52 113 -116q27 -25 59 -57.5t60 -69.5q26 -37 44 -76q14 -32 15 -65 q0 -8 -1 -15q-4 -59 -35 -106t-78 -79t-102.5 -49.5t-108.5 -17.5q-55 0 -102.5 8.5t-83 25.5t-56 46t-20.5 70z" />
<glyph unicode="t" horiz-adv-x="604" d="M80 827l6 60q51 16 92 28q35 10 63.5 20.5t28.5 8.5l49 254h132l-56 -280h252l6 -93h-276l-154 -731l62 -18l164 137l34 -37q-18 -33 -50 -69.5t-66.5 -67.5t-71.5 -50.5t-66 -19.5q-16 0 -40.5 5.5t-47 13.5t-38 18t-13.5 21l160 792z" />
<glyph unicode="u" horiz-adv-x="1042" d="M59 707q18 37 48 78.5t65 77.5t71 59.5t64 23.5q16 0 40 -6t47.5 -15.5t40 -20.5t16.5 -23q0 -20 -10.5 -63.5t-27 -98.5t-35 -116.5t-34.5 -115.5q-14 -47 -28.5 -93t-27 -86t-19.5 -71.5t-7 -50.5q0 -35 31 -63.5t67 -28.5q23 0 61 43t87 120t107.5 183.5t121.5 233.5 l49 252l150 -11l-72 -301q-27 -131 -49 -241q-10 -47 -19.5 -93.5t-17.5 -84t-14 -64.5t-10 -37l61 -18l162 137l35 -37q-18 -33 -49 -69.5t-66 -67.5t-72 -50.5t-65 -19.5q-16 0 -41 6.5t-47.5 15.5t-39 20.5t-16.5 23.5q0 16 13.5 75.5t34 138.5t42 162t37.5 146h-18 q-94 -199 -172 -331t-131 -187q-68 -70 -148 -70q-57 0 -102 41t-45 103q0 25 7 65.5t19.5 89.5t28 104.5t31.5 110.5q29 98 56.5 190.5t43.5 149.5l-61 11l-158 -164z" />
<glyph unicode="v" horiz-adv-x="874" d="M-4 702q18 37 47 79t62.5 79t69.5 61.5t65 24.5q16 0 40.5 -6t48 -17.5t41 -23.5t17.5 -25l-10 -776h14l246 396q94 145 94 227q-2 41 -34.5 68.5t-86.5 37.5q12 61 47 91t82 30q51 0 92 -34q39 -33 39 -102v-7q2 -74 -58 -179.5t-179 -273.5l-238 -352l-147 -31v848 l-60 12l-157 -163z" />
<glyph unicode="w" horiz-adv-x="1359" d="M-4 702q18 37 47 79t62.5 79t69.5 61.5t65 24.5q16 0 40.5 -6t48 -17.5t41 -23.5t17.5 -25l-2 -776h10l330 672l-4 170l61 -12l74 -15l25 -815h12l217 396q42 72 66 129q23 53 22 90v6q0 43 -32.5 70.5t-86.5 37.5q12 59 47 90t82 31q51 0 91 -34.5t40 -106.5 q0 -37 -14 -81t-44 -98.5t-73 -122t-98 -153.5l-221 -352l-148 -31l-10 658h-6l-324 -627l-147 -31l-6 848l-60 12l-157 -163z" />
<glyph unicode="x" horiz-adv-x="960" d="M-23 84q0 53 27 86t68 33q46 0 68 -30q18 -25 19 -67q0 -8 -1 -16l57 -6l213 367l-143 380h-47l-117 -147l-31 37q18 35 43 75t51.5 73.5t55 56t57.5 22.5q10 0 28.5 -6t37 -15t33 -18.5t16.5 -17.5l104 -359h4q61 129 104.5 210t79 126t65.5 61.5t62 16.5q66 0 110 -32 t44 -83q-2 -53 -29.5 -85.5t-68.5 -32.5q-45 1 -67 29q-17 22 -16 58q0 10 1 21l-60 6l-202 -348l145 -395h47l117 149l31 -36q-20 -37 -44 -77t-51.5 -74t-56.5 -55.5t-57 -21.5q-8 0 -26.5 6.5t-37 15.5t-33 18t-16.5 18l-106 362h-9q-70 -139 -115.5 -222t-79.5 -127 t-61.5 -57.5t-60.5 -13.5q-66 0 -110 32t-42 83z" />
<glyph unicode="y" horiz-adv-x="878" d="M-227 -393q0 45 31.5 73.5t66.5 28.5q47 0 83 -35q32 -32 32 -79v-11l55 -4q2 0 14.5 17.5t33 46t45 65.5t50.5 74q61 88 138 201l-80 22l6 811l-60 12l-157 -163l-35 36q18 37 47 79t62.5 79t69.5 61.5t65 24.5q16 0 40.5 -6t48 -17.5t41 -23.5t17.5 -25l-16 -776h20 l354 592l7 33q-39 14 -71 42t-32 71q0 47 29 80.5t76 33.5q59 0 93 -36t34 -95q0 -37 -17.5 -82t-44 -93t-59.5 -97t-64 -92l-237 -355l-121 -215q-55 -106 -104.5 -184t-97.5 -128t-98 -73.5t-106 -23.5q-61 0 -110 35.5t-49 95.5z" />
<glyph unicode="z" horiz-adv-x="808" d="M-14 66q0 53 35.5 95t95.5 81l506 448q-39 14 -90.5 42t-101.5 56.5t-92 53t-65 32.5l-38 -38q38 -50 38 -86q0 -37 -22.5 -59.5t-58.5 -22.5q-45 0 -68 24.5t-23 57.5q0 35 17.5 68.5t49.5 61t78 46t103 20.5q70 0 118 -23.5t82 -56t54.5 -69.5t34.5 -62l18 2l58 209 q53 -2 86 -29.5t33 -62.5q0 -53 -39 -94t-99 -80l-495 -436q47 -18 102 -51t106.5 -67t94.5 -60.5t63 -34.5l43 43q-51 53 -51 96q0 31 24.5 53.5t65.5 22.5t61.5 -23.5t20.5 -58.5q0 -33 -14.5 -67t-44 -62.5t-71.5 -48t-97 -25.5q-63 0 -115.5 22.5t-92.5 57.5t-67.5 76 t-44.5 80l-18 -2l-60 -226q-53 4 -86.5 33t-33.5 64z" />
<glyph unicode="{" horiz-adv-x="681" d="M57 442l23 56q49 2 97 10t86 26.5t61.5 48t23.5 74.5q0 53 -18.5 97.5t-42 89.5t-42 95t-18.5 116q0 137 100.5 216t288.5 91v-68q-123 -10 -187 -65t-64 -127q0 -53 18 -97t42 -89.5t42 -96.5t18 -117q0 -51 -25.5 -96t-64.5 -78.5t-85 -53t-87 -21.5v-25 q41 -2 87 -22.5t85 -54.5t64.5 -78t25.5 -95q0 -63 -18 -113.5t-42 -95.5t-42 -89t-18 -95q0 -35 16 -68.5t49 -60.5t79 -45.5t107 -24.5v-63q-188 10 -288.5 90t-100.5 217q0 66 18.5 116t42 94t42 88t18.5 97q0 43 -23.5 73t-61.5 48.5t-86 27.5t-97 11z" />
<glyph unicode="|" horiz-adv-x="567" d="M238 -381v1790h90v-1790h-90z" />
<glyph unicode="}" horiz-adv-x="681" d="M51 -414q61 6 107.5 24.5t79 45.5t49 60.5t16.5 68.5q0 51 -18.5 95t-42 89t-42 95.5t-18.5 113.5q0 51 25.5 95t64.5 78t85 54.5t87 22.5v25q-41 2 -87 21.5t-85 53t-64.5 78.5t-25.5 96q0 66 18.5 117t42 96.5t42 89.5t18.5 97q0 72 -64.5 127t-187.5 65v68 q188 -12 288.5 -91t100.5 -216q0 -66 -18.5 -116t-42 -95t-42 -89t-18.5 -98q0 -45 24 -74.5t61.5 -48t86 -26.5t97.5 -10l22 -56l-22 -57q-49 -2 -97.5 -11t-86 -27.5t-61.5 -48.5t-24 -73q0 -53 18.5 -97t42 -88t42 -94t18.5 -116q0 -137 -100 -217t-289 -90v63z" />
<glyph unicode="~" horiz-adv-x="774" d="M39 367q35 119 89 173t134 54q47 0 87 -23.5t75 -51t65.5 -51.5t57.5 -24q33 0 59.5 27t67.5 109h55q-37 -119 -90 -173.5t-135 -54.5q-47 0 -87 23.5t-74 51.5t-63.5 51.5t-58.5 23.5q-35 0 -61.5 -28t-67.5 -107h-53z" />
<glyph unicode="&#xa1;" horiz-adv-x="575" d="M141 49l185 825q4 12 22.5 12.5t18.5 -12.5l-33 -833q-2 -33 -18.5 -52.5t-57.5 -19.5h-31q-59 0 -77.5 22.5t-8.5 57.5zM264 1192q0 47 32 82t85 35q51 0 84 -35t33 -82q2 -45 -32 -79t-85 -34q-53 0 -85 34t-32 79z" />
<glyph unicode="&#xa2;" horiz-adv-x="755" d="M61 287q0 121 36 237.5t99.5 209.5t148.5 151.5t183 60.5h7l98 357h72l-101 -365q72 -16 116 -59t44 -99q0 -45 -28.5 -75.5t-69.5 -30.5q-43 0 -70 29.5t-31 60.5l-188 -686q18 -2 47 9t63.5 29.5t71.5 43t72 49.5l33 -37q-76 -86 -155 -141.5t-165 -59.5l-82 -311h-72 l84 313q-92 18 -152.5 104.5t-60.5 209.5zM205 311q0 -92 30.5 -148.5t75.5 -74.5l205 752q-16 10 -39.5 14t-46.5 4q-10 0 -25.5 -9t-29.5 -24q-27 -27 -57.5 -85t-55 -129.5t-41 -150.5t-16.5 -149z" />
<glyph unicode="&#xa3;" horiz-adv-x="946" d="M-57 23q84 18 141 49.5t94 76t56.5 101.5t29.5 127q4 35 8 73.5t9 79.5h-209l6 80h209q4 72 9 135.5t9 104.5q27 203 143.5 320.5t294.5 117.5q100 0 165 -42t65 -107q0 -43 -26.5 -76t-74.5 -33q-53 0 -82.5 44t-9.5 108q-16 14 -42.5 23t-61.5 9q-37 0 -71 -14 t-61.5 -51t-49 -97.5t-31.5 -150.5q-8 -70 -13.5 -143.5t-9.5 -147.5h322l6 -80h-336q-6 -70 -18 -133q-12 -68 -34 -125t-56 -100v-8q29 -8 67.5 -22.5t80.5 -29t85 -23.5t80 -9q41 0 66.5 10t44.5 29q25 25 46 60.5t44 76.5l41 -14q-6 -55 -24.5 -108.5t-51.5 -93.5 t-80 -64.5t-113 -24.5q-55 0 -104 17.5t-90 43t-74 54t-57 49.5q-57 -59 -138 -104.5t-192 -61.5z" />
<glyph unicode="&#xa4;" horiz-adv-x="1028" d="M20 434l7 80h125v16q2 41 5 81t9 79h-123l6 80h133q31 115 87.5 209t133 163.5t170 107.5t197.5 38q66 0 122 -13t96 -35.5t62.5 -55.5t22.5 -72q0 -43 -23.5 -74.5t-70.5 -31.5q-27 0 -48.5 14t-35.5 36.5t-21.5 51.5t-7.5 57q-27 23 -70.5 33t-80.5 10 q-147 0 -246.5 -117.5t-134.5 -320.5h420l6 -80h-438q-4 -39 -6.5 -77t-2.5 -78v-21h416l8 -80h-418q10 -76 35 -141.5t66 -113.5t97 -75.5t126 -27.5q94 0 166 41t131 96l29 -45q-66 -86 -163 -142.5t-214 -56.5q-100 0 -176 38t-130.5 101.5t-86 148.5t-41.5 177h-138z " />
<glyph unicode="&#xa5;" horiz-adv-x="1253" d="M115 1280h485l-6 -70l-105 -12q-37 -4 -36.5 -39t41.5 -119l188 -389h6l303 436q35 53 33 79t-37 34l-76 10l-6 70h414l-6 -70l-62 -10q-41 -10 -75.5 -30.5t-75.5 -79.5l-334 -463h324l8 -82h-377l-23 -174h392l8 -82h-410l-22 -162q-6 -31 30 -37l160 -20l6 -70h-565 l6 70l164 20q18 2 27.5 12.5t13.5 24.5l22 162h-356l4 82h361l24 174h-389l6 82h357l-256 512q-10 16 -29 32.5t-47 24.5l-84 14z" />
<glyph unicode="&#xa6;" horiz-adv-x="952" d="M-37 221q0 55 34 92t87 35q41 -2 67.5 -26.5t26.5 -63.5q0 -63 -45 -102q23 -49 76 -79t106 -30q127 0 189.5 92t83.5 250l102 764q4 31 -31 37l-157 20l-6 70h542l-6 -70l-143 -20q-35 -6 -41 -37l-103 -768q-14 -104 -52 -183t-95 -130.5t-130 -77t-157 -25.5 q-59 0 -120.5 16.5t-112.5 48.5t-83 79t-32 108z" />
<glyph unicode="&#xa7;" horiz-adv-x="880" d="M88 657q0 47 18.5 88t47 76t67.5 60.5t78 42.5q-29 57 -29 112q0 51 23.5 99.5t64.5 85t98.5 59.5t127.5 23q31 0 71.5 -8.5t75.5 -27t59.5 -46t24.5 -66.5q0 -41 -28.5 -70.5t-67.5 -29.5q-53 0 -82 43t-33 112q-16 8 -35.5 13.5t-36.5 5.5q-72 0 -106.5 -43t-34.5 -94 q0 -41 17.5 -76t47 -65.5t68.5 -59.5t80 -60q43 -31 83 -62.5t72 -67t51 -77t19 -92.5q0 -47 -17 -89t-46 -76.5t-66.5 -61t-78.5 -43.5q29 -57 28 -112q0 -47 -22.5 -96.5t-64.5 -89.5t-102.5 -65.5t-135.5 -25.5q-31 0 -72 8t-76 26.5t-59.5 46.5t-24.5 66q0 45 29 73 t69 28q53 0 81 -43t32 -111q20 -10 45 -15t45 -5q61 0 98 45t37 104q0 41 -17 75t-47 64.5t-68 60.5t-79 58q-43 31 -85 64t-73.5 68.5t-51 77.5t-19.5 93zM207 725q0 -66 45 -118t121 -107q59 -45 120.5 -91.5t102.5 -105.5q115 56 115 160q0 72 -49.5 125t-108.5 98 q-72 53 -130 99t-97 100q-47 -23 -83 -66t-36 -94z" />
<glyph unicode="&#xa8;" horiz-adv-x="819" d="M188 1223q0 47 30 83.5t83 36.5t83 -36.5t30 -83.5t-30 -84t-83 -37t-83 37t-30 84zM598 1223q0 47 29.5 83.5t83.5 36.5q53 0 82.5 -36.5t29.5 -83.5t-29.5 -84t-82.5 -37t-83 37t-30 84z" />
<glyph unicode="&#xa9;" horiz-adv-x="1503" d="M82 639q0 139 52 261t143.5 213t213 144.5t261.5 53.5q139 0 261 -53.5t213 -144.5t143 -213t52 -261t-52 -261t-143 -213t-213 -143.5t-261 -52.5t-261 52.5t-213.5 143.5t-143.5 213t-52 261zM156 639q0 -123 47 -232.5t128 -191.5t189.5 -130t231.5 -48t231.5 48 t189 130t128 191.5t47.5 232.5t-47.5 233.5t-128 192.5t-189.5 130t-231 48q-123 0 -231.5 -48t-189.5 -130t-128 -192.5t-47 -233.5zM389 627q0 86 28.5 158.5t79 125t121 81t154.5 28.5q51 0 93 -6t73 -17l92 23v-260h-53l-43 151q-27 18 -70 30.5t-102 12.5 q-55 0 -102.5 -21.5t-82 -59t-54 -93t-19.5 -123.5q0 -147 74.5 -241t214.5 -94q37 0 71.5 8t57.5 24l63 162h55l-26 -242l-58 13q-35 -12 -86 -20.5t-94 -8.5q-92 0 -163.5 27.5t-121 77t-76 117t-26.5 147.5z" />
<glyph unicode="&#xaa;" horiz-adv-x="706" d="M111 803q0 49 12 107.5t33.5 114.5t51.5 106.5t64 85.5q41 41 90.5 66.5t96.5 25.5q27 0 46 -11.5t33.5 -29t24.5 -38t17 -36.5h12l26 115h87l-64 -269l-78 -354l39 -10l139 121l19 -27q-18 -27 -45 -57.5t-56.5 -57t-58.5 -44t-51 -17.5q-12 0 -25.5 7t-26 18.5 t-20.5 23.5t-8 21q0 23 28.5 106.5t73.5 235.5h-10q-43 -84 -85 -159t-82 -131.5t-76.5 -89t-69.5 -32.5q-66 0 -101.5 58.5t-35.5 150.5zM215 823q0 -66 22.5 -100.5t55.5 -34.5q16 0 42.5 31t59.5 79t70 108.5t70 121.5l20 76q-10 18 -27.5 40.5t-39 41t-47 31t-50.5 12.5 q-29 0 -57 -29q-20 -20 -42 -62t-38 -95.5t-27.5 -111t-11.5 -108.5z" />
<glyph unicode="&#xab;" horiz-adv-x="997" d="M51 414l2 82l492 301l14 -43l-344 -303l266 -291l-26 -39zM436 414l2 82l492 321l14 -43l-364 -323l280 -312l-24 -39z" />
<glyph unicode="&#xac;" d="M45 233q0 78 17.5 161t48 162t72.5 146.5t89 114.5q55 55 122 93t132 38q37 0 63.5 -15t47 -39t35 -51.5t22.5 -49.5h15l41 153h127l-101 -364l-108 -488l61 -18l162 137l35 -37q-18 -33 -49 -69.5t-66 -67.5t-72 -50.5t-65 -19.5q-16 0 -41 6.5t-48.5 15.5t-41 20.5 t-17.5 23.5q0 10 10.5 47t27 92t37 124t42.5 138h-18q-49 -88 -98.5 -172t-98.5 -149.5t-98 -105.5t-99 -40q-84 0 -135 72t-51 192zM186 270q0 -180 101 -180q29 0 62.5 28.5t76.5 87t98.5 148.5t126.5 211l29 119q-18 25 -45 54.5t-58.5 55t-65.5 43t-69 17.5 q-41 0 -82 -41q-27 -27 -57.5 -90.5t-57 -142t-43 -161.5t-16.5 -149z" />
<glyph unicode="&#xad;" horiz-adv-x="671" d="M51 428l6 104h525l6 -104h-537z" />
<glyph unicode="&#xae;" horiz-adv-x="1503" d="M82 639q0 139 52 261t143.5 213t213 144.5t261.5 53.5q139 0 261 -53.5t213 -144.5t143 -213t52 -261t-52 -261t-143 -213t-213 -143.5t-261 -52.5t-261 52.5t-213.5 143.5t-143.5 213t-52 261zM156 639q0 -123 47 -232.5t128 -191.5t189.5 -130t231.5 -48t231.5 48 t189 130t128 191.5t47.5 232.5t-47.5 233.5t-128 192.5t-189.5 130t-231 48q-123 0 -231.5 -48t-189.5 -130t-128 -192.5t-47 -233.5zM440 281l6 59l76 12q20 2 21 23v538q0 20 -21 23l-76 12l-6 60h324q70 0 120 -15.5t82.5 -42t48 -59.5t15.5 -70q0 -78 -47 -131t-131 -80 l145 -221q20 -25 29.5 -31t22.5 -10l69 -8l6 -59h-190l-45 81l-141 224l-97 4v-215q0 -20 21 -23l88 -12l4 -59h-324zM651 655l94 -10q72 6 119 44t47 114q0 150 -198 141l-62 -2v-287z" />
<glyph unicode="&#xaf;" horiz-adv-x="819" d="M231 1104l15 84h491v-84h-506z" />
<glyph unicode="&#xb0;" horiz-adv-x="841" d="M150 948q0 78 29.5 146.5t79.5 121t118.5 82t144.5 29.5q68 0 126.5 -20.5t102.5 -59.5t69.5 -95t25.5 -126q0 -80 -30 -149.5t-80 -122t-118.5 -82t-148.5 -29.5q-66 0 -124 21.5t-101 61.5t-68.5 96.5t-25.5 125.5zM242 952q0 -51 17 -94t50 -72.5t76 -47t92 -17.5 q59 0 108.5 22.5t86.5 61.5t58.5 91.5t21.5 109.5q2 106 -66 171.5t-172 65.5q-57 0 -107.5 -23.5t-86 -64.5t-57 -93t-21.5 -110z" />
<glyph unicode="&#xb1;" horiz-adv-x="1503" d="M82 639q0 139 52 261t143.5 213t213 144.5t261.5 53.5q139 0 261 -53.5t213 -144.5t143 -213t52 -261t-52 -261t-143 -213t-213 -143.5t-261 -52.5t-261 52.5t-213.5 143.5t-143.5 213t-52 261zM156 639q0 -123 47 -232.5t128 -191.5t189.5 -130t231.5 -48t231.5 48 t189 130t128 191.5t47.5 232.5t-47.5 233.5t-128 192.5t-189.5 130t-231 48q-123 0 -231.5 -48t-189.5 -130t-128 -192.5t-47 -233.5zM487 281l5 59l77 12q20 2 21 23v540q0 18 -21 21l-77 14l-5 58h293q147 0 217 -57.5t70 -145.5q0 -55 -22.5 -101.5t-60.5 -78t-88 -50 t-105 -18.5q-27 0 -48.5 1t-46.5 5v-188q0 -18 21 -23l98 -12l2 -59h-330zM696 627q23 -4 42.5 -7.5t47.5 -3.5q78 0 124 45t46 123t-51 120t-143 40h-66v-317z" />
<glyph unicode="&#xb4;" horiz-adv-x="819" d="M369 1040l243 377h193l-389 -377h-47z" />
<glyph unicode="&#xb5;" horiz-adv-x="872" d="M-121 -254q0 45 26.5 85t66.5 73t87 56.5t91 37.5v10q-45 25 -72 57.5t-27 79.5q0 61 53.5 105.5t131.5 71.5v10q-53 39 -89 104.5t-36 143.5q0 80 32.5 146.5t87 115.5t127 76.5t152.5 27.5q78 0 136.5 -13t98.5 -24h207l-39 -135l-239 47v-16q43 -49 65.5 -94 t22.5 -107q0 -70 -32 -130t-81 -105t-109.5 -71t-119.5 -26q-66 0 -135 27q-49 -12 -77 -45t-28 -61q0 -41 38 -67t136 -60l95 -33q61 -20 116.5 -44t96 -53.5t65.5 -69.5t25 -91q0 -53 -34 -103.5t-97.5 -89.5t-156.5 -63.5t-214 -24.5q-74 0 -140.5 16.5t-117.5 48t-82 79 t-31 108.5zM6 -231q0 -43 25.5 -79t69.5 -61.5t105.5 -41t133.5 -15.5q59 0 111.5 12.5t92.5 34t63.5 52t23.5 65.5q0 57 -61.5 94t-151.5 70q-59 23 -112.5 39t-102.5 36q-37 -18 -72 -39.5t-62.5 -47t-45 -55.5t-17.5 -64zM246 543q2 -61 18.5 -107.5t38.5 -68.5 q14 -14 33.5 -24.5t42.5 -10.5q43 0 83 19.5t75 54.5q51 51 76.5 131.5t25.5 158.5q0 33 -17.5 64t-45 54.5t-61.5 37.5t-64 14q-37 0 -58.5 -12t-40.5 -29q-49 -49 -78.5 -126.5t-27.5 -155.5z" />
<glyph unicode="&#xb6;" horiz-adv-x="1011" d="M141 872q0 109 40 187t107.5 127t158 71.5t190.5 22.5h311l-176 -1346h-96l80 617q-45 -10 -83 -16.5t-85 -6.5q-96 0 -178 23.5t-141.5 69t-93.5 109t-34 142.5z" />
<glyph unicode="&#xb7;" horiz-adv-x="462" d="M59 465q0 49 35 86t92 37q55 0 91 -37t34 -86q0 -49 -34.5 -87t-90.5 -38q-57 0 -93 38t-34 87z" />
<glyph unicode="&#xb8;" horiz-adv-x="819" d="M68 -502q344 45 344 195q0 43 -39 69.5t-121 26.5q-29 0 -59.5 -3t-61.5 -7l4 35l242 225h84l-174 -160q111 4 177 -39t66 -121q0 -53 -31.5 -98t-91 -80t-143.5 -57.5t-188 -30.5z" />
<glyph unicode="&#xba;" horiz-adv-x="653" d="M123 881q0 72 23.5 147.5t67.5 138t104.5 102.5t134.5 40q57 0 99 -22.5t69.5 -61.5t41 -92.5t13.5 -112.5q0 -72 -23.5 -147.5t-67.5 -137t-105.5 -101.5t-135.5 -40q-57 0 -99 22.5t-68.5 61.5t-40 91t-13.5 112zM227 848q0 -37 6.5 -73t20.5 -64.5t37.5 -46 t56.5 -17.5q41 0 75 27.5t59.5 68.5t44 87.5t26.5 82.5q18 78 18 150q0 37 -7 71.5t-21.5 61.5t-38 43t-55.5 16q-39 0 -72 -27.5t-58.5 -67.5t-44 -85t-28.5 -80q-18 -74 -19 -147z" />
<glyph unicode="&#xbb;" horiz-adv-x="997" d="M20 137l363 324l-279 311l23 39l399 -315l-2 -82l-491 -320zM403 158l347 303l-269 291l27 39l405 -295l-2 -82l-493 -299z" />
<glyph unicode="&#xbc;" horiz-adv-x="1028" d="M-305 -385q0 45 25.5 73.5t66.5 28.5q49 0 78 -38.5t35 -92.5l120 64q10 23 21.5 63.5t24 93t23.5 110.5t22 114l137 788l-185 8l7 58l192 43q29 125 67 207t87 135q47 51 115.5 79.5t127.5 28.5q72 0 117 -37.5t45 -91.5q0 -45 -18.5 -73.5t-59.5 -28.5q-51 0 -79.5 37 t-34.5 96l-150 -37q-29 -49 -48 -135t-40 -190h371q29 131 73 232t93 155q47 51 115.5 79.5t127.5 28.5q72 0 117 -38t45 -91q0 -45 -25.5 -76.5t-66.5 -31.5q-51 0 -81 37.5t-34 97.5l-137 -33q-14 -25 -26.5 -64.5t-24.5 -88t-23.5 -101.5t-21.5 -106h250l8 -93h-274 l-109 -589q-18 -96 -38.5 -186.5t-45.5 -168.5t-53.5 -138t-63.5 -97q-96 -96 -198 -97q-61 0 -104.5 34t-43.5 87q0 43 25.5 72t66.5 29q51 0 80 -38t35 -93l107 65q10 23 22 65t24.5 94t24.5 109.5t21 112.5l118 739h-370l-117 -645q-18 -96 -38.5 -186t-45 -168 t-53.5 -138.5t-64 -97.5q-45 -47 -102 -70.5t-115 -23.5q-61 0 -103 34t-42 85z" />
<glyph unicode="&#xbd;" horiz-adv-x="1492" d="M-305 -385q0 45 25.5 73.5t66.5 28.5q49 0 78 -38.5t35 -92.5l120 64q10 23 21.5 63.5t24 93t23.5 110.5t22 114l137 788l-185 8l7 58l192 43q18 104 58 202.5t104 161.5q49 51 110.5 81t145.5 30q82 0 130 -41t48 -92q0 -43 -24.5 -74t-65.5 -31q-47 0 -78 37t-41 96 l-166 -36q-29 -66 -53 -153t-39 -191h371q23 137 62.5 229t107.5 158q49 49 128 82.5t165 33.5t136 -42t50 -95q0 -45 -26.5 -76.5t-67.5 -31.5q-49 0 -81 39.5t-42 99.5l-203 -37q-35 -66 -59.5 -160t-38.5 -200h283q45 29 77 28q16 0 40 -10t45.5 -25.5t37 -31t10.5 -27.5 l-210 -764l47 -16l184 141l33 -37q-20 -33 -53 -69.5t-70 -67.5t-75 -50.5t-66 -19.5q-16 0 -39 11.5t-42.5 27t-32.5 31.5t-11 24l200 756l-14 6h-360l-109 -589q-18 -96 -38.5 -186.5t-45.5 -168.5t-53.5 -138t-63.5 -97q-96 -96 -198 -97q-61 0 -104.5 34t-43.5 87 q0 43 25.5 72t66.5 29q51 0 80 -38t35 -93l107 65q10 23 22 65t24.5 94t24.5 109.5t21 112.5l118 739h-370l-117 -645q-16 -96 -37.5 -186t-46 -168t-53.5 -138.5t-64 -97.5q-45 -47 -102 -70.5t-115 -23.5q-61 0 -103 34t-42 85z" />
<glyph unicode="&#xbe;" horiz-adv-x="1515" d="M-305 -385q0 45 25.5 73.5t66.5 28.5q49 0 78 -38.5t35 -92.5l120 64q10 23 21.5 63.5t24 93t23.5 110.5t22 114l137 788l-185 8l7 58l192 43q18 104 58 202.5t104 161.5q49 51 110.5 81t145.5 30q82 0 130 -41t48 -92q0 -43 -24.5 -74t-65.5 -31q-47 0 -78 37t-41 96 l-166 -36q-29 -66 -53 -153t-39 -191h371q23 137 62.5 229t107.5 158q49 49 128 82.5t165 33.5q35 0 63.5 -8t50.5 -20l158 34l-297 -1333l57 -18l175 137l32 -37q-20 -33 -53 -69.5t-69.5 -67.5t-74.5 -50.5t-67 -19.5q-14 0 -36.5 11.5t-43 27t-34 31.5t-11.5 24l162 762 h-360l-109 -589q-18 -96 -38.5 -187.5t-45.5 -168.5t-53.5 -137t-63.5 -97q-96 -96 -198 -97q-61 0 -104.5 34t-43.5 87q0 43 25.5 72t66.5 29q51 0 80 -38t35 -93l107 65q10 23 22 65t24.5 94t24.5 109.5t21 112.5l118 739h-370l-117 -645q-16 -96 -37.5 -186t-46 -168 t-53.5 -138.5t-64 -97.5q-45 -47 -102 -70.5t-115 -23.5q-61 0 -103 34t-42 85zM893 918h362l66 305q-39 -10 -68.5 15.5t-40.5 80.5l-215 -35q-39 -66 -64.5 -163t-39.5 -203z" />
<glyph unicode="&#xbf;" horiz-adv-x="727" d="M49 305q0 70 21.5 117t56.5 78.5t79 51t91 34.5q39 12 75 25.5t63.5 32t44 45t16.5 65.5q0 43 -23.5 83t-58.5 78l63 -4q16 -14 35.5 -36.5t37 -50t30 -60.5t12.5 -68q0 -57 -23.5 -98t-60.5 -68.5t-83 -47t-93 -33.5q-39 -12 -76 -25.5t-64.5 -30t-44 -37t-16.5 -49.5 q0 -33 24.5 -64.5t68.5 -56t104.5 -40t130.5 -15.5q59 0 96 6q12 -18 12 -45q0 -49 -40 -80.5t-111 -31.5q-80 0 -147.5 27.5t-116 73.5t-76 104.5t-27.5 119.5zM399 1200q0 47 32 82t83 35q53 0 87 -35t32 -82q0 -45 -33 -79t-86 -34q-51 0 -83 34t-32 79z" />
<glyph unicode="&#xc0;" horiz-adv-x="1181" d="M-66 0l7 70l96 20q35 10 52 30.5t40 67.5l451 1012v60l190 47l211 -1166q4 -23 13.5 -35t37.5 -16l117 -20l6 -70h-512l6 70l121 16q25 4 31 19.5t2 33.5l-53 324h-402l-98 -234q-27 -68 -24 -99.5t36 -39.5l111 -20l6 -70h-445zM383 547h352l-94 583h-10zM420 1769h192 l142 -376h-45z" />
<glyph unicode="&#xc1;" horiz-adv-x="1181" d="M-66 0l7 70l96 20q35 10 52 30.5t40 67.5l451 1012v60l190 47l211 -1166q4 -23 13.5 -35t37.5 -16l117 -20l6 -70h-512l6 70l121 16q25 4 31 19.5t2 33.5l-53 324h-402l-98 -234q-27 -68 -24 -99.5t36 -39.5l111 -20l6 -70h-445zM383 547h352l-94 583h-10zM610 1393 l244 376h193l-390 -376h-47z" />
<glyph unicode="&#xc2;" horiz-adv-x="1181" d="M-66 0l7 70l96 20q35 10 52 30.5t40 67.5l451 1012v60l190 47l211 -1166q4 -23 13.5 -35t37.5 -16l117 -20l6 -70h-512l6 70l121 16q25 4 31 19.5t2 33.5l-53 324h-402l-98 -234q-27 -68 -24 -99.5t36 -39.5l111 -20l6 -70h-445zM383 547h352l-94 583h-10zM414 1393 l225 376h182l125 -376h-43l-182 270h-4l-258 -270h-45z" />
<glyph unicode="&#xc3;" horiz-adv-x="1181" d="M-66 0l7 70l96 20q35 10 52 30.5t40 67.5l451 1012v60l190 47l211 -1166q4 -23 13.5 -35t37.5 -16l117 -20l6 -70h-512l6 70l121 16q25 4 31 19.5t2 33.5l-53 324h-402l-98 -234q-27 -68 -24 -99.5t36 -39.5l111 -20l6 -70h-445zM373 1432q35 119 90 179t135 60 q47 0 87 -22.5t74 -50t64.5 -51t57.5 -23.5q33 0 60.5 26.5t68.5 106.5h55q-37 -117 -92 -178.5t-135 -61.5q-47 0 -87 23.5t-74 51.5t-63.5 50.5t-58.5 22.5q-35 0 -61.5 -27t-67.5 -106h-53zM383 547h352l-94 583h-10z" />
<glyph unicode="&#xc4;" horiz-adv-x="1181" d="M-66 0l7 70l96 20q35 10 52 30.5t40 67.5l451 1012v60l190 47l211 -1166q4 -23 13.5 -35t37.5 -16l117 -20l6 -70h-512l6 70l121 16q25 4 31 19.5t2 33.5l-53 324h-402l-98 -234q-27 -68 -24 -99.5t36 -39.5l111 -20l6 -70h-445zM369 1575q0 47 29.5 84t82.5 37t83 -37 t30 -84t-29.5 -84t-83.5 -37q-53 0 -82.5 37t-29.5 84zM383 547h352l-94 583h-10zM778 1575q0 47 30 84t83 37t83 -37t30 -84t-30 -84t-83 -37t-83 37t-30 84z" />
<glyph unicode="&#xc5;" horiz-adv-x="1181" d="M-66 0l7 70l96 20q35 10 52 30.5t40 67.5l473 1063q-41 25 -62.5 67t-21.5 93q2 76 49 130t133 54t135.5 -54t47.5 -130q0 -55 -27 -100t-74 -68l199 -1102q4 -23 13.5 -35t37.5 -16l117 -20l6 -70h-512l6 70l121 16q25 4 31 19.5t2 33.5l-53 324h-402l-98 -234 q-27 -68 -24 -99.5t36 -39.5l111 -20l6 -70h-445zM383 547h352l-94 583h-10zM580 1411q0 -53 31.5 -92t90.5 -39q57 0 89 39t32 92q0 51 -31.5 90t-91.5 39q-57 0 -88.5 -39t-31.5 -90z" />
<glyph unicode="&#xc6;" horiz-adv-x="1642" d="M-117 0l6 70l97 20q35 10 61.5 37t48.5 63l613 963q18 29 -25 37l-125 20l-4 70h1085l-49 -371h-90l-18 207q-2 31 -13.5 48.5t-52.5 26.5t-125 11t-231 2h-47l-72 -514h47q66 0 103.5 1t59.5 5t32 11.5t18 21.5l64 137h71l-100 -426h-70l9 131q2 12 -3.5 20.5t-26 14.5 t-61.5 8t-110 2h-43l-70 -540h25q162 0 254 3t141 12t66.5 26.5t29.5 46.5l80 198h98l-86 -362h-938l9 70l129 20q35 6 41 37l45 336h-385l-99 -156q-10 -18 -26.5 -44.5t-31.5 -54.5t-25.5 -50.5t-10.5 -30.5q-2 -16 8.5 -24.5t26.5 -12.5l109 -20l6 -70h-445zM424 547h342 l90 657h-18z" />
<glyph unicode="&#xc7;" horiz-adv-x="1255" d="M102 532q0 158 58.5 305.5t169.5 258.5q98 98 224 155.5t277 57.5q72 0 150 -11.5t127 -27.5l145 33l-55 -416h-84l-20 272q-55 31 -119 50.5t-150 19.5q-113 0 -211 -54.5t-171.5 -148.5t-116.5 -223t-43 -279q0 -121 35.5 -216t101.5 -161q45 -45 112.5 -71.5 t151.5 -26.5q66 0 126 16.5t120 45.5l121 274h96l-98 -387l-95 20q-63 -20 -139 -34.5t-141 -14.5h-15l-98 -90q111 4 177.5 -39t66.5 -121q0 -53 -32 -98t-91 -80t-143 -57.5t-189 -30.5l-8 45q344 45 344 195q0 43 -39 69.5t-121 26.5q-29 0 -59.5 -3t-60.5 -7l4 35 l172 159q-236 27 -358 174.5t-122 384.5z" />
<glyph unicode="&#xc8;" horiz-adv-x="1175" d="M27 0l6 70l127 20q35 6 41 37l137 1026q4 14 -2 23.5t-29 13.5l-119 20l-6 70h983l-49 -371h-88l-18 207q-2 31 -13.5 48.5t-53.5 26.5t-126 11t-231 2h-70l-70 -514h70q66 0 103.5 1t59 5t32 11.5t16.5 21.5l66 137h69l-100 -426h-68l8 131q2 12 -3 20.5t-25.5 14.5 t-61.5 8t-110 2h-66l-71 -540h47q164 0 256 3t140 12t65.5 26.5t29.5 46.5l82 198h98l-86 -362h-970zM444 1769h193l141 -376h-45z" />
<glyph unicode="&#xc9;" horiz-adv-x="1175" d="M27 0l6 70l127 20q35 6 41 37l137 1026q4 14 -2 23.5t-29 13.5l-119 20l-6 70h983l-49 -371h-88l-18 207q-2 31 -13.5 48.5t-53.5 26.5t-126 11t-231 2h-70l-70 -514h70q66 0 103.5 1t59 5t32 11.5t16.5 21.5l66 137h69l-100 -426h-68l8 131q2 12 -3 20.5t-25.5 14.5 t-61.5 8t-110 2h-66l-71 -540h47q164 0 256 3t140 12t65.5 26.5t29.5 46.5l82 198h98l-86 -362h-970zM547 1393l244 376h192l-389 -376h-47z" />
<glyph unicode="&#xca;" horiz-adv-x="1175" d="M27 0l6 70l127 20q35 6 41 37l137 1026q4 14 -2 23.5t-29 13.5l-119 20l-6 70h983l-49 -371h-88l-18 207q-2 31 -13.5 48.5t-53.5 26.5t-126 11t-231 2h-70l-70 -514h70q66 0 103.5 1t59 5t32 11.5t16.5 21.5l66 137h69l-100 -426h-68l8 131q2 12 -3 20.5t-25.5 14.5 t-61.5 8t-110 2h-66l-71 -540h47q164 0 256 3t140 12t65.5 26.5t29.5 46.5l82 198h98l-86 -362h-970zM426 1393l225 376h183l124 -376h-43l-182 270h-4l-258 -270h-45z" />
<glyph unicode="&#xcb;" horiz-adv-x="1175" d="M27 0l6 70l127 20q35 6 41 37l137 1026q4 14 -2 23.5t-29 13.5l-119 20l-6 70h983l-49 -371h-88l-18 207q-2 31 -13.5 48.5t-53.5 26.5t-126 11t-231 2h-70l-70 -514h70q66 0 103.5 1t59 5t32 11.5t16.5 21.5l66 137h69l-100 -426h-68l8 131q2 12 -3 20.5t-25.5 14.5 t-61.5 8t-110 2h-66l-71 -540h47q164 0 256 3t140 12t65.5 26.5t29.5 46.5l82 198h98l-86 -362h-970zM393 1575q0 47 30 84t83 37t82.5 -37t29.5 -84t-29.5 -84t-82.5 -37t-83 37t-30 84zM803 1575q0 47 29.5 84t82.5 37t83 -37t30 -84t-29.5 -84t-83.5 -37q-53 0 -82.5 37 t-29.5 84z" />
<glyph unicode="&#xcc;" horiz-adv-x="716" d="M37 0l6 70l141 20q35 6 41 37l137 1026q4 14 -2 23.5t-28 13.5l-135 20l-7 70h529l-6 -70l-142 -20q-35 -6 -41 -37l-135 -1026q-6 -31 31 -37l135 -20l6 -70h-530zM168 1769h192l142 -376h-45z" />
<glyph unicode="&#xcd;" horiz-adv-x="716" d="M37 0l6 70l141 20q35 6 41 37l137 1026q4 14 -2 23.5t-28 13.5l-135 20l-7 70h529l-6 -70l-142 -20q-35 -6 -41 -37l-135 -1026q-6 -31 31 -37l135 -20l6 -70h-530zM434 1393l244 376h192l-389 -376h-47z" />
<glyph unicode="&#xce;" horiz-adv-x="716" d="M37 0l6 70l141 20q35 6 41 37l137 1026q4 14 -2 23.5t-28 13.5l-135 20l-7 70h529l-6 -70l-142 -20q-35 -6 -41 -37l-135 -1026q-6 -31 31 -37l135 -20l6 -70h-530zM201 1393l225 376h182l125 -376h-43l-182 270h-4l-258 -270h-45z" />
<glyph unicode="&#xcf;" horiz-adv-x="716" d="M37 0l6 70l141 20q35 6 41 37l137 1026q4 14 -2 23.5t-28 13.5l-135 20l-7 70h529l-6 -70l-142 -20q-35 -6 -41 -37l-135 -1026q-6 -31 31 -37l135 -20l6 -70h-530zM162 1575q0 47 29.5 84t82.5 37t83 -37t30 -84t-29.5 -84t-83.5 -37q-53 0 -82.5 37t-29.5 84zM571 1575 q0 47 30 84t83 37t83 -37t30 -84t-30 -84t-83 -37t-83 37t-30 84z" />
<glyph unicode="&#xd0;" horiz-adv-x="1331" d="M27 0l6 70l127 20q35 6 41 37l65 487h-176l6 80h180l62 459q2 14 -4 23.5t-29 13.5l-119 20l-6 70h490q139 0 250.5 -40t190.5 -113.5t122 -177t43 -232.5q0 -147 -48 -270t-153 -226q-102 -104 -259 -162.5t-345 -58.5h-444zM369 104l149 -28q121 4 226.5 48t182.5 126 t121 200.5t44 272.5q0 111 -30 199t-88.5 151.5t-145.5 97t-199 33.5h-115l-68 -510h238l6 -80h-254z" />
<glyph unicode="&#xd1;" horiz-adv-x="1433" d="M16 0l7 70l124 16q23 4 37.5 14.5t25.5 40t21.5 86t22.5 150.5l90 676q8 66 -2 93.5t-45 37.5l-113 26l-6 70h363l534 -1028h8l88 651q12 100 18.5 156.5t4.5 85.5t-13.5 37t-33.5 12l-121 16l-6 70h477l-6 -70l-125 -16q-20 -4 -34.5 -13.5t-26 -38t-22.5 -85 t-23 -154.5l-123 -919h-103l-590 1126h-8l-94 -733q-12 -98 -18.5 -154.5t-3 -85t14.5 -38t34 -13.5l118 -16l7 -70h-478zM453 1432q35 119 90 179t135 60q47 0 87 -22.5t73.5 -50t64.5 -51t58 -23.5q33 0 60.5 26.5t68.5 106.5h55q-37 -117 -92.5 -178.5t-134.5 -61.5 q-47 0 -87 23.5t-74 51.5t-63.5 50.5t-58.5 22.5q-35 0 -61.5 -27t-67.5 -106h-53z" />
<glyph unicode="&#xd2;" horiz-adv-x="1409" d="M102 567q0 143 45.5 273.5t131.5 234.5q90 106 216 170t281 64q129 0 235.5 -46t183.5 -127t119 -190.5t42 -236.5q0 -154 -54.5 -294.5t-154.5 -244.5q-88 -92 -206 -146.5t-259 -54.5q-129 0 -235.5 46t-183.5 126t-119 189.5t-42 236.5zM287 547q0 -115 31.5 -216.5 t101.5 -170.5q51 -51 119.5 -80t160.5 -29q123 0 212 67.5t146.5 169t85 221.5t27.5 224q0 115 -30.5 215.5t-100.5 169.5q-51 53 -120.5 82t-161.5 29q-123 0 -212 -67.5t-146.5 -169t-85 -221.5t-27.5 -224zM514 1769h193l141 -376h-45z" />
<glyph unicode="&#xd3;" horiz-adv-x="1409" d="M102 567q0 143 45.5 273.5t131.5 234.5q90 106 216 170t281 64q129 0 235.5 -46t183.5 -127t119 -190.5t42 -236.5q0 -154 -54.5 -294.5t-154.5 -244.5q-88 -92 -206 -146.5t-259 -54.5q-129 0 -235.5 46t-183.5 126t-119 189.5t-42 236.5zM287 547q0 -115 31.5 -216.5 t101.5 -170.5q51 -51 119.5 -80t160.5 -29q123 0 212 67.5t146.5 169t85 221.5t27.5 224q0 115 -30.5 215.5t-100.5 169.5q-51 53 -120.5 82t-161.5 29q-123 0 -212 -67.5t-146.5 -169t-85 -221.5t-27.5 -224zM729 1393l244 376h192l-389 -376h-47z" />
<glyph unicode="&#xd4;" horiz-adv-x="1409" d="M102 567q0 143 45.5 273.5t131.5 234.5q90 106 216 170t281 64q129 0 235.5 -46t183.5 -127t119 -190.5t42 -236.5q0 -154 -54.5 -294.5t-154.5 -244.5q-88 -92 -206 -146.5t-259 -54.5q-129 0 -235.5 46t-183.5 126t-119 189.5t-42 236.5zM287 547q0 -115 31.5 -216.5 t101.5 -170.5q51 -51 119.5 -80t160.5 -29q123 0 212 67.5t146.5 169t85 221.5t27.5 224q0 115 -30.5 215.5t-100.5 169.5q-51 53 -120.5 82t-161.5 29q-123 0 -212 -67.5t-146.5 -169t-85 -221.5t-27.5 -224zM555 1393l225 376h183l124 -376h-43l-182 270h-4l-258 -270h-45 z" />
<glyph unicode="&#xd5;" horiz-adv-x="1409" d="M102 567q0 143 45.5 273.5t131.5 234.5q90 106 216 170t281 64q129 0 235.5 -46t183.5 -127t119 -190.5t42 -236.5q0 -154 -54.5 -294.5t-154.5 -244.5q-88 -92 -206 -146.5t-259 -54.5q-129 0 -235.5 46t-183.5 126t-119 189.5t-42 236.5zM287 547q0 -115 31.5 -216.5 t101.5 -170.5q51 -51 119.5 -80t160.5 -29q123 0 212 67.5t146.5 169t85 221.5t27.5 224q0 115 -30.5 215.5t-100.5 169.5q-51 53 -120.5 82t-161.5 29q-123 0 -212 -67.5t-146.5 -169t-85 -221.5t-27.5 -224zM498 1432q35 119 90 179t135 60q47 0 87 -22.5t74 -50t64.5 -51 t57.5 -23.5q33 0 60.5 26.5t68.5 106.5h55q-37 -117 -92.5 -178.5t-134.5 -61.5q-47 0 -87 23.5t-74 51.5t-63.5 50.5t-58.5 22.5q-35 0 -61.5 -27t-67.5 -106h-53z" />
<glyph unicode="&#xd6;" horiz-adv-x="1409" d="M102 567q0 143 45.5 273.5t131.5 234.5q90 106 216 170t281 64q129 0 235.5 -46t183.5 -127t119 -190.5t42 -236.5q0 -154 -54.5 -294.5t-154.5 -244.5q-88 -92 -206 -146.5t-259 -54.5q-129 0 -235.5 46t-183.5 126t-119 189.5t-42 236.5zM287 547q0 -115 31.5 -216.5 t101.5 -170.5q51 -51 119.5 -80t160.5 -29q123 0 212 67.5t146.5 169t85 221.5t27.5 224q0 115 -30.5 215.5t-100.5 169.5q-51 53 -120.5 82t-161.5 29q-123 0 -212 -67.5t-146.5 -169t-85 -221.5t-27.5 -224zM483 1575q0 47 30 84t83 37t83 -37t30 -84t-30 -84t-83 -37 t-83 37t-30 84zM893 1575q0 47 29.5 84t83.5 37q53 0 82.5 -37t29.5 -84t-29.5 -84t-82.5 -37t-83 37t-30 84z" />
<glyph unicode="&#xd7;" horiz-adv-x="995" d="M80 133l346 346l-346 344l76 76l346 -346l346 348l76 -76l-349 -346l347 -346l-76 -76l-344 346l-346 -346z" />
<glyph unicode="&#xd8;" horiz-adv-x="1409" d="M102 567q0 143 45.5 273.5t131.5 234.5q90 106 216 170t281 64q160 0 281 -72l108 172h90l-65 -106q-25 -41 -46.5 -73t-21.5 -34q111 -78 172.5 -205t61.5 -282q0 -154 -54.5 -294.5t-154.5 -244.5q-88 -92 -206 -146.5t-259 -54.5q-158 0 -279 68q0 2 -18 -29t-41 -65 q-27 -41 -59 -95h-88l141 228q-111 82 -173.5 209t-62.5 282zM287 547q0 -106 27.5 -202.5t86.5 -166.5l603 971q-47 39 -107.5 59.5t-138.5 20.5q-123 0 -212 -67.5t-146.5 -169t-85 -221.5t-27.5 -224zM459 127q94 -76 241 -76q123 0 212 67.5t146.5 169t85 221.5 t27.5 224t-25.5 199.5t-84.5 165.5z" />
<glyph unicode="&#xd9;" horiz-adv-x="1458" d="M164 1280h502l-7 -70l-127 -20q-37 -6 -40 -37l-89 -651q-4 -23 -7 -53.5t-3 -59.5q0 -166 94.5 -241.5t247.5 -75.5q72 0 134.5 18.5t111.5 60.5t83 109.5t48 165.5l64 477q14 100 20 156.5t3 85.5t-14 37t-34 12l-121 16l-6 70h477l-6 -70l-125 -16q-20 -4 -34.5 -13.5 t-26 -38t-21.5 -85t-24 -154.5l-68 -495q-33 -223 -174 -331t-346 -108q-98 0 -181 23.5t-144.5 72t-96.5 121t-35 170.5q0 33 3 70t7 66l93 661q2 14 -4.5 23.5t-28.5 13.5l-119 20zM567 1769h193l141 -376h-45z" />
<glyph unicode="&#xda;" horiz-adv-x="1458" d="M164 1280h502l-7 -70l-127 -20q-37 -6 -40 -37l-89 -651q-4 -23 -7 -53.5t-3 -59.5q0 -166 94.5 -241.5t247.5 -75.5q72 0 134.5 18.5t111.5 60.5t83 109.5t48 165.5l64 477q14 100 20 156.5t3 85.5t-14 37t-34 12l-121 16l-6 70h477l-6 -70l-125 -16q-20 -4 -34.5 -13.5 t-26 -38t-21.5 -85t-24 -154.5l-68 -495q-33 -223 -174 -331t-346 -108q-98 0 -181 23.5t-144.5 72t-96.5 121t-35 170.5q0 33 3 70t7 66l93 661q2 14 -4.5 23.5t-28.5 13.5l-119 20zM791 1393l243 376h193l-389 -376h-47z" />
<glyph unicode="&#xdb;" horiz-adv-x="1458" d="M164 1280h502l-7 -70l-127 -20q-37 -6 -40 -37l-89 -651q-4 -23 -7 -53.5t-3 -59.5q0 -166 94.5 -241.5t247.5 -75.5q72 0 134.5 18.5t111.5 60.5t83 109.5t48 165.5l64 477q14 100 20 156.5t3 85.5t-14 37t-34 12l-121 16l-6 70h477l-6 -70l-125 -16q-20 -4 -34.5 -13.5 t-26 -38t-21.5 -85t-24 -154.5l-68 -495q-33 -223 -174 -331t-346 -108q-98 0 -181 23.5t-144.5 72t-96.5 121t-35 170.5q0 33 3 70t7 66l93 661q2 14 -4.5 23.5t-28.5 13.5l-119 20zM584 1393l225 376h182l125 -376h-43l-182 270h-4l-258 -270h-45z" />
<glyph unicode="&#xdc;" horiz-adv-x="1458" d="M164 1280h502l-7 -70l-127 -20q-37 -6 -40 -37l-89 -651q-4 -23 -7 -53.5t-3 -59.5q0 -166 94.5 -241.5t247.5 -75.5q72 0 134.5 18.5t111.5 60.5t83 109.5t48 165.5l64 477q14 100 20 156.5t3 85.5t-14 37t-34 12l-121 16l-6 70h477l-6 -70l-125 -16q-20 -4 -34.5 -13.5 t-26 -38t-21.5 -85t-24 -154.5l-68 -495q-33 -223 -174 -331t-346 -108q-98 0 -181 23.5t-144.5 72t-96.5 121t-35 170.5q0 33 3 70t7 66l93 661q2 14 -4.5 23.5t-28.5 13.5l-119 20zM508 1575q0 47 29.5 84t83.5 37q53 0 82.5 -37t29.5 -84t-29.5 -84t-82.5 -37t-83 37 t-30 84zM918 1575q0 47 29.5 84t82.5 37t83 -37t30 -84t-30 -84t-83 -37t-82.5 37t-29.5 84z" />
<glyph unicode="&#xdd;" horiz-adv-x="1210" d="M76 1280h499l-8 -70l-102 -12q-39 -4 -40 -32.5t28 -86.5l209 -450h8l331 485q16 29 15.5 49.5t-43.5 30.5l-107 16l-6 70h467l-6 -70l-82 -14q-41 -10 -75 -29.5t-70 -74.5l-381 -543l-56 -422q-6 -31 31 -37l152 -20l6 -70h-567l6 70l161 20q20 2 28.5 12.5t12.5 24.5 l54 420l-269 545q-23 47 -43 67.5t-55 30.5l-92 20zM668 1393l243 376h193l-389 -376h-47z" />
<glyph unicode="&#xde;" horiz-adv-x="1124" d="M27 0l6 70l127 20q35 6 41 37l139 1026q4 14 -2 23.5t-29 13.5l-119 20l-6 70h500l-6 -70l-127 -20q-35 -6 -41 -37l-16 -125h131q104 0 189 -24.5t146.5 -70.5t94 -111.5t32.5 -145.5q0 -98 -43 -175t-114.5 -128t-164.5 -78t-194 -27q-49 0 -93 4t-85 11l-22 -156 q-6 -35 30 -37l162 -20l6 -70h-542zM403 360q37 -10 79 -15t83 -5q150 0 245 87t95 249q0 131 -86 204.5t-225 73.5q-35 0 -67.5 -1t-43.5 -3z" />
<glyph unicode="&#xdf;" horiz-adv-x="1118" d="M-291 -385q0 45 25.5 73.5t66.5 28.5q49 0 78 -38.5t35 -92.5l121 64q10 23 21.5 63.5t23.5 93t23.5 110.5t21.5 114l131 788l-178 8l6 58l192 43q18 104 58.5 205.5t103.5 164.5q47 51 109.5 81t146.5 30q82 0 130 -41t48 -92q0 -43 -24.5 -74t-65.5 -31q-47 0 -77.5 37 t-40.5 97l-166 -37q-29 -66 -51.5 -156t-40.5 -194l-134 -738q-18 -96 -38.5 -186t-45 -168t-53.5 -138.5t-63 -97.5q-47 -47 -103.5 -70.5t-113.5 -23.5q-61 0 -103.5 34t-42.5 85zM428 119q0 41 26.5 68.5t69.5 27.5q35 0 54.5 -22.5t19.5 -57.5q0 -10 -4 -23.5t-8 -23.5 q41 -16 91 -26.5t118 -14.5q35 14 60.5 61.5t27.5 86.5q2 29 -10.5 54t-34 53t-50 55.5t-61.5 58.5q-27 27 -59.5 57.5t-60 65t-44 73.5t-14.5 82q6 68 36.5 115t75 78t97.5 45t104 14q49 0 93 -6t78 -23.5t53.5 -45t19.5 -70.5q0 -41 -26.5 -68.5t-67.5 -27.5 q-35 0 -54.5 23.5t-19.5 55.5q0 23 10 43q-35 16 -89 27.5t-99 15.5q-35 -12 -58.5 -51t-27.5 -86q-2 -31 9 -56.5t31.5 -52t50.5 -56t66 -64.5q29 -27 61 -58.5t58.5 -66.5t43 -72t14.5 -76q-4 -68 -37 -116.5t-81 -81.5t-104.5 -48.5t-109.5 -15.5q-111 0 -179.5 33 t-68.5 117z" />
<glyph unicode="&#xe0;" d="M45 233q0 78 17.5 161t48 162t72.5 146.5t89 114.5q55 55 122 93t132 38q37 0 63.5 -15t47 -39t35 -51.5t22.5 -49.5h15l41 153h127l-101 -364l-108 -488l61 -18l162 137l35 -37q-18 -33 -49 -69.5t-66 -67.5t-72 -50.5t-65 -19.5q-16 0 -41 6.5t-48.5 15.5t-41 20.5 t-17.5 23.5q0 10 10.5 47t27 92t37 124t42.5 138h-18q-49 -88 -98.5 -172t-98.5 -149.5t-98 -105.5t-99 -40q-84 0 -135 72t-51 192zM186 270q0 -180 101 -180q29 0 62.5 28.5t76.5 87t98.5 148.5t126.5 211l29 119q-18 25 -45 54.5t-58.5 55t-65.5 43t-69 17.5 q-41 0 -82 -41q-27 -27 -57.5 -90.5t-57 -142t-43 -161.5t-16.5 -149zM313 1417h193l141 -377h-45z" />
<glyph unicode="&#xe1;" d="M45 233q0 78 17.5 161t48 162t72.5 146.5t89 114.5q55 55 122 93t132 38q37 0 63.5 -15t47 -39t35 -51.5t22.5 -49.5h15l41 153h127l-101 -364l-108 -488l61 -18l162 137l35 -37q-18 -33 -49 -69.5t-66 -67.5t-72 -50.5t-65 -19.5q-16 0 -41 6.5t-48.5 15.5t-41 20.5 t-17.5 23.5q0 10 10.5 47t27 92t37 124t42.5 138h-18q-49 -88 -98.5 -172t-98.5 -149.5t-98 -105.5t-99 -40q-84 0 -135 72t-51 192zM186 270q0 -180 101 -180q29 0 62.5 28.5t76.5 87t98.5 148.5t126.5 211l29 119q-18 25 -45 54.5t-58.5 55t-65.5 43t-69 17.5 q-41 0 -82 -41q-27 -27 -57.5 -90.5t-57 -142t-43 -161.5t-16.5 -149zM449 1040l243 377h193l-389 -377h-47z" />
<glyph unicode="&#xe2;" d="M45 233q0 78 17.5 161t48 162t72.5 146.5t89 114.5q55 55 122 93t132 38q37 0 63.5 -15t47 -39t35 -51.5t22.5 -49.5h15l41 153h127l-101 -364l-108 -488l61 -18l162 137l35 -37q-18 -33 -49 -69.5t-66 -67.5t-72 -50.5t-65 -19.5q-16 0 -41 6.5t-48.5 15.5t-41 20.5 t-17.5 23.5q0 10 10.5 47t27 92t37 124t42.5 138h-18q-49 -88 -98.5 -172t-98.5 -149.5t-98 -105.5t-99 -40q-84 0 -135 72t-51 192zM186 270q0 -180 101 -180q29 0 62.5 28.5t76.5 87t98.5 148.5t126.5 211l29 119q-18 25 -45 54.5t-58.5 55t-65.5 43t-69 17.5 q-41 0 -82 -41q-27 -27 -57.5 -90.5t-57 -142t-43 -161.5t-16.5 -149zM285 1040l225 377h182l125 -377h-43l-182 271h-4l-258 -271h-45z" />
<glyph unicode="&#xe3;" d="M45 233q0 78 17.5 161t48 162t72.5 146.5t89 114.5q55 55 122 93t132 38q37 0 63.5 -15t47 -39t35 -51.5t22.5 -49.5h15l41 153h127l-101 -364l-108 -488l61 -18l162 137l35 -37q-18 -33 -49 -69.5t-66 -67.5t-72 -50.5t-65 -19.5q-16 0 -41 6.5t-48.5 15.5t-41 20.5 t-17.5 23.5q0 10 10.5 47t27 92t37 124t42.5 138h-18q-49 -88 -98.5 -172t-98.5 -149.5t-98 -105.5t-99 -40q-84 0 -135 72t-51 192zM186 270q0 -180 101 -180q29 0 62.5 28.5t76.5 87t98.5 148.5t126.5 211l29 119q-18 25 -45 54.5t-58.5 55t-65.5 43t-69 17.5 q-41 0 -82 -41q-27 -27 -57.5 -90.5t-57 -142t-43 -161.5t-16.5 -149zM225 1079q35 119 90.5 179.5t135.5 60.5q47 0 87 -22.5t73.5 -50t64.5 -51.5t57 -24q33 0 60.5 27t68.5 107h56q-37 -117 -92.5 -178.5t-135.5 -61.5q-47 0 -87 23.5t-73.5 51t-63.5 50t-58 22.5 q-35 0 -62 -26.5t-67 -106.5h-54z" />
<glyph unicode="&#xe4;" d="M45 233q0 78 17.5 161t48 162t72.5 146.5t89 114.5q55 55 122 93t132 38q37 0 63.5 -15t47 -39t35 -51.5t22.5 -49.5h15l41 153h127l-101 -364l-108 -488l61 -18l162 137l35 -37q-18 -33 -49 -69.5t-66 -67.5t-72 -50.5t-65 -19.5q-16 0 -41 6.5t-48.5 15.5t-41 20.5 t-17.5 23.5q0 10 10.5 47t27 92t37 124t42.5 138h-18q-49 -88 -98.5 -172t-98.5 -149.5t-98 -105.5t-99 -40q-84 0 -135 72t-51 192zM186 270q0 -180 101 -180q29 0 62.5 28.5t76.5 87t98.5 148.5t126.5 211l29 119q-18 25 -45 54.5t-58.5 55t-65.5 43t-69 17.5 q-41 0 -82 -41q-27 -27 -57.5 -90.5t-57 -142t-43 -161.5t-16.5 -149zM262 1223q0 47 30 83.5t83 36.5t82.5 -36.5t29.5 -83.5t-29.5 -84t-82.5 -37t-83 37t-30 84zM672 1223q0 47 29.5 83.5t82.5 36.5t83 -36.5t30 -83.5t-29.5 -84t-83.5 -37q-53 0 -82.5 37t-29.5 84z" />
<glyph unicode="&#xe5;" d="M45 233q0 78 17.5 161t48 162t72.5 146.5t89 114.5q55 55 122 93t132 38q37 0 63.5 -15t47 -39t35 -51.5t22.5 -49.5h15l41 153h127l-101 -364l-108 -488l61 -18l162 137l35 -37q-18 -33 -49 -69.5t-66 -67.5t-72 -50.5t-65 -19.5q-16 0 -41 6.5t-48.5 15.5t-41 20.5 t-17.5 23.5q0 10 10.5 47t27 92t37 124t42.5 138h-18q-49 -88 -98.5 -172t-98.5 -149.5t-98 -105.5t-99 -40q-84 0 -135 72t-51 192zM186 270q0 -180 101 -180q29 0 62.5 28.5t76.5 87t98.5 148.5t126.5 211l29 119q-18 25 -45 54.5t-58.5 55t-65.5 43t-69 17.5 q-41 0 -82 -41q-27 -27 -57.5 -90.5t-57 -142t-43 -161.5t-16.5 -149zM399 1239q2 76 49.5 130t133.5 54t135 -54t47 -130q0 -76 -48 -130t-134 -54t-134.5 54t-48.5 130zM461 1239q0 -51 31.5 -90t91.5 -39q57 0 89 39t32 90q0 53 -32 92t-91 39q-57 0 -89 -39t-32 -92z " />
<glyph unicode="&#xe6;" horiz-adv-x="1239" d="M45 262q0 78 15.5 157t43 151.5t67.5 136t87 110.5q55 55 121.5 93t132.5 38q41 0 71.5 -22.5t55.5 -56t41.5 -71.5t24.5 -69q72 106 146.5 161.5t172.5 55.5t155.5 -54t57.5 -124q0 -49 -25.5 -86t-88 -80t-168 -98t-263.5 -139q-2 -10 -2 -26.5v-27.5q0 -115 56.5 -174 t127.5 -59q45 0 106.5 36t139.5 95l29 -37q-76 -88 -157 -145.5t-173 -57.5q-57 0 -107 24.5t-87 66.5t-57.5 100.5t-20.5 126.5q0 6 1 16t1 23q-45 -80 -91 -146.5t-89 -113t-81 -72t-69 -25.5q-43 0 -75.5 23.5t-54 63.5t-33 93.5t-11.5 112.5zM186 299q0 -90 23.5 -145.5 t58.5 -55.5q37 0 79 41t87 107.5t92 150.5t92 168q10 16 20.5 41t18.5 39q-16 37 -41.5 74t-56.5 67.5t-65.5 49t-69.5 18.5q-39 0 -80 -41q-27 -27 -55.5 -86t-51 -132t-37 -151.5t-14.5 -144.5zM694 426h4q127 70 207 118t125 85t60.5 67.5t15.5 65.5q0 20 -18.5 37.5 t-44 31t-54 20.5t-49.5 7q-27 0 -46.5 -10t-33.5 -23q-20 -20 -43.5 -58t-46 -90t-42 -115.5t-34.5 -135.5z" />
<glyph unicode="&#xe7;" horiz-adv-x="763" d="M55 -502q344 45 344 195q0 43 -38.5 69.5t-120.5 26.5q-29 0 -59.5 -3t-61.5 -7l4 35q49 45 86 80q33 29 58.5 53t25.5 26q-51 8 -93 35t-73 69t-48.5 95t-17.5 115q0 121 39 238.5t105.5 211.5t155 151.5t186.5 57.5q45 0 85 -11t70.5 -32.5t48 -50.5t17.5 -64 q0 -45 -26.5 -76.5t-67.5 -31.5q-80 0 -80 76q0 35 14 55q-4 6 -21.5 16.5t-41 18.5t-51 14t-52.5 6q-10 0 -28.5 -13t-32.5 -28q-27 -27 -58.5 -83t-57 -127.5t-43 -150.5t-17.5 -153q0 -115 56 -174t128 -59q45 0 106.5 36t139.5 95l29 -37q-66 -78 -137.5 -132 t-149.5 -67l-103 -94q111 4 177.5 -39t66.5 -121q0 -53 -31.5 -98t-91 -80t-143.5 -57.5t-189 -30.5z" />
<glyph unicode="&#xe8;" horiz-adv-x="751" d="M61 287q0 123 40 241.5t106.5 212t151.5 149.5t178 56q49 0 89 -15.5t67.5 -40t43 -57t15.5 -69.5q0 -49 -26 -88t-88.5 -82t-166.5 -98.5t-264 -139.5q-2 -10 -2 -22v-23q0 -115 56 -174t128 -59q45 0 106.5 36t139.5 95l29 -37q-76 -88 -157 -145.5t-173 -57.5 q-57 0 -107.5 24.5t-87.5 66.5t-57.5 100.5t-20.5 126.5zM209 418l4 -2q123 66 202 114t124 86.5t61 72.5t16 73q0 20 -16 37.5t-40.5 31t-50.5 20.5t-44 7q-33 0 -55.5 -11t-38.5 -28q-39 -41 -86 -147.5t-76 -253.5zM268 1417h193l141 -377h-45z" />
<glyph unicode="&#xe9;" horiz-adv-x="751" d="M61 287q0 123 40 241.5t106.5 212t151.5 149.5t178 56q49 0 89 -15.5t67.5 -40t43 -57t15.5 -69.5q0 -49 -26 -88t-88.5 -82t-166.5 -98.5t-264 -139.5q-2 -10 -2 -22v-23q0 -115 56 -174t128 -59q45 0 106.5 36t139.5 95l29 -37q-76 -88 -157 -145.5t-173 -57.5 q-57 0 -107.5 24.5t-87.5 66.5t-57.5 100.5t-20.5 126.5zM209 418l4 -2q123 66 202 114t124 86.5t61 72.5t16 73q0 20 -16 37.5t-40.5 31t-50.5 20.5t-44 7q-33 0 -55.5 -11t-38.5 -28q-39 -41 -86 -147.5t-76 -253.5zM418 1040l244 377h192l-389 -377h-47z" />
<glyph unicode="&#xea;" horiz-adv-x="751" d="M61 287q0 123 40 241.5t106.5 212t151.5 149.5t178 56q49 0 89 -15.5t67.5 -40t43 -57t15.5 -69.5q0 -49 -26 -88t-88.5 -82t-166.5 -98.5t-264 -139.5q-2 -10 -2 -22v-23q0 -115 56 -174t128 -59q45 0 106.5 36t139.5 95l29 -37q-76 -88 -157 -145.5t-173 -57.5 q-57 0 -107.5 24.5t-87.5 66.5t-57.5 100.5t-20.5 126.5zM209 418l4 -2q123 66 202 114t124 86.5t61 72.5t16 73q0 20 -16 37.5t-40.5 31t-50.5 20.5t-44 7q-33 0 -55.5 -11t-38.5 -28q-39 -41 -86 -147.5t-76 -253.5zM248 1040l225 377h182l125 -377h-43l-182 271h-4 l-258 -271h-45z" />
<glyph unicode="&#xeb;" horiz-adv-x="751" d="M61 287q0 123 40 241.5t106.5 212t151.5 149.5t178 56q49 0 89 -15.5t67.5 -40t43 -57t15.5 -69.5q0 -49 -26 -88t-88.5 -82t-166.5 -98.5t-264 -139.5q-2 -10 -2 -22v-23q0 -115 56 -174t128 -59q45 0 106.5 36t139.5 95l29 -37q-76 -88 -157 -145.5t-173 -57.5 q-57 0 -107.5 24.5t-87.5 66.5t-57.5 100.5t-20.5 126.5zM209 418l4 -2q123 66 202 114t124 86.5t61 72.5t16 73q0 20 -16 37.5t-40.5 31t-50.5 20.5t-44 7q-33 0 -55.5 -11t-38.5 -28q-39 -41 -86 -147.5t-76 -253.5zM217 1223q0 47 29.5 83.5t83.5 36.5q53 0 82.5 -36.5 t29.5 -83.5t-29.5 -84t-82.5 -37t-83 37t-30 84zM627 1223q0 47 29.5 83.5t82.5 36.5t83 -36.5t30 -83.5t-29.5 -84t-83.5 -37q-53 0 -82.5 37t-29.5 84z" />
<glyph unicode="&#xec;" horiz-adv-x="522" d="M41 707q18 37 48 78.5t63.5 77.5t69.5 59.5t65 23.5q16 0 42.5 -6t51.5 -15.5t42 -20.5t13 -23l-217 -787l62 -18l163 137l35 -37q-18 -33 -50 -69.5t-66.5 -67.5t-71.5 -50.5t-66 -19.5q-14 0 -38.5 6.5t-48 16.5t-39 21.5t-13.5 21.5l209 788l-62 11l-157 -164z M96 1417h193l141 -377h-45z" />
<glyph unicode="&#xed;" horiz-adv-x="522" d="M41 707q18 37 48 78.5t63.5 77.5t69.5 59.5t65 23.5q16 0 42.5 -6t51.5 -15.5t42 -20.5t13 -23l-217 -787l62 -18l163 137l35 -37q-18 -33 -50 -69.5t-66.5 -67.5t-71.5 -50.5t-66 -19.5q-14 0 -38.5 6.5t-48 16.5t-39 21.5t-13.5 21.5l209 788l-62 11l-157 -164z M240 1040l243 377h193l-389 -377h-47z" />
<glyph unicode="&#xee;" horiz-adv-x="522" d="M41 707q18 37 48 78.5t63.5 77.5t69.5 59.5t65 23.5q16 0 42.5 -6t51.5 -15.5t42 -20.5t13 -23l-217 -787l62 -18l163 137l35 -37q-18 -33 -50 -69.5t-66.5 -67.5t-71.5 -50.5t-66 -19.5q-14 0 -38.5 6.5t-48 16.5t-39 21.5t-13.5 21.5l209 788l-62 11l-157 -164z M76 1040l225 377h182l125 -377h-43l-182 271h-4l-258 -271h-45z" />
<glyph unicode="&#xef;" horiz-adv-x="522" d="M39 1223q0 47 29.5 83.5t83.5 36.5q53 0 82.5 -36.5t29.5 -83.5t-29.5 -84t-82.5 -37t-83 37t-30 84zM41 707q18 37 48 78.5t63.5 77.5t69.5 59.5t65 23.5q16 0 42.5 -6t51.5 -15.5t42 -20.5t13 -23l-217 -787l62 -18l163 137l35 -37q-18 -33 -50 -69.5t-66.5 -67.5 t-71.5 -50.5t-66 -19.5q-14 0 -38.5 6.5t-48 16.5t-39 21.5t-13.5 21.5l209 788l-62 11l-157 -164zM449 1223q0 47 29.5 83.5t82.5 36.5t83 -36.5t30 -83.5t-30 -84t-83 -37t-82.5 37t-29.5 84z" />
<glyph unicode="&#xf0;" horiz-adv-x="894" d="M68 362q0 100 32.5 204t92 189t140.5 138t179 53q80 0 129 -38t78 -107q-10 98 -46 188t-102 166l-325 -100l18 84l244 75q-43 35 -94.5 62t-112.5 49l43 70q156 -51 264 -150q2 0 48 15.5t102 31.5l147 45l-18 -84l-215 -67q90 -98 137 -221t49 -263q0 -133 -38 -264 t-103.5 -235.5t-154.5 -169t-191 -64.5q-80 0 -137.5 31t-94.5 85t-54 126t-17 151zM207 317q0 -51 9 -101t29.5 -91t52.5 -66.5t77 -25.5q55 0 102 39t82 95t59.5 119.5t36.5 112.5q6 27 11.5 57.5t8.5 59.5t5 54.5t2 39.5q0 51 -9 100.5t-29.5 87.5t-52.5 61.5t-77 23.5 q-53 0 -98 -38t-81 -93.5t-61.5 -117t-37.5 -108.5q-29 -109 -29 -209z" />
<glyph unicode="&#xf1;" horiz-adv-x="1042" d="M35 707q18 37 48 78.5t63.5 77.5t69.5 59.5t65 23.5q16 0 40.5 -6t48 -15.5t41 -20.5t17.5 -23q0 -16 -14.5 -76t-34 -138.5t-42 -161.5t-38.5 -147h20q94 199 171 331t131 188q68 70 141 69q29 0 56.5 -11t49 -29.5t34.5 -45t13 -57.5q0 -25 -7 -66t-19 -90 t-27.5 -104.5t-32.5 -110.5q-29 -98 -56.5 -191.5t-45.5 -146.5l61 -18l164 137l35 -37q-18 -33 -49 -69.5t-66.5 -67.5t-72.5 -50.5t-66 -19.5q-14 0 -38.5 6.5t-46 15.5t-38 20.5t-16.5 23.5q0 20 10 64t26.5 99.5t35 116t34.5 113.5q14 47 28.5 93t26 87t18.5 73t7 50 q0 35 -30.5 62.5t-67.5 27.5q-23 0 -60.5 -43t-87 -119.5t-106.5 -183t-121 -233.5l-47 -252l-149 10l69 301l109 514l-60 12l-161 -157zM256 1079q35 119 90 179.5t135 60.5q47 0 87 -22.5t74 -50t64.5 -51.5t57.5 -24q33 0 60.5 27t68.5 107h55q-37 -117 -92 -178.5 t-135 -61.5q-47 0 -87 23.5t-74 51t-63.5 50t-58.5 22.5q-35 0 -61.5 -26.5t-67.5 -106.5h-53z" />
<glyph unicode="&#xf2;" horiz-adv-x="894" d="M68 362q0 100 33.5 204t94 189t143.5 138t181 53q78 0 135.5 -30.5t94 -85t55 -126t18.5 -151.5q0 -100 -33.5 -203.5t-94 -187.5t-143.5 -138.5t-181 -54.5q-80 0 -137.5 31t-94.5 85t-54 126t-17 151zM207 317q0 -51 9 -101t29.5 -91t52.5 -66.5t77 -25.5q55 0 102 39 t82 95t59.5 119.5t36.5 112.5q12 53 19.5 108.5t7.5 102.5q0 51 -9 100.5t-29.5 87.5t-52.5 61.5t-77 23.5q-53 0 -98 -38t-81 -93.5t-61.5 -117t-37.5 -108.5q-29 -109 -29 -209zM303 1417h193l141 -377h-45z" />
<glyph unicode="&#xf3;" horiz-adv-x="894" d="M68 362q0 100 33.5 204t94 189t143.5 138t181 53q78 0 135.5 -30.5t94 -85t55 -126t18.5 -151.5q0 -100 -33.5 -203.5t-94 -187.5t-143.5 -138.5t-181 -54.5q-80 0 -137.5 31t-94.5 85t-54 126t-17 151zM207 317q0 -51 9 -101t29.5 -91t52.5 -66.5t77 -25.5q55 0 102 39 t82 95t59.5 119.5t36.5 112.5q12 53 19.5 108.5t7.5 102.5q0 51 -9 100.5t-29.5 87.5t-52.5 61.5t-77 23.5q-53 0 -98 -38t-81 -93.5t-61.5 -117t-37.5 -108.5q-29 -109 -29 -209zM455 1040l243 377h193l-389 -377h-47z" />
<glyph unicode="&#xf4;" horiz-adv-x="894" d="M68 362q0 100 33.5 204t94 189t143.5 138t181 53q78 0 135.5 -30.5t94 -85t55 -126t18.5 -151.5q0 -100 -33.5 -203.5t-94 -187.5t-143.5 -138.5t-181 -54.5q-80 0 -137.5 31t-94.5 85t-54 126t-17 151zM207 317q0 -51 9 -101t29.5 -91t52.5 -66.5t77 -25.5q55 0 102 39 t82 95t59.5 119.5t36.5 112.5q12 53 19.5 108.5t7.5 102.5q0 51 -9 100.5t-29.5 87.5t-52.5 61.5t-77 23.5q-53 0 -98 -38t-81 -93.5t-61.5 -117t-37.5 -108.5q-29 -109 -29 -209zM276 1040l226 377h182l125 -377h-43l-182 271h-4l-258 -271h-46z" />
<glyph unicode="&#xf5;" horiz-adv-x="894" d="M68 362q0 100 33.5 204t94 189t143.5 138t181 53q78 0 135.5 -30.5t94 -85t55 -126t18.5 -151.5q0 -100 -33.5 -203.5t-94 -187.5t-143.5 -138.5t-181 -54.5q-80 0 -137.5 31t-94.5 85t-54 126t-17 151zM207 317q0 -51 9 -101t29.5 -91t52.5 -66.5t77 -25.5q55 0 102 39 t82 95t59.5 119.5t36.5 112.5q12 53 19.5 108.5t7.5 102.5q0 51 -9 100.5t-29.5 87.5t-52.5 61.5t-77 23.5q-53 0 -98 -38t-81 -93.5t-61.5 -117t-37.5 -108.5q-29 -109 -29 -209zM225 1079q35 119 90.5 179.5t135.5 60.5q47 0 87 -22.5t73.5 -50t64.5 -51.5t57 -24 q33 0 60.5 27t68.5 107h56q-37 -117 -92.5 -178.5t-135.5 -61.5q-47 0 -87 23.5t-73.5 51t-63.5 50t-58 22.5q-35 0 -62 -26.5t-67 -106.5h-54z" />
<glyph unicode="&#xf6;" horiz-adv-x="894" d="M68 362q0 100 33.5 204t94 189t143.5 138t181 53q78 0 135.5 -30.5t94 -85t55 -126t18.5 -151.5q0 -100 -33.5 -203.5t-94 -187.5t-143.5 -138.5t-181 -54.5q-80 0 -137.5 31t-94.5 85t-54 126t-17 151zM207 317q0 -51 9 -101t29.5 -91t52.5 -66.5t77 -25.5q55 0 102 39 t82 95t59.5 119.5t36.5 112.5q12 53 19.5 108.5t7.5 102.5q0 51 -9 100.5t-29.5 87.5t-52.5 61.5t-77 23.5q-53 0 -98 -38t-81 -93.5t-61.5 -117t-37.5 -108.5q-29 -109 -29 -209zM260 1223q0 47 29.5 83.5t83.5 36.5q53 0 82.5 -36.5t29.5 -83.5t-29.5 -84t-82.5 -37 t-83 37t-30 84zM670 1223q0 47 29.5 83.5t82.5 36.5t83 -36.5t30 -83.5t-29.5 -84t-83.5 -37q-53 0 -82.5 37t-29.5 84z" />
<glyph unicode="&#xf7;" horiz-adv-x="995" d="M84 426l6 111h817l6 -111h-829zM395 193q0 41 30 72.5t77 31.5t75.5 -31.5t28.5 -72.5t-28.5 -74t-75.5 -33t-77 33t-30 74zM395 766q0 41 29 73.5t76 32.5t76.5 -32.5t29.5 -73.5t-29.5 -74t-76.5 -33t-76 33t-29 74z" />
<glyph unicode="&#xf8;" horiz-adv-x="894" d="M-18 -229l176 290q-47 53 -68.5 131t-21.5 170q0 100 33.5 204t94 189t143.5 138t181 53q92 0 156 -45l166 273h78q-55 -88 -97 -158q-18 -31 -34.5 -58.5l-30 -50l-22.5 -37.5l-9 -14q49 -53 72.5 -132t23.5 -171q0 -100 -33.5 -203.5t-94 -187.5t-143.5 -138.5 t-181 -54.5q-96 0 -160 47q-16 -29 -41 -70.5t-49 -80.5q-29 -45 -60 -94h-79zM207 317q0 -37 5 -73.5t15 -71.5l402 649q-23 29 -49.5 45.5t-65.5 16.5q-53 0 -98 -38t-81 -93.5t-61.5 -117t-37.5 -108.5q-29 -109 -29 -209zM260 98q20 -29 48 -47t67 -18q55 0 102 39 t82 95t59.5 119.5t36.5 112.5q12 53 19.5 108.5t7.5 102.5q0 35 -5 71t-15 69q-113 -182 -201 -326q-37 -61 -73 -119.5t-64.5 -104.5t-45.5 -74z" />
<glyph unicode="&#xf9;" horiz-adv-x="1042" d="M59 707q18 37 48 78.5t65 77.5t71 59.5t64 23.5q16 0 40 -6t47.5 -15.5t40 -20.5t16.5 -23q0 -20 -10.5 -63.5t-27 -98.5t-35 -116.5t-34.5 -115.5q-14 -47 -28.5 -93t-27 -86t-19.5 -71.5t-7 -50.5q0 -35 31 -63.5t67 -28.5q23 0 61 43t87 120t107.5 183.5t121.5 233.5 l49 252l150 -11l-72 -301q-27 -131 -49 -241q-10 -47 -19.5 -93.5t-17.5 -84t-14 -64.5t-10 -37l61 -18l162 137l35 -37q-18 -33 -49 -69.5t-66 -67.5t-72 -50.5t-65 -19.5q-16 0 -41 6.5t-47.5 15.5t-39 20.5t-16.5 23.5q0 16 13.5 75.5t34 138.5t42 162t37.5 146h-18 q-94 -199 -172 -331t-131 -187q-68 -70 -148 -70q-57 0 -102 41t-45 103q0 25 7 65.5t19.5 89.5t28 104.5t31.5 110.5q29 98 56.5 190.5t43.5 149.5l-61 11l-158 -164zM336 1417h192l142 -377h-45z" />
<glyph unicode="&#xfa;" horiz-adv-x="1042" d="M59 707q18 37 48 78.5t65 77.5t71 59.5t64 23.5q16 0 40 -6t47.5 -15.5t40 -20.5t16.5 -23q0 -20 -10.5 -63.5t-27 -98.5t-35 -116.5t-34.5 -115.5q-14 -47 -28.5 -93t-27 -86t-19.5 -71.5t-7 -50.5q0 -35 31 -63.5t67 -28.5q23 0 61 43t87 120t107.5 183.5t121.5 233.5 l49 252l150 -11l-72 -301q-27 -131 -49 -241q-10 -47 -19.5 -93.5t-17.5 -84t-14 -64.5t-10 -37l61 -18l162 137l35 -37q-18 -33 -49 -69.5t-66 -67.5t-72 -50.5t-65 -19.5q-16 0 -41 6.5t-47.5 15.5t-39 20.5t-16.5 23.5q0 16 13.5 75.5t34 138.5t42 162t37.5 146h-18 q-94 -199 -172 -331t-131 -187q-68 -70 -148 -70q-57 0 -102 41t-45 103q0 25 7 65.5t19.5 89.5t28 104.5t31.5 110.5q29 98 56.5 190.5t43.5 149.5l-61 11l-158 -164zM508 1040l244 377h192l-389 -377h-47z" />
<glyph unicode="&#xfb;" horiz-adv-x="1042" d="M59 707q18 37 48 78.5t65 77.5t71 59.5t64 23.5q16 0 40 -6t47.5 -15.5t40 -20.5t16.5 -23q0 -20 -10.5 -63.5t-27 -98.5t-35 -116.5t-34.5 -115.5q-14 -47 -28.5 -93t-27 -86t-19.5 -71.5t-7 -50.5q0 -35 31 -63.5t67 -28.5q23 0 61 43t87 120t107.5 183.5t121.5 233.5 l49 252l150 -11l-72 -301q-27 -131 -49 -241q-10 -47 -19.5 -93.5t-17.5 -84t-14 -64.5t-10 -37l61 -18l162 137l35 -37q-18 -33 -49 -69.5t-66 -67.5t-72 -50.5t-65 -19.5q-16 0 -41 6.5t-47.5 15.5t-39 20.5t-16.5 23.5q0 16 13.5 75.5t34 138.5t42 162t37.5 146h-18 q-94 -199 -172 -331t-131 -187q-68 -70 -148 -70q-57 0 -102 41t-45 103q0 25 7 65.5t19.5 89.5t28 104.5t31.5 110.5q29 98 56.5 190.5t43.5 149.5l-61 11l-158 -164zM336 1040l225 377h182l125 -377h-43l-182 271h-4l-258 -271h-45z" />
<glyph unicode="&#xfc;" horiz-adv-x="1042" d="M59 707q18 37 48 78.5t65 77.5t71 59.5t64 23.5q16 0 40 -6t47.5 -15.5t40 -20.5t16.5 -23q0 -20 -10.5 -63.5t-27 -98.5t-35 -116.5t-34.5 -115.5q-14 -47 -28.5 -93t-27 -86t-19.5 -71.5t-7 -50.5q0 -35 31 -63.5t67 -28.5q23 0 61 43t87 120t107.5 183.5t121.5 233.5 l49 252l150 -11l-72 -301q-27 -131 -49 -241q-10 -47 -19.5 -93.5t-17.5 -84t-14 -64.5t-10 -37l61 -18l162 137l35 -37q-18 -33 -49 -69.5t-66 -67.5t-72 -50.5t-65 -19.5q-16 0 -41 6.5t-47.5 15.5t-39 20.5t-16.5 23.5q0 16 13.5 75.5t34 138.5t42 162t37.5 146h-18 q-94 -199 -172 -331t-131 -187q-68 -70 -148 -70q-57 0 -102 41t-45 103q0 25 7 65.5t19.5 89.5t28 104.5t31.5 110.5q29 98 56.5 190.5t43.5 149.5l-61 11l-158 -164zM319 1223q0 47 30 83.5t83 36.5t83 -36.5t30 -83.5t-30 -84t-83 -37t-83 37t-30 84zM729 1223 q0 47 29.5 83.5t83.5 36.5q53 0 82.5 -36.5t29.5 -83.5t-29.5 -84t-82.5 -37t-83 37t-30 84z" />
<glyph unicode="&#xfd;" horiz-adv-x="878" d="M-227 -393q0 45 31.5 73.5t66.5 28.5q47 0 83 -35.5t32 -89.5l55 -4q2 0 14.5 17.5t33 46t45 65.5t50.5 74q61 88 138 201l-80 22l6 811l-60 12l-157 -163l-35 36q18 37 47 79t62.5 79t69.5 61.5t65 24.5q16 0 40.5 -6t48 -17.5t41 -23.5t17.5 -25l-16 -776h20l354 592 l7 33q-39 14 -71 42t-32 71q0 47 29 80.5t76 33.5q59 0 93 -36t34 -95q0 -37 -17.5 -82t-44 -93t-59.5 -97t-64 -92l-237 -355l-121 -215q-55 -106 -104.5 -184t-97.5 -128t-98 -73.5t-106 -23.5q-61 0 -110 35.5t-49 95.5zM426 1040l244 377h192l-389 -377h-47z" />
<glyph unicode="&#xfe;" horiz-adv-x="911" d="M-217 -504l4 70l129 20q37 2 43 37l344 1585q10 35 -14 41l-142 45l7 52l333 81l-112 -477l-127 -504h16q57 109 109.5 200t101.5 157.5t97.5 104.5t93.5 40q41 0 74.5 -23.5t57 -63.5t37 -92.5t13.5 -109.5q0 -78 -16.5 -156.5t-45 -152.5t-67.5 -137t-86 -111 q-61 -59 -132 -97t-143 -38q-53 0 -98 22.5t-76 53.5h-4l-84 -420q-4 -35 29 -37l154 -20l6 -70h-502zM211 178q23 -25 48.5 -49.5t53 -43.5t56 -32.5t55.5 -13.5q16 0 40.5 11t45.5 32q35 35 69.5 98.5t62.5 138t45.5 155.5t17.5 149q0 82 -25 141t-74 61 q-27 0 -58.5 -28.5t-74.5 -88t-98.5 -153.5t-128.5 -223z" />
<glyph unicode="&#xff;" horiz-adv-x="878" d="M-227 -393q0 45 31.5 73.5t66.5 28.5q47 0 83 -35.5t32 -89.5l55 -4q2 0 14.5 17.5t33 46t45 65.5t50.5 74q61 88 138 201l-80 22l6 811l-60 12l-157 -163l-35 36q18 37 47 79t62.5 79t69.5 61.5t65 24.5q16 0 40.5 -6t48 -17.5t41 -23.5t17.5 -25l-16 -776h20l354 592 l7 33q-39 14 -71 42t-32 71q0 47 29 80.5t76 33.5q59 0 93 -36t34 -95q0 -37 -17.5 -82t-44 -93t-59.5 -97t-64 -92l-237 -355l-121 -215q-55 -106 -104.5 -184t-97.5 -128t-98 -73.5t-106 -23.5q-61 0 -110 35.5t-49 95.5zM238 1223q0 47 29.5 83.5t82.5 36.5t83 -36.5 t30 -83.5t-30 -84t-83 -37t-82.5 37t-29.5 84zM647 1223q0 47 30 83.5t83 36.5t82.5 -36.5t29.5 -83.5t-29.5 -84t-82.5 -37t-83 37t-30 84z" />
<glyph unicode="&#x152;" horiz-adv-x="1839" d="M102 563q0 295 201 496q104 104 261 162.5t345 58.5h928l-63 -371h-74l-19 207q-2 31 -13 48.5t-53 26.5t-126 11t-232 2h-69l-70 -514h70q66 0 105.5 2t64 8.5t37 15.5t20.5 23l49 127h70l-100 -426h-68l8 131q2 12 -3 20.5t-25.5 14.5t-61.5 8t-110 2h-66l-72 -540h47 q164 0 256.5 3t140.5 12t65.5 26.5t29.5 46.5l82 198h98l-86 -362h-958q-139 0 -252 40t-192 113.5t-122 177t-43 232.5zM287 557q0 -111 29.5 -199t88 -151.5t145.5 -97t200 -33.5h116l146 1100l-150 28q-121 -4 -226.5 -48t-183 -126t-121.5 -200.5t-44 -272.5z" />
<glyph unicode="&#x153;" horiz-adv-x="1339" d="M68 362q0 98 32.5 203t92 189t142.5 138t185 54q111 0 176.5 -59.5t91.5 -157.5q61 98 148.5 157.5t185.5 59.5t156.5 -54t58.5 -124q0 -49 -25.5 -86t-89 -80t-168 -98t-263.5 -139v-54q0 -57 15 -101t40.5 -72.5t58.5 -44t68 -15.5q45 0 107.5 36t140.5 95l28 -37 q-78 -88 -157.5 -145.5t-171.5 -57.5t-151.5 49.5t-84.5 128.5q-57 -78 -136 -128t-177 -50q-80 0 -137.5 31t-94.5 84t-54 125t-17 153zM207 317q0 -51 9 -101t29.5 -91t52.5 -66.5t77 -25.5q55 0 102 39t82 95t59.5 119.5t36.5 112.5q12 53 19.5 108.5t7.5 102.5 q0 51 -9 100.5t-29.5 87.5t-52.5 61.5t-77 23.5q-53 0 -98 -38t-81 -93.5t-61.5 -117t-37.5 -108.5q-29 -109 -29 -209zM795 426h4q127 70 206.5 118t125 85t60.5 67.5t15 65.5q0 20 -18.5 37.5t-44 31t-54 20.5t-51.5 7q-25 0 -45 -10t-35 -23q-41 -41 -88 -147.5 t-75 -251.5z" />
<glyph unicode="&#x178;" horiz-adv-x="1210" d="M76 1280h499l-8 -70l-102 -12q-39 -4 -40 -32.5t28 -86.5l209 -450h8l331 485q16 29 15.5 49.5t-43.5 30.5l-107 16l-6 70h467l-6 -70l-82 -14q-41 -10 -75 -29.5t-70 -74.5l-381 -543l-56 -422q-6 -31 31 -37l152 -20l6 -70h-567l6 70l161 20q20 2 28.5 12.5t12.5 24.5 l54 420l-269 545q-23 47 -43 67.5t-55 30.5l-92 20zM430 1575q0 47 29.5 84t83.5 37q53 0 82.5 -37t29.5 -84t-29.5 -84t-82.5 -37t-83 37t-30 84zM840 1575q0 47 29.5 84t82.5 37t83 -37t30 -84t-29.5 -84t-83.5 -37q-53 0 -82.5 37t-29.5 84z" />
<glyph unicode="&#x2c6;" horiz-adv-x="819" d="M205 1040l225 377h182l125 -377h-43l-182 271h-4l-258 -271h-45z" />
<glyph unicode="&#x2dc;" horiz-adv-x="819" d="M145 1079q35 119 90.5 179.5t135.5 60.5q47 0 87 -22.5t73.5 -50t64.5 -51.5t57 -24q33 0 60.5 27t68.5 107h56q-37 -117 -92.5 -178.5t-135.5 -61.5q-47 0 -87 23.5t-73.5 51t-63.5 50t-58 22.5q-35 0 -61.5 -26.5t-67.5 -106.5h-54z" />
<glyph unicode="&#x2000;" horiz-adv-x="884" />
<glyph unicode="&#x2001;" horiz-adv-x="1769" />
<glyph unicode="&#x2002;" horiz-adv-x="884" />
<glyph unicode="&#x2003;" horiz-adv-x="1769" />
<glyph unicode="&#x2004;" horiz-adv-x="589" />
<glyph unicode="&#x2005;" horiz-adv-x="442" />
<glyph unicode="&#x2006;" horiz-adv-x="294" />
<glyph unicode="&#x2007;" horiz-adv-x="294" />
<glyph unicode="&#x2008;" horiz-adv-x="221" />
<glyph unicode="&#x2009;" horiz-adv-x="353" />
<glyph unicode="&#x200a;" horiz-adv-x="98" />
<glyph unicode="&#x2010;" horiz-adv-x="671" d="M51 428l6 104h525l6 -104h-537z" />
<glyph unicode="&#x2011;" horiz-adv-x="671" d="M51 428l6 104h525l6 -104h-537z" />
<glyph unicode="&#x2012;" horiz-adv-x="671" d="M51 428l6 104h525l6 -104h-537z" />
<glyph unicode="&#x2013;" horiz-adv-x="962" d="M55 424l6 100h848l6 -100h-860z" />
<glyph unicode="&#x2014;" horiz-adv-x="1921" d="M55 424l6 100h1805l8 -100h-1819z" />
<glyph unicode="&#x2018;" horiz-adv-x="462" d="M125 954q2 68 37 128.5t90 114.5t128 99t148 78l29 -39q-43 -23 -85 -55.5t-78 -70.5t-58.5 -80t-24.5 -85q-2 -37 15.5 -65.5t39 -49t39 -31.5t17.5 -13q-10 -43 -46 -73t-91 -30q-74 0 -119 50.5t-41 121.5z" />
<glyph unicode="&#x2019;" horiz-adv-x="462" d="M96 813q39 23 75 51.5t65.5 62.5t48 71.5t20.5 78.5q2 43 -18.5 74t-45 50.5t-46 29.5t-21.5 12q2 45 40 76t91 31q35 0 65.5 -14.5t54.5 -39t37 -58.5t11 -75q-2 -66 -34.5 -123t-81 -105t-106.5 -88t-114 -71z" />
<glyph unicode="&#x201a;" horiz-adv-x="462" d="M-55 -307q39 23 74.5 51.5t65.5 62t48.5 71.5t20.5 79q2 43 -18.5 73.5t-45 50t-46 30t-21.5 12.5q2 45 39.5 75.5t91.5 30.5q35 0 65.5 -14t54 -38.5t37 -58.5t11.5 -75q-2 -66 -35 -123t-81 -105t-106.5 -88t-113.5 -71z" />
<glyph unicode="&#x201c;" horiz-adv-x="868" d="M125 969q2 66 35 122t81 105t106.5 89t111.5 71l43 -37q-39 -23 -75 -51.5t-65.5 -62.5t-48 -72.5t-20.5 -79.5t18.5 -72t45 -51.5t46 -30.5t21.5 -12q-2 -43 -40 -74t-91 -31q-70 0 -120 53.5t-48 133.5zM551 969q2 66 34.5 122t81 105t106.5 89t112 71l43 -37 q-39 -23 -75 -51.5t-65.5 -62.5t-48 -72.5t-20.5 -79.5t18.5 -72t45 -51.5t46 -30.5t21.5 -12q-2 -43 -40 -74t-91 -31q-70 0 -120 53.5t-48 133.5z" />
<glyph unicode="&#x201d;" horiz-adv-x="868" d="M106 813q37 23 74 51.5t65.5 62.5t47 71.5t20.5 78.5q2 43 -17.5 74t-44 50.5t-46 29.5t-21.5 12q2 45 40 76t91 31q35 0 66 -14.5t54.5 -39t36.5 -58.5t11 -75q-2 -66 -34.5 -123t-81 -105t-106.5 -88t-114 -71zM532 813q39 23 75 51.5t65.5 62.5t48 71.5t20.5 78.5 q2 43 -18.5 74t-45 50.5t-46 29.5t-21.5 12q2 45 40 76t91 31q35 0 66 -14.5t54.5 -39t36.5 -58.5t11 -75q-2 -66 -34.5 -123t-81 -105t-106.5 -88t-114 -71z" />
<glyph unicode="&#x201e;" horiz-adv-x="868" d="M-45 -307q37 23 74 51.5t65.5 62t47 71.5t20.5 79q2 43 -17.5 73.5t-44 50t-46 30t-21.5 12.5q2 45 40 75.5t91 30.5q35 0 65.5 -14t54 -38.5t37 -58.5t11.5 -75q-2 -66 -35 -123t-81 -105t-106.5 -88t-113.5 -71zM381 -307q39 23 75 51.5t65.5 62t48 71.5t20.5 79 q2 43 -18.5 73.5t-45 50t-46 30t-21.5 12.5q2 45 40 75.5t91 30.5q35 0 65.5 -14t54 -38.5t37 -58.5t11.5 -75q-2 -66 -35 -123t-81 -105t-106.5 -88t-113.5 -71z" />
<glyph unicode="&#x2022;" horiz-adv-x="931" d="M72 475q0 23 12 63t30.5 83t39 80.5t34.5 52.5q16 16 53.5 35.5t80.5 37t83.5 29.5t61.5 12q23 0 62.5 -12t82.5 -29.5t81 -37t52 -35.5q16 -14 36 -52t37.5 -81t29.5 -83t12 -63t-12 -62.5t-29.5 -82.5t-37 -81t-36.5 -54q-14 -14 -52 -35t-81 -38.5t-84 -29.5t-63 -12 q-20 0 -61.5 12t-84.5 29.5t-79.5 38t-51.5 35.5q-14 16 -34.5 54t-39 81t-30.5 83t-12 62z" />
<glyph unicode="&#x2026;" horiz-adv-x="1392" d="M59 96q0 49 35 86t92 37q55 0 91 -37t34 -86q0 -49 -34.5 -88t-90.5 -39q-57 0 -93 39t-34 88zM522 96q0 49 36 86t93 37q55 0 90 -37t35 -86t-34.5 -88t-92.5 -39q-55 0 -91 39t-36 88zM987 96q0 49 36 86t91 37q57 0 92 -37t33 -86q0 -49 -35 -88t-90 -39q-57 0 -93 39 t-34 88z" />
<glyph unicode="&#x202f;" horiz-adv-x="353" />
<glyph unicode="&#x2039;" horiz-adv-x="620" d="M63 414l3 82l491 321l14 -43l-366 -323l282 -312l-24 -39z" />
<glyph unicode="&#x203a;" horiz-adv-x="620" d="M47 137l344 318l-260 317l25 39l399 -315l-12 -86l-482 -316z" />
<glyph unicode="&#x205f;" horiz-adv-x="442" />
<glyph unicode="&#x20ac;" horiz-adv-x="1028" d="M20 434l7 80h125v16q2 41 5 81t9 79h-123l6 80h133q31 115 87.5 209t133 163.5t170 107.5t197.5 38q66 0 122 -13t96 -35.5t62.5 -55.5t22.5 -72q0 -43 -23.5 -74.5t-70.5 -31.5q-27 0 -48.5 14t-35.5 36.5t-21.5 51.5t-7.5 57q-27 23 -70.5 33t-80.5 10 q-147 0 -246.5 -117.5t-134.5 -320.5h420l6 -80h-438q-4 -39 -6.5 -77t-2.5 -78v-21h416l8 -80h-418q10 -76 35 -141.5t66 -113.5t97 -75.5t126 -27.5q94 0 166 41t131 96l29 -45q-66 -86 -163 -142.5t-214 -56.5q-100 0 -176 38t-130.5 101.5t-86 148.5t-41.5 177h-138z " />
<glyph unicode="&#x2122;" horiz-adv-x="1865" d="M102 1012l17 268h672v-268h-60l-14 71q-12 43 -24.5 71t-34 43t-55.5 20.5t-93 5.5h-6v-615q0 -20 18 -22l105 -13l2 -55h-371l4 55l105 13q20 2 20 22v615h-10q-49 0 -82 -6.5t-54.5 -21.5t-36 -43t-28.5 -69l-18 -71h-56zM879 518l4 55l80 11q8 0 13 5t10 21.5t7 46 t4 78.5l15 453q0 10 -3 16t-16 8l-86 13l-4 55h289l156 -586h18l199 586h288l-4 -55l-84 -13q-23 -2 -22 -24l12 -510q2 -57 10.5 -72.5t20.5 -19.5l80 -13l4 -55h-336l4 55l78 13q14 4 17 21.5t3 70.5l-12 520h-20l-228 -655h-92l-186 659h-21l-16 -467q-2 -49 -2 -77.5 t2 -44t6 -20.5t12 -9l82 -11l2 -55h-284z" />
<glyph unicode="&#x25fc;" horiz-adv-x="952" d="M0 0v952h952v-952h-952z" />
<glyph unicode="&#xfb01;" horiz-adv-x="991" d="M-305 -385q0 45 25.5 73.5t66.5 28.5q49 0 78 -38.5t35 -92.5l120 64q10 23 21.5 63.5t24 93t23.5 110.5t22 114l137 788l-185 8l7 58l192 43q18 104 59 207.5t109 169.5q49 49 128 82.5t165 33.5t136 -42t50 -95q0 -45 -26.5 -76.5t-67.5 -31.5q-49 0 -81 39.5t-42 99.5 l-203 -37q-35 -66 -58 -160t-40 -200h283q45 29 78 28q16 0 39.5 -10t45 -25.5t37 -31t11.5 -27.5l-211 -764l47 -16l184 141l33 -37q-20 -33 -53 -69.5t-70 -67.5t-75 -50.5t-66 -19.5q-16 0 -39 11.5t-42.5 27t-32.5 31.5t-11 24l201 756l-15 6h-360l-117 -645 q-16 -96 -37.5 -186t-46 -168t-53.5 -138.5t-64 -97.5q-45 -47 -102 -70.5t-115 -23.5q-61 0 -103 34t-42 85z" />
<glyph unicode="&#xfb02;" horiz-adv-x="1013" d="M-305 -385q0 45 25.5 73.5t66.5 28.5q49 0 78 -38.5t35 -92.5l125 64q12 23 24 64.5t24.5 94t24 109.5t19.5 113l125 788l-179 8l7 58l192 43q18 104 59 207.5t109 169.5q49 49 128 82.5t165 33.5q35 0 63.5 -8t51.5 -20l157 34l-297 -1333l58 -18l176 137l31 -37 q-20 -33 -53 -69.5t-70 -67.5t-75 -50.5t-67 -19.5q-14 0 -36.5 11.5t-42 27t-34 31.5t-12.5 24l162 762h-360l-117 -645q-16 -96 -37.5 -186t-46 -168t-53.5 -138.5t-64 -97.5q-45 -47 -102 -70.5t-115 -23.5q-61 0 -103 34t-42 85zM391 918h363l65 305q-39 -10 -68.5 16.5 t-39.5 79.5l-215 -35q-39 -66 -63.5 -163t-41.5 -203z" />
<glyph unicode="&#xfb03;" horiz-adv-x="1492" d="M-305 -385q0 45 25.5 73.5t66.5 28.5q49 0 78 -38.5t35 -92.5l120 64q10 23 21.5 63.5t24 93t23.5 110.5t22 114l137 788l-185 8l7 58l192 43q18 104 58 202.5t104 161.5q49 51 110.5 81t145.5 30q82 0 130 -41t48 -92q0 -43 -24.5 -74t-65.5 -31q-47 0 -78 37t-41 96 l-166 -36q-29 -66 -53 -153t-39 -191h371q23 137 62.5 229t107.5 158q49 49 128 82.5t165 33.5t136 -42t50 -95q0 -45 -26.5 -76.5t-67.5 -31.5q-49 0 -81 39.5t-42 99.5l-203 -37q-35 -66 -59.5 -160t-38.5 -200h283q45 29 77 28q16 0 40 -10t45.5 -25.5t37 -31t10.5 -27.5 l-210 -764l47 -16l184 141l33 -37q-20 -33 -53 -69.5t-70 -67.5t-75 -50.5t-66 -19.5q-16 0 -39 11.5t-42.5 27t-32.5 31.5t-11 24l200 756l-14 6h-360l-109 -589q-18 -96 -38.5 -186.5t-45.5 -168.5t-53.5 -138t-63.5 -97q-96 -96 -198 -97q-61 0 -104.5 34t-43.5 87 q0 43 25.5 72t66.5 29q51 0 80 -38t35 -93l107 65q10 23 22 65t24.5 94t24.5 109.5t21 112.5l118 739h-370l-117 -645q-16 -96 -37.5 -186t-46 -168t-53.5 -138.5t-64 -97.5q-45 -47 -102 -70.5t-115 -23.5q-61 0 -103 34t-42 85z" />
<glyph unicode="&#xfb04;" horiz-adv-x="1515" d="M-305 -385q0 45 25.5 73.5t66.5 28.5q49 0 78 -38.5t35 -92.5l120 64q10 23 21.5 63.5t24 93t23.5 110.5t22 114l137 788l-185 8l7 58l192 43q18 104 58 202.5t104 161.5q49 51 110.5 81t145.5 30q82 0 130 -41t48 -92q0 -43 -24.5 -74t-65.5 -31q-47 0 -78 37t-41 96 l-166 -36q-29 -66 -53 -153t-39 -191h371q23 137 62.5 229t107.5 158q49 49 128 82.5t165 33.5q35 0 63.5 -8t50.5 -20l158 34l-297 -1333l57 -18l175 137l32 -37q-20 -33 -53 -69.5t-69.5 -67.5t-74.5 -50.5t-67 -19.5q-14 0 -36.5 11.5t-43 27t-34 31.5t-11.5 24l162 762 h-360l-109 -589q-18 -96 -38.5 -187.5t-45.5 -168.5t-53.5 -137t-63.5 -97q-96 -96 -198 -97q-61 0 -104.5 34t-43.5 87q0 43 25.5 72t66.5 29q51 0 80 -38t35 -93l107 65q10 23 22 65t24.5 94t24.5 109.5t21 112.5l118 739h-370l-117 -645q-16 -96 -37.5 -186t-46 -168 t-53.5 -138.5t-64 -97.5q-45 -47 -102 -70.5t-115 -23.5q-61 0 -103 34t-42 85zM893 918h362l66 305q-39 -10 -68.5 15.5t-40.5 80.5l-215 -35q-39 -66 -64.5 -163t-39.5 -203z" />
</font>
</defs>
</svg>
