<svg xmlns="http://www.w3.org/2000/svg" width="16" height="16" viewBox="-0.415 -0.893 16 16" enable-background="new -0.415 -0.893 16 16"><defs><filter id="Adobe_OpacityMaskFilter" filterUnits="userSpaceOnUse" x="1.249" y="-.423" width="12.672" height="15.061"><feColorMatrix values="1 0 0 0 0 0 1 0 0 0 0 0 1 0 0 0 0 0 1 0"/></filter></defs><path id="Fill-1" d="M7.585 14.128c-3.214 0-5.83-2.635-5.83-5.87 0-3.238 2.616-5.873 5.83-5.873 3.213 0 5.828 2.634 5.828 5.872 0 3.236-2.615 5.87-5.828 5.87M7.078.598c0-.28.23-.51.507-.51s.507.23.507.51-.23.512-.507.512-.507-.23-.507-.512m.76 1.284v-.3c.437-.114.76-.51.76-.984 0-.564-.453-1.02-1.013-1.02-.56 0-1.014.456-1.014 1.02 0 .475.326.87.762.985v.3c-3.376.132-6.083 2.94-6.083 6.374 0 3.52 2.84 6.38 6.335 6.38 3.494 0 6.336-2.86 6.336-6.38 0-3.434-2.706-6.242-6.082-6.375"/><path id="Fill-4" d="M8.59 8.907L6.94 7.243l3.305-1.664L8.59 8.906zm-3.664 2.028l1.652-3.33L8.23 9.27l-3.304 1.665zm5.77-6.156l-4.3 2.166c-.007.002-.01.01-.018.015-.017.012-.03.025-.045.04-.016.016-.028.028-.038.046-.005.008-.01.01-.015.018l-2.152 4.332c-.048.098-.03.217.048.294.048.05.114.074.18.074.038 0 .076-.008.114-.028l4.3-2.167c.008-.004.01-.012.018-.017.018-.01.03-.022.046-.038s.028-.027.038-.046c.006-.01.01-.012.016-.02l2.15-4.33c.05-.098.03-.218-.047-.295-.078-.076-.194-.094-.294-.046z"/></svg>