<svg xmlns="http://www.w3.org/2000/svg" width="653" height="40" viewBox="269.219 312.732 653 40" enable-background="new 269.219 312.732 653 40"><path d="M306.698 350.982h-4.218v-29.678l-10.918 29.182h-3.474l-10.918-29.43v29.926h-4.218v-35.188h6.353l10.62 28.636 10.57-28.636h6.204l-.002 35.188zM358.743 350.982h-4.566l-2.878-8.337h-15.287l-2.83 8.337h-4.466l12.407-35.188h5.16l12.46 35.188zm-8.884-12.506l-6.254-18.263-6.204 18.263h12.457zM406.768 333.364c0 6.52-1.506 11.216-4.516 14.095-2.45 2.35-5.526 3.522-9.23 3.522h-12.26v-35.188h12.26c3.672 0 6.75 1.19 9.23 3.573 3.01 2.848 4.516 7.513 4.516 13.997zm-4.467 0c0-2.415-.188-4.54-.57-6.377-.38-1.836-1.198-3.4-2.456-4.69-1.62-1.62-3.706-2.432-6.254-2.432h-7.84v27.048h7.84c2.548 0 4.633-.81 6.254-2.432 2.018-2.05 3.027-5.756 3.027-11.116zM454.053 350.982H430.53v-35.188h23.523v4.07h-19.106v10.72h16.773v4.168h-16.773v12.16h19.106v4.07zM533.41 341.156c0 2.515-.896 4.715-2.682 6.6-1.984 2.152-4.93 3.227-8.832 3.227h-14.194v-35.187h14.045c3.77 0 6.633 1.076 8.585 3.226 1.52 1.688 2.283 3.64 2.283 5.856 0 1.754-.447 3.35-1.34 4.79-.894 1.438-2.135 2.44-3.723 3 1.787.597 3.208 1.69 4.27 3.276 1.057 1.59 1.587 3.326 1.587 5.212zm-5.31-15.93c0-1.754-.613-3.11-1.837-4.07-1.225-.96-2.73-1.44-4.516-1.44h-9.728v11.068h9.876c1.918 0 3.432-.455 4.54-1.365 1.108-.91 1.663-2.31 1.663-4.195zm.793 15.632c0-1.886-.66-3.39-1.984-4.517-1.325-1.123-2.962-1.686-4.914-1.686h-9.976v12.258h9.877c2.05 0 3.73-.513 5.036-1.54 1.306-1.023 1.96-2.53 1.96-4.514zM580.01 315.796l-11.812 20.894v14.292h-4.467V336.69l-11.81-20.894h4.962l9.23 16.725 9.182-16.724h4.716zM656.835 350.982h-6.7l-2.284-6.75H633.86l-2.283 6.75h-6.45l12.356-35.188h6.998l12.357 35.188zm-10.97-12.506l-5.012-14.84-5.014 14.84h10.026zM704.806 350.982h-6.948l-5.855-13.3h-7.79v13.3h-6.454v-35.188h14.84c3.97 0 6.997 1.05 9.08 3.15 2.085 2.103 3.128 4.69 3.128 7.768 0 2.316-.588 4.36-1.762 6.13-1.176 1.77-2.738 3.02-4.69 3.746l6.45 14.394zm-6.403-24.268c0-1.49-.53-2.746-1.588-3.772-1.062-1.025-2.468-1.54-4.22-1.54h-8.438v10.522h8.537c1.817 0 3.225-.455 4.217-1.365.997-.91 1.493-2.19 1.493-3.846zM751.534 321.75h-10.422v29.232h-6.402v-29.23h-10.422v-5.957h27.246v5.956zM779.073 350.982h-6.502v-35.188h6.503v35.188zM829.57 339.767c-.33 3.176-1.458 5.74-3.376 7.692-2.714 2.778-6.07 4.167-10.074 4.167-4.037 0-7.36-1.307-9.976-3.92-1.754-1.753-2.922-3.747-3.5-5.98-.577-2.233-.866-5.004-.866-8.312s.29-6.08.866-8.313c.578-2.233 1.746-4.226 3.5-5.98 2.646-2.646 5.972-3.97 9.976-3.97 4.07 0 7.428 1.357 10.074 4.07 1.918 1.952 3.045 4.5 3.375 7.642h-6.553c-.133-1.356-.662-2.597-1.588-3.722-1.16-1.455-2.93-2.184-5.312-2.184-2.15 0-3.953.778-5.41 2.333-.76.795-1.332 1.855-1.71 3.177-.382 1.324-.597 2.432-.647 3.325-.048.894-.072 2.102-.072 3.623 0 1.522.024 2.73.073 3.623.053.894.268 2.002.647 3.325.38 1.324.95 2.382 1.71 3.176 1.458 1.555 3.26 2.332 5.41 2.332 2.35 0 4.12-.744 5.312-2.233.925-1.125 1.454-2.416 1.587-3.872h6.552zM874.19 350.982h-22.73v-35.188h6.402v29.132h16.328v6.056zM920.358 350.982h-25.062v-35.188h25.062v5.807h-18.66v8.19h16.428v5.756h-16.428v9.628h18.66v5.808z"/></svg>