<svg xmlns="http://www.w3.org/2000/svg" width="16" height="16" viewBox="0.5 1 16 16" enable-background="new 0.5 1 16 16"><defs><filter id="Adobe_OpacityMaskFilter" filterUnits="userSpaceOnUse" x="1.106" y="1.31" width="10.05" height="12.032"><feColorMatrix values="1 0 0 0 0 0 1 0 0 0 0 0 1 0 0 0 0 0 1 0"/></filter></defs><path id="Fill-1" d="M9.043 6.535c-2.78 2.305-3.67 4.435-3.698 4.508l-.508.988c-.138.27-.317.475-.53.607-.567.355-1.32.314-1.87-.1l-.188-.143c-.73-.55-.892-1.573-.36-2.28.1-.13.3-.318.513-.518.33-.308.702-.66.93-1 .39-.59.798-1.47 1.014-2.188.33-1.1.563-1.673.933-2.277.315-.516.674-.96 1.063-1.31C7.82 1.476 9.055 1.666 9.83 2.06c.088.046.172.097.248.155.248.187.426.427.514.698.562 1.69-1.533 3.606-1.55 3.62m1.993-3.755c-.156-.474-.52-.885-1.002-1.13-.742-.38-2.253-.778-4.015.823-.42.38-.805.855-1.143 1.41-.39.64-.64 1.242-.98 2.383-.2.67-.595 1.522-.96 2.07-.196.296-.55.63-.862.92-.236.222-.443.414-.563.572-.685.91-.48 2.226.46 2.932l.19.144c.706.532 1.67.586 2.403.13.28-.178.516-.44.692-.78l.518-1.007c.01-.02.892-2.124 3.583-4.358.097-.087 2.337-2.13 1.68-4.11"/><path id="Fill-4" d="M9.494 3.205c.076-.1.053-.248-.05-.327-.106-.078-.253-.06-.33.04L8.68 3.5c-.31-.15-.855-.317-1.49-.118-1.087.34-1.956 1.586-2.58 3.708-.027.097.01.197.088.255.02.016.046.03.072.038.124.04.255-.027.29-.15.72-2.447 1.634-3.2 2.273-3.405.744-.235 1.328.184 1.35.2.345.262.51.55.5.875-.026.955-1.51 2.075-2.082 2.425-.11.067-.14.21-.068.32s.215.143.324.077c.093-.057 2.257-1.402 2.294-2.798.014-.438-.18-.83-.572-1.167l.418-.555z"/><defs><filter id="Adobe_OpacityMaskFilter_1_" filterUnits="userSpaceOnUse" x="5.551" y="4.784" width="10.343" height="11.905"><feColorMatrix values="1 0 0 0 0 0 1 0 0 0 0 0 1 0 0 0 0 0 1 0"/></filter></defs><path id="Fill-6" d="M13.988 10.696c-.48.522-.965.904-1.93 1.524-.633.404-1.367 1.04-1.824 1.58-.266.31-.5.766-.707 1.168-.133.258-.256.503-.355.634-.533.707-1.56.835-2.29.285l-.19-.144c-.55-.415-.797-1.126-.61-1.77.067-.24.22-.474.436-.678l.795-.748c.076-.062 1.88-1.502 3.325-4.8.012-.026 1.27-2.57 3.06-2.497.284.01.563.116.81.303.08.06.15.124.216.194.594.637 1.12 1.773.236 3.564-.235.477-.562.94-.972 1.386m1.393-1.17c1.054-2.132.253-3.476-.317-4.087-.365-.396-.863-.633-1.36-.654-2.083-.086-3.433 2.632-3.49 2.756-1.403 3.196-3.18 4.623-3.213 4.65l-.81.76c-.28.263-.468.56-.562.88-.235.827.08 1.743.787 2.275l.19.143c.937.708 2.26.543 2.943-.366.12-.16.25-.41.396-.698.195-.382.416-.812.648-1.084.428-.5 1.135-1.113 1.723-1.492 1.002-.642 1.512-1.045 2.02-1.6.442-.47.794-.97 1.046-1.483"/><path id="Fill-9" d="M13.66 7.254l.438-.58c.076-.102.053-.25-.05-.327-.106-.08-.253-.06-.33.04l-.417.556c-.43-.284-.854-.36-1.272-.223-1.316.43-1.977 2.918-2.004 3.025-.03.124.045.253.168.29.125.033.254-.04.287-.16.17-.656.808-2.418 1.706-2.71.307-.1.62-.022.963.236.005.006.616.48.597 1.297-.02.97-.926 2.048-2.615 3.12-.107.067-.137.21-.062.318.014.023.033.043.055.06.078.06.184.066.27.013 1.848-1.173 2.797-2.344 2.824-3.488.012-.7-.32-1.2-.56-1.466"/></svg>