<svg xmlns="http://www.w3.org/2000/svg" width="17" height="17" viewBox="0 0 17 17"><path id="Fill-1" d="M8.863 3.967c.78 0 1.415.635 1.415 1.417S9.643 6.8 8.863 6.8 7.45 6.167 7.45 5.384c0-.78.636-1.416 1.413-1.416m0 3.4c1.092 0 1.98-.89 1.98-1.983S9.954 3.4 8.862 3.4c-1.09 0-1.98.89-1.98 1.983s.89 1.984 1.98 1.984"/><path id="Fill-3" d="M5.38 1.992C6.3 1.074 7.52.567 8.817.567c1.297 0 2.516.507 3.434 1.425 1.71 1.714 1.92 4.94.443 6.914l-3.88 5.61-3.882-5.62c-1.47-1.963-1.26-5.19.45-6.904zm3.436 13.524l4.336-6.28c1.625-2.17 1.392-5.744-.504-7.643C11.623.567 10.263 0 8.816 0c-1.448 0-2.81.567-3.833 1.592-1.895 1.9-2.133 5.47-.51 7.637l4.343 6.286z"/><path id="Fill-6" d="M.283 16.316l-.2.2c-.11.11-.11.29 0 .4.056.057.127.084.2.084.074 0 .145-.027.2-.082l.2-.2c.11-.112.11-.29 0-.4-.11-.11-.29-.11-.4-.002"/><path id="Fill-8" d="M2.438 14.732c-.155 0-.283.13-.283.283 0 .155.127.284.283.284h.515c.155 0 .283-.13.283-.283 0-.156-.127-.283-.283-.283h-.515v-.002z"/><path id="Fill-10" d="M1.776 15.22c-.11-.108-.288-.108-.398 0l-.365.366c-.11.11-.11.29 0 .4.057.057.127.082.2.082.075 0 .145-.03.202-.082l.365-.366c.106-.106.106-.286-.004-.4"/><path id="Fill-12" d="M5.525 14.732c-.156 0-.283.13-.283.283 0 .155.127.284.283.284h.514c.155 0 .282-.13.282-.283 0-.156-.127-.283-.283-.283h-.515v-.002z"/><path id="Fill-14" d="M3.98 14.732c-.154 0-.282.13-.282.283 0 .155.128.284.283.284h.516c.156 0 .283-.13.283-.283 0-.156-.128-.283-.284-.283H3.98v-.002z"/><path id="Fill-16" d="M7.068 14.732c-.156 0-.283.13-.283.283 0 .155.128.284.283.284h.283c.156 0 .284-.13.284-.283 0-.156-.127-.283-.283-.283H7.07v-.002z"/><path id="Fill-18" d="M16.48 13.8c.072 0 .144-.026.2-.08l.2-.202c.11-.11.11-.29 0-.398-.11-.11-.29-.11-.397 0l-.2.197c-.11.11-.11.29 0 .4.053.056.125.084.196.084"/><path id="Fill-20" d="M11.668 14.732c-.156 0-.283.13-.283.283 0 .155.127.283.283.283h.602c.156 0 .283-.128.283-.283 0-.154-.127-.283-.283-.283h-.602z"/><path id="Fill-22" d="M13.477 14.732c-.153 0-.28.13-.28.283 0 .155.127.283.28.283h.604c.155 0 .282-.128.282-.283 0-.154-.127-.283-.28-.283h-.605z"/><path id="Fill-24" d="M15.428 14.172L15 14.6c-.11.11-.11.29 0 .4.06.057.128.082.2.082.075 0 .146-.027.202-.082l.427-.428c.11-.11.11-.29 0-.4-.11-.11-.292-.11-.402 0"/><path id="Fill-26" d="M10.178 14.732c-.154 0-.28.13-.28.283 0 .155.126.283.28.283h.283c.156 0 .283-.128.283-.283 0-.154-.127-.283-.282-.283h-.282z"/></svg>