<svg xmlns="http://www.w3.org/2000/svg" width="15" height="17" viewBox="0 0 15 17"><title>Page 1</title><desc>Created with Sketch.</desc><g id="Page-1"><path id="Fill-1" d="M8.146 7.45c.086-.18.006-.394-.18-.48-.183-.085-.404-.008-.493.17-.022.045-.562 1.09-2.31 1.09-1.75 0-2.29-1.045-2.31-1.086-.087-.182-.308-.26-.495-.177s-.267.3-.18.482c.028.06.74 1.507 2.983 1.507 2.244 0 2.957-1.446 2.986-1.507"/><path id="Fill-3" d="M6.193 4.498h1.615c.205 0 .372-.163.372-.363 0-.2-.167-.363-.372-.363H6.193c-.205 0-.372.163-.372.363.002.2.168.363.373.363"/><path id="Fill-5" d="M2.515 4.498H4.13c.206 0 .372-.163.372-.363 0-.2-.167-.363-.372-.363H2.515c-.206 0-.372.163-.372.363 0 .2.167.363.372.363"/><path id="Fill-7" d="M9.827 10.842c-2.242 0-2.955 1.447-2.984 1.51-.086.18-.006.393.18.478.183.085.404.008.494-.17.022-.045.562-1.092 2.312-1.092 1.747 0 2.286 1.047 2.308 1.088.062.133.197.21.338.21.052 0 .105-.01.156-.033.186-.085.267-.3.18-.482-.03-.06-.743-1.508-2.985-1.508"/><path id="Fill-9" d="M14.245 9.71c0 3.137-1.486 5.048-4.418 5.68-2.332-.503-3.747-1.817-4.23-3.913l.006-.002c.062-.016.125-.032.188-.05l.026-.007.182-.053.03-.01.18-.057.032-.012c.06-.02.12-.04.18-.062.01-.004.02-.008.03-.01l.184-.072.02-.008c.064-.026.128-.053.192-.082 0 0 .003 0 .004-.002.756-.334 1.483-.818 2.074-1.515h.002c.807-.952 1.36-2.3 1.395-4.206v-.006h3.926V9.71zM.745 5.074V.732H9.58V5.112c0 .06-.004.117-.005.176-.044 2.37-.962 4.02-2.737 4.92 0 0 0 .002-.002.002-.135.068-.275.133-.42.192l-.007.003c-.146.06-.295.115-.45.166l-.007.002c-.155.05-.315.098-.48.14-.103.027-.203.056-.31.078-.14-.03-.272-.065-.405-.1-.013-.005-.026-.007-.038-.01C2.082 9.958.744 8.088.744 5.112zm13.872-.55h-4.293V.368c0-.2-.167-.363-.372-.363H.372C.167.005 0 .167 0 .368v4.746c0 4.274 2.576 5.82 4.84 6.353.644 3.06 2.938 4.205 4.91 4.61.025.007.052.01.077.01s.052-.003.077-.01c2.318-.477 5.084-1.977 5.084-6.407V4.925c0-.2-.166-.363-.37-.363z"/><path id="Fill-12" d="M10.858 9.055h1.615c.205 0 .372-.162.372-.362 0-.2-.166-.363-.372-.363h-1.615c-.206 0-.372.162-.372.363 0 .2.166.362.372.362"/></g></svg>