<svg xmlns="http://www.w3.org/2000/svg" width="13" height="16" viewBox="0 0 13 16"><title>Page 1</title><desc>Created with Sketch.</desc><path id="Fill-1" d="M11.213 10.215c-.55 1.12-1.412 2.007-2.462 2.584.078-.13.147-.263.204-.403.86-2.12.858-4.436.028-6.518.81-.493 1.523-.997 1.878-1.625 1.144 1.766 1.292 4.047.353 5.96m-4.163 3.19c-1.086-1.327-1.123-2.743-1.154-4.038-.037-1.528-.072-2.97-1.85-3.74-.16-.07-.34.005-.408.165s.006.345.163.413c1.412.61 1.44 1.688 1.475 3.178.03 1.26.066 2.72 1.054 4.114-.074-.003-.147-.005-.22-.016-5.215-.713-4.99-4.434-4.773-8.03.103-1.7.2-3.317-.41-4.366 2.87-.05 5.56 1.496 6.99 4.007 1.237 2.17 1.405 4.746.463 7.066-.252.62-.735 1.064-1.33 1.25m3.962-10.01c-.078-.096-.204-.138-.322-.105-.12.033-.208.133-.227.256C10.36 4.2 9.625 4.75 8.73 5.3c-.086-.177-.176-.35-.274-.523C6.938 2.11 4.104.454 1.062.454.802.454.54.466.282.49.16.502.056.585.016.704-.024.822.01.952.1 1.036c.834.77.73 2.522.617 4.375-.212 3.522-.477 7.903 5.31 8.695.128.018.257.026.385.026.14 0 .277-.01.412-.03.487.52 1.13 1.02 1.98 1.495.05.025.1.04.15.04.11 0 .216-.062.272-.165.082-.152.027-.344-.123-.428-.632-.35-1.135-.717-1.54-1.094 1.834-.48 3.353-1.722 4.204-3.454 1.133-2.303.837-5.09-.755-7.097"/></svg>