<svg xmlns="http://www.w3.org/2000/svg" width="12" height="8" viewBox="0 0 12 8"><path id="Fill-1" d="M11.742 2.128c-.37.2-4.912 2.657-5.14 2.778-.225.123-.383.14-.602.14s-.377-.017-.604-.14C5.17 4.786.628 2.328.258 2.128c-.26-.14-.258.024-.258.15v5.06C0 7.63.373 8 .66 8h10.68c.288 0 .66-.372.66-.66V2.28c0-.128.002-.292-.258-.152M.396.748c.325.182 4.832 2.687 5 2.78.167.093.385.138.604.138s.437-.045.604-.138c.168-.093 4.675-2.598 5-2.78.326-.18.634-.748.036-.748H.36c-.597 0-.29.568.036.75"/></svg>