<svg xmlns="http://www.w3.org/2000/svg" width="100" height="95.367" viewBox="0 0 100 95.367"><g stroke="#010101" stroke-miterlimit="10"><path fill="#fff" d="M3.5 8.84h6v82h-6z"/><circle fill="#fff" cx="6.147" cy="5.628" r="4.955"/><path stroke-linecap="round" fill="none" d="M1 16.84h11"/><path stroke-linecap="round" stroke-linejoin="round" fill="none" d="M9.486 90.75l4.36 4.09H.18l4.112-3.966"/><path d="M49.34 43.936c-13.925 0-31.133-10.615-36.824-22.718-.443-.94-.038-2.062.902-2.506.946-.443 2.065-.04 2.507.903 4.562 9.702 19.822 20.553 33.414 20.553 13.384 0 28.105-10.674 33.458-20.643.493-.917 1.635-1.258 2.552-.77.915.493 1.26 1.635.768 2.552-5.868 10.928-22.046 22.63-36.78 22.63z" fill="none"/><ellipse transform="matrix(.758 .652 -.652 .758 32.111 -51.583)" cx="85.624" cy="17.516" rx=".959" ry="1.859" fill="none"/><ellipse transform="matrix(-.758 .652 -.652 -.758 33.374 22.652)" cx="12.486" cy="17.516" rx=".958" ry="1.86" fill="none"/><path fill="none" d="M16.898 27.102l3.177-2.246M79.63 24.856l3.107 2.246M5 68.84h5"/><path fill="#fff" d="M90.5 8.84h4v82h-4z"/><circle fill="#fff" cx="92.116" cy="5.628" r="4.955"/><path stroke-linecap="round" fill="none" d="M87 16.84h12"/><path stroke-linecap="round" stroke-linejoin="round" fill="none" d="M95.456 90.75l4.358 4.09H86.147l4.115-3.966"/><path fill="none" d="M91 68.84h5"/></g></svg>