<svg xmlns="http://www.w3.org/2000/svg" width="19" height="11" viewBox="0 0 19 11"><path id="Fill-1" d="M14.342 9.903c-.05-.816-.307-1.6-.73-2.25.423-.23.89-.358 1.392-.358 1.486 0 2.73 1.142 2.89 2.608h-3.552zm-9.014 0c.16-2.186 1.986-3.914 4.184-3.914 2.198 0 4.02 1.728 4.184 3.91H5.328v.003zm2.245-6.686c0-.995.824-2.12 1.938-2.12 1.115 0 1.94 1.125 1.94 2.12s-.824 2.12-1.94 2.12c-1.113 0-1.937-1.125-1.937-2.12zm6.138 1.957c0-.685.567-1.467 1.294-1.467s1.292.783 1.292 1.467c0 .685-.565 1.468-1.292 1.468S13.71 5.86 13.71 5.174zm2.456 1.663c.47-.39.775-1.01.775-1.663 0-1.125-.903-2.12-1.937-2.12s-1.938.995-1.938 2.12c0 .652.308 1.272.775 1.663-.21.082-.404.163-.598.277-.613-.733-1.422-1.305-2.357-1.58.71-.506 1.21-1.37 1.21-2.316 0-1.483-1.21-2.77-2.583-2.77-1.373 0-2.585 1.287-2.585 2.77 0 .946.5 1.81 1.212 2.315-2.004.604-3.474 2.48-3.474 4.695 0 .18.146.326.323.326h13.245c.18 0 .322-.146.322-.326 0-1.565-1-2.903-2.39-3.39z"/><path id="Fill-4" d="M1.105 9.903c.162-1.47 1.406-2.608 2.892-2.608.5 0 .97.13 1.39.358-.42.65-.68 1.435-.728 2.25H1.104zm4.2 0C5.465 7.718 7.292 5.99 9.49 5.99c2.195 0 4.02 1.73 4.184 3.913h-8.37zM9.49 5.337c-1.116 0-1.94-1.125-1.94-2.12s.825-2.12 1.94-2.12c1.113 0 1.937 1.125 1.937 2.12s-.823 2.12-1.938 2.12zM3.997 6.642c-.727 0-1.292-.782-1.292-1.468 0-.685.565-1.467 1.292-1.467S5.29 4.49 5.29 5.174s-.565 1.468-1.292 1.468zM.443 10.228c0 .18.146.326.323.326H14.01c.18 0 .323-.146.323-.326 0-2.217-1.47-4.092-3.473-4.694.71-.505 1.212-1.37 1.212-2.315 0-1.484-1.212-2.772-2.585-2.772s-2.583 1.286-2.583 2.77c0 .945.5 1.81 1.21 2.314-.935.278-1.742.85-2.357 1.582C5.564 7 5.37 6.92 5.16 6.837c.468-.39.775-1.01.775-1.663 0-1.125-.905-2.12-1.938-2.12S2.06 4.05 2.06 5.174c0 .652.306 1.272.774 1.663-1.39.488-2.39 1.826-2.39 3.39z"/></svg>