<svg xmlns="http://www.w3.org/2000/svg" width="18" height="18" viewBox="0 0 18 18"><path d="M10.02 17.223c-4.686 0-8.97-.317-9.012-.32l-.23-.018v-.232c0-2.27 3.615-4.047 8.232-4.047 4.617 0 8.234 1.777 8.234 4.047v.224l-.222.023c-1.89.214-4.245.323-7 .323zm-8.726-.802c.978.067 4.704.303 8.728.303 2.622 0 4.877-.1 6.707-.293-.262-1.823-3.69-3.324-7.72-3.324-4.022 0-7.446 1.495-7.716 3.315z" id="Stroke-1"/><path d="M3.902 14l-.06-.284c-.26-1.235-.25-2.713.032-4.16.25-1.295 1.086-2.884 2.072-4.003-1.71.177-3.428.707-3.378 1.727.01.188.043.375.102.573l-.437.224c-.37-.48-.58-1.056-.61-1.666-.04-.796.234-1.56.77-2.153.538-.592 1.272-.94 2.07-.98.16-.007.316-.004.47.01-.91-.686-1.72-.83-2.315-.347-.146.12-.277.258-.4.423l-.44-.22c.168-.58.505-1.093.975-1.48.533-.436 1.206-.677 1.895-.677.9 0 1.744.398 2.313 1.093.07.084.134.17.192.26 0-.42-.088-.825-.4-1.136l.264-.412c.064.023 1.416.533 1.65 1.634.132-.034.27-.05.415-.05.825 0 1.58.568 1.724.682l-.12.155-.096.286c-.26-.07-.53-.04-.782.053 1.555.26 2.655 1.698 2.478 3.282-.068.603-.314 1.165-.71 1.623l-.425-.25c.07-.193.116-.383.136-.565.056-.495-.18-.9-.385-1.15-.23-.283-.54-.525-.898-.71.03.035.06.07.088.108.995 1.313.737 3.193-.575 4.19-.485.368-1.06.577-1.666.606l-.112-.48c.186-.08.35-.175.506-.29.685-.522.214-1.996-1.293-4.064-1.04 1.627-1.468 3.785-1.178 5.983.053.4.163.804.336 1.23l.113.28-.294.06c-.627.127-1.216.293-1.75.493L3.9 14zm2.494-8.2c-.964 1.055-1.788 2.6-2.03 3.85-.247 1.274-.277 2.568-.088 3.68.397-.136.82-.254 1.26-.354-.128-.367-.215-.72-.262-1.076-.292-2.218.115-4.404 1.12-6.1zm.66-.646l.085.114C8.307 6.813 9.465 8.77 8.91 9.882c.104-.06.206-.125.303-.198 1.093-.83 1.308-2.396.48-3.49-.283-.37-.66-.653-1.09-.816l.11-.483c1.017.09 2.003.582 2.575 1.28.226.276.378.572.452.877.02-.09.036-.18.047-.273.152-1.365-.834-2.6-2.198-2.753-.23-.027-.456-.022-.674.015l-.183-.452c.31-.216.66-.443 1.052-.557-.38-.16-.862-.223-1.22-.037l-.372.192.006-.417c.006-.472-.3-.836-.622-1.088.132.512.063 1.06.004 1.534l-.02.156-.49.027c-.088-.37-.255-.707-.497-1.004-.474-.58-1.177-.91-1.927-.91-.573 0-1.133.2-1.577.564-.07.06-.14.122-.204.188.174-.058.358-.087.55-.087 1.083 0 2.123.933 2.647 1.49l-.295.393c-.38-.192-.822-.278-1.28-.256-.665.033-1.277.323-1.724.816s-.674 1.13-.64 1.794c.005.115.018.23.04.34.56-1.4 3.447-1.673 4.408-1.724l.686-.037-.203.188z" id="Stroke-3"/></svg>