<svg xmlns="http://www.w3.org/2000/svg" width="14" height="14" viewBox="0 0 14 14"><path id="Fill-1" d="M12.57 11.16c0 .716-.568 1.3-1.268 1.3H3.19c-.7 0-1.268-.584-1.268-1.3V5.615h1.974c-.17.43-.266.898-.266 1.39 0 2.04 1.622 3.705 3.616 3.705s3.616-1.663 3.616-3.706c0-.492-.097-.96-.267-1.39h1.975v5.546zM5.36 5.615c.423-.602 1.11-.995 1.886-.995.776 0 1.464.394 1.887.995.277.392.44.87.44 1.39 0 1.316-1.044 2.384-2.327 2.384S4.92 8.32 4.92 7.003c0-.518.163-.998.44-1.39zm6.675-3.823h.293v2.296l-2.234.007-.008-2.296 1.95-.008zm-.732-1.56H3.19C1.78.23.633 1.404.633 2.848v8.31c0 1.444 1.147 2.618 2.557 2.618h8.112c1.41 0 2.555-1.174 2.555-2.618V2.85c0-1.445-1.145-2.62-2.554-2.62z"/></svg>