<svg xmlns="http://www.w3.org/2000/svg" width="362.36" height="314.021" viewBox="273.82 109.5 362.36 314.021" enable-background="new 273.82 109.5 362.36 314.021"><path d="M603.7 197.658H394.457c-17.91 0-32.48 14.573-32.48 32.48V391.04c0 17.908 14.57 32.48 32.48 32.48H603.7c17.91 0 32.48-14.572 32.48-32.48V230.14c0-17.907-14.574-32.48-32.48-32.48zm12.32 193.383c0 6.793-5.527 12.32-12.32 12.32H394.458c-6.79 0-12.32-5.527-12.32-12.32V230.14c0-6.792 5.53-12.32 12.32-12.32H603.7c6.792 0 12.32 5.528 12.32 12.32V391.04zM293.98 302.88v-160.9c0-6.792 5.524-12.32 12.32-12.32h209.243c6.796 0 12.32 5.528 12.32 12.32v29.613h20.16V141.98c0-17.906-14.57-32.48-32.48-32.48H306.3c-17.91 0-32.48 14.574-32.48 32.48v160.9c0 17.91 14.57 32.48 32.48 32.48h22.71V315.2H306.3c-6.792 0-12.32-5.524-12.32-12.32z"/></svg>