<svg xmlns="http://www.w3.org/2000/svg" width="126.333" height="12.583" viewBox="0 0 126.333 12.583"><g fill="#0F3D8B"><path d="M.752 11.93c-.236-.107-.255-.16-.255-.567 0-.745.08-1.35.098-1.596 0-.16.04-.25.138-.25s.158.054.158.178 0 .337.06.552c.275 1.1 1.576 1.49 2.738 1.49 1.716 0 2.602-.87 2.602-2.007 0-1.082-.65-1.597-2.188-2.625l-.79-.53c-1.87-1.26-2.48-2.182-2.48-3.23C.83 1.575 2.388.51 4.673.51c.69 0 1.38.087 1.793.175.335.07.473.07.61.07.14 0 .178.022.178.107 0 .072-.08.568-.08 1.598 0 .23-.02.337-.137.337-.12 0-.14-.07-.158-.196-.02-.177-.157-.583-.256-.744-.117-.177-.69-.745-2.246-.745-1.26 0-2.305.57-2.305 1.634 0 .957.53 1.508 2.246 2.554l.492.302C6.92 6.893 7.65 7.94 7.65 9.234c0 .886-.375 1.845-1.617 2.572-.73.425-1.812.53-2.76.53-.806 0-1.812-.105-2.52-.407"/><path d="M25.12 10.192c.06.53.178 1.35.886 1.56.493.144.947.144 1.124.144.08 0 .138.035.138.105 0 .09-.157.145-.355.145-.394 0-2.325-.035-2.954-.09-.417-.034-.495-.09-.495-.16 0-.052.04-.104.118-.124.1-.017.12-.247.08-.53l-.83-7.626h-.038l-4.178 7.697c-.354.656-.453.8-.61.8-.16 0-.256-.144-.59-.692-.455-.744-1.598-2.678-2.03-3.494-.513-.955-1.912-3.492-2.208-4.112h-.08l-.67 6.81c-.02.23-.02.516-.02.762 0 .23.158.373.415.428.296.07.55.088.67.088.058 0 .137.055.137.105 0 .107-.118.144-.315.144-.65 0-1.478-.055-1.617-.055-.157 0-.984.054-1.458.054-.177 0-.294-.036-.294-.145 0-.053.078-.105.176-.105.138 0 .256-.018.513-.053.57-.09.59-.64.67-1.206L12.567.8c.02-.16.1-.268.198-.268.12 0 .256.053.356.23l5.242 9.363L23.407.78c.08-.143.157-.25.276-.25.118 0 .216.124.256.41l1.18 9.252zM36.554 7.32c.078 0 .078-.034.058-.108L34.897 3.08c-.097-.23-.196-.23-.295 0l-1.616 4.13c-.02.075 0 .108.06.108h3.508zM34.622 1.04c.217-.497.295-.586.414-.586.176 0 .236.213.414.55.315.638 3.093 6.862 4.157 9.15.63 1.347 1.104 1.544 1.477 1.65.257.07.513.087.69.087.1 0 .217.035.217.125s-.195.124-.393.124c-.256 0-1.537 0-2.738-.035-.337-.02-.613-.02-.613-.108 0-.07.04-.07.12-.105.096-.035.274-.158.155-.406l-1.556-3.46c-.04-.07-.06-.09-.158-.09h-4c-.08 0-.14.036-.178.125l-.986 2.412c-.157.372-.256.745-.256 1.012 0 .3.296.405.592.405h.158c.137 0 .177.054.177.125 0 .09-.098.124-.256.124-.415 0-1.36-.055-1.557-.055-.178 0-1.044.054-1.754.054-.217 0-.336-.035-.336-.124 0-.07.08-.125.158-.125.12 0 .375-.02.512-.035.79-.09 1.124-.62 1.458-1.383l4.08-9.435zM93.586 8.223c0-.814-.116-1.118-.373-1.543-.137-.23-2.48-3.583-3.07-4.38-.417-.566-.83-.904-1.145-1.1-.258-.143-.59-.213-.73-.213-.098 0-.178-.07-.178-.143 0-.068.06-.104.218-.104.334 0 1.635.037 1.715.037.12 0 .826-.037 1.496-.037.195 0 .234.037.234.104 0 .053-.116.107-.273.16-.138.053-.216.123-.216.248 0 .213.117.39.234.586l3.152 4.7c.355-.64 2.523-3.867 2.84-4.363.215-.337.293-.585.293-.78 0-.213-.078-.338-.275-.392-.155-.034-.254-.106-.254-.176 0-.052.1-.09.275-.09.45 0 1.06.038 1.2.038.118 0 1.36-.037 1.695-.037.115 0 .217.037.217.09 0 .068-.08.158-.217.158-.197 0-.534.054-.81.195-.335.18-.49.34-.868.745-.57.604-3.014 4.15-3.37 4.79-.294.53-.214 1.01-.214 1.506v1.295c0 .25 0 .887.058 1.508.04.442.158.728.672.798.236.037.632.072.79.072.097 0 .136.07.136.125 0 .07-.1.124-.277.124-.962 0-2.085-.054-2.184-.054-.08 0-1.185.055-1.694.055-.197 0-.277-.034-.277-.123 0-.056.04-.125.14-.125.158 0 .355-.035.515-.07.353-.07.47-.355.512-.8.037-.62.037-1.257.037-1.507V8.223h-.004zM103.736 5.103c0-2.342 0-2.768-.04-3.247-.04-.513-.138-.76-.708-.833-.138-.02-.433-.035-.592-.035-.06 0-.138-.07-.138-.125 0-.086.078-.123.277-.123.785 0 1.91.037 2.008.037.117 0 3.744.017 4.14 0 .335-.02.645-.072.787-.092.08-.016.16-.07.237-.07.06 0 .078.07.078.143 0 .105-.1.284-.14.71-.02.142-.058.813-.1.993-.02.07-.077.16-.156.16-.1 0-.14-.07-.14-.196 0-.105-.02-.354-.098-.53-.118-.25-.297-.356-1.243-.462-.296-.035-2.306-.054-2.5-.054-.08 0-.1.054-.1.16v4.097c0 .106 0 .16.1.16.216 0 2.5 0 2.895-.037.413-.035.668-.052.847-.213.117-.105.195-.195.255-.195s.098.037.098.125c0 .09-.098.338-.137.833-.04.302-.078.87-.078.978 0 .123-.04.283-.158.283-.08 0-.116-.054-.116-.144 0-.143 0-.3-.08-.497-.06-.213-.216-.39-.888-.46-.473-.054-2.322-.072-2.62-.072-.1 0-.117.052-.117.106v1.26c0 .513-.02 2.27 0 2.57.04 1.012.355 1.205 2.068 1.205.455 0 1.28 0 1.733-.16.456-.177.692-.444.79-1.046.04-.178.08-.23.18-.23s.116.124.116.23c0 .105-.14 1.135-.236 1.453-.116.393-.295.393-.965.393-1.3 0-2.307-.037-3.017-.055-.728-.035-1.183-.035-1.438-.035-.04 0-.373 0-.746.02-.336.016-.73.033-1.006.033-.18 0-.275-.034-.275-.123 0-.055.04-.125.138-.125.158 0 .375-.053.533-.07.335-.055.373-.354.45-.8.1-.618.1-1.808.1-3.26l.003-2.662zM115.57 6.378c0 .09.038.14.118.195.255.125 1.145.23 1.91.23.415 0 .887-.018 1.302-.266.59-.354 1.043-1.152 1.043-2.305 0-1.88-1.142-2.963-2.996-2.963-.51 0-1.063.053-1.24.09-.08.034-.138.087-.138.175v4.843zm-1.5-1.275c0-2.342 0-2.768-.038-3.247-.04-.513-.14-.76-.707-.833-.14-.02-.435-.035-.594-.035-.06 0-.138-.07-.138-.125 0-.086.078-.123.275-.123.79 0 1.95.037 2.05.037.18 0 1.636-.037 2.17-.037 1.102 0 2.323.09 3.228.656.435.283 1.202 1.01 1.202 2.058 0 1.116-.512 2.2-2.128 3.44 1.418 1.597 2.62 2.96 3.625 3.9.927.852 1.498.993 1.934 1.046.33.054.51.054.607.054.1 0 .157.07.157.125 0 .088-.098.122-.412.122h-1.086c-.984 0-1.416-.088-1.852-.302-.75-.354-1.38-1.082-2.363-2.217-.73-.814-1.5-1.79-1.87-2.2-.08-.068-.12-.087-.237-.087l-2.207-.035c-.08 0-.12.036-.12.124v.356c0 1.453 0 2.624.08 3.244.06.443.157.727.69.798.234.036.607.07.768.07.12 0 .138.07.138.126 0 .07-.078.123-.275.123-.943 0-2.05-.052-2.13-.052-.02 0-1.18.053-1.712.053-.18 0-.275-.033-.275-.122 0-.055.04-.125.138-.125.155 0 .374-.035.53-.07.337-.072.374-.355.453-.8.1-.62.1-1.808.1-3.26v-2.66zM70.68 5.103c0-2.342 0-2.768-.038-3.247-.04-.513-.14-.76-.71-.833-.14-.02-.434-.035-.592-.035-.06 0-.14-.07-.14-.125 0-.086.08-.123.277-.123.787 0 1.87.037 1.97.037.336 0 4.1.017 4.493 0 .335-.02.63-.02.788-.072.098-.02.178-.09.234-.09.08 0 .12.07.12.143 0 .105-.08.284-.14.71-.018.142-.04.813-.078.993-.02.07-.078.16-.156.16-.08 0-.14-.07-.14-.178 0-.124-.06-.373-.155-.567-.097-.195-.513-.443-1.183-.443l-2.837-.035c-.098 0-.14.035-.14.16V5.67c0 .088 0 .143.12.143l2.364-.018c.296 0 .552 0 .788-.018.413-.036.648-.09.81-.268.077-.09.155-.16.214-.16.08 0 .1.052.1.124 0 .09-.118.338-.16.833-.04.302-.06.904-.06 1.013 0 .142-.037.302-.155.302-.1 0-.118-.072-.118-.143-.02-.16-.04-.375-.117-.552-.08-.212-.356-.41-.888-.48-.435-.05-2.483-.032-2.778-.032-.1 0-.117.033-.117.14v1.208c0 1.488 0 2.677.078 3.262.06.443.156.727.63.8.257.034.632.07.79.07.1 0 .137.07.137.124 0 .07-.077.123-.275.123-.967 0-2.09-.053-2.168-.053-.1 0-1.184.053-1.716.053-.178 0-.275-.034-.275-.123 0-.055.04-.125.138-.125.158 0 .375-.053.53-.07.337-.055.376-.354.456-.8.098-.618.098-1.808.098-3.26V5.102h-.002zM83.05 7.797c0 2.216.04 3.12.355 3.388.276.248.945.354 2.307.354.904 0 1.674-.02 2.088-.464.218-.23.354-.55.412-.85.02-.107.082-.195.18-.195.078 0 .115.072.115.23 0 .162-.116 1.064-.254 1.508-.117.355-.178.41-1.103.41-1.24 0-2.21-.02-3.017-.055-.788-.018-1.38-.035-1.89-.035-.083 0-.376 0-.712.02-.354.016-.728.034-1.005.034-.177 0-.275-.035-.275-.124 0-.055.04-.125.14-.125.155 0 .375-.035.532-.07.334-.072.373-.355.453-.8.1-.62.1-1.808.1-3.26v-2.66c0-2.344 0-2.77-.04-3.248-.04-.513-.14-.76-.71-.833-.14-.02-.436-.035-.59-.035-.06 0-.14-.07-.14-.125 0-.086.08-.123.275-.123.79 0 1.87.036 1.974.036.074 0 1.377-.037 1.908-.037.178 0 .276.036.276.122 0 .054-.08.107-.138.107-.117 0-.377.017-.574.033-.512.09-.61.32-.65.852-.018.48-.018.904-.018 3.247v2.695h.003zM61.934 7.763c0 1.454 0 2.642.08 3.262.057.444.136.728.668.798.236.036.63.07.79.07.117 0 .137.07.137.126 0 .068-.08.123-.277.123-.945 0-2.05-.055-2.147-.055-.08 0-1.28.055-1.794.055-.197 0-.276-.035-.276-.124 0-.057.04-.107.14-.107.157 0 .353-.035.512-.07.354-.072.452-.372.51-.816.08-.62.08-1.81.08-3.262V1.43l-2.5.036c-1.085.018-1.5.125-1.756.478-.196.27-.216.374-.274.48-.04.124-.1.142-.178.142-.04 0-.118-.035-.118-.125 0-.16.355-1.505.375-1.63.04-.09.118-.283.176-.283.12 0 .296.123.768.178.496.052 1.165.072 1.36.072h6.543c.574 0 .97-.037 1.244-.072.254-.036.414-.07.49-.07.08 0 .08.087.08.175 0 .462-.06 1.544-.06 1.722 0 .123-.078.195-.157.195s-.12-.055-.14-.267l-.022-.16c-.06-.46-.434-.797-2.088-.834l-2.167-.035v6.333zM46.285 6.378c0 .09.04.14.12.195.254.125 1.14.23 1.91.23.413 0 .885-.018 1.3-.266.59-.354 1.045-1.152 1.045-2.305 0-1.88-1.144-2.963-2.997-2.963-.51 0-1.064.053-1.24.09-.08.034-.138.087-.138.175v4.843zm-1.497-1.275c0-2.342 0-2.768-.04-3.247-.04-.513-.138-.76-.71-.833-.137-.02-.432-.035-.59-.035-.058 0-.14-.07-.14-.125 0-.086.083-.123.277-.123.79 0 1.95.037 2.05.037.176 0 1.636-.037 2.167-.037 1.104 0 2.326.09 3.23.656.435.283 1.203 1.01 1.203 2.058 0 1.116-.512 2.2-2.127 3.44 1.418 1.597 2.62 2.96 3.625 3.9.926.852 1.5.993 1.932 1.046.335.054.514.054.61.054.1 0 .16.07.16.125 0 .088-.1.122-.416.122h-1.084c-.985 0-1.42-.088-1.853-.302-.75-.354-1.38-1.082-2.364-2.217-.73-.814-1.5-1.79-1.874-2.2-.08-.068-.12-.087-.237-.087L46.403 7.3c-.08 0-.12.036-.12.124v.356c0 1.453 0 2.624.08 3.244.06.443.158.727.69.798.235.036.61.07.77.07.117 0 .137.07.137.126 0 .07-.08.123-.276.123-.945 0-2.048-.052-2.127-.052-.02 0-1.182.053-1.714.053-.177 0-.276-.033-.276-.122 0-.055.04-.125.138-.125.156 0 .375-.035.532-.07.335-.072.375-.355.454-.8.1-.62.1-1.808.1-3.26v-2.66h-.002z"/></g></svg>