<svg width="71" height="74" viewBox="0 0 71 74" xmlns="http://www.w3.org/2000/svg"><title>Page 1</title><desc>Created with Sketch.</desc><g id="Page-1" fill="none"><path d="M9.018 61.61l10.835-6.837c-.09-.965-.115-3.14.387-5.295.597-2.56 1.793-3.32 1.675-3.557-.234-.462-.39-3.708-.674-4.465-.252-.673-.448-1.222-.448-1.222l-1.324-2.77c-.47-1.428-.85-1.307.042-2.04h3.725l3.898 4.78 2.48 3.678 4.425-.754 6.313-3.474s6.83-3.14 9.36-4.23h5.947c.282 1.038.036 2.064-.992 2.807-.8.573-3.812 1.99-5.2 3.17-1.388 1.182-9.842 9.937-9.842 9.937l-5.81 4.435-5.375 4.148-8.884 12.586c-4.42-1.616-9.146-6.504-10.536-10.897" id="Fill-1"/><path d="M9.018 61.61l10.835-6.837c-.09-.965-.115-3.14.387-5.295.597-2.56 1.793-3.32 1.675-3.557-.234-.462-.39-3.708-.674-4.465-.252-.673-.448-1.222-.448-1.222l-1.324-2.77c-.47-1.428-.85-1.307.042-2.04h3.725l3.898 4.78 2.48 3.678 4.425-.754 6.313-3.474s6.83-3.14 9.36-4.23h5.947c.282 1.038.036 2.064-.992 2.807-.8.573-3.812 1.99-5.2 3.17-1.388 1.182-9.842 9.937-9.842 9.937l-5.81 4.435-5.375 4.148-8.884 12.586c-4.42-1.616-9.146-6.504-10.536-10.897z" id="Stroke-3" stroke="#000" stroke-linejoin="round"/><path d="M2.082 35.225C1.21 35.225.5 34.523.5 33.658s.71-1.564 1.582-1.564h66.75c.873 0 1.583.7 1.583 1.564 0 .864-.71 1.567-1.582 1.567H2.083z" id="Fill-5"/><path d="M2.082 35.225C1.21 35.225.5 34.523.5 33.658s.71-1.564 1.582-1.564h66.75c.873 0 1.583.7 1.583 1.564 0 .864-.71 1.567-1.582 1.567H2.083z" id="Stroke-7" stroke="#000" stroke-linejoin="round"/><path d="M62.944 28.8c.903 0 1.752.774 1.752 1.67 0 .895-.735 1.624-1.64 1.624h-55.2c-.9 0-1.638-.728-1.638-1.625s.785-1.61 1.687-1.61C9.41 15.567 21.172 5.23 35.4 5.23c14.184 0 25.982 10.333 27.544 23.57" id="Fill-9"/><path d="M62.944 28.8c.903 0 1.752.774 1.752 1.67 0 .895-.735 1.624-1.64 1.624h-55.2c-.9 0-1.638-.728-1.638-1.625s.785-1.61 1.687-1.61C9.41 15.567 21.172 5.23 35.4 5.23c14.184 0 25.982 10.333 27.544 23.57z" id="Stroke-11" stroke="#000" stroke-linejoin="round"/><g id="Group-16"><path d="M15.47 21.92c2.35-4.633 6.497-8.27 11.564-10.082" id="Fill-13"/><path d="M15.47 21.92c2.35-4.633 6.497-8.27 11.564-10.082" id="Stroke-15" stroke="#000" stroke-linecap="round" stroke-linejoin="round"/></g><g id="Group-20"><path d="M13.566 28.848h43.78" id="Fill-17"/><path d="M13.566 28.848h43.78" id="Stroke-19" stroke="#000" stroke-linecap="round" stroke-linejoin="round"/></g><path d="M37.68 2.747c0 1.21-.994 2.194-2.223 2.194-1.227 0-2.222-.982-2.222-2.193 0-1.21.995-2.194 2.222-2.194 1.23 0 2.224.983 2.224 2.194" id="Fill-21"/><path d="M37.68 2.747c0 1.21-.994 2.194-2.223 2.194-1.227 0-2.222-.982-2.222-2.193 0-1.21.995-2.194 2.222-2.194 1.23 0 2.224.983 2.224 2.194z" id="Stroke-23" stroke="#000"/></g></svg>