<svg width="22" height="22" viewBox="0 0 22 22" xmlns="http://www.w3.org/2000/svg"><title>Page 1</title><desc>Created with Sketch.</desc><path d="M6.175 13.814c3.13 3.788 10.76 7.418 12.6 6.603 1.84-.816 2.236-2.578 2.157-3.394-.08-.815-4.26-3.314-5.314-3.787-1.052-.474-2.262 1.052-2.84 1.71-.606.63-2.92-1.29-3.92-2.263 0 0-2.63-2.946-2.025-3.577.605-.632 2.104-1.894 1.578-2.92-.525-1.026-3.182-5.13-4.024-5.182-.815-.053-2.55.42-3.288 2.288-.736 1.868 2.788 8.997 6.708 11.97" id="Page-1" stroke="#919191" fill="none"/></svg>