<svg xmlns="http://www.w3.org/2000/svg" style="display:none"><defs><filter id="a" filterunits="userSpaceOnUse" x=".667" y=".005" width="18.234" height="17.579"><fecolormatrix values="1 0 0 0 0 0 1 0 0 0 0 0 1 0 0 0 0 0 1 0"/></filter></defs><symbol id="adventure" viewbox="-0.415 -0.893 16 16"><path d="M7.585 14.128c-3.214 0-5.829-2.635-5.829-5.871 0-3.237 2.615-5.872 5.829-5.872 3.213 0 5.828 2.634 5.828 5.872 0 3.236-2.615 5.871-5.828 5.871M7.078.598c0-.281.229-.51.507-.51a.51.51 0 0 1 0 1.021.511.511 0 0 1-.507-.511m.76 1.284v-.299c.437-.115.761-.51.761-.985 0-.564-.454-1.021-1.014-1.021-.561 0-1.014.457-1.014 1.021 0 .475.325.871.761.985v.299c-3.376.133-6.083 2.94-6.083 6.375 0 3.52 2.841 6.381 6.336 6.381 3.494 0 6.336-2.861 6.336-6.381 0-3.434-2.707-6.242-6.083-6.375"/><path d="M8.591 8.907L6.938 7.243l3.305-1.664-1.652 3.328zm-3.665 2.028l1.652-3.329L8.23 9.27l-3.304 1.665zm5.77-6.156l-4.3 2.167c-.007.002-.01.01-.018.015A.274.274 0 0 0 6.333 7c-.016.016-.028.028-.038.046-.005.008-.01.011-.015.018l-2.152 4.332a.256.256 0 0 0 .228.368.24.24 0 0 0 .114-.028l4.3-2.167c.008-.003.01-.011.018-.016.018-.01.031-.022.046-.038s.028-.027.038-.046l.016-.019 2.151-4.331a.256.256 0 0 0-.048-.294.26.26 0 0 0-.295-.046z"/></symbol><symbol id="arrow-down" viewbox="0 -0.298 10 6.298"><path d="M5.164 6.052L.891.298l.803-.596 3.47 4.672L8.633-.298l.803.596z"/></symbol><symbol id="arrow-right-large" viewbox="0 0 26 14"><title>Page 1</title><g stroke="#0F3D8B" fill="none" fill-rule="evenodd"><path d="M17.51 12.52l8.08-5.76L17.51 1M25.47 6.76H0"/></g></symbol><symbol id="arrow-right" viewbox="0 0 6.396 10"><path d="M.643 8.922l-.596-.803L4.719 4.65.047 1.181.643.378 6.396 4.65z"/></symbol><symbol id="article-logo" viewbox="269.219 312.732 653 40"><path d="M306.698 350.982h-4.218v-29.678l-10.918 29.182h-3.474l-10.918-29.43v29.926h-4.218v-35.188h6.353l10.62 28.636 10.571-28.636h6.203l-.001 35.188zM358.743 350.982h-4.566l-2.878-8.337h-15.286l-2.829 8.337h-4.467l12.407-35.188h5.161l12.458 35.188zm-8.884-12.506l-6.253-18.263-6.204 18.263h12.457zM406.768 333.364c0 6.519-1.506 11.216-4.516 14.095-2.449 2.35-5.526 3.523-9.23 3.523h-12.259v-35.188h12.259c3.672 0 6.75 1.191 9.23 3.573 3.01 2.848 4.516 7.513 4.516 13.997zm-4.467 0c0-2.415-.189-4.541-.57-6.377-.381-1.836-1.199-3.4-2.457-4.69-1.621-1.621-3.706-2.432-6.254-2.432h-7.841v27.048h7.841c2.548 0 4.633-.811 6.254-2.432 2.018-2.051 3.027-5.757 3.027-11.117zM454.053 350.982H430.53v-35.188h23.523v4.069h-19.106v10.72h16.773v4.169h-16.773v12.159h19.106v4.071zM533.409 341.156c0 2.515-.895 4.715-2.681 6.601-1.984 2.151-4.93 3.226-8.832 3.226h-14.194v-35.187h14.045c3.771 0 6.633 1.076 8.585 3.226 1.521 1.688 2.283 3.64 2.283 5.856 0 1.754-.447 3.35-1.34 4.789-.894 1.439-2.135 2.44-3.723 3.002 1.787.596 3.208 1.688 4.269 3.275 1.058 1.589 1.588 3.326 1.588 5.212zm-5.31-15.931c0-1.753-.612-3.109-1.836-4.069-1.225-.959-2.729-1.439-4.516-1.439h-9.728v11.067h9.877c1.918 0 3.432-.455 4.541-1.365 1.107-.91 1.662-2.308 1.662-4.194zm.794 15.633c0-1.886-.661-3.391-1.984-4.517-1.324-1.124-2.961-1.687-4.913-1.687h-9.976v12.258h9.877c2.051 0 3.729-.513 5.036-1.539 1.306-1.024 1.96-2.53 1.96-4.515zM580.01 315.796l-11.812 20.894v14.292h-4.467V336.69l-11.812-20.894h4.963l9.23 16.725 9.182-16.725h4.716zM656.835 350.982h-6.701l-2.283-6.75h-13.993l-2.283 6.75h-6.451l12.357-35.188h6.997l12.357 35.188zm-10.969-12.506l-5.013-14.839-5.014 14.839h10.027zM704.806 350.982h-6.948l-5.855-13.3h-7.791v13.3h-6.453v-35.188h14.84c3.972 0 6.998 1.051 9.082 3.151 2.084 2.102 3.127 4.69 3.127 7.767 0 2.316-.588 4.359-1.762 6.129-1.176 1.771-2.738 3.02-4.69 3.747l6.45 14.394zm-6.403-24.268c0-1.489-.529-2.746-1.588-3.772-1.062-1.025-2.468-1.539-4.22-1.539h-8.438v10.521h8.537c1.817 0 3.225-.455 4.217-1.365.996-.908 1.492-2.19 1.492-3.845zM751.534 321.751h-10.422v29.231h-6.402v-29.231h-10.422v-5.956h27.246v5.956zM779.073 350.982h-6.502v-35.188h6.502v35.188zM829.569 339.767c-.33 3.176-1.457 5.74-3.375 7.692-2.714 2.779-6.07 4.168-10.074 4.168-4.037 0-7.361-1.307-9.976-3.92-1.754-1.753-2.922-3.747-3.5-5.98-.577-2.233-.866-5.004-.866-8.312s.289-6.08.866-8.313c.578-2.233 1.746-4.226 3.5-5.98 2.646-2.646 5.972-3.97 9.976-3.97 4.07 0 7.428 1.357 10.074 4.069 1.918 1.953 3.045 4.5 3.375 7.643h-6.552c-.133-1.356-.662-2.597-1.588-3.722-1.158-1.455-2.928-2.184-5.311-2.184-2.15 0-3.953.778-5.41 2.333-.76.794-1.332 1.854-1.711 3.176-.381 1.324-.596 2.432-.646 3.325a69.854 69.854 0 0 0-.073 3.623c0 1.522.024 2.729.073 3.623.052.894.267 2.002.646 3.325.379 1.324.951 2.382 1.711 3.176 1.457 1.556 3.26 2.333 5.41 2.333 2.35 0 4.119-.744 5.311-2.233a6.95 6.95 0 0 0 1.588-3.871l6.552-.001zM874.19 350.982h-22.73v-35.188h6.402v29.132h16.328v6.056zM920.358 350.982h-25.062v-35.188h25.062v5.807h-18.66v8.188h16.428v5.757h-16.428v9.628h18.66v5.808z"/></symbol><symbol id="beach" viewbox="0.5 1 16 16"><path d="M9.043 6.535C6.264 8.84 5.374 10.97 5.345 11.043l-.508.988a1.49 1.49 0 0 1-.53.606c-.567.355-1.319.314-1.87-.1l-.188-.143c-.73-.551-.891-1.573-.358-2.28.099-.131.299-.318.512-.518.33-.308.702-.66.929-1a9.103 9.103 0 0 0 1.015-2.188c.33-1.099.563-1.673.933-2.277.315-.517.674-.96 1.063-1.312 1.476-1.342 2.712-1.152 3.487-.757.088.046.172.097.248.155.248.187.426.427.514.698.562 1.69-1.533 3.606-1.549 3.62m1.992-3.755c-.156-.474-.521-.885-1.002-1.129-.742-.381-2.253-.779-4.015.822-.42.381-.805.855-1.143 1.411-.39.64-.639 1.241-.979 2.382a8.665 8.665 0 0 1-.96 2.069c-.197.297-.552.63-.863.921-.236.222-.443.414-.563.572-.685.91-.479 2.226.46 2.932l.189.144c.707.532 1.672.586 2.404.129.281-.177.516-.439.692-.78l.518-1.006c.01-.021.892-2.124 3.583-4.358.097-.086 2.337-2.13 1.679-4.109"/><path d="M9.494 3.205a.235.235 0 0 0-.051-.327.235.235 0 0 0-.328.041l-.437.581a2.03 2.03 0 0 0-1.491-.118c-1.086.339-1.955 1.586-2.578 3.708a.235.235 0 0 0 .087.255.26.26 0 0 0 .072.038.227.227 0 0 0 .29-.149c.721-2.448 1.634-3.202 2.273-3.406.743-.235 1.327.184 1.35.201.344.261.508.548.5.874-.027.955-1.511 2.075-2.083 2.425-.109.067-.14.209-.068.319s.215.144.324.078c.093-.057 2.257-1.402 2.294-2.798.014-.438-.18-.831-.572-1.167l.418-.555zM13.988 10.696c-.479.522-.965.904-1.93 1.524a8.969 8.969 0 0 0-1.824 1.579c-.266.312-.5.767-.707 1.169-.133.258-.256.503-.355.634-.533.707-1.56.835-2.291.285l-.188-.144c-.551-.415-.798-1.126-.611-1.771.067-.239.22-.473.436-.677l.795-.748c.076-.062 1.879-1.502 3.325-4.801.012-.025 1.271-2.569 3.059-2.496.285.011.564.116.812.303.078.059.148.124.215.194.594.637 1.119 1.773.236 3.564a5.95 5.95 0 0 1-.972 1.385m1.393-1.169c1.053-2.133.252-3.477-.318-4.088a1.998 1.998 0 0 0-1.361-.653c-2.082-.086-3.432 2.632-3.49 2.756C8.81 10.738 7.033 12.165 7 12.192l-.81.761c-.28.262-.468.558-.562.879-.235.827.08 1.743.787 2.275l.189.143c.938.708 2.26.543 2.944-.366.121-.159.25-.409.396-.698.195-.382.416-.812.648-1.084a8.827 8.827 0 0 1 1.723-1.492c1.002-.642 1.512-1.045 2.021-1.599a6.212 6.212 0 0 0 1.045-1.484"/><path d="M13.66 7.254l.438-.581a.234.234 0 0 0-.051-.326.233.233 0 0 0-.328.041l-.418.555c-.43-.284-.855-.36-1.273-.223-1.316.429-1.977 2.918-2.004 3.025a.243.243 0 0 0 .168.289.233.233 0 0 0 .287-.159c.17-.656.809-2.418 1.707-2.711.307-.1.621-.021.963.237.006.005.617.479.598 1.296-.021.969-.926 2.048-2.615 3.119a.224.224 0 0 0-.062.319.238.238 0 0 0 .325.073c1.848-1.173 2.797-2.344 2.824-3.488a2.13 2.13 0 0 0-.559-1.466"/></symbol><symbol id="check" viewbox="0.609 -3.929 11.484 10.227"><path d="M5.164 6.051L.891.298l.803-.596 3.47 4.672 5.94-8.008.802.595z"/></symbol><symbol id="chev-down" viewbox="0 0 11 7"><path d="M.4 1l5.3 4.914L11 1" stroke="#414141" fill="none" fill-rule="evenodd"/></symbol><symbol id="chev-right" viewbox="0 0 7 11"><path d="M1 10.6l4.914-5.3L1 0" stroke="#0F3D8B" fill="none" fill-rule="evenodd"/></symbol><symbol id="chev-white" viewbox="0 0 7 11"><path d="M1 10.6l4.914-5.3L1 0" stroke="#fff" fill="none" fill-rule="evenodd"/></symbol><symbol id="city" viewbox="0 0 17 17"><path d="M8.863 3.967a1.417 1.417 0 0 1 0 2.834 1.416 1.416 0 0 1 0-2.834m0 3.4a1.983 1.983 0 0 0 0-3.967 1.984 1.984 0 0 0 0 3.967"/><path d="M5.381 1.992A4.828 4.828 0 0 1 8.816.567c1.297 0 2.516.507 3.434 1.425 1.711 1.714 1.92 4.941.443 6.914l-3.879 5.611-3.883-5.621c-1.47-1.963-1.26-5.19.45-6.904zm3.435 13.524l4.336-6.279c1.625-2.172 1.392-5.745-.504-7.644A5.383 5.383 0 0 0 8.816 0c-1.448 0-2.81.567-3.833 1.592-1.895 1.899-2.133 5.471-.51 7.637l4.343 6.287zM.283 16.316l-.201.201A.282.282 0 0 0 .283 17a.283.283 0 0 0 .201-.082l.198-.201a.282.282 0 1 0-.399-.401M2.438 14.732a.285.285 0 0 0-.283.283c0 .155.127.284.283.284h.515a.284.284 0 0 0 .283-.282.283.283 0 0 0-.283-.283h-.515v-.002zM1.776 15.221a.283.283 0 0 0-.398 0l-.365.365a.284.284 0 0 0 0 .4.276.276 0 0 0 .201.082.293.293 0 0 0 .201-.082l.365-.366a.286.286 0 0 0-.004-.399M5.525 14.732a.285.285 0 0 0-.283.283c0 .155.127.284.283.284h.514a.284.284 0 0 0 .283-.282.283.283 0 0 0-.283-.283h-.514v-.002zM3.981 14.732a.285.285 0 0 0-.283.283c0 .155.128.284.283.284h.515a.284.284 0 0 0 .283-.282.283.283 0 0 0-.283-.283h-.515v-.002zM7.068 14.732a.285.285 0 0 0-.283.283c0 .155.128.284.283.284h.283a.284.284 0 0 0 .283-.282.283.283 0 0 0-.283-.283h-.283v-.002zM16.479 13.801a.285.285 0 0 0 .201-.082l.2-.201a.281.281 0 0 0-.397-.398l-.201.197a.286.286 0 0 0 0 .4.274.274 0 0 0 .197.084M11.668 14.732a.285.285 0 0 0-.283.283c0 .155.127.283.283.283h.602a.284.284 0 0 0 .283-.283.285.285 0 0 0-.283-.283h-.602zM13.477 14.732a.285.285 0 0 0-.281.283c0 .155.128.283.281.283h.604a.284.284 0 0 0 0-.566h-.604zM15.428 14.172l-.427.428a.284.284 0 0 0 0 .4.277.277 0 0 0 .2.082.283.283 0 0 0 .201-.082l.427-.428a.284.284 0 0 0-.401-.4M10.178 14.732a.284.284 0 0 0 0 .566h.283a.284.284 0 0 0 .282-.283.284.284 0 0 0-.282-.283h-.283z"/></symbol><symbol id="close-icon" viewbox="3 17 9 9"><g fill="none" fill-rule="evenodd" stroke-linecap="square"><path d="M4.5 18.5l6 6M10.5 18.5l-6 6"/></g></symbol><symbol id="contact-icon" viewbox="0 0 19 16"><path d="M4.051 16.153l.005-3.747L.5 12.372V.5h17.916v11.873H9.532l-5.481 3.78zM1.5 11.382l3.558.034-.003 2.831 4.166-2.874h8.196V1.5H1.5v9.882z"/></symbol><symbol id="culture" viewbox="0 0 15 17"><title>Page 1</title><path d="M8.146 7.45a.359.359 0 0 0-.179-.48.377.377 0 0 0-.494.171c-.022.044-.562 1.09-2.311 1.09-1.749 0-2.289-1.046-2.31-1.087-.086-.182-.307-.261-.494-.177s-.267.3-.181.482c.029.062.742 1.508 2.984 1.508 2.243.001 2.956-1.446 2.985-1.507M6.193 4.498h1.615a.368.368 0 0 0 .372-.363.368.368 0 0 0-.372-.363H6.193a.368.368 0 0 0-.372.363c.001.2.167.363.372.363M2.515 4.498H4.13a.368.368 0 0 0 .372-.363.368.368 0 0 0-.372-.363H2.515a.368.368 0 0 0-.372.363c0 .2.167.363.372.363M9.827 10.842c-2.242 0-2.955 1.447-2.984 1.509a.357.357 0 0 0 .179.479.379.379 0 0 0 .495-.171c.022-.044.562-1.091 2.312-1.091 1.748 0 2.287 1.047 2.309 1.088a.371.371 0 0 0 .494.177.36.36 0 0 0 .181-.482c-.032-.062-.744-1.509-2.986-1.509"/><path d="M14.245 9.71c0 3.137-1.486 5.048-4.418 5.68-2.332-.503-3.747-1.817-4.229-3.913a.008.008 0 0 1 .005-.002l.188-.049.025-.008c.061-.017.121-.034.182-.053l.03-.009.18-.058.032-.012c.06-.02.12-.04.18-.062.01-.004.019-.008.029-.01.062-.023.123-.047.185-.072l.02-.008a5.267 5.267 0 0 0 .196-.084c.756-.334 1.483-.818 2.074-1.515h.002c.807-.952 1.361-2.3 1.395-4.206v-.005h3.925V9.71h-.001zM.744 5.15V.767H9.58V5.15c0 .06-.004.117-.005.176-.044 2.372-.962 4.02-2.737 4.921a5.761 5.761 0 0 1-.422.194l-.007.003a6.58 6.58 0 0 1-.448.166l-.008.002a7.95 7.95 0 0 1-.48.141c-.103.026-.203.055-.31.077a7.985 7.985 0 0 1-.405-.1c-.013-.005-.026-.007-.038-.01C2.082 9.995.744 8.125.744 5.15zm13.873-.55h-4.293V.404a.368.368 0 0 0-.372-.363H.372A.368.368 0 0 0 0 .405v4.746c0 4.274 2.576 5.82 4.841 6.353.643 3.06 2.937 4.205 4.909 4.611.025.006.052.008.077.008s.052-.002.077-.008c2.318-.478 5.084-1.978 5.084-6.408V4.962c0-.2-.166-.363-.371-.363z"/><path d="M10.858 9.055h1.615a.367.367 0 0 0 .372-.362.367.367 0 0 0-.372-.363h-1.615a.367.367 0 0 0-.372.363c0 .2.166.362.372.362"/></symbol><symbol id="day" viewbox="0 0 38 107"><path d="M37.675 106.175c-1.233-.8-2.35-1.333-3.35-1.6-1-.267-2.35-.4-4.05-.4h-21.6c-1.667 0-3 .142-4 .425-1 .283-2.133.808-3.4 1.575h-.1c0-2.1-.033-4.375-.1-6.825s-.1-4.792-.1-7.025c0-5.833 1.592-10.375 4.775-13.625 3.183-3.25 7.708-4.875 13.575-4.875 5.967 0 10.533 1.642 13.7 4.925s4.75 7.975 4.75 14.075v13.35h-.1zm-35.75-6.1h34.95l-.1-6.8c-.067-5.2-1.475-8.958-4.225-11.275-2.75-2.317-6.925-3.475-12.525-3.475-6.167 0-10.708 1.175-13.625 3.525-2.917 2.35-4.392 5.925-4.425 10.725l-.05 7.3zm4.2-46.6l16.85 6.2v-12.3l-16.85 6.1zm31.65 8.1v6.1h-.1c-.7-.7-1.425-1.283-2.175-1.75-.75-.467-1.383-.808-1.9-1.025-.517-.217-1.542-.625-3.075-1.225l-29.8-11.05v-1.2l30.3-11.2c2-.733 3.425-1.342 4.275-1.825.85-.483 1.642-1.158 2.375-2.025h.1v7.95h-.1c-1.5-1-3.783-.933-6.85.2l-6.85 2.5v13.05l5.6 2.05c3.4 1.267 6.1 1.083 8.1-.55h.1zm-.1-41.75c-1.067-.767-2.025-1.292-2.875-1.575-.85-.283-1.975-.425-3.375-.425h-10.55l-13.8 7.9c-2.867 1.7-4.8 3.317-5.8 4.85h-.1v-9.4h.1c.533.733 1.267 1.1 2.2 1.1.933 0 1.983-.333 3.15-1l12.85-7.2-10.1-5.95c-3.367-2-6.067-2.083-8.1-.25h-.1v-7.1h.1C2.208 1.975 3.15 2.933 4.1 3.65c.95.717 2.542 1.725 4.775 3.025l11.95 7.05h10.6c1.467 0 2.6-.125 3.4-.375.8-.25 1.75-.792 2.85-1.625h.1v8.1h-.1z" fill="#DDD" fill-rule="evenodd"/></symbol><symbol id="ecotourism" viewbox="0 0 13 16"><title>Page 1</title><path d="M11.213 10.215a5.913 5.913 0 0 1-2.462 2.584 2.91 2.91 0 0 0 .203-.402c.86-2.12.858-4.436.028-6.518.811-.492 1.523-.996 1.878-1.624a6.082 6.082 0 0 1 .353 5.96M7.05 13.406c-1.086-1.328-1.123-2.744-1.154-4.039-.037-1.528-.072-2.971-1.851-3.741-.158-.068-.34.006-.407.166s.006.345.163.413c1.411.611 1.438 1.688 1.474 3.178.031 1.259.066 2.72 1.054 4.114-.073-.003-.146-.005-.218-.016-5.216-.714-4.992-4.435-4.774-8.032.103-1.698.2-3.316-.409-4.365 2.87-.049 5.56 1.496 6.99 4.007a8.063 8.063 0 0 1 .462 7.065 2.12 2.12 0 0 1-1.33 1.25m3.962-10.009a.307.307 0 0 0-.322-.106.313.313 0 0 0-.227.255c-.102.655-.838 1.204-1.734 1.753a8.652 8.652 0 0 0-.273-.522C6.938 2.11 4.104.454 1.062.454.802.454.54.466.282.49a.317.317 0 0 0-.181.546c.833.771.728 2.522.616 4.375-.212 3.521-.477 7.902 5.311 8.694a2.743 2.743 0 0 0 .796-.005c.487.519 1.129 1.021 1.981 1.495a.324.324 0 0 0 .148.039c.11 0 .217-.061.273-.164a.319.319 0 0 0-.123-.428 7.785 7.785 0 0 1-1.54-1.094 6.496 6.496 0 0 0 4.204-3.454 6.709 6.709 0 0 0-.755-7.097"/></symbol><symbol id="email" viewbox="0 0 12 8"><path d="M11.742 2.128c-.37.2-4.912 2.657-5.139 2.778-.226.123-.384.139-.603.139s-.377-.016-.604-.139C5.169 4.785.628 2.328.258 2.128c-.26-.14-.258.024-.258.151v5.06C0 7.628.373 8 .661 8h10.678c.289 0 .661-.372.661-.661v-5.06c0-.127.002-.291-.258-.151M.396.749l5 2.779c.167.093.385.138.604.138s.437-.045.604-.138l5-2.779C11.93.568 12.238 0 11.64 0H.36c-.597 0-.29.568.036.749"/></symbol><symbol id="exclusive-icon" viewbox="0 0 100 95.367"><g stroke="#010101" stroke-miterlimit="10"><path fill="#FFF" d="M3.5 8.839h6v82h-6z"/><circle fill="#FFF" cx="6.147" cy="5.628" r="4.955"/><path fill="none" stroke-linecap="round" d="M1 16.839h11"/><path fill="none" stroke-linecap="round" stroke-linejoin="round" d="M9.486 90.75l4.36 4.089H.179l4.113-3.965"/><path fill="none" d="M49.339 43.936c-13.924 0-31.132-10.615-36.823-22.718a1.885 1.885 0 0 1 3.409-1.603c4.562 9.702 19.822 20.553 33.414 20.553 13.385 0 28.106-10.674 33.459-20.643a1.888 1.888 0 0 1 2.552-.769 1.885 1.885 0 0 1 .768 2.551C80.25 32.235 64.072 43.936 49.339 43.936z"/><ellipse transform="rotate(40.685 85.62 17.513)" fill="none" cx="85.624" cy="17.516" rx=".959" ry="1.859"/><ellipse transform="rotate(139.297 12.486 17.516)" fill="none" cx="12.486" cy="17.516" rx=".958" ry="1.86"/><path fill="none" d="M16.898 27.102l3.177-2.246M79.631 24.856l3.106 2.246M5 68.839h5"/><path fill="#FFF" d="M90.5 8.839h4v82h-4z"/><circle fill="#FFF" cx="92.116" cy="5.628" r="4.955"/><path fill="none" stroke-linecap="round" d="M87 16.839h12"/><path fill="none" stroke-linecap="round" stroke-linejoin="round" d="M95.456 90.75l4.358 4.089H86.147l4.115-3.965"/><path fill="none" d="M91 68.839h5"/></g></symbol><symbol id="family" viewbox="0 0 19 11"><path d="M14.342 9.903a4.668 4.668 0 0 0-.729-2.25c.422-.229.89-.358 1.391-.358 1.486 0 2.729 1.142 2.891 2.608h-3.553zm-9.014 0c.161-2.186 1.986-3.914 4.184-3.914 2.198 0 4.021 1.729 4.184 3.912H5.328v.002zm2.245-6.686c0-.995.824-2.12 1.938-2.12 1.114 0 1.938 1.125 1.938 2.12s-.823 2.12-1.938 2.12c-1.114 0-1.938-1.125-1.938-2.12zm6.138 1.957c0-.685.566-1.467 1.293-1.467s1.292.783 1.292 1.467c0 .685-.565 1.468-1.292 1.468s-1.293-.783-1.293-1.468zm2.455 1.663a2.196 2.196 0 0 0 .775-1.663c0-1.125-.904-2.12-1.938-2.12s-1.938.995-1.938 2.12c0 .652.308 1.272.775 1.663-.21.082-.404.163-.598.277-.613-.733-1.422-1.305-2.357-1.581.711-.505 1.211-1.37 1.211-2.315 0-1.483-1.211-2.771-2.584-2.771S6.927 1.735 6.927 3.218c0 .946.501 1.811 1.212 2.315a4.906 4.906 0 0 0-3.473 4.695c0 .18.146.326.323.326h13.246a.323.323 0 0 0 .322-.326c0-1.565-1-2.903-2.391-3.391z"/><path d="M1.105 9.903c.162-1.469 1.406-2.608 2.892-2.608.501 0 .969.13 1.389.358a4.69 4.69 0 0 0-.727 2.25H1.105zm4.2 0C5.466 7.718 7.292 5.99 9.489 5.99c2.196 0 4.022 1.729 4.185 3.913H5.305zm4.184-4.566c-1.115 0-1.938-1.125-1.938-2.12s.824-2.12 1.938-2.12c1.114 0 1.938 1.125 1.938 2.12s-.823 2.12-1.938 2.12zM3.998 6.642c-.727 0-1.292-.782-1.292-1.468 0-.685.565-1.467 1.292-1.467S5.29 4.49 5.29 5.174s-.565 1.468-1.292 1.468zM.443 10.228c0 .18.146.326.323.326h13.245a.324.324 0 0 0 .322-.326 4.902 4.902 0 0 0-3.473-4.694c.711-.505 1.212-1.37 1.212-2.315 0-1.483-1.212-2.771-2.585-2.771S6.904 1.734 6.904 3.217c0 .946.5 1.811 1.211 2.315-.936.278-1.743.849-2.358 1.582a3.997 3.997 0 0 0-.597-.277 2.2 2.2 0 0 0 .775-1.663c0-1.125-.905-2.12-1.938-2.12s-1.938.995-1.938 2.12a2.2 2.2 0 0 0 .775 1.663 3.596 3.596 0 0 0-2.391 3.391z"/></symbol><symbol id="fb" viewbox="0 0 9 16"><path d="M8.381 2.782H5.986c-.283 0-.6.395-.6.923v1.834H8.38v2.613H5.387V16H2.562V8.152H0V5.539h2.562V4c0-2.206 1.443-4 3.424-4h2.395v2.782z"/></symbol><symbol id="hideaway" viewbox="0 0 18 18"><path d="M10.021 17.223c-4.687 0-8.971-.317-9.013-.321l-.231-.017v-.232c0-2.27 3.616-4.047 8.233-4.047 4.617 0 8.234 1.777 8.234 4.047v.224l-.222.023c-1.889.214-4.245.323-7.001.323zm-8.727-.802c.978.066 4.704.302 8.728.302 2.622 0 4.877-.099 6.707-.293-.261-1.823-3.689-3.324-7.719-3.324-4.022-.001-7.446 1.495-7.716 3.315z"/><path d="M3.902 14l-.06-.284c-.26-1.235-.249-2.713.032-4.16.251-1.295 1.086-2.884 2.072-4.003-1.711.177-3.428.707-3.378 1.727.009.188.043.375.102.573l-.437.224a2.947 2.947 0 0 1-.609-1.666 2.963 2.963 0 0 1 .77-2.154 2.97 2.97 0 0 1 2.069-.979c.159-.008.316-.005.47.009-.909-.686-1.721-.831-2.315-.347a2.38 2.38 0 0 0-.4.423l-.44-.219a2.976 2.976 0 0 1 .975-1.48A2.997 2.997 0 0 1 4.648.986 2.978 2.978 0 0 1 7.152 2.34c-.001-.421-.088-.825-.399-1.136l.263-.412c.064.023 1.416.533 1.649 1.634.133-.034.272-.051.416-.051.824 0 1.58.569 1.723.683l-.119.155-.097.286a1.286 1.286 0 0 0-.782.054 2.995 2.995 0 0 1 2.478 3.282 2.978 2.978 0 0 1-.711 1.623l-.424-.25c.071-.193.117-.383.137-.565.056-.495-.179-.899-.385-1.151a2.867 2.867 0 0 0-.899-.71 2.997 2.997 0 0 1-.487 4.299 2.987 2.987 0 0 1-1.666.605l-.111-.479c.186-.08.351-.176.506-.292.685-.521.214-1.995-1.293-4.063-1.04 1.627-1.469 3.785-1.179 5.983.053.401.163.804.336 1.231l.113.279-.295.06c-.627.127-1.216.293-1.751.493L3.902 14zm2.494-8.201C5.432 6.855 4.608 8.4 4.366 9.651c-.247 1.273-.277 2.567-.088 3.679.397-.136.82-.254 1.261-.354a5.337 5.337 0 0 1-.263-1.076c-.292-2.218.115-4.404 1.12-6.101zm.659-.645l.086.114C8.306 6.813 9.464 8.77 8.909 9.882a2.496 2.496 0 0 0 .783-3.688 2.474 2.474 0 0 0-1.089-.816l.111-.483c1.016.091 2.002.582 2.574 1.281.226.275.378.571.452.876a2.495 2.495 0 0 0-2.824-3.01l-.183-.452c.311-.216.661-.443 1.052-.557-.379-.159-.862-.223-1.221-.037l-.371.192.006-.417c.007-.473-.299-.837-.621-1.089.132.512.063 1.06.004 1.534l-.02.156-.491.027a2.48 2.48 0 0 0-2.423-1.913 2.494 2.494 0 0 0-1.782.752 1.73 1.73 0 0 1 .55-.087c1.083 0 2.123.932 2.647 1.488l-.295.394a2.566 2.566 0 0 0-1.28-.256c-.665.033-1.277.323-1.724.816a2.47 2.47 0 0 0-.601 2.134c.561-1.4 3.448-1.673 4.409-1.724l.686-.037-.203.188z"/></symbol><symbol id="ig" viewbox="0 0 19 18"><mask maskunits="userSpaceOnUse" x=".667" y=".005" width="18.234" height="17.579" id="b"><path d="M18.9 17.584V.005H.667v17.579z" filter="url(#a)"/></mask><path mask="url(#b)" d="M9.784.005c-2.476 0-2.787.01-3.759.053-.971.043-1.633.192-2.213.409-.6.224-1.108.525-1.615 1.013a4.278 4.278 0 0 0-1.051 1.558C.92 3.596.766 4.235.722 5.171.677 6.108.667 6.407.667 8.794s.011 2.686.055 3.624c.044.936.198 1.574.424 2.133a4.308 4.308 0 0 0 1.051 1.558 4.51 4.51 0 0 0 1.615 1.014c.58.218 1.243.366 2.213.408.972.043 1.283.054 3.759.054s2.787-.011 3.759-.054c.971-.042 1.633-.19 2.213-.408a4.497 4.497 0 0 0 1.615-1.014 4.303 4.303 0 0 0 1.051-1.558c.226-.559.38-1.197.424-2.133.045-.938.055-1.236.055-3.624 0-2.387-.01-2.686-.055-3.624-.044-.936-.198-1.575-.424-2.133a4.296 4.296 0 0 0-1.051-1.557A4.519 4.519 0 0 0 15.756.466C15.176.249 14.514.1 13.543.058 12.57.016 12.26.005 9.784.005m0 1.584c2.435 0 2.722.009 3.684.051.89.04 1.372.183 1.692.303.426.16.73.35 1.049.658s.517.6.682 1.01c.125.31.273.775.314 1.632.044.927.053 1.205.053 3.551s-.009 2.625-.053 3.551c-.041.857-.189 1.322-.314 1.633-.165.41-.363.702-.682 1.01s-.623.498-1.049.658c-.32.119-.803.263-1.692.302-.961.042-1.249.052-3.684.052s-2.723-.01-3.684-.052c-.889-.039-1.372-.183-1.693-.302-.425-.16-.729-.351-1.048-.658s-.517-.6-.682-1.01c-.125-.311-.273-.775-.314-1.633-.044-.926-.053-1.204-.053-3.551 0-2.347.009-2.625.053-3.551.041-.857.189-1.322.314-1.632.166-.41.363-.703.682-1.01s.623-.498 1.048-.658c.321-.12.804-.263 1.693-.303.961-.042 1.25-.051 3.684-.051"/><path d="M10.215 11.512c-1.711 0-3.099-1.308-3.099-2.921S8.503 5.67 10.215 5.67c1.712 0 3.1 1.308 3.1 2.921s-1.388 2.921-3.1 2.921m0-7.421c-2.637 0-4.774 2.015-4.774 4.5s2.137 4.5 4.774 4.5 4.774-2.015 4.774-4.5-2.137-4.5-4.774-4.5M15.785 4.5c0 .678-.535 1.227-1.193 1.227-.66 0-1.193-.549-1.193-1.227s.533-1.227 1.193-1.227c.658 0 1.193.549 1.193 1.227"/></symbol><symbol id="in" viewbox="0 0 16 16"><path d="M13.631 13.635h-2.369V9.922c0-.885-.018-2.025-1.235-2.025-1.235 0-1.424.964-1.424 1.96v3.778H6.234V6H8.51v1.04h.03c.319-.6 1.092-1.233 2.247-1.233 2.401 0 2.845 1.58 2.845 3.637v4.19zM3.558 4.955A1.375 1.375 0 0 1 2.183 3.58a1.376 1.376 0 1 1 1.375 1.377zm1.188 8.68H2.37V6h2.376v7.635zM14.816 0H1.182C.528 0 0 .516 0 1.153v13.694C0 15.485.528 16 1.18 16h13.635c.652 0 1.185-.515 1.185-1.153V1.153C16 .516 15.467 0 14.815 0h.002z"/></symbol><symbol id="lb-close" viewbox="0 0 33 33"><path d="M.75.086l32.207 32.207-.707.707L.043.793z"/><path d="M32.25.086l.707.707L.75 33l-.707-.707z"/></symbol><symbol id="lb-left" viewbox="0 0 46 69"><title>Page 1</title><path d="M46 68.45L.795 34.726 46 1" stroke="#FFF" fill="none" fill-rule="evenodd"/></symbol><symbol id="lb-right" viewbox="0 0 46 69"><title>Page 1</title><path d="M0 68.45l45.205-33.725L0 1" stroke="#FFF" fill="none" fill-rule="evenodd"/></symbol><symbol id="lightbox" viewbox="273.82 109.5 362.36 314.021"><path d="M603.7 197.658H394.457c-17.911 0-32.479 14.573-32.479 32.48v160.903c0 17.907 14.568 32.48 32.479 32.48H603.7c17.911 0 32.479-14.573 32.479-32.48V230.138c.001-17.907-14.573-32.48-32.479-32.48zm12.321 193.383c0 6.792-5.528 12.32-12.32 12.32H394.457c-6.791 0-12.319-5.528-12.319-12.32V230.138c0-6.792 5.528-12.32 12.319-12.32H603.7c6.792 0 12.32 5.528 12.32 12.32v160.903z"/><path d="M293.98 302.88v-160.9c0-6.792 5.524-12.32 12.32-12.32h209.243c6.796 0 12.319 5.528 12.319 12.32v29.613h20.16V141.98c0-17.906-14.568-32.48-32.479-32.48H306.3c-17.911 0-32.48 14.574-32.48 32.48v160.9c0 17.91 14.569 32.479 32.48 32.479h22.709v-20.16H306.3c-6.792 0-12.32-5.523-12.32-12.319z"/></symbol><symbol id="logo_exsite" viewbox="0 0 225.766 69.666"><path d="M101.17 19.589H90.14l-8.02 12.378-7.95-12.378H62.685L76.32 39.23 61.44 60.833h11.24l9.282-14.192L91.1 60.833h11.55L87.7 39.14zM225.77 40.541c0-5.857-1.697-11.1-5.787-15.422-4.01-4.088-9.717-6.635-15.426-6.635-12.266 0-21.443 9.796-21.443 21.986 0 12.11 9.639 21.519 21.674 21.519 8.561 0 16.197-5.324 19.441-13.19h-9.799c-2.314 3.395-5.861 4.936-9.951 4.936-5.861 0-11.1-4.163-12.34-9.873h33.32l.309-3.321m-33.709-3.931c1.158-5.398 6.475-9.717 12.04-9.717 6.09 0 11.336 3.779 12.955 9.717h-24.992M140.25 19.45v41.525h10.38l-.01-41.517zM174.44 7.116h-10.33v12.159h-7.35v8.398h1.98v.011h.49l.31.013h4.52V45.37h.01v15.463h10.39l-.01-33.14 7.56-.007v-8.415h-7.57z"/><path d="M130.13 39.515a16.755 16.755 0 0 0-4.219-2.236 37.075 37.075 0 0 0-4.599-1.351c-2.869-.675-5.05-1.335-6.54-1.982-1.491-.646-2.236-1.758-2.236-3.333 0-1.575.675-2.701 2.025-3.375s2.84-1.012 4.473-1.012c1.856 0 3.571.436 5.147 1.308 1.574.873 2.812 1.898 3.712 3.08l5.549-4.913c-1.632-2.08-2.829-3.514-5.591-5.103-2.567-1.478-5.64-1.966-8.564-1.966-2.025 0-3.995.253-5.907.759-1.913.506-3.628 1.28-5.147 2.321a11.955 11.955 0 0 0-3.671 4.01c-.928 1.632-1.392 3.573-1.392 5.823 0 1.913.337 3.516 1.013 4.809a9.743 9.743 0 0 0 2.7 3.249c1.125.873 2.405 1.575 3.839 2.109 1.435.535 2.912.971 4.43 1.308 3.093.732 5.413 1.464 6.962 2.194 1.546.731 2.32 1.94 2.32 3.628 0 .901-.198 1.66-.591 2.279a4.382 4.382 0 0 1-1.562 1.477 7.607 7.607 0 0 1-2.109.802c-.759.168-1.505.253-2.236.253-2.193 0-4.191-.478-5.991-1.435-1.801-.956-3.263-2.165-4.388-3.628l-5.872 5.252c1.764 2.579 4.529 5.099 7.512 6.251 2.981 1.152 5.165 1.407 8.316 1.407 2.194 0 4.317-.24 6.371-.717 2.054-.478 3.853-1.252 5.4-2.321 1.547-1.067 2.785-2.46 3.713-4.177.929-1.715 1.393-3.811 1.393-6.286 0-1.969-.395-3.642-1.181-5.02a10.99 10.99 0 0 0-3.079-3.461"/><circle cx="145.44" cy="6.236" r="6.236"/><path d="M32.936 26.15c-5.56-.001-10.885 4.32-12.04 9.723l25 .007c-1.622-5.941-6.869-9.728-12.961-9.73"/><path d="M33.3 9.204C16.604 9.199 3.06 22.729 3.06 39.424a30.116 30.116 0 0 0 3.431 13.97L.551 63.836S-.59 65.79.406 66.987c1.01 1.213 3.01.45 3.01.45l11.767-3.838c5.05 3.788 11.3 6.06 18.1 6.06 16.696.004 30.23-13.525 30.24-30.22.006-16.698-13.526-30.23-30.22-30.24m21 33.927l-33.34-.01c1.233 5.713 6.478 9.884 12.346 9.886 4.089 0 7.64-1.545 9.957-4.938l9.799.002c-3.243 7.873-10.885 13.194-19.45 13.192-12.04-.003-21.683-9.422-21.68-21.538.003-12.191 9.189-21.991 21.461-21.987 5.71.001 11.421 2.548 15.431 6.636 4.09 4.327 5.787 9.578 5.785 15.44l-.312 3.317"/></symbol><symbol id="main-logo" viewbox="0 0 126.333 12.583"><g fill="#0F3D8B"><path d="M.752 11.929c-.236-.106-.255-.16-.255-.566 0-.745.079-1.35.098-1.596 0-.16.039-.25.138-.25.098 0 .158.054.158.178s0 .337.059.552c.275 1.1 1.576 1.489 2.738 1.489 1.716 0 2.602-.87 2.602-2.006 0-1.082-.65-1.597-2.188-2.625l-.789-.531C1.442 5.315.831 4.393.831 3.345.831 1.574 2.389.509 4.674.509a9.36 9.36 0 0 1 1.793.176c.335.071.473.071.61.071.139 0 .178.021.178.106 0 .072-.079.568-.079 1.598 0 .229-.021.337-.138.337-.119 0-.139-.071-.158-.196a2.593 2.593 0 0 0-.256-.745c-.117-.177-.69-.745-2.246-.745-1.261 0-2.305.568-2.305 1.633 0 .957.531 1.508 2.246 2.554l.493.302C6.92 6.893 7.65 7.939 7.65 9.234c0 .886-.375 1.845-1.617 2.572-.729.425-1.812.53-2.759.53-.807 0-1.813-.105-2.522-.407M25.121 10.192c.058.531.177 1.35.885 1.561.493.143.947.143 1.124.143.079 0 .138.035.138.105 0 .09-.157.144-.355.144-.394 0-2.325-.035-2.954-.089-.416-.035-.494-.09-.494-.16 0-.053.04-.105.118-.125.099-.018.119-.248.079-.531l-.828-7.626h-.039l-4.178 7.697c-.354.655-.453.799-.61.799-.159 0-.256-.144-.591-.692-.454-.744-1.597-2.678-2.03-3.494-.512-.955-1.911-3.492-2.207-4.112h-.078l-.67 6.81c-.02.23-.02.516-.02.762 0 .231.157.373.414.428.296.07.551.088.669.088.059 0 .138.055.138.105 0 .107-.118.144-.315.144-.65 0-1.478-.054-1.617-.054-.157 0-.984.054-1.458.054-.177 0-.294-.035-.294-.144 0-.053.078-.105.176-.105.138 0 .256-.018.513-.053.571-.09.591-.639.67-1.206L12.568.8c.02-.161.099-.268.197-.268.119 0 .256.053.356.229l5.241 9.364L23.407.781c.079-.144.157-.25.276-.25.118 0 .216.123.256.408l1.182 9.253zM36.554 7.319c.078 0 .078-.033.058-.107L34.897 3.08c-.097-.23-.196-.23-.295 0l-1.616 4.131c-.021.074 0 .107.059.107h3.509zm-1.932-6.277c.217-.497.295-.586.414-.586.176 0 .236.213.414.549.315.639 3.093 6.863 4.157 9.152.631 1.346 1.104 1.543 1.477 1.648.257.07.513.088.691.088.099 0 .216.035.216.125 0 .089-.196.124-.394.124-.256 0-1.537 0-2.738-.035-.336-.019-.612-.019-.612-.108 0-.069.039-.069.119-.104.097-.035.275-.158.156-.406L36.966 8.03c-.04-.071-.059-.09-.158-.09h-4c-.08 0-.139.036-.178.125l-.986 2.412c-.157.372-.256.745-.256 1.012 0 .3.296.406.592.406h.158c.137 0 .177.054.177.125 0 .089-.098.124-.256.124-.414 0-1.359-.055-1.556-.055-.178 0-1.044.055-1.754.055-.216 0-.335-.035-.335-.124 0-.071.079-.125.158-.125.119 0 .375-.019.512-.035.789-.09 1.124-.621 1.458-1.383l4.08-9.435zM93.586 8.223c0-.814-.116-1.118-.373-1.543-.137-.231-2.48-3.583-3.071-4.38-.416-.566-.828-.904-1.144-1.1a1.828 1.828 0 0 0-.73-.213c-.098 0-.178-.071-.178-.143 0-.068.059-.104.218-.104.334 0 1.635.037 1.715.037.119 0 .826-.037 1.496-.037.196 0 .235.037.235.104 0 .053-.116.107-.273.159-.139.054-.217.124-.217.249 0 .213.117.391.234.586l3.152 4.699c.355-.639 2.523-3.866 2.84-4.362.215-.337.293-.585.293-.78 0-.213-.078-.338-.275-.392-.155-.034-.254-.106-.254-.176 0-.052.099-.089.275-.089.452 0 1.062.037 1.202.037.117 0 1.358-.037 1.694-.037.115 0 .217.037.217.089 0 .069-.079.159-.217.159-.197 0-.534.054-.809.195-.336.178-.492.338-.869.744-.57.604-3.014 4.149-3.369 4.789-.295.531-.215 1.01-.215 1.507v1.294c0 .25 0 .887.058 1.508.04.442.157.728.671.798.236.036.632.071.789.071.098 0 .137.069.137.125 0 .069-.099.124-.277.124-.963 0-2.086-.055-2.185-.055-.079 0-1.185.055-1.694.055-.197 0-.277-.035-.277-.124 0-.056.039-.125.141-.125.157 0 .354-.035.514-.071.353-.07.471-.354.512-.798.037-.621.037-1.258.037-1.508V8.223h-.003zM103.736 5.103c0-2.342 0-2.768-.04-3.247-.039-.513-.138-.761-.708-.833a5.802 5.802 0 0 0-.592-.035c-.06 0-.138-.071-.138-.125 0-.086.078-.123.277-.123.785 0 1.909.037 2.008.037.117 0 3.744.017 4.139 0 .336-.02.646-.072.788-.092.079-.016.159-.07.237-.07.06 0 .078.07.078.143 0 .105-.101.284-.141.709-.018.143-.057.814-.098.994-.021.07-.078.158-.157.158-.099 0-.138-.07-.138-.195 0-.105-.021-.354-.099-.53-.118-.249-.297-.356-1.243-.462-.295-.035-2.305-.054-2.5-.054-.08 0-.1.054-.1.159v4.098c0 .106 0 .16.1.16.217 0 2.5 0 2.896-.037.413-.035.668-.052.847-.213.117-.105.195-.195.255-.195.061 0 .098.037.098.125 0 .089-.098.338-.137.833-.041.302-.078.87-.078.978 0 .123-.039.283-.158.283-.079 0-.116-.053-.116-.143 0-.143 0-.301-.079-.497-.061-.212-.217-.39-.889-.46-.473-.053-2.322-.071-2.62-.071-.099 0-.117.052-.117.106v1.26c0 .513-.021 2.27 0 2.57.04 1.012.354 1.205 2.067 1.205.455 0 1.281 0 1.733-.158.455-.178.691-.445.79-1.047.039-.178.079-.229.178-.229s.117.123.117.229c0 .105-.139 1.135-.236 1.453-.116.393-.295.393-.965.393-1.301 0-2.307-.037-3.017-.055-.728-.035-1.183-.035-1.438-.035-.039 0-.373 0-.746.019-.336.017-.729.034-1.006.034-.181 0-.275-.034-.275-.123 0-.055.04-.125.138-.125.157 0 .374-.053.532-.07.335-.055.373-.354.451-.799.1-.619.1-1.809.1-3.262l.002-2.661zM115.569 6.378c0 .09.039.141.119.195.255.125 1.145.23 1.911.23.414 0 .886-.018 1.301-.266.591-.354 1.043-1.152 1.043-2.305 0-1.88-1.142-2.963-2.996-2.963a8.23 8.23 0 0 0-1.239.09c-.08.035-.139.088-.139.176v4.843zm-1.498-1.275c0-2.342 0-2.768-.039-3.247-.039-.513-.14-.761-.707-.833a5.877 5.877 0 0 0-.594-.035c-.061 0-.139-.071-.139-.125 0-.086.078-.123.275-.123.791 0 1.951.037 2.051.037.178 0 1.635-.037 2.168-.037 1.103 0 2.324.089 3.229.656.435.283 1.202 1.01 1.202 2.058 0 1.116-.512 2.199-2.128 3.439 1.419 1.598 2.622 2.962 3.626 3.9.927.853 1.498.994 1.934 1.047.332.054.512.054.608.054.099 0 .157.069.157.125 0 .089-.098.123-.412.123h-1.086c-.984 0-1.416-.088-1.852-.302-.75-.354-1.38-1.082-2.363-2.217-.731-.814-1.5-1.791-1.871-2.199-.08-.069-.119-.088-.237-.088l-2.207-.035c-.08 0-.119.035-.119.123v.356c0 1.453 0 2.624.08 3.244.06.443.156.727.688.798.235.036.608.071.769.071.119 0 .138.07.138.125 0 .07-.078.123-.275.123-.943 0-2.049-.053-2.129-.053-.02 0-1.18.053-1.713.053-.179 0-.275-.034-.275-.123 0-.055.04-.125.138-.125.155 0 .374-.035.531-.071.336-.071.373-.354.452-.798.1-.62.1-1.809.1-3.262V5.103zM70.68 5.103c0-2.342 0-2.768-.038-3.247-.041-.513-.14-.761-.71-.833a5.837 5.837 0 0 0-.592-.035c-.059 0-.139-.071-.139-.125 0-.086.08-.123.276-.123.787 0 1.871.037 1.969.037.337 0 4.101.017 4.494 0 .335-.02.631-.02.788-.072.098-.02.178-.09.234-.09.08 0 .119.07.119.143 0 .105-.078.284-.138.709-.019.143-.04.814-.079.994-.019.07-.078.158-.156.158-.08 0-.139-.07-.139-.177 0-.124-.06-.373-.156-.567-.097-.195-.513-.443-1.183-.443l-2.837-.035c-.098 0-.139.035-.139.16V5.67c0 .088 0 .143.119.143l2.364-.018c.296 0 .552 0 .788-.018.413-.036.648-.09.809-.268.078-.088.156-.16.215-.16.08 0 .102.053.102.125 0 .089-.119.338-.16.833-.041.302-.06.904-.06 1.013 0 .142-.038.302-.156.302-.099 0-.118-.072-.118-.143-.02-.159-.041-.374-.117-.551-.08-.212-.356-.409-.888-.479-.435-.052-2.483-.033-2.778-.033-.099 0-.117.033-.117.141v1.207c0 1.488 0 2.677.078 3.262.06.443.156.727.631.799.256.035.631.07.789.07.099 0 .137.07.137.125 0 .07-.077.123-.275.123-.967 0-2.09-.053-2.168-.053-.099 0-1.183.053-1.715.053-.178 0-.275-.034-.275-.123 0-.055.041-.125.139-.125.158 0 .375-.053.529-.07.338-.055.377-.354.457-.799.098-.619.098-1.809.098-3.262V5.103h-.002zM83.051 7.797c0 2.216.039 3.121.354 3.388.276.248.945.354 2.307.354.904 0 1.674-.02 2.088-.463.218-.229.354-.549.412-.85.021-.107.082-.195.179-.195.079 0 .116.071.116.229 0 .162-.116 1.064-.254 1.508-.117.355-.178.41-1.103.41-1.241 0-2.209-.02-3.017-.055-.788-.018-1.379-.035-1.889-.035-.084 0-.377 0-.713.019-.355.017-.729.035-1.006.035-.177 0-.275-.035-.275-.124 0-.055.039-.125.139-.125.156 0 .376-.035.533-.071.334-.071.373-.354.453-.798.099-.621.099-1.809.099-3.262v-2.66c0-2.343 0-2.768-.04-3.247-.038-.513-.139-.761-.709-.833a5.867 5.867 0 0 0-.59-.035c-.061 0-.139-.071-.139-.125 0-.086.078-.123.274-.123.789 0 1.871.037 1.974.037.074 0 1.377-.037 1.908-.037.178 0 .276.037.276.123 0 .054-.08.107-.138.107-.117 0-.377.018-.574.034-.512.091-.609.32-.649.852-.019.479-.019.904-.019 3.247v2.695h.003zM61.934 7.763c0 1.454 0 2.642.079 3.262.058.444.137.728.669.798.236.036.63.071.789.071.118 0 .138.069.138.125 0 .069-.079.124-.276.124-.945 0-2.049-.055-2.147-.055-.08 0-1.281.055-1.794.055-.197 0-.276-.035-.276-.124 0-.056.04-.106.139-.106.158 0 .354-.035.513-.07.354-.072.452-.372.511-.816.079-.619.079-1.809.079-3.262V1.431l-2.501.035c-1.084.018-1.499.125-1.755.478-.196.269-.216.374-.274.479-.041.125-.099.143-.178.143a.123.123 0 0 1-.118-.125c0-.16.355-1.506.375-1.632.039-.088.118-.282.176-.282.119 0 .296.123.768.178.495.052 1.164.072 1.36.072h6.542c.574 0 .969-.037 1.244-.072.254-.036.414-.07.491-.07.078 0 .078.087.078.175 0 .462-.06 1.544-.06 1.722 0 .123-.077.195-.156.195s-.12-.055-.141-.267l-.021-.16c-.059-.461-.434-.797-2.088-.834l-2.167-.035.001 6.332zM46.285 6.378c0 .09.039.141.119.195.255.125 1.142.23 1.911.23.413 0 .885-.018 1.3-.266.591-.354 1.045-1.152 1.045-2.305 0-1.88-1.144-2.963-2.997-2.963-.511 0-1.064.054-1.239.09-.082.035-.139.088-.139.176v4.843zm-1.497-1.275c0-2.342 0-2.768-.041-3.247-.04-.513-.137-.761-.708-.833a5.799 5.799 0 0 0-.591-.035c-.058 0-.139-.071-.139-.125 0-.086.082-.123.276-.123.79 0 1.951.037 2.05.037.176 0 1.636-.037 2.167-.037 1.104 0 2.326.089 3.231.656.434.283 1.202 1.01 1.202 2.058 0 1.116-.512 2.199-2.127 3.439 1.418 1.598 2.62 2.962 3.625 3.9.926.853 1.5.994 1.932 1.047.335.054.514.054.611.054.099 0 .158.069.158.125 0 .089-.098.123-.415.123h-1.083c-.985 0-1.419-.088-1.853-.302-.749-.354-1.379-1.082-2.364-2.217-.73-.814-1.499-1.791-1.873-2.199-.079-.069-.119-.088-.237-.088l-2.205-.035c-.081 0-.119.035-.119.123v.356c0 1.453 0 2.624.078 3.244.061.443.159.727.69.798.236.036.61.071.77.071.118 0 .138.07.138.125 0 .07-.08.123-.277.123-.945 0-2.048-.053-2.127-.053-.021 0-1.182.053-1.714.053-.177 0-.276-.034-.276-.123 0-.055.041-.125.138-.125.156 0 .375-.035.532-.071.335-.071.375-.354.454-.798.099-.62.099-1.809.099-3.262V5.103h-.002z"/></g></symbol><symbol id="newsletter-icon" viewbox="0 0 21 17"><path d="M20.293 16.334H.654V.666h19.639v15.668zM1.689 15.299h17.568V1.701H1.689v13.598z"/><path d="M10.288 11.443L.965 1.351l.76-.702 8.59 9.298L19.58.635l.734.73z"/></symbol><symbol id="personalized-icon" viewbox="0 0 71 74"><title>Page 1</title><g fill="none" fill-rule="evenodd"><path d="M9.018 61.61l10.835-6.837c-.091-.965-.115-3.141.387-5.295.597-2.56 1.793-3.321 1.675-3.557-.234-.463-.39-3.71-.674-4.466a85.274 85.274 0 0 1-.45-1.222l-1.323-2.77c-.471-1.428-.85-1.307.042-2.04h3.725l3.898 4.78 2.48 3.678 4.425-.755 6.313-3.474s6.83-3.14 9.359-4.23h5.947c.282 1.038.036 2.064-.992 2.807-.8.574-3.812 1.992-5.201 3.172-1.387 1.18-9.841 9.936-9.841 9.936l-5.81 4.435-5.375 4.148-8.884 12.586c-4.421-1.616-9.146-6.504-10.536-10.897"/><path d="M9.018 61.61l10.835-6.837c-.091-.965-.115-3.141.387-5.295.597-2.56 1.793-3.321 1.675-3.557-.234-.463-.39-3.71-.674-4.466a85.274 85.274 0 0 1-.45-1.222l-1.323-2.77c-.471-1.428-.85-1.307.042-2.04h3.725l3.898 4.78 2.48 3.678 4.425-.755 6.313-3.474s6.83-3.14 9.359-4.23h5.947c.282 1.038.036 2.064-.992 2.807-.8.574-3.812 1.992-5.201 3.172-1.387 1.18-9.841 9.936-9.841 9.936l-5.81 4.435-5.375 4.148-8.884 12.586c-4.421-1.616-9.146-6.504-10.536-10.897z" stroke="#000" stroke-linejoin="round"/><path d="M2.082 35.225A1.576 1.576 0 0 1 .5 33.658c0-.865.71-1.564 1.582-1.564h66.751c.872 0 1.582.7 1.582 1.564 0 .864-.71 1.567-1.582 1.567H2.082z"/><path d="M2.082 35.225A1.576 1.576 0 0 1 .5 33.658c0-.865.71-1.564 1.582-1.564h66.751c.872 0 1.582.7 1.582 1.564 0 .864-.71 1.567-1.582 1.567H2.082z" stroke="#000" stroke-linejoin="round"/><path d="M62.944 28.8c.903 0 1.752.774 1.752 1.67 0 .895-.735 1.624-1.639 1.624h-55.2a1.634 1.634 0 0 1-1.639-1.625c0-.896.785-1.608 1.687-1.608C9.41 15.566 21.172 5.231 35.4 5.231c14.184 0 25.982 10.332 27.544 23.57"/><path d="M62.944 28.8c.903 0 1.752.774 1.752 1.67 0 .895-.735 1.624-1.639 1.624h-55.2a1.634 1.634 0 0 1-1.639-1.625c0-.896.785-1.608 1.687-1.608C9.41 15.566 21.172 5.231 35.4 5.231c14.184 0 25.982 10.332 27.544 23.57z" stroke="#000" stroke-linejoin="round"/><path d="M15.47 21.92c2.349-4.633 6.497-8.27 11.564-10.082"/><path d="M15.47 21.92c2.349-4.633 6.497-8.27 11.564-10.082" stroke="#000" stroke-linecap="round" stroke-linejoin="round"/><path d="M13.566 28.848h43.781"/><path d="M13.566 28.848h43.781" stroke="#000" stroke-linecap="round" stroke-linejoin="round"/><path d="M37.68 2.747c0 1.211-.994 2.194-2.223 2.194-1.227 0-2.222-.983-2.222-2.194 0-1.211.995-2.194 2.222-2.194 1.229 0 2.224.983 2.224 2.194"/><path d="M37.68 2.747c0 1.211-.994 2.194-2.223 2.194-1.227 0-2.222-.983-2.222-2.194 0-1.211.995-2.194 2.222-2.194 1.229 0 2.224.983 2.224 2.194z" stroke="#000"/></g></symbol><symbol id="phone-icon" viewbox="0 0 22 22"><title>Page 1</title><path d="M6.175 13.814c3.13 3.788 10.759 7.418 12.6 6.603 1.841-.816 2.236-2.578 2.157-3.394-.079-.815-4.261-3.314-5.314-3.787-1.052-.474-2.262 1.052-2.84 1.71-.606.63-2.92-1.29-3.92-2.263 0 0-2.63-2.946-2.025-3.577.605-.632 2.104-1.894 1.578-2.92s-3.183-5.13-4.025-5.182c-.815-.053-2.551.42-3.288 2.288-.736 1.868 2.788 8.997 6.708 11.97" stroke="#919191" fill="none" fill-rule="evenodd"/></symbol><symbol id="pi" viewbox="0 0 13 16"><path d="M5.344 10.582c-.439 2.203-.975 4.314-2.563 5.418-.49-3.329.72-5.83 1.282-8.484-.958-1.543.115-4.65 2.135-3.884 2.486.941-2.152 5.738.96 6.337 3.252.625 4.578-5.4 2.562-7.359-2.911-2.83-8.477-.065-7.792 3.986.167.991 1.235 1.291.427 2.658C.491 8.857-.066 7.45.006 5.573.121 2.502 2.889.351 5.664.053c3.51-.376 6.805 1.234 7.26 4.396.512 3.568-1.584 7.434-5.338 7.155-1.018-.075-1.445-.557-2.242-1.022"/></symbol><symbol id="pin" viewbox="0 0 10 14"><g stroke="#414141" fill="none" fill-rule="evenodd"><path d="M5 6.538c-.74 0-1.333-.625-1.333-1.384 0-.77.602-1.385 1.333-1.385.73 0 1.333.626 1.333 1.385 0 .77-.602 1.384-1.333 1.384z" stroke-width="1.35" fill="#414141"/><path d="M5.013 13C4.213 12.322 1 9.315 1 5.306 1 2.934 2.797 1 5 1h.013c1.023 0 1.954.41 2.676 1.2C8.528 3.104 9 4.402 9 5.772c0 3.6-3.2 6.55-3.987 7.228z" stroke-width="1.5"/></g></symbol><symbol id="romance" viewbox="0 0 17 15"><path d="M8.08 8.952c-.18 0-.363-.014-.548-.042-1.503-.228-2.821-1.333-3.616-3.029-1.342-2.858-.046-4.503.383-4.94.128-.13.216-.193.216-.193a.776.776 0 0 1 .758-.086.736.736 0 0 1 .437.626c.004.033.064.425.68.568 1.225.28 3.853 2.477 4.38 4.229.285.948-.081 1.555-.325 1.832a2.014 2.014 0 0 1-.119.127c-.575.585-1.375.908-2.246.908zm-3.151-7.64a1.326 1.326 0 0 0-.13.12c-.35.355-1.399 1.703-.249 4.151.694 1.481 1.82 2.442 3.088 2.635.85.13 1.652-.118 2.195-.67.033-.032.06-.062.085-.091.265-.301.325-.693.183-1.17-.451-1.495-2.839-3.514-3.867-3.749-1.098-.254-1.212-1.097-1.221-1.192l-.084-.034z"/><path d="M6.906 11.438c-.046 0-.094-.002-.141-.004-2.608-.135-4.385-3.801-4.867-4.922-.165-.376-.64-.762-.793-.868a.748.748 0 0 1-.326-.631.782.782 0 0 1 .325-.625c.852-.619 2.037-1.009 2.506-1.147a.363.363 0 0 1 .448.228.339.339 0 0 1-.212.433c-.473.139-1.567.496-2.332 1.054l-.012.112c.031.021.758.527 1.038 1.165.443 1.029 2.056 4.388 4.261 4.501.732.048 1.426-.337 2.244-1.215.334-.358.585-.761.902-1.27a.347.347 0 0 1 .481-.112.348.348 0 0 1 .112.481c-.324.521-.604.971-.984 1.378-.923.991-1.747 1.442-2.65 1.442z"/><path d="M16.018 14.472a.358.358 0 0 1-.072-.007c-3.746-.793-6.109-2.375-6.655-4.456a.348.348 0 0 1 .132-.477.358.358 0 0 1 .483.13c.016.027.053.138.061.169.476 1.812 2.65 3.214 6.123 3.948.189.04.311.227.271.415a.352.352 0 0 1-.343.278z"/><path d="M13.035 13.405a.755.755 0 0 1-.61-.308c-2.423-3.316-.902-5.829.22-7.032a7.186 7.186 0 0 1 1.642-1.32.756.756 0 0 1 1.039.304c1.911 3.618.413 6.072-.65 7.212a6.076 6.076 0 0 1-1.245 1.035.789.789 0 0 1-.396.109zm1.667-8.029c-.109 0-.839.408-1.546 1.167-.975 1.045-2.292 3.231-.167 6.142l.046.021a.071.071 0 0 0 .037-.01c.09-.055.572-.355 1.091-.911.937-1.004 2.252-3.173.543-6.408l-.004-.001z"/><path d="M12.646 13.193a.351.351 0 0 1-.342-.426l.909-4.076a.355.355 0 0 1 .418-.266.351.351 0 0 1 .266.418l-.909 4.076a.35.35 0 0 1-.342.274z"/></symbol><symbol id="sc" viewbox="25.251 26.227 49.446 47.168"><path d="M72.868 61.091c-.486-.125-1-.194-1.473-.375-3.943-1.444-6.443-4.36-8.068-8.11-.293-.681-.111-1.306.485-1.723a5.236 5.236 0 0 1 1.278-.639c1.25-.43 2.527-.792 3.458-1.805.694-.764.667-1.639-.111-2.32-.931-.819-1.972-1.028-3.139-.486-.75.347-1.528.542-2.236.333 0-2.292.028-4.472-.014-6.667-.015-.986-.097-2-.361-2.944-.819-2.861-2.528-5.125-5.056-6.708-3.736-2.347-7.792-2.611-11.958-1.5-4.833 1.292-8.889 5.958-8.75 11.333.056 2.125.014 4.25.014 6.417-.681.236-1.306.208-2.458-.278a2.714 2.714 0 0 0-2.083-.069c-1.556.556-1.875 2.042-.667 3.139.25.236.542.458.847.597.833.347 1.667.68 2.514.972 1.556.528 2.069 1.458 1.389 2.833-1.973 4.015-4.792 7.056-9.389 8-.806.152-1.181.875-.778 1.57.278.472.722.889 1.194 1.193 1.389.889 3.028 1.057 4.598 1.403.208.056.472.278.542.485.194.515.292 1.057.431 1.598.153.639.528 1.027 1.222.973.653-.042 1.292-.139 1.931-.209 1.694-.166 3.402-.291 4.958.528 1 .528 1.917 1.208 2.847 1.847 1.736 1.195 3.611 1.932 5.736 2 2.723.098 5-.986 7.07-2.597 1.736-1.333 3.639-2.069 5.847-1.847.986.097 1.972.222 2.958.305.598.056 1.042-.208 1.236-.791.125-.389.292-.792.32-1.195.068-.818.5-1.068 1.264-1.236a24.398 24.398 0 0 0 3.818-1.139c.543-.222 1.057-.764 1.375-1.277.459-.736.057-1.402-.791-1.611z"/></symbol><symbol id="search-icon" viewbox="0 0 18 18"><path d="M7.671 14.769C3.807 14.769.663 11.6.663 7.706.663 3.812 3.807.644 7.671.644s7.009 3.168 7.009 7.062-3.145 7.063-7.009 7.063zm0-13.091c-3.293 0-5.973 2.704-5.973 6.027 0 3.324 2.68 6.028 5.973 6.028 3.294 0 5.974-2.704 5.974-6.028 0-3.324-2.68-6.027-5.974-6.027z"/><path d="M12.365 11.704l4.868 4.91-.734.728-4.869-4.91z"/></symbol><symbol id="second-logo" viewbox="0 0 100 100"><path d="M50 99.377C22.772 99.377.622 77.227.622 49.999.622 22.772 22.773.623 50 .623s49.377 22.149 49.377 49.376C99.378 77.227 77.228 99.377 50 99.377zm0-97.035c-26.28 0-47.66 21.379-47.66 47.657 0 26.28 21.38 47.66 47.66 47.66 26.279 0 47.659-21.38 47.659-47.66 0-26.278-21.38-47.657-47.659-47.657z"/><path d="M33.523 60.813c-.656-.296-.71-.444-.71-1.574 0-2.067.218-3.748.272-4.433 0-.441.109-.688.384-.688.271 0 .436.144.436.489 0 .344 0 .937.165 1.528.767 3.056 4.377 4.138 7.604 4.138 4.763 0 7.223-2.416 7.223-5.566 0-3.004-1.805-4.431-6.073-7.288l-2.189-1.475c-5.194-3.495-6.893-6.056-6.893-8.965 0-4.917 4.324-7.874 10.671-7.874 1.914 0 3.827.246 4.976.49.933.196 1.314.196 1.696.196.385 0 .496.056.496.295 0 .2-.221 1.577-.221 4.435 0 .636-.057.935-.382.935-.329 0-.388-.196-.439-.54-.055-.497-.438-1.626-.713-2.07-.326-.491-1.915-2.07-6.235-2.07-3.501 0-6.401 1.579-6.401 4.533 0 2.659 1.477 4.187 6.236 7.09l1.369.84c5.854 3.59 7.879 6.496 7.879 10.089 0 2.46-1.043 5.121-4.488 7.143-2.025 1.18-5.034 1.474-7.661 1.474-2.24-.001-5.035-.295-7.002-1.132"/><path d="M66.708 41.835c-.147 0-.341.174-.584.22-.393.131-1.129.131-1.961.181-.977.042-10.333 0-11.171 0-.242 0-2.936-.092-4.894-.092-.49 0-.688.092-.688.307 0 .134.198.309.346.309.391 0 1.127.044 1.47.089 1.419.18 1.661.796 1.763 2.072.052.651.076 1.265.087 2.633 1.519 1.809 2.162 3.598 2.262 5.553.086 1.741-.619 3.918-2.254 5.764v.732c0 3.616 0 6.567-.243 8.11-.196 1.103-.295 1.848-1.134 1.983-.384.047-.923.175-1.317.175-.244 0-.342.178-.342.309 0 .223.243.311.683.311 1.326 0 4.02-.133 4.262-.133.196 0 2.99.133 5.391.133.493 0 .685-.133.685-.311 0-.131-.094-.309-.341-.309-.393 0-1.324-.089-1.961-.175-1.176-.178-1.42-.881-1.564-1.983-.193-1.456-.193-4.409-.193-8.11v-2.998c0-.267.048-.353.289-.353.734 0 5.826-.045 6.909.086 1.319.175 2.005.659 2.203 1.189.189.441.245.973.292 1.371 0 .173.049.347.294.347.293 0 .391-.393.391-.745 0-.268.044-1.765.146-2.517.099-1.231.396-1.851.396-2.068 0-.182-.054-.311-.248-.311-.147 0-.339.18-.535.397-.395.439-.981.572-2.009.66-.587.047-1.228.047-1.958.047l-5.881.043c-.289 0-.289-.134-.289-.353V44.173c0-.312.095-.398.338-.398l7.056.087c1.662 0 2.697.617 2.939 1.104.245.481.391 1.103.391 1.41 0 .263.143.44.341.44s.346-.218.389-.396c.1-.443.153-2.116.2-2.47.146-1.057.342-1.5.342-1.765-.003-.176-.1-.35-.298-.35z"/></symbol><symbol id="ski" viewbox="0 0 18 9"><path d="M13.01 8.315c-.446 0-.921-.101-1.337-.284-.512-.256-.883-.794-1.22-1.324-.42-.628-.801-1.198-1.454-1.198-.652 0-1.034.57-1.437 1.174-.353.554-.724 1.092-1.221 1.341-1.368.605-2.982.189-3.808-.912-.154-.206-.25-.472-.354-.836l-.014-.096c-.269-.929-.273-2.45.64-3.504C4.335.926 6.686.684 8.999.684s4.664.241 6.194 1.99c.899 1.039.909 2.527.641 3.51l-.014.092c-.101.352-.2.629-.354.836a3.076 3.076 0 0 1-2.456 1.203zM8.999 4.809c1.027 0 1.577.823 2.02 1.484.31.486.615.937.952 1.104a2.64 2.64 0 0 0 1.039.219c.764 0 1.455-.337 1.896-.924.09-.12.163-.339.229-.563l.013-.089c.252-.878.2-2.118-.482-2.906-1.345-1.538-3.519-1.75-5.666-1.75s-4.32.212-5.666 1.751c-.683.788-.735 2.027-.482 2.905l.014.097c.056.188.133.429.228.556.636.847 1.918 1.155 2.948.698.323-.161.628-.612.912-1.059.468-.7 1.019-1.523 2.045-1.523z"/><path d="M10.107.917l2.416 6.814-.66.234-2.416-6.813zM11.711 1.072L14.032 7.8l-.661.228-2.322-6.726zM2.417 6.037H1.28a.597.597 0 0 1-.597-.596V3.285c0-.329.268-.596.597-.596h1.615v.7H1.383v1.949h1.034v.699zM16.732 6.037h-1.137v-.699h1.033V3.389h-1.512v-.7h1.615c.329 0 .596.268.596.596v2.156a.593.593 0 0 1-.595.596z"/></symbol><symbol id="slider-arrow" viewbox="0 0 25 17"><g stroke="#FFF" stroke-width="1.5" fill="none" fill-rule="evenodd"><path d="M16 16.417l7.862-7.709L16 1"/><path d="M22.862 8.5H1.734" stroke-linecap="square"/></g></symbol><symbol id="star" viewbox="0 0 12 12"><path d="M5.906 0L7.73 3.698l4.081.593L8.858 7.17l.697 4.064-3.65-1.92-3.65 1.92.698-4.064L0 4.291l4.081-.593L5.906 0z"/></symbol><symbol id="taste-icon" viewbox="0 0 67 71"><title>Page 1</title><g fill="none" fill-rule="evenodd"><path d="M29.814 69.533c-14.885 0-26.994-14.097-26.994-31.43 0-3.064.385-6.041 1.119-8.928 3.071 5.233 12.184 9.044 23.508 9.505.783.04 1.57.065 2.367.065.796 0 1.581-.025 2.366-.05 11.323-.476 20.437-4.287 23.508-9.508a35.985 35.985 0 0 1 1.12 8.916c0 17.333-12.112 31.43-26.994 31.43" stroke="#000" stroke-linejoin="round"/><path d="M55.838 29.368c-3.09-5.222-12.256-9.032-23.646-9.507a71.404 71.404 0 0 0-2.377-.051c-.801 0-1.593.025-2.38.065-11.392.461-20.557 4.271-23.645 9.505" stroke="#000"/><path d="M8.773 29.162c2.423 3.391 10.237 5.37 19.174 5.669.618.026 1.238.042 1.868.042.628 0 1.246-.016 1.865-.034 8.935-.308 16.599-2.293 19.022-5.677-2.423-3.386-10.087-6.3-19.022-6.606a64.692 64.692 0 0 0-1.865-.034c-.63 0-1.25.017-1.868.042-8.937.299-16.751 3.205-19.174 6.598z" stroke="#000" stroke-linecap="round" stroke-linejoin="round"/><path d="M38.821 30.516c-.768-.25-1.27-.884-1.106-1.378L47.04 1.754c.137-.438.48-.787.92-.937a1.48 1.48 0 0 1 1.306.179L65.567 8.85a1.44 1.44 0 0 1 .37 2.011 1.473 1.473 0 0 1-2.036.365l-14.663-6.73-8.732 25.498c-.122.369-.915.772-1.685.522" fill="#FFF"/><path d="M38.821 30.516c-.768-.25-1.27-.884-1.106-1.378L47.04 1.754c.137-.438.48-.787.92-.937a1.48 1.48 0 0 1 1.306.179L65.567 8.85a1.44 1.44 0 0 1 .37 2.011 1.473 1.473 0 0 1-2.036.365l-14.663-6.73-8.732 25.498c-.122.369-.915.772-1.685.522z" stroke="#000"/><path d="M11.82 15.398L16.99 29.59" stroke="#000" stroke-linecap="round"/><path d="M18.168 59.166c-3.69-2.627-6.625-6.56-8.328-11.242M28.955 62.695c-3.95 0-7.644-1.29-10.787-3.529" stroke="#000" stroke-linecap="round" stroke-linejoin="round"/><path d="M22.934 11.655c-1.947-5.032-8.8-8.27-14.852-5.977C2.03 7.97-.886 14.907 1.083 19.995c-.228-1.374.575-2.746 1.94-3.263 1.328-.503 2.773.049 3.55 1.15-.229-1.372.522-2.692 1.887-3.21 1.325-.5 2.774.05 3.55 1.153-.23-1.374.522-2.694 1.887-3.212 1.327-.502 2.772.049 3.55 1.153-.231-1.373.52-2.694 1.886-3.212a3.107 3.107 0 0 1 3.601 1.1z" stroke="#000" stroke-linejoin="round"/><path d="M23.41 26.974c0 .27-.219.49-.493.49a.492.492 0 0 1-.495-.49c0-.27.222-.49.495-.49.274 0 .494.22.494.49M21.535 29.757c0 .27-.22.49-.494.49a.492.492 0 0 1-.494-.49c0-.27.22-.49.494-.49a.49.49 0 0 1 .494.49M25.287 29.757c0 .27-.222.49-.494.49a.492.492 0 0 1-.495-.49c0-.27.222-.49.495-.49.272 0 .494.22.494.49" fill="#000"/></g></symbol><symbol id="tips" viewbox="0 0 27 27"><title>Page 1</title><g fill="#000" fill-rule="evenodd" opacity=".476"><path d="M26.036 26.036H.964v-1.447h25.072v1.447zM2.41 23.114a3.863 3.863 0 0 0 3.346-3.346h15.486a3.863 3.863 0 0 0 3.346 3.346v.511H2.411v-.511zm9.643-5.275h2.892v.965h-2.892v-.965zm-6.268-.964v-5.304c0-4.252 3.462-7.714 7.714-7.714 4.253 0 7.714 3.462 7.714 7.714v5.304H5.786zm19.768 6.75v-1.446h-.483a2.895 2.895 0 0 1-2.892-2.893v-.482H15.91v-.965h6.268v-6.268c0-4.623-3.636-8.403-8.197-8.654V.964h1.929V0h-4.822v.964h1.929v1.953c-4.561.25-8.197 4.03-8.197 8.654v6.268h6.268v.965H4.821v.482a2.895 2.895 0 0 1-2.892 2.893h-.483v1.446H0V27h27v-3.375h-1.446z"/><path d="M6.75 11.571h.964A5.79 5.79 0 0 1 13.5 5.786V4.82a6.757 6.757 0 0 0-6.75 6.75"/></g></symbol><symbol id="towel-icon" viewbox="0 0 72 64"><title>Page 1</title><g stroke="#000" fill="none" fill-rule="evenodd"><path d="M8.672 7.8c0 1.97-1.618 3.565-3.611 3.565-1.994 0-3.612-1.595-3.612-3.564 0-1.968 1.618-3.564 3.612-3.564 1.993 0 3.611 1.596 3.611 3.564zM70.595 7.8c0 1.97-1.618 3.565-3.611 3.565-1.994 0-3.612-1.595-3.612-3.564 0-1.968 1.618-3.564 3.612-3.564 1.993 0 3.611 1.596 3.611 3.564z"/><path d="M10.272 9.453v15.112h9.096L19.363 5.93c0-2.477-2.036-4.486-4.546-4.486-2.51 0-4.545 2.009-4.545 4.486" stroke-linejoin="round"/><path d="M14.817 1.473h39.398c2.822 0 4.413 1.836 4.413 4.854l.016 56.39h-39.3V24.45" stroke-linejoin="round"/><path d="M39.084 19.915l2.506 5.01 5.601.803-4.053 3.9.956 5.507-5.01-2.6-5.01 2.6.956-5.507-4.053-3.9 5.602-.802 2.505-5.01zM19.475 48.254h39.32M19.475 53.791h39.017M58.946 5.883h5.052M8.198 5.883h11.536M58.946 9.822h5.052M8.198 9.822h11.536"/></g></symbol><symbol id="tw" viewbox="0 0 15 13"><path d="M12.997 2.408A3.095 3.095 0 0 0 14.293.689a5.71 5.71 0 0 1-1.871.754A2.878 2.878 0 0 0 10.27.462c-1.627 0-2.947 1.391-2.947 3.107 0 .244.026.48.076.708C4.95 4.147 2.777 2.91 1.324 1.03a3.22 3.22 0 0 0-.399 1.562c0 1.078.521 2.029 1.311 2.586A2.827 2.827 0 0 1 .901 4.79v.039c0 1.505 1.017 2.761 2.365 3.046a2.823 2.823 0 0 1-1.332.053c.375 1.234 1.464 2.133 2.753 2.157a5.72 5.72 0 0 1-4.364 1.287 8.032 8.032 0 0 0 4.519 1.396c5.421 0 8.386-4.734 8.386-8.841 0-.134-.004-.269-.009-.402a6.188 6.188 0 0 0 1.47-1.608 5.587 5.587 0 0 1-1.692.491z"/></symbol><symbol id="website" viewbox="10 0 80 79.964"><path d="M83.656 6.379c-8.612-8.614-22.438-8.324-30.833.073l-9.989 9.988c5.863-1.881 10.422-.579 14.404 1.085l2.896-2.895c4.126-4.125 11.001-3.909 15.056.145 4.125 4.125 4.414 11.074.289 15.2L62.016 43.438c-1.521 1.52-3.258 2.389-5.211 2.895-5.212.724-10.206-1.881-12.088-6.441l-8.831 8.54c6.08 9.192 18.675 12.304 28.662 6.66 1.665-.869 3.257-2.172 4.705-3.619l14.331-14.332c8.396-8.396 8.687-22.148.072-30.762zM36.03 24.402c-1.737.869-3.33 2.171-4.705 3.619l-14.91 14.838c-8.396 8.396-8.686 22.148-.072 30.762s22.438 8.324 30.834-.072l9.988-9.988c-5.863 1.881-10.423.578-14.404-1.086l-2.896 2.895c-4.125 4.126-11.001 3.909-15.055-.145-4.125-4.125-4.415-11.074-.29-15.2l13.97-13.97c1.52-1.52 3.257-2.389 5.211-2.895 5.211-.724 10.206 1.881 12.086 6.441l8.904-8.541c-6.15-9.191-18.745-12.304-28.661-6.658z"/></symbol><symbol id="wellness" viewbox="0 0 21 12"><path d="M8.24 11.214c-1.513 0-2.825-.317-3.898-.943C2.208 9.029 1.151 6.618.796 5.64l-.101-.28.292-.052a10.72 10.72 0 0 1 1.855-.161 9.34 9.34 0 0 1 1.611.133l.163.028.039.162c.16.692.407 1.333.734 1.904.986 1.721 2.649 2.757 3.869 3.323l.848.393-.931.083c-.28.025-.596.041-.935.041zM1.374 5.752C1.791 6.8 2.781 8.784 4.593 9.838c.987.575 2.2.869 3.606.875-1.134-.646-2.41-1.636-3.244-3.092a7.371 7.371 0 0 1-.748-1.875c-.958-.147-2.138-.095-2.833.006z"/><path d="M10.148 10.883l-.854-.403C8.11 9.921 6.502 8.91 5.562 7.269c-1.229-2.148-.95-4.769-.773-5.796l.051-.297.282.104c.64.236 1.881.774 3.015 1.726l.126.105-.048.159a7.048 7.048 0 0 0-.308 2.018c0 1.982.924 3.717 1.699 4.822l.542.773zM5.234 1.86c-.157 1.121-.281 3.336.762 5.16.673 1.174 1.724 2.007 2.683 2.57-.66-1.129-1.271-2.627-1.271-4.302 0-.654.095-1.327.283-2.001A9.996 9.996 0 0 0 5.234 1.86z"/><path d="M10.506 10.93l-.192-.232c-.663-.8-2.205-2.929-2.205-5.409 0-2.482 1.542-4.61 2.205-5.41l.192-.232.192.232c.663.799 2.204 2.926 2.204 5.41s-1.541 4.61-2.204 5.409l-.192.232zm0-10.492c-.692.89-1.897 2.744-1.897 4.85 0 2.105 1.205 3.96 1.897 4.851.691-.891 1.896-2.743 1.896-4.851s-1.205-3.96-1.896-4.85z"/><path d="M10.858 10.893l.542-.773c.778-1.107 1.705-2.845 1.705-4.832 0-.655-.103-1.331-.306-2.009l-.047-.157.125-.105c1.134-.957 2.382-1.498 3.025-1.735l.282-.104.051.296c.177 1.027.455 3.648-.773 5.798-.941 1.642-2.56 2.657-3.751 3.219l-.853.402zm2.466-7.598a7.43 7.43 0 0 1 .281 1.993c0 1.68-.614 3.181-1.276 4.312.966-.565 2.025-1.402 2.7-2.578 1.043-1.825.919-4.042.762-5.162a9.947 9.947 0 0 0-2.467 1.435z"/><path d="M12.784 11.215c-.339 0-.653-.016-.936-.041l-.93-.083.847-.393c1.222-.567 2.886-1.604 3.871-3.323a7.046 7.046 0 0 0 .733-1.904l.037-.162.163-.028a9.44 9.44 0 0 1 1.611-.133c.78 0 1.44.088 1.856.162l.293.052-.102.28c-.356.978-1.413 3.387-3.547 4.631-1.074.624-2.385.942-3.896.942zm4.033-5.468a7.473 7.473 0 0 1-.747 1.876c-.833 1.455-2.11 2.446-3.245 3.092 1.403-.006 2.617-.3 3.605-.874 1.812-1.057 2.803-3.039 3.221-4.087-.699-.1-1.878-.153-2.834-.007z"/></symbol></svg>