<svg xmlns="http://www.w3.org/2000/svg" width="17" height="15" viewBox="0 0 17 15"><path d="M8.08 8.952c-.18 0-.363-.014-.548-.042-1.503-.228-2.82-1.333-3.616-3.03C2.574 3.024 3.87 1.38 4.3.94c.127-.13.215-.192.215-.192.215-.16.516-.193.758-.086.252.112.42.352.437.626.004.033.064.425.68.568 1.225.28 3.853 2.477 4.38 4.23.285.947-.08 1.554-.325 1.83-.037.044-.077.087-.12.128-.574.585-1.374.908-2.245.908zm-3.15-7.64c-.008.005-.06.046-.13.12-.35.355-1.4 1.703-.25 4.15.694 1.482 1.82 2.443 3.088 2.636.85.13 1.652-.118 2.195-.67.033-.032.06-.062.085-.09.265-.302.325-.694.183-1.17-.45-1.496-2.838-3.515-3.866-3.75-1.098-.254-1.212-1.097-1.22-1.192l-.085-.034z" id="Stroke-1"/><path d="M6.906 11.438c-.046 0-.094-.002-.14-.004-2.61-.135-4.386-3.8-4.868-4.922-.165-.376-.64-.762-.793-.868-.208-.142-.33-.378-.326-.63 0-.247.123-.482.324-.626.852-.62 2.037-1.01 2.506-1.147.182-.054.39.045.448.23.057.182-.03.372-.212.432-.473.14-1.567.496-2.332 1.054l-.012.112c.03.02.758.527 1.038 1.165.443 1.03 2.056 4.388 4.26 4.5.733.05 1.427-.336 2.245-1.214.334-.36.585-.762.902-1.27.103-.167.32-.216.48-.113.165.102.216.317.113.48-.324.522-.604.972-.984 1.38-.923.99-1.747 1.44-2.65 1.44z" id="Stroke-3"/><path d="M16.018 14.472c-.023 0-.048-.002-.072-.007-3.746-.793-6.11-2.375-6.655-4.456-.098-.17-.035-.38.133-.478.167-.096.386-.036.483.13.016.027.053.138.06.17.477 1.81 2.65 3.213 6.124 3.947.19.04.31.226.27.414-.035.165-.18.278-.342.278z" id="Stroke-5"/><path d="M13.035 13.405c-.24 0-.47-.115-.61-.308-2.423-3.316-.902-5.83.22-7.032.798-.856 1.607-1.3 1.642-1.32.164-.094.384-.123.577-.068.2.057.367.192.462.372 1.91 3.617.413 6.07-.65 7.21-.567.61-1.097.947-1.245 1.036-.126.073-.26.11-.395.11zm1.667-8.03c-.11 0-.84.41-1.546 1.168-.975 1.045-2.292 3.23-.167 6.142l.045.02c.013 0 .025-.002.037-.01.09-.054.572-.354 1.09-.91.938-1.004 2.253-3.173.544-6.408h-.004z" id="Stroke-7"/><path d="M12.646 13.193c-.025 0-.05-.002-.076-.008-.188-.042-.308-.23-.266-.418l.91-4.076c.04-.187.232-.305.417-.265.19.042.31.23.267.418l-.91 4.076c-.036.163-.18.273-.34.273z" id="Stroke-9"/></svg>