<svg xmlns="http://www.w3.org/2000/svg" width="49.446" height="47.168" viewBox="25.251 26.227 49.446 47.168" enable-background="new 25.251 26.227 49.446 47.168"><path d="M72.868 61.09c-.486-.124-1-.193-1.473-.374-3.943-1.444-6.443-4.36-8.068-8.11-.293-.68-.11-1.306.485-1.723.375-.264.833-.486 1.278-.64 1.25-.43 2.527-.79 3.458-1.804.694-.765.667-1.64-.11-2.32-.932-.82-1.973-1.03-3.14-.487-.75.347-1.528.542-2.236.333 0-2.292.028-4.472-.014-6.667-.015-.987-.097-2-.36-2.945-.82-2.86-2.53-5.125-5.057-6.708-3.735-2.347-7.79-2.61-11.957-1.5-4.833 1.292-8.89 5.958-8.75 11.333.056 2.125.014 4.25.014 6.417-.68.236-1.306.208-2.458-.278-.71-.306-1.376-.32-2.084-.07-1.556.556-1.875 2.042-.667 3.14.25.235.54.457.846.596.833.347 1.667.68 2.514.972 1.556.528 2.07 1.458 1.39 2.833-1.974 4.016-4.793 7.057-9.39 8-.806.153-1.18.876-.778 1.57.278.473.722.89 1.194 1.194 1.39.89 3.028 1.057 4.598 1.403.208.056.472.278.542.485.194.515.292 1.057.43 1.598.154.64.53 1.027 1.223.973.652-.042 1.29-.14 1.93-.21 1.694-.165 3.402-.29 4.958.53 1 .527 1.917 1.207 2.847 1.846 1.736 1.194 3.61 1.93 5.736 2 2.724.097 5-.987 7.07-2.598 1.737-1.333 3.64-2.07 5.848-1.847.986.097 1.972.222 2.958.305.598.056 1.042-.208 1.236-.79.125-.39.292-.793.32-1.196.068-.818.5-1.068 1.264-1.236 1.29-.277 2.583-.652 3.818-1.14.543-.22 1.057-.763 1.375-1.276.458-.736.056-1.402-.792-1.61z"/></svg>