<svg xmlns="http://www.w3.org/2000/svg" width="100" height="100" viewBox="0 0 100 100"><path d="M50 99.377C22.772 99.377.622 77.227.622 50S22.772.622 50 .622C77.227.623 99.377 22.773 99.377 50c0 27.227-22.15 49.377-49.377 49.377zm0-97.035C23.72 2.342 2.34 23.722 2.34 50c0 26.28 21.38 47.66 47.66 47.66 26.28 0 47.66-21.38 47.66-47.66C97.66 23.72 76.28 2.34 50 2.34zM33.523 60.813c-.656-.296-.71-.444-.71-1.574 0-2.068.218-3.75.272-4.434 0-.44.11-.688.384-.688.27 0 .435.144.435.49 0 .343 0 .936.165 1.527.767 3.056 4.377 4.138 7.604 4.138 4.763 0 7.223-2.416 7.223-5.566 0-3.004-1.805-4.43-6.073-7.288l-2.19-1.476c-5.193-3.495-6.892-6.056-6.892-8.965 0-4.918 4.324-7.875 10.67-7.875 1.915 0 3.828.246 4.977.49.932.196 1.313.196 1.695.196.385 0 .496.057.496.296 0 .2-.22 1.577-.22 4.435 0 .637-.057.936-.382.936-.33 0-.388-.196-.44-.54-.054-.497-.437-1.626-.712-2.07-.326-.49-1.915-2.07-6.235-2.07-3.5 0-6.4 1.58-6.4 4.533 0 2.658 1.477 4.186 6.236 7.09l1.37.84c5.853 3.59 7.878 6.495 7.878 10.088 0 2.46-1.043 5.12-4.488 7.143-2.025 1.18-5.034 1.475-7.66 1.475-2.24 0-5.036-.295-7.003-1.132"/><path d="M66.708 41.835c-.147 0-.34.174-.584.22-.393.13-1.13.13-1.96.18-.978.043-10.334 0-11.172 0-.242 0-2.936-.09-4.894-.09-.49 0-.688.09-.688.306 0 .135.198.31.346.31.39 0 1.127.044 1.47.09 1.42.18 1.66.795 1.763 2.07.05.652.075 1.266.086 2.634 1.52 1.81 2.162 3.598 2.262 5.553.086 1.74-.62 3.918-2.254 5.764v.733c0 3.616 0 6.567-.243 8.11-.195 1.103-.294 1.848-1.133 1.983-.384.047-.923.175-1.317.175-.244 0-.342.18-.342.31 0 .223.243.31.683.31 1.327 0 4.02-.132 4.263-.132.196 0 2.99.133 5.39.133.494 0 .686-.132.686-.31 0-.13-.095-.31-.342-.31-.393 0-1.324-.088-1.96-.174-1.177-.178-1.42-.88-1.565-1.983-.193-1.456-.193-4.41-.193-8.11v-2.998c0-.267.048-.353.29-.353.733 0 5.825-.045 6.908.086 1.32.175 2.005.66 2.203 1.19.19.44.246.972.293 1.37 0 .173.05.347.294.347.293 0 .39-.393.39-.745 0-.268.045-1.765.147-2.517.1-1.23.396-1.85.396-2.068 0-.182-.054-.31-.248-.31-.147 0-.34.18-.535.396-.395.44-.98.573-2.01.66-.586.048-1.227.048-1.957.048l-5.88.043c-.29 0-.29-.133-.29-.352V44.173c0-.312.095-.398.338-.398l7.056.087c1.662 0 2.697.617 2.94 1.104.244.48.39 1.103.39 1.41 0 .263.143.44.34.44s.347-.218.39-.396c.1-.443.153-2.116.2-2.47.146-1.057.342-1.5.342-1.765-.003-.176-.1-.35-.298-.35z"/></svg>