<svg xmlns="http://www.w3.org/2000/svg" width="18" height="9" viewBox="0 0 18 9"><path d="M13.01 8.315c-.446 0-.92-.1-1.337-.284-.512-.255-.883-.793-1.22-1.323-.42-.628-.8-1.198-1.454-1.198-.653 0-1.035.57-1.438 1.173-.353.554-.724 1.092-1.22 1.34-1.37.606-2.983.19-3.81-.91-.153-.207-.25-.473-.353-.837l-.015-.096c-.27-.93-.273-2.45.64-3.504C4.335.926 6.685.684 9 .684s4.663.24 6.193 1.99c.9 1.04.91 2.527.64 3.51l-.013.092c-.1.352-.2.63-.354.836-.567.754-1.485 1.203-2.456 1.203zM9 4.81c1.026 0 1.576.822 2.02 1.483.31.486.614.937.95 1.104.314.14.69.22 1.04.22.764 0 1.455-.338 1.896-.925.09-.12.163-.34.23-.563l.012-.09c.252-.878.2-2.118-.482-2.906-1.345-1.538-3.52-1.75-5.666-1.75s-4.32.212-5.666 1.75c-.683.79-.735 2.028-.482 2.906l.014.097c.056.188.133.43.228.556.636.847 1.918 1.155 2.948.698.323-.16.628-.61.912-1.058.468-.7 1.02-1.523 2.045-1.523z" id="Stroke-1"/><path d="M10.107.917l2.416 6.814-.66.235-2.416-6.813z" id="Stroke-3"/><path d="M11.71 1.072L14.033 7.8l-.66.227L11.048 1.3z" id="Stroke-5"/><path d="M2.417 6.037H1.28c-.33 0-.597-.267-.597-.596V3.286c0-.33.268-.596.597-.596h1.615v.7H1.383v1.948h1.034v.7z" id="Stroke-7"/><path d="M16.732 6.037h-1.137v-.7h1.033V3.39h-1.512v-.7h1.615c.33 0 .597.267.597.595V5.44c0 .33-.265.597-.595.597z" id="Stroke-9"/></svg>