<svg width="67" height="71" viewBox="0 0 67 71" xmlns="http://www.w3.org/2000/svg"><title>Page 1</title><desc>Created with Sketch.</desc><g id="Page-1" fill="none"><path d="M29.814 69.533c-14.885 0-26.994-14.097-26.994-31.43 0-3.064.385-6.04 1.12-8.928 3.07 5.233 12.183 9.044 23.507 9.505.783.04 1.57.065 2.367.065.796 0 1.58-.025 2.366-.05 11.323-.476 20.437-4.287 23.508-9.508.73 2.862 1.12 5.852 1.12 8.916 0 17.333-12.112 31.43-26.994 31.43" id="Stroke-1" stroke="#000" stroke-linejoin="round"/><path d="M55.838 29.368c-3.09-5.222-12.256-9.032-23.646-9.507-.788-.025-1.577-.05-2.377-.05-.8 0-1.593.025-2.38.065-11.392.46-20.557 4.27-23.645 9.505" id="Stroke-3" stroke="#000"/><path d="M8.773 29.162c2.423 3.39 10.237 5.37 19.174 5.67.618.025 1.238.04 1.868.04.628 0 1.246-.015 1.865-.033 8.935-.31 16.6-2.294 19.022-5.678-2.423-3.386-10.087-6.3-19.022-6.606-.62-.017-1.237-.034-1.865-.034-.63 0-1.25.017-1.868.042-8.937.3-16.75 3.205-19.174 6.598z" id="Stroke-5" stroke="#000" stroke-linecap="round" stroke-linejoin="round"/><path d="M38.82 30.516c-.767-.25-1.268-.884-1.105-1.378L47.04 1.754c.136-.438.48-.787.92-.937.427-.146.922-.085 1.305.18L65.567 8.85c.66.454.827 1.355.37 2.01-.462.658-1.372.82-2.036.366L49.24 4.496l-8.732 25.498c-.122.37-.915.772-1.685.522" id="Fill-7" fill="#fff"/><path d="M38.82 30.516c-.767-.25-1.268-.884-1.105-1.378L47.04 1.754c.136-.438.48-.787.92-.937.427-.146.922-.085 1.305.18L65.567 8.85c.66.454.827 1.355.37 2.01-.462.658-1.372.82-2.036.366L49.24 4.496l-8.732 25.498c-.122.37-.915.772-1.685.522z" id="Stroke-9" stroke="#000"/><path d="M11.82 15.398l5.17 14.192" id="Stroke-11" stroke="#000" stroke-linecap="round"/><path d="M18.168 59.166c-3.69-2.627-6.625-6.56-8.328-11.242" id="Stroke-13" stroke="#000" stroke-linecap="round" stroke-linejoin="round"/><path d="M28.955 62.695c-3.95 0-7.644-1.29-10.787-3.53" id="Stroke-15" stroke="#000" stroke-linecap="round" stroke-linejoin="round"/><path d="M22.934 11.655c-1.947-5.032-8.8-8.27-14.852-5.977-6.053 2.293-8.968 9.23-7 14.317-.227-1.374.576-2.746 1.94-3.263 1.33-.503 2.774.05 3.55 1.15-.228-1.372.523-2.692 1.888-3.21 1.325-.5 2.774.05 3.55 1.153-.23-1.374.522-2.694 1.887-3.212 1.327-.502 2.772.05 3.55 1.153-.23-1.373.52-2.694 1.886-3.212 1.325-.502 2.826 0 3.6 1.1z" id="Stroke-17" stroke="#000" stroke-linejoin="round"/><path d="M23.41 26.974c0 .27-.22.49-.493.49s-.495-.22-.495-.49.222-.49.495-.49c.274 0 .494.22.494.49" id="Fill-19" fill="#000"/><path d="M21.535 29.757c0 .27-.22.49-.494.49-.273 0-.493-.22-.493-.49s.22-.49.494-.49c.275 0 .495.22.495.49" id="Fill-21" fill="#000"/><path d="M25.287 29.757c0 .27-.222.49-.494.49-.273 0-.495-.22-.495-.49s.222-.49.495-.49c.272 0 .494.22.494.49" id="Fill-23" fill="#000"/></g></svg>