<svg width="27" height="27" viewBox="0 0 27 27" xmlns="http://www.w3.org/2000/svg"><title>Page 1</title><desc>Created with Sketch.</desc><g id="Page-1" fill="#000" opacity=".476"><path d="M26.036 26.036H.964V24.59h25.072v1.446zM2.41 23.114c1.74-.217 3.13-1.6 3.347-3.346H21.242c.217 1.74 1.6 3.13 3.346 3.346v.51H2.41v-.51zm9.644-5.275h2.892v.964h-2.892v-.965zm-6.268-.965V11.57c0-4.25 3.462-7.713 7.714-7.713 4.253 0 7.714 3.462 7.714 7.714v5.305H5.787zm19.768 6.75V22.18h-.483c-1.594 0-2.89-1.298-2.89-2.894v-.482h-6.27v-.965h6.27v-6.27c0-4.622-3.637-8.402-8.198-8.653V.964h1.93V0h-4.823v.964h1.928v1.953c-4.56.25-8.197 4.03-8.197 8.654v6.27h6.27v.964H4.82v.482c0 1.596-1.296 2.893-2.89 2.893h-.484v1.445H0V27h27v-3.375h-1.446z" id="Fill-1"/><path d="M6.75 11.57h.964c0-3.19 2.594-5.784 5.786-5.784V4.82c-3.722 0-6.75 3.03-6.75 6.75" id="Fill-3"/></g></svg>