<svg width="72" height="64" viewBox="0 0 72 64" xmlns="http://www.w3.org/2000/svg"><title>Page 1</title><desc>Created with Sketch.</desc><g id="Page-1" stroke="#000" fill="none"><path d="M8.672 7.8c0 1.97-1.618 3.565-3.61 3.565-1.995 0-3.613-1.595-3.613-3.564 0-1.967 1.617-3.563 3.61-3.563 1.994 0 3.612 1.596 3.612 3.564z" id="Stroke-1"/><path d="M70.595 7.8c0 1.97-1.618 3.565-3.61 3.565-1.995 0-3.613-1.595-3.613-3.564 0-1.967 1.618-3.563 3.612-3.563 1.993 0 3.61 1.596 3.61 3.564z" id="Stroke-3"/><path d="M10.272 9.453v15.112h9.096L19.363 5.93c0-2.478-2.036-4.487-4.546-4.487-2.51 0-4.545 2.01-4.545 4.486" id="Stroke-5"/><path d="M14.817 1.473h39.398c2.822 0 4.413 1.836 4.413 4.854l.016 56.39h-39.3V24.45" id="Stroke-7"/><path d="M39.084 19.915l2.506 5.01 5.6.803-4.052 3.9.956 5.507-5.01-2.6-5.01 2.6.956-5.507-4.053-3.9 5.602-.802 2.504-5.01z" id="Stroke-9"/><path d="M19.475 48.254h39.32" id="Stroke-11"/><path d="M19.475 53.79h39.017" id="Stroke-13"/><path d="M58.946 5.883h5.052" id="Stroke-15"/><path d="M8.198 5.883h11.536" id="Stroke-17"/><path d="M58.946 9.822h5.052" id="Stroke-19"/><path d="M8.198 9.822h11.536" id="Stroke-21"/></g></svg>