<svg xmlns="http://www.w3.org/2000/svg" width="15" height="13" viewBox="0 0 15 13"><path id="Page-1" d="M12.997 2.408c.608-.384 1.076-.994 1.296-1.72-.57.357-1.2.616-1.87.755-.54-.604-1.306-.98-2.153-.98-1.627 0-2.947 1.39-2.947 3.106 0 .243.026.48.076.707-2.45-.13-4.623-1.367-6.076-3.247-.254.46-.4.993-.4 1.562 0 1.078.522 2.03 1.312 2.586-.483-.016-.938-.156-1.335-.388v.04c0 1.504 1.018 2.76 2.366 3.045-.248.07-.51.11-.778.11-.19 0-.374-.02-.554-.057.375 1.234 1.464 2.133 2.753 2.157-1.01.834-2.28 1.33-3.66 1.33-.24 0-.473-.014-.704-.043 1.304.882 2.854 1.396 4.52 1.396 5.42 0 8.385-4.734 8.385-8.84 0-.135-.004-.27-.01-.403.576-.438 1.076-.985 1.47-1.608-.527.25-1.094.416-1.69.49z"/></svg>