<svg xmlns="http://www.w3.org/2000/svg" width="80" height="79.964" viewBox="10 0 80 79.964" enable-background="new 10 0 80 79.964"><path d="M83.656 6.38c-8.612-8.615-22.438-8.325-30.833.072l-9.99 9.988c5.864-1.88 10.423-.58 14.405 1.085l2.896-2.895c4.126-4.125 11-3.91 15.056.145 4.125 4.125 4.414 11.074.29 15.2L62.015 43.438c-1.52 1.52-3.258 2.39-5.21 2.895-5.213.724-10.207-1.88-12.09-6.44l-8.83 8.54c6.08 9.19 18.675 12.303 28.662 6.66 1.665-.87 3.257-2.173 4.705-3.62l14.33-14.332c8.397-8.395 8.688-22.147.073-30.76zM36.03 24.4c-1.737.87-3.33 2.17-4.705 3.62l-14.91 14.837c-8.396 8.395-8.686 22.147-.072 30.76s22.438 8.325 30.834-.07l9.988-9.99c-5.863 1.882-10.423.58-14.404-1.085l-2.895 2.895c-4.125 4.126-11 3.91-15.055-.145-4.125-4.125-4.415-11.074-.29-15.2l13.97-13.97c1.52-1.52 3.257-2.39 5.21-2.895 5.212-.724 10.207 1.88 12.087 6.44l8.904-8.54c-6.15-9.19-18.744-12.304-28.66-6.658z"/></svg>