<svg xmlns="http://www.w3.org/2000/svg" width="21" height="12" viewBox="0 0 21 12"><path d="M8.24 11.214c-1.513 0-2.825-.317-3.898-.943C2.208 9.03 1.152 6.62.796 5.64l-.1-.28.29-.052c.415-.074 1.072-.16 1.856-.16.563 0 1.105.043 1.61.132l.164.028.04.162c.16.692.406 1.333.733 1.904.985 1.72 2.648 2.757 3.868 3.323l.848.393-.93.083c-.28.025-.597.04-.936.04zM1.374 5.752C1.79 6.8 2.78 8.784 4.594 9.838c.986.575 2.2.87 3.605.875-1.135-.646-2.41-1.636-3.245-3.092-.326-.566-.577-1.196-.748-1.874-.958-.147-2.138-.095-2.833.006z" id="Stroke-1"/><path d="M10.148 10.883l-.854-.403C8.11 9.92 6.502 8.91 5.562 7.27c-1.23-2.15-.95-4.77-.773-5.797l.05-.297.282.104c.64.236 1.88.774 3.015 1.726l.126.105-.048.16c-.204.682-.308 1.36-.308 2.018 0 1.982.924 3.717 1.7 4.822l.54.773zM5.234 1.86c-.157 1.12-.28 3.336.762 5.16C6.67 8.194 7.72 9.027 8.68 9.59c-.66-1.13-1.272-2.627-1.272-4.302 0-.654.095-1.327.283-2-.89-.72-1.835-1.175-2.456-1.428z" id="Stroke-3"/><path d="M10.506 10.93l-.192-.232c-.663-.8-2.205-2.93-2.205-5.41S9.65.68 10.313-.12l.192-.23.192.23c.663.8 2.204 2.927 2.204 5.41s-1.54 4.61-2.204 5.41l-.192.232zm0-10.492c-.692.89-1.897 2.744-1.897 4.85 0 2.105 1.204 3.96 1.896 4.85.69-.89 1.896-2.742 1.896-4.85s-1.205-3.96-1.896-4.85z" id="Stroke-5"/><path d="M10.858 10.893l.542-.773c.778-1.107 1.705-2.845 1.705-4.832 0-.655-.103-1.33-.306-2.01l-.048-.156.125-.105c1.134-.957 2.382-1.498 3.025-1.735l.282-.104.05.296c.178 1.027.456 3.648-.772 5.798-.94 1.642-2.56 2.657-3.75 3.22l-.854.4zm2.466-7.598c.187.67.28 1.34.28 1.993 0 1.68-.613 3.18-1.275 4.312.965-.565 2.024-1.402 2.7-2.578 1.042-1.825.918-4.042.76-5.162-.624.254-1.574.713-2.466 1.435z" id="Stroke-7"/><path d="M12.784 11.215c-.34 0-.653-.016-.936-.04l-.93-.084.847-.392c1.222-.567 2.886-1.604 3.87-3.323.328-.573.574-1.214.734-1.904l.036-.16.163-.03c.505-.087 1.047-.132 1.61-.132.78 0 1.44.088 1.856.162l.293.052-.103.28c-.356.978-1.413 3.387-3.547 4.63-1.074.625-2.385.943-3.896.943zm4.033-5.468c-.17.676-.422 1.307-.747 1.876-.833 1.455-2.11 2.446-3.245 3.092 1.403-.006 2.617-.3 3.605-.874 1.812-1.056 2.803-3.038 3.22-4.086-.698-.1-1.877-.153-2.833-.007z" id="Stroke-9"/></svg>