<svg height="102.80249" viewBox="0 0 58.590953 27.199824" width="221.44612" xmlns="http://www.w3.org/2000/svg"><g transform="translate(-45.543821 -343.876307)"><path d="m47.519059 370.62077h-1.710655v-.25376h.493096v-4.27744h-.453313v-.25355h3.030183c.643014 0 1.511951.0132 1.520536.0128l.0021.005.171484 1.48844h-.226339l-.01822-.0628c-.272616-.92423-.46462-1.1897-1.449555-1.1897h-1.781007v2.08841h1.046493c.886317 0 1.143857-.081 1.143857-.65207v-.0918h.225505v1.7127h-.225505v-.0906c0-.40667-.25084-.62445-1.143857-.62445h-1.046493v1.93528h.421696v.25376"/><path d="m53.430345 366.83556c-1.184686 0-1.863922.66775-1.863922 1.83277 0 1.16711.661858 1.80997 1.863922 1.80997 1.205415 0 1.868949-.64286 1.868949-1.80997 0-1.16502-.680912-1.83277-1.868949-1.83277m0 3.8716c-1.732012 0-2.667114-1.05038-2.667114-2.03883 0-1.29116 1.35638-2.06226 2.667114-2.06226 1.732431 0 2.667115 1.06251 2.667115 2.06226 0 1.32422-1.373968 2.03883-2.667115 2.03883"/><path d="m58.878897 370.70716c-.974048 0-2.135492-.34643-2.135492-1.99825v-1.78633h-.400759v-.22969h1.578326v.22969h-.436772v1.78633c0 1.53948.873753 1.76939 1.394697 1.76939.816382 0 1.688669-.46463 1.688669-1.76939v-1.78633h-.395314v-.22969h.96316v.22969h-.363698v1.78633c0 1.47526-1.019274 1.99825-1.892817 1.99825"/><path d="m62.635637 368.64657h1.415217c.676305 0 .991635-.27321.991635-.85917 0-.59014-.313655-.86482-.986401-.86482h-1.420451zm1.456256.22907h-1.456256v1.51563h.362232v.22949h-1.525142v-.22949h.452894v-3.46869h-.452894v-.22969h2.583361c.442844 0 1.789592 0 1.789592 1.09451 0 .49684-.277641.83846-.805494.9918 0 0-.297952.0964-.948293.0964z"/><path d="m73.55975 366.2883.10532 1.1669-.212732-.006-.06198-.19581c-.297323-.8782-.91186-1.2535-1.881301-1.2535-.958762 0-1.530796.27216-1.530796.72737 0 .49601.793769.69684 1.633812.90896 1.037491.2615 2.212127.55835 2.212127 1.54262 0 1.02883-.790209 1.55077-2.349482 1.55077 0 0-1.147835-.0406-2.037082-.37676l-.258378-1.38739h.195982l.07789.21003c.318471.78993 1.112031 1.30058 2.021588 1.30058.672118 0 1.799223-.12196 1.799223-.93867 0-.58449-.840459-.78825-1.730127-1.00414-1.040421-.2525-2.116019-.514-2.116019-1.44701 0-.85185.758383-1.33949 2.081262-1.33949.402852 0 .643432.0481 1.028488.15606 0 0 .662694.19372 1.022204.38555"/><path d="m78.531956 370.65319-.01926-.00053c-.0067-.00053-.680493-.0318-1.052566-.0318h-2.934075v-.2297h.437398v-3.46858h-.437398v-.22969h2.841109c.357835 0 .727604 0 .81094-.0295l.215035-.0259.128143 1.10205-.172533.009-.01799-.0563c-.234511-.72843-.592765-.77006-.963581-.77006h-1.694323v1.53865h.951225c.67819 0 .904115-.0891.904115-.57592v-.0856h.204148v1.50956h-.204148v-.0849c0-.36526-.220061-.53387-.904115-.53387h-.951225v1.70056h1.78729c.652227 0 .804447-.20481 1.026392-.72278l.01884-.0542h.21273l-.18614 1.03908"/><path d="m80.362169 369.09865h2.217989l-1.106797-2.00139zm2.52934 1.52211v-.2297h.405993l-.591296-1.06334h-2.475529l-.595694 1.06334h.407459v.2297h-.995405v-.2297h.346109l1.934485-3.46869h-.343807v-.22948h1.053613l.02283.0404 2.02075 3.6578h.384218v.22824l-1.573718.002z"/><path d="m91.870877 366.60607c-1.311153 0-2.667113.77131-2.667113 2.06226 0 .98866.935101 2.03883 2.667113 2.03883 1.292937 0 2.667114-.71461 2.667114-2.03883 0-.99975-.935101-2.06226-2.667114-2.06226m0 3.87244c-1.201647 0-1.864341-.64307-1.864341-1.81018 0-1.16502.679654-1.83277 1.864341-1.83277 1.187617 0 1.868948.66775 1.868948 1.83277 0 1.16711-.663953 1.81018-1.868948 1.81018"/><path d="m185.42518 86.0187845v.8689405h1.161726l.656044.6151371v12.4948742h-1.757626v.8673597h4.106403v-.8673597h-1.578777v-11.7769506l14.018273 13.2127973.163022.152599v-14.698457h1.327913v-.8673592h-3.720216v.8673592h1.62072v10.3055237l-11.792158-11.1483723-.029281-.0260919z" transform="matrix(.26458333 0 0 .26458333 45.808404 343.93354)"/><path d="m66.305066 370.48625c-.597578-.022-.662487-.24602-.811358-.54391l-.543138-1.1782h-.802982l1.003152 1.94867h1.156629l-.0023-.22656"/><path d="m88.418578 367.10019.08606.95352-.173995-.005-.05067-.16024c-.242466-.71755-.744775-1.02402-1.537287-1.02402-.783299 0-1.250852.22216-1.250852.59412 0 .40563.648877.56943 1.335442.74285.847582.21401 1.80739.45605 1.80739 1.26062 0 .84118-.645525 1.26731-1.919618 1.26731 0 0-.938033-.0333-1.66501-.30793l-.211058-1.13385h.160179l.06344.17196c.260472.64537.908931 1.06251 1.652448 1.06251.54879 0 1.470075-.0998 1.470075-.76712 0-.47739-.686776-.64412-1.41396-.82047-.850305-.20627-1.729081-.41965-1.729081-1.18238 0-.69579.619561-1.09473 1.700604-1.09473.329359 0 .52555.0393.840462.12761 0 0 .541462.15836.835435.31505"/><path d="m103.65388 367.10019.0861.95352-.17399-.005-.0507-.16024c-.24247-.71755-.74478-1.02402-1.53729-1.02402-.7833 0-1.25085.22216-1.25085.59412 0 .40563.64846.56943 1.33502.74285.848.21401 1.80802.45605 1.80802 1.26062 0 .84118-.64616 1.26731-1.92025 1.26731 0 0-.93782-.0333-1.66459-.30793l-.21106-1.13385h.16018l.0634.17196c.26048.64537.90893 1.06251 1.65203 1.06251.549 0 1.4705-.0998 1.4705-.76712 0-.47739-.68699-.64412-1.41396-.82047-.85031-.20627-1.72908-.41965-1.72908-1.18238 0-.69579.61956-1.09473 1.7006-1.09473.32936 0 .52576.0393.84046.12761 0 0 .54146.15836.83544.31505"/><path d="m81.072393 355.32744c-.33501.13765-.547325.38241-.465458.79934.402643-.13493.510056-.43994.465458-.79934"/><path d="m79.723971 355.57241c.0647.35605.258587.61566.682797.62257-.04649-.42216-.322242-.5914-.682797-.62257"/><path d="m80.405093 357.28426c-.01781-.41964-.298162-.58888-.679239-.62194.04251.35543.230111.61337.679239.62194"/><path d="m79.177902 351.69348c-.360767.0318-.636315.20104-.682797.62257.42358-.006.618517-.26589.682797-.62257"/><path d="m77.545137 351.38199c.0647.35689.259215.61608.682795.62278-.04648-.42091-.322239-.59098-.682795-.62278"/><path d="m77.448821 350.08267c.423998-.007.617469-.26568.682797-.62257-.360767.0312-.636315.20125-.682797.62257"/><path d="m77.780691 348.51809c-.332291.14309-.541253.39077-.453102.80582.399711-.14037.503145-.44768.453102-.80582"/><path d="m76.588259 348.82079c.01257.36045.167714.6437.584176.71023.01445-.42112-.23367-.62822-.584176-.71023"/><path d="m76.433525 347.80535c.422116-.007.616633-.26547.681749-.62068-.360555.031-.634849.2002-.681749.62068"/><path d="m76.788008 346.32884c-.313444.17615-.49477.44287-.363696.84495.380656-.1797.451221-.49517.363696-.84495"/><path d="m76.312711 347.47587c.01402-.42112-.233672-.62822-.584176-.71023.01257.36045.167714.6437.584176.71023"/><path d="m76.082391 348.08756c-.04586-.41965-.320566-.58826-.679865-.62006.06533.35543.258167.61316.679865.62006"/><path d="m74.954028 348.91598c.121862-.0772 1.430083-.84223 1.430083-.84223.0031-.002.008-.005.0078-.0159l-.0603-.46316h-.02032s.01781.19476.01257.27279c-.0058.0891-.01781.12008-.08522.16422l-1.449557.74684c.0021.11233.004.22572.0063.34078.01947-.0659.06302-.14268.158711-.20334"/><path d="m74.633043 344.7856c-.04648-.42007-.3214-.58868-.679862-.61964.06449.35438.257749.61253.679862.61964"/><path d="m74.622785 345.47239c-.04606-.41923-.320984-.58826-.679865-.61922.06491.35459.25817.61253.679865.61922"/><path d="m74.612316 346.15521c-.04606-.41965-.320985-.58805-.679448-.61964.06449.35417.257752.61336.679448.61964"/><path d="m74.602055 346.84075c-.04648-.41882-.320982-.58743-.679865-.61923.06491.35501.25817.61295.679865.61923"/><path d="m74.591586 347.52859c-.04627-.41965-.320982-.58827-.679236-.62006.06428.35521.257749.61252.679236.62006"/><path d="m74.581746 348.21203c-.04648-.41965-.321403-.58826-.680284-.62006.0647.35543.25817.61295.680284.62006"/><path d="m73.670095 346.64954c-.343808.11171-.573289.33869-.523666.75855.409551-.10188.541044-.39769.523666-.75855"/><path d="m73.1592 347.91204c.421908-.007.614958-.26484.679657-.62006-.358672.0318-.633381.20041-.679657.62006"/><path d="m72.993788 347.48737c.05967-.41818-.164782-.65102-.505238-.77089-.02617.36066.09736.65939.505238.77089"/><path d="m72.905849 347.9612c-.04627-.42048-.321403-.59014-.681122-.62152.06512.35605.258169.61399.681122.62152"/><path d="m73.911093 349.88623c-.360137.0314-.636312.20083-.682794.62299.423997-.007.618514-.26652.682794-.62299"/><path d="m72.727244 350.25044c.424-.006.61789-.26568.683006-.62257-.360137.0318-.636103.20125-.683006.62257"/><path d="m74.412984 350.1448c-.360767.0312-.636733.20125-.683215.62257.423579-.007.618305-.26568.683215-.62257"/><path d="m73.516406 349.43981c.422535-.006.616424-.26547.681332-.6209-.359717.0316-.635056.19978-.681332.6209"/><path d="m73.036921 349.16095c.422746-.007.616632-.26547.681751-.62069-.360137.031-.635267.20041-.681751.62069"/><path d="m72.549479 348.87937c.422743-.007.616214-.26505.680913-.62153-.359302.0314-.634849.20083-.680913.62153"/><path d="m72.906687 349.35864c-.360349.0305-.636733.20062-.682797.62215.42358-.007.618096-.26589.682797-.62215"/><path d="m72.09826 349.31952c.05214-.42091-.176928-.64956-.520315-.76399-.01968.36108.109297.65876.520315.76399"/><path d="m71.967396 349.9582c-.04669-.42154-.322868-.59078-.683215-.62257.06449.35668.259216.61629.683215.62257"/><path d="m72.326906 352.10372c-.360557.0312-.636104.20041-.682587.62194.423581-.007.617888-.26589.682587-.62194"/><path d="m71.157714 352.44868c.42379-.007.618097-.26589.682796-.62257-.360556.0318-.636313.20104-.682796.62257"/><path d="m72.826701 352.36312c-.360765.0318-.636312.20104-.682795.62257.42358-.007.618097-.26589.682795-.62257"/><path d="m73.328174 352.6219c-.359929.0318-.636315.20104-.682797.62257.423579-.007.617887-.26589.682797-.62257"/><path d="m73.828808 352.88005c-.360558.0318-.636315.20103-.683006.62257.423997-.007.618305-.26652.683006-.62257"/><path d="m74.331953 353.1361c-.360347.0318-.636524.20188-.682797.62278.423582-.007.617889-.26547.682797-.62278"/><path d="m73.613979 352.11731c.424001-.008.618726-.26588.683215-.62256-.360346.0318-.636312.20103-.683215.62256"/><path d="m73.128003 351.83302c.424-.007.617887-.26568.683006-.62257-.360558.0318-.636312.20124-.683006.62257"/><path d="m72.647679 351.54956c.423582-.007.618098-.26568.682797-.62174-.360347.031-.636733.20041-.682797.62174"/><path d="m72.167775 351.2663c.423582-.007.617678-.26589.682797-.62257-.360556.0318-.636733.20104-.682797.62257"/><path d="m71.68473 350.98284c.423581-.008.617887-.26589.682795-.62257-.360346.031-.635893.2002-.682795.62257"/><path d="m71.826063 351.19204c-.360766.0314-.636314.20104-.683215.62257.423581-.007.617888-.26589.683215-.62257"/><path d="m71.060351 351.46546c.103226-.41107-.09652-.66608-.423371-.82173-.06302.35668.02848.66797.423371.82173"/><path d="m70.946447 352.01104c-.04648-.42111-.322449-.59077-.682796-.62257.06491.35668.259215.61588.682796.62257"/><path d="m70.853062 352.63382c-.04606-.42237-.322449-.59161-.682796-.62278.0647.35606.258797.61525.682796.62278"/><path d="m72.031677 354.36723c.423581-.008.618097-.26589.682796-.62278-.360138.0312-.636314.20124-.682796.62278"/><path d="m72.031677 355.34125c.423581-.007.618097-.26568.682796-.62257-.360138.0312-.635895.20124-.682796.62257"/><path d="m71.553238 354.08627c.423999-.007.618725-.26651.683215-.62319-.360348.0316-.636314.20166-.683215.62319"/><path d="m71.076893 353.80365c.423999-.007.617887-.26652.683215-.62257-.361185.031-.636733.20041-.683215.62257"/><path d="m70.596988 353.52395c.423999-.007.618097-.26651.682796-.62257-.360347.0312-.636313.20041-.682796.62257"/><path d="m80.498057 356.17908s.06386.6983.04586.97862c-.02135.31819-.06344.4299-.305697.58742l-5.241264 2.70032v-.00043c-.0088-.5142-.01926-1.10246-.03057-1.74282l.000529-.16882c-.0063-.35166.08983-.54056.505241-.80373.360137-.22865 4.229317-2.49153 4.229317-2.49153.0088-.005.02326-.0155.02241-.0466l-.178604-1.37087h-.05946s.05276.57717.03727.80813c-.01696.26296-.05214.35542-.251888.48512l-4.328983 2.23004c-.01172-.66357-.02408-1.36166-.03685-2.07523l-.0038-.19372c.0071-.22175.08606-.35417.366418-.53157.269058-.1707 3.159374-1.86143 3.159374-1.86143.0067-.004.0176-.0119.01654-.0347l-.133377-1.02381h-.04418s.03937.43073.02806.60332c-.01299.19644-.03916.26547-.188444.36233l-3.218836 1.65851c-.01445-.80227-.02869-1.61291-.04314-2.40827v-.00043c.0222-.11296.0871-.2594.264033-.37153.192421-.12196 2.26133-1.33237 2.26133-1.33237.0046-.003.01257-.009.01172-.0247l-.09527-.73323h-.03182s.02806.30877.02011.4322c-.0094.14058-.02785.18974-.134842.25919l-2.30572 1.18866v-.00043c-.0136-.73867-.02617-1.45789-.03832-2.13736-.0024-.11464-.004-.22844-.0063-.34078-.04774-2.64822-.08312-4.61509-.08312-4.61509 0-.0126-.0092-.0226-.0222-.0226-.01214 0-.02135.01-.02135.0226 0 0-.03434 1.96457-.0804 4.6107-.000794.0527-.0019.10669-.0031.16045.0013-.0538.0019-.10773.0031-.16045l-1.441389-.74244c-.06721-.0444-.07915-.0755-.08501-.16422-.0052-.0782.01214-.27321.01214-.27321h-.0199l-.0603.46337c-.000209.0107.0048.0144.0078.0161 0 0 1.308222.76503 1.430084.84222.08459.0536.128143.11987.150545.1797v.00043l.000529.00042c-.01172.68491-.02429 1.41082-.03769 2.1564l-2.298601-1.18405c-.107413-.0697-.12542-.11883-.134633-.25962-.0082-.12342.01989-.43178.01989-.43178h-.03183l-.09569.73282c-.000635.0165.0075.0222.01235.0251 0 0 2.0687 1.20999 2.261121 1.33196.162271.1025.230113.23409.257751.34245v.00064c-.01402.80457-.02827 1.62524-.0423 2.43714l-3.219295-1.6581c-.14929-.0973-.175463-.1661-.188445-.36233-.0111-.17258.02806-.60374.02806-.60374h-.0446l-.132958 1.02402c-.0012.023.0098.0308.01654.0349 0 0 2.889896 1.6903 3.159372 1.86101.288528.18263.363908.31798.366418.5527l-.0034.20668v-.00042c-.01214.70144-.02408 1.38676-.03538 2.03967l-4.324586-2.22816c-.19975-.1297-.235346-.22216-.252305-.48512-.01508-.23096.03727-.80771.03727-.80771h-.05967l-.178393 1.37045c-.000847.0308.01319.0414.02241.0466 0 0 3.869181 2.2633 4.229737 2.49174.415414.26296.510683.45186.50524.80352v.003c-.01214.70458-.02323 1.34932-.03287 1.90767l-5.238951-2.69885c-.241837-.15752-.284341-.26923-.30507-.58742-.01843-.27991.04544-.97862.04544-.97862h-.07245l-.215664 1.65997c-.0019.0372.01591.0502.02659.0565 0 0 4.686189 2.7411 5.122333 3.01766.509218.32258.611815.34517.611815.93574 0 .0272-.0098.71085-.0098.73595 0 .51462-.407458.52843-.407458.52843l.0013.10125h1.501481l.0011-.10125s-.40725-.0138-.40725-.52843c0-.0251-.0082-.68428-.0082-.73595 0-.59057.102597-.61337.612026-.93574.436353-.27698 5.12296-3.01766 5.12296-3.01766.01069-.006.02806-.0192.02659-.0565l-.216504-1.65997h-.07203"/><path d="m73.018916 354.9557c.423788-.007.618095-.26589.683215-.62257-.360977.031-.637151.20103-.683215.62257"/><path d="m74.179103 354.64441c-.360765.031-.636521.20104-.682797.62257.423582-.007.617889-.26589.682797-.62257"/><path d="m76.729382 353.23526c.332081-.264.328311-.58826.161645-.91021-.266544.24538-.381498.54788-.161645.91021"/><path d="m76.042817 352.7744c-.266335.2456-.381494.54789-.161435.91022.332081-.26401.328313-.58826.161435-.91022"/><path d="m75.142472 351.52173c.06491.35689.258797.61525.683215.62278-.0469-.42153-.322868-.59098-.683215-.62278"/><path d="m77.576961 354.31346c-.0469-.42153-.322447-.59098-.682585-.62278.0647.35689.258588.61525.682585.62278"/><path d="m76.721217 354.77537c-.0469-.42153-.32245-.59077-.682379-.62257.06491.35668.258797.61525.682379.62257"/><path d="m79.119903 358.19971c-.04669-.42237-.323498-.59245-.684054-.62424.0647.35751.259006.61754.684054.62424"/><path d="m78.138317 358.65283c-.04648-.42216-.323495-.59224-.684053-.62403.06428.35751.259006.61733.684053.62403"/><path d="m76.999276 356.97277c.06512.3571.259214.61588.682796.62257-.04648-.42069-.322238-.59077-.682796-.62257"/><path d="m76.35375 359.56242c-.04648-.42216-.323495-.59224-.683844-.62404.06449.35752.258797.61755.683844.62404"/><path d="m80.131429 358.50325c-.06805.41484.172111.63763.537694.74704.03057-.35626-.09946-.64725-.537694-.74704"/><path d="m79.190883 359.18461c.01802.42299.300463.59349.683006.62633-.04167-.35752-.230323-.61776-.683006-.62633"/><path d="m77.753473 360.57388c.394684-.1638.480113-.47864.409551-.83595-.3258.16276-.52157.42342-.409551.83595"/><path d="m79.434604 354.15845c-.04669-.42112-.322448-.59077-.683006-.62257.06512.35668.259426.61587.683006.62257"/><path d="m79.406756 354.78102c-.04606-.42216-.322238-.5914-.682797-.62257.0647.35605.258797.61524.682797.62257"/><path d="m79.77862 355.19815c.42358-.007.617469-.26588.683006-.62277-.360976.0312-.636733.20041-.683006.62277"/><path d="m80.358399 353.53567c-.361185.0312-.636942.20041-.683215.62278.423373-.008.617887-.26589.683215-.62278"/></g></svg>