<?xml version="1.0" encoding="utf-8"?>
<!-- Generator: Adobe Illustrator 26.0.1, SVG Export Plug-In . SVG Version: 6.00 Build 0)  -->
<svg version="1.1" id="Layer_1" xmlns="http://www.w3.org/2000/svg" xmlns:xlink="http://www.w3.org/1999/xlink" x="0px" y="0px"
	 viewBox="0 0 2500 2500" style="enable-background:new 0 0 2500 2500;" xml:space="preserve">
<style type="text/css">
	.st0{fill-rule:evenodd;clip-rule:evenodd;}
</style>
<path class="st0" d="M186.2,1013.6c0-11.6,1.9-13.6,29.1-13.6c50.4,0,73.6,32.9,73.6,69.8c0,29.1-11.6,46.5-23.3,54.3
	c-13.6,11.6-31,11.6-46.5,11.6c-23.3,0-29.1,0-31-1.9c-1.9-1.9-1.9-5.8-1.9-13.6L186.2,1013.6L186.2,1013.6z M149.4,1217
	c0,46.5,0,52.3-27.1,56.2l-9.7,1.9c-3.9,1.9-1.9,9.7,0,9.7H223c1.9,0,3.9-7.8,0-9.7l-9.7-1.9c-25.2-3.9-27.1-9.7-27.1-56.2v-56.2
	c0-9.7,1.9-11.6,21.3-11.6s25.2,5.8,32.9,15.5c13.6,19.4,31,50.4,42.6,67.8c33,44.6,56.2,56.2,93,56.2c9.7,0,15.5,0,21.3-1.9
	c1.9-1.9,0-5.8-1.9-5.8c-11.6-1.9-23.3-5.8-31-13.6c-29.1-25.2-54.3-60.1-89.2-118.2c-1.9-3.9-5.8-9.7-1.9-11.6
	c21.3-9.7,56.2-33,56.2-75.6c0-31-17.4-50.4-38.8-62c-19.4-11.6-46.5-13.6-73.6-13.6c-44.6,0-75.6,1.9-100.8,3.9
	c-3.9,1.9-3.9,7.8,0,11.6h13.6c19.4,3.9,19.4,11.6,19.4,54.3L149.4,1217L149.4,1217L149.4,1217z M538.9,1279.1
	c-75.6,0-102.7-73.6-102.7-129.8c0-85.3,52.3-112.4,91.1-112.4c73.6,0,102.7,69.8,102.7,131.8C630,1244.2,585.4,1279.1,538.9,1279.1
	z M535,1290.7c73.6,0,131.8-56.2,131.8-133.7c0-67.8-44.6-131.8-131.8-131.8c-79.5,0-137.6,60.1-137.6,135.7
	C397.4,1228.7,449.7,1290.7,535,1290.7z M781.1,1290.7c-32.9,0-54.3-9.7-60.1-15.5c-5.8-7.8-9.7-34.9-11.6-52.3
	c1.9-3.9,7.8-3.9,9.7-1.9c5.8,19.4,21.3,58.1,65.9,58.1c33,0,48.5-21.3,48.5-44.6c0-17.4-3.9-34.9-31-54.3l-36.8-23.3
	c-19.4-11.6-42.6-34.9-42.6-65.9c0-34.9,29.1-65.9,79.5-65.9c11.6,0,25.2,1.9,34.9,5.8c5.8,1.9,9.7,1.9,13.6,1.9
	c3.9,9.7,7.8,31,7.8,46.5c-1.9,1.9-7.8,3.9-9.7,1.9c-5.8-19.4-15.5-44.6-52.3-44.6c-38.8,0-46.5,25.2-46.5,42.6
	c0,23.3,19.4,38.8,32.9,48.4l31,17.4c23.2,15.5,46.5,38.8,46.5,73.6C860.6,1261.6,829.6,1290.7,781.1,1290.7L781.1,1290.7z
	 M959.5,1089.1c0-38.8,0-44.6-23.3-48.5h-5.8c-1.9-1.9-1.9-9.7,0-9.7H1099c3.9,5.8,5.8,33,7.8,50.4c-1.9,1.9-7.8,3.9-9.7,0
	c-5.8-17.4-9.7-31-29.1-34.9c-7.8-1.9-21.3-1.9-38.8-1.9h-27.1c-11.6,0-11.6,0-11.6,13.6v77.5c0,9.7,1.9,9.7,13.6,9.7h21.3
	c17.4,0,29.1,0,32.9-1.9c5.8-1.9,7.8-3.9,9.7-13.6l3.9-15.5c0-1.9,7.8-1.9,9.7,0c0,9.7-1.9,25.2-1.9,38.8c0,13.6,1.9,29.1,1.9,36.8
	c-1.9,3.9-9.7,3.9-11.6,0l-2-13.6c-1.9-7.8-3.9-13.6-11.6-15.5c-5.8-1.9-15.5-1.9-31-1.9H1004c-11.6,0-13.6,0-13.6,9.7v54.3
	c0,21.3,1.9,34.9,7.8,40.7c3.9,3.9,13.6,7.8,46.5,7.8c29.1,0,40.7,0,48.5-3.9c7.8-3.9,17.4-17.4,27.1-38.8c3.9-1.9,7.8,0,9.7,3.9
	c-1.9,13.6-11.6,42.6-17.4,52.3h-188c-3.9,0-3.9-7.8-1.9-9.7h13.6c21.3-1.9,23.3-7.8,23.3-48.4L959.5,1089.1L959.5,1089.1z
	 M1133.9,1038.7c-1.9-1.9-1.9-7.8,1.9-7.8h81.4c3.9,0,3.9,5.8,1.9,7.8l-9.7,1.9c-7.8,0-11.6,1.9-11.6,5.8c0,5.8,7.8,25.2,19.4,52.3
	c21.3,46.5,44.6,95,65.9,141.5c9.7-19.4,19.4-40.7,29.1-62c3.9-5.8,5.8-13.6,5.8-15.5c1.9-1.9,0-3.9-1.9-9.7
	c-13.4-30.7-27.6-61.1-42.7-91.1c-5.8-11.6-11.6-21.3-23.2-21.3l-9.7-1.9c-3.9-1.9-1.9-7.8,0-7.8h83.3c1.9,0,3.9,5.8,0,7.8l-9.7,1.9
	c-13.6,0-15.5,3.9-7.8,21.3c7.8,17.4,19.4,42.6,29.1,65.9c7.8-15.5,15.5-29.1,23.3-50.4c13.6-33,11.6-36.8,0-36.8l-11.6-1.9
	c-1.9-3.9-1.9-7.8,0-7.8h73.6c1.9,0,1.9,5.8,0,7.8l-9.7,1.9c-17.4,0-23.3,17.4-32.9,32.9c-7.8,15.5-23.3,48.5-29.1,62
	c-1.9,3.9-3.9,7.8-3.9,9.7l3.9,7.8c11.6,29.1,25.2,58.1,38.8,87.2c11.6-27.1,23.3-52.3,33-79.5c7.8-19.4,29.1-69.8,31-77.5
	c5.8-13.6,11.6-29.1,11.6-34.9c0-3.9-3.9-7.8-11.6-7.8l-11.6-1.9c-3.9-1.9-3.9-7.8,0-7.8h71.7c3.9,0,3.9,5.8,1.9,7.8l-7.8,1.9
	c-19.4,1.9-23.3,13.6-44.6,65.9l-29.1,65.9c-15.5,38.8-31,75.6-46.5,116.3c-1.9,1.9-3.9,1.9-5.8,1.9c-1.9,0-3.9,0-5.8-1.9
	c-11.6-33-33-81.4-46.5-108.5c-13.6,27.1-36.8,77.5-46.5,108.5c-1.9,1.9-3.9,1.9-5.8,1.9c-1.9,0-3.9,0-5.8-1.9
	c-5.8-15.5-21.3-50.4-25.2-62c-25.2-52.3-48.4-104.7-73.6-158.9c-7.8-15.5-11.6-25.2-27.1-27.1L1133.9,1038.7z M1657.1,1279.1
	c-75.6,0-102.7-73.6-102.7-129.8c0-85.3,52.3-112.4,91.1-112.4c73.6,0,102.7,69.8,102.7,131.8
	C1748.2,1244.2,1703.6,1279.1,1657.1,1279.1z M1653.3,1290.7c73.6,0,131.8-56.2,131.8-133.7c0-67.8-44.6-131.8-131.8-131.8
	c-79.5,0-137.6,60.1-137.6,135.7C1515.7,1228.7,1568,1290.7,1653.3,1290.7z M1963.3,1279.1c-75.6,0-102.7-73.6-102.7-129.8
	c0-85.3,52.3-112.4,91.1-112.4c73.6,0,102.7,69.8,102.7,131.8C2054.4,1244.2,2009.9,1279.1,1963.3,1279.1z M1959.5,1290.7
	c73.6,0,131.8-56.2,131.8-133.7c0-67.8-42.6-131.8-131.8-131.8c-79.5,0-137.6,60.1-137.6,135.7
	C1821.9,1228.7,1874.2,1290.7,1959.5,1290.7z M2190.1,1077.5c0-17.4,0-27.1,3.9-29.1c3.9-3.9,15.5-5.8,38.8-5.8
	c98.8,0,120.2,71.7,120.2,112.4c0,71.7-32.9,120.2-108.5,120.2c-23.3,0-38.8-3.9-46.5-15.5c-5.8-9.7-7.8-21.3-7.8-42.6
	L2190.1,1077.5L2190.1,1077.5z M2159.1,1226.7c0,40.7-1.9,44.6-23.3,48.4h-9.7c-1.9,1.9,0,9.7,1.9,9.7h48.4c11.6,0,36.8,1.9,62,1.9
	c29.1,0,60.1-3.9,85.3-17.4c42.6-25.2,65.9-65.9,65.9-114.4c0-50.4-25.2-95-77.5-112.4c-23.3-9.7-50.4-11.6-83.3-11.6
	c-32.9,0-64,0-96.9,1.9c-3.9,1.9-1.9,7.8,0,9.7l9.7,1.9c15.5,1.9,17.5,9.7,17.5,36.8L2159.1,1226.7L2159.1,1226.7z M213.3,1414.7
	c0-11.6,0-21.3-1.9-23.3c-2.6-2.4-6.1-3.8-9.7-3.9l-3.9-1.9c-1.9,0-1.9-1.9,0-1.9h44.6c1.9,0,1.9,1.9,0,1.9l-1.9,1.9
	c-5.8,0-7.8,1.9-9.7,3.9c-1.9,1.9-1.9,11.6-1.9,23.3v21.3c0,5.8,0,5.8,7.8,5.8h58.1c7.8,0,9.7,0,9.7-5.8v-21.3
	c0-11.6-1.9-21.3-3.9-23.3c-1.9-1.9-5.8-3.9-7.8-3.9l-3.9-1.9c-1.9,0-1.9-1.9,0-1.9h44.6c0,0,1.9,1.9,0,1.9l-3.9,1.9
	c-1.9,0-7.8,1.9-9.7,3.9c-1.9,1.9-1.9,11.6-1.9,23.3v65.9c0,11.6,0,21.3,1.9,25.2c1.9,1.9,7.8,1.9,9.7,1.9l3.9,1.9
	c1.9,0,1.9,1.9,0,1.9h-44.6c-1.9,0-1.9-1.9,0-1.9l3.9-1.9c3.9,0,5.8,0,7.8-3.9c1.9-1.9,3.9-11.6,3.9-23.3v-27.1
	c0-5.8-1.9-5.8-9.7-5.8h-58.1c-7.8,0-7.8,0-7.8,5.8v27.1c0,11.6,0,21.3,1.9,23.3c1.9,3.9,5.8,3.9,9.7,3.9l5.8,1.9v1.9h-46.5
	c-1.9,0-1.9-1.9,0-1.9h1.9c3.9-1.9,7.7-1.9,9.7-5.8c1.9-1.9,1.9-11.6,1.9-23.3L213.3,1414.7L213.3,1414.7L213.3,1414.7z M442,1401.2
	c34.9,0,46.5,31,46.5,58.1c0,36.8-19.4,50.4-42.6,50.4c-33,0-44.6-32.9-44.6-58.1C401.3,1412.8,424.6,1401.2,442,1401.2z
	 M445.9,1397.3c-34.9,0-60.1,25.2-60.1,60.1c0,29.1,21.3,56.2,60.1,56.2c32.9,0,58.1-23.3,58.1-58.1
	C504,1424.4,484.6,1397.3,445.9,1397.3z M633.9,1399.2h11.6c1.9,0,1.9-1.9,3.9-3.9h1.9c-1.9,7.8-3.9,21.3-1.9,25.2h-3.9
	c-1.9-5.8-1.9-9.7-3.9-11.6c-5.8-3.9-11.6-5.8-21.3-5.8h-11.6c-3.9,0-3.9,0-3.9,7.8v73.6c0,9.7,0,19.4,1.9,21.3
	c1.9,1.9,5.8,1.9,7.8,3.9h5.8v1.9h-46.5v-1.9l7.8-1.9c1.9,0,5.8,0,7.8-1.9c1.9-1.9,1.9-11.6,1.9-21.3v-73.6c0-7.8,0-7.8-5.8-7.8
	h-9.7c-9.7,0-17.4,1.9-21.3,5.8c-3.9,3.9-5.8,7.8-7.8,11.6c0,0-1.9,0-3.9-1.9c3.9-5.8,5.8-17.5,7.8-23.3h1.9c0,1.9,1.9,1.9,3.9,3.9
	L633.9,1399.2L633.9,1399.2L633.9,1399.2z M709.4,1426.4c0-11.6,0-17.5-1.9-19.4c-1.9-1.9-3.9-3.9-7.8-3.9l-1.9-1.9
	c-1.9,0-1.9-1.9,0-1.9h73.6c0,3.9,1.9,15.5,1.9,21.3c0,0-1.9,1.9-1.9,0c-1.9-7.8-5.8-13.6-13.6-15.5c-3.9,0-9.7-1.9-17.4-1.9h-9.7
	c-5.8,0-5.8,1.9-5.8,1.9c-1.9,1.9-1.9,5.8-1.9,13.6v27.1c0,3.9,0,5.8,5.8,5.8h9.7c5.8,0,11.6-1.9,15.5-1.9c1.9,0,1.9-1.9,3.9-5.8
	l1.9-7.8c0,0,1.9,0,3.9,1.9c0,1.9-1.9,9.7-1.9,15.5c0,5.8,1.9,13.6,1.9,15.5c-1.9,1.9-3.9,1.9-3.9,1.9l-1.9-7.8
	c-1.9-3.9-1.9-5.8-3.9-5.8c-3.9-1.9-9.7-1.9-15.5-1.9h-9.7c-5.8,0-5.8,0-5.8,5.8v23.3c0,7.8,0,15.5,3.9,19.4
	c1.9,1.9,3.9,3.9,19.4,3.9c19.4,0,27.1-1.9,34.9-19.4h3.9c-1.9,5.8-3.9,19.4-7.7,23.3h-83.3c-1.9,0-1.9-1.9,0-1.9l5.8-1.9
	c3.9,0,5.8-1.9,7.8-1.9c1.9-3.9,1.9-11.6,1.9-21.3V1426.4L709.4,1426.4z M854.8,1484.5c0,7.8,0,15.5,3.9,19.4
	c1.9,1.9,3.9,3.9,19.4,3.9c19.4,0,25.2-1.9,32.9-19.4h1.9c0,5.8-3.9,19.4-5.8,23.3h-79.5c-1.9,0-1.9-1.9,0-1.9l3.9-1.9
	c3.9,0,7.7,0,7.7-1.9c1.9-3.9,3.9-11.6,3.9-21.3v-58.1c0-9.7-1.9-17.5-3.9-21.3c0-1.9-3.9-1.9-7.7-1.9l-3.9-1.9
	c-1.9,0-1.9-1.9,0-1.9h40.7c1.9,0,1.9,1.9,1.9,1.9l-3.9,1.9c-3.9,0-7.8,0-9.7,1.9c-1.9,3.9-1.9,11.6-1.9,21.3L854.8,1484.5
	L854.8,1484.5L854.8,1484.5z M1011.8,1399.2h5.8c1.9,5.8,3.9,15.5,3.9,21.3h-3.9c-1.9-7.8-7.8-19.4-23.3-19.4
	c-17.4,0-21.3,13.6-21.3,19.4c0,11.6,9.7,17.5,15.5,21.3l15.5,9.7c7.8,5.8,17.4,15.5,17.4,31c0,19.4-13.6,31-34.9,31
	c-13.6,0-21.3-3.9-25.2-5.8c-1.9-3.9-3.9-13.6-3.9-23.3h1.9c3.9,9.7,11.6,25.2,31,25.2c13.6,0,21.3-9.7,21.3-21.3
	c0-7.8-1.9-15.5-15.5-23.3l-13.6-9.7c-11.6-5.8-19.4-15.5-19.4-29.1c0-15.5,11.6-29.1,33-29.1
	C1002.1,1397.3,1007.9,1397.3,1011.8,1399.2L1011.8,1399.2z M1170.7,1449.6c11.6,7.8,29.1,25.2,34.9,40.7
	c-5.8,7.8-15.5,15.5-29.1,15.5c-15.5,0-25.2-13.6-25.2-27.1C1151.3,1467,1159.1,1457.4,1170.7,1449.6L1170.7,1449.6z M1172.6,1513.6
	c13.6,0,27.1-9.7,34.9-19.4c3.9,1.9,7.8,13.6,11.6,15.5c1.9,1.9,9.7,3.9,17.4,3.9c9.7,0,19.4-1.9,27.1-11.6c0,0,0-1.9-1.9-1.9
	c-3.9,3.9-9.7,5.8-15.5,5.8c-7.7,0-15.5-1.9-25.2-15.5c-2.4-2.2-4.4-4.8-5.8-7.8c9.7-13.6,17.4-23.3,19.4-29.1
	c5.8-7.8,9.7-13.6,11.6-15.5c1.9-1.9,3.9-1.9,5.8-3.9l9.7-1.9v-1.9H1225c-1.9,1.9-1.9,1.9,0,3.9h5.8c3.9,0,3.9,1.9,3.9,1.9
	c0,1.9,0,5.8-3.9,11.6c-3.9,9.7-9.7,19.4-17.4,31c-9.7-17.4-21.3-27.1-31-34.9c5.8-5.8,15.5-11.6,15.5-21.3
	c0-9.7-9.7-19.4-21.3-19.4c-11.6,0-23.3,9.7-23.3,23.3c0,7.8,5.8,15.5,13.6,19.4c-13.6,9.7-27.1,21.3-27.1,36.8
	C1139.7,1498.1,1149.4,1513.6,1172.6,1513.6L1172.6,1513.6z M1178.4,1439.9c-7.8-3.9-15.5-9.7-15.5-19.4c0-7.8,5.8-13.6,11.6-13.6
	c9.7,0,13.6,7.8,13.6,15.5C1188.1,1428.3,1184.3,1436.1,1178.4,1439.9z M1385.8,1399.2c0-5.8,0-9.7,1.9-9.7
	c1.9-1.9,5.8-1.9,11.6-1.9c21.3,0,31,15.5,31,31s-3.9,21.3-9.7,25.2c-5.8,3.9-13.6,5.8-21.3,5.8c-7.8,0-11.6-1.9-11.6-1.9
	c-1.9,0-1.9-1.9-1.9-5.8V1399.2L1385.8,1399.2z M1372.2,1480.6c0,11.6-1.9,21.3-3.9,23.3c-1.9,3.9-5.8,3.9-7.8,3.9l-5.8,1.9v1.9
	h46.5c1.9,0,1.9-1.9,0-1.9l-3.9-1.9c-1.9,0-5.8,0-7.8-3.9c-1.9-1.9-3.9-11.6-3.9-23.3v-21.3c0-5.8,0-5.8,11.6-5.8
	c7.8,0,9.7,1.9,11.6,5.8c7.8,9.7,15.5,23.3,19.4,31c13.6,19.4,23.3,23.3,40.7,23.3h9.7v-3.9c-7.8,0-11.6,0-15.5-3.9
	c-13.6-11.6-23.3-27.1-38.8-52.3c-1.9-1.9-1.9-3.9-1.9-5.8c9.7-1.9,25.2-13.6,25.2-31c0-13.6-7.8-23.3-17.4-27.1
	c-7.8-5.8-19.4-5.8-31-5.8c-15.5,0-27.1,0-42.6,1.9c-1.9,0-1.9,1.9,0,1.9h3.9c5.8,1.9,7.8,3.9,9.7,5.8c0,1.9,1.9,9.7,1.9,21.3
	L1372.2,1480.6L1372.2,1480.6L1372.2,1480.6z M1531.2,1426.4c0-11.6,0-17.5-1.9-19.4c-1.9-1.9-3.9-3.9-7.8-3.9l-3.9-1.9v-1.9h75.6
	c0,3.9,0,15.5,1.9,21.3c0,0-1.9,1.9-3.9,0c-1.9-7.8-3.9-13.6-13.6-15.5c-3.9,0-9.7-1.9-15.5-1.9h-9.7c-5.8,0-7.8,1.9-7.8,1.9v40.7
	c0,3.9,0,5.8,3.9,5.8h9.7c7.8,0,13.6-1.9,15.5-1.9c1.9,0,3.9-1.9,5.8-5.8v-7.8c1.9,0,3.9,0,3.9,1.9v31c0,1.9-1.9,1.9-3.9,1.9
	l-1.9-7.8c0-3.9-1.9-5.8-3.9-5.8c-1.9-1.9-7.8-1.9-15.5-1.9h-9.7c-3.9,0-3.9,0-3.9,5.8v23.3c0,7.8,0,15.5,1.9,19.4
	c1.9,1.9,5.8,3.9,19.4,3.9c21.3,0,29.1-1.9,36.8-19.4h1.9c0,5.8-3.9,19.4-5.8,23.3h-85.3v-1.9l7.8-1.9c1.9,0,5.8-1.9,7.8-1.9
	c1.9-3.9,1.9-11.6,1.9-21.3L1531.2,1426.4L1531.2,1426.4z M1703.6,1399.2h5.8c1.9,5.8,3.9,15.5,3.9,21.3h-3.9
	c-1.9-7.8-7.8-19.4-23.3-19.4c-17.4,0-21.3,13.6-21.3,19.4c0,11.6,9.7,17.5,15.5,21.3l15.5,9.7c7.8,5.8,19.4,15.5,19.4,31
	c0,19.4-15.5,31-36.8,31c-13.6,0-21.3-3.9-25.2-5.8c-1.9-3.9-3.9-13.6-3.9-23.3h1.9c3.9,9.7,11.6,25.2,31,25.2
	c13.6,0,21.3-9.7,21.3-21.3c0-7.8-1.9-15.5-15.5-23.3l-13.6-9.7c-9.7-5.8-19.4-15.5-19.4-29.1c0-15.5,11.6-29.1,33-29.1
	C1693.9,1397.3,1699.8,1397.3,1703.6,1399.2L1703.6,1399.2z M1823.8,1401.2c34.9,0,46.5,31,46.5,58.1c0,36.8-19.4,50.4-42.6,50.4
	c-32.9,0-44.6-32.9-44.6-58.1C1783.1,1412.8,1806.4,1401.2,1823.8,1401.2L1823.8,1401.2z M1827.7,1397.3
	c-34.9,0-60.1,25.2-60.1,60.1c0,29.1,21.3,56.2,60.1,56.2c33,0,58.1-23.3,58.1-58.1C1885.8,1424.4,1864.5,1397.3,1827.7,1397.3z
	 M1959.5,1412.8c0-5.8,0-7.8,1.9-7.8c0-1.9,5.8-1.9,9.7-1.9c19.4,0,27.1,13.6,27.1,27.1c0,11.6-3.9,17.4-7.8,21.3
	c-5.8,3.9-11.6,5.8-19.4,5.8c-7.8,0-9.7-1.9-11.6-1.9L1959.5,1412.8L1959.5,1412.8z M1945.9,1484.5c0,9.7,0,17.4-1.9,21.3
	c-1.9,1.9-5.8,1.9-7.8,3.9h-3.9v1.9h40.7v-1.9h-3.9c-1.9-1.9-5.8-1.9-7.8-3.9c-1.9-3.9-1.9-11.6-1.9-21.3v-19.4c0-3.9,0-3.9,9.7-3.9
	c5.8,0,7.8,1.9,11.6,5.8c5.8,7.8,11.6,19.4,15.5,25.2c13.6,17.4,21.3,21.3,36.8,21.3h7.8v-3.9c-5.8,0-9.7,0-13.6-3.9
	c-11.6-9.7-21.3-23.3-34.9-44.6c0-1.9-1.9-3.9,0-5.8c7.8-1.9,21.3-11.6,21.3-27.1c0-11.6-7.8-19.4-15.5-23.3
	c-7.7-3.9-17.5-5.8-27.1-5.8c-13.6,0-25.2,0-36.8,1.9c-1.9,0-1.9,1.9-1.9,1.9h5.8c3.9,0,5.8,1.9,5.8,3.9c1.9,3.9,1.9,9.7,1.9,19.4
	L1945.9,1484.5L1945.9,1484.5z M2155.2,1399.2h11.6c1.9,0,1.9-1.9,3.9-3.9h1.9c-1.9,7.8-1.9,21.3-1.9,25.2h-3.9
	c0-5.8-1.9-9.7-3.9-11.6c-3.9-3.9-11.6-5.8-19.4-5.8H2132c-5.8,0-5.8,0-5.8,7.8v73.6c0,9.7,0,19.4,1.9,21.3c1.9,1.9,5.8,1.9,7.8,3.9
	h5.8v1.9h-46.5v-1.9l7.8-1.9c3.9,0,5.8,0,7.8-1.9c1.9-1.9,1.9-11.6,1.9-21.3v-73.6c0-7.8,0-7.8-5.8-7.8h-9.7
	c-9.7,0-17.5,1.9-21.3,5.8c-3.9,3.9-5.8,7.8-7.8,11.6c0,0-1.9,0-1.9-1.9c1.9-5.8,5.8-17.5,5.8-23.3h1.9c0,1.9,1.9,1.9,3.9,3.9
	L2155.2,1399.2L2155.2,1399.2z M2273.4,1399.2h5.8c1.9,5.8,1.9,15.5,1.9,21.3h-1.9c-3.9-7.8-7.8-19.4-25.2-19.4
	c-15.5,0-19.4,13.6-19.4,19.4c0,11.6,7.8,17.5,15.5,21.3l15.5,9.7c7.8,5.8,17.4,15.5,17.4,31c0,19.4-13.6,31-34.9,31
	c-13.6,0-21.3-3.9-25.2-5.8c-3.9-3.9-5.8-13.6-5.8-23.3h3.9c1.9,9.7,11.6,25.2,29.1,25.2c15.5,0,21.3-9.7,21.3-21.3
	c0-7.8-1.9-15.5-13.6-23.3l-15.5-9.7c-9.7-5.8-17.5-15.5-17.5-29.1c0-15.5,11.6-29.1,33-29.1
	C2261.8,1397.3,2269.6,1397.3,2273.4,1399.2L2273.4,1399.2z"/>
</svg>
