<svg width="44" height="43" viewBox="0 0 44 43" fill="none" xmlns="http://www.w3.org/2000/svg">
<path d="M9.28421 23.3632C8.24391 23.0076 7.4319 22.249 7.0092 21.2356C6.5865 20.2222 6.61309 19.1149 7.09633 18.1082L9.49892 12.8531C9.65341 12.5175 9.50572 12.1149 9.17018 11.9605C8.83463 11.806 8.43204 11.9537 8.27756 12.2892L5.87497 17.5307C5.23076 18.8729 5.19028 20.3696 5.76744 21.7454C6.3446 23.1212 7.4387 24.1412 8.8479 24.6244C8.92175 24.6513 8.99559 24.6581 9.06264 24.6581C9.34442 24.6581 9.59964 24.4835 9.70036 24.2017C9.82086 23.8665 9.633 23.484 9.28417 23.3631L9.28421 23.3632Z" fill="white"/>
<path d="M37.2419 23.7644C37.8191 22.3885 37.7789 20.8919 37.1412 19.5565L34.7386 14.3014C34.5841 13.9659 34.1883 13.8182 33.846 13.9727C33.5104 14.1272 33.3627 14.523 33.5172 14.8653L35.9266 20.1269C36.4031 21.1203 36.43 22.2276 36.0073 23.241C35.5846 24.2544 34.7723 25.0127 33.7323 25.3686C33.3831 25.4894 33.1953 25.8719 33.3161 26.221C33.41 26.5028 33.6717 26.6774 33.9538 26.6774C34.0276 26.6774 34.1015 26.6641 34.1685 26.6437C35.5709 26.1605 36.6648 25.1402 37.2419 23.7644L37.2419 23.7644Z" fill="white"/>
<path d="M42.9765 39.9461C42.8557 39.597 42.4732 39.4091 42.1241 39.5299L39.5871 40.4025L35.6609 28.9396C37.4863 28.1341 38.9493 26.6646 39.7212 24.8055C40.5869 22.7452 40.5267 20.4097 39.5667 18.4029L32.2452 2.40306C32.1043 2.08759 31.7419 1.93342 31.4196 2.04743L21.9564 5.28917L22.1847 4.30258C22.2653 3.96703 22.0772 3.62469 21.7484 3.51747L11.5939 0.0340908C11.2716 -0.0734346 10.9092 0.081055 10.7682 0.389722L3.45297 16.3762C2.48647 18.3894 2.42628 20.7317 3.29199 22.792C4.07061 24.6443 5.53362 26.1209 7.35223 26.9261L3.42606 38.3826L0.889078 37.5101C0.539933 37.3893 0.157424 37.5772 0.0366423 37.9263C-0.0841399 38.2754 0.10369 38.6579 0.452831 38.7787L6.80169 40.9533C6.87553 40.9802 6.94938 40.987 7.01642 40.987C7.29821 40.987 7.55342 40.8124 7.65415 40.5306C7.77495 40.1815 7.5871 39.799 7.23796 39.6782L4.70098 38.8056L8.62715 27.3491C9.25128 27.5036 9.88219 27.584 10.5196 27.584C11.8554 27.584 13.184 27.2416 14.3719 26.5706C16.3181 25.47 17.7008 23.5908 18.1772 21.4094L21.2778 8.20804L24.8483 23.4225C25.3248 25.6035 26.7075 27.4827 28.6537 28.5836C29.8417 29.2547 31.1702 29.597 32.506 29.597C33.1369 29.597 33.7743 29.5164 34.3984 29.3622L38.3246 40.8187L35.7876 41.6912C35.4385 41.812 35.2506 42.1945 35.3714 42.5436C35.4654 42.8254 35.7271 43 36.0092 43C36.083 43 36.1569 42.9867 36.2239 42.9663L42.5728 40.7918C42.9089 40.6778 43.0968 40.2949 42.976 39.9461L42.9765 39.9461ZM16.8632 21.1209V21.1342C16.4739 22.9463 15.3263 24.5032 13.7089 25.4159C12.0982 26.3287 10.1652 26.5032 8.41366 25.906C6.66204 25.3087 5.24603 23.9798 4.52767 22.2752C3.80961 20.5706 3.86337 18.6309 4.66855 16.9464L9.12492 7.20864C9.84978 7.26889 10.5947 7.43017 11.4471 7.71875C13.4539 8.40344 14.2792 9.18854 15.1518 10.0207C16.0243 10.8528 16.9438 11.712 18.8966 12.4569L16.8632 21.1209ZM19.2055 11.1348C17.6149 10.5039 16.8632 9.79258 16.0781 9.04764C15.1385 8.15502 14.1652 7.22902 11.8834 6.44358C11.1048 6.17508 10.4004 6.00731 9.71568 5.91338L11.7358 1.4972L20.7426 4.58446L19.2055 11.1348ZM31.279 3.51728L33.2991 7.93347C32.6144 8.02739 31.9031 8.19517 31.1313 8.46366C28.8495 9.24877 27.8763 10.1683 26.9367 11.0677C26.1516 11.8127 25.3998 12.5242 23.8092 13.1549L22.2724 6.60463L31.279 3.51728ZM29.3059 27.4301C27.6952 26.5174 26.5409 24.9604 26.1516 23.1483V23.135L24.1179 14.4643C26.0709 13.7194 26.9904 12.8605 27.8627 12.028C28.7352 11.1959 29.5605 10.4106 31.5673 9.72614C32.4197 9.43756 33.1647 9.27658 33.8895 9.21602L38.3527 18.968C39.1514 20.6392 39.1983 22.5718 38.4868 24.2833C37.7755 25.9947 36.3527 27.3168 34.6008 27.914C32.8495 28.518 30.9166 28.3367 29.3059 27.4308L29.3059 27.4301Z" fill="white"/>
</svg>
