<svg width="20" height="16" viewBox="0 0 20 16" fill="none" xmlns="http://www.w3.org/2000/svg">
<path d="M0.25 0.5V15.5H19.75V0.5H0.25ZM1.75 2H18.25V3.5H1.75V2ZM1.75 5H18.25V14H1.75V5ZM13.75 5.75V6.54688C12.9062 6.6875 12.25 7.40234 12.25 8.28125C12.25 8.84668 12.5635 9.36523 13.0703 9.61719L15.25 10.7188C15.25 10.8857 15.1357 11 14.9688 11H14.0312C13.8643 11 13.75 10.8857 13.75 10.7188V10.25H12.25V10.7188C12.25 11.5977 12.9062 12.3125 13.75 12.4531V13.25H15.25V12.4531C16.0938 12.3125 16.75 11.5977 16.75 10.7188C16.75 10.1533 16.4365 9.6377 15.9297 9.38281L13.75 8.28125C13.75 8.11426 13.8643 8 14.0312 8H14.9688C15.1357 8 15.25 8.11426 15.25 8.28125V8.75H16.75V8.28125C16.75 7.40234 16.0938 6.6875 15.25 6.54688V5.75H13.75ZM3.25 11V12.5H10V11H3.25Z" fill="#1D3C86"/>
</svg>
