<svg width="41" height="40" viewBox="0 0 41 40" fill="none" xmlns="http://www.w3.org/2000/svg">
<g clip-path="url(#clip0_1590_24913)">
<path d="M41.0009 25.8167V37.7451C40.9811 37.7841 40.965 37.825 40.9526 37.867C40.8802 38.2542 40.7211 38.6193 40.4875 38.934C39.9295 39.6768 39.1854 40.0057 38.2693 40.0047C35.0735 40.0009 31.8774 40.0009 28.681 40.0047C26.3382 40.0047 23.9943 39.999 21.6514 40.0047C20.0043 40.0104 18.9644 38.6514 18.9737 37.2858C18.9988 33.5727 18.9803 29.8587 18.983 26.1456C18.9877 25.4651 19.2535 24.8133 19.7239 24.3288C20.1943 23.8444 20.8321 23.5655 21.5017 23.5515C22.5192 23.5401 23.5377 23.5515 24.5552 23.5515H24.8007C24.8007 23.1073 24.8007 22.6934 24.8007 22.2794C24.8156 20.7607 25.9317 19.6097 27.4254 19.5993C29.138 19.586 30.8506 19.586 32.5632 19.5993C32.9812 19.5919 33.3945 19.6897 33.7663 19.8839C34.138 20.0781 34.4568 20.3628 34.694 20.7125C35.0208 21.1783 35.1908 21.7388 35.1786 22.3106C35.1786 22.717 35.1786 23.1224 35.1786 23.5515H35.4334C36.4435 23.5515 37.4545 23.5458 38.4646 23.5515C38.969 23.5584 39.4602 23.7167 39.8763 24.0064C40.2925 24.2961 40.6152 24.7043 40.8037 25.1798C40.8884 25.3811 40.9367 25.6022 41.0009 25.8167ZM20.2768 29.8341V31.6609C20.2768 33.5315 20.2768 35.4023 20.2768 37.2735C20.2768 38.1004 20.8209 38.6665 21.6077 38.6665C27.1963 38.6665 32.7852 38.6665 38.3744 38.6665C38.4742 38.669 38.574 38.6604 38.672 38.641C39.323 38.4926 39.7044 37.9795 39.7053 37.2518C39.7053 34.8281 39.7053 32.4024 39.7053 29.9749C39.7053 29.9192 39.6997 29.8644 39.6979 29.8294C33.2226 32.0043 26.7489 32.0058 20.2768 29.8341ZM26.1149 24.8717C26.1149 25.3111 26.1149 25.7222 26.1149 26.1399C26.1149 26.5577 25.8359 26.8317 25.4639 26.8336C25.0918 26.8355 24.8128 26.5567 24.8035 26.1503C24.7942 25.8016 24.8035 25.4519 24.8035 25.1023C24.8035 25.0257 24.7961 24.9501 24.7914 24.8613H24.5756C23.6084 24.8613 22.6411 24.8613 21.6738 24.8613C20.8237 24.8613 20.2786 25.4179 20.2786 26.2864C20.2786 26.9045 20.2852 27.5235 20.2731 28.1425C20.2731 28.3202 20.3298 28.3892 20.4888 28.4515C23.1489 29.5109 25.9224 29.992 28.7666 30.0978C30.7426 30.1824 32.722 30.0697 34.6764 29.7614C36.3437 29.4956 37.9788 29.0521 39.5546 28.4383C39.6056 28.4249 39.65 28.393 39.6793 28.3485C39.7086 28.3041 39.7208 28.2503 39.7137 28.1973C39.7063 27.5641 39.7137 26.93 39.7137 26.2968C39.7137 25.416 39.1705 24.866 38.3046 24.8651C37.3448 24.8651 36.3837 24.8651 35.4214 24.8651H35.186V25.1089C35.186 25.451 35.1925 25.7931 35.186 26.1352C35.1749 26.5548 34.8959 26.8336 34.5117 26.8251C34.1397 26.8166 33.8811 26.5265 33.8774 26.1163C33.8774 25.7676 33.8774 25.4179 33.8774 25.0683C33.8774 24.9993 33.8709 24.9303 33.8672 24.8632L26.1149 24.8717ZM33.8672 23.5401C33.8672 23.0752 33.8737 22.6319 33.8672 22.1896C33.8619 21.8547 33.728 21.535 33.4942 21.2989C33.2603 21.0627 32.945 20.9286 32.6153 20.9252C30.8667 20.9208 29.1185 20.9208 27.3705 20.9252C26.8125 20.9252 26.2656 21.3126 26.1772 21.8702C26.0889 22.4278 26.1186 22.9778 26.0954 23.542L33.8672 23.5401Z" fill="white"/>
<path d="M29.9952 35.3853C29.3581 35.3853 28.721 35.3853 28.0839 35.3853C27.6858 35.3853 27.4049 35.1121 27.404 34.7322C27.4031 34.3523 27.6775 34.0707 28.0774 34.0707C29.3516 34.0669 30.6258 34.0669 31.9001 34.0707C32.3028 34.0707 32.5781 34.3438 32.5799 34.7237C32.5818 35.1036 32.3009 35.3853 31.8852 35.3853C31.2546 35.3862 30.6286 35.3853 29.9952 35.3853Z" fill="white"/>
<path d="M-1.86017e-06 2.68205C0.103318 2.47698 0.220806 2.2796 0.351573 2.09139C0.851959 1.46199 1.53372 1.44687 2.22756 1.59336C3.6664 1.89766 4.62253 2.77655 5.0792 4.19317C5.52936 5.58901 5.95441 6.99429 6.39155 8.39485C6.55339 8.91084 6.74777 9.05638 7.27327 9.05638C9.21033 9.05638 11.148 9.05638 13.0863 9.05638H13.383C13.3337 8.90801 13.2993 8.79271 13.2574 8.67836C12.3416 6.19037 11.4255 3.70175 10.509 1.2125C10.4445 1.06273 10.4052 0.902994 10.3928 0.73998C10.3925 0.553706 10.4628 0.374468 10.589 0.239367C10.7152 0.104266 10.8877 0.0236424 11.0708 0.0141833C12.172 0.000952712 13.2779 -0.0321234 14.3745 0.0500955C15.6124 0.1446 16.5267 0.835428 17.1787 1.90144C18.5692 4.16955 19.9689 6.43293 21.3538 8.70577C21.5157 8.97132 21.6849 9.06299 21.9881 9.0611C23.9841 9.04598 25.9801 9.03086 27.976 9.0611C31.0453 9.10458 33.4635 10.4116 35.2074 12.9887C35.7283 13.7589 35.8232 14.5858 35.373 15.4213C34.934 16.2368 34.2336 16.6177 33.3147 16.6158C29.5442 16.6158 25.7727 16.6158 22.0021 16.6073C21.7035 16.6073 21.5296 16.6838 21.365 16.9551C19.9903 19.2232 18.5887 21.4686 17.2084 23.731C16.4141 25.0333 15.2887 25.6939 13.7736 25.6712C12.9366 25.658 12.0995 25.6712 11.2624 25.6712C10.5528 25.6712 10.2337 25.2044 10.483 24.5239C11.4069 22.0139 12.3326 19.5039 13.2602 16.9938C13.2993 16.8861 13.3318 16.7755 13.3849 16.6158H12.984C10.443 16.6158 7.90108 16.5771 5.3573 16.6262C2.6275 16.6801 0.395288 14.6331 0.0502264 12.1429C0.0374112 12.0987 0.017622 12.0569 -0.00836945 12.0191L-1.86017e-06 2.68205ZM22.5192 15.1028H33.0785C33.1826 15.1028 33.2877 15.1028 33.391 15.0981C34.0513 15.0489 34.3592 14.4469 33.99 13.8837C32.6367 11.8216 30.7347 10.6356 28.2988 10.6176C21.3148 10.5656 14.3298 10.5968 7.34582 10.5949C6.09206 10.5949 5.31916 10.0175 4.94619 8.81161C4.50906 7.39404 4.08029 5.98404 3.62548 4.57686C3.31948 3.63182 2.43962 3.00903 1.54302 3.06479C1.54302 3.1196 1.53093 3.17725 1.53093 3.2349C1.5179 5.89898 1.49931 8.56307 1.49931 11.2271C1.49751 11.6038 1.54473 11.9791 1.63974 12.3432C2.09734 14.0443 3.53711 15.0933 5.39821 15.0971C8.11313 15.1028 10.8281 15.0971 13.543 15.1066C13.8583 15.1066 14.0136 15.0243 14.1168 14.7125C14.3559 13.9886 14.6284 13.2751 14.9055 12.5653C14.9633 12.4021 15.0763 12.2649 15.2243 12.1784C15.3724 12.0918 15.5458 12.0615 15.7138 12.0928C16.0226 12.1391 16.3063 12.3952 16.3258 12.726C16.326 12.9479 16.2827 13.1677 16.1984 13.3724C14.9235 16.8458 13.645 20.3169 12.3627 23.7859C12.3208 23.8983 12.2855 24.0136 12.2362 24.1639C12.7831 24.1639 13.2705 24.1554 13.7569 24.1639C14.7251 24.1847 15.4403 23.7717 15.9463 22.9287C16.7918 21.5225 17.6614 20.1304 18.5208 18.7327C19.7792 16.6857 21.032 14.6359 22.3072 12.5994C22.4528 12.3804 22.6613 12.2124 22.9043 12.1183C23.1833 12.0153 23.454 12.1571 23.6279 12.4141C23.718 12.5392 23.7675 12.6896 23.7697 12.8445C23.7719 12.9995 23.7265 13.1513 23.64 13.2788C23.2865 13.8629 22.921 14.4488 22.5192 15.1028ZM19.822 9.05449C18.4269 6.79678 17.0857 4.61277 15.724 2.43917C15.5952 2.2189 15.419 2.03105 15.2086 1.88966C14.9983 1.74828 14.7592 1.657 14.5093 1.62265C13.7708 1.53854 13.0212 1.54327 12.239 1.5083C12.2734 1.63399 12.2827 1.67841 12.2985 1.72094C13.1703 4.08733 14.0409 6.45467 14.9102 8.82295C14.979 9.01196 15.0776 9.06394 15.2664 9.0611C16.0198 9.05071 16.7741 9.0611 17.5284 9.0611L19.822 9.05449Z" fill="white"/>
</g>
<defs>
<clipPath id="clip0_1590_24913">
<rect width="41" height="40" fill="white"/>
</clipPath>
</defs>
</svg>
