<svg width="19" height="16" viewBox="0 0 19 16" fill="none" xmlns="http://www.w3.org/2000/svg">
<path d="M1.75 0.5V1.25C1.75 3.64941 2.53516 6.50586 3.29688 8.79688C3.70996 10.0391 4.10547 11.0264 4.39844 11.75H0.367188L1.11719 12.9219C1.11719 12.9219 1.53027 13.54 2.14844 14.1641C2.7666 14.7881 3.61914 15.5 4.75 15.5H13.0469C14.1367 15.5 14.9336 14.7793 15.5547 14.1641C16.1758 13.5488 16.6094 12.9453 16.6094 12.9453L17.4531 11.75H13.375C13.5479 11.3281 13.7324 10.8213 13.9609 10.2031C14.0371 10.1855 15.165 9.9248 16.3516 9.28906C16.9639 8.96094 17.6025 8.52734 18.1094 7.95312C18.6162 7.37891 19 6.62891 19 5.75C19 4.44629 17.9072 3.5 16.75 3.5C16.4424 3.5 16.1172 3.55859 15.7891 3.66406C15.9209 2.84082 16 2.02051 16 1.25V0.5H1.75ZM3.34375 2H14.4062C14.333 3.11914 14.1074 4.34375 13.8203 5.5625C13.8145 5.58008 13.8027 5.5918 13.7969 5.60938C13.5742 6.54395 13.3311 7.47852 13.0469 8.32812C12.3936 10.2852 11.875 11.4277 11.7344 11.75H6.01562C5.875 11.4277 5.35645 10.2705 4.70312 8.30469C4.04395 6.32422 3.47559 3.96582 3.34375 2ZM16.75 5C17.2158 5 17.5 5.17871 17.5 5.75C17.5 6.20703 17.3213 6.59082 16.9844 6.96875C16.6475 7.34668 16.1611 7.70117 15.6484 7.97656C15.2617 8.18457 14.9043 8.3457 14.5703 8.46875C14.8428 7.63086 15.0889 6.72559 15.3203 5.79688C15.3262 5.78809 15.3379 5.78223 15.3438 5.77344C15.6719 5.22559 16.3076 5 16.75 5ZM3.48438 13.25H14.2422C13.7852 13.6279 13.2549 14 13.0469 14H4.75C4.42773 14 3.92676 13.6221 3.48438 13.25Z" fill="#1D3C86"/>
</svg>
