<svg width="43" height="42" viewBox="0 0 43 42" fill="none" xmlns="http://www.w3.org/2000/svg">
<path d="M0 40.9749C0.168359 40.2259 0.352431 39.4802 0.505077 38.7289C1.50176 33.8153 2.49658 28.9016 3.48952 23.988C4.038 21.2671 4.58722 18.5462 5.13719 15.8253C5.29882 15.0196 5.43351 14.902 6.28316 14.9009H7.68615C7.53687 14.6357 7.41902 14.4226 7.2978 14.2118C6.23938 12.3686 5.30892 10.4755 4.83976 8.38712C3.93062 4.34347 6.67263 0.516208 10.8288 0.0434868C15.0221 -0.431453 18.7541 3.1195 18.4095 7.26413C18.2355 9.37251 17.3758 11.259 16.4049 13.1066C16.0985 13.6902 15.7651 14.2595 15.4082 14.9009H36.7898C37.553 14.9009 37.7158 15.0263 37.8651 15.7609C39.2187 22.4611 40.5719 29.1613 41.9248 35.8615C42.2667 37.5541 42.6098 39.246 42.954 40.9372C43.11 41.7017 42.8765 41.9925 42.0763 41.9936C40.2565 41.9936 38.4367 41.9936 36.617 41.9936C24.7592 41.9936 12.9015 41.9936 1.04383 41.9936C0.618438 41.9936 0.232335 41.9658 0 41.5497V40.9749ZM3.80379 29.1014C3.45473 30.8247 3.11015 32.5181 2.76445 34.2181H10.8232C10.9063 33.4768 10.9781 32.7611 11.0702 32.0487C11.142 31.4938 11.3957 31.2719 11.8401 31.3407C12.2408 31.3973 12.426 31.7136 12.371 32.2173C12.2992 32.8831 12.2363 33.549 12.1667 34.2447H21.2985C21.9495 34.2447 22.1706 34.4667 22.1718 35.1214C22.1718 36.8103 22.1718 38.4992 22.1718 40.1881V40.6597H41.5387C40.7575 36.7944 39.9811 32.9527 39.2097 29.1347H31.6616C31.6897 29.462 31.7345 29.7616 31.7345 30.0613C31.7345 30.5184 31.4955 30.7836 31.1105 30.7959C30.7255 30.8081 30.4674 30.5318 30.4213 30.1056C30.3866 29.7805 30.3461 29.4554 30.3091 29.1069H28.5975C27.2506 29.1069 25.9093 29.1069 24.5647 29.1069C24.0664 29.1069 23.7914 28.794 23.861 28.3468C23.9148 27.9984 24.1618 27.823 24.6466 27.8219C26.3134 27.8219 27.979 27.8219 29.6458 27.8219H30.1913C30.0094 26.0842 29.8321 24.3997 29.6536 22.7086H22.1785C22.1785 23.6773 22.1785 24.6161 22.1785 25.5549C22.1785 26.0476 21.9215 26.3494 21.5196 26.3516C21.1178 26.3538 20.8552 26.0465 20.8518 25.5593C20.8518 24.7426 20.8518 23.9259 20.8518 23.1092C20.8518 22.9638 20.8372 22.8184 20.8283 22.6475H20.3254C18.9954 22.6475 17.6642 22.6475 16.3342 22.6475C15.8639 22.6475 15.5676 22.3845 15.5642 22.005C15.5642 21.6444 15.8493 21.3736 16.2803 21.3392C16.3926 21.3303 16.5048 21.3392 16.617 21.3392H20.8271V16.2569C20.7794 16.2433 20.7306 16.2336 20.6812 16.2281C18.7215 16.2281 16.7614 16.2281 14.801 16.2281C14.748 16.2251 14.695 16.2325 14.6449 16.2498C14.5948 16.2671 14.5487 16.2941 14.5092 16.329C14.1781 16.7829 13.866 17.2512 13.5394 17.7272C13.6808 17.8116 13.7763 17.8671 13.8694 17.9236C15.5148 18.9224 15.5811 20.6534 14.0097 21.7731C13.2397 22.3213 12.3677 22.5066 11.4282 22.4711C11.2812 22.4711 11.0533 22.5488 10.9894 22.6608C10.3743 23.7472 9.97134 24.9068 9.93206 26.1619C9.89502 27.3725 10.4439 28.167 11.5337 28.632C12.7111 29.1336 13.8492 29.047 14.9637 28.4689C15.7068 28.0849 16.4363 27.6755 17.1782 27.2915C19.3994 26.1419 22.1796 27.5933 22.7801 29.6362C22.944 30.1911 23.1168 30.7459 23.3211 31.2897C23.8239 32.5913 24.9856 33.2549 26.3616 32.9542C27.1608 32.7811 27.933 32.487 28.7063 32.2085C29.666 31.8634 30.629 31.5882 31.6515 31.8756C32.674 32.163 33.4754 32.8232 34.187 33.5822C34.2634 33.6775 34.3627 33.7524 34.4757 33.8003C34.5888 33.8481 34.7121 33.8674 34.8346 33.8563C35.7471 33.8053 36.6214 33.9595 37.3993 34.4667C39.0469 35.5386 38.9482 37.5815 37.204 38.4925C36.241 38.9963 35.2005 39.1029 34.1432 38.952C33.2924 38.8299 32.5393 38.4637 31.9815 37.789C31.1273 36.7559 31.2744 35.5064 32.3418 34.6941C32.5472 34.5377 32.7716 34.4045 32.9894 34.2603C32.0387 33.1672 30.8658 32.8177 29.5425 33.2704C28.804 33.5212 28.0969 33.8641 27.3538 34.0971C24.7937 34.8994 22.3648 33.6211 21.844 30.9701C21.771 30.647 21.6669 30.3315 21.5331 30.028C20.8799 28.4367 19.2423 27.7809 17.6766 28.5099C16.9448 28.8506 16.2534 29.2745 15.5328 29.6396C14.4721 30.1778 13.3531 30.4363 12.1656 30.1789C10.4506 29.8082 9.14414 28.9582 8.70304 27.1572C8.51349 26.329 8.55225 25.4656 8.81528 24.6571C9.0723 23.8038 9.40004 22.9716 9.70309 22.1127C8.80517 21.6988 8.06215 21.0984 8.00042 19.991C7.93869 18.8835 8.61773 18.2111 9.55044 17.7184C9.23056 17.2423 8.93537 16.7929 8.62559 16.3524C8.59761 16.3159 8.56234 16.2856 8.52198 16.2633C8.48162 16.2409 8.43703 16.2271 8.39101 16.2225C7.7389 16.2136 7.08118 16.2136 6.40774 16.2136C5.62207 20.0797 4.85098 23.9126 4.06531 27.8008H4.60293C5.42902 27.8008 6.2551 27.7909 7.08118 27.8064C7.60197 27.8153 7.87359 28.1082 7.81635 28.5499C7.76921 28.9039 7.51442 29.0981 7.05649 29.1047C5.98236 29.1092 4.9071 29.1047 3.80379 29.1047V29.1014ZM11.5483 18.1844C13.609 15.4036 15.4991 12.605 16.6215 9.37806C16.9908 8.31721 17.2175 7.22751 17.0783 6.08233C16.9488 4.99838 16.4967 3.97685 15.7794 3.14717C15.0621 2.31749 14.1118 1.717 13.0489 1.4218C11.9861 1.12659 10.8585 1.14996 9.80909 1.48893C8.75969 1.8279 7.83567 2.46723 7.15413 3.3259C5.88022 4.95823 5.69502 6.7792 6.25622 8.7067C7.29892 12.2321 9.36637 15.1994 11.5472 18.1878L11.5483 18.1844ZM20.8159 40.6442V35.5896H12.0197C11.8412 37.283 11.6662 38.9508 11.4888 40.6475L20.8159 40.6442ZM10.6942 35.6174C10.6498 35.596 10.6031 35.5796 10.555 35.5686C7.9544 35.5686 5.35269 35.5597 2.75211 35.5686C2.6804 35.5864 2.61449 35.622 2.56066 35.6721C2.50683 35.7223 2.46686 35.7852 2.44457 35.8549C2.23244 36.797 2.045 37.7413 1.85532 38.6912C1.72624 39.3337 1.60502 39.9784 1.47707 40.6442H10.1633C10.3417 38.9486 10.5168 37.2886 10.693 35.6207L10.6942 35.6174ZM38.9179 27.7964C38.8977 27.6344 38.8887 27.5134 38.8651 27.3947C38.5744 25.9621 38.2691 24.5318 37.9986 23.0947C37.938 22.7751 37.837 22.6597 37.4969 22.6631C35.4699 22.6775 33.4417 22.6697 31.4135 22.6708C31.28 22.6708 31.1453 22.6819 30.9713 22.6897C31.1543 24.4208 31.3327 26.103 31.5112 27.7942L38.9179 27.7964ZM29.51 21.3348C29.3315 19.6214 29.1575 17.937 28.9813 16.2469H22.1998V21.3348H29.51ZM37.6417 21.3426L36.6057 16.2381H30.3035C30.482 17.9558 30.657 19.6414 30.8344 21.3426H37.6417ZM35.0119 37.809C35.6147 37.607 36.2297 37.4927 36.7472 37.2064C37.4363 36.8236 37.406 36.0723 36.7651 35.6152C35.8908 34.9926 34.1511 34.986 33.2644 35.6018C32.5763 36.0801 32.5573 36.8436 33.2947 37.2364C33.8054 37.5083 34.407 37.6148 35.0119 37.809ZM10.3844 18.7992C9.85798 19.0444 9.31137 19.2564 9.30239 19.88C9.29341 20.5036 9.82319 20.7589 10.3238 20.9519C11.1125 21.261 11.9908 21.261 12.7796 20.9519C13.2835 20.7622 13.7965 20.4992 13.7763 19.8667C13.7561 19.2342 13.2386 19.0211 12.6931 18.8269C12.5181 19.0622 12.3452 19.3118 12.1555 19.5493C11.793 20.0043 11.2801 19.9932 10.9209 19.5349C10.7469 19.3041 10.5797 19.0666 10.3844 18.7992Z" fill="white"/>
<path d="M11.6022 26.843C11.7088 25.872 11.812 24.8566 11.9389 23.8468C11.9838 23.4806 12.2273 23.292 12.6022 23.292C12.6868 23.2916 12.7706 23.3083 12.8485 23.341C12.9263 23.3738 12.9966 23.4219 13.0549 23.4825C13.1133 23.5431 13.1585 23.6149 13.1877 23.6933C13.217 23.7718 13.2297 23.8554 13.2251 23.9389C13.1376 24.9976 13.0295 26.0543 12.9008 27.1093C12.892 27.1923 12.8666 27.2727 12.8259 27.3458C12.7852 27.4189 12.7302 27.4832 12.6639 27.5349C12.5977 27.5866 12.5217 27.6247 12.4403 27.6469C12.359 27.6691 12.274 27.6749 12.1903 27.6641C11.7952 27.6009 11.5876 27.3212 11.6022 26.843Z" fill="white"/>
<path d="M11.5393 9.84714C9.73341 9.83937 8.39664 8.52663 8.40562 6.76336C8.41236 5.01895 9.803 3.68069 11.5786 3.70843C13.3542 3.73617 14.6933 5.05003 14.6933 6.78112C14.6933 8.54217 13.3419 9.85491 11.5393 9.84714ZM11.5506 4.9901C11.3122 4.98311 11.075 5.02417 10.8532 5.11076C10.6315 5.19735 10.4298 5.32768 10.2607 5.49379C10.0915 5.6599 9.95831 5.85833 9.86921 6.07697C9.7801 6.29562 9.73696 6.52991 9.74239 6.76558C9.73341 7.80978 10.5034 8.58877 11.5461 8.58988C12.0286 8.58988 12.4914 8.40037 12.8326 8.06303C13.1738 7.72569 13.3655 7.26817 13.3655 6.7911C13.3655 6.31404 13.1738 5.85651 12.8326 5.51917C12.4914 5.18184 12.0286 4.99232 11.5461 4.99232L11.5506 4.9901Z" fill="white"/>
</svg>
