<svg width="373" height="352" viewBox="0 0 373 352" fill="none" xmlns="http://www.w3.org/2000/svg">
<g opacity="0.6" clip-path="url(#clip0_6_368)">
<path d="M151.644 197.876L148.353 198.491C148.203 198.517 148.06 198.572 147.931 198.653C147.877 198.701 147.834 198.76 147.804 198.826C147.775 198.893 147.76 198.965 147.761 199.037C147.785 199.107 147.825 199.17 147.877 199.221C147.93 199.272 147.994 199.311 148.064 199.333C148.214 199.365 148.37 199.365 148.52 199.332C148.784 199.276 149.048 199.22 149.312 199.164C149.809 199.08 150.311 199.025 150.814 199C151.292 198.967 151.768 199.092 152.167 199.357C152.567 199.621 152.867 200.011 153.022 200.464C153.074 200.705 153.196 200.943 153.259 201.182C153.423 201.952 153.667 202.704 153.862 203.455C155.436 204.474 156.805 205.779 157.898 207.303C159.385 209.425 160.212 211.939 160.274 214.53C160.315 217.24 159.465 219.888 157.855 222.067L158.047 222.975C158.665 225.881 159.285 228.799 159.742 231.739C159.865 232.601 159.917 233.467 159.969 234.332C159.978 234.682 159.943 235.032 159.867 235.374C159.815 235.662 159.686 235.93 159.494 236.151C159.302 236.371 159.054 236.536 158.776 236.626L157.56 237.005C157.411 237.044 157.265 237.095 157.124 237.158C157.031 237.189 156.953 237.254 156.905 237.34C156.857 237.425 156.842 237.526 156.863 237.621C156.881 237.719 156.934 237.807 157.011 237.869C157.088 237.932 157.184 237.966 157.284 237.964C157.477 237.967 157.67 237.946 157.859 237.902L162.654 236.739C163.366 236.587 164.09 236.433 164.802 236.282L171.243 235.069C171.433 235.03 171.617 234.967 171.791 234.88C171.885 234.846 171.963 234.779 172.01 234.692C172.058 234.604 172.072 234.502 172.05 234.405C172.029 234.309 171.974 234.223 171.895 234.163C171.816 234.103 171.719 234.072 171.62 234.076C171.427 234.08 171.235 234.101 171.045 234.139C170.345 234.288 169.644 234.436 168.925 234.445C168.405 234.524 167.873 234.426 167.415 234.166C166.957 233.906 166.6 233.5 166.4 233.013C166.239 232.702 166.109 232.376 166.013 232.039C165.487 230.074 164.929 228.127 164.472 226.147C163.83 223.126 163.188 220.105 162.544 217.073C162.49 216.909 162.454 216.739 162.436 216.567C162.421 216.432 162.453 216.295 162.527 216.181C162.601 216.067 162.713 215.982 162.843 215.941C162.975 215.901 163.109 215.872 163.245 215.855C165.382 215.401 167.518 214.947 169.655 214.493C170.418 214.316 171.191 214.18 171.969 214.085C172.582 214.013 173.2 214.006 173.814 214.065C174.471 214.066 175.107 214.301 175.608 214.726C176.109 215.151 176.444 215.74 176.553 216.388C176.582 216.579 176.653 216.761 176.762 216.92C176.813 216.987 176.876 217.044 176.949 217.086C177.022 217.128 177.103 217.155 177.186 217.166C177.285 217.167 177.381 217.131 177.454 217.064C177.526 216.997 177.571 216.905 177.578 216.807C177.619 216.56 177.618 216.309 177.576 216.063C177.268 214.566 177.058 213.05 176.948 211.526C176.923 211.083 176.92 210.638 176.941 210.195C176.954 210.004 176.949 209.812 176.927 209.621C176.925 209.541 176.898 209.464 176.85 209.399C176.802 209.335 176.735 209.287 176.659 209.263C176.582 209.238 176.5 209.238 176.424 209.262C176.347 209.286 176.28 209.333 176.231 209.397C176.078 209.548 175.949 209.721 175.848 209.911C175.568 210.381 175.137 210.743 174.626 210.939C174.4 211.045 174.166 211.134 173.927 211.208C172.862 211.506 171.811 211.814 170.733 212.055C168.436 212.543 166.139 213.031 163.936 213.571C163.557 213.652 163.178 213.732 162.788 213.815C162.087 213.964 161.787 213.74 161.647 213.025C161.584 212.727 161.52 212.428 161.454 212.118C160.583 208.017 159.711 203.916 158.839 199.816C158.791 199.646 158.755 199.473 158.73 199.299C158.704 199.194 158.702 199.085 158.724 198.979C158.745 198.874 158.789 198.774 158.853 198.687C158.917 198.601 158.999 198.529 159.094 198.477C159.188 198.425 159.293 198.395 159.4 198.388L159.791 198.305C160.308 198.195 160.813 198.088 161.319 197.98L168.087 196.613C168.547 196.516 168.995 196.421 169.454 196.323C170.18 196.201 170.919 196.194 171.647 196.301C172.231 196.346 172.788 196.567 173.244 196.935C173.7 197.304 174.032 197.802 174.198 198.364C174.224 198.539 174.26 198.711 174.308 198.881C174.351 199.006 174.416 199.122 174.501 199.224C174.543 199.285 174.6 199.334 174.666 199.365C174.733 199.397 174.807 199.409 174.88 199.402C174.954 199.395 175.024 199.369 175.083 199.325C175.143 199.282 175.19 199.223 175.219 199.156C175.304 199.003 175.35 198.833 175.353 198.659C175.346 198.406 175.321 198.155 175.278 197.906C174.981 196.387 174.853 194.84 174.897 193.293C174.888 193.16 174.86 193.028 174.814 192.903C174.803 192.821 174.772 192.743 174.723 192.676C174.675 192.609 174.611 192.555 174.537 192.519C174.463 192.483 174.381 192.465 174.298 192.468C174.216 192.47 174.135 192.493 174.064 192.534C173.976 192.576 173.895 192.63 173.821 192.693C173.394 192.999 172.908 193.213 172.394 193.321C171.624 193.485 170.858 193.719 170.114 193.89L155.066 197.088L151.644 197.876Z" fill="white"/>
<path d="M148.948 179.995C148.466 180.098 148.04 180.128 147.638 180.154L145.884 180.263C145.007 180.317 144.128 180.36 143.256 180.437C142.081 180.527 140.913 180.695 139.761 180.94C138.991 181.103 138.233 181.265 137.485 181.532C135.311 182.246 133.243 183.251 131.337 184.519C129.697 185.613 128.388 187.137 127.555 188.925C126.588 191.064 126.399 193.474 127.023 195.737C127.546 197.823 128.742 199.679 130.426 201.017C130.835 201.362 131.293 201.709 131.853 202.082C133.751 203.388 135.787 204.481 137.924 205.341C139.01 205.819 140.112 206.257 141.213 206.695L143.848 207.792C145.561 208.509 146.86 209.085 148.073 209.655C149.263 210.186 150.351 210.922 151.285 211.83C152.626 213.116 153.411 214.875 153.474 216.732C153.537 218.589 152.872 220.397 151.621 221.771C150.406 223.053 148.887 224.008 147.205 224.547C146.516 224.777 145.815 224.966 145.104 225.113C144.518 225.238 143.956 225.357 143.252 225.435C141.634 225.644 139.992 225.567 138.401 225.206C136.93 224.93 135.582 224.201 134.548 223.119C133.811 222.339 133.302 221.372 133.077 220.322L133.062 220.253C133.032 220.028 132.984 219.805 132.92 219.587C132.86 219.383 132.726 219.209 132.545 219.097C132.364 218.985 132.149 218.943 131.939 218.98C131.747 219.029 131.577 219.144 131.46 219.305C131.343 219.466 131.286 219.662 131.298 219.86C131.291 219.975 131.295 220.091 131.311 220.205L131.328 220.286C131.397 220.608 131.382 220.935 131.416 221.264C131.467 221.841 131.522 222.442 131.577 222.982C131.746 224.399 131.978 225.658 132.236 226.984L132.321 227.386C132.366 227.662 132.485 227.921 132.663 228.137C132.842 228.352 133.075 228.515 133.338 228.611C133.676 228.748 134.028 228.85 134.387 228.916C135.008 229.012 135.621 229.074 136.276 229.103C139.275 229.184 142.272 228.87 145.189 228.169L145.327 228.139C146.945 227.788 148.527 227.283 150.049 226.631C152.571 225.713 154.784 224.103 156.433 221.985C158.167 219.894 159.108 217.258 159.089 214.541C159.034 212.187 158.281 209.903 156.925 207.978C155.711 206.3 154.152 204.9 152.355 203.871C150.092 202.548 147.707 201.447 145.233 200.583C144.358 200.252 143.474 199.936 142.625 199.612L139.387 198.44C137.795 197.855 136.275 197.091 134.856 196.161C133.92 195.548 133.144 194.722 132.591 193.749C131.899 192.612 131.633 191.268 131.84 189.953C132.046 188.639 132.712 187.44 133.718 186.57C134.858 185.575 136.19 184.826 137.632 184.37C138.205 184.175 138.788 184.015 139.379 183.89C140.384 183.682 141.404 183.549 142.429 183.494C143.872 183.399 145.321 183.58 146.696 184.028C147.631 184.294 148.43 184.905 148.932 185.738C149.132 186.055 149.302 186.403 149.47 186.74C149.509 186.924 149.651 187.085 149.736 187.259L149.768 187.409C149.85 187.584 149.946 187.752 150.055 187.912C150.132 188.031 150.241 188.126 150.371 188.184C150.501 188.241 150.644 188.26 150.784 188.237L150.968 188.198C151.092 188.134 151.2 188.043 151.285 187.931C151.369 187.82 151.427 187.691 151.456 187.554C151.483 187.257 151.464 186.957 151.399 186.666C151.328 186.333 151.262 186.023 151.196 185.713C151.13 185.402 151.006 184.817 150.913 184.38C150.749 183.61 150.687 182.807 150.585 182.049L150.451 181.021C150.443 180.845 150.4 180.673 150.325 180.513C150.25 180.354 150.144 180.211 150.014 180.093C149.851 180.007 149.674 179.954 149.491 179.937C149.308 179.921 149.124 179.94 148.948 179.995Z" fill="white"/>
<path d="M257.16 148.199C256.217 148.445 255.31 148.815 254.465 149.3C258.907 156.833 262.5 164.834 265.179 173.159C274.686 202.826 272.036 235.053 257.809 262.768C243.583 290.483 218.942 311.422 189.295 320.99C185.474 322.228 181.591 323.266 177.662 324.099C149.211 330.079 119.554 325.318 94.4039 310.734C69.2543 296.149 50.3922 272.773 41.4519 245.109C31.9503 215.439 34.6043 183.212 48.8316 155.496C63.0589 127.78 87.6981 106.838 117.345 97.2636C121.209 96.0213 125.134 94.9747 129.104 94.1278C138.613 92.0897 148.34 91.2484 158.058 91.6233L157.437 88.7056C143.549 88.2511 129.687 90.2025 116.464 94.4735C86.0874 104.279 60.8413 125.733 46.2648 154.13C31.6883 182.527 28.972 215.546 38.7119 245.944C43.5126 261.014 51.2546 274.982 61.4899 287.04C71.7252 299.099 84.2504 309.007 98.3406 316.192C122.903 328.865 151.099 332.63 178.126 326.846C182.192 325.98 186.212 324.91 190.17 323.638C220.546 313.833 245.792 292.378 260.368 263.981C274.945 235.584 277.661 202.565 267.921 172.168C265.214 163.812 261.605 155.775 257.16 148.199Z" fill="white"/>
<path d="M174.763 275.814C172.485 276.547 170.172 277.163 167.832 277.66C150.872 281.225 133.193 278.389 118.201 269.696C103.208 261.004 91.9628 247.071 86.6312 230.581C80.9658 212.895 82.5462 193.685 91.026 177.163C99.5057 160.641 114.192 148.157 131.864 142.449C133.64 141.88 135.413 141.407 137.197 140.992L136.604 138.201C134.72 138.601 132.854 139.142 130.989 139.742C121.859 142.649 113.397 147.338 106.093 153.538C98.7882 159.737 92.7862 167.325 88.4343 175.86C84.0347 184.373 81.3682 193.674 80.5894 203.224C79.8105 212.775 80.9347 222.385 83.8969 231.498C89.4419 248.669 101.147 263.178 116.755 272.231C132.364 281.283 150.771 284.236 168.428 280.522C170.868 280.002 173.279 279.357 175.653 278.59C184.782 275.684 193.244 270.995 200.549 264.795C207.853 258.595 213.855 251.008 218.207 242.472C222.601 233.952 225.26 224.645 226.032 215.09C226.804 205.535 225.672 195.922 222.703 186.807C221.985 184.559 221.162 182.36 220.233 180.213C219.55 180.898 218.834 181.711 218.001 182.476C218.701 184.188 219.378 185.905 219.95 187.692C222.792 196.444 223.87 205.672 223.122 214.843C222.374 224.013 219.814 232.945 215.591 241.12C211.415 249.313 205.657 256.598 198.649 262.554C191.642 268.509 183.523 273.016 174.763 275.814Z" fill="white"/>
<path d="M223.588 96.9016C223.685 97.2627 223.695 97.6418 223.616 98.0073C223.537 98.3728 223.372 98.7142 223.134 99.003C221.793 100.777 220.717 102.736 219.941 104.82C219.836 105.119 219.588 105.532 219.346 105.583C219.105 105.634 218.786 105.318 218.51 105.148C218.457 105.104 218.41 105.053 218.37 104.998C217.798 104.337 217.066 103.833 216.244 103.535C215.421 103.237 214.537 103.154 213.674 103.295C212.056 103.477 210.525 104.123 209.267 105.156C208.943 105.292 208.596 105.366 208.245 105.373C208.159 105.073 208.122 104.761 208.132 104.449C208.364 103.451 208.67 102.462 208.928 101.47C208.982 101.196 209.106 100.939 209.288 100.726C209.469 100.513 209.703 100.35 209.966 100.253C210.275 100.141 210.533 99.921 210.693 99.6333C210.852 99.3456 210.902 99.0099 210.834 98.6882C210.816 98.4093 210.699 98.1457 210.505 97.945C210.31 97.7443 210.051 97.6195 209.773 97.5931C209.474 97.5448 209.168 97.5915 208.897 97.7266C208.626 97.8617 208.405 98.0783 208.264 98.346C207.127 100.125 206.421 102.146 206.204 104.246C205.969 105.378 206.056 106.554 206.457 107.638C206.527 107.913 206.531 108.2 206.467 108.476C206.408 108.933 206.289 109.391 206.256 109.854C205.835 115.746 205.426 121.636 205.029 127.523C205.026 127.774 204.982 128.023 204.897 128.259C204.873 128.364 204.82 128.459 204.743 128.534C204.667 128.61 204.57 128.661 204.465 128.684C204.36 128.706 204.251 128.698 204.151 128.66C204.05 128.623 203.963 128.557 203.898 128.472C203.678 128.203 203.504 127.899 203.383 127.573C203.122 126.968 202.871 126.349 202.653 125.723C202.263 124.73 201.938 123.712 201.682 122.676C201.152 120.183 200.774 117.67 200.313 115.163C199.775 112.18 198.586 111.16 195.465 110.995C194.702 110.965 194.514 110.645 194.434 109.93C194.356 109.086 194.148 108.26 193.817 107.48C193.465 106.726 192.469 106.782 191.915 107.452C191.14 108.325 191.315 111.181 192.163 111.841L192.43 112.024C193.397 112.628 194.528 112.912 195.665 112.838C196.657 112.819 197.313 113.195 197.541 114.096C197.819 115.405 198.233 116.674 198.44 117.986C198.696 120.555 199.261 123.083 200.124 125.516C200.649 127.157 201.519 128.667 202.674 129.944C204.343 131.523 205.832 131.074 206.415 128.789C206.631 127.83 206.749 126.852 206.766 125.869C207.121 120.139 207.439 114.405 207.771 108.68C207.752 108.404 207.814 108.129 207.948 107.888C208.082 107.646 208.282 107.448 208.526 107.319C209.909 106.592 211.305 105.875 212.716 105.227C213.512 104.841 214.427 104.776 215.27 105.045C216.367 105.399 217.34 106.059 218.075 106.946C218.273 107.145 218.392 107.409 218.412 107.688C218.432 107.968 218.351 108.246 218.184 108.471C217.824 109.005 217.501 109.563 217.218 110.141C215.564 113.734 214.651 117.623 214.534 121.577C214.53 122.432 214.71 123.278 215.062 124.058C215.626 125.246 216.926 125.318 217.883 124.286C218.315 123.81 218.67 123.268 218.935 122.682C219.885 120.547 220.537 118.292 220.872 115.98C221.495 113.222 221.259 110.339 220.197 107.719C220.087 107.463 220.047 107.181 220.081 106.904C220.115 106.627 220.221 106.364 220.39 106.141C220.95 105.218 221.482 104.277 221.989 103.328C222.496 102.38 223.088 101.102 223.678 99.9799C223.975 99.4005 224.417 99.3307 224.841 99.8047C224.951 99.9211 225.047 100.05 225.127 100.188C225.487 100.764 225.964 101.258 226.527 101.639C227.09 102.02 227.726 102.279 228.394 102.399C229.103 102.598 229.85 102.621 230.57 102.468C231.29 102.315 231.963 101.99 232.529 101.52C233.265 100.908 233.923 100.208 234.487 99.4352C236.498 96.8149 237.967 93.8214 238.81 90.6286C238.869 90.3399 239.177 90.0944 239.372 89.8249C239.632 90.0229 239.858 90.263 240.039 90.5354C240.397 91.4582 240.801 92.362 241.251 93.2432C242.484 95.2022 243.726 97.1473 245.125 98.9869C246.496 100.954 248.252 102.623 250.286 103.893C252.603 105.249 254.714 104.56 255.803 102.06C255.955 101.788 256.063 101.493 256.122 101.188C256.222 99.9657 256.292 98.8225 256.376 97.6399C256.408 97.2249 256.3 96.6596 256.868 96.5629C257.435 96.4663 257.445 97.0765 257.551 97.4622C257.726 98.4754 257.982 99.4729 258.317 100.445C259.683 103.48 261.124 106.475 262.629 109.433C263.153 110.363 263.762 111.242 264.448 112.06C264.611 112.26 264.836 112.401 265.087 112.46C265.339 112.519 265.603 112.494 265.838 112.389C266.067 112.288 266.257 112.117 266.381 111.9C266.506 111.684 266.558 111.433 266.531 111.185C266.534 110.86 266.479 110.547 266.482 110.223C266.467 106.447 265.464 102.74 263.573 99.4718C262.739 97.5929 261.248 96.0827 259.381 95.2245C259.125 95.1435 258.89 95.0057 258.695 94.8216C258.499 94.6374 258.348 94.4116 258.252 94.1608C258.156 93.91 258.118 93.6409 258.14 93.3733C258.163 93.1057 258.245 92.8467 258.382 92.6154C258.894 91.5221 259.406 90.4289 259.957 89.3512C261.765 85.5006 263.966 81.8466 266.523 78.447C266.598 78.3471 266.717 78.2259 266.718 78.1176C266.719 78.0094 266.768 77.5067 266.626 77.4047C266.507 77.3364 266.373 77.2966 266.236 77.2882C266.099 77.2799 265.962 77.3033 265.835 77.3567C265.488 77.5704 265.193 77.8588 264.97 78.2009C263.695 80.1647 262.394 82.122 261.225 84.1353C259.927 86.0284 258.87 88.076 258.079 90.2306C257.804 90.8054 257.448 91.3379 257.022 91.8119C256.96 91.2368 256.955 90.8177 256.87 90.4156C256.577 89.0372 256.281 87.6474 255.988 86.269C255.781 85.2926 255.518 84.3399 255.276 83.3709C254.812 81.5247 254.244 79.7005 253.88 77.8208C253.17 74.4782 252.572 71.0997 252.103 67.7058C251.705 64.7049 251.565 61.6732 251.319 58.6521C251.287 58.5027 251.409 58.3447 251.449 58.1922L251.656 58.1482C251.759 58.3206 251.843 58.5043 251.904 58.6957C252.056 59.4079 252.209 60.1315 252.361 60.8437C252.635 62.9225 252.874 65.0087 253.134 67.0784C253.135 67.3406 253.219 67.5957 253.373 67.808C253.602 68.0389 253.909 68.175 254.234 68.1891C254.464 68.1403 254.683 67.7576 254.843 67.4954C254.904 67.3277 254.915 67.1462 254.876 66.9722C254.511 64.1805 254.18 61.3815 253.723 58.6093C253.542 57.6459 253.199 56.7201 252.709 55.8715C252.591 55.6487 252.411 55.465 252.191 55.3431C251.971 55.2212 251.72 55.1663 251.469 55.1853C251.217 55.2042 250.977 55.2961 250.778 55.4497C250.578 55.6032 250.428 55.8118 250.345 56.0496C250.1 56.5484 249.942 57.0855 249.879 57.6376C249.514 61.3045 249.646 65.0037 250.271 68.6353C250.754 72.2064 251.377 75.7596 252.056 79.2892C252.578 81.7474 253.101 84.2055 253.79 86.604C254.615 89.0901 255.066 91.6851 255.127 94.3038C255.243 96.7354 254.927 99.1683 254.193 101.489C253.691 102.797 252.848 103.18 251.669 102.434C250.87 101.91 250.129 101.303 249.459 100.623C246.638 97.5908 244.289 94.1525 242.489 90.423C241.821 89.1482 241.253 87.8284 240.576 86.5674C240.409 86.2672 240.306 85.9358 240.272 85.5939C240.239 85.2519 240.276 84.9067 240.382 84.5798C240.745 83.5768 241.015 82.5428 241.19 81.4907C241.925 74.7795 242.192 68.0716 240.148 61.6749C239.794 60.296 239.083 59.0348 238.086 58.0191C237.924 57.8512 237.731 57.7173 237.517 57.6252C237.303 57.5331 237.073 57.4846 236.84 57.4827C236.607 57.4808 236.376 57.5254 236.16 57.614C235.944 57.7026 235.749 57.8334 235.584 57.9986C235.182 58.3122 234.857 58.7141 234.634 59.1732C234.213 60.1515 233.882 61.1662 233.645 62.2046C233.19 64.7967 233.169 67.4465 233.583 70.0455C233.931 73.3795 234.63 76.6676 235.668 79.8551C236.549 82.4172 237.519 84.9483 238.397 87.4989C238.512 87.898 238.493 88.3237 238.343 88.711C237.903 89.861 237.387 90.9912 236.882 92.1189C235.786 95.0655 234.098 97.7569 231.924 100.028C231.582 100.377 231.152 100.627 230.679 100.75C230.207 100.874 229.709 100.867 229.24 100.731C228.226 100.404 227.353 99.7432 226.765 98.8556C226.527 98.6249 226.381 98.3153 226.355 97.9849C226.329 97.6545 226.425 97.326 226.623 97.0608C227.138 96.0923 227.324 94.9824 227.152 93.8991C227.105 93.5446 226.949 93.2137 226.704 92.9533C226.459 92.6929 226.138 92.5163 225.787 92.4483C225.444 92.3765 225.087 92.4139 224.766 92.5553C224.445 92.6967 224.176 92.935 223.998 93.2369C223.653 93.7754 223.437 94.386 223.366 95.0215C223.295 95.657 223.371 96.3003 223.588 96.9016ZM219.723 110.629C219.918 113.901 219.495 117.18 218.476 120.295C218.204 121.049 217.955 121.798 217.658 122.546C217.537 122.853 217.356 123.133 217.124 123.367C217.063 123.445 216.983 123.505 216.892 123.542C216.801 123.579 216.702 123.592 216.604 123.578C216.507 123.565 216.414 123.527 216.336 123.467C216.258 123.407 216.197 123.327 216.16 123.236C216.014 122.919 215.94 122.574 215.945 122.225C215.951 119.352 216.45 116.501 217.419 113.796C217.841 112.506 218.182 111.233 218.593 109.945C218.676 109.712 218.846 109.521 219.068 109.412C219.206 109.383 219.432 109.599 219.569 109.678C219.645 109.99 219.697 110.308 219.723 110.629ZM259.74 97.5372C259.992 97.5917 260.358 97.562 260.475 97.7172C261.158 98.5118 261.775 99.3601 262.322 100.254C263.679 102.751 264.654 105.437 265.217 108.223C265.271 108.619 265.279 109.02 265.243 109.418L264.852 109.501C264.623 109.232 264.42 108.941 264.248 108.633C263.3 106.433 262.369 104.146 261.403 101.914C260.94 100.812 260.419 99.8299 259.923 98.7948C259.808 98.62 259.722 98.4272 259.67 98.2244C259.659 97.9971 259.67 97.7693 259.706 97.5445L259.74 97.5372ZM235.175 63.5842C235.301 62.3142 235.54 61.058 235.89 59.8306C236.001 59.3387 236.331 58.8004 236.89 58.8858C237.31 59.0172 237.666 59.3013 237.887 59.6822C238.116 60.0908 238.3 60.5225 238.437 60.97C239.809 64.1203 240.497 67.5263 240.453 70.9624C240.483 73.4771 240.32 75.985 240.196 78.5085C240.158 79.573 240.097 80.6424 240.034 81.7004C240.036 82.0555 239.998 82.4097 239.923 82.7566C239.867 82.9484 239.637 83.1055 239.494 83.28C239.331 83.1345 239.069 83.0341 239.009 82.8666C238.685 81.9032 238.417 80.9275 238.127 79.9568C237.685 78.442 237.222 76.9435 236.817 75.4329C235.682 71.5873 235.129 67.5936 235.175 63.5842ZM225.432 94.7328L225.786 94.8138L225.498 95.6072L225.207 95.537L225.432 94.7328Z" fill="white"/>
<path d="M145.062 122.354C144.966 122.11 144.79 121.906 144.564 121.773C144.338 121.641 144.074 121.588 143.814 121.623C143.56 121.648 143.322 121.76 143.142 121.941C142.961 122.121 142.849 122.359 142.824 122.613C142.761 122.946 142.74 123.285 142.763 123.623C142.992 127.717 144.18 131.7 146.231 135.252C147.044 136.839 148.225 138.21 149.674 139.25C149.94 139.445 150.247 139.576 150.572 139.632C150.897 139.688 151.23 139.669 151.546 139.575C151.862 139.481 152.152 139.315 152.394 139.091C152.635 138.866 152.821 138.589 152.937 138.28C153.15 137.818 153.293 137.326 153.36 136.822C153.549 135.454 153.657 134.076 153.683 132.695C153.688 129.272 153.55 125.856 153.521 122.441C153.473 118.225 153.469 114.008 153.509 109.789C153.513 109.416 153.838 109.023 154.02 108.636C154.407 108.787 154.768 108.998 155.089 109.261C155.709 109.936 156.265 110.666 156.753 111.441C158.011 113.575 159.243 115.642 160.374 117.802C162.007 121.232 163.336 124.798 164.344 128.46C164.484 128.818 164.492 129.213 164.367 129.576C164.241 129.939 163.991 130.246 163.661 130.442C163.194 130.786 162.771 131.186 162.402 131.634C159.079 135.541 156.463 139.997 154.672 144.803C153.629 147.487 153.063 150.334 153.002 153.213C152.928 155.065 153.319 156.905 154.14 158.566C154.544 159.355 155.214 159.975 156.032 160.318C156.85 160.66 157.762 160.703 158.608 160.438C160.06 159.958 161.326 159.034 162.224 157.796C163.797 155.736 164.962 153.394 165.656 150.896C167.743 143.981 168.023 136.647 166.47 129.593C166.391 129.293 166.413 128.976 166.532 128.69C166.652 128.405 166.862 128.166 167.131 128.012C167.597 127.696 168.035 127.342 168.442 126.953C169.482 125.915 170.49 124.837 171.53 123.799C171.926 123.433 172.342 123.088 172.775 122.766C172.797 123.266 172.823 123.56 172.827 123.86C172.791 124.613 172.807 125.368 172.875 126.118C173.016 127.02 173.256 127.903 173.591 128.752C173.897 129.569 174.311 130.341 174.823 131.047C175.029 131.367 175.346 131.6 175.713 131.701C176.08 131.802 176.471 131.765 176.813 131.596C177.178 131.48 177.49 131.238 177.693 130.913C177.897 130.589 177.979 130.203 177.924 129.823C177.88 128.718 177.743 127.619 177.514 126.537C177.213 124.724 176.324 123.061 174.983 121.805C174.504 121.414 174.596 120.998 175.13 120.573C175.717 120.204 176.27 119.785 176.785 119.321C178.191 118.077 179.38 116.607 180.302 114.971C180.431 114.728 180.832 114.583 181.104 114.393C181.248 114.674 181.523 114.952 181.496 115.222C181.411 116.409 181.554 117.601 181.918 118.734C182.149 119.989 182.815 121.123 183.799 121.936C184.023 122.1 184.282 122.211 184.556 122.26C184.829 122.309 185.11 122.294 185.377 122.216C185.644 122.138 185.889 122 186.094 121.812C186.299 121.625 186.458 121.392 186.558 121.133C186.687 120.855 186.77 120.557 186.803 120.253C186.925 118.678 186.998 117.102 187.145 115.534C187.224 115.216 187.359 114.915 187.544 114.645L188.23 115.327C188.23 115.327 188.244 115.396 188.252 115.431C188.716 117.541 189.609 119.533 190.876 121.284C191.523 122.18 192.307 122.97 193.198 123.623C193.67 123.928 194.236 124.054 194.792 123.977C195.349 123.901 195.859 123.628 196.231 123.207C196.333 123.045 196.398 122.863 196.422 122.673C196.446 122.484 196.428 122.291 196.37 122.109C196.197 121.689 195.684 121.703 195.318 121.96C195.15 122.096 194.951 122.189 194.74 122.232C194.528 122.276 194.309 122.268 194.101 122.21C193.893 122.153 193.702 122.046 193.543 121.9C193.384 121.753 193.262 121.571 193.187 121.369C192.362 120.033 191.608 118.655 190.929 117.239C189.771 114.915 188.982 112.426 188.592 109.86C188.588 109.703 188.553 109.55 188.489 109.407C188.425 109.265 188.333 109.136 188.219 109.03C188.104 108.923 187.97 108.841 187.823 108.787C187.677 108.733 187.521 108.709 187.364 108.716C186.789 108.778 186.422 109.252 186.326 110.041C186.022 112.567 185.732 115.102 185.394 117.635C185.268 118.36 185.099 119.077 184.891 119.783L184.672 119.829C184.553 119.676 184.456 119.507 184.385 119.326C184.149 117.131 183.662 114.971 182.933 112.887C182.733 112.402 182.546 111.913 181.919 111.902C181.646 111.906 181.379 111.981 181.145 112.122C180.911 112.262 180.719 112.462 180.588 112.701C178.637 115.157 176.867 117.79 174.356 119.813C174.116 120.046 173.815 120.207 173.488 120.276C173.161 120.346 172.821 120.322 172.507 120.206C172.074 120.063 171.617 120.005 171.162 120.036C170.887 120.05 170.626 120.161 170.424 120.349C170.223 120.537 170.094 120.789 170.059 121.062C169.97 121.658 170.421 121.862 170.911 121.962C171.171 121.981 171.432 121.982 171.692 121.964L171.603 122.283C171.516 122.376 171.422 122.465 171.323 122.546C170.68 123.079 169.968 123.567 169.374 124.161C168.561 124.97 167.856 125.889 167.076 126.739C166.844 126.932 166.588 127.095 166.315 127.225C166.127 126.995 165.968 126.742 165.843 126.473C165.757 126.071 165.759 125.626 165.582 125.244C164.801 122.924 164.086 120.579 163.16 118.315C162.151 115.436 160.701 112.731 158.863 110.296C157.923 109.12 156.861 108.046 155.696 107.091C154.171 105.903 152.549 106.632 152.153 108.553C152.036 109.256 151.99 109.97 152.018 110.683C152.167 117.542 152.379 124.412 152.457 131.275C152.405 133.252 152.222 135.224 151.911 137.178C151.88 137.376 151.805 137.564 151.689 137.728C151.574 137.892 151.423 138.027 151.247 138.123C151.052 138.134 150.856 138.102 150.674 138.028C150.493 137.955 150.329 137.842 150.197 137.698C149.647 137.131 149.154 136.512 148.723 135.85C147.435 133.816 146.494 131.582 145.937 129.239C145.425 127.335 145.169 125.37 145.176 123.398C145.197 123.046 145.158 122.693 145.062 122.354ZM174.725 124.597C175.335 124.983 176.254 128.966 175.889 129.452C175.341 129.136 174.418 125.358 174.725 124.597ZM164.313 150.173C163.735 152.304 162.844 154.338 161.671 156.209C161.005 157.369 160.016 158.309 158.824 158.915C158.537 159.106 158.212 159.232 157.872 159.283C157.531 159.334 157.183 159.31 156.853 159.211C156.523 159.113 156.218 158.943 155.961 158.714C155.703 158.485 155.5 158.202 155.364 157.886C155.33 157.725 155.213 157.57 155.085 157.309C154.184 154.888 154.042 152.251 154.679 149.748C155.948 143.722 158.699 138.107 162.684 133.411C163.142 132.857 163.473 132.211 163.915 131.637C164.085 131.42 164.446 131.14 164.644 131.17C164.774 131.229 164.886 131.319 164.972 131.433C165.057 131.548 165.112 131.681 165.131 131.822C165.899 137.974 166.082 144.034 164.313 150.173Z" fill="white"/>
<path d="M191.99 66.9063C191.581 67.9715 191.277 69.0735 191.08 70.1971C190.932 70.9128 190.971 71.6609 190.849 72.3833C190.738 72.697 190.583 72.993 190.387 73.2618L190.106 73.2375C189.976 72.9739 189.874 72.6982 189.799 72.4144C189.511 71.0589 189.36 69.6742 189.107 68.3114C189.101 68.1724 189.066 68.0361 189.005 67.911C188.944 67.7859 188.858 67.6748 188.752 67.5846C188.646 67.4943 188.523 67.427 188.39 67.3868C188.256 67.3466 188.116 67.3343 187.978 67.3508C187.683 67.3576 187.401 67.4755 187.189 67.6808C186.977 67.8861 186.85 68.1638 186.833 68.4586C186.804 68.8574 186.809 69.2581 186.847 69.6561C186.884 71.3531 187.36 73.0288 186.845 74.7831C186.4 76.3063 186.131 77.8642 185.712 79.394C185.293 80.9237 184.753 82.7912 184.172 84.4635C184.05 84.8496 183.534 85.4155 183.255 85.4027C183.036 85.3478 182.833 85.2447 182.659 85.1009C182.485 84.9572 182.345 84.7764 182.25 84.5718C181.592 83.2006 181.016 81.7916 180.525 80.3524C180.038 79.191 179.872 77.9205 180.043 76.673C180.082 76.5345 180.089 76.3891 180.065 76.2472C180.041 76.1054 179.985 75.9707 179.903 75.8528C179.82 75.7349 179.713 75.6367 179.588 75.5653C179.463 75.4939 179.324 75.451 179.181 75.4397C178.873 75.3937 178.56 75.4652 178.304 75.6399C178.047 75.8146 177.866 76.0797 177.796 76.3823C177.719 76.853 177.708 77.3322 177.763 77.8061C178.06 80.5313 178.939 83.1611 180.338 85.5184C180.727 86.1334 181.248 86.6542 181.863 87.0432C182.32 87.3426 182.872 87.4599 183.412 87.3719C183.951 87.284 184.437 86.9972 184.775 86.5682C185.187 86.1192 185.508 85.5944 185.72 85.0229C186.285 83.2219 186.772 81.3896 187.236 79.5622C187.412 78.8645 187.38 78.1509 187.505 77.44C187.598 77.1546 187.726 76.8816 187.885 76.627L188.184 76.6234C188.248 76.922 188.415 77.1987 188.49 77.4949C188.692 78.4483 188.897 79.4132 189.215 80.3421C189.28 80.608 189.443 80.8398 189.67 80.9914C189.898 81.1431 190.175 81.2036 190.445 81.1611C190.74 81.1593 191.026 81.0678 191.267 80.8986C191.508 80.7294 191.691 80.4907 191.793 80.2144C191.907 79.8943 191.965 79.5571 191.965 79.2173C191.887 75.6321 192.693 72.1354 193.058 68.6001C193.057 68.5289 193.075 68.4586 193.111 68.3968C193.274 68.206 193.445 67.8815 193.602 67.8842C193.759 67.8869 194.054 68.0883 194.233 68.2543C194.318 68.3672 194.372 68.5011 194.387 68.6417C194.94 70.2418 195.974 71.6322 197.347 72.6229C197.583 72.8181 197.859 72.9601 198.155 73.0392C199.026 73.3218 199.97 73.2768 200.81 72.9125C201.65 72.5483 202.328 71.8899 202.717 71.0611C203.377 69.9845 203.886 68.8198 204.464 67.7004C204.547 67.4812 204.656 67.2727 204.788 67.0792C204.853 66.9927 204.935 66.9199 205.029 66.865C205.122 66.8101 205.225 66.7742 205.333 66.7594C205.43 66.7848 205.522 66.8313 205.599 66.8956C205.677 66.9599 205.74 67.0405 205.784 67.1317C205.893 67.4065 205.985 67.6877 206.059 67.9737C206.182 68.3133 206.406 68.6069 206.702 68.8147C206.997 69.0225 207.349 69.1344 207.71 69.1354C208.067 69.1612 208.423 69.0827 208.736 68.9097C209.049 68.7366 209.305 68.4764 209.472 68.1606C210.214 67.0341 210.657 65.7378 210.76 64.3931C210.783 64.0203 210.849 63.6515 210.959 63.2944C211.002 63.2057 211.063 63.127 211.139 63.0634C211.214 62.9998 211.302 62.9527 211.397 62.9253C211.523 62.8984 211.726 63.0595 211.803 63.199C211.914 63.4148 212.003 63.6414 212.067 63.8753C212.284 64.634 212.539 65.3812 212.831 66.1141C213.585 67.7426 214.391 69.3842 215.227 70.9473C215.673 71.8177 216.221 72.6322 216.859 73.3736C217.342 73.8949 217.941 74.2942 218.608 74.5387C219.059 74.7348 219.567 74.7531 220.031 74.5899C220.496 74.4267 220.881 74.0941 221.11 73.6587C221.164 73.5026 221.183 73.3361 221.165 73.1717C221.147 73.0072 221.092 72.8491 221.004 72.7088C220.863 72.6243 220.706 72.5725 220.542 72.5574C220.379 72.5422 220.215 72.564 220.061 72.6211C218.956 73.072 218.51 72.9507 217.951 72.0131C217.422 71.1299 216.943 70.2175 216.517 69.2803C215.096 66.0407 213.699 62.7962 212.358 59.5395C212.122 58.9182 212.034 58.2507 212.1 57.5895C212.252 55.8763 212.572 54.1635 212.722 52.4389C213.165 46.6562 212.948 40.8417 212.075 35.1081C211.643 31.9419 210.85 28.8356 209.711 25.85C209.398 25.0196 209.015 24.2175 208.565 23.4523C207.905 22.7163 206.139 22.2631 204.986 25.1975C204.9 25.696 204.8 26.1855 204.726 26.6816C204.259 29.846 204.231 33.0597 204.642 36.2317C205.024 39.4401 205.466 42.6478 206.011 45.8335C206.331 47.6977 206.801 49.533 207.418 51.3212C207.874 53.0771 208.495 54.7862 209.271 56.4258C209.858 57.4741 210.113 58.6755 210.003 59.8718C209.689 61.8048 209.231 63.7119 208.635 65.5773C208.585 65.7921 208.234 65.9506 208.02 66.1282C207.86 65.9235 207.711 65.7108 207.572 65.491C207.534 65.4125 207.515 65.3257 207.518 65.2383C207.624 63.8712 207.681 62.5024 207.849 61.1461C207.981 60.0735 208.236 59.011 208.453 57.9443C208.557 57.4179 208.52 56.9577 207.98 56.7362C207.732 56.6471 207.461 56.6441 207.211 56.7278C206.961 56.8114 206.746 56.9768 206.602 57.1973C206.475 57.3795 206.359 57.5684 206.254 57.7635C205.56 59.1567 205.156 60.6761 205.066 62.2299C205.028 62.943 204.85 63.6416 204.543 64.2861C203.403 66.3773 202.162 68.3938 200.925 70.4816C200.033 71.9318 199.24 72.0404 198.033 70.9402C197.91 70.8382 197.8 70.7202 197.707 70.5894C197.015 69.536 196.351 68.5605 195.666 67.5415C195.434 67.1522 195.171 66.7826 194.879 66.4362C194.7 66.1923 194.456 66.0026 194.176 65.8882C193.896 65.7737 193.589 65.7388 193.291 65.7874C192.992 65.8361 192.712 65.9663 192.482 66.1637C192.253 66.3611 192.082 66.6181 191.99 66.9063ZM206.725 37.6139C206.422 35.2177 206.243 32.8075 206.187 30.3929C206.183 28.7675 206.279 27.1434 206.474 25.5297C206.507 25.3524 206.582 25.1853 206.691 25.0414C206.8 24.8975 206.94 24.7806 207.102 24.6999C207.308 24.6559 207.662 24.9649 207.95 25.1319C209.101 28.3602 209.968 31.6829 210.541 35.062C211.106 38.7042 211.391 42.3845 211.392 46.0704C211.373 48.6917 211.308 51.3227 211.217 53.9472C211.203 54.2744 210.9 54.6028 210.743 54.9363C210.496 54.6967 210.293 54.4144 210.146 54.1029C209.494 51.6002 208.807 49.1049 208.279 46.5639C207.67 43.584 207.134 40.6124 206.725 37.6139Z" fill="white"/>
<path d="M150.714 75.7353L153.916 73.8541C155.084 73.1376 156.242 72.375 157.458 71.7685C158.134 71.4488 158.864 71.261 159.61 71.2151C159.823 71.2148 160.034 71.267 160.223 71.3672C160.411 71.4673 160.573 71.6123 160.692 71.7894C161.282 72.9846 161.765 74.2386 162.257 75.4787C162.482 76.0311 163.514 79.3054 163.615 79.6082C163.938 80.6799 164.15 81.7875 164.54 82.833C164.931 83.8786 164.865 83.9646 164.014 84.6497C163.286 85.2313 162.592 85.8557 161.938 86.5196C161.832 86.6062 161.747 86.7158 161.689 86.8402C161.631 86.9646 161.603 87.1005 161.605 87.2376C161.608 87.3747 161.641 87.5094 161.704 87.6315C161.766 87.7537 161.855 87.8601 161.965 87.9427C162.188 88.1002 162.464 88.1659 162.735 88.1262C163.006 88.0866 163.251 87.9445 163.42 87.7294C163.606 87.4986 163.78 87.2574 163.939 87.0068C164.152 86.6629 164.387 86.3323 164.641 86.0172C165.125 85.4701 165.58 85.5775 165.813 86.2242C166.528 88.1733 167.176 90.1486 168.003 92.0618C169.476 95.4943 171.083 98.8744 172.58 102.302C172.814 102.957 172.997 103.628 173.127 104.311C173.178 104.653 173.289 104.983 173.455 105.286C173.542 105.402 173.657 105.494 173.79 105.554C173.922 105.614 174.067 105.64 174.212 105.629C174.36 105.575 174.496 105.493 174.611 105.386C174.727 105.279 174.819 105.149 174.884 105.006C174.974 104.753 174.974 104.478 174.886 104.225C174.538 103.098 174.179 101.974 173.763 100.862C172.952 98.7414 172.084 96.6329 171.215 94.5244C169.92 91.198 168.602 87.8765 167.329 84.5453C167.22 84.3152 167.194 84.0545 167.256 83.8074C167.317 83.5602 167.462 83.3419 167.665 83.1893L170.498 80.7022C171.827 79.5553 173.184 78.4265 174.57 77.2674C174.965 76.9195 175.261 76.5083 174.89 76.059C174.518 75.6097 174 75.768 173.538 76.0822C173.434 76.157 173.335 76.2383 173.242 76.3253L167.373 81.6427C166.84 82.1282 166.35 82.0282 166.119 81.393C165.737 80.0456 165.403 78.6999 165.009 77.355C164.509 75.6843 163.966 73.9749 163.474 72.3386C163.229 71.5262 163.028 70.6926 162.804 69.8638C162.448 68.5829 162.08 67.3045 161.747 66.0187C161.413 64.7329 161.132 63.5801 160.802 62.3656C160.703 62.1234 160.68 61.857 160.735 61.6013C160.79 61.3456 160.92 61.1123 161.109 60.9317C162.159 59.9402 163.181 58.9305 164.234 57.9505C168.443 54.0304 172.61 50.0832 176.896 46.2428C178.976 44.2458 181.314 42.5374 183.848 41.1634C184.933 40.6206 186.05 40.2271 187.15 39.7532C187.657 39.5375 188.042 39.2035 187.871 38.6275C187.701 38.0514 187.186 37.9447 186.579 38.1939C185.471 38.6333 184.459 39.0647 183.426 39.5723C181.006 40.84 178.754 42.4036 176.72 44.2273C173.569 46.9139 170.477 49.6682 167.443 52.4901C165.259 54.5271 163.228 56.7235 161.107 58.8312C160.918 59.0154 160.536 59.2526 160.368 59.1924C160.246 59.1216 160.143 59.0245 160.064 58.9082C159.985 58.792 159.934 58.6596 159.913 58.5208C159.791 57.6102 159.741 56.6964 159.668 55.7875C159.637 55.6484 159.639 55.504 159.674 55.3659C159.983 54.1868 159.96 52.9453 159.608 51.7783C159.605 51.624 159.568 51.4722 159.5 51.3336C159.433 51.195 159.335 51.0729 159.215 50.976C159.095 50.8791 158.955 50.8097 158.805 50.7727C158.655 50.7357 158.499 50.7319 158.348 50.7617C158.043 50.8264 157.776 51.0096 157.607 51.2708C157.437 51.532 157.378 51.8498 157.443 52.1545C157.558 52.6944 157.537 53.275 157.62 53.8337C157.91 55.9331 158.203 58.0439 158.516 60.1383C158.594 60.4075 158.597 60.6928 158.526 60.9637C158.454 61.2347 158.311 61.4812 158.11 61.6772C155.267 64.312 152.697 67.2274 150.44 70.379C149.688 71.4925 149.017 72.6582 148.432 73.8672C148.276 74.1978 148.237 74.5719 148.324 74.9272C148.41 75.2825 148.616 75.5974 148.907 75.8192C149.175 76.0051 149.498 76.0976 149.824 76.0825C150.151 76.0673 150.463 75.9453 150.714 75.7353ZM151.796 71.5073C152.832 70.1705 153.916 68.8838 154.994 67.5741C156.072 66.2644 157.153 64.9662 158.25 63.6885C158.338 63.5897 158.446 63.5105 158.567 63.4559C158.688 63.4013 158.818 63.3725 158.951 63.3714C159.061 63.4286 159.155 63.5121 159.225 63.6146C159.295 63.717 159.339 63.8352 159.352 63.9585C159.422 65.3631 159.716 66.7475 160.223 68.0593C160.622 69.031 160.284 69.247 159.19 69.2993C157.755 69.3161 156.358 69.7595 155.175 70.573C153.759 71.5344 152.377 72.5483 151 73.5253C150.865 73.6067 150.723 73.677 150.577 73.7354L150.444 73.6195C150.894 72.9116 151.288 72.1676 151.796 71.5073Z" fill="white"/>
<path d="M178.042 72.2335C178.825 71.8509 179.226 71.0814 178.883 70.542C178.54 70.0025 177.871 69.9046 177.12 70.2684C176.369 70.6321 176.064 71.2853 176.338 71.8394C176.417 71.984 176.526 72.1102 176.658 72.2098C176.79 72.3093 176.941 72.38 177.102 72.4172C177.263 72.4544 177.43 72.4572 177.592 72.4256C177.754 72.3939 177.907 72.3285 178.042 72.2335Z" fill="white"/>
<path d="M213.252 185.36C211.848 182.597 210.436 179.848 209.154 177.035C207.285 172.93 205.491 168.785 203.723 164.647C203.152 163.315 202.789 161.892 202.23 160.558C201.779 159.453 201.721 159.465 202.665 158.653C202.774 158.547 202.859 158.419 202.912 158.277C202.965 158.135 202.985 157.982 202.971 157.831C202.939 157.682 202.468 157.554 202.208 157.573C201.384 157.652 201.159 157.556 200.992 156.823C200.652 155.227 200.313 153.63 199.976 152.045C199.159 147.941 198.766 143.764 198.803 139.58C198.835 139.011 198.912 138.444 199.032 137.887L199.33 137.823L200.337 139.398C200.529 139.057 200.77 138.838 200.748 138.675C200.617 137.601 200.423 136.535 200.166 135.485C200.086 135.189 199.899 134.933 199.642 134.766C199.385 134.599 199.076 134.533 198.773 134.58C198.482 134.616 198.216 134.76 198.025 134.982C197.835 135.205 197.735 135.491 197.744 135.783C197.432 137.557 197.215 139.347 197.095 141.144C196.976 145.821 197.505 150.492 198.664 155.025C198.889 156.082 199.252 157.109 199.589 158.13C199.703 158.67 199.55 158.966 199.081 159.246C195.212 161.57 191.698 164.44 188.647 167.767C188.454 167.988 188.008 168.263 187.837 168.191C187.708 168.104 187.597 167.992 187.512 167.862C187.426 167.732 187.368 167.586 187.339 167.433C187.227 166.904 187.227 166.34 187.08 165.819C186.454 163.551 185.652 161.416 185.231 159.153C184.667 156.103 184.39 152.993 183.998 149.906C183.984 149.613 183.861 149.336 183.652 149.129C183.444 148.922 183.166 148.801 182.872 148.789C182.582 148.797 182.306 148.912 182.095 149.112C181.885 149.312 181.756 149.582 181.734 149.871C181.687 150.1 181.668 150.334 181.678 150.568C181.719 151.817 181.835 153.064 182.026 154.299C182.617 157.079 183.208 159.859 183.866 162.613C184.477 164.98 185.281 167.294 185.984 169.642C186.032 169.761 186.055 169.889 186.051 170.018C186.048 170.147 186.018 170.274 185.963 170.391C185.459 171.014 184.872 171.583 184.301 172.173L184.217 172.118C184.456 171.659 184.722 171.219 184.938 170.764C184.958 170.694 184.96 170.619 184.945 170.547C184.929 170.475 184.897 170.408 184.85 170.351C184.698 170.328 184.543 170.361 184.414 170.444C184.283 170.514 184.172 170.616 184.092 170.74C183.319 171.961 182.544 173.17 181.796 174.398C181.557 174.797 181.406 175.273 181.857 175.585C182.307 175.898 182.763 175.669 183.166 175.307C183.302 175.21 183.428 175.099 183.54 174.975C184.311 174.139 185.056 173.297 185.855 172.479C186.05 172.269 186.429 172.02 186.633 172.073C186.766 172.138 186.884 172.231 186.979 172.346C187.074 172.46 187.143 172.593 187.182 172.737C187.38 173.271 187.426 173.885 187.644 174.403C190.28 179.99 192.94 185.575 195.624 191.16C196.013 191.911 196.485 192.616 197.031 193.262C197.306 193.586 197.661 193.833 198.06 193.979C198.286 194.08 198.542 194.089 198.774 194.006C199.007 193.923 199.199 193.754 199.31 193.534C199.378 193.445 199.425 193.343 199.45 193.234C199.474 193.125 199.475 193.012 199.451 192.903C199.428 192.794 199.382 192.692 199.315 192.602C199.249 192.513 199.164 192.439 199.066 192.385C198.204 191.899 197.555 191.107 197.25 190.166C193.963 183.853 191.146 177.321 188.491 170.706C188.38 170.5 188.343 170.263 188.389 170.034C188.435 169.804 188.559 169.599 188.741 169.452C189.743 168.519 190.807 167.536 191.876 166.636C194.293 164.622 196.741 162.637 199.188 160.652C199.904 160.068 200.295 160.213 200.57 161.055C200.884 162.271 201.267 163.468 201.717 164.641C203.203 168.131 204.767 171.592 206.331 175.053C208.137 179.264 210.21 183.354 212.536 187.301C212.832 187.745 213.271 188.075 213.78 188.237C213.978 188.231 214.172 188.181 214.348 188.089C214.524 187.998 214.677 187.868 214.796 187.709C214.914 187.528 214.657 187.054 214.49 186.777C214.048 186.332 213.634 185.858 213.252 185.36Z" fill="white"/>
<path d="M208.029 157.294C208.102 156.858 208.272 156.444 208.529 156.083C208.617 155.899 208.755 155.742 208.927 155.632C209.1 155.521 209.3 155.46 209.504 155.457C209.709 155.453 209.911 155.506 210.087 155.611C210.263 155.715 210.407 155.867 210.502 156.048C210.885 156.757 211.02 157.573 210.887 158.367C210.856 159.019 210.743 159.664 210.551 160.288C210.413 160.767 210.387 161.272 210.475 161.763C210.562 162.255 210.762 162.719 211.057 163.122C211.351 163.758 211.828 164.292 212.427 164.655C212.608 164.783 212.812 164.872 213.028 164.916C213.244 164.961 213.467 164.96 213.683 164.914C213.899 164.869 214.103 164.778 214.282 164.65C214.462 164.521 214.612 164.357 214.725 164.167C215.695 163.007 216.484 161.706 217.062 160.308C217.653 158.85 218.227 157.372 218.792 155.907C218.977 155.423 219.012 155.248 218.853 155.065C218.872 155.27 218.837 155.476 218.752 155.663C218.347 156.638 217.965 157.607 217.576 158.602C216.925 160.55 215.959 162.378 214.716 164.013C214.604 164.212 214.451 164.386 214.266 164.522C214.082 164.658 213.871 164.753 213.647 164.8C213.423 164.848 213.191 164.847 212.968 164.798C212.744 164.749 212.533 164.653 212.35 164.516C211.648 164.004 211.116 163.295 210.82 162.478C210.525 161.662 210.48 160.776 210.692 159.934C211.178 158.621 211.141 157.172 210.588 155.886C210.476 155.694 210.32 155.531 210.134 155.41C209.948 155.289 209.736 155.214 209.515 155.189C209.057 155.267 208.646 155.517 208.367 155.89C208.125 156.283 207.973 156.725 207.922 157.185C207.586 158.762 207.697 160.402 208.244 161.919C208.298 162.171 208.432 162.407 208.52 162.652C207.897 160.938 207.728 159.093 208.029 157.294Z" fill="white"/>
<path d="M217.111 150.779C217.216 150.458 217.403 150.17 217.654 149.944C217.751 149.833 217.872 149.747 218.008 149.691C218.144 149.636 218.291 149.612 218.438 149.623C218.584 149.634 218.726 149.678 218.853 149.753C218.979 149.828 219.087 149.931 219.166 150.054C219.398 150.354 219.582 150.687 219.713 151.043C219.604 150.613 219.455 150.194 219.267 149.793C219.171 149.627 219.034 149.489 218.867 149.394C218.701 149.299 218.513 149.25 218.322 149.251C218.13 149.253 217.943 149.305 217.778 149.403C217.614 149.501 217.478 149.641 217.385 149.809C217.133 150.196 216.984 150.64 216.952 151.101C216.944 151.575 216.961 152.048 217.001 152.519C216.98 152.815 217.025 153.111 217.131 153.387C217.238 153.663 217.404 153.912 217.617 154.117C217.448 153.953 217.325 153.747 217.262 153.521C216.988 152.633 216.936 151.692 217.111 150.779Z" fill="white"/>
<path d="M223.283 157.307C223.172 156.979 223.04 156.658 222.887 156.347C223.33 157.634 223.668 158.956 223.895 160.299C224.111 161.825 224.351 163.347 224.689 164.824C224.596 164.387 224.503 163.951 224.41 163.515C224.139 161.428 223.762 159.356 223.283 157.307Z" fill="white"/>
<path d="M232.974 152.196C232.896 152.849 232.81 153.516 232.781 154.17C232.596 157.595 232.444 161.001 232.271 164.423C232.172 166.389 232.097 168.35 231.962 170.312C231.91 170.828 231.788 171.335 231.598 171.818C231.478 172.254 231.201 172.63 230.82 172.873C230.439 173.116 229.981 173.208 229.536 173.132C229.992 173.237 230.47 173.158 230.867 172.911C231.265 172.665 231.549 172.272 231.657 171.817C231.945 171.009 232.117 170.164 232.168 169.307C232.435 163.896 232.653 158.483 232.908 153.075C232.946 152.778 233.013 152.487 233.107 152.204L233.188 152.187L233.175 152.129L232.974 152.196Z" fill="white"/>
<path d="M220.262 155.776C220.092 156.389 219.871 156.988 219.71 157.586C219.177 159.684 218.343 161.693 217.233 163.551C218.599 161.291 219.579 158.819 220.132 156.236C220.2 155.947 220.316 155.671 220.474 155.419C220.37 155.514 220.296 155.639 220.262 155.776Z" fill="white"/>
<path d="M225.195 166.695C225.52 167.796 225.952 168.862 226.484 169.879C226.661 170.202 226.838 170.524 227.023 170.833C226.914 170.655 226.815 170.472 226.726 170.284C226.151 169.116 225.64 167.919 225.195 166.695Z" fill="white"/>
<path d="M239.041 152.542C240.149 151.342 241.009 149.935 241.571 148.402C242.236 146.844 242.825 145.266 243.468 143.713C243.642 143.3 243.85 142.902 244.091 142.524C243.913 142.525 243.739 142.573 243.586 142.663C243.432 142.752 243.304 142.88 243.215 143.034C243.071 143.27 242.959 143.524 242.884 143.789C242.272 145.432 241.756 147.126 241.015 148.724C240.385 149.991 239.65 151.203 238.82 152.348C238.687 152.58 238.496 152.772 238.265 152.905C238.034 153.038 237.772 153.109 237.505 153.108C237.788 153.148 238.076 153.118 238.345 153.019C238.613 152.92 238.852 152.756 239.041 152.542Z" fill="white"/>
<path d="M230.085 171.082C230.473 170.257 230.663 169.354 230.641 168.443C230.864 165.538 231.004 162.639 231.193 159.742C231.393 157.238 231.664 154.731 231.927 152.238C232.087 150.933 232.14 149.616 232.087 148.302C232.082 147.197 232.185 146.093 232.395 145.007C232.432 144.734 232.536 144.474 232.698 144.251C232.86 144.028 233.075 143.849 233.324 143.729C233.919 143.423 234.335 143.514 234.69 143.943C234.579 143.782 234.43 143.651 234.256 143.563C234.082 143.474 233.889 143.43 233.693 143.435C233.429 143.442 233.174 143.528 232.958 143.68C232.743 143.833 232.578 144.046 232.483 144.292C232.313 144.595 232.204 144.928 232.163 145.273C232.088 146.273 232.086 147.282 232.059 148.284C232.032 149.286 232.079 150.129 231.984 151.037C231.889 151.946 231.58 153.092 231.496 154.107C231.23 157.261 231.021 160.402 230.824 163.542C230.679 165.685 230.62 167.835 230.452 169.984C230.429 170.325 230.103 170.658 229.912 170.999C229.684 170.831 229.415 170.696 229.208 170.512C229.288 170.678 229.412 170.819 229.567 170.92C229.722 171.02 229.901 171.076 230.085 171.082Z" fill="white"/>
<path d="M210.4 165.519C209.666 164.766 209.073 163.888 208.648 162.926C209.049 163.901 209.646 164.783 210.4 165.519Z" fill="white"/>
<path d="M221.271 153.508C221.998 153.482 222.72 153.629 223.379 153.937C223.946 154.188 224.419 154.613 224.73 155.15C225.107 155.824 225.411 156.536 225.637 157.274C225.908 158.549 226.179 159.825 226.372 161.128C226.577 162.093 226.702 163.075 226.916 164.026C227.151 165.199 227.45 166.357 227.81 167.498C228.065 168.18 228.359 168.847 228.691 169.495C228.645 169.277 228.596 169.047 228.467 168.835C227.434 166.323 226.729 163.689 226.368 160.997C226.211 159.142 225.783 157.32 225.099 155.588C224.804 154.817 224.252 154.172 223.537 153.76C222.822 153.348 221.987 153.194 221.172 153.325C220.569 153.369 220.262 153.279 220.102 152.977C220.229 153.406 220.483 153.472 221.271 153.508Z" fill="white"/>
<path d="M209.279 159.287C209.256 159.399 209.269 159.515 209.315 159.619C209.361 159.724 209.438 159.811 209.535 159.87C209.481 159.74 209.48 159.593 209.532 159.462L209.337 159.504L209.279 159.287Z" fill="white"/>
<path d="M234.703 153.906C235.027 154.232 235.412 154.489 235.837 154.662C236.261 154.836 236.716 154.923 237.175 154.918C236.263 154.858 235.395 154.503 234.703 153.906Z" fill="white"/>
<path d="M233.758 147.192L233.792 147.353C233.809 147.433 233.941 147.49 234.134 147.605C234.068 147.294 233.962 147.136 233.891 146.971L233.758 147.192Z" fill="white"/>
<path d="M333.293 86.4637C333.199 86.3945 333.091 86.3466 332.976 86.3233C332.861 86.3001 332.743 86.3019 332.629 86.3289C332.41 86.3771 332.204 86.4722 332.026 86.6075C331.847 86.7429 331.7 86.9153 331.595 87.1129C331.32 87.6021 330.944 88.0262 330.49 88.3561C327.825 90.0511 325.134 91.6797 322.447 93.3312C321.777 93.7377 321.119 94.1418 320.444 94.5254L315.656 97.2478C312.918 98.8263 310.211 100.434 307.452 101.969C303.963 103.911 300.45 105.799 296.942 107.709L296.491 107.961L285.308 114.203C282.552 115.75 279.792 117.285 277.052 118.852C274.312 120.419 271.552 122.062 268.809 123.677C267.103 124.688 265.413 125.716 263.738 126.76C262.823 127.315 261.939 127.899 261.065 128.529C259.938 129.273 258.807 129.993 257.699 130.769C256.591 131.545 255.561 132.292 254.505 133.081C253.067 134.187 251.633 135.272 250.202 136.336C249.702 136.716 249.224 137.122 248.768 137.554C247.637 138.671 246.534 139.805 245.433 140.952C244.948 141.459 244.515 142.014 244.14 142.607C243.899 142.986 243.69 143.383 243.516 143.796C242.874 145.35 242.285 146.927 241.619 148.486C241.057 150.019 240.197 151.425 239.09 152.625C238.905 152.844 238.668 153.014 238.401 153.119C238.134 153.224 237.845 153.261 237.561 153.226L237.365 153.208C237.161 153.145 236.967 153.053 236.79 152.934C236.04 152.358 235.461 151.589 235.117 150.708C234.81 150.083 234.744 149.367 234.929 148.695C235.121 147.794 235.248 146.881 235.308 145.961C235.35 145.285 235.148 144.617 234.74 144.077C234.375 143.602 233.969 143.557 233.374 143.863C233.125 143.983 232.91 144.162 232.748 144.385C232.586 144.608 232.482 144.868 232.445 145.141C232.235 146.227 232.131 147.331 232.136 148.436C232.19 149.75 232.136 151.067 231.977 152.372C231.707 154.831 231.443 157.372 231.242 159.876C231.008 162.783 230.868 165.682 230.691 168.577C230.713 169.488 230.523 170.391 230.135 171.216C229.951 171.21 229.772 171.154 229.617 171.054C229.462 170.953 229.338 170.812 229.258 170.646C229.258 170.646 229.258 170.646 229.246 170.589L228.753 169.625C228.42 168.977 228.126 168.31 227.872 167.627C227.511 166.487 227.213 165.328 226.978 164.156C226.775 163.202 226.57 162.237 226.434 161.258C226.16 159.971 226.016 158.669 225.699 157.404C225.472 156.666 225.168 155.954 224.791 155.28C224.48 154.743 224.008 154.318 223.441 154.066C222.782 153.759 222.059 153.612 221.333 153.638C220.544 153.601 220.29 153.535 220.163 153.106C220.104 152.903 220.06 152.696 220.031 152.486C219.99 152.04 219.897 151.6 219.753 151.177C219.623 150.821 219.438 150.488 219.207 150.188C219.127 150.065 219.019 149.962 218.893 149.887C218.766 149.812 218.624 149.768 218.478 149.757C218.332 149.746 218.185 149.77 218.049 149.825C217.913 149.881 217.791 149.967 217.694 150.077C217.443 150.303 217.256 150.592 217.152 150.913C216.98 151.814 217.029 152.742 217.295 153.62C217.358 153.847 217.481 154.053 217.65 154.217C217.901 154.466 218.181 154.685 218.484 154.868C218.636 154.969 218.775 155.089 218.896 155.224C219.055 155.407 218.975 155.592 218.835 156.066C218.27 157.531 217.696 159.009 217.106 160.467C216.527 161.865 215.739 163.166 214.768 164.326C214.656 164.516 214.505 164.68 214.326 164.809C214.146 164.937 213.942 165.027 213.726 165.073C213.511 165.119 213.288 165.12 213.072 165.075C212.855 165.031 212.651 164.942 212.471 164.814C211.872 164.451 211.394 163.917 211.1 163.28C210.805 162.878 210.606 162.414 210.518 161.922C210.43 161.431 210.456 160.926 210.594 160.447C210.786 159.823 210.899 159.178 210.93 158.526C211.064 157.732 210.928 156.916 210.545 156.207C210.45 156.026 210.307 155.874 210.13 155.77C209.954 155.665 209.752 155.612 209.548 155.616C209.343 155.619 209.143 155.68 208.971 155.79C208.798 155.901 208.66 156.058 208.572 156.242C208.316 156.603 208.145 157.017 208.073 157.453C207.773 159.248 207.941 161.089 208.561 162.8C208.588 162.898 208.609 162.998 208.625 163.098C209.049 164.061 209.642 164.939 210.376 165.691L210.533 165.862C211.095 166.422 211.83 166.774 212.618 166.864C213.406 166.954 214.202 166.775 214.876 166.356C215.729 165.791 216.44 165.036 216.952 164.15C217.054 164.008 217.119 163.862 217.209 163.723C218.319 161.865 219.154 159.855 219.687 157.758C219.848 157.159 220.069 156.56 220.239 155.948C220.273 155.81 220.346 155.686 220.451 155.59C220.572 155.52 220.713 155.49 220.853 155.505C221.259 155.431 221.678 155.495 222.043 155.687C222.409 155.879 222.699 156.189 222.867 156.565C223.02 156.876 223.153 157.197 223.263 157.526C223.754 159.572 224.142 161.641 224.425 163.726C224.518 164.162 224.611 164.599 224.704 165.035C224.774 165.568 224.886 166.094 225.038 166.609C225.054 166.717 225.077 166.825 225.106 166.931C225.551 168.154 226.062 169.352 226.638 170.519C226.726 170.707 226.826 170.891 226.934 171.068C227.027 171.232 227.129 171.391 227.239 171.544C227.252 171.601 227.264 171.658 227.276 171.716C227.435 171.93 227.607 172.134 227.79 172.327L227.805 172.396C228.005 172.6 228.219 172.791 228.443 172.969C228.713 173.175 229.027 173.317 229.36 173.386C229.805 173.462 230.263 173.369 230.644 173.126C231.025 172.883 231.302 172.507 231.422 172.071C231.612 171.588 231.734 171.082 231.786 170.565C231.921 168.603 231.996 166.643 232.095 164.677C232.268 161.254 232.42 157.848 232.605 154.424C232.634 153.769 232.72 153.102 232.797 152.45L232.97 152.413L232.982 152.471C233.143 152.664 233.307 152.87 233.459 153.077C233.758 153.497 234.113 153.874 234.514 154.198C235.206 154.795 236.074 155.15 236.986 155.209L237.124 155.18L237.703 155.141C238.427 155.019 239.112 154.729 239.704 154.295C240.295 153.861 240.777 153.294 241.11 152.64C242.388 150.719 243.337 148.598 243.918 146.364C244.176 145.438 244.492 144.529 244.864 143.642C245.805 141.867 247.08 140.292 248.62 139.002C250.052 137.665 251.56 136.396 253.104 135.191C254.959 133.752 256.869 132.398 258.789 131.042C259.906 130.252 261.07 129.512 262.221 128.775C264.155 127.536 266.094 126.319 268.051 125.135C268.462 124.868 268.878 124.623 269.292 124.367C271.581 122.992 273.854 121.597 276.162 120.254C279.133 118.53 282.132 116.824 285.133 115.129C287.405 113.846 289.682 112.562 291.962 111.277C295.458 109.349 298.956 107.433 302.457 105.528L304.613 104.373L315.024 98.4509C317.446 97.0835 319.869 95.7162 322.273 94.3168C325.084 92.6868 327.881 91.0478 330.659 89.3767C331.38 88.9029 332.072 88.387 332.732 87.8316C332.894 87.7128 333.018 87.5487 333.088 87.3598C333.326 86.9009 333.394 86.5984 333.293 86.4637ZM209.65 158.943C209.64 159.12 209.6 159.295 209.532 159.46C209.48 159.591 209.48 159.737 209.535 159.868C209.437 159.809 209.36 159.721 209.314 159.617C209.269 159.513 209.256 159.397 209.279 159.286C209.335 159.053 209.373 158.816 209.392 158.577C209.51 158.635 209.6 158.736 209.644 158.86C209.64 158.887 209.642 158.916 209.65 158.943ZM233.756 147.36C233.725 147.312 233.713 147.255 233.722 147.199L233.821 146.986C233.858 147.158 233.894 147.33 234.064 147.618C233.913 147.53 233.797 147.435 233.756 147.36Z" fill="white"/>
<path d="M245.651 201.788C246.831 201.637 247.902 201.024 248.629 200.084C249.357 199.143 249.682 197.953 249.532 196.773C249.461 196.191 249.275 195.628 248.987 195.117C248.698 194.606 248.311 194.157 247.848 193.796C247.386 193.435 246.856 193.169 246.291 193.012C245.725 192.856 245.134 192.813 244.552 192.885C243.966 192.954 243.399 193.137 242.885 193.425C242.37 193.713 241.918 194.1 241.553 194.564C241.189 195.027 240.92 195.558 240.761 196.126C240.602 196.694 240.558 197.288 240.629 197.873C240.781 199.056 241.394 200.131 242.334 200.865C243.275 201.598 244.467 201.93 245.651 201.788Z" fill="white"/>
<path d="M238.267 233.586L238.775 230.668C235.871 229.881 233.42 231.062 232.623 233.525C231.701 236.362 232.747 238.685 235.483 239.58C237.004 240.073 238.749 240.146 242.629 237.617C244.222 236.582 245.341 236.2 246.384 236.531C246.604 236.566 246.813 236.649 246.996 236.775C247.18 236.901 247.333 237.065 247.445 237.257C247.557 237.45 247.625 237.664 247.644 237.886C247.663 238.107 247.633 238.33 247.555 238.539C247.287 239.364 246.442 239.796 245.162 239.48L244.575 242.366C247.272 242.909 249.282 241.917 249.996 239.629C250.924 236.766 249.926 234.613 247.207 233.738C244.821 232.961 242.988 233.771 240.036 235.695C238.507 236.692 237.259 237.09 236.098 236.712C235.876 236.652 235.67 236.545 235.494 236.397C235.319 236.249 235.177 236.065 235.08 235.856C234.984 235.648 234.933 235.421 234.934 235.192C234.934 234.962 234.984 234.735 235.081 234.527C235.426 233.553 236.479 233.137 238.267 233.586Z" fill="white"/>
<path d="M242.496 256.481L244.51 252.968L228.96 244.027L227.62 246.365L239.775 253.338L239.748 253.38L226.207 248.814L225.475 250.111L236.233 259.493L236.208 259.547L224.062 252.56L222.72 254.886L238.282 263.824L240.297 260.31L232.288 253.188L232.315 253.147L242.496 256.481Z" fill="white"/>
<path d="M230.416 273.903L219.233 259.473L217.245 261.696L219.849 264.744L217.6 267.263L214.265 265.019L212.334 267.23L227.917 276.716L230.416 273.903ZM226.46 272.968L219.895 268.744L221.554 266.891L226.441 272.936L226.46 272.968Z" fill="white"/>
<path d="M208.005 287.094C210.289 290.102 212.592 290.261 215.258 288.23L218.805 285.543L207.976 271.253L205.513 273.109L209.953 278.972C209.528 279.285 209.122 279.624 208.74 279.987L202.505 275.393L199.92 277.299L206.963 282.189C206.202 283.636 206.555 285.241 208.005 287.094ZM210.567 281.747L211.495 281.034L214.83 285.427L213.993 286.061C212.557 287.159 211.776 286.929 210.475 285.272C209.175 283.616 209.208 282.696 210.465 281.721L210.567 281.747Z" fill="white"/>
<path d="M195.676 299.978L203.755 295.908L202.55 293.511L199.882 294.858L193.011 281.227L190.257 282.617L197.14 296.245L194.47 297.581L195.676 299.978Z" fill="white"/>
<path d="M179.228 305.791L187.426 303.185L181.989 286.079L179.055 287.015L181.459 294.596L177.533 295.839L178.342 298.404L182.268 297.162L183.671 301.558L178.419 303.226L179.228 305.791Z" fill="white"/>
<path d="M169.439 307.682L167.356 289.864L159.483 290.781L159.799 293.451L164.613 292.884L166.382 308.043L169.439 307.682Z" fill="white"/>
<path d="M149.975 290.712L149.711 298.164L145.62 308.517L148.752 308.62L151.05 301.865L151.098 301.867L153.024 308.781L156.144 308.886L152.796 298.276L153.061 290.824L149.975 290.712Z" fill="white"/>
<path d="M140.403 289.707L132.011 287.841L131.425 290.451L136.809 291.66L135.657 296.803L131.786 295.933L131.2 298.542L135.071 299.413L134.061 303.925L129.02 302.8L128.434 305.409L136.478 307.217L140.403 289.707Z" fill="white"/>
<path d="M116.559 281.727L115.707 290.313C114.086 290.369 112.853 291.459 111.914 293.592C110.405 297.058 111.389 299.142 114.459 300.483L118.536 302.269L125.729 285.781L122.897 284.546L119.947 291.284C119.464 291.06 118.966 290.869 118.457 290.712L119.44 283.024L116.559 281.727ZM116.703 298.613L115.749 298.191C114.093 297.463 113.883 296.643 114.712 294.726C115.541 292.809 116.35 292.433 117.845 293.088L118.917 293.556L116.703 298.613Z" fill="white"/>
<path d="M99.0483 269.446L89.0181 280.942L86.774 278.97L85.0089 281.002L91.8173 286.939L93.5849 284.918L91.3433 282.957L101.376 271.472L99.0483 269.446Z" fill="white"/>
<path d="M94.2979 264.981L92.3702 262.689L88.9728 264.78L86.8224 262.176L89.5274 259.2L87.6226 256.903L75.925 270.891L78.3651 273.842L94.2979 264.981ZM85.0441 264.258L86.6494 266.162L79.9443 270.145L85.0441 264.258Z" fill="white"/>
<path d="M68.7435 260.796L84.4341 252.095L82.9368 249.399L77.375 252.491L75.0464 252.493L81.1664 246.21L79.6479 243.471L71.6251 252.212L64.1666 252.537L65.6639 255.232L73.0249 254.844L73.0461 254.887L67.2462 258.101L68.7435 260.796Z" fill="white"/>
<path d="M60.5634 244.032L77.5802 238.35L74.8517 230.202L72.3078 231.055L74.0543 236.278L69.0673 237.95L67.808 234.172L65.2525 235.028L66.5208 238.792L62.1394 240.263L60.4957 235.354L57.9517 236.207L60.5634 244.032Z" fill="white"/>
<path d="M54.0767 209.922L54.0495 213.973L71.9884 214.098L72.0068 211.417L57.9998 211.321L58.0015 211.272L72.0303 208.591L72.0377 207.1L58.0501 204.215L58.0518 204.166L72.0588 204.262L72.0772 201.581L54.1383 201.457L54.1111 205.508L64.5787 207.761L64.5769 207.81L54.0767 209.922Z" fill="white"/>
<path d="M57.3311 182.843L55.5626 190.902L73.0787 194.743L74.9331 186.353L72.3119 185.769L71.1285 191.159L65.9788 190.033L66.8349 186.153L64.2137 185.57L63.36 189.461L58.8498 188.463L59.9499 183.415L57.3311 182.843Z" fill="white"/>
<path d="M69.253 155.242L64.8175 163.124L67.1504 164.441L68.6138 161.837L81.9106 169.323L83.4168 166.638L70.1315 159.149L71.5973 156.556L69.253 155.242Z" fill="white"/>
<path d="M91.5141 155.635C91.9591 155.197 92.3036 154.667 92.5236 154.082C92.7436 153.498 92.8339 152.872 92.7883 152.25C92.7427 151.627 92.5622 151.021 92.2594 150.475C91.9565 149.929 91.5386 149.455 91.0345 149.086L83.8334 143.053C83.3793 142.63 82.8391 142.309 82.2498 142.114C81.6605 141.919 81.036 141.853 80.4189 141.921C79.8019 141.99 79.2069 142.191 78.6747 142.511C78.1425 142.83 77.6857 143.261 77.3355 143.774C76.8902 144.21 76.545 144.738 76.3236 145.321C76.1022 145.904 76.0099 146.528 76.0531 147.15C76.0963 147.772 76.2739 148.377 76.5737 148.924C76.8735 149.47 77.2884 149.946 77.7897 150.316L85.0187 156.367C85.4734 156.79 86.0141 157.109 86.6037 157.303C87.1932 157.497 87.8177 157.562 88.4345 157.492C89.0513 157.423 89.6458 157.221 90.1773 156.9C90.7088 156.58 91.1648 156.148 91.5141 155.635ZM79.4757 145.54C80.3657 144.474 81.1878 144.84 81.9904 145.51L89.0728 151.436C89.9779 152.192 90.3162 152.936 89.4944 153.927C88.6725 154.918 87.9871 154.8 86.9681 153.96L79.8694 148.013C78.762 147.096 78.7255 146.36 79.4757 145.54Z" fill="white"/>
<path d="M118.175 129.5C119.257 129.001 120.097 128.094 120.514 126.978C120.931 125.862 120.891 124.627 120.402 123.54C119.901 122.462 118.994 121.625 117.878 121.213C116.763 120.8 115.53 120.844 114.447 121.337C113.912 121.581 113.431 121.928 113.031 122.359C112.63 122.789 112.319 123.294 112.113 123.845C111.908 124.396 111.814 124.982 111.835 125.569C111.857 126.157 111.994 126.734 112.238 127.269C112.73 128.352 113.631 129.195 114.745 129.614C115.858 130.032 117.092 129.991 118.175 129.5Z" fill="white"/>
</g>
<defs>
<clipPath id="clip0_6_368">
<rect width="321.966" height="291.374" fill="white" transform="translate(0 66.9414) rotate(-12)"/>
</clipPath>
</defs>
</svg>
