<svg width="12" height="22" viewBox="0 0 12 22" fill="none" xmlns="http://www.w3.org/2000/svg">
<path d="M5.79785 0.504407C3.40223 0.584144 1.34959 2.07536 0.46582 4.17823C-0.188286 5.73648 1.19185 7.51665 2.91504 7.21339C3.75248 7.06588 4.33504 6.46218 4.66113 5.82179C4.94871 5.25662 5.56515 4.89158 6.2959 5.02784C6.98884 5.15696 7.5 5.8321 7.5 6.58644V8.75001H2.25C1.01627 8.75001 0 9.76628 0 11V19.25C0 20.4837 1.01627 21.5 2.25 21.5H9.75C10.9837 21.5 12 20.4837 12 19.25V6.71095C12 3.48888 9.53813 0.656237 6.28125 0.507337C6.11874 0.499867 5.95756 0.499091 5.79785 0.504407ZM6.2124 2.00587C8.63153 2.11647 10.5 4.25102 10.5 6.71095V19.25C10.5 19.6738 10.1738 20 9.75 20H2.25C1.82623 20 1.5 19.6738 1.5 19.25V11C1.5 10.5762 1.82623 10.25 2.25 10.25H9V6.58644C9 5.15378 8.02784 3.82414 6.57129 3.55275C5.19499 3.2961 3.9019 4.00992 3.3252 5.1421C3.15329 5.47904 2.89954 5.69389 2.65576 5.73683C1.99245 5.85356 1.62374 5.29407 1.84863 4.75831C2.55444 3.07888 4.24361 1.91538 6.2124 2.00587ZM6 12.1895L3.21973 14.9697L4.28027 16.0303L5.25 15.0606V18.5H6.75V15.0606L7.71973 16.0303L8.78027 14.9697L6 12.1895Z" fill="#1D3C86"/>
</svg>
