<svg width="271" height="24" viewBox="0 0 271 24" fill="none" xmlns="http://www.w3.org/2000/svg">
<path d="M56.9656 23.068C56.1984 23.068 55.623 23.068 55.0477 22.8816C54.6641 22.8816 54.4723 22.6952 54.0887 22.5087C53.7051 22.1359 53.5134 21.7631 53.3216 21.3903C53.1298 21.0175 53.1298 20.4583 52.938 19.899C52.938 19.5262 52.938 19.1534 52.7462 18.7806C52.5544 17.4757 52.3626 16.1709 52.1708 14.866C51.979 13.5612 51.7872 12.4427 51.5955 11.1379C51.4037 9.08738 51.0201 7.0369 50.8283 4.98641C50.6365 3.68155 50.4447 2.56311 50.2529 1.25825C50.2529 1.07184 50.2529 0.885437 50.2529 0.699029C50.2529 0.512621 50.2529 0.326214 50.0611 0.139806C49.8693 -0.046602 49.6775 -0.046602 49.4858 0.139806L49.294 0.326214C48.7186 1.44466 48.1432 2.3767 47.5679 3.49515C46.8007 4.8 46.0335 6.29126 45.2664 7.59612C44.1156 9.6466 42.9649 11.6971 41.8141 13.934C41.2388 14.866 40.8552 15.7981 40.2798 16.5437C39.8962 17.2893 39.5127 18.035 39.1291 18.7806C39.1291 18.7806 39.1291 18.967 38.9373 18.967C38.7455 19.1534 38.5537 19.1534 38.5537 18.967C38.1701 18.4078 37.7865 17.6621 37.5948 17.1029C36.8276 15.6117 35.8686 14.1204 35.1015 12.8155C34.1425 10.9515 33.1836 9.27379 32.2246 7.59612C31.4575 6.10486 30.4985 4.61359 29.7314 3.12233C29.3478 2.3767 28.7724 1.63107 28.3888 0.885437C28.197 0.699029 28.0052 0.326214 27.8135 0.139806C27.4299 -0.046602 27.2381 -0.046602 27.0463 0.139806C27.0463 0.326214 26.8545 0.512621 26.8545 0.699029C26.6627 2.00388 26.4709 3.30874 26.2791 4.61359C25.8956 7.59612 25.512 10.7651 25.1284 13.7476C24.9366 15.2388 24.7448 16.7301 24.553 18.2214C24.3612 19.1534 24.3612 19.899 24.1694 20.8311C24.1694 21.2039 23.9776 21.5767 23.9776 21.9495C23.7859 22.5087 23.4023 22.6952 22.8269 22.8816C22.6351 22.8816 22.2515 22.8816 22.0597 22.8816C21.868 22.8816 21.868 22.8816 21.6762 22.8816C21.4844 22.8816 21.4844 22.8816 21.4844 23.068C21.4844 23.2544 21.4844 23.2544 21.6762 23.2544C21.868 23.2544 21.868 23.2544 22.0597 23.2544C22.4433 23.2544 22.6351 23.2544 23.0187 23.2544C23.7859 23.2544 24.553 23.2544 24.9366 23.068C25.8956 23.068 26.4709 23.068 27.0463 23.068C27.4299 23.068 27.8135 23.068 28.197 23.068C28.3888 23.068 28.5806 23.068 28.5806 22.8816C28.7724 22.8816 28.7724 22.5087 28.5806 22.5087C28.3888 22.5087 28.3888 22.5087 28.197 22.5087C27.8135 22.5087 27.4299 22.5087 27.0463 22.3223C26.4709 22.1359 26.2791 21.9495 26.2791 21.3903C26.2791 20.4583 26.2791 19.7126 26.4709 18.7806C26.4709 18.035 26.6627 17.1029 26.6627 16.3573C26.6627 15.6117 26.8545 14.866 26.8545 14.1204C27.0463 13.0019 27.0463 11.8835 27.2381 10.9515C27.4299 9.4602 27.4299 8.15534 27.6217 6.66408V6.47767C27.6217 6.47767 27.6217 6.29126 27.8135 6.29126H28.0052L28.197 6.47767C28.3888 6.85049 28.5806 7.2233 28.7724 7.59612C29.7314 9.4602 30.6903 11.1379 31.8411 13.0019C32.4164 13.934 32.9918 15.0524 33.5672 15.9845C34.3343 17.4757 35.2933 18.7806 36.0604 20.2719C36.444 20.8311 36.8276 21.5767 37.2112 22.1359C37.403 22.3223 37.403 22.5087 37.5948 22.6952C37.7865 22.8816 37.9783 22.8816 38.3619 22.6952L38.5537 22.5087C38.7455 22.3223 38.9373 21.9495 38.9373 21.7631C39.8962 19.899 41.047 18.035 42.0059 16.1709C42.7731 14.6796 43.732 13.1884 44.4992 11.5107C45.0746 10.5786 45.65 9.4602 46.0335 8.52816C46.4171 7.78253 46.8007 7.0369 47.1843 6.29126C47.1843 6.29126 47.1843 6.10486 47.3761 6.10486C47.5679 5.91845 47.5679 6.10486 47.7596 6.10486C47.7596 6.29126 47.7596 6.29126 47.7596 6.47767C47.9514 7.78253 47.9514 9.08738 48.1432 10.3922C48.335 12.0699 48.5268 13.7476 48.7186 15.4252C48.9104 16.9165 49.1022 18.4078 49.294 19.899C49.294 20.4583 49.4858 21.0175 49.4858 21.3903C49.4858 21.5767 49.4858 21.9495 49.294 22.1359C49.1022 22.3223 49.1022 22.5087 49.4858 22.6952H49.6775C50.0611 22.6952 50.4447 22.6952 50.6365 22.6952C52.1708 22.6952 53.7051 22.8816 55.2395 22.8816C55.623 22.8816 55.8148 22.8816 56.1984 22.8816C56.3902 22.8816 56.3902 22.8816 56.582 22.8816C56.7738 22.8816 56.7738 22.6952 56.7738 22.6952C57.3492 23.068 57.1574 23.068 56.9656 23.068Z" fill="#1D3C86"/>
<path d="M270.812 23.2526H270.62C270.428 23.2526 270.428 23.2526 270.236 23.2526C269.085 23.2526 268.127 23.0662 267.168 22.3205C266.4 21.9477 265.825 21.3885 265.25 20.8293C263.907 19.5244 262.565 18.0331 261.222 16.7283C260.263 15.6098 259.304 14.6778 258.345 13.5594C257.962 13.1865 257.962 13.1865 258.345 12.8137C259.496 11.8817 260.647 10.7632 261.414 9.45839C262.181 8.33994 262.373 7.03509 262.181 5.73023C262.181 5.54382 262.181 5.35742 261.989 5.17101C261.414 3.30693 260.071 2.00208 257.962 1.44285C257.003 1.07004 255.852 1.07004 254.893 0.883629C253.167 0.697221 251.441 0.883629 249.715 0.883629C248.564 0.883629 247.413 0.883629 246.262 0.883629C245.687 0.883629 244.92 0.883629 244.345 0.883629H244.153C243.961 0.883629 243.961 1.07004 243.961 1.07004C243.961 1.25644 243.961 1.25644 244.153 1.25644C244.345 1.25644 244.345 1.25644 244.536 1.25644C244.92 1.25644 245.112 1.25644 245.495 1.25644C245.687 1.25644 245.879 1.25644 246.071 1.44285C246.454 1.62926 246.838 1.81567 246.838 2.18848C246.838 2.37489 247.03 2.5613 247.03 2.74771C247.03 3.49334 247.03 4.05256 247.03 4.79819C247.03 7.03509 247.03 9.45839 247.03 11.6953C247.03 14.1186 247.03 16.5419 247.03 18.9652C247.03 19.8972 247.03 20.8293 246.838 21.5749C246.838 21.7613 246.646 21.9477 246.646 22.1341C246.454 22.5069 246.262 22.6933 245.879 22.8797C245.687 22.8797 245.303 22.8797 245.112 22.8797C244.92 22.8797 244.92 22.8797 244.728 22.8797L244.536 23.0662C244.536 23.2526 244.536 23.2526 244.728 23.2526C244.92 23.2526 244.92 23.2526 245.112 23.2526C246.071 23.2526 247.03 23.2526 247.989 23.2526C248.372 23.2526 248.756 23.2526 249.331 23.2526C250.482 23.2526 251.824 23.2526 252.975 23.2526C253.167 23.2526 253.167 23.2526 253.359 23.2526C253.55 23.2526 253.55 23.0662 253.55 23.0662C253.55 22.8797 253.55 22.8797 253.359 22.8797C253.167 22.8797 253.167 22.8797 252.975 22.8797C252.592 22.8797 252.016 22.8797 251.633 22.6933C251.057 22.5069 250.482 22.1341 250.482 21.5749C250.482 21.3885 250.29 21.0157 250.29 20.8293C250.29 19.7108 250.098 18.7788 250.098 17.6603C250.098 16.5419 250.098 15.4234 250.098 14.1186C250.098 13.9322 250.098 13.9322 250.098 13.7458C250.098 13.5594 250.29 13.5594 250.482 13.373C250.674 13.373 250.674 13.373 250.865 13.373C251.057 13.373 251.441 13.373 251.633 13.373C252.591 13.373 253.742 13.373 254.701 13.373C255.085 13.373 255.277 13.373 255.468 13.7458C255.66 13.9322 255.852 14.1186 255.852 14.305C257.194 15.7963 258.537 17.2875 259.688 18.7788C260.455 19.7108 261.414 20.6429 262.373 21.5749C263.524 22.5069 264.866 23.2526 266.4 23.2526C267.743 23.2526 269.085 23.2526 270.62 23.2526H270.812H271.003C271.003 23.439 271.003 23.2526 270.812 23.2526ZM255.852 12.6273C255.085 12.8137 254.318 12.8137 253.55 12.8137C252.783 12.8137 252.016 12.6273 251.249 12.6273C251.057 12.6273 250.674 12.6273 250.482 12.4409C250.098 12.2545 249.906 12.0681 249.906 11.6953C249.906 10.204 249.906 8.71276 249.906 7.03509C249.906 5.54382 249.906 4.05256 249.906 2.5613V2.37489C249.906 2.18848 250.098 2.00208 250.29 2.00208C250.29 2.00208 250.482 2.00208 250.674 2.00208C251.633 1.81567 252.783 1.81567 253.934 2.00208C255.085 2.18848 256.236 2.5613 257.194 3.30693C258.153 4.05256 258.921 5.17101 259.112 6.47586C259.304 7.4079 259.304 8.33994 259.112 9.27198C258.921 10.204 258.537 11.1361 257.962 11.8817C257.194 12.0681 256.619 12.4409 255.852 12.6273Z" fill="#1D3C86"/>
<path d="M88.61 23.068C88.4182 23.068 88.4182 23.068 88.2264 23.068C87.0757 23.068 86.1167 22.6952 85.3496 21.7631C85.1578 21.5767 84.966 21.3903 84.966 21.2039C84.5824 20.6447 84.1988 19.899 83.8152 19.3398C83.0481 17.6621 82.2809 16.1709 81.5137 14.4932C80.7466 12.6291 79.7876 10.7651 79.0205 8.90097C78.4451 7.59612 77.8697 6.47767 77.2944 5.17282C76.9108 4.42719 76.719 3.86796 76.3354 3.12233C75.9518 2.19029 75.3765 1.25825 74.9929 0.326214C74.9929 0.326214 74.9929 0.139806 74.8011 0.139806C74.6093 -0.046602 74.2257 -0.046602 74.2257 0.139806C74.2257 0.139806 74.2257 0.326214 74.0339 0.326214C73.6503 1.07184 73.2668 1.81748 73.075 2.56311C72.4996 3.49515 72.116 4.61359 71.5407 5.54563C70.9653 6.85049 70.3899 7.96893 70.0063 9.27379C69.431 10.7651 68.6638 12.2563 68.0884 13.7476C67.7048 14.4932 67.3213 15.4252 67.1295 16.1709C66.7459 17.1029 66.3623 18.035 65.7869 18.967C65.5952 19.5262 65.2116 20.2719 65.0198 20.8311C64.828 21.2039 64.6362 21.5767 64.2526 21.9495C63.869 22.5087 63.1019 22.8816 62.5265 22.8816C62.1429 22.8816 61.9511 22.8816 61.5676 22.8816C61.3758 22.8816 61.3758 22.8816 61.184 22.8816L60.9922 23.068C60.9922 23.068 60.9922 23.2544 61.184 23.2544C61.3758 23.2544 61.3758 23.4408 61.5676 23.4408C61.9511 23.4408 62.5265 23.4408 62.9101 23.4408C64.2526 23.4408 65.4034 23.2544 66.7459 23.4408C67.3213 23.4408 67.8966 23.4408 68.2802 23.4408C68.472 23.4408 68.472 23.4408 68.6638 23.4408C68.8556 23.4408 68.8556 23.2544 68.8556 23.2544C68.8556 23.068 68.8556 23.068 68.6638 23.068C68.472 23.068 68.472 23.068 68.2802 23.068C68.0884 23.068 67.8966 23.068 67.5131 22.8816C67.1295 22.6952 66.9377 22.5087 66.9377 22.1359C66.9377 21.9495 66.9377 21.7631 67.1295 21.5767C67.3213 20.8311 67.5131 20.2719 67.8966 19.5262C68.0884 18.967 68.472 18.2214 68.6638 17.6621C68.8556 17.1029 69.2392 16.3573 69.431 15.7981C69.6228 15.4252 69.6227 15.2388 70.1981 15.2388C70.1981 15.2388 77.2944 15.2388 77.8697 15.2388C78.4451 15.2388 78.4451 15.4252 78.6369 15.7981C78.6369 15.9845 80.7466 20.2719 81.7055 22.3223V22.5087C81.8973 22.8816 81.7055 22.8816 81.5137 23.068C81.5137 23.068 81.322 23.068 81.322 23.2544C81.1302 23.4408 81.1302 23.6272 81.322 23.6272H81.5137C82.0891 23.6272 82.6645 23.6272 83.4317 23.6272C84.966 23.6272 86.5003 23.6272 88.0346 23.6272C88.2264 23.6272 88.2264 23.6272 88.4182 23.6272H88.61C88.8018 23.4408 88.8018 23.2544 88.61 23.068C88.61 23.068 88.8018 23.068 88.61 23.068ZM77.2944 13.7476C76.1436 13.7476 71.7324 13.7476 70.7735 13.7476C70.1981 13.7476 70.1981 13.7476 70.3899 13.1884C70.7735 12.2563 71.3489 10.9515 71.7324 10.0194C72.116 8.90097 72.6914 7.78253 73.075 6.47767C73.2668 6.10486 73.2668 5.73204 73.4586 5.35922C73.4586 5.17282 73.6503 5.17282 73.6503 4.98641C73.8421 4.8 74.0339 4.8 74.2257 4.98641L74.4175 5.17282C75.3765 7.2233 76.1436 9.27379 77.1026 11.3243C77.2944 11.8835 77.6779 12.6291 77.8697 13.1884C77.8697 13.7476 77.8697 13.7476 77.2944 13.7476Z" fill="#1D3C86"/>
<path d="M237.056 19.7134V19.8999C237.056 20.0863 237.056 20.2727 237.056 20.2727C236.865 21.0183 236.481 21.3911 235.906 21.7639C235.522 21.9503 235.139 22.1368 234.563 22.1368C233.221 22.3232 231.686 22.3232 230.344 22.3232C229.96 22.3232 229.385 22.3232 229.001 22.1368C228.234 21.9503 227.659 21.3911 227.467 20.6455C227.467 20.2727 227.467 19.8999 227.467 19.527C227.467 17.1037 227.467 14.8668 227.467 12.4435V12.2571C227.467 12.0707 227.659 11.8843 227.851 11.8843C227.851 11.8843 230.152 11.8843 231.303 11.8843C231.686 11.8843 232.262 11.8843 232.645 11.8843C233.221 11.8843 233.604 12.0707 234.18 12.0707C234.563 12.2571 234.947 12.4435 234.947 13.0028C234.947 13.1892 234.947 13.3756 234.947 13.562V13.7484C234.947 13.9348 234.947 13.9348 235.139 13.9348C235.33 13.9348 235.33 13.9348 235.33 13.7484C235.33 13.562 235.33 13.562 235.33 13.3756C235.33 13.0028 235.33 12.63 235.33 12.2571C235.522 11.5115 235.522 10.7659 235.714 10.0202C235.714 9.83383 235.714 9.64743 235.522 9.46102C235.33 9.46102 235.139 9.46102 235.139 9.64743C234.755 10.0202 234.371 10.2066 233.988 10.2066C233.221 10.2066 232.262 10.2066 231.495 10.3931C230.727 10.3931 229.96 10.3931 229.193 10.3931C228.618 10.3931 228.042 10.3931 227.659 10.3931C227.275 10.3931 227.083 10.2066 227.083 9.83383C227.083 9.64743 227.083 9.46102 227.083 9.27461C227.083 7.22412 227.083 4.98723 227.083 2.93674C227.083 2.56393 227.083 2.37752 227.083 2.0047C227.083 1.63189 227.275 1.44548 227.659 1.44548H227.851C229.001 1.44548 230.536 1.44548 231.495 1.44548C232.453 1.44548 233.029 1.63189 233.988 1.8183C234.18 1.8183 234.371 1.8183 234.371 2.0047C234.755 2.19111 235.139 2.56393 235.139 2.93674C235.139 3.12315 235.139 3.30956 235.139 3.49597C235.139 3.68237 235.139 3.68237 235.139 3.86878L235.33 4.05519C235.522 4.05519 235.522 4.05519 235.522 3.86878C235.522 3.68237 235.522 3.68237 235.714 3.49597C235.714 3.30956 235.714 2.93674 235.714 2.75033C235.714 2.0047 235.906 1.44548 236.098 0.699849C236.098 0.699849 236.098 0.513441 236.098 0.327033C236.098 0.140625 235.906 0.140625 235.714 0.140625H235.522C235.33 0.140625 235.139 0.327033 234.947 0.327033C234.18 0.513441 233.412 0.513441 232.645 0.513441C230.152 0.513441 227.659 0.513441 224.974 0.513441C224.207 0.513441 223.439 0.513441 222.672 0.513441C222.097 0.513441 221.521 0.513441 220.946 0.513441C220.754 0.513441 220.562 0.699849 220.562 0.699849C220.562 0.886256 220.754 0.886256 220.946 0.886256C221.138 0.886256 221.33 0.886256 221.713 0.886256C221.905 0.886256 222.289 0.886256 222.48 1.07266C222.864 1.25907 223.248 1.44548 223.439 2.0047C223.439 2.19111 223.631 2.37752 223.631 2.56393C223.631 3.12315 223.823 3.68237 223.823 4.42801C223.823 8.15616 223.823 11.6979 223.823 15.4261C223.823 16.7309 223.823 18.0358 223.823 19.3406C223.823 20.2727 223.631 21.2047 223.439 21.9503C223.439 22.1368 223.439 22.3232 223.248 22.5096C223.056 22.8824 222.864 23.0688 222.48 23.0688C222.289 23.0688 222.097 23.0688 221.713 23.0688C221.521 23.0688 221.521 23.0688 221.33 23.0688C221.138 23.0688 221.138 23.2552 221.138 23.2552C221.138 23.4416 221.33 23.4416 221.521 23.4416C221.713 23.4416 221.713 23.4416 221.905 23.4416C222.864 23.4416 223.823 23.4416 224.974 23.4416C226.124 23.4416 227.467 23.4416 228.618 23.4416C230.344 23.4416 231.878 23.4416 233.604 23.4416H233.796C234.371 23.4416 234.947 23.4416 235.522 23.4416C236.289 23.4416 236.481 23.2552 236.673 22.5096C236.865 21.5775 236.865 20.8319 237.056 19.8999C237.056 19.7134 237.056 19.7134 237.056 19.527C237.248 19.527 237.056 19.527 237.056 19.7134Z" fill="#1D3C86"/>
<path d="M12.2746 13.003C11.1238 12.071 10.1649 11.3254 8.82236 10.5797C7.8634 10.0205 6.90445 9.46129 5.9455 8.90207C5.37013 8.34284 4.60297 7.97003 4.0276 7.2244C3.64402 6.85158 3.26044 6.29236 3.06864 5.73313C2.49327 4.24187 3.26044 2.75061 4.41118 2.00498C5.17834 1.63216 5.9455 1.44575 6.71266 1.25935C7.67161 1.07294 8.43877 1.25935 9.39773 1.25935C10.1649 1.63216 10.932 1.81857 11.6992 2.19138C12.2746 2.37779 12.4664 2.75061 12.6582 3.30983C12.6582 3.68265 12.85 4.05546 12.85 4.24187C12.85 4.42828 12.85 4.42828 13.0417 4.61469C13.0417 4.80109 13.2335 4.80109 13.2335 4.80109L13.4253 4.61469C13.4253 4.42828 13.4253 4.42828 13.4253 4.24187C13.4253 3.86905 13.4253 3.49624 13.4253 3.12342C13.4253 2.5642 13.4253 2.00498 13.6171 1.44575C13.6171 1.07294 13.6171 0.886529 13.0417 0.886529C12.85 0.886529 12.6582 0.886529 12.2746 0.886529C11.6992 0.513714 10.932 0.327306 10.1649 0.327306C9.20594 0.140898 8.24698 0.140898 7.09624 0.327306C5.9455 0.513714 4.79476 0.700122 3.64402 1.07294C2.68506 1.44575 1.9179 2.00498 1.34253 2.75061C0.575371 3.86905 0.383581 4.9875 0.383581 6.10595C0.383581 7.2244 0.767161 8.15644 1.53432 9.08847C1.72611 9.27488 1.9179 9.46129 2.10969 9.6477C2.87685 10.5797 3.83581 11.139 4.79476 11.8846C5.75371 12.4438 6.71266 13.1894 7.67161 13.7487C8.24698 14.1215 9.01414 14.6807 9.58952 15.0535C10.1649 15.6127 10.7403 15.9856 11.1238 16.5448C12.4664 18.4089 11.6992 20.6458 10.1649 21.7642C9.39773 22.3234 8.43877 22.5098 7.47982 22.6962C6.71266 22.6962 6.13729 22.6962 5.37013 22.6962C4.41118 22.6962 3.64402 22.5098 2.87685 22.137C2.10969 21.7642 1.53432 21.3914 1.15074 20.6458C0.767161 20.0865 0.767161 19.5273 0.767161 18.9681C0.767161 18.7817 0.767161 18.7817 0.767161 18.5953C0.767161 18.4089 0.575371 18.4089 0.575371 18.4089C0.383581 18.4089 0.383581 18.4089 0.383581 18.5953V18.7817C0.383581 19.1545 0.19179 19.7137 0.19179 20.0865C0.19179 20.8322 0.19179 21.5778 0 22.3234C0 22.5098 0.19179 22.6962 0.383581 22.8827C0.575371 23.0691 0.767161 23.0691 0.767161 23.0691C1.15074 23.2555 1.34253 23.2555 1.72611 23.4419C3.06865 23.8147 4.41118 23.8147 6.32908 24.0011C6.90445 24.0011 8.24698 24.0011 9.01415 23.8147C10.3567 23.6283 11.6992 23.0691 12.6582 22.137C13.8089 21.205 14.5761 20.0865 14.7679 18.7817C14.9596 17.6632 14.7679 16.5448 14.3843 15.4263C13.6171 14.4943 13.0417 13.7487 12.2746 13.003Z" fill="#1D3C86"/>
<path d="M165.133 0.511719C164.749 0.698127 164.366 0.698127 164.174 0.698127C163.791 0.698127 163.215 0.698127 162.832 0.698127C160.914 0.698127 158.996 0.698127 157.078 0.698127C155.927 0.698127 154.968 0.698127 153.817 0.698127C153.05 0.698127 152.475 0.698127 151.708 0.698127C151.132 0.698127 150.365 0.698127 149.79 0.698127H149.598L149.406 0.884534C149.406 0.884534 149.406 1.07094 149.598 1.07094H149.79C149.982 1.07094 150.173 1.07094 150.173 1.07094C150.557 1.07094 150.749 1.07094 151.132 1.07094C151.708 1.25735 152.091 1.63017 152.283 2.18939C152.283 2.3758 152.283 2.5622 152.283 2.5622C152.283 3.30784 152.283 3.86706 152.283 4.61269C152.283 8.15444 152.283 11.6962 152.283 15.2379C152.283 16.9156 152.283 18.5933 152.091 20.2709C152.091 20.8302 151.9 21.203 151.9 21.7622C151.9 21.9486 151.708 22.135 151.708 22.3214C151.516 22.6943 151.324 22.8807 150.941 22.8807C150.749 22.8807 150.365 22.8807 150.173 22.8807H149.982C149.79 22.8807 149.79 23.0671 149.79 23.0671C149.79 23.2535 149.79 23.2535 149.982 23.2535C150.173 23.2535 150.173 23.2535 150.365 23.2535C151.324 23.2535 152.283 23.2535 153.242 23.2535C153.626 23.2535 154.009 23.2535 154.585 23.2535C155.927 23.2535 157.078 23.2535 158.42 23.2535C158.612 23.2535 158.612 23.2535 158.804 23.2535C158.996 23.2535 158.996 23.0671 158.996 23.0671C158.996 22.8807 158.996 22.8807 158.804 22.8807C158.612 22.8807 158.612 22.8807 158.42 22.8807C158.037 22.8807 157.653 22.8807 157.078 22.8807C156.311 22.8807 155.927 22.5078 155.735 21.7622C155.735 21.5758 155.735 21.3894 155.544 21.203C155.544 20.0845 155.352 18.9661 155.352 17.8476C155.352 16.17 155.352 14.3059 155.352 12.6282C155.352 12.4418 155.352 12.4418 155.352 12.2554C155.352 12.069 155.544 12.069 155.735 11.8826H155.927C157.27 11.8826 158.42 11.8826 159.763 11.8826C160.147 11.8826 160.722 11.8826 161.105 11.8826C161.489 11.8826 161.873 12.069 162.256 12.069C163.023 12.2554 163.599 12.8146 163.599 13.7467C163.599 13.9331 163.599 13.9331 163.599 14.1195L163.791 14.3059C163.982 14.3059 163.982 14.3059 163.982 14.1195C163.982 13.9331 163.982 13.9331 163.982 13.7467C163.982 12.8146 164.174 12.069 164.174 11.137C164.558 10.9506 164.558 10.7641 164.558 10.5777C164.558 10.3913 164.558 10.3913 164.558 10.2049C164.558 10.0185 164.366 9.83211 164.174 10.0185C163.982 10.0185 163.982 10.2049 163.982 10.2049C163.791 10.3913 163.407 10.5777 163.215 10.5777C163.023 10.5777 162.832 10.5777 162.832 10.5777C162.256 10.5777 161.489 10.5777 160.914 10.7641C159.571 10.7641 158.229 10.7641 156.886 10.7641C156.694 10.7641 156.502 10.7641 156.119 10.7641C155.735 10.7641 155.544 10.5777 155.544 10.2049C155.544 10.0185 155.544 9.83211 155.544 9.6457C155.544 7.2224 155.544 4.98551 155.544 2.5622C155.544 2.3758 155.544 2.3758 155.544 2.18939C155.544 1.81657 155.735 1.81657 156.119 1.81657H156.311C156.694 1.81657 156.886 1.81657 157.27 1.81657C158.612 1.81657 159.955 1.81657 161.297 1.81657C161.489 1.81657 161.873 1.81657 162.064 1.81657C162.448 1.81657 162.832 2.00298 163.407 2.00298C163.982 2.56221 164.366 2.93502 164.558 3.68065C164.558 3.86706 164.558 3.86706 164.558 4.05347V4.23988C164.749 4.42628 164.941 4.42628 164.941 4.23988L165.133 4.05347C165.133 3.86706 165.133 3.68065 165.133 3.68065C165.133 2.74861 165.133 2.00298 165.517 1.07094V0.884534C165.517 0.511719 165.517 0.511719 165.133 0.511719Z" fill="#1D3C86"/>
<path d="M216.528 0.699219C216.528 0.699219 216.336 0.699219 216.144 0.699219C215.761 0.699219 215.377 0.699219 214.994 0.699219C214.035 0.699219 213.076 0.699219 212.117 0.699219C211.541 0.699219 210.774 0.699219 210.199 0.699219C210.007 0.699219 210.007 0.699219 209.815 0.699219C209.815 0.699219 209.624 0.699219 209.624 0.885627C209.624 0.885627 209.624 1.07203 209.815 1.07203C210.007 1.07203 210.007 1.07203 210.199 1.25844C210.583 1.44485 210.774 1.63126 210.774 2.00407C210.774 2.19048 210.774 2.37689 210.774 2.37689C210.583 2.7497 210.583 3.12252 210.391 3.30893C209.815 4.24097 206.747 8.71475 205.788 10.206C205.404 10.7652 205.021 11.3245 204.829 11.6973C204.637 12.0701 204.445 12.0701 204.253 11.6973C204.062 11.5109 204.062 11.3245 203.87 11.1381C203.103 10.206 202.527 9.08757 201.76 8.15553C201.185 7.22349 198.692 3.68174 197.924 2.7497C197.733 2.5633 197.541 2.19048 197.541 2.00407C197.349 1.63126 197.541 1.25844 197.924 1.25844C197.924 1.25844 197.924 1.25844 198.116 1.25844C198.308 1.25844 198.5 1.07203 198.308 0.885627C198.308 0.699219 198.116 0.699219 197.924 0.699219C197.349 0.699219 196.965 0.699219 196.39 0.699219C195.431 0.699219 194.472 0.699219 193.513 0.699219C192.746 0.699219 191.979 0.699219 191.404 0.699219C191.212 0.699219 191.212 0.699219 191.02 0.699219C190.828 0.699219 190.828 0.699219 190.828 0.885627C190.828 1.07203 190.828 1.07203 191.02 1.07203C191.212 1.07203 191.212 1.07203 191.404 1.07203C191.979 1.07203 192.554 1.25844 192.938 1.63126C193.513 2.00407 194.089 2.37689 194.472 2.93611C195.048 3.68174 195.815 4.61378 196.39 5.35941C197.541 6.85068 198.5 8.34194 199.65 9.8332C200.226 10.7652 200.801 11.5109 201.377 12.4429C201.952 13.1885 202.144 13.9342 202.336 14.8662C202.336 15.0526 202.336 18.0351 202.336 19.34C202.336 20.0856 202.336 20.6449 202.336 21.3905C202.336 21.7633 202.336 21.9497 202.144 22.3225C201.952 22.6953 201.568 23.0682 200.993 23.0682C200.801 23.0682 200.609 23.0682 200.418 23.0682H200.226C200.034 23.0682 200.034 23.0682 200.034 23.2546C200.034 23.441 200.034 23.441 200.226 23.441C200.418 23.441 200.418 23.441 200.609 23.441C201.568 23.441 202.527 23.441 203.678 23.441C204.062 23.441 204.445 23.441 204.637 23.441C205.212 23.441 205.98 23.441 206.555 23.441C207.13 23.441 207.897 23.441 208.473 23.441C208.665 23.441 208.665 23.441 208.856 23.441C209.048 23.441 209.048 23.2546 209.048 23.2546C209.048 23.0682 209.048 23.0682 208.856 23.0682H208.665H208.473C208.089 23.0682 207.706 23.0682 207.322 22.8817C206.555 22.6953 206.171 22.3225 205.98 21.7633C205.98 21.5769 205.98 21.3905 205.98 21.3905C205.98 20.4584 205.788 19.5264 205.788 18.408C205.788 17.1031 205.788 15.9847 205.788 14.6798C205.788 13.9342 205.98 13.1885 206.363 12.4429C206.939 11.6973 207.322 10.9516 207.897 10.206C208.856 8.71475 210.007 7.22349 211.158 5.73223C211.925 4.80019 212.5 3.86815 213.268 2.93611C213.651 2.5633 214.035 2.00407 214.61 1.81767C215.185 1.44485 215.953 1.07203 216.72 1.07203H216.912H217.103C216.72 0.885627 216.72 0.885627 216.528 0.699219Z" fill="#1D3C86"/>
<path d="M142.311 0.514533H142.119C141.16 0.700941 140.201 0.700941 139.242 0.700941C134.639 0.700941 130.228 0.700941 125.625 0.700941C124.858 0.700941 124.091 0.700941 123.132 0.700941C122.748 0.700941 122.365 0.700941 122.173 0.514533C121.789 0.514533 121.598 0.328125 121.214 0.328125C120.83 0.328125 120.83 0.328125 120.639 0.514533C120.639 0.700941 120.639 0.700941 120.447 0.887349C120.255 1.81939 120.063 2.75143 119.68 3.68347C119.68 3.86987 119.68 3.86987 119.68 4.05628C119.68 4.05628 119.68 4.24269 119.871 4.24269H120.063C120.063 4.24269 120.255 4.05628 120.255 3.86987C120.447 3.68347 120.447 3.31065 120.639 3.12424C120.83 2.75143 121.214 2.37861 121.598 2.37861C121.981 2.1922 122.173 2.1922 122.557 2.1922C123.899 2.0058 125.242 2.0058 126.584 2.0058C127.351 2.0058 128.118 2.0058 128.694 2.0058C129.269 2.0058 129.461 2.1922 129.461 2.75143C129.461 8.15725 129.461 13.5631 129.461 18.9689C129.461 19.9009 129.461 20.6466 129.269 21.5786C129.269 21.9514 129.077 22.1378 129.077 22.5107C128.886 22.8835 128.694 23.0699 128.118 23.2563C127.927 23.2563 127.543 23.2563 127.351 23.2563H127.16C126.968 23.2563 126.968 23.2563 126.968 23.4427C126.968 23.6291 126.968 23.6291 127.16 23.6291C127.351 23.6291 127.351 23.6291 127.543 23.6291C128.502 23.6291 129.653 23.6291 130.612 23.6291C130.995 23.6291 131.379 23.6291 131.762 23.6291C133.105 23.6291 134.256 23.6291 135.598 23.6291C135.79 23.6291 135.79 23.6291 135.982 23.6291C136.174 23.6291 136.174 23.4427 136.174 23.4427C136.174 23.2563 136.174 23.2563 135.982 23.2563C135.79 23.2563 135.79 23.2563 135.598 23.2563C135.215 23.2563 134.639 23.2563 134.256 23.0699C133.68 23.0699 133.297 22.6971 133.105 22.1378C133.105 21.9514 132.913 21.5786 132.913 21.3922C132.913 20.4602 132.721 19.5281 132.721 18.5961C132.721 16.3592 132.721 5.92036 132.721 2.75143V2.56502C132.721 2.37861 132.913 2.1922 133.105 2.1922C133.105 2.1922 133.105 2.1922 133.297 2.1922C134.256 2.1922 135.215 2.1922 136.174 2.1922C136.557 2.1922 138.667 2.37861 139.434 2.37861C139.818 2.37861 140.201 2.56502 140.585 2.75143C141.16 2.93783 141.544 3.49706 141.544 4.05628V4.24269V4.4291C141.736 4.61551 141.927 4.61551 141.927 4.4291C141.927 4.24269 141.927 4.24269 141.927 4.05628C141.927 3.68347 141.927 3.49706 141.927 3.12424C141.927 2.37861 141.927 1.63298 141.927 1.07376C141.927 0.887349 141.927 0.887349 141.927 0.700941C142.695 0.514533 142.503 0.514533 142.311 0.514533Z" fill="#1D3C86"/>
<path d="M189.678 19.5264C189.487 19.5264 189.487 19.5264 189.295 19.7128C189.295 19.8992 189.295 19.8992 189.103 20.0856C188.719 21.2041 188.144 21.9497 186.802 22.3225C186.61 22.3225 186.034 22.3225 185.651 22.3225C184.692 22.3225 183.733 22.3225 182.774 22.3225C182.199 22.3225 181.431 22.1361 180.856 22.1361C180.472 22.1361 180.089 21.9497 179.705 21.7633C179.322 21.5769 179.13 21.2041 178.938 20.8313C178.938 20.6449 178.746 20.4584 178.746 20.0856C178.555 18.5944 178.555 17.1031 178.555 15.6118C178.555 11.5109 178.555 7.22349 178.555 3.12252C178.555 2.7497 178.555 2.37689 178.746 2.00407C178.938 1.44485 179.13 1.25844 179.705 1.07203C179.897 1.07203 179.897 1.07203 180.089 1.07203C180.281 1.07203 180.472 1.07203 180.856 1.07203H181.048C181.24 1.07203 181.24 0.885627 181.24 0.885627C181.24 0.699219 181.24 0.699219 181.048 0.699219H180.856C179.897 0.699219 178.746 0.699219 177.787 0.699219C176.828 0.699219 175.678 0.699219 174.719 0.699219C174.143 0.699219 173.376 0.699219 172.801 0.699219C172.609 0.699219 172.609 0.699219 172.417 0.699219C172.225 0.699219 172.225 0.885627 172.417 1.07203C172.417 1.07203 172.609 1.07203 172.801 1.07203C172.993 1.07203 173.184 1.07203 173.376 1.07203C173.568 1.07203 173.952 1.07203 174.143 1.07203C174.719 1.07203 174.911 1.44485 175.102 1.81767C175.102 2.19048 175.294 2.37689 175.294 2.7497C175.294 3.30893 175.294 3.68174 175.294 4.24097C175.294 8.90116 175.294 13.5614 175.294 18.0351C175.294 18.7808 175.294 19.5264 175.102 20.4584C175.102 21.0177 174.911 21.5769 174.719 21.9497C174.527 22.5089 174.335 22.6953 173.76 22.6953C173.568 22.6953 173.376 22.6953 173.184 22.6953H172.993C172.801 22.6953 172.801 22.8818 172.801 22.8818C172.801 23.0682 172.993 23.0682 172.993 23.0682C173.184 23.0682 173.184 23.0682 173.376 23.0682C174.911 23.0682 176.253 23.0682 177.787 23.0682C178.746 23.0682 184.5 23.2546 186.034 23.2546C187.569 23.2546 187.569 23.2546 188.144 23.2546C188.336 23.2546 188.528 23.2546 188.528 23.2546C188.911 23.2546 188.911 23.0682 189.103 22.8818C189.295 22.6953 189.295 22.3225 189.295 22.1361C189.487 21.3905 189.487 20.4584 189.678 19.7128C189.678 19.5264 189.678 19.5264 189.678 19.34C189.87 19.5264 189.87 19.5264 189.678 19.5264Z" fill="#1D3C86"/>
<path d="M120.249 23.069C120.057 23.069 120.057 23.069 119.865 23.069C118.715 23.069 117.756 22.8826 116.797 22.1369C116.03 21.7641 115.454 21.2049 114.879 20.6457C113.536 19.3408 112.194 17.8496 110.851 16.5447C109.892 15.4263 108.933 14.4942 107.974 13.3758C107.591 13.003 107.591 13.003 107.974 12.6301C109.125 11.6981 110.084 10.7661 110.851 9.27479C111.619 8.15635 111.81 6.85149 111.619 5.54664C111.619 5.36023 111.619 5.17382 111.427 4.98742C110.851 3.12334 109.509 1.81848 107.399 1.25926C106.44 0.886443 105.289 0.886443 104.33 0.700035C102.604 0.513628 100.878 0.700035 99.1521 0.700035C98.0014 0.700035 96.8507 0.700035 95.6999 0.700035C95.1245 0.700035 94.3574 0.700035 93.782 0.700035H93.5902C93.3984 0.700035 93.3984 0.886443 93.3984 0.886443C93.3984 1.07285 93.3984 1.07285 93.5902 1.07285C93.782 1.07285 93.782 1.07285 93.9738 1.07285C94.3574 1.07285 94.5492 1.07285 94.9328 1.07285C95.1245 1.07285 95.3163 1.07285 95.5081 1.25926C95.8917 1.44567 96.2753 1.63207 96.2753 2.00489C96.2753 2.1913 96.4671 2.37771 96.4671 2.56411C96.4671 3.30974 96.4671 3.86897 96.4671 4.6146C96.4671 6.85149 96.4671 9.27479 96.4671 11.5117C96.4671 13.935 96.4671 16.3583 96.4671 18.7816C96.4671 19.7136 96.4671 20.6457 96.2753 21.3913C96.2753 21.5777 96.0835 21.7641 96.0835 21.9505C95.8917 22.3233 95.6999 22.5097 95.3163 22.6962C95.1246 22.6962 94.741 22.6962 94.5492 22.6962C94.3574 22.6962 94.3574 22.6962 94.1656 22.6962L93.9738 22.8826C93.9738 23.069 93.9738 23.069 94.1656 23.069C94.3574 23.069 94.3574 23.069 94.5492 23.069C95.5081 23.069 96.4671 23.069 97.426 23.069C97.8096 23.069 98.1932 23.069 98.7686 23.069C99.9193 23.069 101.262 23.069 102.413 23.069C102.604 23.069 102.604 23.069 102.796 23.069C102.988 23.069 102.988 22.8826 102.988 22.8826C102.988 22.6962 102.988 22.6962 102.796 22.6962C102.604 22.6962 102.604 22.6962 102.413 22.6962C102.029 22.6962 101.454 22.6962 101.07 22.5097C100.495 22.3233 99.9193 21.9505 99.9193 21.3913C99.9193 21.2049 99.7275 20.8321 99.7275 20.6457C99.7275 19.5272 99.5357 18.5952 99.5357 17.4767C99.5357 16.3583 99.5357 15.2398 99.5357 13.935C99.5357 13.7486 99.5357 13.7486 99.5357 13.5622C99.5357 13.3758 99.7275 13.3758 99.9193 13.1894C100.111 13.1894 100.111 13.1894 100.303 13.1894C100.495 13.1894 100.878 13.1894 101.07 13.1894C102.029 13.1894 103.18 13.1894 104.139 13.1894C104.522 13.1894 104.714 13.1894 104.906 13.5622C105.098 13.7486 105.289 13.935 105.289 14.1214C106.632 15.6127 107.974 17.1039 109.125 18.5952C109.892 19.5272 110.851 20.4593 111.81 21.3913C112.961 22.3233 114.304 23.069 115.838 23.069C117.18 23.069 118.523 23.069 120.057 23.069H120.249H120.441C120.633 23.069 120.633 22.8826 120.441 22.6962C120.441 23.2554 120.249 23.069 120.249 23.069ZM105.481 12.6301C104.714 12.8165 103.947 13.003 103.18 12.8165C102.413 12.8165 101.645 12.6301 100.878 12.6301C100.686 12.6301 100.303 12.6301 100.111 12.4437C99.7275 12.2573 99.5357 12.0709 99.5357 11.6981C99.5357 10.2068 99.5357 8.71557 99.5357 7.0379C99.5357 5.54664 99.5357 4.05538 99.5357 2.56411V2.37771C99.5357 2.1913 99.7275 2.00489 99.9193 2.00489C99.9193 2.00489 100.111 2.00489 100.303 2.00489C101.262 1.81848 102.413 1.81848 103.563 2.00489C104.714 2.1913 105.865 2.56411 106.824 3.30974C107.783 4.05538 108.55 5.17382 108.742 6.47868C108.933 7.41072 108.933 8.34276 108.742 9.27479C108.55 10.2068 108.166 11.1389 107.591 11.8845C106.824 12.0709 106.248 12.4437 105.481 12.6301Z" fill="#1D3C86"/>
</svg>
