<svg width="197" height="44" viewBox="0 0 197 44" fill="none" xmlns="http://www.w3.org/2000/svg">
<path fill-rule="evenodd" clip-rule="evenodd" d="M5.95799 11.1894C5.95799 13.1081 5.95813 14.7643 5.84705 15.6428C5.78646 16.2487 5.66518 16.6527 5.24104 16.784C4.99711 16.8474 4.7458 16.878 4.49377 16.8748C4.2413 16.8748 4.16068 16.9354 4.16068 17.0364C4.16068 17.1374 4.30197 17.2485 4.57463 17.2485C5.4128 17.2485 6.72547 17.1879 7.21019 17.1879C7.69492 17.1879 9.1087 17.2485 10.4922 17.2485C10.7144 17.2485 10.8862 17.1879 10.8862 17.0364C10.8862 16.885 10.7851 16.8748 10.5528 16.8748C10.1943 16.8705 9.83648 16.8402 9.48235 16.784C8.85624 16.7032 8.73526 16.2487 8.67467 15.663C8.56358 14.7642 8.56347 13.1081 8.56347 11.1894V2.62591L11.1993 2.6865C13.0574 2.6865 13.6229 3.31264 13.6632 3.85795V4.0902C13.6632 4.40325 13.7238 4.50421 13.8955 4.50421C14.0672 4.50421 14.057 4.38307 14.0873 4.171C14.0873 3.62569 14.148 2.15129 14.148 1.74735C14.148 1.34341 14.148 1.31312 13.9764 1.31312C13.3125 1.45393 12.6352 1.52167 11.9567 1.5151H3.67573C2.98904 1.5151 2.20154 1.51507 1.59564 1.41408C1.2881 1.36136 0.986745 1.27675 0.696735 1.16162C0.565455 1.16162 0.504864 1.29292 0.444273 1.55548C0.383682 1.81804 0 3.57517 0 3.95891C0 4.34266 -5.91683e-05 4.29218 0.191812 4.29218C0.383682 4.29218 0.383663 4.21134 0.424056 4.04977C0.497157 3.785 0.616941 3.53539 0.777601 3.3126C1.09065 2.85817 1.59558 2.74711 2.79729 2.70671L5.9077 2.62591L5.95799 11.1894Z" fill="black"/>
<path fill-rule="evenodd" clip-rule="evenodd" d="M20.7019 8.09933C20.6828 8.09956 20.6638 8.09563 20.6464 8.08781C20.629 8.07998 20.6135 8.06851 20.601 8.05409C20.5885 8.03967 20.5794 8.02269 20.5742 8.00435C20.5689 7.98601 20.5678 7.96675 20.5707 7.94789V7.51367C20.5707 4.34275 20.5705 3.75702 20.621 3.08043C20.6715 2.40383 20.823 1.99991 21.3885 1.89892C21.5876 1.85504 21.7907 1.83135 21.9945 1.82823C22.247 1.82823 22.368 1.82824 22.368 1.64646C22.368 1.46469 22.2267 1.45459 21.9339 1.45459C21.1159 1.45459 19.8032 1.51518 19.2983 1.51518C18.7934 1.51518 17.42 1.45459 16.2688 1.45459C15.9759 1.45459 15.8344 1.45459 15.8344 1.64646C15.8344 1.83833 15.9556 1.82823 16.1879 1.82823C16.4623 1.82109 16.7368 1.84481 17.0059 1.89892C17.6926 2.0403 17.8642 2.37353 17.9046 3.08043C17.945 3.78732 17.9046 4.34275 17.9046 7.51367V11.1895C17.9046 13.1082 17.9047 14.7643 17.7936 15.6429C17.7129 16.2488 17.6118 16.6528 17.1876 16.784C16.9437 16.8475 16.6924 16.878 16.4404 16.8749C16.1879 16.8749 16.107 16.9355 16.107 17.0365C16.107 17.1375 16.2486 17.2485 16.5212 17.2485C17.3594 17.2485 18.6721 17.1879 19.1568 17.1879C19.6415 17.1879 21.0553 17.2485 22.4186 17.2485C22.6609 17.2485 22.8328 17.188 22.8328 17.0365C22.8328 16.885 22.7317 16.8749 22.4994 16.8749C22.1409 16.8706 21.7831 16.8402 21.4289 16.784C20.8028 16.7033 20.6816 16.2488 20.621 15.6631C20.5099 14.7643 20.5101 13.1082 20.5101 11.1895V9.35153C20.5101 9.25055 20.5806 9.23035 20.6412 9.23035H28.6192C28.6513 9.23035 28.682 9.24313 28.7047 9.26586C28.7274 9.28858 28.7402 9.31939 28.7402 9.35153V11.1895C28.7402 13.1082 28.7404 14.7643 28.6394 15.6429C28.5586 16.2488 28.4474 16.6528 28.0334 16.784C27.7893 16.8468 27.5381 16.8773 27.2861 16.8749C27.0336 16.8749 26.9528 16.9355 26.9528 17.0365C26.9528 17.1375 27.0943 17.2485 27.3872 17.2485C28.2052 17.2485 29.5178 17.1879 30.0025 17.1879C30.4872 17.1879 31.901 17.2485 33.2542 17.2485C33.5067 17.2485 33.6785 17.188 33.6785 17.0365C33.6785 16.885 33.5673 16.8749 33.3452 16.8749C32.9866 16.8706 32.6288 16.8402 32.2747 16.784C31.6486 16.7033 31.5273 16.2488 31.4566 15.6631C31.3557 14.7643 31.3558 13.1082 31.3558 11.1895V7.51367C31.3558 4.34275 31.3558 3.75702 31.3558 3.08043C31.3558 2.40383 31.5679 1.99991 32.1334 1.89892C32.3325 1.85504 32.5353 1.83135 32.7392 1.82823C32.9916 1.82823 33.1129 1.82824 33.1129 1.64646C33.1129 1.46469 32.9615 1.45459 32.6686 1.45459C31.8608 1.45459 30.5378 1.51518 30.043 1.51518C29.5481 1.51518 28.1646 1.45459 27.0134 1.45459C26.7206 1.45459 26.5691 1.45459 26.5691 1.64646C26.5691 1.83833 26.7003 1.82823 26.9325 1.82823C27.2037 1.82054 27.4748 1.84426 27.7405 1.89892C28.4373 2.0403 28.599 2.37353 28.6394 3.08043C28.6798 3.78732 28.6394 4.34275 28.6394 7.51367V7.94789C28.6394 8.05898 28.5787 8.09933 28.5181 8.09933H20.7019Z" fill="black"/>
<path fill-rule="evenodd" clip-rule="evenodd" d="M38.7175 11.1893C38.7175 13.108 38.7174 14.7641 38.6164 15.6427C38.5256 16.2486 38.4245 16.6526 38.0104 16.7838C37.7628 16.8459 37.5083 16.8764 37.2531 16.8747C37.0006 16.8747 36.92 16.9353 36.92 17.0363C36.92 17.1373 37.0714 17.2483 37.344 17.2483C38.1721 17.2483 39.4951 17.1877 39.9697 17.1877C41.2017 17.1877 42.6054 17.3089 45.7561 17.3089C46.5539 17.3089 46.7658 17.3089 46.887 16.7636C47.0311 16 47.1223 15.2273 47.1597 14.4511C47.1597 14.239 47.1598 14.0674 46.9881 14.0674C46.8164 14.0674 46.8064 14.1583 46.7559 14.3905C46.6145 15.2388 46.3621 15.6831 45.8168 15.9355C45.1841 16.1357 44.5199 16.2179 43.8575 16.1779C41.7267 16.1779 41.3935 15.8649 41.3531 14.4309C41.3531 13.825 41.3531 11.8962 41.3531 11.1893V9.54321C41.3531 9.41193 41.3532 9.33118 41.4744 9.33118C41.9793 9.33118 44.0494 9.33118 44.4433 9.39177C45.2108 9.47255 45.453 9.7856 45.6146 10.2097C45.6578 10.4568 45.6849 10.7064 45.6955 10.957C45.6955 11.0681 45.6954 11.1489 45.8873 11.1489C46.0792 11.1489 46.0692 10.9166 46.0692 10.755C46.0692 10.5935 46.0691 9.74517 46.16 9.35133C46.2206 8.29099 46.3217 7.9477 46.3217 7.82652C46.3217 7.70534 46.261 7.6548 46.1802 7.6548C46.0994 7.6548 45.9882 7.7659 45.8367 7.92748C45.6853 8.08905 45.3419 8.20013 44.8269 8.24053C44.3119 8.28092 41.949 8.24053 41.4845 8.24053C41.3633 8.24053 41.343 8.14966 41.343 8.00828V2.81766C41.343 2.67628 41.3431 2.61568 41.4845 2.61568C41.9086 2.61568 44.0999 2.61569 44.4534 2.69648C45.4632 2.81766 45.7055 3.07012 45.857 3.44376C45.9391 3.68776 45.9801 3.94371 45.9783 4.20114C45.9783 4.39301 45.9782 4.49398 46.1701 4.49398C46.3619 4.49398 46.3518 4.37281 46.372 4.26173C46.3922 4.15065 46.463 3.09032 46.4832 2.88836C46.5438 1.87851 46.6447 1.6765 46.6447 1.52503C46.6447 1.37355 46.6448 1.34326 46.5236 1.34326C46.4102 1.35945 46.2985 1.38652 46.1903 1.42407C45.8929 1.47964 45.5931 1.52009 45.2916 1.54524C44.8877 1.54524 40.7371 1.54524 40.0706 1.54524C39.4041 1.54524 38.162 1.48465 37.041 1.48465C36.728 1.48465 36.5765 1.48466 36.5765 1.67653C36.5765 1.8684 36.7079 1.85829 36.9301 1.85829C37.2045 1.85115 37.4787 1.87487 37.7479 1.92899C38.4346 2.07037 38.6064 2.4036 38.6468 3.11049C38.6872 3.81738 38.6468 4.37281 38.6468 7.54373L38.7175 11.1893Z" fill="black"/>
<path fill-rule="evenodd" clip-rule="evenodd" d="M61.2673 11.1895C61.2673 13.1082 61.2674 14.7644 61.1564 15.643C61.0756 16.2489 60.9745 16.6528 60.5504 16.7841C60.3064 16.8476 60.0551 16.8781 59.8031 16.8749C59.5506 16.8749 59.4697 16.9356 59.4697 17.0366C59.4697 17.1375 59.6113 17.2486 59.8839 17.2486C60.7221 17.2486 62.0348 17.188 62.5195 17.188C63.0042 17.188 64.3778 17.2486 65.7613 17.2486C65.9835 17.2486 66.155 17.188 66.155 17.0366C66.155 16.8851 66.054 16.8749 65.8217 16.8749C65.4632 16.8706 65.1056 16.8403 64.7515 16.7841C64.1254 16.7033 64.0041 16.2488 63.9435 15.6631C63.8325 14.7644 63.8324 13.1082 63.8324 11.1895V2.81791C63.8324 2.58564 63.8929 2.45434 64.0039 2.41395C64.2683 2.35015 64.5402 2.32301 64.8119 2.3332C65.5877 2.32814 66.336 2.62091 66.9023 3.15118C67.3206 3.5538 67.6471 4.04183 67.8597 4.58206C68.0723 5.12228 68.166 5.70198 68.1343 6.28167C68.1835 7.10158 67.9237 7.91018 67.4058 8.54772C66.8879 9.18527 66.1496 9.60545 65.337 9.72528C64.9028 9.72528 64.7515 9.79595 64.7515 9.95753C64.7515 10.1191 64.9029 10.1292 65.0039 10.1494C65.1519 10.1597 65.3003 10.1597 65.4482 10.1494C66.1229 10.1788 66.7964 10.0689 67.4267 9.82661C68.0571 9.58432 68.6306 9.21478 69.1119 8.74108C69.5931 8.26738 69.9718 7.69967 70.224 7.07327C70.4763 6.44686 70.5967 5.77521 70.5781 5.10017C70.5693 4.17387 70.2082 3.28562 69.5682 2.61593C69.235 2.30287 68.296 1.42432 65.6804 1.42432C64.6706 1.42432 63.5093 1.4849 62.6509 1.4849C62.0652 1.4849 60.7524 1.42432 59.6214 1.42432C59.3083 1.42432 59.167 1.42432 59.167 1.61619C59.167 1.80806 59.288 1.79795 59.5203 1.79795C59.7947 1.79081 60.0692 1.81453 60.3383 1.86865C61.025 2.01003 61.1966 2.34326 61.237 3.05015C61.2774 3.75705 61.237 4.31248 61.237 7.48339L61.2673 11.1895Z" fill="black"/>
<path fill-rule="evenodd" clip-rule="evenodd" d="M75.1527 11.1893C75.1527 13.108 75.1528 14.7641 75.0418 15.6427C74.961 16.2486 74.8599 16.6526 74.4358 16.7838C74.1918 16.8473 73.9405 16.8778 73.6885 16.8747C73.436 16.8747 73.3552 16.9353 73.3552 17.0363C73.3552 17.1373 73.4967 17.2483 73.7693 17.2483C74.6075 17.2483 75.9202 17.1877 76.4049 17.1877C77.6369 17.1877 79.0305 17.3089 82.1913 17.3089C82.979 17.3089 83.2013 17.3089 83.3123 16.7636C83.4614 16.0008 83.5526 15.2277 83.585 14.4511C83.585 14.239 83.5851 14.0674 83.4235 14.0674C83.262 14.0674 83.2314 14.1583 83.191 14.3905C83.0497 15.2388 82.7973 15.6831 82.252 15.9355C81.6157 16.135 80.9485 16.2171 80.2828 16.1779C78.152 16.1779 77.8188 15.8649 77.7784 14.4309C77.7784 13.825 77.7784 11.8962 77.7784 11.1893V9.54321C77.7784 9.41193 77.7783 9.33118 77.9096 9.33118C78.4044 9.33118 80.4748 9.33118 80.8686 9.39177C81.6462 9.47255 81.9389 9.7856 82.0399 10.2097C82.0831 10.4568 82.1102 10.7064 82.1208 10.957C82.1175 10.983 82.1202 11.0094 82.1287 11.0342C82.1372 11.059 82.1511 11.0814 82.1696 11.0999C82.1881 11.1185 82.2107 11.1325 82.2354 11.141C82.2602 11.1495 82.2866 11.1522 82.3126 11.1489C82.5045 11.1489 82.5044 10.9166 82.5044 10.755C82.5044 10.5935 82.5045 9.74517 82.5853 9.35133C82.6142 8.84026 82.6714 8.33123 82.7569 7.82652C82.7569 7.70534 82.6863 7.6548 82.6055 7.6548C82.5247 7.6548 82.4136 7.7659 82.2722 7.92748C81.9872 8.15573 81.6264 8.26758 81.2623 8.24053C80.7776 8.24053 78.3741 8.24053 77.9197 8.24053C77.7884 8.24053 77.7683 8.14966 77.7683 8.00828V2.81766C77.7683 2.67628 77.7682 2.61568 77.9197 2.61568C78.3337 2.61568 80.5253 2.61569 80.8787 2.69648C81.8885 2.81766 82.1409 3.07012 82.2823 3.44376C82.3644 3.68776 82.4054 3.94371 82.4036 4.20114C82.4036 4.39301 82.4035 4.49398 82.5954 4.49398C82.7873 4.49398 82.7872 4.37281 82.8074 4.26173C82.8276 4.15065 82.8883 3.09032 82.9085 2.88836C82.9396 2.43101 82.9968 1.9758 83.0801 1.52503C83.0801 1.42404 83.08 1.34326 82.9487 1.34326C82.8355 1.3607 82.7242 1.38774 82.6156 1.42407C82.3184 1.48038 82.0182 1.52083 81.7167 1.54524C81.3229 1.54524 77.1624 1.54524 76.4959 1.54524C75.8294 1.54524 74.5974 1.48465 73.4663 1.48465C73.1533 1.48465 73.012 1.48466 73.012 1.67653C73.012 1.8684 73.133 1.85829 73.3653 1.85829C73.6364 1.8506 73.9075 1.87433 74.1732 1.92899C74.87 2.07037 75.0317 2.4036 75.0721 3.11049C75.1125 3.81738 75.1224 4.37281 75.1224 7.54373L75.1527 11.1893Z" fill="black"/>
<path fill-rule="evenodd" clip-rule="evenodd" d="M90.1186 5.63527H90.1793C90.5529 6.02911 92.8755 8.66483 95.1577 10.8966C97.44 13.1284 99.995 15.7843 101.318 17.0365C101.55 17.2687 101.792 17.501 102.025 17.501C102.257 17.501 102.297 17.3091 102.297 16.8547L102.53 3.66612C102.53 2.5048 102.711 2.06047 103.297 1.89889C103.501 1.84272 103.712 1.81886 103.923 1.8282C104.176 1.8282 104.307 1.76761 104.307 1.64643C104.307 1.52525 104.095 1.45456 103.822 1.45456C102.812 1.45456 102.005 1.51515 101.803 1.51515C101.368 1.51515 100.369 1.45456 99.278 1.45456C98.9649 1.45456 98.7326 1.45456 98.7326 1.64643C98.7326 1.8383 98.8135 1.8282 99.066 1.8282C99.441 1.80807 99.8166 1.85248 100.177 1.95948C100.682 2.16145 100.863 2.56537 100.883 3.83778L101.096 13.2192H100.995C100.631 12.886 97.8136 9.87667 96.3998 8.45278C93.3703 5.42324 90.1692 2.02005 89.9167 1.74739C89.6642 1.47473 89.3714 1.10107 89.1492 1.10107C88.927 1.10107 88.8765 1.39394 88.8765 1.80798L88.6847 14.1786C88.6847 15.9963 88.5836 16.6022 88.0383 16.7638C87.7319 16.8444 87.4159 16.8817 87.0992 16.8749C86.8871 16.8749 86.7659 16.8749 86.7659 17.0365C86.7659 17.198 86.9478 17.2485 87.2205 17.2485C88.3111 17.2485 89.2402 17.1879 89.4825 17.1879C89.8764 17.1879 90.7144 17.2485 92.0676 17.2485C92.3604 17.2485 92.5523 17.2485 92.5523 17.0365C92.5523 16.8244 92.4211 16.8749 92.199 16.8749C91.8294 16.8877 91.4603 16.8365 91.1083 16.7234C90.6942 16.582 90.4216 16.0367 90.3812 14.4108L90.1186 5.63527Z" fill="black"/>
<path fill-rule="evenodd" clip-rule="evenodd" d="M109.568 11.1893C109.568 13.209 109.568 14.8652 109.457 15.7437C109.396 16.3496 109.275 16.7536 108.851 16.7536C108.607 16.817 108.356 16.8476 108.104 16.8445C107.852 16.8445 107.771 16.9051 107.771 17.006C107.771 17.107 107.912 17.2181 108.185 17.2181C109.023 17.2181 110.336 17.1575 110.82 17.1575C111.305 17.1575 112.699 17.2181 114.082 17.2181C114.304 17.2181 114.476 17.1575 114.476 17.006C114.476 16.8546 114.375 16.8445 114.143 16.8445C113.784 16.8402 113.427 16.8098 113.072 16.7536C112.446 16.6728 112.305 16.2991 112.244 15.7437C112.153 14.845 112.154 13.199 112.154 11.1692V7.49331C112.154 4.32239 112.154 3.73667 112.154 3.06007C112.154 2.38347 112.366 1.97955 112.931 1.87857C113.137 1.83232 113.346 1.80861 113.557 1.80787C113.769 1.80787 113.89 1.80786 113.89 1.60589C113.89 1.40392 113.729 1.43423 113.456 1.43423C112.658 1.43423 111.437 1.49482 110.901 1.49482C110.366 1.49482 108.982 1.43423 108.185 1.43423C107.851 1.43423 107.69 1.43422 107.69 1.60589C107.69 1.77756 107.811 1.80787 108.023 1.80787C108.275 1.8014 108.527 1.83205 108.77 1.89878C109.235 1.99977 109.447 2.35318 109.487 3.06007C109.528 3.76696 109.487 4.32239 109.487 7.49331L109.568 11.1893Z" fill="black"/>
<path fill-rule="evenodd" clip-rule="evenodd" d="M120.576 5.63527H120.646C121.02 6.02911 123.332 8.66483 125.615 10.8966C127.897 13.1284 130.462 15.7843 131.775 17.0365C132.007 17.2687 132.259 17.501 132.492 17.501C132.724 17.501 132.754 17.3091 132.754 16.8547L132.987 3.66612C132.987 2.5048 133.178 2.06047 133.764 1.89889C133.968 1.84272 134.179 1.81886 134.39 1.8282C134.643 1.8282 134.764 1.76761 134.764 1.64643C134.764 1.52525 134.552 1.45456 134.279 1.45456C133.269 1.45456 132.472 1.51515 132.259 1.51515C131.815 1.51515 130.815 1.45456 129.725 1.45456C129.412 1.45456 129.19 1.45456 129.19 1.64643C129.19 1.8383 129.27 1.8282 129.523 1.8282C129.895 1.80802 130.267 1.85245 130.624 1.95948C131.129 2.16145 131.32 2.56537 131.341 3.83778L131.543 13.2192H131.441C131.088 12.886 128.271 9.87667 126.847 8.45278C123.817 5.42324 120.616 2.02005 120.374 1.74739C120.131 1.47473 119.828 1.10107 119.596 1.10107C119.364 1.10107 119.323 1.39394 119.323 1.80798L119.142 14.1786C119.142 15.9963 119.031 16.6022 118.485 16.7638C118.179 16.8449 117.863 16.8823 117.546 16.8749C117.344 16.8749 117.213 16.8749 117.213 17.0365C117.213 17.198 117.405 17.2485 117.677 17.2485C118.758 17.2485 119.697 17.1879 119.929 17.1879C120.333 17.1879 121.161 17.2485 122.525 17.2485C122.818 17.2485 122.999 17.2485 122.999 17.0365C122.999 16.8244 122.878 16.8749 122.646 16.8749C122.279 16.8878 121.914 16.8366 121.565 16.7234C121.141 16.582 120.868 16.0367 120.828 14.4108L120.576 5.63527Z" fill="black"/>
<path fill-rule="evenodd" clip-rule="evenodd" d="M141.52 17.5413C142.687 17.5813 143.841 17.2832 144.842 16.6829C145.465 16.3036 145.978 15.7691 146.332 15.1319C146.686 14.4946 146.869 13.7764 146.862 13.0475C146.862 11.0278 145.943 9.66446 143.428 7.72556L142.843 7.28122C141.116 5.96842 140.631 5.26153 140.631 4.25169C140.636 3.94144 140.706 3.63565 140.837 3.35439C140.968 3.07312 141.157 2.82273 141.391 2.61962C141.626 2.41652 141.901 2.26533 142.198 2.1759C142.495 2.08648 142.808 2.06082 143.115 2.10071C143.55 2.06738 143.985 2.14218 144.384 2.31841C144.782 2.49463 145.13 2.76678 145.398 3.11055C145.711 3.50464 145.9 3.98248 145.943 4.48399C145.943 4.73645 146.004 4.85763 146.145 4.85763C146.286 4.85763 146.377 4.69606 146.377 4.23153C146.377 2.60568 146.458 1.99973 146.458 1.72707C146.458 1.45441 146.357 1.515 146.165 1.47461C145.26 1.23009 144.326 1.11119 143.388 1.12119C140.49 1.12119 138.561 2.77731 138.561 5.06966C138.561 6.7662 139.359 8.2204 141.651 10.0179L142.661 10.7753C144.388 12.1083 144.681 13.0879 144.681 14.1179C144.661 14.4606 144.571 14.7958 144.418 15.1032C144.265 15.4105 144.052 15.6837 143.791 15.9064C143.529 16.1291 143.225 16.2965 142.898 16.3987C142.57 16.501 142.225 16.5358 141.883 16.5011C141.211 16.5584 140.541 16.3787 139.987 15.9932C139.434 15.6077 139.033 15.0407 138.854 14.3906C138.752 14.0421 138.691 13.6828 138.672 13.3201C138.672 13.1586 138.672 12.9667 138.46 12.9667C138.248 12.9667 138.228 13.199 138.208 13.512C138.187 13.8251 138.107 15.0974 138.107 16.2487C138.107 16.7031 138.167 16.8142 138.5 16.9556C139.454 17.3636 140.483 17.5633 141.52 17.5413Z" fill="black"/>
<path fill-rule="evenodd" clip-rule="evenodd" d="M151.911 10.5634C151.911 13.5929 152.709 15.138 153.779 16.0974C155.089 17.1426 156.743 17.6579 158.415 17.5414C160.001 17.6094 161.553 17.0715 162.757 16.0368C164.514 14.5321 164.776 12.068 164.776 9.74539V7.51367C164.776 4.34275 164.776 3.75702 164.776 3.08043C164.776 2.40383 164.978 1.99991 165.544 1.89892C165.743 1.85226 165.946 1.82853 166.15 1.82823C166.402 1.82823 166.534 1.82824 166.534 1.64646C166.534 1.46469 166.382 1.45459 166.089 1.45459C165.271 1.45459 163.959 1.51518 163.706 1.51518C163.706 1.51518 162.373 1.45459 161.303 1.45459C161.01 1.45459 160.869 1.45459 160.869 1.64646C160.869 1.83833 160.99 1.82823 161.222 1.82823C161.476 1.82383 161.73 1.84755 161.979 1.89892C162.666 2.0403 162.828 2.37353 162.878 3.08043C162.929 3.78732 162.878 4.34275 162.878 7.51367V10.1291C162.878 12.2801 162.807 14.1685 161.666 15.3096C160.886 16.0439 159.85 16.4458 158.778 16.4306C157.833 16.4752 156.906 16.1696 156.173 15.5722C155.163 14.7441 154.537 13.4616 154.537 10.4422V7.51367C154.537 4.34275 154.537 3.75702 154.537 3.08043C154.537 2.40383 154.749 1.99991 155.314 1.89892C155.513 1.85172 155.716 1.82798 155.92 1.82823C156.132 1.82823 156.253 1.82824 156.253 1.64646C156.253 1.46469 156.112 1.45459 155.799 1.45459C155.042 1.45459 153.779 1.51518 153.224 1.51518C152.668 1.51518 151.285 1.45459 150.194 1.45459C149.881 1.45459 149.74 1.45459 149.74 1.64646C149.74 1.83833 149.861 1.82823 150.093 1.82823C150.364 1.82054 150.636 1.84426 150.901 1.89892C151.598 2.0403 151.76 2.37353 151.8 3.08043C151.841 3.78732 151.8 4.34275 151.8 7.51367L151.911 10.5634Z" fill="black"/>
<path fill-rule="evenodd" clip-rule="evenodd" d="M173.421 7.51367C173.421 4.34275 173.421 3.75702 173.421 3.08043C173.421 2.40383 173.633 1.99991 174.198 1.89892C174.468 1.85121 174.742 1.82755 175.016 1.82823C175.259 1.82823 175.39 1.82824 175.39 1.64646C175.39 1.46469 175.239 1.45459 174.946 1.45459C174.138 1.45459 172.613 1.51518 172.108 1.51518C171.603 1.51518 170.23 1.45459 169.25 1.45459C168.937 1.45459 168.786 1.45459 168.786 1.64646C168.786 1.83833 168.917 1.82823 169.139 1.82823C169.373 1.82128 169.608 1.84505 169.836 1.89892C170.522 2.0403 170.684 2.37353 170.735 3.08043C170.785 3.78732 170.735 4.34275 170.735 7.51367V11.1895C170.735 13.1082 170.735 14.7643 170.624 15.6429C170.543 16.2488 170.442 16.6528 170.018 16.784C169.774 16.8475 169.523 16.878 169.27 16.8749C169.018 16.8749 168.937 16.9355 168.937 17.0365C168.937 17.1375 169.078 17.2485 169.351 17.2485C170.189 17.2485 171.502 17.1879 171.987 17.1879C173.673 17.1879 175.016 17.3091 178.046 17.3091C179.127 17.3091 179.238 17.2081 179.359 16.7436C179.524 15.9516 179.629 15.1481 179.672 14.3402C179.672 14.0978 179.672 13.9868 179.51 13.9868C179.349 13.9868 179.298 14.118 179.278 14.2998C179.213 14.7588 179.024 15.1916 178.733 15.552C178.207 16.1175 177.4 16.1377 176.289 16.1377C174.663 16.1377 174.118 15.9963 173.764 15.6833C173.411 15.3702 173.32 13.8656 173.32 11.1895L173.421 7.51367Z" fill="black"/>
<path fill-rule="evenodd" clip-rule="evenodd" d="M189.982 11.7952C190.028 11.7908 190.075 11.8024 190.113 11.8281C190.152 11.8539 190.181 11.8922 190.195 11.9366L191.861 16.3697C191.884 16.4129 191.898 16.4606 191.901 16.5095C191.904 16.5585 191.897 16.6075 191.88 16.6534C191.863 16.6994 191.836 16.7411 191.801 16.7758C191.767 16.8105 191.725 16.8373 191.679 16.8545C191.467 16.8545 191.386 16.9151 191.386 17.0363C191.386 17.1574 191.638 17.1877 192.012 17.2079C193.678 17.2079 195.203 17.2079 195.961 17.2079C196.718 17.2079 196.92 17.2079 196.92 16.9958C196.92 16.7838 196.819 16.8343 196.647 16.8343C196.352 16.8362 196.058 16.8057 195.769 16.7434C195.335 16.6424 194.759 16.3495 193.931 14.4712C192.598 11.3003 189.255 2.77723 188.75 1.62601C188.538 1.14128 188.417 0.959473 188.225 0.959473C188.033 0.959473 187.892 1.18165 187.64 1.78755L182.399 14.9156C181.984 15.9254 181.591 16.6727 180.621 16.804C180.406 16.8149 180.19 16.8149 179.975 16.804C179.813 16.804 179.722 16.804 179.722 16.9656C179.722 17.1271 179.854 17.1776 180.126 17.1776C181.207 17.1776 182.358 17.117 182.59 17.117C183.237 17.117 184.135 17.1776 184.802 17.1776C185.034 17.1776 185.155 17.1776 185.155 16.9656C185.155 16.7535 185.095 16.804 184.842 16.804H184.529C183.883 16.804 183.701 16.5313 183.701 16.1577C183.734 15.7159 183.84 15.2826 184.014 14.8752L185.135 11.8456C185.135 11.7144 185.226 11.674 185.327 11.674L189.982 11.7952ZM185.741 10.7853C185.66 10.7853 185.64 10.7146 185.66 10.6338L187.579 5.49373C187.579 5.41295 187.639 5.31191 187.71 5.31191C187.781 5.31191 187.791 5.41295 187.811 5.49373L189.69 10.654C189.69 10.7146 189.689 10.7853 189.589 10.7853H185.741Z" fill="black"/>
<path d="M196.829 24.8022H0V25.4687H196.829V24.8022Z" fill="black"/>
<path d="M66.1113 43.082V42.9062C66.4082 42.8203 66.6016 42.7559 66.6914 42.7129C66.7852 42.6699 66.8398 42.6016 66.8555 42.5078C66.9141 42.2852 66.9434 41.3809 66.9434 39.7949C66.9434 39.5488 66.9414 39.2812 66.9375 38.9922C66.9375 38.7031 66.9355 38.4805 66.9316 38.3242C66.9277 38.1641 66.918 37.918 66.9023 37.5859C66.8945 37.3594 66.8809 37.0781 66.8613 36.7422C66.8418 36.4023 66.8223 36.1875 66.8027 36.0977C66.7871 36.0039 66.7617 35.9277 66.7266 35.8691C66.6719 35.7871 66.5898 35.7305 66.4805 35.6992C66.3711 35.668 66.2129 35.6406 66.0059 35.6172C65.998 35.5352 65.998 35.457 66.0059 35.3828C66.3184 35.4062 66.6855 35.418 67.1074 35.418C67.2285 35.418 67.4414 35.4102 67.7461 35.3945L68.1152 35.3652C68.2051 35.3574 68.3301 35.3535 68.4902 35.3535C69.041 35.3535 69.5234 35.4297 69.9375 35.582C70.3516 35.7344 70.6973 35.9375 70.9746 36.1914C71.2559 36.4414 71.4629 36.7109 71.5957 37C71.7324 37.2852 71.8008 37.5645 71.8008 37.8379C71.8008 38.2598 71.6719 38.6562 71.4141 39.0273C71.1562 39.3984 70.7754 39.6992 70.2715 39.9297C69.7676 40.1602 69.1738 40.2754 68.4902 40.2754C68.2285 40.2754 67.9766 40.2559 67.7344 40.2168C67.7383 40.5215 67.7422 40.8789 67.7461 41.2891C67.75 41.6953 67.7539 41.9414 67.7578 42.0273C67.7695 42.2617 67.7988 42.4297 67.8457 42.5312C67.8926 42.6328 67.9883 42.7051 68.1328 42.748C68.2812 42.791 68.5273 42.8223 68.8711 42.8418L68.8594 43.1055C68.7109 43.0781 68.5117 43.0586 68.2617 43.0469C67.957 43.0312 67.748 43.0234 67.6348 43.0234C67.2051 43.0234 66.8691 43.043 66.627 43.082L66.3281 43.1172C66.25 43.1172 66.1777 43.1055 66.1113 43.082ZM67.793 35.7637C67.793 35.7988 67.7871 36.0039 67.7754 36.3789C67.7676 36.75 67.7598 37.0566 67.752 37.2988C67.748 37.5371 67.7422 37.7988 67.7344 38.084C67.7266 38.3652 67.7227 38.5273 67.7227 38.5703C67.7227 38.9492 67.7266 39.3652 67.7344 39.8184C68.0742 39.9082 68.3906 39.9531 68.6836 39.9531C69.0078 39.9531 69.334 39.8906 69.6621 39.7656C69.9941 39.6367 70.2734 39.4199 70.5 39.1152C70.7266 38.8066 70.8398 38.4023 70.8398 37.9023C70.8398 37.5156 70.7559 37.1523 70.5879 36.8125C70.4238 36.4688 70.1699 36.1914 69.8262 35.9805C69.4824 35.7656 69.0723 35.6582 68.5957 35.6582C68.3496 35.6582 68.082 35.6934 67.793 35.7637Z" fill="black"/>
<path d="M80.8029 41.2832H80.9845C80.922 41.6895 80.8537 42.0273 80.7795 42.2969C80.7052 42.5625 80.6095 42.8164 80.4923 43.0586C80.3634 43.0469 80.1877 43.0371 79.965 43.0293C79.7423 43.0254 79.4298 43.0234 79.0275 43.0234C78.7853 43.0234 78.5255 43.0195 78.2482 43.0117C77.9709 43.0039 77.8517 43 77.8908 43C77.6369 43 77.34 43.002 77.0002 43.0059C76.6642 43.0137 76.258 43.0254 75.7814 43.041C75.3048 43.0566 74.9552 43.0703 74.7326 43.082L74.7443 42.8828C74.8654 42.8555 74.9884 42.8262 75.1134 42.7949C75.2384 42.7598 75.3224 42.7227 75.3654 42.6836C75.4123 42.6445 75.4455 42.5977 75.465 42.543C75.4845 42.4844 75.5041 42.3809 75.5236 42.2324C75.547 42.084 75.5685 41.8164 75.588 41.4297C75.6115 41.0391 75.6291 40.6016 75.6408 40.1172C75.6564 39.6328 75.6623 39.3301 75.6584 39.209L75.6173 37.3457C75.6056 36.7676 75.5822 36.377 75.547 36.1738C75.5158 35.9707 75.4533 35.8359 75.3595 35.7695C75.2658 35.7031 75.088 35.6445 74.8263 35.5938C74.8263 35.5312 74.8302 35.4805 74.838 35.4414H78.5939C79.0158 35.4414 79.6525 35.4258 80.5041 35.3945C80.4845 35.7305 80.4494 36.0664 80.3986 36.4023C80.3478 36.7383 80.2834 36.9062 80.2052 36.9062C80.1076 36.9062 80.0588 36.877 80.0588 36.8184C80.0588 36.7949 80.0666 36.7207 80.0822 36.5957C80.0978 36.4707 80.1056 36.3984 80.1056 36.3789C80.1056 36.0938 79.9338 35.9121 79.59 35.834C79.2502 35.7559 78.842 35.7168 78.3654 35.7168C77.7912 35.7168 77.1916 35.7559 76.5666 35.834C76.4963 36.4824 76.4611 37.0273 76.4611 37.4688C76.4611 37.7578 76.463 38.0898 76.467 38.4648C76.4709 38.8398 76.4728 39.0156 76.4728 38.9922C76.5666 39 76.8537 39.0039 77.3341 39.0039C78.1623 39.0039 78.7306 38.9883 79.0392 38.957C79.215 38.9375 79.3322 38.9141 79.3908 38.8867C79.4533 38.8594 79.5119 38.791 79.5666 38.6816C79.6213 38.5684 79.6818 38.3965 79.7482 38.166L79.9181 38.1777C79.9181 38.584 79.9162 38.9473 79.9123 39.2676C79.9123 39.5879 79.9103 39.9551 79.9064 40.3691H79.7013C79.6896 40.0098 79.6349 39.7598 79.5373 39.6191C79.4435 39.4785 79.2599 39.3887 78.9865 39.3496C78.713 39.3105 78.2267 39.291 77.5275 39.291C77.0783 39.291 76.7267 39.3105 76.4728 39.3496L76.4494 40.1816C76.422 41.1973 76.4572 41.9805 76.5548 42.5312C76.6252 42.5508 76.7091 42.5723 76.8068 42.5957C76.9045 42.6191 76.9963 42.6387 77.0822 42.6543C77.172 42.666 77.299 42.6797 77.463 42.6953C77.6271 42.707 77.8322 42.7129 78.0783 42.7129C78.6916 42.7129 79.172 42.668 79.5197 42.5781C79.8713 42.4883 80.1388 42.3438 80.3224 42.1445C80.5099 41.9453 80.6701 41.6582 80.8029 41.2832Z" fill="black"/>
<path d="M83.7991 35.6465V35.4062C84.1507 35.4297 84.3753 35.4453 84.473 35.4531C84.5706 35.457 84.6859 35.457 84.8187 35.4531L85.3226 35.4414C85.557 35.7383 85.8323 36.0527 86.1488 36.3848C86.4652 36.7168 86.8187 37.0742 87.2093 37.457C87.6038 37.8359 87.8265 38.0508 87.8773 38.1016L91.3343 41.3828C91.3655 40.8945 91.3812 40.1543 91.3812 39.1621V38.0312C91.3812 37.4297 91.3655 36.9766 91.3343 36.6719C91.307 36.3672 91.2523 36.1426 91.1702 35.998C91.0882 35.8535 90.9808 35.7578 90.848 35.7109C90.7152 35.6602 90.4925 35.6094 90.18 35.5586L90.2445 35.3945C90.2991 35.3867 90.3948 35.3828 90.5316 35.3828C90.6527 35.3828 90.7738 35.3848 90.8948 35.3887C91.0159 35.3926 91.1585 35.4023 91.3226 35.418C91.4202 35.4258 91.5218 35.4297 91.6273 35.4297C91.7327 35.4297 91.8187 35.4297 91.8851 35.4297L92.6292 35.418L92.6409 35.6172C92.4066 35.6523 92.2386 35.707 92.137 35.7812C92.0355 35.8555 91.9632 35.9785 91.9202 36.1504C91.8499 36.4707 91.7991 37.0977 91.7679 38.0312C91.7405 38.9648 91.7269 39.8535 91.7269 40.6973C91.7269 41.0293 91.7288 41.3477 91.7327 41.6523C91.7405 41.957 91.7484 42.2305 91.7562 42.4727C91.764 42.7148 91.7757 42.9395 91.7913 43.1465L91.5511 43.1348C91.2816 42.5527 90.4691 41.6309 89.1136 40.3691L86.9163 38.3184C86.8421 38.2637 86.6605 38.1016 86.3714 37.832C86.0863 37.5625 85.7249 37.2246 85.2874 36.8184L85.2113 40.4102C85.1917 41.1484 85.2073 41.666 85.2581 41.9629C85.3089 42.2559 85.4202 42.4512 85.5921 42.5488C85.764 42.6426 86.0902 42.7363 86.5706 42.8301C86.5706 42.9121 86.5628 42.9844 86.5472 43.0469C86.4847 43.0469 86.2972 43.0391 85.9847 43.0234C85.6644 43.0078 85.471 43 85.4046 43C85.3421 43 85.1273 43.0078 84.7601 43.0234C84.6976 43.0273 84.6136 43.0332 84.5081 43.041C84.4027 43.0488 84.2659 43.0586 84.098 43.0703C84.0433 43.0703 84.0023 43.0586 83.9749 43.0352C83.9515 43.0156 83.9398 42.9805 83.9398 42.9297C83.9398 42.8711 83.9495 42.8359 83.9691 42.8242C83.9886 42.8125 84.0316 42.8027 84.098 42.7949C84.2698 42.7754 84.3929 42.7441 84.4671 42.7012C84.5452 42.6582 84.6077 42.5762 84.6546 42.4551C84.7015 42.334 84.7347 42.1426 84.7542 41.8809C84.7777 41.6152 84.7913 41.2754 84.7952 40.8613L84.8304 38.0664C84.8382 37.4531 84.8265 36.998 84.7952 36.7012C84.7679 36.4043 84.682 36.1641 84.5374 35.9805C84.3929 35.7969 84.1468 35.6855 83.7991 35.6465Z" fill="black"/>
<path d="M102.258 41.8223C102.239 41.873 102.155 42.1621 102.006 42.6895C101.584 42.8145 101.202 42.9121 100.858 42.9824C100.514 43.0488 100.141 43.082 99.7388 43.082C99.2544 43.082 98.77 42.9961 98.2856 42.8242C97.8013 42.6523 97.3657 42.3984 96.979 42.0625C96.5923 41.7227 96.2856 41.3105 96.0591 40.8262C95.8325 40.3379 95.7192 39.7832 95.7192 39.1621C95.7192 38.3105 95.9282 37.5918 96.3462 37.0059C96.768 36.4199 97.3032 35.9883 97.9516 35.7109C98.604 35.4336 99.2759 35.2949 99.9673 35.2949C100.51 35.2949 101.034 35.3906 101.538 35.582C101.772 35.6562 101.948 35.6934 102.065 35.6934C102.12 35.6816 102.159 35.6738 102.182 35.6699C102.209 35.666 102.243 35.6621 102.282 35.6582C102.305 35.6582 102.331 35.6738 102.358 35.7051L102.27 36.0391C102.188 36.332 102.116 36.7051 102.053 37.1582C101.983 37.1465 101.936 37.123 101.913 37.0879C101.889 37.0488 101.877 36.9883 101.877 36.9062C101.87 36.6602 101.836 36.4922 101.778 36.4023C101.672 36.2305 101.409 36.0547 100.987 35.875C100.565 35.6953 100.141 35.6055 99.7153 35.6055C99.1528 35.6055 98.643 35.7461 98.186 36.0273C97.7329 36.3047 97.3735 36.7129 97.1079 37.252C96.8462 37.791 96.7153 38.4238 96.7153 39.1504C96.7153 39.8184 96.8305 40.3945 97.061 40.8789C97.2954 41.3594 97.5864 41.7402 97.9341 42.0215C98.2856 42.3027 98.6411 42.5059 99.0005 42.6309C99.3638 42.7559 99.6782 42.8184 99.9438 42.8184C100.366 42.8184 100.715 42.75 100.993 42.6133C101.27 42.4727 101.487 42.3066 101.643 42.1152C101.803 41.9199 101.958 41.6875 102.106 41.418C102.165 41.3047 102.215 41.248 102.258 41.248C102.333 41.248 102.37 41.2832 102.37 41.3535C102.37 41.4043 102.333 41.5605 102.258 41.8223Z" fill="black"/>
<path d="M105.606 35.6699V35.4648C106.098 35.4688 106.421 35.4727 106.573 35.4766C106.725 35.4805 106.852 35.4844 106.954 35.4883C107.61 35.4883 108.042 35.4805 108.249 35.4648L108.237 35.6934C107.967 35.7168 107.766 35.75 107.633 35.793C107.501 35.832 107.405 35.918 107.346 36.0508C107.311 36.1367 107.286 36.3516 107.27 36.6953C107.255 37.0391 107.241 37.4805 107.229 38.0195C107.214 38.625 107.202 39.1738 107.194 39.666C107.186 40.1582 107.182 40.6465 107.182 41.1309C107.182 41.5723 107.194 41.8984 107.217 42.1094C107.241 42.3203 107.28 42.4531 107.335 42.5078C107.401 42.5586 107.51 42.5957 107.663 42.6191C107.819 42.6426 108.149 42.6543 108.653 42.6543C109.208 42.6543 109.671 42.6094 110.042 42.5195C110.417 42.4297 110.698 42.334 110.885 42.2324C111.135 42.0801 111.307 41.8203 111.401 41.4531L111.594 41.4766C111.571 41.6367 111.518 41.877 111.436 42.1973C111.354 42.5176 111.258 42.8086 111.149 43.0703C110.813 43.0312 110.546 43.0117 110.346 43.0117C110.225 43.0078 110.112 43.0039 110.006 43C109.905 43 109.786 43 109.649 43H105.536L105.524 42.8184C105.755 42.7715 105.923 42.7207 106.028 42.666C106.133 42.6113 106.212 42.5176 106.262 42.3848C106.317 42.248 106.35 42.0449 106.362 41.7754C106.378 41.5059 106.385 41.1172 106.385 40.6094L106.397 38.0312C106.405 37.4492 106.405 37.0078 106.397 36.707C106.389 36.4062 106.362 36.1836 106.315 36.0391C106.268 35.8906 106.194 35.7949 106.092 35.752C105.991 35.7051 105.829 35.6777 105.606 35.6699Z" fill="black"/>
<path d="M114.057 35.7051L114.081 35.4883C114.264 35.4961 114.544 35.5 114.919 35.5C115.583 35.5 116.235 35.4844 116.876 35.4531L116.94 35.6465C116.577 35.6895 116.331 35.7422 116.202 35.8047C116.077 35.8672 115.985 35.9531 115.927 36.0625C115.809 36.2812 115.751 37.1973 115.751 38.8105C115.751 39.3652 115.759 39.8535 115.774 40.2754C115.79 40.6973 115.821 41.0254 115.868 41.2598C115.997 41.8496 116.311 42.2422 116.811 42.4375C117.311 42.6289 117.778 42.7246 118.212 42.7246C118.458 42.7246 118.753 42.6895 119.096 42.6191C119.44 42.5488 119.766 42.4219 120.075 42.2383C120.384 42.0547 120.591 41.8047 120.696 41.4883C120.911 40.8633 121.018 39.6348 121.018 37.8027C121.018 37.2559 121.001 36.8457 120.966 36.5723C120.934 36.2949 120.882 36.0957 120.807 35.9746C120.733 35.8496 120.639 35.7734 120.526 35.7461C120.413 35.7188 120.233 35.7051 119.987 35.7051L119.964 35.5C120.139 35.4766 120.335 35.4648 120.55 35.4648C121.389 35.4648 121.954 35.4688 122.243 35.4766V35.7168C121.973 35.7285 121.788 35.7578 121.686 35.8047C121.589 35.8516 121.528 35.9355 121.505 36.0566C121.485 36.1777 121.471 36.4355 121.464 36.8301C121.452 37.5684 121.434 38.2246 121.411 38.7988C121.388 39.3691 121.358 39.8398 121.323 40.2109C121.288 40.5781 121.237 40.9062 121.171 41.1953C121.108 41.4844 121.03 41.7188 120.936 41.8984C120.757 42.2305 120.477 42.4883 120.098 42.6719C119.72 42.8555 119.337 42.9746 118.95 43.0293C118.563 43.0879 118.212 43.1172 117.895 43.1172C117.368 43.1172 116.882 43.0391 116.436 42.8828C115.991 42.7227 115.626 42.459 115.341 42.0918C115.059 41.7246 114.919 41.252 114.919 40.6738C114.919 40.5332 114.923 40.1484 114.93 39.5195C114.942 38.8906 114.948 38.4219 114.948 38.1133C114.948 37.0312 114.895 36.3125 114.79 35.957C114.763 35.8672 114.716 35.8125 114.649 35.793C114.587 35.7695 114.389 35.7402 114.057 35.7051Z" fill="black"/>
<path d="M128.368 38.8574C128.923 38.959 129.368 39.125 129.704 39.3555C130.044 39.5859 130.28 39.8418 130.413 40.123C130.546 40.4004 130.612 40.6953 130.612 41.0078C130.612 41.8672 130.296 42.4199 129.663 42.666C129.03 42.9121 128.384 43.0352 127.724 43.0352C127.661 43.0352 127.548 43.0312 127.384 43.0234C127.22 43.0195 127.054 43.0156 126.886 43.0117C126.722 43.0078 126.595 43.0039 126.505 43C126.419 43 126.321 43 126.212 43C125.978 43 125.597 43.0156 125.069 43.0469V42.8301C125.226 42.8145 125.351 42.7949 125.444 42.7715C125.538 42.7441 125.62 42.6973 125.69 42.6309C125.761 42.5645 125.806 42.4746 125.825 42.3613C125.864 42.1934 125.894 41.8438 125.913 41.3125C125.936 40.7812 125.952 40.2422 125.96 39.6953C125.968 39.1445 125.972 38.7188 125.972 38.418C125.972 38.0938 125.968 37.7793 125.96 37.4746C125.952 37.1699 125.931 36.8711 125.895 36.5781C125.864 36.2852 125.821 36.0898 125.767 35.9922C125.712 35.8828 125.63 35.8047 125.52 35.7578C125.411 35.7109 125.265 35.6738 125.081 35.6465V35.418C125.495 35.4492 125.86 35.4648 126.177 35.4648C126.251 35.4648 126.522 35.4492 126.991 35.418C127.491 35.3828 127.755 35.3652 127.782 35.3652C128.161 35.3652 128.507 35.4355 128.819 35.5762C129.132 35.7168 129.382 35.9277 129.569 36.209C129.761 36.4863 129.856 36.8105 129.856 37.1816C129.856 37.5762 129.735 37.918 129.493 38.207C129.251 38.4922 128.876 38.709 128.368 38.8574ZM126.716 38.0898V38.8105C126.802 38.8027 126.901 38.7988 127.015 38.7988C127.366 38.791 127.675 38.7598 127.94 38.7051C128.206 38.6504 128.442 38.5156 128.649 38.3008C128.856 38.0859 128.96 37.7559 128.96 37.3105C128.96 36.959 128.886 36.6602 128.737 36.4141C128.593 36.168 128.397 35.9805 128.151 35.8516C127.905 35.7227 127.642 35.6582 127.36 35.6582C127.091 35.6582 126.927 35.6895 126.868 35.752C126.817 35.7949 126.778 36.0938 126.751 36.6484C126.728 37.1992 126.716 37.6797 126.716 38.0898ZM126.716 39.0859V41.3828C126.716 41.7812 126.724 42.0625 126.739 42.2266C126.755 42.3906 126.792 42.5137 126.851 42.5957C126.909 42.6738 126.997 42.7207 127.114 42.7363C127.231 42.752 127.438 42.7598 127.735 42.7598C128.052 42.7598 128.356 42.7109 128.649 42.6133C128.946 42.5117 129.196 42.3359 129.399 42.0859C129.603 41.8359 129.704 41.5 129.704 41.0781C129.704 40.8438 129.659 40.6035 129.569 40.3574C129.479 40.1113 129.345 39.8926 129.165 39.7012C128.985 39.5059 128.747 39.3477 128.45 39.2266C128.157 39.1016 127.815 39.0391 127.425 39.0391C127.331 39.0391 127.218 39.043 127.085 39.0508C126.956 39.0586 126.833 39.0703 126.716 39.0859Z" fill="black"/>
</svg>
