<svg width="43" height="41" viewBox="0 0 43 41" fill="none" xmlns="http://www.w3.org/2000/svg">
<path d="M43 10.8048C42.8121 10.9839 42.609 11.1469 42.393 11.2918C41.543 11.7694 40.6751 12.2171 39.825 12.6947C39.6472 12.7955 39.4987 12.9399 39.3938 13.1139C38.9035 13.9659 38.4325 14.8315 37.9615 15.6917C37.566 16.4067 37.2089 16.4623 36.639 15.8979C36.341 15.6048 36.0512 15.3037 35.7464 15.0187C35.6095 14.9098 35.5124 14.7596 35.4698 14.5912C35.4272 14.4227 35.4413 14.2451 35.5102 14.0853C35.6928 13.5657 35.8507 13.0352 35.9867 12.5007C36.0058 12.4205 36.0073 12.3372 35.9909 12.2565C35.9746 12.1757 35.9408 12.0993 35.8919 12.0326C35.1256 11.2864 34.3346 10.5619 33.4983 9.78046C33.1344 10.4263 32.7719 11.0395 32.4519 11.6717C32.4052 11.764 32.5274 11.9729 32.6167 12.095C33.7316 13.5871 34.5516 15.2736 35.0336 17.066C36.1638 21.3343 35.5829 25.3719 33.2484 29.13C31.5001 31.9845 28.8269 34.1718 25.6624 35.3369C23.5565 36.1443 21.2944 36.4762 19.0418 36.3083C16.366 36.1262 13.7851 35.2548 11.5561 33.7808C9.2497 32.2832 7.4015 30.1913 6.21133 27.7312C5.107 25.5154 4.58379 23.0611 4.68974 20.5935C4.88887 16.0078 6.77987 12.2266 10.3435 9.28526C12.7014 7.33837 15.4397 6.23264 18.4953 5.91517C22.2114 5.53122 25.6239 6.38595 28.7385 8.4156C28.8429 8.48344 28.9514 8.54314 29.1011 8.63132C29.3263 7.89598 29.5474 7.19184 29.7506 6.48364C29.7552 6.43413 29.7489 6.38422 29.7321 6.33737C29.7152 6.29052 29.6883 6.24785 29.6531 6.21229C28.7811 5.35485 27.9077 4.49605 27.0137 3.66031C26.8626 3.52464 26.6127 3.48122 26.4081 3.39711C26.2268 3.32384 26.0387 3.26143 25.8588 3.17732C25.7152 3.11416 25.6023 2.99812 25.5441 2.85393C25.4859 2.70974 25.4869 2.54878 25.547 2.40535C25.5884 2.25619 25.6865 2.1286 25.8209 2.04922C25.9552 1.96983 26.1154 1.94479 26.268 1.97933C26.3765 1.9929 26.485 2.01868 26.507 1.94406C26.8571 1.4787 27.1428 0.944157 27.5699 0.561563C28.4694 -0.244327 29.7451 -0.160211 30.5911 0.697235C31.2956 1.40951 31.9905 2.13264 32.6579 2.87748C32.9023 3.14882 33.1179 3.1841 33.453 3.08099C35.5129 2.44604 37.5934 1.84095 39.6588 1.20194C40.1463 1.04999 40.5089 1.10425 40.8549 1.49499C41.201 1.88572 41.6226 2.26154 42.0058 2.64549C42.5043 3.14476 42.4534 3.56262 41.8368 3.90316C40.1532 4.83387 38.4677 5.7605 36.7804 6.68307C36.6953 6.7292 36.6143 6.78347 36.4811 6.86487C36.6321 7.02632 36.7681 7.17285 36.9054 7.31802C37.5014 7.94211 38.1043 8.55942 38.6907 9.19165C38.751 9.27504 38.8394 9.33449 38.9401 9.35935C39.0407 9.38421 39.147 9.37286 39.24 9.32732C39.7659 9.14281 40.3084 9.00713 40.8385 8.83483C41.0004 8.76693 41.1803 8.75338 41.3507 8.79627C41.5212 8.83916 41.6726 8.93612 41.7819 9.07226C42.1788 9.51862 42.5908 9.9514 42.9959 10.3896L43 10.8048ZM23.0628 7.37364C23.1782 7.55273 23.2537 7.66669 23.3265 7.78066C24.0337 8.91216 24.2397 10.1088 23.8071 11.3895C23.4303 12.4957 22.7837 13.4933 21.9243 14.2943C20.2943 15.8301 18.5996 17.2994 16.9558 18.8216C16.4748 19.2639 16.0434 19.756 15.6691 20.2896C15.139 21.0561 15.2447 21.6992 16.0179 22.2229C16.6922 22.6801 17.464 22.9949 18.1684 23.4128C18.8345 23.8089 19.5266 24.1942 20.1048 24.6989C20.9287 25.4153 20.6541 26.4355 19.631 26.8168C18.2275 27.3364 16.7828 27.3513 15.3313 27.1085C13.281 26.7638 11.5946 25.7015 10.0277 24.4127C8.96383 23.5389 7.89176 22.6747 6.81145 21.82C6.6343 21.6843 6.37887 21.6355 6.12482 21.5337C6.33767 30.6156 15.3381 36.6692 23.2029 34.6247C23.266 33.831 23.2619 33.0536 23.4034 32.3033C23.6657 30.9195 24.5226 29.8382 25.4935 28.8722C26.5674 27.8044 27.7484 26.8439 28.8292 25.7829C29.9745 24.6596 30.8163 23.3544 30.922 21.6979C31.0141 20.2543 31.79 19.2558 33.0177 18.5571C33.218 18.4311 33.4257 18.3169 33.6398 18.2152C33.9144 18.0998 33.9803 17.9438 33.8732 17.6643C33.4818 16.6482 33.1371 15.6143 32.7032 14.6158C32.456 14.0473 32.0715 13.5304 31.7158 12.9457C31.2915 13.7054 30.9166 14.3838 30.5348 15.0581C30.197 15.655 29.7877 15.7134 29.2988 15.2426C28.9198 14.8749 28.5655 14.4747 28.1549 14.145C27.6742 13.7597 27.6234 13.331 27.8116 12.7883C28.137 11.8386 28.4117 10.8726 28.707 9.91613C27.0409 8.66358 25.1125 7.79489 23.0628 7.37364ZM19.1105 25.6446L19.1599 25.517C18.9273 25.3252 18.6813 25.1498 18.4239 24.992C17.6603 24.585 16.8762 24.2254 16.1113 23.8266C15.3464 23.4277 14.6584 22.9759 14.2546 22.1985C13.7479 21.2312 14.0102 20.2991 14.624 19.519C15.3156 18.6701 16.0708 17.8737 16.8831 17.1366C18.2041 15.902 19.587 14.7338 20.9177 13.5087C21.6348 12.8617 22.1719 12.0437 22.4778 11.1331C22.9763 9.61766 22.2979 8.30707 21.1141 7.22441C21.0372 7.16891 20.9443 7.13941 20.8491 7.14029C17.718 7.00462 14.8328 7.78337 12.2469 9.52811C9.31219 11.5076 7.39784 14.2264 6.52444 17.6318C6.30746 18.4784 6.20996 19.3548 6.05478 20.2353C6.78632 20.3031 7.47862 20.5931 8.03641 21.0656C8.98672 21.8403 9.91917 22.634 10.8612 23.4168C11.9928 24.3584 13.2068 25.1588 14.6336 25.5998C16.0873 26.06 17.6477 26.0756 19.1105 25.6446ZM41.3081 10.4656C41.1502 10.1549 40.9456 10.1319 40.6654 10.2255C40.1161 10.4113 39.5421 10.5551 38.9859 10.7356C38.8548 10.7862 38.7109 10.7949 38.5744 10.7606C38.438 10.7263 38.3158 10.6507 38.2251 10.5443C37.143 9.40601 36.0581 8.26908 34.9842 7.1213C34.6821 6.7984 34.7398 6.41444 35.1023 6.16074C35.2423 6.06915 35.3877 5.9858 35.5376 5.91111L40.6407 3.13798C40.1477 2.43927 40.1161 2.42841 39.3457 2.65634C37.3407 3.25193 35.333 3.83261 33.3363 4.45534C32.824 4.61544 32.4738 4.53675 32.1154 4.14194C31.3697 3.31706 30.5925 2.51388 29.8083 1.73105C29.6279 1.54442 29.3989 1.41062 29.1464 1.34439C28.6822 1.24399 28.2167 1.54519 27.9997 1.99969C27.8102 2.39992 27.8789 2.7703 28.251 3.12305C29.0887 3.91673 29.9278 4.71176 30.7888 5.48102C31.161 5.81206 31.2475 6.13767 31.0951 6.61659C30.4332 8.69373 29.8028 10.7804 29.1725 12.867C29.118 13.0242 29.1219 13.1954 29.1835 13.35C29.2988 13.5576 29.4966 13.7204 29.6875 13.9347C29.8138 13.7271 29.8893 13.6118 29.9621 13.4938C30.8776 11.8793 31.7904 10.2639 32.7004 8.6476C33.063 8.00452 33.431 7.94618 33.9858 8.45766C35.0501 9.43992 36.102 10.433 37.1718 11.4085C37.3141 11.5211 37.4159 11.676 37.4622 11.8502C37.5084 12.0244 37.4967 12.2088 37.4286 12.3759C37.257 12.9009 37.1224 13.4368 36.9356 13.9564C36.8354 14.2278 36.9054 14.4014 37.1828 14.5547C37.5797 13.837 37.9944 13.137 38.357 12.4111C38.5244 12.0629 38.8095 11.7832 39.1631 11.6202C39.8786 11.2633 40.5789 10.8604 41.3081 10.4656ZM24.6064 34.2773C31.8188 31.9872 35.0886 24.7274 34.1328 19.3819C33.0891 19.9151 32.294 20.603 32.2102 21.8783C32.1086 23.3246 31.5112 24.5836 30.598 25.7165C29.6367 26.9049 28.4968 27.8981 27.3337 28.8722C26.4914 29.5612 25.7687 30.3815 25.1941 31.3007C24.6265 32.1847 24.4167 33.2474 24.6064 34.2773Z" fill="white"/>
<path d="M16.3475 40.6893C15.838 40.5536 15.1445 40.403 14.473 40.1846C14.1447 40.0787 14.0225 39.7626 14.1365 39.4329C14.1556 39.3548 14.1902 39.2813 14.2385 39.2167C14.2867 39.152 14.3475 39.0975 14.4174 39.0564C14.4873 39.0154 14.5647 38.9885 14.6453 38.9774C14.7258 38.9664 14.8077 38.9713 14.8863 38.992C15.5006 39.115 16.1117 39.2507 16.7196 39.399C16.8864 39.4296 17.0349 39.5222 17.1346 39.6577C17.2342 39.7933 17.2774 39.9615 17.2552 40.1276C17.1975 40.4776 16.9297 40.6825 16.3475 40.6893Z" fill="white"/>
<path d="M39.0422 21.8948C39.0628 21.5651 39.0614 21.23 39.1081 20.903C39.1201 20.7347 39.1991 20.578 39.3278 20.4671C39.4565 20.3562 39.6244 20.3003 39.7948 20.3115C39.8796 20.3122 39.9635 20.33 40.0412 20.3638C40.1188 20.3976 40.1888 20.4466 40.2467 20.5079C40.3046 20.5692 40.3493 20.6414 40.3781 20.7203C40.4069 20.7992 40.4191 20.8831 40.4141 20.9668C40.4141 21.5746 40.399 22.1878 40.3455 22.7888C40.3043 23.2542 39.9884 23.5079 39.6053 23.4672C39.2221 23.4265 39.0106 23.1334 39.0175 22.6871C39.0175 22.4252 39.0491 22.1634 39.0656 21.9002L39.0422 21.8948Z" fill="white"/>
<path d="M21.7033 1.07446C22.2169 1.13823 22.7318 1.19114 23.2427 1.26983C23.4125 1.28571 23.5693 1.36624 23.6801 1.49437C23.7908 1.6225 23.8467 1.78818 23.836 1.95633C23.8311 2.04344 23.8086 2.12871 23.7697 2.20705C23.7309 2.28538 23.6764 2.35517 23.6097 2.41228C23.5429 2.46938 23.4652 2.51261 23.3811 2.5394C23.2971 2.56619 23.2084 2.57599 23.1205 2.56821C22.4929 2.52887 21.868 2.45289 21.2473 2.35385C21.1636 2.34439 21.0826 2.31836 21.0093 2.27732C20.936 2.23627 20.8717 2.18106 20.8205 2.11496C20.7692 2.04887 20.7319 1.97324 20.7109 1.89261C20.6899 1.81198 20.6855 1.72799 20.698 1.64564C20.7475 1.29561 21.0056 1.08939 21.408 1.08396C21.5055 1.08396 21.603 1.0921 21.7005 1.09617L21.7033 1.07446Z" fill="white"/>
<path d="M17.9391 1.17491C18.5557 1.15727 18.84 1.35671 18.8826 1.72709C18.9251 2.09747 18.7026 2.39323 18.2605 2.46921C17.6699 2.57096 17.0753 2.65237 16.4752 2.71749C16.3918 2.72912 16.3069 2.72426 16.2254 2.7032C16.1439 2.68214 16.0675 2.6453 16.0005 2.59481C15.9336 2.54431 15.8775 2.48118 15.8354 2.40908C15.7934 2.33698 15.7662 2.25735 15.7556 2.17481C15.7254 2.00977 15.7622 1.83963 15.8581 1.70124C15.954 1.56284 16.1012 1.46733 16.2678 1.43539C16.3888 1.40222 16.5117 1.3764 16.6359 1.35806C17.1247 1.28751 17.6068 1.22103 17.9391 1.17491Z" fill="white"/>
<path d="M14.164 2.99162C14.0802 3.0893 13.9635 3.33486 13.7698 3.43255C13.2192 3.6982 12.6555 3.93638 12.0807 4.14618C11.6852 4.29542 11.3501 4.14618 11.2073 3.8165C11.1717 3.73678 11.1529 3.65074 11.1519 3.56361C11.151 3.47647 11.168 3.39006 11.2019 3.30962C11.2358 3.22918 11.2859 3.15638 11.3492 3.09565C11.4124 3.03492 11.4875 2.98753 11.5699 2.95634C12.1123 2.7067 12.6685 2.47199 13.226 2.26984C13.6998 2.10025 14.1502 2.40144 14.164 2.99162Z" fill="white"/>
<path d="M0.142806 18.3253C0.21559 17.9182 0.304851 17.3145 0.432565 16.7216C0.447488 16.6356 0.480037 16.5536 0.528218 16.4804C0.576399 16.4073 0.639196 16.3447 0.712752 16.2964C0.786308 16.2482 0.869079 16.2152 0.955976 16.1997C1.04287 16.1842 1.13206 16.1863 1.21808 16.2061C1.5669 16.2712 1.78799 16.5954 1.72482 16.9902C1.63144 17.5628 1.53119 18.1326 1.41309 18.6997C1.32382 19.1366 1.02994 19.3496 0.65092 19.2885C0.271896 19.2275 0.109847 18.9548 0.142806 18.3253Z" fill="white"/>
<path d="M1.42822 23.1864C1.42822 23.2325 1.43646 23.3845 1.42822 23.5337C1.4306 23.6138 1.41671 23.6935 1.38735 23.7681C1.35798 23.8428 1.31375 23.9108 1.25728 23.9682C1.2008 24.0257 1.13323 24.0713 1.05856 24.1025C0.983896 24.1337 0.90366 24.1497 0.822605 24.1497C0.486152 24.1714 0.201881 23.995 0.157936 23.6477C0.0728815 22.9945 0.0220047 22.3375 0.00550421 21.6791C-0.00136217 21.3372 0.258186 21.1364 0.605625 21.1052C0.774433 21.0921 0.941599 21.1458 1.07036 21.2544C1.19913 21.363 1.27895 21.5178 1.29226 21.6845C1.35955 22.1458 1.37878 22.6152 1.42822 23.1864Z" fill="white"/>
<path d="M2.76715 28.2699C2.56802 28.4599 2.41147 28.6959 2.19175 28.7963C2.12541 28.83 2.0527 28.8497 1.97824 28.8542C1.90378 28.8587 1.82919 28.8478 1.75921 28.8223C1.68923 28.7968 1.62537 28.7572 1.5717 28.706C1.51803 28.6548 1.47571 28.5932 1.44743 28.525C1.18575 27.8896 0.959278 27.2405 0.769033 26.5808C0.68801 26.2945 0.88576 26.0503 1.17003 25.9309C1.4543 25.8115 1.78801 25.8522 1.9116 26.1182C2.22333 26.7816 2.46228 27.4844 2.76715 28.2699Z" fill="white"/>
<path d="M28.4762 38.1252C28.5367 38.0397 28.6136 37.8267 28.7756 37.7263C29.2727 37.4007 29.7905 37.0995 30.3178 36.8228C30.6996 36.622 31.0827 36.7346 31.2626 37.0466C31.4425 37.3587 31.3272 37.7535 30.933 37.9882C30.4565 38.2704 29.9717 38.5526 29.4842 38.8022C28.9967 39.0519 28.4598 38.7452 28.4762 38.1252Z" fill="white"/>
<path d="M35.1888 34.2274C35.0515 34.4689 34.9718 34.6683 34.8359 34.8094C34.472 35.1906 34.0888 35.5556 33.6988 35.9097C33.3623 36.2163 32.9517 36.215 32.6936 35.9341C32.4354 35.6533 32.4519 35.3019 32.7746 34.9844C33.1533 34.5791 33.5564 34.1968 33.9817 33.8394C34.0848 33.7682 34.2019 33.7193 34.3255 33.6959C34.449 33.6726 34.5761 33.6752 34.6985 33.7037C34.8867 33.7634 35.0158 34.032 35.1888 34.2274Z" fill="white"/>
<path d="M6.17151 8.2596C6.09956 8.44325 6.01228 8.62069 5.91058 8.79007C5.59015 9.20794 5.26102 9.61857 4.9232 10.022C4.61284 10.3896 4.2503 10.4575 3.93856 10.2309C3.62683 10.0043 3.57876 9.59732 3.87539 9.20794C4.21184 8.76836 4.56203 8.33693 4.9232 7.91906C5.11683 7.69791 5.39561 7.56495 5.67026 7.73861C5.87076 7.86072 6.01084 8.08458 6.17151 8.2596Z" fill="white"/>
<path d="M6.37061 34.0442C6.5622 34.1386 6.74588 34.2479 6.91992 34.3712C7.32366 34.709 7.71367 35.0631 8.10368 35.4172C8.42228 35.7062 8.47859 36.0955 8.25612 36.3669C8.01168 36.6735 7.6148 36.7128 7.25912 36.4184C6.80362 36.0596 6.37581 35.6678 5.97923 35.2462C5.90337 35.1397 5.85119 35.0185 5.8261 34.8906C5.80101 34.7627 5.80359 34.631 5.83366 34.5041C5.88172 34.3237 6.17011 34.2056 6.37061 34.0442Z" fill="white"/>
<path d="M20.573 39.6879C20.8656 39.6879 21.1581 39.6798 21.4506 39.6879C21.5278 39.6839 21.6052 39.695 21.6781 39.7205C21.7511 39.746 21.8182 39.7854 21.8757 39.8366C21.9333 39.8877 21.98 39.9496 22.0133 40.0186C22.0466 40.0876 22.0659 40.1624 22.0699 40.2388C22.118 40.6037 21.9477 40.9022 21.5797 40.9348C20.8876 40.9971 20.1921 41.0135 19.4978 40.9836C19.1627 40.9673 18.9677 40.6702 18.9897 40.3283C18.9932 40.1665 19.0599 40.0124 19.1758 39.8981C19.2918 39.7838 19.448 39.7182 19.6118 39.7151C19.9304 39.6852 20.2531 39.7083 20.573 39.7083V39.6879Z" fill="white"/>
<path d="M11.9736 39.2553C11.8036 39.2147 11.637 39.1617 11.4751 39.0966C11.004 38.8565 10.5358 38.6109 10.0743 38.3558C9.66235 38.1238 9.52502 37.7765 9.70904 37.4278C9.89306 37.0791 10.2584 36.9828 10.6813 37.1945C11.2013 37.4577 11.7154 37.7344 12.2235 38.0248C12.2899 38.0578 12.3491 38.1036 12.3975 38.1593C12.446 38.2151 12.4827 38.2798 12.5057 38.3497C12.5287 38.4196 12.5374 38.4933 12.5314 38.5665C12.5254 38.6397 12.5048 38.7111 12.4707 38.7764C12.365 38.9799 12.1274 39.1142 11.9736 39.2553Z" fill="white"/>
<path d="M3.38925 12.3421C3.34393 12.4846 3.30823 12.6311 3.25192 12.7681C3.05829 13.2091 2.85779 13.6473 2.65866 14.0855C2.45954 14.5237 2.10935 14.715 1.73857 14.5522C1.36778 14.3894 1.23733 14.034 1.43371 13.5767C1.65068 13.0707 1.88002 12.5687 2.12034 12.0762C2.27278 11.7682 2.56666 11.6122 2.88388 11.7425C3.10498 11.8334 3.26428 12.0721 3.45105 12.2444L3.38925 12.3421Z" fill="white"/>
<path d="M37.2473 29.7175C37.7967 29.7175 38.1537 30.149 37.956 30.5383C37.6393 31.1502 37.28 31.7395 36.8807 32.3021C36.6857 32.5802 36.3492 32.5965 36.0567 32.4038C35.9882 32.3668 35.9278 32.3166 35.8792 32.2562C35.8305 32.1958 35.7946 32.1264 35.7735 32.0521C35.7524 31.9778 35.7465 31.9 35.7562 31.8234C35.766 31.7468 35.7911 31.6729 35.8301 31.6061C36.1419 31.0376 36.4934 30.4895 36.8601 29.955C36.9466 29.8193 37.1704 29.7623 37.2473 29.7175Z" fill="white"/>
<path d="M3.52245 30.3132C3.68156 30.3886 3.82538 30.492 3.94679 30.6185C4.29011 31.0716 4.60322 31.5478 4.90808 32.0295C4.95979 32.0998 4.99654 32.1798 5.01614 32.2646C5.03573 32.3493 5.03776 32.4371 5.02211 32.5227C5.00646 32.6082 4.97345 32.6898 4.92506 32.7624C4.87667 32.835 4.8139 32.8972 4.74054 32.9453C4.66829 32.9954 4.58642 33.0303 4.49997 33.048C4.41351 33.0657 4.32431 33.0657 4.23786 33.048C4.1514 33.0304 4.06953 32.9954 3.99727 32.9453C3.92502 32.8952 3.8639 32.831 3.8177 32.7567C3.47576 32.2845 3.14205 31.807 2.85641 31.3036C2.57626 30.8396 2.87975 30.3227 3.52245 30.3132Z" fill="white"/>
<path d="M40.1436 17.7215C40.1436 18.2045 39.9788 18.4474 39.6341 18.5138C39.2894 18.5803 38.9804 18.4379 38.8857 18.0756C38.7277 17.4773 38.5863 16.8709 38.4847 16.2603C38.4256 15.9022 38.6385 15.6403 38.9969 15.5603C39.3553 15.4802 39.6382 15.6267 39.733 15.9578C39.9101 16.5792 40.0296 17.2168 40.1436 17.7215Z" fill="white"/>
<path d="M38.6234 28.175C38.5213 28.1766 38.4203 28.1543 38.3286 28.11C38.2369 28.0657 38.1571 28.0007 38.0957 27.9201C38.0342 27.8396 37.9929 27.7459 37.9751 27.6466C37.9573 27.5473 37.9634 27.4453 37.993 27.3488C38.1469 26.7911 38.3199 26.239 38.508 25.6909C38.5313 25.6033 38.5729 25.5216 38.6303 25.4511C38.6877 25.3806 38.7595 25.3228 38.841 25.2816C38.9226 25.2404 39.012 25.2166 39.1034 25.2118C39.1949 25.2071 39.2864 25.2214 39.3718 25.254C39.7041 25.3734 39.8717 25.7193 39.7604 26.1033C39.6121 26.6188 39.4538 27.1321 39.2853 27.6432C39.1658 28.0054 38.9379 28.1777 38.6234 28.175Z" fill="white"/>
<path d="M24.6942 40.5224C24.1971 40.5224 23.9664 40.3406 23.8881 40.0082C23.8426 39.8668 23.8555 39.7133 23.9239 39.5812C23.9923 39.4491 24.1107 39.349 24.2534 39.3027C24.8852 39.1001 25.5268 38.9289 26.176 38.7898C26.5028 38.7179 26.7486 38.9174 26.8407 39.2253C26.9327 39.5333 26.8626 39.8481 26.5454 39.9607C25.9 40.1913 25.2284 40.3636 24.6942 40.5224Z" fill="white"/>
<path d="M9.83266 5.089C9.67199 5.32371 9.5841 5.53536 9.42892 5.6656C9.01694 6.01292 8.57199 6.33311 8.13117 6.65058C7.77275 6.90836 7.39373 6.87173 7.15752 6.57868C6.92132 6.28563 6.98723 5.87318 7.34154 5.59913C7.76128 5.25474 8.20003 4.93362 8.65576 4.63722C8.86986 4.52138 9.1217 4.49406 9.35614 4.56124C9.53741 4.62365 9.65276 4.87735 9.83266 5.089Z" fill="white"/>
</svg>
