<svg width="43" height="33" viewBox="0 0 43 33" fill="none" xmlns="http://www.w3.org/2000/svg">
<path d="M0.78125 0.5625V32.4375H42.2188V0.5625H0.78125ZM3.96875 3.75H39.0312V6.9375H3.96875V3.75ZM3.96875 10.125H39.0312V29.25H3.96875V10.125ZM29.4688 11.7188V13.4121C27.6758 13.7109 26.2812 15.23 26.2812 17.0977C26.2812 18.2992 26.9474 19.4011 28.0244 19.9365L32.6562 22.2773C32.6562 22.6322 32.4135 22.875 32.0586 22.875H30.0664C29.7115 22.875 29.4688 22.6322 29.4688 22.2773V21.2812H26.2812V22.2773C26.2812 24.145 27.6758 25.6641 29.4688 25.9629V27.6562H32.6562V25.9629C34.4492 25.6641 35.8438 24.145 35.8438 22.2773C35.8438 21.0758 35.1776 19.9801 34.1006 19.4385L29.4688 17.0977C29.4688 16.7428 29.7115 16.5 30.0664 16.5H32.0586C32.4135 16.5 32.6562 16.7428 32.6562 17.0977V18.0938H35.8438V17.0977C35.8438 15.23 34.4492 13.7109 32.6562 13.4121V11.7188H29.4688ZM7.15625 22.875V26.0625H21.5V22.875H7.15625Z" fill="white"/>
</svg>
