<svg width="51" height="29" viewBox="0 0 51 29" fill="none" xmlns="http://www.w3.org/2000/svg">
<path d="M51 27.8205C50.6444 28.6892 49.987 29.0597 49.0438 28.9922C48.6696 28.9652 48.2803 28.9922 47.8986 28.9861C46.9367 28.9701 46.3479 28.4953 46.152 27.5763C46.041 27.0671 45.9437 26.5555 45.8426 26.0438C45.6829 25.2401 45.4683 25.0622 44.6412 25.0622H6.3463C5.54538 25.0622 5.31832 25.25 5.16861 26.0119C5.06756 26.5236 4.96776 27.0352 4.86047 27.5444C4.66253 28.4933 4.06952 28.973 3.08146 28.9836C2.58244 28.9898 2.08342 28.9959 1.58439 28.9836C0.642492 28.9591 0.00124755 28.3199 0 27.3886C0 23.7322 0 20.0758 0 16.4194C0 15.4759 0.470331 14.7605 1.15773 14.1863C1.67006 13.7744 2.21628 13.405 2.79078 13.082C3.0852 12.9102 3.19998 12.7397 3.19873 12.3998C3.18501 9.13484 3.19 5.87108 3.19124 2.6061C3.19124 0.934957 4.13813 0 5.83855 0C18.9495 0 32.0609 0 45.1727 0C46.8668 0 47.8087 0.93741 47.8087 2.61714C47.8087 5.849 47.8187 9.08085 47.7975 12.3103C47.7975 12.7336 47.9348 12.9434 48.3065 13.1299C49.1798 13.5716 49.9832 14.1311 50.5322 14.9618C50.7039 15.2529 50.8601 15.5527 51 15.8599V27.8205ZM1.51079 27.5051H2.34166C3.3185 27.5051 3.31724 27.5051 3.50562 26.5628C3.55677 26.3064 3.6229 26.0536 3.6753 25.7984C4.00215 24.2033 4.77813 23.5714 6.41991 23.5714H44.5676C44.7497 23.5714 44.9331 23.58 45.114 23.5948C46.1732 23.6868 46.9417 24.3052 47.2087 25.3211C47.3659 25.9199 47.4582 26.5321 47.6091 27.1334C47.6416 27.2671 47.7638 27.4769 47.8587 27.4831C48.3963 27.5162 48.9378 27.499 49.473 27.499V21.1408C48.1955 21.1408 46.9529 21.1408 45.7091 21.1408C45.0716 21.1408 44.7385 20.8831 44.7248 20.412C44.7098 19.9151 45.0392 19.65 45.7129 19.6414C46.5101 19.6329 47.3072 19.6414 48.1032 19.6414H49.5067C49.5067 18.7016 49.4655 17.8366 49.5179 16.9764C49.5716 16.0918 49.1848 15.4857 48.4899 14.9937C47.2049 14.0832 45.7453 13.5618 44.2482 13.1225C39.9018 11.8452 35.4268 11.3274 30.9206 11.0821C25.8269 10.8048 20.7356 10.8821 15.6593 11.4501C12.8748 11.7606 10.1127 12.1863 7.41047 12.936C5.6639 13.417 3.951 13.9642 2.46517 15.0305C2.01605 15.3519 1.55944 15.7298 1.53075 16.2992C1.47461 17.4034 1.51453 18.5077 1.51453 19.6439H2.24934C15.3977 19.6439 28.5453 19.6439 41.692 19.6439C41.9415 19.6439 42.2322 19.5985 42.4231 19.7077C42.6638 19.8463 42.9608 20.1151 42.9757 20.3445C42.9907 20.5739 42.7399 20.8942 42.5154 21.0463C42.3245 21.1752 42.0051 21.142 41.7431 21.142C28.5457 21.142 15.3482 21.142 2.15078 21.142H1.5083L1.51079 27.5051ZM25.4963 5.04165C25.8054 4.68782 26.19 4.4054 26.6228 4.21453C27.0556 4.02365 27.5259 3.92902 28.0001 3.93737C31.9336 3.92633 35.8672 3.91774 39.7995 3.93737C41.46 3.94719 42.7936 5.00238 42.9458 6.56678C43.0893 8.07228 43.3013 9.62441 42.5541 11.0882L46.3154 12.1839V11.7851C46.3154 8.74957 46.3154 5.71362 46.3154 2.67726C46.3154 1.77544 46.0198 1.49078 45.0828 1.49078H5.89594C4.974 1.49078 4.68581 1.78157 4.68581 2.69935C4.68581 5.26209 4.68581 7.82484 4.68581 10.3876V12.1851L8.48336 11.0722C8.01803 10.352 7.94318 9.58392 7.97187 8.79129C7.98684 8.33485 7.97187 7.87719 7.97187 7.42076C7.97187 5.19502 9.2581 3.92878 11.5162 3.92755C15.2014 3.92755 18.8855 3.93492 22.5695 3.92755C23.6773 3.91896 24.6804 4.13982 25.4963 5.04042V5.04165ZM24.7016 9.50294C24.7016 8.48455 24.7278 7.59008 24.6841 6.69807C24.6716 6.45267 24.4845 6.18028 24.3098 5.97047C23.9356 5.50913 23.3966 5.41956 22.8302 5.42078C19.0119 5.42078 15.1935 5.42078 11.3752 5.42078C11.2082 5.4218 11.0415 5.4341 10.8762 5.45759C10.2012 5.54962 9.60117 6.00851 9.55626 6.66494C9.4839 7.70173 9.44024 8.75939 9.57747 9.78269C9.67852 10.5373 10.049 10.7925 10.8737 10.6416C14.6918 9.95518 18.5603 9.57439 22.441 9.50294C23.1908 9.48821 23.9331 9.50294 24.7016 9.50294ZM26.2959 9.4011C26.4843 9.41705 26.6465 9.43545 26.8087 9.44159C28.181 9.49557 29.567 9.48085 30.9356 9.61336C33.9846 9.90906 37.0286 10.2661 40.0702 10.6281C40.9173 10.7287 41.3414 10.5287 41.4425 9.68943C41.5335 8.96552 41.5111 8.22565 41.5161 7.49315C41.5248 5.99378 40.9385 5.42201 39.4152 5.42201C35.7125 5.42201 32.0114 5.42201 28.312 5.42201C28.0615 5.41903 27.8113 5.43544 27.5634 5.47109C26.9397 5.56925 26.3471 6.08458 26.3059 6.69807C26.2548 7.58885 26.2972 8.48454 26.2972 9.4011H26.2959Z" fill="white"/>
</svg>
