<svg width="51" height="38" viewBox="0 0 51 38" fill="none" xmlns="http://www.w3.org/2000/svg">
<g clip-path="url(#clip0_1590_24908)">
<path d="M50.9985 37.4993C50.7323 37.8957 50.369 38.0001 49.8979 38.0001C33.632 37.9913 17.3658 37.9904 1.09902 37.9975C0.983241 37.9975 0.866131 37.9975 0.750352 37.9975C0.549566 37.9906 0.359246 37.9069 0.21931 37.7637C0.0793751 37.6206 0.00069832 37.4292 -0.000215941 37.2298C-0.00716768 37.1267 0.00735855 37.0233 0.0424557 36.926C0.0775529 36.8287 0.132468 36.7397 0.203773 36.6644C0.275077 36.5891 0.361241 36.5293 0.456885 36.4886C0.55253 36.4478 0.655601 36.4271 0.759667 36.4277C1.50491 36.4092 2.25016 36.4277 3.06593 36.4277V10.1452C3.06593 9.99725 3.06593 9.84926 3.06593 9.70127C3.07791 8.97454 3.33209 8.72085 4.05604 8.72085C7.19406 8.72085 10.3307 8.71424 13.4674 8.72746C13.6369 8.73861 13.8066 8.71024 13.963 8.64462C14.1195 8.579 14.2583 8.47795 14.3684 8.34955C16.7691 5.72893 19.1792 3.11667 21.5986 0.512773C22.24 -0.182244 22.6392 -0.171671 23.2581 0.556379C30.046 8.53719 36.833 16.5184 43.6192 24.5001C43.7057 24.6005 43.7935 24.6983 43.8721 24.8053C44.1702 25.2136 44.1249 25.6365 43.7563 25.9417C43.3876 26.2469 43.0057 26.198 42.6677 25.8095C42.0023 25.0511 41.3582 24.2768 40.7048 23.5091C40.5783 23.3625 40.4493 23.2197 40.2576 23.0017V36.3828H45.7032C45.8363 35.59 45.8363 35.59 45.1709 35.2597C44.6324 34.9962 44.1908 34.5714 43.9086 34.0453C43.6264 33.5192 43.5177 32.9184 43.5979 32.3276C43.8135 30.4302 44.069 28.5407 44.7171 26.7292C44.8419 26.372 44.9978 26.0263 45.1829 25.6959C45.8975 24.4525 46.857 24.4195 47.5104 25.6853C47.944 26.5344 48.2669 27.4349 48.4713 28.365C48.7774 29.759 48.9623 31.1821 49.1433 32.6012C49.2764 33.6437 48.6004 34.8065 47.5597 35.2266C46.9595 35.4698 46.8544 35.8054 47.0034 36.4158C47.9549 36.4158 48.9277 36.4356 49.8992 36.4079C50.3703 36.3934 50.739 36.511 50.9985 36.9087V37.4993ZM22.3864 1.99794L16.1157 8.71953H18.9263C19.8685 8.71953 20.1041 8.95076 20.1054 9.87701V20.548H38.2042L22.3864 1.99794ZM4.69349 10.3157V36.3788H8.46762V35.7578C8.46762 28.6878 8.46762 21.617 8.46762 14.5452C8.46762 13.7036 8.7085 13.467 9.56287 13.467H15.7883C16.7971 13.467 17.0127 13.6798 17.0127 14.6787C17.0127 21.717 17.0127 28.7552 17.0127 35.7935V36.3854H18.4978V10.3157H4.69349ZM27.8613 22.1812V36.3815H38.5941V22.1812H27.8613ZM20.1427 22.1812V36.3815H26.2643V22.1838L20.1427 22.1812ZM15.3984 29.2767V15.0791H10.0912V29.2767H15.3984ZM10.0899 30.8914V36.3722H15.413V30.8914H10.0899ZM46.9182 34.1656C47.5916 33.9013 47.9603 33.2988 47.8884 32.4756C47.7379 30.624 47.3772 28.7951 46.8131 27.0238C46.7 26.6777 46.5203 26.3526 46.3101 25.8822C46.1251 26.2786 45.9681 26.5191 45.9029 26.7794C45.5608 28.1483 45.1935 29.5119 44.9327 30.8967C44.8134 31.6547 44.7803 32.4237 44.8342 33.1892C44.8529 33.6344 45.1882 33.9582 45.626 34.2092C45.6646 33.8049 45.638 33.4587 45.7471 33.1627C45.8217 32.9619 46.0878 32.7069 46.2702 32.7055C46.4525 32.7042 46.7293 32.9553 46.8025 33.1535C46.9089 33.464 46.8836 33.8247 46.9182 34.1656Z" fill="white"/>
</g>
<defs>
<clipPath id="clip0_1590_24908">
<rect width="51" height="38" fill="white"/>
</clipPath>
</defs>
</svg>
