<svg width="22" height="20" viewBox="0 0 22 20" fill="none" xmlns="http://www.w3.org/2000/svg">
<path d="M10 0.875C6.238 0.875 2.83059 2.42422 0.381836 4.91797L1.44238 5.97852C3.61888 3.75777 6.65125 2.375 10 2.375C13.3488 2.375 16.3811 3.75777 18.5576 5.97852L19.6182 4.91797C17.1694 2.42422 13.762 0.875 10 0.875ZM10 4.625C7.26925 4.625 4.80245 5.75584 3.0332 7.56934L4.09082 8.62988C5.59082 7.08563 7.6855 6.125 10 6.125C11.2615 6.125 12.4542 6.4192 13.5244 6.9292C14.2212 6.6847 14.9631 6.54018 15.7363 6.51318C14.1261 5.33193 12.148 4.625 10 4.625ZM16 8C12.7 8 10 10.7 10 14C10 17.3 12.7 20 16 20C19.3 20 22 17.3 22 14C22 10.7 19.3 8 16 8ZM10 8.375C8.3035 8.375 6.77439 9.0837 5.68164 10.2207L6.74219 11.2783C7.50569 10.4773 8.55886 9.95865 9.73486 9.88965C10.0821 9.36165 10.4967 8.88371 10.9624 8.45996C10.6482 8.40896 10.3285 8.375 10 8.375ZM16 9.5C18.475 9.5 20.5 11.525 20.5 14C20.5 16.475 18.475 18.5 16 18.5C13.525 18.5 11.5 16.475 11.5 14C11.5 11.525 13.525 9.5 16 9.5ZM18.4756 11.9756L16 14.4497L14.2744 12.7256L13.2256 13.7744L16 16.5503L19.5244 13.0244L18.4756 11.9756ZM8.63623 12.5996C8.52898 12.6829 8.42669 12.7716 8.33594 12.8721L8.56006 13.0962C8.58031 12.9289 8.60548 12.7631 8.63623 12.5996Z" fill="#1D3C86"/>
</svg>
