<svg xmlns="http://www.w3.org/2000/svg"><defs><filter id="svgstoredfd0488ebc611a1ddf65ce23a88da9c8Adobe_OpacityMaskFilter" filterUnits="userSpaceOnUse" x="1.249" y="-.423" width="12.672" height="15.061"><fecolormatrix values="1 0 0 0 0 0 1 0 0 0 0 0 1 0 0 0 0 0 1 0"/></filter><filter id="svgstoredfd0488ebc611a1ddf65ce23a88da9c8Adobe_OpacityMaskFilter" filterUnits="userSpaceOnUse" x="1.249" y="-.423" width="12.672" height="15.061"><fecolormatrix values="1 0 0 0 0 0 1 0 0 0 0 0 1 0 0 0 0 0 1 0"/></filter><filter id="svgstore024a810d8db50abdcf30244623551660Adobe_OpacityMaskFilter" filterUnits="userSpaceOnUse" x="1.106" y="1.31" width="10.05" height="12.032"><fecolormatrix values="1 0 0 0 0 0 1 0 0 0 0 0 1 0 0 0 0 0 1 0"/></filter><filter id="svgstore024a810d8db50abdcf30244623551660Adobe_OpacityMaskFilter" filterUnits="userSpaceOnUse" x="1.106" y="1.31" width="10.05" height="12.032"><fecolormatrix values="1 0 0 0 0 0 1 0 0 0 0 0 1 0 0 0 0 0 1 0"/></filter></defs><symbol viewBox="-0.415 -0.893 16 16" id="adv"><title>adv</title><path id="svgstoredfd0488ebc611a1ddf65ce23a88da9c8Fill-1" d="M7.585 14.128c-3.214 0-5.83-2.635-5.83-5.87 0-3.238 2.616-5.873 5.83-5.873 3.213 0 5.828 2.634 5.828 5.872 0 3.236-2.615 5.87-5.828 5.87M7.078.598c0-.28.23-.51.507-.51s.507.23.507.51-.23.512-.507.512-.507-.23-.507-.512m.76 1.284v-.3c.437-.114.76-.51.76-.984 0-.564-.453-1.02-1.013-1.02-.56 0-1.014.456-1.014 1.02 0 .475.326.87.762.985v.3c-3.376.132-6.083 2.94-6.083 6.374 0 3.52 2.84 6.38 6.335 6.38 3.494 0 6.336-2.86 6.336-6.38 0-3.434-2.706-6.242-6.082-6.375"/><path id="svgstoredfd0488ebc611a1ddf65ce23a88da9c8Fill-4" d="M8.59 8.907L6.94 7.243l3.305-1.664L8.59 8.906zm-3.664 2.028l1.652-3.33L8.23 9.27l-3.304 1.665zm5.77-6.156l-4.3 2.166c-.007.002-.01.01-.018.015-.017.012-.03.025-.045.04-.016.016-.028.028-.038.046-.005.008-.01.01-.015.018l-2.152 4.332c-.048.098-.03.217.048.294.048.05.114.074.18.074.038 0 .076-.008.114-.028l4.3-2.167c.008-.004.01-.012.018-.017.018-.01.03-.022.046-.038s.028-.027.038-.046c.006-.01.01-.012.016-.02l2.15-4.33c.05-.098.03-.218-.047-.295-.078-.076-.194-.094-.294-.046z"/></symbol><symbol viewBox="-0.415 -0.893 16 16" id="adventure"><title>adventure</title><path id="svgstoredfd0488ebc611a1ddf65ce23a88da9c8Fill-1" d="M7.585 14.128c-3.214 0-5.83-2.635-5.83-5.87 0-3.238 2.616-5.873 5.83-5.873 3.213 0 5.828 2.634 5.828 5.872 0 3.236-2.615 5.87-5.828 5.87M7.078.598c0-.28.23-.51.507-.51s.507.23.507.51-.23.512-.507.512-.507-.23-.507-.512m.76 1.284v-.3c.437-.114.76-.51.76-.984 0-.564-.453-1.02-1.013-1.02-.56 0-1.014.456-1.014 1.02 0 .475.326.87.762.985v.3c-3.376.132-6.083 2.94-6.083 6.374 0 3.52 2.84 6.38 6.335 6.38 3.494 0 6.336-2.86 6.336-6.38 0-3.434-2.706-6.242-6.082-6.375"/><path id="svgstoredfd0488ebc611a1ddf65ce23a88da9c8Fill-4" d="M8.59 8.907L6.94 7.243l3.305-1.664L8.59 8.906zm-3.664 2.028l1.652-3.33L8.23 9.27l-3.304 1.665zm5.77-6.156l-4.3 2.166c-.007.002-.01.01-.018.015-.017.012-.03.025-.045.04-.016.016-.028.028-.038.046-.005.008-.01.01-.015.018l-2.152 4.332c-.048.098-.03.217.048.294.048.05.114.074.18.074.038 0 .076-.008.114-.028l4.3-2.167c.008-.004.01-.012.018-.017.018-.01.03-.022.046-.038s.028-.027.038-.046c.006-.01.01-.012.016-.02l2.15-4.33c.05-.098.03-.218-.047-.295-.078-.076-.194-.094-.294-.046z"/></symbol><symbol viewBox="0 -0.298 10 6.298" id="arrow-down"><title>arrow-down</title><path d="M5.164 6.052L.89.298l.804-.596 3.47 4.672 3.47-4.672.802.596z" id="svgstored3dd3cb378c05cdec7e9a8c67634f984Page-1"/></symbol><symbol viewBox="0 0 26 14" id="arrow-right-large"><title>Page 1</title><desc>Created with Sketch.</desc><g id="svgstore93c198043476803490c13d7f21e908cbPage-1" stroke="#0F3D8B" fill="none"><path d="M17.51 12.52l8.08-5.76L17.51 1" id="svgstore93c198043476803490c13d7f21e908cbStroke-1"/><path d="M25.47 6.76H0" id="svgstore93c198043476803490c13d7f21e908cbStroke-3"/></g></symbol><symbol viewBox="0 0 6.396 10" id="arrow-right"><title>arrow-right</title><path d="M.643 8.922L.047 8.12 4.72 4.65.046 1.18.643.38 6.396 4.65z" id="svgstore0de8c54def2df198355031b5f009ec3aPage-1"/></symbol><symbol viewBox="269.219 312.732 653 40" id="article-logo"><title>article-logo</title><path d="M306.698 350.982h-4.218v-29.678l-10.918 29.182h-3.474l-10.918-29.43v29.926h-4.218v-35.188h6.353l10.62 28.636 10.57-28.636h6.204l-.002 35.188zM358.743 350.982h-4.566l-2.878-8.337h-15.287l-2.83 8.337h-4.466l12.407-35.188h5.16l12.46 35.188zm-8.884-12.506l-6.254-18.263-6.204 18.263h12.457zM406.768 333.364c0 6.52-1.506 11.216-4.516 14.095-2.45 2.35-5.526 3.522-9.23 3.522h-12.26v-35.188h12.26c3.672 0 6.75 1.19 9.23 3.573 3.01 2.848 4.516 7.513 4.516 13.997zm-4.467 0c0-2.415-.188-4.54-.57-6.377-.38-1.836-1.198-3.4-2.456-4.69-1.62-1.62-3.706-2.432-6.254-2.432h-7.84v27.048h7.84c2.548 0 4.633-.81 6.254-2.432 2.018-2.05 3.027-5.756 3.027-11.116zM454.053 350.982H430.53v-35.188h23.523v4.07h-19.106v10.72h16.773v4.168h-16.773v12.16h19.106v4.07zM533.41 341.156c0 2.515-.896 4.715-2.682 6.6-1.984 2.152-4.93 3.227-8.832 3.227h-14.194v-35.187h14.045c3.77 0 6.633 1.076 8.585 3.226 1.52 1.688 2.283 3.64 2.283 5.856 0 1.754-.447 3.35-1.34 4.79-.894 1.438-2.135 2.44-3.723 3 1.787.597 3.208 1.69 4.27 3.276 1.057 1.59 1.587 3.326 1.587 5.212zm-5.31-15.93c0-1.754-.613-3.11-1.837-4.07-1.225-.96-2.73-1.44-4.516-1.44h-9.728v11.068h9.876c1.918 0 3.432-.455 4.54-1.365 1.108-.91 1.663-2.31 1.663-4.195zm.793 15.632c0-1.886-.66-3.39-1.984-4.517-1.325-1.123-2.962-1.686-4.914-1.686h-9.976v12.258h9.877c2.05 0 3.73-.513 5.036-1.54 1.306-1.023 1.96-2.53 1.96-4.514zM580.01 315.796l-11.812 20.894v14.292h-4.467V336.69l-11.81-20.894h4.962l9.23 16.725 9.182-16.724h4.716zM656.835 350.982h-6.7l-2.284-6.75H633.86l-2.283 6.75h-6.45l12.356-35.188h6.998l12.357 35.188zm-10.97-12.506l-5.012-14.84-5.014 14.84h10.026zM704.806 350.982h-6.948l-5.855-13.3h-7.79v13.3h-6.454v-35.188h14.84c3.97 0 6.997 1.05 9.08 3.15 2.085 2.103 3.128 4.69 3.128 7.768 0 2.316-.588 4.36-1.762 6.13-1.176 1.77-2.738 3.02-4.69 3.746l6.45 14.394zm-6.403-24.268c0-1.49-.53-2.746-1.588-3.772-1.062-1.025-2.468-1.54-4.22-1.54h-8.438v10.522h8.537c1.817 0 3.225-.455 4.217-1.365.997-.91 1.493-2.19 1.493-3.846zM751.534 321.75h-10.422v29.232h-6.402v-29.23h-10.422v-5.957h27.246v5.956zM779.073 350.982h-6.502v-35.188h6.503v35.188zM829.57 339.767c-.33 3.176-1.458 5.74-3.376 7.692-2.714 2.778-6.07 4.167-10.074 4.167-4.037 0-7.36-1.307-9.976-3.92-1.754-1.753-2.922-3.747-3.5-5.98-.577-2.233-.866-5.004-.866-8.312s.29-6.08.866-8.313c.578-2.233 1.746-4.226 3.5-5.98 2.646-2.646 5.972-3.97 9.976-3.97 4.07 0 7.428 1.357 10.074 4.07 1.918 1.952 3.045 4.5 3.375 7.642h-6.553c-.133-1.356-.662-2.597-1.588-3.722-1.16-1.455-2.93-2.184-5.312-2.184-2.15 0-3.953.778-5.41 2.333-.76.795-1.332 1.855-1.71 3.177-.382 1.324-.597 2.432-.647 3.325-.048.894-.072 2.102-.072 3.623 0 1.522.024 2.73.073 3.623.053.894.268 2.002.647 3.325.38 1.324.95 2.382 1.71 3.176 1.458 1.555 3.26 2.332 5.41 2.332 2.35 0 4.12-.744 5.312-2.233.925-1.125 1.454-2.416 1.587-3.872h6.552zM874.19 350.982h-22.73v-35.188h6.402v29.132h16.328v6.056zM920.358 350.982h-25.062v-35.188h25.062v5.807h-18.66v8.19h16.428v5.756h-16.428v9.628h18.66v5.808z"/></symbol><symbol viewBox="0.5 1 16 16" id="bea"><title>bea</title><path id="svgstore024a810d8db50abdcf30244623551660Fill-1" d="M9.043 6.535c-2.78 2.305-3.67 4.435-3.698 4.508l-.508.988c-.138.27-.317.475-.53.607-.567.355-1.32.314-1.87-.1l-.188-.143c-.73-.55-.892-1.573-.36-2.28.1-.13.3-.318.513-.518.33-.308.702-.66.93-1 .39-.59.798-1.47 1.014-2.188.33-1.1.563-1.673.933-2.277.315-.516.674-.96 1.063-1.31C7.82 1.476 9.055 1.666 9.83 2.06c.088.046.172.097.248.155.248.187.426.427.514.698.562 1.69-1.533 3.606-1.55 3.62m1.993-3.755c-.156-.474-.52-.885-1.002-1.13-.742-.38-2.253-.778-4.015.823-.42.38-.805.855-1.143 1.41-.39.64-.64 1.242-.98 2.383-.2.67-.595 1.522-.96 2.07-.196.296-.55.63-.862.92-.236.222-.443.414-.563.572-.685.91-.48 2.226.46 2.932l.19.144c.706.532 1.67.586 2.403.13.28-.178.516-.44.692-.78l.518-1.007c.01-.02.892-2.124 3.583-4.358.097-.087 2.337-2.13 1.68-4.11"/><path id="svgstore024a810d8db50abdcf30244623551660Fill-4" d="M9.494 3.205c.076-.1.053-.248-.05-.327-.106-.078-.253-.06-.33.04L8.68 3.5c-.31-.15-.855-.317-1.49-.118-1.087.34-1.956 1.586-2.58 3.708-.027.097.01.197.088.255.02.016.046.03.072.038.124.04.255-.027.29-.15.72-2.447 1.634-3.2 2.273-3.405.744-.235 1.328.184 1.35.2.345.262.51.55.5.875-.026.955-1.51 2.075-2.082 2.425-.11.067-.14.21-.068.32s.215.143.324.077c.093-.057 2.257-1.402 2.294-2.798.014-.438-.18-.83-.572-1.167l.418-.555z"/><defs><filter id="svgstore024a810d8db50abdcf30244623551660Adobe_OpacityMaskFilter_1_" filterUnits="userSpaceOnUse" x="5.551" y="4.784" width="10.343" height="11.905"><fecolormatrix values="1 0 0 0 0 0 1 0 0 0 0 0 1 0 0 0 0 0 1 0"/></filter></defs><path id="svgstore024a810d8db50abdcf30244623551660Fill-6" d="M13.988 10.696c-.48.522-.965.904-1.93 1.524-.633.404-1.367 1.04-1.824 1.58-.266.31-.5.766-.707 1.168-.133.258-.256.503-.355.634-.533.707-1.56.835-2.29.285l-.19-.144c-.55-.415-.797-1.126-.61-1.77.067-.24.22-.474.436-.678l.795-.748c.076-.062 1.88-1.502 3.325-4.8.012-.026 1.27-2.57 3.06-2.497.284.01.563.116.81.303.08.06.15.124.216.194.594.637 1.12 1.773.236 3.564-.235.477-.562.94-.972 1.386m1.393-1.17c1.054-2.132.253-3.476-.317-4.087-.365-.396-.863-.633-1.36-.654-2.083-.086-3.433 2.632-3.49 2.756-1.403 3.196-3.18 4.623-3.213 4.65l-.81.76c-.28.263-.468.56-.562.88-.235.827.08 1.743.787 2.275l.19.143c.937.708 2.26.543 2.943-.366.12-.16.25-.41.396-.698.195-.382.416-.812.648-1.084.428-.5 1.135-1.113 1.723-1.492 1.002-.642 1.512-1.045 2.02-1.6.442-.47.794-.97 1.046-1.483"/><path id="svgstore024a810d8db50abdcf30244623551660Fill-9" d="M13.66 7.254l.438-.58c.076-.102.053-.25-.05-.327-.106-.08-.253-.06-.33.04l-.417.556c-.43-.284-.854-.36-1.272-.223-1.316.43-1.977 2.918-2.004 3.025-.03.124.045.253.168.29.125.033.254-.04.287-.16.17-.656.808-2.418 1.706-2.71.307-.1.62-.022.963.236.005.006.616.48.597 1.297-.02.97-.926 2.048-2.615 3.12-.107.067-.137.21-.062.318.014.023.033.043.055.06.078.06.184.066.27.013 1.848-1.173 2.797-2.344 2.824-3.488.012-.7-.32-1.2-.56-1.466"/></symbol><symbol viewBox="0.5 1 16 16" id="beach"><title>beach</title><path id="svgstore024a810d8db50abdcf30244623551660Fill-1" d="M9.043 6.535c-2.78 2.305-3.67 4.435-3.698 4.508l-.508.988c-.138.27-.317.475-.53.607-.567.355-1.32.314-1.87-.1l-.188-.143c-.73-.55-.892-1.573-.36-2.28.1-.13.3-.318.513-.518.33-.308.702-.66.93-1 .39-.59.798-1.47 1.014-2.188.33-1.1.563-1.673.933-2.277.315-.516.674-.96 1.063-1.31C7.82 1.476 9.055 1.666 9.83 2.06c.088.046.172.097.248.155.248.187.426.427.514.698.562 1.69-1.533 3.606-1.55 3.62m1.993-3.755c-.156-.474-.52-.885-1.002-1.13-.742-.38-2.253-.778-4.015.823-.42.38-.805.855-1.143 1.41-.39.64-.64 1.242-.98 2.383-.2.67-.595 1.522-.96 2.07-.196.296-.55.63-.862.92-.236.222-.443.414-.563.572-.685.91-.48 2.226.46 2.932l.19.144c.706.532 1.67.586 2.403.13.28-.178.516-.44.692-.78l.518-1.007c.01-.02.892-2.124 3.583-4.358.097-.087 2.337-2.13 1.68-4.11"/><path id="svgstore024a810d8db50abdcf30244623551660Fill-4" d="M9.494 3.205c.076-.1.053-.248-.05-.327-.106-.078-.253-.06-.33.04L8.68 3.5c-.31-.15-.855-.317-1.49-.118-1.087.34-1.956 1.586-2.58 3.708-.027.097.01.197.088.255.02.016.046.03.072.038.124.04.255-.027.29-.15.72-2.447 1.634-3.2 2.273-3.405.744-.235 1.328.184 1.35.2.345.262.51.55.5.875-.026.955-1.51 2.075-2.082 2.425-.11.067-.14.21-.068.32s.215.143.324.077c.093-.057 2.257-1.402 2.294-2.798.014-.438-.18-.83-.572-1.167l.418-.555z"/><defs><filter id="svgstore024a810d8db50abdcf30244623551660Adobe_OpacityMaskFilter_1_" filterUnits="userSpaceOnUse" x="5.551" y="4.784" width="10.343" height="11.905"><fecolormatrix values="1 0 0 0 0 0 1 0 0 0 0 0 1 0 0 0 0 0 1 0"/></filter></defs><path id="svgstore024a810d8db50abdcf30244623551660Fill-6" d="M13.988 10.696c-.48.522-.965.904-1.93 1.524-.633.404-1.367 1.04-1.824 1.58-.266.31-.5.766-.707 1.168-.133.258-.256.503-.355.634-.533.707-1.56.835-2.29.285l-.19-.144c-.55-.415-.797-1.126-.61-1.77.067-.24.22-.474.436-.678l.795-.748c.076-.062 1.88-1.502 3.325-4.8.012-.026 1.27-2.57 3.06-2.497.284.01.563.116.81.303.08.06.15.124.216.194.594.637 1.12 1.773.236 3.564-.235.477-.562.94-.972 1.386m1.393-1.17c1.054-2.132.253-3.476-.317-4.087-.365-.396-.863-.633-1.36-.654-2.083-.086-3.433 2.632-3.49 2.756-1.403 3.196-3.18 4.623-3.213 4.65l-.81.76c-.28.263-.468.56-.562.88-.235.827.08 1.743.787 2.275l.19.143c.937.708 2.26.543 2.943-.366.12-.16.25-.41.396-.698.195-.382.416-.812.648-1.084.428-.5 1.135-1.113 1.723-1.492 1.002-.642 1.512-1.045 2.02-1.6.442-.47.794-.97 1.046-1.483"/><path id="svgstore024a810d8db50abdcf30244623551660Fill-9" d="M13.66 7.254l.438-.58c.076-.102.053-.25-.05-.327-.106-.08-.253-.06-.33.04l-.417.556c-.43-.284-.854-.36-1.272-.223-1.316.43-1.977 2.918-2.004 3.025-.03.124.045.253.168.29.125.033.254-.04.287-.16.17-.656.808-2.418 1.706-2.71.307-.1.62-.022.963.236.005.006.616.48.597 1.297-.02.97-.926 2.048-2.615 3.12-.107.067-.137.21-.062.318.014.023.033.043.055.06.078.06.184.066.27.013 1.848-1.173 2.797-2.344 2.824-3.488.012-.7-.32-1.2-.56-1.466"/></symbol><symbol viewBox="0.609 -3.929 11.484 10.227" id="check"><title>check</title><path d="M5.164 6.05L.89.3l.804-.596 3.47 4.672 5.94-8.008.802.595z" id="svgstore29e9f4a8cdd9c5a80cb3bcd71851fba5Page-1"/></symbol><symbol viewBox="0 0 17 17" id="city"><title>city</title><path id="svgstore229885073ba57ffa3711c21f0de513a5Fill-1" d="M8.863 3.967c.78 0 1.415.635 1.415 1.417S9.643 6.8 8.863 6.8 7.45 6.167 7.45 5.384c0-.78.636-1.416 1.413-1.416m0 3.4c1.092 0 1.98-.89 1.98-1.983S9.954 3.4 8.862 3.4c-1.09 0-1.98.89-1.98 1.983s.89 1.984 1.98 1.984"/><path id="svgstore229885073ba57ffa3711c21f0de513a5Fill-3" d="M5.38 1.992C6.3 1.074 7.52.567 8.817.567c1.297 0 2.516.507 3.434 1.425 1.71 1.714 1.92 4.94.443 6.914l-3.88 5.61-3.882-5.62c-1.47-1.963-1.26-5.19.45-6.904zm3.436 13.524l4.336-6.28c1.625-2.17 1.392-5.744-.504-7.643C11.623.567 10.263 0 8.816 0c-1.448 0-2.81.567-3.833 1.592-1.895 1.9-2.133 5.47-.51 7.637l4.343 6.286z"/><path id="svgstore229885073ba57ffa3711c21f0de513a5Fill-6" d="M.283 16.316l-.2.2c-.11.11-.11.29 0 .4.056.057.127.084.2.084.074 0 .145-.027.2-.082l.2-.2c.11-.112.11-.29 0-.4-.11-.11-.29-.11-.4-.002"/><path id="svgstore229885073ba57ffa3711c21f0de513a5Fill-8" d="M2.438 14.732c-.155 0-.283.13-.283.283 0 .155.127.284.283.284h.515c.155 0 .283-.13.283-.283 0-.156-.127-.283-.283-.283h-.515v-.002z"/><path id="svgstore229885073ba57ffa3711c21f0de513a5Fill-10" d="M1.776 15.22c-.11-.108-.288-.108-.398 0l-.365.366c-.11.11-.11.29 0 .4.057.057.127.082.2.082.075 0 .145-.03.202-.082l.365-.366c.106-.106.106-.286-.004-.4"/><path id="svgstore229885073ba57ffa3711c21f0de513a5Fill-12" d="M5.525 14.732c-.156 0-.283.13-.283.283 0 .155.127.284.283.284h.514c.155 0 .282-.13.282-.283 0-.156-.127-.283-.283-.283h-.515v-.002z"/><path id="svgstore229885073ba57ffa3711c21f0de513a5Fill-14" d="M3.98 14.732c-.154 0-.282.13-.282.283 0 .155.128.284.283.284h.516c.156 0 .283-.13.283-.283 0-.156-.128-.283-.284-.283H3.98v-.002z"/><path id="svgstore229885073ba57ffa3711c21f0de513a5Fill-16" d="M7.068 14.732c-.156 0-.283.13-.283.283 0 .155.128.284.283.284h.283c.156 0 .284-.13.284-.283 0-.156-.127-.283-.283-.283H7.07v-.002z"/><path id="svgstore229885073ba57ffa3711c21f0de513a5Fill-18" d="M16.48 13.8c.072 0 .144-.026.2-.08l.2-.202c.11-.11.11-.29 0-.398-.11-.11-.29-.11-.397 0l-.2.197c-.11.11-.11.29 0 .4.053.056.125.084.196.084"/><path id="svgstore229885073ba57ffa3711c21f0de513a5Fill-20" d="M11.668 14.732c-.156 0-.283.13-.283.283 0 .155.127.283.283.283h.602c.156 0 .283-.128.283-.283 0-.154-.127-.283-.283-.283h-.602z"/><path id="svgstore229885073ba57ffa3711c21f0de513a5Fill-22" d="M13.477 14.732c-.153 0-.28.13-.28.283 0 .155.127.283.28.283h.604c.155 0 .282-.128.282-.283 0-.154-.127-.283-.28-.283h-.605z"/><path id="svgstore229885073ba57ffa3711c21f0de513a5Fill-24" d="M15.428 14.172L15 14.6c-.11.11-.11.29 0 .4.06.057.128.082.2.082.075 0 .146-.027.202-.082l.427-.428c.11-.11.11-.29 0-.4-.11-.11-.292-.11-.402 0"/><path id="svgstore229885073ba57ffa3711c21f0de513a5Fill-26" d="M10.178 14.732c-.154 0-.28.13-.28.283 0 .155.126.283.28.283h.283c.156 0 .283-.128.283-.283 0-.154-.127-.283-.282-.283h-.282z"/></symbol><symbol viewBox="3 17 9 9" id="close-icon"><title>close-icon</title><desc>Created with Sketch.</desc><g id="svgstoreb97d27278de456d9ca477e3e8b5270f3Group-4" fill="none" stroke="#414141"><path d="M4.5 18.5l6 6M10.5 18.5l-6 6" id="svgstoreb97d27278de456d9ca477e3e8b5270f3Line"/></g></symbol><symbol viewBox="0 0 19 16" id="contact-icon"><title>contact-icon</title><path d="M4.05 16.153l.006-3.747L.5 12.372V.5h17.916v11.873H9.532l-5.48 3.78zm-2.55-4.77l3.558.033-.003 2.83 4.166-2.873h8.197V1.5H1.5v9.882z"/></symbol><symbol viewBox="0 0 15 17" id="culture"><title>Page 1</title><desc>Created with Sketch.</desc><g id="svgstore8ea8cbd4be4144603c5c58b0f7a7f931Page-1"><path id="svgstore8ea8cbd4be4144603c5c58b0f7a7f931Fill-1" d="M8.146 7.45c.086-.18.006-.394-.18-.48-.183-.085-.404-.008-.493.17-.022.045-.562 1.09-2.31 1.09-1.75 0-2.29-1.045-2.31-1.086-.087-.182-.308-.26-.495-.177s-.267.3-.18.482c.028.06.74 1.507 2.983 1.507 2.244 0 2.957-1.446 2.986-1.507"/><path id="svgstore8ea8cbd4be4144603c5c58b0f7a7f931Fill-3" d="M6.193 4.498h1.615c.205 0 .372-.163.372-.363 0-.2-.167-.363-.372-.363H6.193c-.205 0-.372.163-.372.363.002.2.168.363.373.363"/><path id="svgstore8ea8cbd4be4144603c5c58b0f7a7f931Fill-5" d="M2.515 4.498H4.13c.206 0 .372-.163.372-.363 0-.2-.167-.363-.372-.363H2.515c-.206 0-.372.163-.372.363 0 .2.167.363.372.363"/><path id="svgstore8ea8cbd4be4144603c5c58b0f7a7f931Fill-7" d="M9.827 10.842c-2.242 0-2.955 1.447-2.984 1.51-.086.18-.006.393.18.478.183.085.404.008.494-.17.022-.045.562-1.092 2.312-1.092 1.747 0 2.286 1.047 2.308 1.088.062.133.197.21.338.21.052 0 .105-.01.156-.033.186-.085.267-.3.18-.482-.03-.06-.743-1.508-2.985-1.508"/><path id="svgstore8ea8cbd4be4144603c5c58b0f7a7f931Fill-9" d="M14.245 9.71c0 3.137-1.486 5.048-4.418 5.68-2.332-.503-3.747-1.817-4.23-3.913l.006-.002c.062-.016.125-.032.188-.05l.026-.007.182-.053.03-.01.18-.057.032-.012c.06-.02.12-.04.18-.062.01-.004.02-.008.03-.01l.184-.072.02-.008c.064-.026.128-.053.192-.082 0 0 .003 0 .004-.002.756-.334 1.483-.818 2.074-1.515h.002c.807-.952 1.36-2.3 1.395-4.206v-.006h3.926V9.71zM.745 5.074V.732H9.58V5.112c0 .06-.004.117-.005.176-.044 2.37-.962 4.02-2.737 4.92 0 0 0 .002-.002.002-.135.068-.275.133-.42.192l-.007.003c-.146.06-.295.115-.45.166l-.007.002c-.155.05-.315.098-.48.14-.103.027-.203.056-.31.078-.14-.03-.272-.065-.405-.1-.013-.005-.026-.007-.038-.01C2.082 9.958.744 8.088.744 5.112zm13.872-.55h-4.293V.368c0-.2-.167-.363-.372-.363H.372C.167.005 0 .167 0 .368v4.746c0 4.274 2.576 5.82 4.84 6.353.644 3.06 2.938 4.205 4.91 4.61.025.007.052.01.077.01s.052-.003.077-.01c2.318-.477 5.084-1.977 5.084-6.407V4.925c0-.2-.166-.363-.37-.363z"/><path id="svgstore8ea8cbd4be4144603c5c58b0f7a7f931Fill-12" d="M10.858 9.055h1.615c.205 0 .372-.162.372-.362 0-.2-.166-.363-.372-.363h-1.615c-.206 0-.372.162-.372.363 0 .2.166.362.372.362"/></g></symbol><symbol viewBox="0 0 13 16" id="ecotourism"><title>Page 1</title><desc>Created with Sketch.</desc><path id="svgstore64f5e4a06a608c1a96a5dfe5c3d9b585Fill-1" d="M11.213 10.215c-.55 1.12-1.412 2.007-2.462 2.584.078-.13.147-.263.204-.403.86-2.12.858-4.436.028-6.518.81-.493 1.523-.997 1.878-1.625 1.144 1.766 1.292 4.047.353 5.96m-4.163 3.19c-1.086-1.327-1.123-2.743-1.154-4.038-.037-1.528-.072-2.97-1.85-3.74-.16-.07-.34.005-.408.165s.006.345.163.413c1.412.61 1.44 1.688 1.475 3.178.03 1.26.066 2.72 1.054 4.114-.074-.003-.147-.005-.22-.016-5.215-.713-4.99-4.434-4.773-8.03.103-1.7.2-3.317-.41-4.366 2.87-.05 5.56 1.496 6.99 4.007 1.237 2.17 1.405 4.746.463 7.066-.252.62-.735 1.064-1.33 1.25m3.962-10.01c-.078-.096-.204-.138-.322-.105-.12.033-.208.133-.227.256C10.36 4.2 9.625 4.75 8.73 5.3c-.086-.177-.176-.35-.274-.523C6.938 2.11 4.104.454 1.062.454.802.454.54.466.282.49.16.502.056.585.016.704-.024.822.01.952.1 1.036c.834.77.73 2.522.617 4.375-.212 3.522-.477 7.903 5.31 8.695.128.018.257.026.385.026.14 0 .277-.01.412-.03.487.52 1.13 1.02 1.98 1.495.05.025.1.04.15.04.11 0 .216-.062.272-.165.082-.152.027-.344-.123-.428-.632-.35-1.135-.717-1.54-1.094 1.834-.48 3.353-1.722 4.204-3.454 1.133-2.303.837-5.09-.755-7.097"/></symbol><symbol viewBox="0 0 12 8" id="email"><title>email</title><path id="svgstore2e017f38f75b49947c611440fce5e22aFill-1" d="M11.742 2.128c-.37.2-4.912 2.657-5.14 2.778-.225.123-.383.14-.602.14s-.377-.017-.604-.14C5.17 4.786.628 2.328.258 2.128c-.26-.14-.258.024-.258.15v5.06C0 7.63.373 8 .66 8h10.68c.288 0 .66-.372.66-.66V2.28c0-.128.002-.292-.258-.152M.396.748c.325.182 4.832 2.687 5 2.78.167.093.385.138.604.138s.437-.045.604-.138c.168-.093 4.675-2.598 5-2.78.326-.18.634-.748.036-.748H.36c-.597 0-.29.568.036.75"/></symbol><symbol viewBox="0 0 100 95.367" id="exclusive-icon"><title>exclusive-icon</title><g stroke="#010101" stroke-miterlimit="10"><path fill="#fff" d="M3.5 8.84h6v82h-6z"/><circle fill="#fff" cx="6.147" cy="5.628" r="4.955"/><path stroke-linecap="round" fill="none" d="M1 16.84h11"/><path stroke-linecap="round" stroke-linejoin="round" fill="none" d="M9.486 90.75l4.36 4.09H.18l4.112-3.966"/><path d="M49.34 43.936c-13.925 0-31.133-10.615-36.824-22.718-.443-.94-.038-2.062.902-2.506.946-.443 2.065-.04 2.507.903 4.562 9.702 19.822 20.553 33.414 20.553 13.384 0 28.105-10.674 33.458-20.643.493-.917 1.635-1.258 2.552-.77.915.493 1.26 1.635.768 2.552-5.868 10.928-22.046 22.63-36.78 22.63z" fill="none"/><ellipse transform="matrix(.758 .652 -.652 .758 32.111 -51.583)" cx="85.624" cy="17.516" rx=".959" ry="1.859" fill="none"/><ellipse transform="matrix(-.758 .652 -.652 -.758 33.374 22.652)" cx="12.486" cy="17.516" rx=".958" ry="1.86" fill="none"/><path fill="none" d="M16.898 27.102l3.177-2.246M79.63 24.856l3.107 2.246M5 68.84h5"/><path fill="#fff" d="M90.5 8.84h4v82h-4z"/><circle fill="#fff" cx="92.116" cy="5.628" r="4.955"/><path stroke-linecap="round" fill="none" d="M87 16.84h12"/><path stroke-linecap="round" stroke-linejoin="round" fill="none" d="M95.456 90.75l4.358 4.09H86.147l4.115-3.966"/><path fill="none" d="M91 68.84h5"/></g></symbol><symbol viewBox="0 0 19 11" id="family"><title>family</title><path id="svgstorefdcb03ae95eaae7152dafefdfd0f58e6Fill-1" d="M14.342 9.903c-.05-.816-.307-1.6-.73-2.25.423-.23.89-.358 1.392-.358 1.486 0 2.73 1.142 2.89 2.608h-3.552zm-9.014 0c.16-2.186 1.986-3.914 4.184-3.914 2.198 0 4.02 1.728 4.184 3.91H5.328v.003zm2.245-6.686c0-.995.824-2.12 1.938-2.12 1.115 0 1.94 1.125 1.94 2.12s-.824 2.12-1.94 2.12c-1.113 0-1.937-1.125-1.937-2.12zm6.138 1.957c0-.685.567-1.467 1.294-1.467s1.292.783 1.292 1.467c0 .685-.565 1.468-1.292 1.468S13.71 5.86 13.71 5.174zm2.456 1.663c.47-.39.775-1.01.775-1.663 0-1.125-.903-2.12-1.937-2.12s-1.938.995-1.938 2.12c0 .652.308 1.272.775 1.663-.21.082-.404.163-.598.277-.613-.733-1.422-1.305-2.357-1.58.71-.506 1.21-1.37 1.21-2.316 0-1.483-1.21-2.77-2.583-2.77-1.373 0-2.585 1.287-2.585 2.77 0 .946.5 1.81 1.212 2.315-2.004.604-3.474 2.48-3.474 4.695 0 .18.146.326.323.326h13.245c.18 0 .322-.146.322-.326 0-1.565-1-2.903-2.39-3.39z"/><path id="svgstorefdcb03ae95eaae7152dafefdfd0f58e6Fill-4" d="M1.105 9.903c.162-1.47 1.406-2.608 2.892-2.608.5 0 .97.13 1.39.358-.42.65-.68 1.435-.728 2.25H1.104zm4.2 0C5.465 7.718 7.292 5.99 9.49 5.99c2.195 0 4.02 1.73 4.184 3.913h-8.37zM9.49 5.337c-1.116 0-1.94-1.125-1.94-2.12s.825-2.12 1.94-2.12c1.113 0 1.937 1.125 1.937 2.12s-.823 2.12-1.938 2.12zM3.997 6.642c-.727 0-1.292-.782-1.292-1.468 0-.685.565-1.467 1.292-1.467S5.29 4.49 5.29 5.174s-.565 1.468-1.292 1.468zM.443 10.228c0 .18.146.326.323.326H14.01c.18 0 .323-.146.323-.326 0-2.217-1.47-4.092-3.473-4.694.71-.505 1.212-1.37 1.212-2.315 0-1.484-1.212-2.772-2.585-2.772s-2.583 1.286-2.583 2.77c0 .945.5 1.81 1.21 2.314-.935.278-1.742.85-2.357 1.582C5.564 7 5.37 6.92 5.16 6.837c.468-.39.775-1.01.775-1.663 0-1.125-.905-2.12-1.938-2.12S2.06 4.05 2.06 5.174c0 .652.306 1.272.774 1.663-1.39.488-2.39 1.826-2.39 3.39z"/></symbol><symbol viewBox="0 0 9 16" id="fb"><title>fb</title><path id="svgstore3d945d7e2ad6e3c47cdd5973bebe99f8Fill-1" d="M8.38 2.782H5.987c-.283 0-.6.395-.6.923V5.54H8.38V8.15H5.387V16H2.562V8.152H0V5.54h2.562V4c0-2.206 1.443-4 3.424-4H8.38v2.782z"/></symbol><symbol viewBox="0 0 18 18" id="hideaway"><title>hideaway</title><path d="M10.02 17.223c-4.686 0-8.97-.317-9.012-.32l-.23-.018v-.232c0-2.27 3.615-4.047 8.232-4.047 4.617 0 8.234 1.777 8.234 4.047v.224l-.222.023c-1.89.214-4.245.323-7 .323zm-8.726-.802c.978.067 4.704.303 8.728.303 2.622 0 4.877-.1 6.707-.293-.262-1.823-3.69-3.324-7.72-3.324-4.022 0-7.446 1.495-7.716 3.315z" id="svgstore005746873de900e5dc90a15a5bab1cfdStroke-1"/><path d="M3.902 14l-.06-.284c-.26-1.235-.25-2.713.032-4.16.25-1.295 1.086-2.884 2.072-4.003-1.71.177-3.428.707-3.378 1.727.01.188.043.375.102.573l-.437.224c-.37-.48-.58-1.056-.61-1.666-.04-.796.234-1.56.77-2.153.538-.592 1.272-.94 2.07-.98.16-.007.316-.004.47.01-.91-.686-1.72-.83-2.315-.347-.146.12-.277.258-.4.423l-.44-.22c.168-.58.505-1.093.975-1.48.533-.436 1.206-.677 1.895-.677.9 0 1.744.398 2.313 1.093.07.084.134.17.192.26 0-.42-.088-.825-.4-1.136l.264-.412c.064.023 1.416.533 1.65 1.634.132-.034.27-.05.415-.05.825 0 1.58.568 1.724.682l-.12.155-.096.286c-.26-.07-.53-.04-.782.053 1.555.26 2.655 1.698 2.478 3.282-.068.603-.314 1.165-.71 1.623l-.425-.25c.07-.193.116-.383.136-.565.056-.495-.18-.9-.385-1.15-.23-.283-.54-.525-.898-.71.03.035.06.07.088.108.995 1.313.737 3.193-.575 4.19-.485.368-1.06.577-1.666.606l-.112-.48c.186-.08.35-.175.506-.29.685-.522.214-1.996-1.293-4.064-1.04 1.627-1.468 3.785-1.178 5.983.053.4.163.804.336 1.23l.113.28-.294.06c-.627.127-1.216.293-1.75.493L3.9 14zm2.494-8.2c-.964 1.055-1.788 2.6-2.03 3.85-.247 1.274-.277 2.568-.088 3.68.397-.136.82-.254 1.26-.354-.128-.367-.215-.72-.262-1.076-.292-2.218.115-4.404 1.12-6.1zm.66-.646l.085.114C8.307 6.813 9.465 8.77 8.91 9.882c.104-.06.206-.125.303-.198 1.093-.83 1.308-2.396.48-3.49-.283-.37-.66-.653-1.09-.816l.11-.483c1.017.09 2.003.582 2.575 1.28.226.276.378.572.452.877.02-.09.036-.18.047-.273.152-1.365-.834-2.6-2.198-2.753-.23-.027-.456-.022-.674.015l-.183-.452c.31-.216.66-.443 1.052-.557-.38-.16-.862-.223-1.22-.037l-.372.192.006-.417c.006-.472-.3-.836-.622-1.088.132.512.063 1.06.004 1.534l-.02.156-.49.027c-.088-.37-.255-.707-.497-1.004-.474-.58-1.177-.91-1.927-.91-.573 0-1.133.2-1.577.564-.07.06-.14.122-.204.188.174-.058.358-.087.55-.087 1.083 0 2.123.933 2.647 1.49l-.295.393c-.38-.192-.822-.278-1.28-.256-.665.033-1.277.323-1.724.816s-.674 1.13-.64 1.794c.005.115.018.23.04.34.56-1.4 3.447-1.673 4.408-1.724l.686-.037-.203.188z" id="svgstore005746873de900e5dc90a15a5bab1cfdStroke-3"/></symbol><symbol viewBox="273.82 109.5 362.36 314.021" id="icon"><title>icon</title><path d="M603.7 197.658H394.457c-17.91 0-32.48 14.573-32.48 32.48V391.04c0 17.908 14.57 32.48 32.48 32.48H603.7c17.91 0 32.48-14.572 32.48-32.48V230.14c0-17.907-14.574-32.48-32.48-32.48zm12.32 193.383c0 6.793-5.527 12.32-12.32 12.32H394.458c-6.79 0-12.32-5.527-12.32-12.32V230.14c0-6.792 5.53-12.32 12.32-12.32H603.7c6.792 0 12.32 5.528 12.32 12.32V391.04zM293.98 302.88v-160.9c0-6.792 5.524-12.32 12.32-12.32h209.243c6.796 0 12.32 5.528 12.32 12.32v29.613h20.16V141.98c0-17.906-14.57-32.48-32.48-32.48H306.3c-17.91 0-32.48 14.574-32.48 32.48v160.9c0 17.91 14.57 32.48 32.48 32.48h22.71V315.2H306.3c-6.792 0-12.32-5.524-12.32-12.32z"/></symbol><symbol viewBox="0 0 14 14" id="ig"><title>ig</title><path id="svgstorea2e8a6a57e76dfda23ba439cd6d13a95Fill-1" d="M12.57 11.16c0 .716-.568 1.3-1.268 1.3H3.19c-.7 0-1.268-.584-1.268-1.3V5.615h1.974c-.17.43-.266.898-.266 1.39 0 2.04 1.622 3.705 3.616 3.705s3.616-1.663 3.616-3.706c0-.492-.097-.96-.267-1.39h1.975v5.546zM5.36 5.615c.423-.602 1.11-.995 1.886-.995.776 0 1.464.394 1.887.995.277.392.44.87.44 1.39 0 1.316-1.044 2.384-2.327 2.384S4.92 8.32 4.92 7.003c0-.518.163-.998.44-1.39zm6.675-3.823h.293v2.296l-2.234.007-.008-2.296 1.95-.008zm-.732-1.56H3.19C1.78.23.633 1.404.633 2.848v8.31c0 1.444 1.147 2.618 2.557 2.618h8.112c1.41 0 2.555-1.174 2.555-2.618V2.85c0-1.445-1.145-2.62-2.554-2.62z"/></symbol><symbol viewBox="0 0 33 33" id="lb-close"><title>lb-close</title><path d="M.75.086l32.207 32.207-.707.707L.043.793z" id="svgstored5d643259a605d0fe8ed60a7508e9a4cLine"/><path d="M32.25.086l.707.707L.75 33l-.707-.707z" id="svgstored5d643259a605d0fe8ed60a7508e9a4cLine_1_"/></symbol><symbol viewBox="0 0 46 69" id="lb-left"><title>Page 1</title><desc>Created with Sketch.</desc><path d="M46 68.45L.795 34.726 46 1" id="svgstore6e5f6687ef2c287d99a53f05cb9c16bfPage-1" stroke="#fff" fill="none"/></symbol><symbol viewBox="0 0 46 69" id="lb-right"><title>Page 1</title><desc>Created with Sketch.</desc><path d="M0 68.45l45.205-33.725L0 1" id="svgstore6217743ead14e640bf62e3078567d8c5Page-1" stroke="#fff" fill="none"/></symbol><symbol viewBox="273.82 109.5 362.36 314.021" id="lightbox"><title>lightbox</title><path d="M603.7 197.658H394.457c-17.91 0-32.48 14.573-32.48 32.48V391.04c0 17.908 14.57 32.48 32.48 32.48H603.7c17.91 0 32.48-14.572 32.48-32.48V230.14c0-17.907-14.574-32.48-32.48-32.48zm12.32 193.383c0 6.793-5.527 12.32-12.32 12.32H394.458c-6.79 0-12.32-5.527-12.32-12.32V230.14c0-6.792 5.53-12.32 12.32-12.32H603.7c6.792 0 12.32 5.528 12.32 12.32V391.04zM293.98 302.88v-160.9c0-6.792 5.524-12.32 12.32-12.32h209.243c6.796 0 12.32 5.528 12.32 12.32v29.613h20.16V141.98c0-17.906-14.57-32.48-32.48-32.48H306.3c-17.91 0-32.48 14.574-32.48 32.48v160.9c0 17.91 14.57 32.48 32.48 32.48h22.71V315.2H306.3c-6.792 0-12.32-5.524-12.32-12.32z"/></symbol><symbol viewBox="0 0 225.766 69.666" id="logo_exsite"><title>logo_exsite</title><path d="M101.17 19.59H90.14l-8.02 12.377-7.95-12.378H62.685L76.32 39.23 61.44 60.833h11.24l9.282-14.192L91.1 60.834h11.55L87.7 39.14zM225.77 40.54c0-5.856-1.697-11.1-5.787-15.42-4.01-4.09-9.717-6.636-15.426-6.636-12.266 0-21.443 9.796-21.443 21.986 0 12.11 9.64 21.52 21.674 21.52 8.56 0 16.197-5.325 19.44-13.19h-9.798c-2.314 3.394-5.86 4.935-9.95 4.935-5.862 0-11.1-4.163-12.34-9.873h33.32l.308-3.32m-33.71-3.932c1.16-5.398 6.476-9.717 12.04-9.717 6.09 0 11.337 3.78 12.956 9.717h-24.992"/><path d="M140.25 19.45v41.525h10.38l-.01-41.517zM174.44 7.116h-10.33v12.16h-7.35v8.397h1.98v.01h.49l.31.014h4.52V45.37h.01v15.463h10.39l-.01-33.14 7.56-.007V19.27h-7.57zM130.13 39.515c-1.266-.93-2.672-1.674-4.22-2.236-1.547-.563-3.08-1.014-4.598-1.352-2.87-.675-5.05-1.335-6.54-1.982-1.49-.646-2.236-1.758-2.236-3.333 0-1.575.675-2.7 2.025-3.375s2.84-1.012 4.474-1.012c1.856 0 3.57.436 5.147 1.308 1.575.873 2.813 1.898 3.713 3.08l5.55-4.913c-1.633-2.08-2.83-3.513-5.592-5.102-2.566-1.478-5.64-1.966-8.563-1.966-2.025 0-3.995.253-5.907.76-1.913.505-3.628 1.28-5.147 2.32-1.52 1.042-2.743 2.377-3.67 4.01-.93 1.632-1.393 3.573-1.393 5.823 0 1.913.337 3.516 1.013 4.81.675 1.294 1.574 2.377 2.7 3.248 1.125.873 2.405 1.575 3.84 2.11 1.434.534 2.91.97 4.43 1.307 3.092.732 5.412 1.464 6.96 2.194 1.547.73 2.32 1.94 2.32 3.628 0 .9-.197 1.66-.59 2.28-.395.618-.915 1.11-1.562 1.476-.645.366-1.35.633-2.108.802-.76.168-1.505.253-2.236.253-2.193 0-4.19-.478-5.99-1.435-1.802-.956-3.264-2.165-4.39-3.628l-5.87 5.252c1.763 2.58 4.528 5.1 7.51 6.25 2.982 1.153 5.166 1.408 8.317 1.408 2.194 0 4.317-.24 6.37-.717 2.055-.478 3.854-1.252 5.4-2.32 1.548-1.068 2.786-2.46 3.714-4.178.93-1.715 1.393-3.81 1.393-6.286 0-1.97-.395-3.643-1.18-5.02-.788-1.38-1.815-2.535-3.08-3.462"/><circle cx="145.44" cy="6.236" r="6.236"/><path d="M32.936 26.15c-5.56 0-10.885 4.32-12.04 9.723l25 .007c-1.622-5.94-6.87-9.728-12.96-9.73M33.3 9.204C16.604 9.2 3.06 22.73 3.06 39.424c0 5.04 1.25 9.79 3.43 13.97L.55 63.836s-1.14 1.954-.144 3.15c1.01 1.214 3.01.45 3.01.45L15.183 63.6c5.05 3.787 11.3 6.06 18.1 6.06 16.696.003 30.23-13.526 30.24-30.22.006-16.7-13.526-30.23-30.22-30.24m21 33.926l-33.34-.01C22.196 48.83 27.44 53 33.31 53.002c4.088 0 7.64-1.545 9.956-4.938l9.8.002C49.82 55.94 42.18 61.26 33.615 61.258c-12.04-.003-21.684-9.422-21.68-21.538.002-12.19 9.188-21.99 21.46-21.987 5.71 0 11.42 2.548 15.43 6.636 4.09 4.326 5.788 9.577 5.786 15.44l-.312 3.316"/></symbol><symbol viewBox="0 0 126.333 12.583" id="main-logo"><title>main-logo</title><g fill="#0F3D8B"><path d="M.752 11.93c-.236-.107-.255-.16-.255-.567 0-.745.08-1.35.098-1.596 0-.16.04-.25.138-.25s.158.054.158.178 0 .337.06.552c.275 1.1 1.576 1.49 2.738 1.49 1.716 0 2.602-.87 2.602-2.007 0-1.082-.65-1.597-2.188-2.625l-.79-.53c-1.87-1.26-2.48-2.182-2.48-3.23C.83 1.575 2.388.51 4.673.51c.69 0 1.38.087 1.793.175.335.07.473.07.61.07.14 0 .178.022.178.107 0 .072-.08.568-.08 1.598 0 .23-.02.337-.137.337-.12 0-.14-.07-.158-.196-.02-.177-.157-.583-.256-.744-.117-.177-.69-.745-2.246-.745-1.26 0-2.305.57-2.305 1.634 0 .957.53 1.508 2.246 2.554l.492.302C6.92 6.893 7.65 7.94 7.65 9.234c0 .886-.375 1.845-1.617 2.572-.73.425-1.812.53-2.76.53-.806 0-1.812-.105-2.52-.407"/><path d="M25.12 10.192c.06.53.178 1.35.886 1.56.493.144.947.144 1.124.144.08 0 .138.035.138.105 0 .09-.157.145-.355.145-.394 0-2.325-.035-2.954-.09-.417-.034-.495-.09-.495-.16 0-.052.04-.104.118-.124.1-.017.12-.247.08-.53l-.83-7.626h-.038l-4.178 7.697c-.354.656-.453.8-.61.8-.16 0-.256-.144-.59-.692-.455-.744-1.598-2.678-2.03-3.494-.513-.955-1.912-3.492-2.208-4.112h-.08l-.67 6.81c-.02.23-.02.516-.02.762 0 .23.158.373.415.428.296.07.55.088.67.088.058 0 .137.055.137.105 0 .107-.118.144-.315.144-.65 0-1.478-.055-1.617-.055-.157 0-.984.054-1.458.054-.177 0-.294-.036-.294-.145 0-.053.078-.105.176-.105.138 0 .256-.018.513-.053.57-.09.59-.64.67-1.206L12.567.8c.02-.16.1-.268.198-.268.12 0 .256.053.356.23l5.242 9.363L23.407.78c.08-.143.157-.25.276-.25.118 0 .216.124.256.41l1.18 9.252zM36.554 7.32c.078 0 .078-.034.058-.108L34.897 3.08c-.097-.23-.196-.23-.295 0l-1.616 4.13c-.02.075 0 .108.06.108h3.508zM34.622 1.04c.217-.497.295-.586.414-.586.176 0 .236.213.414.55.315.638 3.093 6.862 4.157 9.15.63 1.347 1.104 1.544 1.477 1.65.257.07.513.087.69.087.1 0 .217.035.217.125s-.195.124-.393.124c-.256 0-1.537 0-2.738-.035-.337-.02-.613-.02-.613-.108 0-.07.04-.07.12-.105.096-.035.274-.158.155-.406l-1.556-3.46c-.04-.07-.06-.09-.158-.09h-4c-.08 0-.14.036-.178.125l-.986 2.412c-.157.372-.256.745-.256 1.012 0 .3.296.405.592.405h.158c.137 0 .177.054.177.125 0 .09-.098.124-.256.124-.415 0-1.36-.055-1.557-.055-.178 0-1.044.054-1.754.054-.217 0-.336-.035-.336-.124 0-.07.08-.125.158-.125.12 0 .375-.02.512-.035.79-.09 1.124-.62 1.458-1.383l4.08-9.435zM93.586 8.223c0-.814-.116-1.118-.373-1.543-.137-.23-2.48-3.583-3.07-4.38-.417-.566-.83-.904-1.145-1.1-.258-.143-.59-.213-.73-.213-.098 0-.178-.07-.178-.143 0-.068.06-.104.218-.104.334 0 1.635.037 1.715.037.12 0 .826-.037 1.496-.037.195 0 .234.037.234.104 0 .053-.116.107-.273.16-.138.053-.216.123-.216.248 0 .213.117.39.234.586l3.152 4.7c.355-.64 2.523-3.867 2.84-4.363.215-.337.293-.585.293-.78 0-.213-.078-.338-.275-.392-.155-.034-.254-.106-.254-.176 0-.052.1-.09.275-.09.45 0 1.06.038 1.2.038.118 0 1.36-.037 1.695-.037.115 0 .217.037.217.09 0 .068-.08.158-.217.158-.197 0-.534.054-.81.195-.335.18-.49.34-.868.745-.57.604-3.014 4.15-3.37 4.79-.294.53-.214 1.01-.214 1.506v1.295c0 .25 0 .887.058 1.508.04.442.158.728.672.798.236.037.632.072.79.072.097 0 .136.07.136.125 0 .07-.1.124-.277.124-.962 0-2.085-.054-2.184-.054-.08 0-1.185.055-1.694.055-.197 0-.277-.034-.277-.123 0-.056.04-.125.14-.125.158 0 .355-.035.515-.07.353-.07.47-.355.512-.8.037-.62.037-1.257.037-1.507V8.223h-.004zM103.736 5.103c0-2.342 0-2.768-.04-3.247-.04-.513-.138-.76-.708-.833-.138-.02-.433-.035-.592-.035-.06 0-.138-.07-.138-.125 0-.086.078-.123.277-.123.785 0 1.91.037 2.008.037.117 0 3.744.017 4.14 0 .335-.02.645-.072.787-.092.08-.016.16-.07.237-.07.06 0 .078.07.078.143 0 .105-.1.284-.14.71-.02.142-.058.813-.1.993-.02.07-.077.16-.156.16-.1 0-.14-.07-.14-.196 0-.105-.02-.354-.098-.53-.118-.25-.297-.356-1.243-.462-.296-.035-2.306-.054-2.5-.054-.08 0-.1.054-.1.16v4.097c0 .106 0 .16.1.16.216 0 2.5 0 2.895-.037.413-.035.668-.052.847-.213.117-.105.195-.195.255-.195s.098.037.098.125c0 .09-.098.338-.137.833-.04.302-.078.87-.078.978 0 .123-.04.283-.158.283-.08 0-.116-.054-.116-.144 0-.143 0-.3-.08-.497-.06-.213-.216-.39-.888-.46-.473-.054-2.322-.072-2.62-.072-.1 0-.117.052-.117.106v1.26c0 .513-.02 2.27 0 2.57.04 1.012.355 1.205 2.068 1.205.455 0 1.28 0 1.733-.16.456-.177.692-.444.79-1.046.04-.178.08-.23.18-.23s.116.124.116.23c0 .105-.14 1.135-.236 1.453-.116.393-.295.393-.965.393-1.3 0-2.307-.037-3.017-.055-.728-.035-1.183-.035-1.438-.035-.04 0-.373 0-.746.02-.336.016-.73.033-1.006.033-.18 0-.275-.034-.275-.123 0-.055.04-.125.138-.125.158 0 .375-.053.533-.07.335-.055.373-.354.45-.8.1-.618.1-1.808.1-3.26l.003-2.662zM115.57 6.378c0 .09.038.14.118.195.255.125 1.145.23 1.91.23.415 0 .887-.018 1.302-.266.59-.354 1.043-1.152 1.043-2.305 0-1.88-1.142-2.963-2.996-2.963-.51 0-1.063.053-1.24.09-.08.034-.138.087-.138.175v4.843zm-1.5-1.275c0-2.342 0-2.768-.038-3.247-.04-.513-.14-.76-.707-.833-.14-.02-.435-.035-.594-.035-.06 0-.138-.07-.138-.125 0-.086.078-.123.275-.123.79 0 1.95.037 2.05.037.18 0 1.636-.037 2.17-.037 1.102 0 2.323.09 3.228.656.435.283 1.202 1.01 1.202 2.058 0 1.116-.512 2.2-2.128 3.44 1.418 1.597 2.62 2.96 3.625 3.9.927.852 1.498.993 1.934 1.046.33.054.51.054.607.054.1 0 .157.07.157.125 0 .088-.098.122-.412.122h-1.086c-.984 0-1.416-.088-1.852-.302-.75-.354-1.38-1.082-2.363-2.217-.73-.814-1.5-1.79-1.87-2.2-.08-.068-.12-.087-.237-.087l-2.207-.035c-.08 0-.12.036-.12.124v.356c0 1.453 0 2.624.08 3.244.06.443.157.727.69.798.234.036.607.07.768.07.12 0 .138.07.138.126 0 .07-.078.123-.275.123-.943 0-2.05-.052-2.13-.052-.02 0-1.18.053-1.712.053-.18 0-.275-.033-.275-.122 0-.055.04-.125.138-.125.155 0 .374-.035.53-.07.337-.072.374-.355.453-.8.1-.62.1-1.808.1-3.26v-2.66zM70.68 5.103c0-2.342 0-2.768-.038-3.247-.04-.513-.14-.76-.71-.833-.14-.02-.434-.035-.592-.035-.06 0-.14-.07-.14-.125 0-.086.08-.123.277-.123.787 0 1.87.037 1.97.037.336 0 4.1.017 4.493 0 .335-.02.63-.02.788-.072.098-.02.178-.09.234-.09.08 0 .12.07.12.143 0 .105-.08.284-.14.71-.018.142-.04.813-.078.993-.02.07-.078.16-.156.16-.08 0-.14-.07-.14-.178 0-.124-.06-.373-.155-.567-.097-.195-.513-.443-1.183-.443l-2.837-.035c-.098 0-.14.035-.14.16V5.67c0 .088 0 .143.12.143l2.364-.018c.296 0 .552 0 .788-.018.413-.036.648-.09.81-.268.077-.09.155-.16.214-.16.08 0 .1.052.1.124 0 .09-.118.338-.16.833-.04.302-.06.904-.06 1.013 0 .142-.037.302-.155.302-.1 0-.118-.072-.118-.143-.02-.16-.04-.375-.117-.552-.08-.212-.356-.41-.888-.48-.435-.05-2.483-.032-2.778-.032-.1 0-.117.033-.117.14v1.208c0 1.488 0 2.677.078 3.262.06.443.156.727.63.8.257.034.632.07.79.07.1 0 .137.07.137.124 0 .07-.077.123-.275.123-.967 0-2.09-.053-2.168-.053-.1 0-1.184.053-1.716.053-.178 0-.275-.034-.275-.123 0-.055.04-.125.138-.125.158 0 .375-.053.53-.07.337-.055.376-.354.456-.8.098-.618.098-1.808.098-3.26V5.102h-.002zM83.05 7.797c0 2.216.04 3.12.355 3.388.276.248.945.354 2.307.354.904 0 1.674-.02 2.088-.464.218-.23.354-.55.412-.85.02-.107.082-.195.18-.195.078 0 .115.072.115.23 0 .162-.116 1.064-.254 1.508-.117.355-.178.41-1.103.41-1.24 0-2.21-.02-3.017-.055-.788-.018-1.38-.035-1.89-.035-.083 0-.376 0-.712.02-.354.016-.728.034-1.005.034-.177 0-.275-.035-.275-.124 0-.055.04-.125.14-.125.155 0 .375-.035.532-.07.334-.072.373-.355.453-.8.1-.62.1-1.808.1-3.26v-2.66c0-2.344 0-2.77-.04-3.248-.04-.513-.14-.76-.71-.833-.14-.02-.436-.035-.59-.035-.06 0-.14-.07-.14-.125 0-.086.08-.123.275-.123.79 0 1.87.036 1.974.036.074 0 1.377-.037 1.908-.037.178 0 .276.036.276.122 0 .054-.08.107-.138.107-.117 0-.377.017-.574.033-.512.09-.61.32-.65.852-.018.48-.018.904-.018 3.247v2.695h.003zM61.934 7.763c0 1.454 0 2.642.08 3.262.057.444.136.728.668.798.236.036.63.07.79.07.117 0 .137.07.137.126 0 .068-.08.123-.277.123-.945 0-2.05-.055-2.147-.055-.08 0-1.28.055-1.794.055-.197 0-.276-.035-.276-.124 0-.057.04-.107.14-.107.157 0 .353-.035.512-.07.354-.072.452-.372.51-.816.08-.62.08-1.81.08-3.262V1.43l-2.5.036c-1.085.018-1.5.125-1.756.478-.196.27-.216.374-.274.48-.04.124-.1.142-.178.142-.04 0-.118-.035-.118-.125 0-.16.355-1.505.375-1.63.04-.09.118-.283.176-.283.12 0 .296.123.768.178.496.052 1.165.072 1.36.072h6.543c.574 0 .97-.037 1.244-.072.254-.036.414-.07.49-.07.08 0 .08.087.08.175 0 .462-.06 1.544-.06 1.722 0 .123-.078.195-.157.195s-.12-.055-.14-.267l-.022-.16c-.06-.46-.434-.797-2.088-.834l-2.167-.035v6.333zM46.285 6.378c0 .09.04.14.12.195.254.125 1.14.23 1.91.23.413 0 .885-.018 1.3-.266.59-.354 1.045-1.152 1.045-2.305 0-1.88-1.144-2.963-2.997-2.963-.51 0-1.064.053-1.24.09-.08.034-.138.087-.138.175v4.843zm-1.497-1.275c0-2.342 0-2.768-.04-3.247-.04-.513-.138-.76-.71-.833-.137-.02-.432-.035-.59-.035-.058 0-.14-.07-.14-.125 0-.086.083-.123.277-.123.79 0 1.95.037 2.05.037.176 0 1.636-.037 2.167-.037 1.104 0 2.326.09 3.23.656.435.283 1.203 1.01 1.203 2.058 0 1.116-.512 2.2-2.127 3.44 1.418 1.597 2.62 2.96 3.625 3.9.926.852 1.5.993 1.932 1.046.335.054.514.054.61.054.1 0 .16.07.16.125 0 .088-.1.122-.416.122h-1.084c-.985 0-1.42-.088-1.853-.302-.75-.354-1.38-1.082-2.364-2.217-.73-.814-1.5-1.79-1.874-2.2-.08-.068-.12-.087-.237-.087L46.403 7.3c-.08 0-.12.036-.12.124v.356c0 1.453 0 2.624.08 3.244.06.443.158.727.69.798.235.036.61.07.77.07.117 0 .137.07.137.126 0 .07-.08.123-.276.123-.945 0-2.048-.052-2.127-.052-.02 0-1.182.053-1.714.053-.177 0-.276-.033-.276-.122 0-.055.04-.125.138-.125.156 0 .375-.035.532-.07.335-.072.375-.355.454-.8.1-.62.1-1.808.1-3.26v-2.66h-.002z"/></g></symbol><symbol viewBox="0 0 21 17" id="newsletter-icon"><title>newsletter-icon</title><path d="M20.293 16.334H.653V.666h19.64v15.668zM1.69 15.3h17.567V1.7H1.69v13.6zM10.288 11.443L.965 1.35l.76-.7 8.59 9.297L19.58.635l.734.73z"/></symbol><symbol viewBox="0 0 71 74" id="personalized-icon"><title>Page 1</title><desc>Created with Sketch.</desc><g id="svgstore3a6a77c6948327aa26b01cd071d192b4Page-1" fill="none"><path d="M9.018 61.61l10.835-6.837c-.09-.965-.115-3.14.387-5.295.597-2.56 1.793-3.32 1.675-3.557-.234-.462-.39-3.708-.674-4.465-.252-.673-.448-1.222-.448-1.222l-1.324-2.77c-.47-1.428-.85-1.307.042-2.04h3.725l3.898 4.78 2.48 3.678 4.425-.754 6.313-3.474s6.83-3.14 9.36-4.23h5.947c.282 1.038.036 2.064-.992 2.807-.8.573-3.812 1.99-5.2 3.17-1.388 1.182-9.842 9.937-9.842 9.937l-5.81 4.435-5.375 4.148-8.884 12.586c-4.42-1.616-9.146-6.504-10.536-10.897" id="svgstore3a6a77c6948327aa26b01cd071d192b4Fill-1"/><path d="M9.018 61.61l10.835-6.837c-.09-.965-.115-3.14.387-5.295.597-2.56 1.793-3.32 1.675-3.557-.234-.462-.39-3.708-.674-4.465-.252-.673-.448-1.222-.448-1.222l-1.324-2.77c-.47-1.428-.85-1.307.042-2.04h3.725l3.898 4.78 2.48 3.678 4.425-.754 6.313-3.474s6.83-3.14 9.36-4.23h5.947c.282 1.038.036 2.064-.992 2.807-.8.573-3.812 1.99-5.2 3.17-1.388 1.182-9.842 9.937-9.842 9.937l-5.81 4.435-5.375 4.148-8.884 12.586c-4.42-1.616-9.146-6.504-10.536-10.897z" id="svgstore3a6a77c6948327aa26b01cd071d192b4Stroke-3" stroke="#000" stroke-linejoin="round"/><path d="M2.082 35.225C1.21 35.225.5 34.523.5 33.658s.71-1.564 1.582-1.564h66.75c.873 0 1.583.7 1.583 1.564 0 .864-.71 1.567-1.582 1.567H2.083z" id="svgstore3a6a77c6948327aa26b01cd071d192b4Fill-5"/><path d="M2.082 35.225C1.21 35.225.5 34.523.5 33.658s.71-1.564 1.582-1.564h66.75c.873 0 1.583.7 1.583 1.564 0 .864-.71 1.567-1.582 1.567H2.083z" id="svgstore3a6a77c6948327aa26b01cd071d192b4Stroke-7" stroke="#000" stroke-linejoin="round"/><path d="M62.944 28.8c.903 0 1.752.774 1.752 1.67 0 .895-.735 1.624-1.64 1.624h-55.2c-.9 0-1.638-.728-1.638-1.625s.785-1.61 1.687-1.61C9.41 15.567 21.172 5.23 35.4 5.23c14.184 0 25.982 10.333 27.544 23.57" id="svgstore3a6a77c6948327aa26b01cd071d192b4Fill-9"/><path d="M62.944 28.8c.903 0 1.752.774 1.752 1.67 0 .895-.735 1.624-1.64 1.624h-55.2c-.9 0-1.638-.728-1.638-1.625s.785-1.61 1.687-1.61C9.41 15.567 21.172 5.23 35.4 5.23c14.184 0 25.982 10.333 27.544 23.57z" id="svgstore3a6a77c6948327aa26b01cd071d192b4Stroke-11" stroke="#000" stroke-linejoin="round"/><g id="svgstore3a6a77c6948327aa26b01cd071d192b4Group-16"><path d="M15.47 21.92c2.35-4.633 6.497-8.27 11.564-10.082" id="svgstore3a6a77c6948327aa26b01cd071d192b4Fill-13"/><path d="M15.47 21.92c2.35-4.633 6.497-8.27 11.564-10.082" id="svgstore3a6a77c6948327aa26b01cd071d192b4Stroke-15" stroke="#000" stroke-linecap="round" stroke-linejoin="round"/></g><g id="svgstore3a6a77c6948327aa26b01cd071d192b4Group-20"><path d="M13.566 28.848h43.78" id="svgstore3a6a77c6948327aa26b01cd071d192b4Fill-17"/><path d="M13.566 28.848h43.78" id="svgstore3a6a77c6948327aa26b01cd071d192b4Stroke-19" stroke="#000" stroke-linecap="round" stroke-linejoin="round"/></g><path d="M37.68 2.747c0 1.21-.994 2.194-2.223 2.194-1.227 0-2.222-.982-2.222-2.193 0-1.21.995-2.194 2.222-2.194 1.23 0 2.224.983 2.224 2.194" id="svgstore3a6a77c6948327aa26b01cd071d192b4Fill-21"/><path d="M37.68 2.747c0 1.21-.994 2.194-2.223 2.194-1.227 0-2.222-.982-2.222-2.193 0-1.21.995-2.194 2.222-2.194 1.23 0 2.224.983 2.224 2.194z" id="svgstore3a6a77c6948327aa26b01cd071d192b4Stroke-23" stroke="#000"/></g></symbol><symbol viewBox="0 0 22 22" id="phone-icon"><title>Page 1</title><desc>Created with Sketch.</desc><path d="M6.175 13.814c3.13 3.788 10.76 7.418 12.6 6.603 1.84-.816 2.236-2.578 2.157-3.394-.08-.815-4.26-3.314-5.314-3.787-1.052-.474-2.262 1.052-2.84 1.71-.606.63-2.92-1.29-3.92-2.263 0 0-2.63-2.946-2.025-3.577.605-.632 2.104-1.894 1.578-2.92-.525-1.026-3.182-5.13-4.024-5.182-.815-.053-2.55.42-3.288 2.288-.736 1.868 2.788 8.997 6.708 11.97" id="svgstore419a73f36613d09ad5db6efe2f3fa060Page-1" stroke="#919191" fill="none"/></symbol><symbol viewBox="0 0 17 15" id="romance"><title>romance</title><path d="M8.08 8.952c-.18 0-.363-.014-.548-.042-1.503-.228-2.82-1.333-3.616-3.03C2.574 3.024 3.87 1.38 4.3.94c.127-.13.215-.192.215-.192.215-.16.516-.193.758-.086.252.112.42.352.437.626.004.033.064.425.68.568 1.225.28 3.853 2.477 4.38 4.23.285.947-.08 1.554-.325 1.83-.037.044-.077.087-.12.128-.574.585-1.374.908-2.245.908zm-3.15-7.64c-.008.005-.06.046-.13.12-.35.355-1.4 1.703-.25 4.15.694 1.482 1.82 2.443 3.088 2.636.85.13 1.652-.118 2.195-.67.033-.032.06-.062.085-.09.265-.302.325-.694.183-1.17-.45-1.496-2.838-3.515-3.866-3.75-1.098-.254-1.212-1.097-1.22-1.192l-.085-.034z" id="svgstoref6137573aed514ddc54d64d93396f4b6Stroke-1"/><path d="M6.906 11.438c-.046 0-.094-.002-.14-.004-2.61-.135-4.386-3.8-4.868-4.922-.165-.376-.64-.762-.793-.868-.208-.142-.33-.378-.326-.63 0-.247.123-.482.324-.626.852-.62 2.037-1.01 2.506-1.147.182-.054.39.045.448.23.057.182-.03.372-.212.432-.473.14-1.567.496-2.332 1.054l-.012.112c.03.02.758.527 1.038 1.165.443 1.03 2.056 4.388 4.26 4.5.733.05 1.427-.336 2.245-1.214.334-.36.585-.762.902-1.27.103-.167.32-.216.48-.113.165.102.216.317.113.48-.324.522-.604.972-.984 1.38-.923.99-1.747 1.44-2.65 1.44z" id="svgstoref6137573aed514ddc54d64d93396f4b6Stroke-3"/><path d="M16.018 14.472c-.023 0-.048-.002-.072-.007-3.746-.793-6.11-2.375-6.655-4.456-.098-.17-.035-.38.133-.478.167-.096.386-.036.483.13.016.027.053.138.06.17.477 1.81 2.65 3.213 6.124 3.947.19.04.31.226.27.414-.035.165-.18.278-.342.278z" id="svgstoref6137573aed514ddc54d64d93396f4b6Stroke-5"/><path d="M13.035 13.405c-.24 0-.47-.115-.61-.308-2.423-3.316-.902-5.83.22-7.032.798-.856 1.607-1.3 1.642-1.32.164-.094.384-.123.577-.068.2.057.367.192.462.372 1.91 3.617.413 6.07-.65 7.21-.567.61-1.097.947-1.245 1.036-.126.073-.26.11-.395.11zm1.667-8.03c-.11 0-.84.41-1.546 1.168-.975 1.045-2.292 3.23-.167 6.142l.045.02c.013 0 .025-.002.037-.01.09-.054.572-.354 1.09-.91.938-1.004 2.253-3.173.544-6.408h-.004z" id="svgstoref6137573aed514ddc54d64d93396f4b6Stroke-7"/><path d="M12.646 13.193c-.025 0-.05-.002-.076-.008-.188-.042-.308-.23-.266-.418l.91-4.076c.04-.187.232-.305.417-.265.19.042.31.23.267.418l-.91 4.076c-.036.163-.18.273-.34.273z" id="svgstoref6137573aed514ddc54d64d93396f4b6Stroke-9"/></symbol><symbol viewBox="25.251 26.227 49.446 47.168" id="sc"><title>sc</title><path d="M72.868 61.09c-.486-.124-1-.193-1.473-.374-3.943-1.444-6.443-4.36-8.068-8.11-.293-.68-.11-1.306.485-1.723.375-.264.833-.486 1.278-.64 1.25-.43 2.527-.79 3.458-1.804.694-.765.667-1.64-.11-2.32-.932-.82-1.973-1.03-3.14-.487-.75.347-1.528.542-2.236.333 0-2.292.028-4.472-.014-6.667-.015-.987-.097-2-.36-2.945-.82-2.86-2.53-5.125-5.057-6.708-3.735-2.347-7.79-2.61-11.957-1.5-4.833 1.292-8.89 5.958-8.75 11.333.056 2.125.014 4.25.014 6.417-.68.236-1.306.208-2.458-.278-.71-.306-1.376-.32-2.084-.07-1.556.556-1.875 2.042-.667 3.14.25.235.54.457.846.596.833.347 1.667.68 2.514.972 1.556.528 2.07 1.458 1.39 2.833-1.974 4.016-4.793 7.057-9.39 8-.806.153-1.18.876-.778 1.57.278.473.722.89 1.194 1.194 1.39.89 3.028 1.057 4.598 1.403.208.056.472.278.542.485.194.515.292 1.057.43 1.598.154.64.53 1.027 1.223.973.652-.042 1.29-.14 1.93-.21 1.694-.165 3.402-.29 4.958.53 1 .527 1.917 1.207 2.847 1.846 1.736 1.194 3.61 1.93 5.736 2 2.724.097 5-.987 7.07-2.598 1.737-1.333 3.64-2.07 5.848-1.847.986.097 1.972.222 2.958.305.598.056 1.042-.208 1.236-.79.125-.39.292-.793.32-1.196.068-.818.5-1.068 1.264-1.236 1.29-.277 2.583-.652 3.818-1.14.543-.22 1.057-.763 1.375-1.276.458-.736.056-1.402-.792-1.61z"/></symbol><symbol viewBox="0 0 18 18" id="search-icon"><title>search-icon</title><path d="M7.67 14.77C3.808 14.77.664 11.6.664 7.705S3.807.644 7.67.644s7.01 3.168 7.01 7.062-3.145 7.063-7.01 7.063zm0-13.092C4.38 1.678 1.7 4.382 1.7 7.705c0 3.324 2.68 6.028 5.973 6.028 3.295 0 5.975-2.704 5.975-6.028 0-3.324-2.68-6.027-5.974-6.027z" id="svgstore424bd48db7cf3f3a81506bf900340a65Stroke-1"/><path d="M12.365 11.704l4.868 4.91-.734.728-4.87-4.91z" id="svgstore424bd48db7cf3f3a81506bf900340a65Stroke-3"/></symbol><symbol viewBox="0 0 100 100" id="second-logo"><title>second-logo</title><path d="M50 99.377C22.772 99.377.622 77.227.622 50S22.772.622 50 .622C77.227.623 99.377 22.773 99.377 50c0 27.227-22.15 49.377-49.377 49.377zm0-97.035C23.72 2.342 2.34 23.722 2.34 50c0 26.28 21.38 47.66 47.66 47.66 26.28 0 47.66-21.38 47.66-47.66C97.66 23.72 76.28 2.34 50 2.34zM33.523 60.813c-.656-.296-.71-.444-.71-1.574 0-2.068.218-3.75.272-4.434 0-.44.11-.688.384-.688.27 0 .435.144.435.49 0 .343 0 .936.165 1.527.767 3.056 4.377 4.138 7.604 4.138 4.763 0 7.223-2.416 7.223-5.566 0-3.004-1.805-4.43-6.073-7.288l-2.19-1.476c-5.193-3.495-6.892-6.056-6.892-8.965 0-4.918 4.324-7.875 10.67-7.875 1.915 0 3.828.246 4.977.49.932.196 1.313.196 1.695.196.385 0 .496.057.496.296 0 .2-.22 1.577-.22 4.435 0 .637-.057.936-.382.936-.33 0-.388-.196-.44-.54-.054-.497-.437-1.626-.712-2.07-.326-.49-1.915-2.07-6.235-2.07-3.5 0-6.4 1.58-6.4 4.533 0 2.658 1.477 4.186 6.236 7.09l1.37.84c5.853 3.59 7.878 6.495 7.878 10.088 0 2.46-1.043 5.12-4.488 7.143-2.025 1.18-5.034 1.475-7.66 1.475-2.24 0-5.036-.295-7.003-1.132"/><path d="M66.708 41.835c-.147 0-.34.174-.584.22-.393.13-1.13.13-1.96.18-.978.043-10.334 0-11.172 0-.242 0-2.936-.09-4.894-.09-.49 0-.688.09-.688.306 0 .135.198.31.346.31.39 0 1.127.044 1.47.09 1.42.18 1.66.795 1.763 2.07.05.652.075 1.266.086 2.634 1.52 1.81 2.162 3.598 2.262 5.553.086 1.74-.62 3.918-2.254 5.764v.733c0 3.616 0 6.567-.243 8.11-.195 1.103-.294 1.848-1.133 1.983-.384.047-.923.175-1.317.175-.244 0-.342.18-.342.31 0 .223.243.31.683.31 1.327 0 4.02-.132 4.263-.132.196 0 2.99.133 5.39.133.494 0 .686-.132.686-.31 0-.13-.095-.31-.342-.31-.393 0-1.324-.088-1.96-.174-1.177-.178-1.42-.88-1.565-1.983-.193-1.456-.193-4.41-.193-8.11v-2.998c0-.267.048-.353.29-.353.733 0 5.825-.045 6.908.086 1.32.175 2.005.66 2.203 1.19.19.44.246.972.293 1.37 0 .173.05.347.294.347.293 0 .39-.393.39-.745 0-.268.045-1.765.147-2.517.1-1.23.396-1.85.396-2.068 0-.182-.054-.31-.248-.31-.147 0-.34.18-.535.396-.395.44-.98.573-2.01.66-.586.048-1.227.048-1.957.048l-5.88.043c-.29 0-.29-.133-.29-.352V44.173c0-.312.095-.398.338-.398l7.056.087c1.662 0 2.697.617 2.94 1.104.244.48.39 1.103.39 1.41 0 .263.143.44.34.44s.347-.218.39-.396c.1-.443.153-2.116.2-2.47.146-1.057.342-1.5.342-1.765-.003-.176-.1-.35-.298-.35z"/></symbol><symbol viewBox="0 0 18 9" id="ski"><title>ski</title><path d="M13.01 8.315c-.446 0-.92-.1-1.337-.284-.512-.255-.883-.793-1.22-1.323-.42-.628-.8-1.198-1.454-1.198-.653 0-1.035.57-1.438 1.173-.353.554-.724 1.092-1.22 1.34-1.37.606-2.983.19-3.81-.91-.153-.207-.25-.473-.353-.837l-.015-.096c-.27-.93-.273-2.45.64-3.504C4.335.926 6.685.684 9 .684s4.663.24 6.193 1.99c.9 1.04.91 2.527.64 3.51l-.013.092c-.1.352-.2.63-.354.836-.567.754-1.485 1.203-2.456 1.203zM9 4.81c1.026 0 1.576.822 2.02 1.483.31.486.614.937.95 1.104.314.14.69.22 1.04.22.764 0 1.455-.338 1.896-.925.09-.12.163-.34.23-.563l.012-.09c.252-.878.2-2.118-.482-2.906-1.345-1.538-3.52-1.75-5.666-1.75s-4.32.212-5.666 1.75c-.683.79-.735 2.028-.482 2.906l.014.097c.056.188.133.43.228.556.636.847 1.918 1.155 2.948.698.323-.16.628-.61.912-1.058.468-.7 1.02-1.523 2.045-1.523z" id="svgstore0d13110dce41f71d8e53e7ab3045a0efStroke-1"/><path d="M10.107.917l2.416 6.814-.66.235-2.416-6.813z" id="svgstore0d13110dce41f71d8e53e7ab3045a0efStroke-3"/><path d="M11.71 1.072L14.033 7.8l-.66.227L11.048 1.3z" id="svgstore0d13110dce41f71d8e53e7ab3045a0efStroke-5"/><path d="M2.417 6.037H1.28c-.33 0-.597-.267-.597-.596V3.286c0-.33.268-.596.597-.596h1.615v.7H1.383v1.948h1.034v.7z" id="svgstore0d13110dce41f71d8e53e7ab3045a0efStroke-7"/><path d="M16.732 6.037h-1.137v-.7h1.033V3.39h-1.512v-.7h1.615c.33 0 .597.267.597.595V5.44c0 .33-.265.597-.595.597z" id="svgstore0d13110dce41f71d8e53e7ab3045a0efStroke-9"/></symbol><symbol viewBox="0 0 12 12" id="star"><title>star</title><path id="svgstored03de94c5ab034b2d88795e47b85a8f3Stroke-3" d="M5.906 0L7.73 3.698l4.08.593L8.86 7.17l.697 4.064-3.65-1.92-3.65 1.92.698-4.064L0 4.29 4.08 3.7 5.907 0z"/></symbol><symbol viewBox="0 0 67 71" id="taste-icon"><title>Page 1</title><desc>Created with Sketch.</desc><g id="svgstorefe0423e7f271031e9e7aad83999792c5Page-1" fill="none"><path d="M29.814 69.533c-14.885 0-26.994-14.097-26.994-31.43 0-3.064.385-6.04 1.12-8.928 3.07 5.233 12.183 9.044 23.507 9.505.783.04 1.57.065 2.367.065.796 0 1.58-.025 2.366-.05 11.323-.476 20.437-4.287 23.508-9.508.73 2.862 1.12 5.852 1.12 8.916 0 17.333-12.112 31.43-26.994 31.43" id="svgstorefe0423e7f271031e9e7aad83999792c5Stroke-1" stroke="#000" stroke-linejoin="round"/><path d="M55.838 29.368c-3.09-5.222-12.256-9.032-23.646-9.507-.788-.025-1.577-.05-2.377-.05-.8 0-1.593.025-2.38.065-11.392.46-20.557 4.27-23.645 9.505" id="svgstorefe0423e7f271031e9e7aad83999792c5Stroke-3" stroke="#000"/><path d="M8.773 29.162c2.423 3.39 10.237 5.37 19.174 5.67.618.025 1.238.04 1.868.04.628 0 1.246-.015 1.865-.033 8.935-.31 16.6-2.294 19.022-5.678-2.423-3.386-10.087-6.3-19.022-6.606-.62-.017-1.237-.034-1.865-.034-.63 0-1.25.017-1.868.042-8.937.3-16.75 3.205-19.174 6.598z" id="svgstorefe0423e7f271031e9e7aad83999792c5Stroke-5" stroke="#000" stroke-linecap="round" stroke-linejoin="round"/><path d="M38.82 30.516c-.767-.25-1.268-.884-1.105-1.378L47.04 1.754c.136-.438.48-.787.92-.937.427-.146.922-.085 1.305.18L65.567 8.85c.66.454.827 1.355.37 2.01-.462.658-1.372.82-2.036.366L49.24 4.496l-8.732 25.498c-.122.37-.915.772-1.685.522" id="svgstorefe0423e7f271031e9e7aad83999792c5Fill-7" fill="#fff"/><path d="M38.82 30.516c-.767-.25-1.268-.884-1.105-1.378L47.04 1.754c.136-.438.48-.787.92-.937.427-.146.922-.085 1.305.18L65.567 8.85c.66.454.827 1.355.37 2.01-.462.658-1.372.82-2.036.366L49.24 4.496l-8.732 25.498c-.122.37-.915.772-1.685.522z" id="svgstorefe0423e7f271031e9e7aad83999792c5Stroke-9" stroke="#000"/><path d="M11.82 15.398l5.17 14.192" id="svgstorefe0423e7f271031e9e7aad83999792c5Stroke-11" stroke="#000" stroke-linecap="round"/><path d="M18.168 59.166c-3.69-2.627-6.625-6.56-8.328-11.242" id="svgstorefe0423e7f271031e9e7aad83999792c5Stroke-13" stroke="#000" stroke-linecap="round" stroke-linejoin="round"/><path d="M28.955 62.695c-3.95 0-7.644-1.29-10.787-3.53" id="svgstorefe0423e7f271031e9e7aad83999792c5Stroke-15" stroke="#000" stroke-linecap="round" stroke-linejoin="round"/><path d="M22.934 11.655c-1.947-5.032-8.8-8.27-14.852-5.977-6.053 2.293-8.968 9.23-7 14.317-.227-1.374.576-2.746 1.94-3.263 1.33-.503 2.774.05 3.55 1.15-.228-1.372.523-2.692 1.888-3.21 1.325-.5 2.774.05 3.55 1.153-.23-1.374.522-2.694 1.887-3.212 1.327-.502 2.772.05 3.55 1.153-.23-1.373.52-2.694 1.886-3.212 1.325-.502 2.826 0 3.6 1.1z" id="svgstorefe0423e7f271031e9e7aad83999792c5Stroke-17" stroke="#000" stroke-linejoin="round"/><path d="M23.41 26.974c0 .27-.22.49-.493.49s-.495-.22-.495-.49.222-.49.495-.49c.274 0 .494.22.494.49" id="svgstorefe0423e7f271031e9e7aad83999792c5Fill-19" fill="#000"/><path d="M21.535 29.757c0 .27-.22.49-.494.49-.273 0-.493-.22-.493-.49s.22-.49.494-.49c.275 0 .495.22.495.49" id="svgstorefe0423e7f271031e9e7aad83999792c5Fill-21" fill="#000"/><path d="M25.287 29.757c0 .27-.222.49-.494.49-.273 0-.495-.22-.495-.49s.222-.49.495-.49c.272 0 .494.22.494.49" id="svgstorefe0423e7f271031e9e7aad83999792c5Fill-23" fill="#000"/></g></symbol><symbol viewBox="0 0 27 27" id="tips"><title>Page 1</title><desc>Created with Sketch.</desc><g id="svgstore4ba7fcf89659417ca84357b4497922d9Page-1" fill="#000" opacity=".476"><path d="M26.036 26.036H.964V24.59h25.072v1.446zM2.41 23.114c1.74-.217 3.13-1.6 3.347-3.346H21.242c.217 1.74 1.6 3.13 3.346 3.346v.51H2.41v-.51zm9.644-5.275h2.892v.964h-2.892v-.965zm-6.268-.965V11.57c0-4.25 3.462-7.713 7.714-7.713 4.253 0 7.714 3.462 7.714 7.714v5.305H5.787zm19.768 6.75V22.18h-.483c-1.594 0-2.89-1.298-2.89-2.894v-.482h-6.27v-.965h6.27v-6.27c0-4.622-3.637-8.402-8.198-8.653V.964h1.93V0h-4.823v.964h1.928v1.953c-4.56.25-8.197 4.03-8.197 8.654v6.27h6.27v.964H4.82v.482c0 1.596-1.296 2.893-2.89 2.893h-.484v1.445H0V27h27v-3.375h-1.446z" id="svgstore4ba7fcf89659417ca84357b4497922d9Fill-1"/><path d="M6.75 11.57h.964c0-3.19 2.594-5.784 5.786-5.784V4.82c-3.722 0-6.75 3.03-6.75 6.75" id="svgstore4ba7fcf89659417ca84357b4497922d9Fill-3"/></g></symbol><symbol viewBox="0 0 72 64" id="towel-icon"><title>Page 1</title><desc>Created with Sketch.</desc><g id="svgstoreca83178c855b0dee3f389c54e62693ecPage-1" stroke="#000" fill="none"><path d="M8.672 7.8c0 1.97-1.618 3.565-3.61 3.565-1.995 0-3.613-1.595-3.613-3.564 0-1.967 1.617-3.563 3.61-3.563 1.994 0 3.612 1.596 3.612 3.564z" id="svgstoreca83178c855b0dee3f389c54e62693ecStroke-1"/><path d="M70.595 7.8c0 1.97-1.618 3.565-3.61 3.565-1.995 0-3.613-1.595-3.613-3.564 0-1.967 1.618-3.563 3.612-3.563 1.993 0 3.61 1.596 3.61 3.564z" id="svgstoreca83178c855b0dee3f389c54e62693ecStroke-3"/><path d="M10.272 9.453v15.112h9.096L19.363 5.93c0-2.478-2.036-4.487-4.546-4.487-2.51 0-4.545 2.01-4.545 4.486" id="svgstoreca83178c855b0dee3f389c54e62693ecStroke-5"/><path d="M14.817 1.473h39.398c2.822 0 4.413 1.836 4.413 4.854l.016 56.39h-39.3V24.45" id="svgstoreca83178c855b0dee3f389c54e62693ecStroke-7"/><path d="M39.084 19.915l2.506 5.01 5.6.803-4.052 3.9.956 5.507-5.01-2.6-5.01 2.6.956-5.507-4.053-3.9 5.602-.802 2.504-5.01z" id="svgstoreca83178c855b0dee3f389c54e62693ecStroke-9"/><path d="M19.475 48.254h39.32" id="svgstoreca83178c855b0dee3f389c54e62693ecStroke-11"/><path d="M19.475 53.79h39.017" id="svgstoreca83178c855b0dee3f389c54e62693ecStroke-13"/><path d="M58.946 5.883h5.052" id="svgstoreca83178c855b0dee3f389c54e62693ecStroke-15"/><path d="M8.198 5.883h11.536" id="svgstoreca83178c855b0dee3f389c54e62693ecStroke-17"/><path d="M58.946 9.822h5.052" id="svgstoreca83178c855b0dee3f389c54e62693ecStroke-19"/><path d="M8.198 9.822h11.536" id="svgstoreca83178c855b0dee3f389c54e62693ecStroke-21"/></g></symbol><symbol viewBox="0 0 15 13" id="tw"><title>tw</title><path id="svgstore261c6e8412728cd579f533d324880716Page-1" d="M12.997 2.408c.608-.384 1.076-.994 1.296-1.72-.57.357-1.2.616-1.87.755-.54-.604-1.306-.98-2.153-.98-1.627 0-2.947 1.39-2.947 3.106 0 .243.026.48.076.707-2.45-.13-4.623-1.367-6.076-3.247-.254.46-.4.993-.4 1.562 0 1.078.522 2.03 1.312 2.586-.483-.016-.938-.156-1.335-.388v.04c0 1.504 1.018 2.76 2.366 3.045-.248.07-.51.11-.778.11-.19 0-.374-.02-.554-.057.375 1.234 1.464 2.133 2.753 2.157-1.01.834-2.28 1.33-3.66 1.33-.24 0-.473-.014-.704-.043 1.304.882 2.854 1.396 4.52 1.396 5.42 0 8.385-4.734 8.385-8.84 0-.135-.004-.27-.01-.403.576-.438 1.076-.985 1.47-1.608-.527.25-1.094.416-1.69.49z"/></symbol><symbol viewBox="10 0 80 79.964" id="website"><title>website</title><path d="M83.656 6.38c-8.612-8.615-22.438-8.325-30.833.072l-9.99 9.988c5.864-1.88 10.423-.58 14.405 1.085l2.896-2.895c4.126-4.125 11-3.91 15.056.145 4.125 4.125 4.414 11.074.29 15.2L62.015 43.438c-1.52 1.52-3.258 2.39-5.21 2.895-5.213.724-10.207-1.88-12.09-6.44l-8.83 8.54c6.08 9.19 18.675 12.303 28.662 6.66 1.665-.87 3.257-2.173 4.705-3.62l14.33-14.332c8.397-8.395 8.688-22.147.073-30.76zM36.03 24.4c-1.737.87-3.33 2.17-4.705 3.62l-14.91 14.837c-8.396 8.395-8.686 22.147-.072 30.76s22.438 8.325 30.834-.07l9.988-9.99c-5.863 1.882-10.423.58-14.404-1.085l-2.895 2.895c-4.125 4.126-11 3.91-15.055-.145-4.125-4.125-4.415-11.074-.29-15.2l13.97-13.97c1.52-1.52 3.257-2.39 5.21-2.895 5.212-.724 10.207 1.88 12.087 6.44l8.904-8.54c-6.15-9.19-18.744-12.304-28.66-6.658z"/></symbol><symbol viewBox="0 0 21 12" id="wellness"><title>wellness</title><path d="M8.24 11.214c-1.513 0-2.825-.317-3.898-.943C2.208 9.03 1.152 6.62.796 5.64l-.1-.28.29-.052c.415-.074 1.072-.16 1.856-.16.563 0 1.105.043 1.61.132l.164.028.04.162c.16.692.406 1.333.733 1.904.985 1.72 2.648 2.757 3.868 3.323l.848.393-.93.083c-.28.025-.597.04-.936.04zM1.374 5.752C1.79 6.8 2.78 8.784 4.594 9.838c.986.575 2.2.87 3.605.875-1.135-.646-2.41-1.636-3.245-3.092-.326-.566-.577-1.196-.748-1.874-.958-.147-2.138-.095-2.833.006z" id="svgstore2d660d80176d767c8140f62abfa86c67Stroke-1"/><path d="M10.148 10.883l-.854-.403C8.11 9.92 6.502 8.91 5.562 7.27c-1.23-2.15-.95-4.77-.773-5.797l.05-.297.282.104c.64.236 1.88.774 3.015 1.726l.126.105-.048.16c-.204.682-.308 1.36-.308 2.018 0 1.982.924 3.717 1.7 4.822l.54.773zM5.234 1.86c-.157 1.12-.28 3.336.762 5.16C6.67 8.194 7.72 9.027 8.68 9.59c-.66-1.13-1.272-2.627-1.272-4.302 0-.654.095-1.327.283-2-.89-.72-1.835-1.175-2.456-1.428z" id="svgstore2d660d80176d767c8140f62abfa86c67Stroke-3"/><path d="M10.506 10.93l-.192-.232c-.663-.8-2.205-2.93-2.205-5.41S9.65.68 10.313-.12l.192-.23.192.23c.663.8 2.204 2.927 2.204 5.41s-1.54 4.61-2.204 5.41l-.192.232zm0-10.492c-.692.89-1.897 2.744-1.897 4.85 0 2.105 1.204 3.96 1.896 4.85.69-.89 1.896-2.742 1.896-4.85s-1.205-3.96-1.896-4.85z" id="svgstore2d660d80176d767c8140f62abfa86c67Stroke-5"/><path d="M10.858 10.893l.542-.773c.778-1.107 1.705-2.845 1.705-4.832 0-.655-.103-1.33-.306-2.01l-.048-.156.125-.105c1.134-.957 2.382-1.498 3.025-1.735l.282-.104.05.296c.178 1.027.456 3.648-.772 5.798-.94 1.642-2.56 2.657-3.75 3.22l-.854.4zm2.466-7.598c.187.67.28 1.34.28 1.993 0 1.68-.613 3.18-1.275 4.312.965-.565 2.024-1.402 2.7-2.578 1.042-1.825.918-4.042.76-5.162-.624.254-1.574.713-2.466 1.435z" id="svgstore2d660d80176d767c8140f62abfa86c67Stroke-7"/><path d="M12.784 11.215c-.34 0-.653-.016-.936-.04l-.93-.084.847-.392c1.222-.567 2.886-1.604 3.87-3.323.328-.573.574-1.214.734-1.904l.036-.16.163-.03c.505-.087 1.047-.132 1.61-.132.78 0 1.44.088 1.856.162l.293.052-.103.28c-.356.978-1.413 3.387-3.547 4.63-1.074.625-2.385.943-3.896.943zm4.033-5.468c-.17.676-.422 1.307-.747 1.876-.833 1.455-2.11 2.446-3.245 3.092 1.403-.006 2.617-.3 3.605-.874 1.812-1.056 2.803-3.038 3.22-4.086-.698-.1-1.877-.153-2.833-.007z" id="svgstore2d660d80176d767c8140f62abfa86c67Stroke-9"/></symbol></svg>