<?xml version="1.0" encoding="utf-8"?>
<!-- Generator: Adobe Illustrator 19.2.1, SVG Export Plug-In . SVG Version: 6.00 Build 0)  -->
<svg version="1.1" id="layer" xmlns="http://www.w3.org/2000/svg" xmlns:xlink="http://www.w3.org/1999/xlink" x="0px" y="0px"
	 viewBox="0 0 652 652" style="enable-background:new 0 0 652 652;" xml:space="preserve">
<style type="text/css">
	.st0{fill-rule:evenodd;clip-rule:evenodd;}
</style>
<path class="st0" d="M27,217.3v20.2h33.4v194.8h31.5V237.5h32.4v-20.2L27,217.3z M27,217.3"/>
<path class="st0" d="M26.4,216.8l0,21.3h33.3v194.8h32.7V238.1h32.4v-21.4L26.4,216.8z M27.6,217.9l96.2-0.1V237H91.3v194.8H60.9
	V237H27.6L27.6,217.9z M27.6,217.9"/>
<path class="st0" d="M134.2,281.7v-9.2h-27.9v159.4h29.3c0,0,0.4-106.1,0-117.6c-0.5-13.8,20.3-14.7,20.3-14.7h9.7v-28.5
	C149.9,268.8,134.2,281.7,134.2,281.7"/>
<path class="st0" d="M106.9,431.3h28.2c0-8.4,0.3-106.1,0-117c-0.5-14.2,20.6-15.3,20.8-15.3h9.2v-27.4
	c-15.1-1.9-30.3,10.4-30.4,10.5l-0.9,0.8V273h-26.8V431.3z M136.2,432.4h-30.4V271.9h29v8.6c3.6-2.7,17.3-12,30.9-10l0.5,0.1v29.5
	h-10.3c0,0-5.1,0.3-10.1,2.2c-6.6,2.5-9.8,6.5-9.6,11.9c0.4,11.4,0,116.5,0,117.6V432.4z M318.8,272.5l-16.6,102l-18-102.4h-30.5
	l31.4,160.3h23.5l29.5-159.8H318.8z M318.8,272.5"/>
<path class="st0" d="M285.6,431.7h22.6L337.4,273h-18.2l-17.1,104.8l-18.5-105.3h-29.3L285.6,431.7z M309.1,432.9h-24.5l-0.1-0.5
	l-31.5-161h31.6l0.1,0.5l17.4,99.1l16.1-99.1h20.5L309.1,432.9z M380,282.1c0,0,12.4,0.4,12.9,23.4c0.5,23,0,35.4,0,35.4h-25.8
	v-35.8C367.1,305.1,366.6,282.1,380,282.1L380,282.1z M393.8,366.6V402c0,0-0.5,19.3-12.9,18.8c-12.5-0.4-13.9-18.8-13.9-18.8v-48.2
	h58.1c4.6-86.8-44.7-83.6-44.7-83.6c-48,6-44.7,68.4-44.7,68.4s-6,96.9,45.7,95.1c51.6-1.8,43.4-67,43.4-67H393.8z M393.8,366.6"/>
<path class="st0" d="M367.6,340.3h24.7c0.1-2.7,0.4-14.8,0-34.8c-0.5-21.9-12-22.8-12.4-22.9c-2.6,0-4.8,1-6.7,2.8
	c-5.9,6-5.7,19.5-5.7,19.6V340.3z M393.4,341.4h-26.9v-36.4c0-0.5-0.2-14.1,6-20.4c2.1-2.1,4.6-3.1,7.5-3.1c0.6,0,13,0.7,13.5,24
	c0.5,22.7,0,35.2,0,35.4L393.4,341.4z M381.1,270.7c-0.4,0-0.6,0-0.6,0c-46.9,5.8-44.3,67.2-44.2,67.8c0,0.7-3.5,60.6,20.1,84.7
	c6.8,6.9,15.2,10.2,25,9.9c12.9-0.5,23.2-5,30.5-13.6c15.3-17.9,12.8-48.1,12.4-52.4h-29.8V402c0,0.5-0.3,11.3-6,16.6
	c-2.1,1.9-4.6,2.8-7.5,2.8c-5.3-0.2-9.5-3.6-12.1-9.9c-1.2-3-2-6.2-2.3-9.4v-48.8h58.1c1.7-33.7-4.5-57.7-18.3-71.4
	C395.7,271.4,383.8,270.7,381.1,270.7L381.1,270.7z M379.9,434.2c-9.6,0-17.8-3.4-24.4-10.2c-23.9-24.4-20.4-84.8-20.4-85.4
	c0-0.6-2.7-63,45.2-69c0.2,0,14.4-0.8,26.8,11.4c14.2,13.9,20.4,38.4,18.6,72.8l0,0.5h-58.1V402c0,0.1,1.5,17.8,13.3,18.3
	c2.6,0.1,4.9-0.7,6.7-2.5c5.3-5,5.6-15.7,5.6-15.8v-35.9h32l0.1,0.5c0.1,0.3,4.1,34.2-12.6,53.8c-7.5,8.8-18,13.5-31.3,13.9
	C380.9,434.2,380.4,434.3,379.9,434.2L379.9,434.2z M514.1,282.1c0,0,12.5,0.4,12.9,23.4c0.5,23,0,35.4,0,35.4h-25.9v-35.8
	C501.2,305.1,500.8,282.1,514.1,282.1L514.1,282.1z M528,366.6V402c0,0-0.5,19.3-12.9,18.8c-12.5-0.4-13.9-18.8-13.9-18.8v-48.2
	h58.1c4.6-86.8-44.7-83.6-44.7-83.6c-48,6-44.7,68.4-44.7,68.4s-6,96.9,45.7,95.1c51.7-1.8,43.4-67,43.4-67H528z M528,366.6"/>
<path class="st0" d="M501.8,340.3h24.7c0.1-2.7,0.4-14.8,0-34.8c-0.4-22-11.7-22.8-12.4-22.9c-2.6,0-4.9,1-6.7,2.8
	c-5.9,6-5.7,19.5-5.7,19.6V340.3z M527.6,341.4h-27v-36.4c0-0.5-0.2-14.1,6-20.4c2-2.1,4.5-3.1,7.5-3.1h0c0.5,0,13,0.7,13.5,24
	c0.5,22.7,0,35.2,0,35.4V341.4z M515.2,270.7c-0.4,0-0.5,0-0.6,0c-46.8,5.8-44.2,67.2-44.2,67.8c0,0.7-3.5,60.7,20,84.7
	c6.8,6.9,15.2,10.2,25,9.9c13-0.5,23.2-5,30.5-13.5c15.3-17.9,12.8-48.2,12.4-52.4h-29.8V402c0,0.5-0.3,11.4-6,16.6
	c-2,1.9-4.7,2.9-7.5,2.8c-5.3-0.2-9.5-3.6-12.1-9.9c-1.2-3-2-6.2-2.3-9.4v-48.8h58.1c1.7-33.7-4.4-57.7-18.3-71.3
	C529.8,271.3,517.9,270.7,515.2,270.7L515.2,270.7z M514.1,434.2c-9.6,0-17.8-3.4-24.5-10.2c-23.9-24.4-20.4-84.8-20.3-85.4
	c-0.1-0.6-2.7-63,45.2-69c0.2,0,14.3-0.8,26.8,11.4c14.2,13.9,20.5,38.4,18.6,72.8l0,0.5h-58.1V402c0,0.1,1.5,17.8,13.3,18.3
	c2.6,0.1,4.9-0.7,6.7-2.5c5.3-5,5.6-15.7,5.6-15.8v-35.9h32l0.1,0.5c0,0.3,4.1,34.2-12.6,53.8c-7.5,8.8-18,13.5-31.3,13.9
	C515.1,434.2,514.6,434.3,514.1,434.2L514.1,434.2z M433.5,432.3h28.1V215.5h-28.1V432.3z M433.5,432.3"/>
<path class="st0" d="M434.1,431.7h27V216.1h-27V431.7z M432.9,432.9h29.3V214.9h-29.3V432.9z M594.5,279.8v-9.2h-27.9v161.6h29.3
	c0,0-0.1-108.4,0-119.9c0.1-13.8,20.3-14.7,20.3-14.7h9.7v-28.5C610.2,267,594.5,279.8,594.5,279.8"/>
<path class="st0" d="M596.5,432.9H566V270.1h29.1v8.6c3.6-2.7,17.3-12,30.9-10l0.5,0.1v29.5h-10.3c0,0-5,0.3-9.9,2.1
	c-6.5,2.5-9.8,6.6-9.8,12c-0.1,11.3,0,118.8,0,119.9V432.9z M224,399.1c0,0-1.2,13.7-12,13.8c-11.5,0.1-14.3-12.3-14.3-12.3v-38.7
	c0,0,0.3-5.1,3.2-8.3c2.9-3.2,18.9-11.8,23.1-15.4V399.1z M212.6,270.6c-48,0.9-41.5,49.5-41.5,49.5H200v-21c0,0,2-15.6,12.1-15.6
	c10.2,0,11.4,14.9,11.4,14.9v21.4c-1.4,2.5-10.9,9.3-10.9,9.3c-3.7,2.5-8,5.7-19.4,13.3c-14,9.3-20.1,19.3-20.1,19.3
	c-8.9,14.1-6.4,47.5-1.5,56.8c1.9,3.8,9.2,15.6,26.3,15.6c17.1,0,27.7-11,27.7-11v9.2h27.2V320.2
	C252.7,267.9,212.6,270.6,212.6,270.6L212.6,270.6z M212.6,270.6"/>
<path class="st0" d="M198.2,400.5c0.1,0.4,0.8,3.2,2.8,5.9c2.7,3.9,6.4,5.9,11,5.8c4.2-0.1,7.4-2.3,9.5-6.6c1.5-3.2,1.9-6.3,1.9-6.7
	v-59.7c-2.3,1.7-6.2,4.1-10.3,6.7c-5.1,3.1-10.3,6.4-11.8,8c-2.8,3-3.1,7.9-3.1,7.9V400.5z M211.8,413.4
	c-11.7,0-14.6-12.5-14.7-12.7v-38.8c0-0.3,0.3-5.3,3.4-8.7c1.6-1.7,6.7-4.9,12.1-8.2c4.5-2.8,9.2-5.6,11.1-7.3l0.9-0.8v62.3
	c0,0.1-1.4,14.1-12.5,14.3H211.8z M212.1,282.9c10.6,0,11.9,15.2,11.9,15.4v21.6l-0.1,0.1c-1.4,2.5-10.7,9.2-11.1,9.5
	c-1.4,0.9-2.9,2-4.7,3.3c-3.2,2.2-7.5,5.3-14.7,10.1c-13.7,9.2-19.9,19-20,19.1c-8.7,13.8-6.3,47-1.5,56.2
	c2.4,4.6,9.7,15.3,25.8,15.3c16.6,0,27.2-10.7,27.3-10.8l1-1v10h26.1V320.2c0-17.7-4.6-31-13.7-39.4c-11.3-10.5-25.7-9.6-25.8-9.6h0
	c-13.8,0.3-24.3,4.5-31.4,12.7c-11.3,13.1-10,32.4-9.7,35.7h27.8v-20.5C199.5,298.4,201.6,282.9,212.1,282.9L212.1,282.9z
	 M197.8,434.7c-16.7,0-24.3-11.1-26.8-15.9c-4.9-9.4-7.4-43.3,1.6-57.4c0.1-0.1,6.4-10.2,20.3-19.5c7.1-4.8,11.5-7.8,14.6-10.1
	c1.9-1.3,3.3-2.3,4.7-3.3c2.6-1.9,9.4-7,10.7-9v-21.3c0-0.1-1.3-14.3-10.8-14.3c-9.5,0-11.6,15-11.6,15.1v21.6h-30l-0.1-0.5
	c0-0.2-2.8-22.4,9.9-37.1c7.2-8.4,18.1-12.8,32.2-13.1c0.6,0,15.2-0.8,26.7,9.9c9.3,8.7,14,22.2,14,40.3v112.6h-28.3v-8.5
	C221.9,427.1,212,434.7,197.8,434.7L197.8,434.7z M159.7,247.2c-2.5,8.2-8.3,8.2-9.1,8.2c-5.9,0-8.5-7.5-8.5-15.4
	c0-5.1,1.2-17,9.3-17c2.5,0,6.5,1.1,7.9,7.6l7.7-2.4c-0.5-2.1-3.9-12.8-15.2-12.7c-10,0-18.3,8.4-18.3,24.8
	c0,17.9,10.3,23.2,18.1,23.2c6.3,0,10.2-3.3,12.6-6.6c2-2.8,2.5-5.2,3.1-7.5L159.7,247.2z M159.7,247.2"/>
<path class="st0" d="M152,216.1h-0.2c-10.8,0-17.7,9.5-17.7,24.3c0,21.6,14.6,22.7,17.6,22.7c5,0,9.1-2.2,12.2-6.4
	c1.8-2.5,2.3-4.6,2.9-6.8l-6.5-2c-2.6,7.5-7.9,8.1-9.5,8.1c-6.7,0-9.1-8.6-9.1-15.9c0-2.9,0.5-17.5,9.9-17.5c2.4,0,6.7,1,8.3,7.5
	l6.6-2.1C165.6,225.4,162.3,216.1,152,216.1 M151.6,264.2c-2.8,0-8-0.7-12.4-5.1c-4.2-4.2-6.3-10.5-6.3-18.7
	c0-15.4,7.4-25.4,18.9-25.4h0.2c9.9,0,14.4,8.2,15.5,13.1l0.1,0.5l-8.7,2.8l-0.1-0.6c-1.3-6.2-5.2-7.2-7.3-7.2
	c-8.3,0-8.7,13.7-8.7,16.4c0,6.8,2.1,14.8,7.9,14.8c1.9,0,6.4-0.8,8.6-7.9l0.2-0.6l8.7,2.7l-0.2,0.8c-0.5,2.3-1.1,4.6-3.1,7.4
	C162.4,260.5,158.4,264.2,151.6,264.2 M178.9,246.3c0,2.1,0.2,11,5.9,11c5.8,0,6-9,6-11.9c0-3-0.6-10.6-5.9-10.6
	C180,234.7,178.9,241,178.9,246.3 M198.4,246.1c0,12.1-6.9,17.2-13.5,17.2c-6,0-13.6-4.4-13.6-17.2c0-11.1,5.7-17,12.8-17
	C195.5,229.2,198.4,238.4,198.4,246.1"/>
<path class="st0" d="M185,235.3c-4.5,0-5.5,6-5.5,11c0,3.1,0.5,10.4,5.4,10.4c4.5,0,5.4-6.2,5.4-11.3
	C190.3,243,189.9,235.3,185,235.3 M184.9,257.8c-4.1,0-6.5-4.2-6.5-11.5c0-7.9,2.3-12.1,6.6-12.1c6,0,6.5,8.6,6.5,11.2
	C191.4,255.7,187.9,257.8,184.9,257.8 M184.2,229.8c-7.4,0-12.2,6.4-12.2,16.4c0,12.2,7,16.6,13,16.6c8.9,0,12.9-8.4,12.9-16.6
	C197.8,241.2,196.5,229.8,184.2,229.8 M185,263.9c-7,0-14.2-5.5-14.2-17.7c0-10.7,5.3-17.5,13.4-17.5c4.5,0,14.8,1.7,14.8,17.5
	C199,258.4,192,263.9,185,263.9 M221.2,229.3c-5.5,0-8.9,3.5-10.4,5.1v-4.5h-7.6v32.9h7.6v-22.6c2.7-2.8,4.7-4.2,6.9-4.2
	c2.3,0,2.8,2,2.8,3.8v23h7.5v-25.1C228.1,232.2,225.9,229.3,221.2,229.3"/>
<path class="st0" d="M221.1,262.2h6.4v-24.5c0-5.3-2.1-7.9-6.3-7.9c-5.3,0-8.6,3.4-9.9,4.9l-1,1v-5.4h-6.4v31.8h6.4v-22.3l0.2-0.1
	c2.7-2.7,4.8-4.4,7.3-4.4c2.2,0,3.3,1.4,3.3,4.3V262.2z M228.7,263.3H220v-23.6c0-2.3-0.6-3.2-2.2-3.2c-2.1,0-4,1.5-6.4,3.9v22.9
	h-8.7v-34.1h8.7v3.7c1.8-1.7,5-4.2,9.8-4.2c3.4,0,7.4,1.6,7.4,9V263.3z M251.9,239.4c-0.9-1.2-2.7-3.2-5.2-3.2
	c-5.6,0-5.9,7.8-5.9,10.3c0,2.8,0.7,9.9,5.9,9.9c2.7,0,4.4-2.1,5.2-3.2V239.4z M259.4,215.8v46.9h-7.6V259c-0.9,1.1-3.7,4.3-8.1,4.3
	c-6.8,0-11.2-7.5-11.2-17c0-9.5,4.5-17.1,11.2-17.1c1.4,0,4.8,0.2,8.1,4.3v-17.8H259.4z M259.4,215.8"/>
<path class="st0" d="M246.6,236.8c-4.6,0-5.3,6.1-5.3,9.7c0,1,0.1,9.4,5.4,9.4c2.3,0,3.8-1.7,4.6-2.8v-13.4
	C249.8,237.7,248.3,236.8,246.6,236.8 M246.7,257c-4.8,0-6.5-5.6-6.5-10.5c0-7,2.3-10.8,6.5-10.8c2,0,3.9,1.2,5.7,3.5l0.1,0.1v14.2
	l-0.1,0.1C251.5,254.7,249.6,257,246.7,257 M243.7,229.8c-6.1,0-10.6,7-10.6,16.5c0,9.5,4.4,16.4,10.6,16.4c4.2,0,6.8-3,7.7-4.1
	l1-1.2v4.7h6.4v-45.8h-6.4v18.8l-1-1.2C249.2,231.2,246.6,229.8,243.7,229.8 M243.6,263.9c-6.8,0-11.7-7.4-11.7-17.5
	c0-10.2,5-17.7,11.8-17.7c3.3,0,5.8,1.6,7.6,3.4v-16.8h8.7v48.1h-8.7v-2.9C249.8,261.9,247.3,263.9,243.6,263.9 M271.5,242.8
	c0.3-6.1,3.5-7.9,6-7.9c2.1,0,5.9,1.4,6.2,7.9H271.5z M289.7,238.4c-1.5-5.1-5.7-9.1-12.2-9.1c-8.2,0-13.9,6.6-13.9,16.6
	c0,11.2,6.6,17.4,14.2,17.4c8,0,11.1-6.4,12.1-8.4l-6.2-2.8c-0.7,1.4-2.1,4.6-5.9,4.6c-2.2,0-6-1.3-6.3-8.9h18.9
	C290.6,244.9,290.7,242,289.7,238.4L289.7,238.4z M289.7,238.4"/>
<path class="st0" d="M272.1,242.2h11c-0.5-6.4-4.8-6.8-5.6-6.8C276.4,235.5,272.7,236,272.1,242.2L272.1,242.2z M284.3,243.3h-13.4
	l0-0.6c0.3-6.2,3.6-8.4,6.6-8.4c1.1,0,6.4,0.4,6.8,8.4L284.3,243.3z M277.5,229.8c-7.9,0-13.3,6.5-13.3,16.1
	c0,11.6,7,16.8,13.6,16.8c7.1,0,10.2-5.2,11.4-7.6l-5.1-2.3c-0.8,1.5-2.5,4.4-6.2,4.4c-1.5,0-6.5-0.7-6.8-9.4l0-0.6h19
	c0.1-2.8,0.1-5.4-0.8-8.7C287.5,233.1,283.1,229.8,277.5,229.8L277.5,229.8z M277.7,263.9c-7.1,0-14.7-5.6-14.7-18
	c0-10.3,5.8-17.2,14.5-17.2c6.1,0,11,3.7,12.8,9.5c1.1,3.6,1,6.5,0.8,9.6l0,0.5h-18.9c0.5,7,4.1,7.7,5.7,7.7c3.3,0,4.6-2.7,5.4-4.1
	l0.3-0.6l7.2,3.3l-0.3,0.5C289.3,257.3,286.1,263.9,277.7,263.9L277.7,263.9z M287.5,216.1h-8.9l-7.4,9.6h5.7L287.5,216.1z
	 M287.5,216.1"/>
<path class="st0" d="M272.4,225.1h4.3l9.4-8.4h-7.1L272.4,225.1z M277,226.2h-7l8.3-10.7H289L277,226.2z M333.2,216.5v31h-0.1
	l-17-31h-8.7v46.3h8.2v-32.3h0.1l17.6,32.3h8.1v-46.3H333.2z M333.2,216.5"/>
<path class="st0" d="M333.6,262.2h7.2v-45.1h-7v31h-0.9l-0.3-0.3l-16.8-30.7H308v45.1h7v-32.3h0.9l0.3,0.3L333.6,262.2L333.6,262.2z
	 M342,263.3h-9l-16.8-30.8v30.8h-9.3v-47.4h9.6l16.2,29.6v-29.6h9.3V263.3z M364.1,245.8c-2.8,0.6-10.2,2.2-10.2,7.3
	c0,2.6,1.9,3.9,3.6,3.9c2.7,0,5.6-2.5,6.6-3.5V245.8z M370.9,255.5c0,1.9,0.5,4.9,1,6.4H365c-0.3-1.1-0.5-2.1-0.6-3.2
	c-1.3,1.3-3.9,3.7-8.3,3.7c-4.7,0-9-3.1-9-8.6c0-8.1,8.1-11.7,17-12.4v-0.9c0-3-2-4.9-4.8-4.9c-3.2,0-5.5,1.7-7.2,4.3l-4.3-3.9
	c2.7-3.7,7-5.8,11.6-5.7c4.9,0,11.4,1.7,11.4,10.7V255.5z M370.9,255.5"/>
<path class="st0" d="M363.6,246.5c-3,0.7-9.1,2.3-9.1,6.6c0,2.3,1.6,3.4,3,3.4c2.4,0,5-2.2,6.1-3.2V246.5z M357.5,257.7
	c-2.1,0-4.2-1.5-4.2-4.5c0-5.7,7.8-7.3,10.7-7.9l0.7-0.1v8.7l-0.2,0.1C363.4,255,360.5,257.7,357.5,257.7L357.5,257.7z M359.4,234.9
	c3.2,0,5.4,2.2,5.4,5.5v1.4l-0.5,0.1c-5,0.4-16.5,2.4-16.5,11.9c0,5.5,4.3,8.1,8.4,8.1c4.2,0,6.6-2.4,7.8-3.6l0.8-0.8l0.2,1.1
	c0.1,0.7,0.2,1.5,0.5,2.7h5.7c-0.5-1.9-0.8-3.9-0.8-5.8v-14.6c0-8.4-5.9-10.2-10.9-10.2c-4.3,0-8.1,1.8-10.8,5.1l3.4,3.1
	C354.1,236.3,356.5,234.9,359.4,234.9L359.4,234.9z M356.1,263c-4.8,0-9.6-3.2-9.6-9.2c0-7.2,6.2-11.9,17-13v-0.4
	c0-2.7-1.7-4.4-4.2-4.4c-2.6,0-4.9,1.4-6.7,4.1l-0.4,0.5l-5.1-4.7l0.3-0.4c2.8-3.8,7.3-6.1,12-6c4.5,0,12,1.5,12,11.3v14.6
	c0,1.8,0.5,4.8,1,6.2l0.2,0.8h-8.1l-0.1-0.4c-0.2-0.7-0.3-1.5-0.5-2.2C362.5,261.2,360,263,356.1,263L356.1,263z M389.9,243.1
	c-3.1-0.7-6-1.4-6-4.3c0-1.9,1.7-3.8,4.5-3.8c2,0,3.5,0.8,6,2.5l0.7,0.5l4.4-4c-2.2-1.8-5.7-4.7-11.2-4.7c-6.6,0-11.5,4.7-11.5,10.2
	c0,8.1,7.5,9.9,10.8,10.5c3,0.5,5.5,1.4,5.5,4c0,2.4-2.5,3.3-4.7,3.3c-3.7,0-6-2-7.7-3.4l-4.6,3.5c1.9,2.2,5.3,6,12.2,6
	c9.3,0,12.4-6,12.4-10.6C400.7,245.5,393.9,244,389.9,243.1"/>
<path class="st0" d="M376.9,257.4c1.8,2.1,5,5.4,11.4,5.4c4.4,0,11.8-2.1,11.8-10c0-6.7-6.5-8.2-10.3-9.1l-0.1,0l0.1-0.6l-0.2,0.5
	c-3.2-0.8-6.4-1.5-6.4-4.9c0-2.2,1.9-4.4,5-4.4c2.1,0,3.7,0.9,6.3,2.6l0.3,0.3l3.6-3.3c-2.1-1.7-5.4-4.1-10.3-4.1
	c-6.1,0-10.9,4.2-10.9,9.7c0,7.9,7.7,9.4,10.3,9.9c3.1,0.6,6,1.5,6,4.5c0,2.8-2.8,3.9-5.3,3.9c-3.7,0-6.1-1.9-7.7-3.2L376.9,257.4z
	 M388.3,263.9c-7.3,0-10.9-4.2-12.6-6.2l-0.4-0.5l5.4-4.2l0.3,0.3c1.7,1.4,3.9,3.2,7.4,3.2c1.9,0,4.1-0.7,4.1-2.7
	c0-1.8-1.4-2.7-5.1-3.4c-7.4-1.4-11.2-5.1-11.2-11c0-6.1,5.3-10.8,12-10.8c5.7,0,9.3,3,11.5,4.8l0.5,0.4l-5.2,4.8l-1.1-0.7
	c-2.5-1.7-3.9-2.5-5.7-2.5c-2.4,0-3.9,1.7-3.9,3.3c0,2.3,2.1,3,5.5,3.8l-0.1,0.6l0.1-0.5l-0.1,0.5l0.2-0.5
	c3.9,0.9,11.2,2.6,11.2,10.2C401.3,258.3,397.3,263.9,388.3,263.9L388.3,263.9z M421.8,235.8v-6h-5.3v-10.7h-7.6v10.7h-4.5v6h4.5
	v17.5c0,3.3,1.1,6.5,3.8,8.4c2.1,1.6,4.8,1.7,9.1,1.5v-6.8c-2.9-0.1-5.3-0.2-5.3-3.1v-17.5H421.8z M421.8,235.8"/>
<path class="st0" d="M405,235.3h4.5v18.1c0,2,0.5,5.7,3.5,7.9c1.9,1.5,4.5,1.6,8.2,1.4V257c-2.4-0.1-5.3-0.4-5.3-3.7v-18.1h5.3v-4.9
	h-5.3v-10.6h-6.4v10.6H405V235.3z M419,263.9c-2.8,0-4.9-0.3-6.6-1.7c-2.6-1.9-4-5-4-8.9v-17h-4.6v-7.2h4.6v-10.6h8.7v10.6h5.2v7.1
	h-5.2v17c0,2.1,1.4,2.5,4.7,2.6h0.5v7.9l-0.5,0C420.8,263.9,419.8,263.9,419,263.9L419,263.9z M419,263.9"/>
</svg>
