<?xml version="1.0" encoding="UTF-8"?>
<svg width="240px" height="79px" viewBox="0 0 240 79" version="1.1" xmlns="http://www.w3.org/2000/svg" xmlns:xlink="http://www.w3.org/1999/xlink">
    <title>Group 48</title>
    <defs>
        <polygon id="path-1" points="0 -7.10542736e-15 26.2525 -7.10542736e-15 26.2525 33.3849216 0 33.3849216"></polygon>
        <polygon id="path-3" points="1.77635684e-15 0 12.4226368 0 12.4226368 13.4559706 1.77635684e-15 13.4559706"></polygon>
        <polygon id="path-5" points="0 0 42.7317 0 42.7317 32.6145484 0 32.6145484"></polygon>
    </defs>
    <g id="Page-1" stroke="none" stroke-width="1" fill="none" fill-rule="evenodd">
        <g id="Group-48" transform="translate(-0.000000, 0.000000)">
            <g id="Group-3" transform="translate(213.298500, 33.862590)">
                <mask id="mask-2" fill="white">
                    <use xlink:href="#path-1"></use>
                </mask>
                <g id="Clip-2"></g>
                <path d="M26.253,24.5202105 C25.13,30.6872105 20.709,32.7982105 15.157,33.2842105 C10.982,33.6502105 6.913,33.0752105 3.351,30.6212105 C2.215,29.8382105 1.229,28.8382105 0,27.7882105 C1.374,26.6282105 2.555,25.5832105 3.81,24.6352105 C3.967,24.5172105 4.587,24.8302105 4.866,25.0832105 C7.123,27.1272105 9.676,28.6092105 12.779,28.6142105 C14.422,28.6172105 16.106,28.2692105 17.699,27.8212105 C19.322,27.3652105 20.107,26.0462105 20.178,24.3712105 C20.251,22.6842105 19.718,21.2142105 18.057,20.5662105 C15.687,19.6422105 13.243,18.9052105 10.84,18.0622105 C9.075,17.4432105 7.296,16.8502105 5.573,16.1262105 C0.289,13.9062105 -0.02,6.22121047 4.023,2.86121047 C6.371,0.910210465 9.101,0.149210465 12.112,0.0242104652 C16.365,-0.153789535 20.301,0.618210465 23.673,3.39121047 C24.071,3.71921047 24.465,4.05121047 24.97,4.47121047 C23.737,5.84721047 22.635,7.07721047 21.469,8.37821047 C20.891,7.93221047 20.387,7.55621047 19.897,7.16321047 C17.286,5.06821047 14.34,4.25521047 11.033,4.88021047 C10.411,4.99721047 9.787,5.18921047 9.213,5.45221047 C7.952,6.02721047 7.225,6.99221047 7.172,8.43221047 C7.118,9.92721047 7.77,11.0492105 9.104,11.5802105 C11.138,12.3892105 13.241,13.0282105 15.322,13.7192105 C16.154,13.9962105 16.999,14.2402105 17.848,14.4632105 C22.09,15.5762105 25.399,17.6692105 26.253,22.3672105 L26.253,24.5202105 Z" id="Fill-1" fill="#231F20" mask="url(#mask-2)"></path>
            </g>
            <g id="Group-6" transform="translate(5.380100, 0.000000)">
                <mask id="mask-4" fill="white">
                    <use xlink:href="#path-3"></use>
                </mask>
                <g id="Clip-5"></g>
                <path d="M3.0425,-0.0002 C3.3425,0.4908 3.7565,0.9468 3.9235,1.4798 C4.6355,3.7458 5.2735,6.0348 6.2275,8.3378 C6.5335,7.3688 6.8405,6.3998 7.1455,5.4308 C7.6005,3.9858 8.0865,2.5498 8.4945,1.0918 C8.6755,0.4438 8.9655,0.1718 9.6615,0.2238 C10.4925,0.2858 11.3335,0.2378 12.2365,0.2378 C12.3025,0.5988 12.4045,0.9018 12.4055,1.2058 C12.4185,4.8338 12.4355,8.4618 12.4075,12.0898 C12.3985,13.2718 11.9605,13.5708 10.8235,13.4198 C10.0625,13.3188 9.7215,12.9738 9.7405,12.1618 C9.7845,10.2318 9.7545,8.3008 9.7545,6.3698 C9.6515,6.3478 9.5485,6.3258 9.4455,6.3048 C9.2035,6.9838 8.9515,7.6598 8.7215,8.3438 C8.3275,9.5158 7.8895,10.6768 7.5785,11.8698 C7.3405,12.7798 6.9385,13.1358 5.9325,13.1458 C4.8985,13.1558 4.7775,12.5568 4.5635,11.8588 C3.9675,9.9248 3.3515,7.9968 2.4645,6.0868 L2.4645,12.9388 L0.1255,12.9388 C0.0855,12.6968 0.0075,12.4358 0.0065,12.1748 C-0.0015,8.4668 -0.0035,4.7588 0.0085,1.0508 C0.0095,0.7008 0.1105,0.3498 0.1655,-0.0002 L3.0425,-0.0002 Z" id="Fill-4" fill="#231F20" mask="url(#mask-4)"></path>
            </g>
            <path d="M196.371,74.4692 C198.044,74.3282 199.235,74.3782 200.341,74.0992 C201.977,73.6862 203.745,73.3302 205.11,72.4272 C207.378,70.9272 206.899,67.8492 204.381,66.8032 C203.438,66.4122 202.399,66.1742 201.381,66.0542 C198.449,65.7082 195.5,65.5012 192.568,65.1562 C190.481,64.9102 188.891,65.7212 187.654,67.2792 C186.36,68.9062 186.639,71.1032 188.298,72.3742 C188.948,72.8722 189.725,73.3362 190.51,73.5012 C192.611,73.9412 194.749,74.2112 196.371,74.4692 M196.054,38.0001313 C191.586,37.9842 188.743,40.7652 188.71,45.1852 C188.678,49.4532 191.607,52.3582 195.947,52.3622043 C200.403,52.3662 203.317,49.5992 203.342,45.3402 C203.367,41.0542 200.35,38.0152 196.054,38.0001313 M186.122,63.6182 C182.696,60.3472 182.943,58.8282 187.517,54.4622 C187.369,54.3012 187.237,54.1182 187.067,53.9802 C183.429,51.0302 182.067,47.2162 183.056,42.6922 C184.076,38.0282 187.38,35.4992 191.759,34.2072 C195.061,33.2332 198.312,33.7802 201.558,34.6622 C203.084,35.0772 204.677,35.4412 206.242,35.4532 C207.38,35.4622 208.548,34.9232 209.652,34.4982 C210.229,34.2762 210.557,34.2952 211,34.7342 C211.846,35.5692 212.771,36.3262 213.744,37.1872 C212.061,38.9362 210.078,39.1672 208.092,39.7362 C208.194,40.1252 208.257,40.5012 208.389,40.8522 C211.259,48.4872 206.833,55.0262 199.044,56.4102 C196.979,56.7762 194.768,56.4712 192.641,56.2842 C191.45,56.1792 190.509,56.2852 189.82,57.3222 C189.115,58.3832 189.362,59.3202 190.613,59.6202 C192.276,60.0182 193.981,60.2672 195.682,60.4682 C198.179,60.7622 200.698,60.8892 203.19,61.2222 C204.562,61.4062 205.937,61.7552 207.242,62.2192 C213.662,64.5012 213.159,72.4182 209.321,75.4932 C206.701,77.5932 203.623,78.2752 200.432,78.6822 C196.47,79.1882 192.516,79.0502 188.671,77.9582 C187.01,77.4872 185.347,76.7672 183.905,75.8242 C180.275,73.4542 180.143,68.1502 183.536,65.4642 C184.342,64.8262 185.21,64.2652 186.122,63.6182" id="Fill-7" fill="#231F20"></path>
            <g id="Group-11" transform="translate(0.000000, 33.981113)">
                <mask id="mask-6" fill="white">
                    <use xlink:href="#path-5"></use>
                </mask>
                <g id="Clip-10"></g>
                <path d="M42.7317,0.0451866807 C42.4937,0.920186681 42.3347,1.56818668 42.1407,2.20618668 C39.2197,11.8101867 36.2727,21.4071867 33.3987,31.0251867 C33.0297,32.2631867 32.4317,32.6971867 31.1897,32.5991867 C27.4157,32.3021867 28.2847,33.1201867 27.1947,29.5441867 C25.3277,23.4111867 23.6517,17.2201867 21.8917,11.0551867 C21.7517,10.5671867 21.5767,10.0881867 21.1467,9.56618668 C20.9997,10.0171867 20.8377,10.4641867 20.7087,10.9201867 C18.8057,17.6301867 16.8817,24.3351867 15.0317,31.0591867 C14.7067,32.2411867 14.1567,32.6411867 12.9407,32.6131867 C9.7977,32.5411867 9.8047,32.5921867 8.9067,29.6171867 C6.0667,20.1991867 3.2197,10.7831867 0.3767,1.36618668 C0.2637,0.993186681 0.1607,0.616186681 -0.0003,0.0521866807 C1.9107,0.0521866807 3.6907,0.0081866807 5.4637,0.0981866807 C5.7427,0.112186681 6.1237,0.699186681 6.2317,1.08418668 C7.7687,6.56918668 9.2667,12.0651867 10.7757,17.5581867 C11.2247,19.1921867 11.6777,20.8251867 12.1287,22.4581867 C12.2317,22.4621867 12.3337,22.4661867 12.4367,22.4711867 C12.5657,22.0851867 12.7087,21.7041867 12.8207,21.3141867 C14.7327,14.6461867 16.6647,7.98418668 18.5257,1.30118668 C18.8037,0.301186681 19.2397,-0.0698133193 20.2547,0.0301866807 C21.3937,0.143186681 22.8277,-0.249813319 23.6067,0.309186681 C24.3337,0.830186681 24.3947,2.30418668 24.7067,3.37118668 C26.4657,9.37018668 28.2117,15.3731867 29.9647,21.3741867 C30.0687,21.7331867 30.1997,22.0841867 30.5597,22.4311867 C30.7677,21.7241867 30.9847,21.0191867 31.1797,20.3081867 C32.9307,13.9331867 34.6937,7.56218668 36.4067,1.17718668 C36.6287,0.352186681 36.9267,-0.0228133193 37.8437,0.0231866807 C39.3897,0.102186681 40.9437,0.0451866807 42.7317,0.0451866807" id="Fill-9" fill="#231F20" mask="url(#mask-6)"></path>
            </g>
            <path d="M97.0432,50.5628 C97.0432,48.4518 97.0902,46.3398 97.0142,44.2318 C96.9922,43.6058 96.8092,42.8018 96.3902,42.4028 C94.3902,40.4988 92.0712,39.1318 89.2462,38.8328 C86.4052,38.5318 84.1652,39.5568 82.5752,41.9298 C79.6702,46.2638 79.6962,54.6088 82.6282,58.9238 C84.2692,61.3388 86.5402,62.4528 89.4832,62.1978 C92.0302,61.9778 94.1442,60.8118 95.9542,59.1338 C96.5222,58.6078 96.9422,57.6698 96.9942,56.8908 C97.1352,54.7898 97.0432,52.6738 97.0432,50.5628 M97.0432,37.5788 L97.0432,28.4068 L97.0432,19.2598 C98.9492,19.2598 100.7272,19.2408 102.5022,19.2878 C102.6832,19.2928 102.9692,19.6808 103.0052,19.9208 C103.0932,20.5078 103.0792,21.1128 103.0792,21.7108 C103.0822,33.5928 103.0362,45.4758 103.1162,57.3578 C103.1352,60.0518 103.5502,62.7468 103.8742,65.4308 C103.9772,66.2848 103.8242,66.6168 102.9342,66.5768 C101.6582,66.5208 100.3752,66.4648 99.1022,66.5328 C97.9562,66.5948 97.5212,66.0168 97.3592,65.0238 C97.2702,64.4808 97.1472,63.9428 97.0002,63.2028 C96.4792,63.5678 96.0572,63.8268 95.6752,64.1348 C88.6982,69.7698 79.5002,67.6398 76.0632,59.3628 C73.5232,53.2478 73.6312,46.9188 76.2832,40.8518 C79.2462,34.0768 87.2682,31.7718 93.8132,35.5708 C94.8322,36.1618 95.8152,36.8128 97.0432,37.5788" id="Fill-12" fill="#231F20"></path>
            <path d="M129.3858,50.5773 C129.3858,48.4653 129.4338,46.3513 129.3568,44.2423 C129.3338,43.6163 129.1308,42.8333 128.7148,42.4143 C127.1218,40.8133 125.2498,39.6043 123.0118,39.0523 C119.2988,38.1363 116.0478,39.5033 114.4178,42.9533 C112.0538,47.9593 112.1188,53.0633 114.4478,58.0763 C115.4568,60.2483 117.2028,61.7163 119.6288,62.1023 C123.3578,62.6963 126.3238,61.1003 128.8508,58.5603 C129.2348,58.1743 129.3458,57.3963 129.3628,56.7923 C129.4238,54.7223 129.3868,52.6493 129.3858,50.5773 M129.3508,37.6173 L129.3508,19.2693 L135.2438,19.2693 C135.8308,34.9723 134.5798,50.7063 136.0408,66.4843 C134.3438,66.4843 132.5198,66.5403 130.7048,66.4343 C130.3668,66.4143 129.9528,65.7863 129.7788,65.3563 C129.5298,64.7423 129.4698,64.0533 129.2858,63.1893 C128.8188,63.5243 128.4408,63.7713 128.0908,64.0513 C120.3908,70.2103 110.3948,67.0593 107.6958,57.5843 C106.0678,51.8723 106.1278,46.1913 108.7578,40.7813 C112.1668,33.7703 120.6578,31.6733 127.0948,36.1023 C127.7748,36.5703 128.4638,37.0223 129.3508,37.6173" id="Fill-14" fill="#231F20"></path>
            <path d="M64.8475,47.3662 C64.6935,46.2302 64.6575,45.4422 64.4715,44.6912 C63.4795,40.6882 60.3045,38.1612 56.6865,38.4492 C52.9595,38.7452 49.8795,41.8062 49.4875,45.6052 C49.3425,47.0072 49.4335,47.1252 50.8095,47.1662 C53.2805,47.2392 55.7505,47.3222 58.2225,47.3592 C60.3595,47.3922 62.4985,47.3662 64.8475,47.3662 M66.8925,57.5172 C68.0465,58.4062 69.2745,59.3522 70.5525,60.3362 C67.6605,64.6542 63.6395,66.8632 58.6085,67.2022 C50.9455,67.7172 45.1875,63.3902 43.5305,55.9162 C42.4795,51.1752 42.6395,46.4902 44.5125,41.9452 C46.6545,36.7462 51.1705,33.7572 56.8845,33.731009 C62.6835,33.7042 67.0845,36.5412 69.3125,41.7902 C70.4655,44.5082 70.9555,47.3482 70.8015,50.3072 C70.7565,51.1842 70.4425,51.4342 69.5685,51.4292 C63.2185,51.3932 56.8675,51.4372 50.5175,51.3842 C49.3825,51.3752 48.9085,51.7322 49.1875,52.8062 C49.6625,54.6392 49.9265,56.6062 50.7955,58.2432 C53.0845,62.5542 58.2565,63.7822 62.5725,61.1152 C64.1055,60.1672 65.3765,58.7982 66.8925,57.5172" id="Fill-16" fill="#231F20"></path>
            <path d="M152.8535,66.4496 C152.8535,64.1866 152.8425,62.1226 152.8555,60.0586 C152.9055,52.0106 152.9785,43.9616 152.9975,35.9136 C153.0005,34.8796 153.2935,34.4826 154.3615,34.5646 C155.5135,34.6516 156.6775,34.6146 157.8345,34.5736 C158.5675,34.5476 158.8145,34.8366 158.8085,35.5526 C158.8005,36.5826 158.8875,37.6136 158.9455,38.9146 C159.7825,38.2696 160.4715,37.7716 161.1235,37.2296 C164.6085,34.3326 168.6205,33.4946 173.0245,34.1616 C176.3445,34.6636 178.5585,36.9746 178.8925,40.3096 C178.9715,41.1006 179.0115,41.8996 179.0125,42.6946 C179.0215,50.1076 179.0175,57.5206 179.0175,64.9336 L179.0175,66.4336 C177.1525,66.4336 175.3755,66.4646 173.6035,66.3886 C173.4135,66.3796 173.1055,65.7506 173.0975,65.4046 C173.0285,62.3776 172.9995,59.3506 172.9885,56.3226 C172.9735,52.1386 172.9975,47.9536 172.9815,43.7686 C172.9655,39.7556 171.3815,38.2656 167.4085,38.8186 C165.9555,39.0206 164.5595,39.7406 163.1825,40.3296 C162.5755,40.5886 162.1225,41.1926 161.5245,41.4946 C158.9685,42.7836 158.7085,44.9306 158.7795,47.5206 C158.9415,53.4516 158.8005,59.3916 158.8195,65.3276 C158.8215,66.2246 158.5055,66.5046 157.6245,66.4666 C156.1575,66.4036 154.6865,66.4496 152.8535,66.4496" id="Fill-18" fill="#231F20"></path>
            <path d="M141.2955,34.7186 L147.1445,34.7186 L147.1445,36.0316 C147.1445,45.7146 147.1285,55.3966 147.167544,65.0796 C147.1715,66.1506 146.9065,66.6106 145.7835,66.5306 C144.7525,66.4576 143.7065,66.4556 142.6755,66.5316 C141.5875,66.6106 141.2625,66.2396 141.2685,65.1246 C141.3185,56.9566 141.2955,48.7876 141.2955,40.6196 L141.2955,34.7186 Z" id="Fill-20" fill="#231F20"></path>
            <path d="M50.7408,23.2359 C51.1178,21.4959 51.5078,19.7589 51.8698,18.0159 C52.2418,16.2229 52.6038,16.0109 54.5708,16.6349 C54.2288,18.0789 53.8838,19.5389 53.5388,20.9989 C52.9988,23.2879 52.4058,25.5659 51.9428,27.8699 C51.7628,28.7659 51.3478,29.0149 50.5098,29.0529 C49.6598,29.0909 49.5508,28.5649 49.3858,27.9619 C48.7478,25.6209 48.0858,23.2869 47.1908,20.9049 C47.0748,21.1979 46.9298,21.4829 46.8468,21.7849 C46.2858,23.8219 45.7198,25.8589 45.1968,27.9069 C45.0208,28.5989 44.7298,29.1099 43.9508,29.1129119 C43.1078,29.1159 42.8138,28.5529 42.6418,27.8219 C41.8488,24.4449 41.0268,21.0749 40.2278,17.6989 C40.1078,17.1949 39.7278,16.5409 40.6658,16.4109 C41.4538,16.3019 42.3558,16.1119 42.6048,17.2259 C42.9778,18.8989 43.2828,20.5869 43.6228,22.2679 C43.7068,22.6839 43.8128,23.0949 44.1958,23.5429 C44.4348,22.7639 44.6938,21.9899 44.9068,21.2039 C45.2408,19.9719 45.5898,18.7409 45.8448,17.4929 C46.0248,16.6109 46.5118,16.3359 47.3528,16.3289 C48.2138,16.3209 48.5338,16.7919 48.7368,17.5219 C49.2688,19.4379 49.8348,21.3439 50.3878,23.2539 C50.5058,23.2479 50.6228,23.2419 50.7408,23.2359" id="Fill-22" fill="#231F20"></path>
            <path d="M74.3573,22.0703 C74.3693,22.0183 74.3813,21.9653 74.3943,21.9133 C74.7933,21.9133 75.1933,21.9293 75.5913,21.9103 C76.5943,21.8603 77.1583,21.3083 77.1763,20.3233 C77.1943,19.3633 76.7233,18.7153 75.6943,18.6493 C74.9413,18.6003 74.1833,18.5913 73.4293,18.6103 C73.2163,18.6153 72.8323,18.7673 72.8243,18.8733 C72.7583,19.7793 72.6393,20.7143 72.8173,21.5843 C72.8693,21.8403 73.8193,21.9133 74.3573,22.0703 M72.4903,28.9423 C71.7773,28.9953 71.0723,29.0473 70.2303,29.1093 C70.1783,28.1093 70.0923,27.1733 70.0863,26.2373 C70.0673,23.3673 70.1133,20.4973 70.0583,17.6283 C70.0413,16.7363 70.3333,16.4173 71.2043,16.4393 C72.9593,16.4833 74.7173,16.4283 76.4713,16.4973 C78.1343,16.5643 79.1343,17.3013 79.5063,18.7223 C79.9283,20.3293 80.0403,21.9803 78.4883,23.0643 C77.5643,23.7093 77.4623,24.2433 77.9563,25.1913 C78.5603,26.3483 79.0033,27.5893 79.5183,28.8003 C77.4293,29.4833 76.8913,29.2363 76.1303,27.3573 C75.8163,26.5813 75.4213,25.8373 75.1303,25.0543 C74.7623,24.0653 73.9663,23.9453 73.1943,24.2423 C72.8843,24.3613 72.7003,25.0903 72.6603,25.5593 C72.5743,26.5483 72.6233,27.5493 72.6113,28.5453 C72.6103,28.6203 72.5673,28.6943 72.4903,28.9423" id="Fill-24" fill="#231F20"></path>
            <path d="M37.6391,5.9542 C38.6811,5.9542 39.6281,5.9822 40.5731,5.9462 C41.5061,5.9112 42.0571,5.3862 42.1251,4.4572 C42.1971,3.4752 41.6801,2.7972 40.7341,2.6812 C39.7371,2.5592 38.7121,2.6542 37.6391,2.6542 L37.6391,5.9542 Z M35.2931,0.5542 C37.5041,0.5542 39.6931,0.4352 41.8611,0.5962 C43.2781,0.7022 44.2731,1.6592 44.5261,3.1282 C44.7911,4.6712 44.7991,6.2232 43.3011,7.2122 C42.4981,7.7422 42.4141,8.2212 42.8251,9.0512 C43.4381,10.2892 43.9171,11.5942 44.4541,12.8742 C42.5131,13.5602 41.8491,13.2882 41.0991,11.5672 C40.7341,10.7272 40.3861,9.8792 40.0221,9.0382 C39.6681,8.2222 39.0411,8.1432 38.2371,8.2912 C37.3701,8.4502 37.6071,9.0692 37.5831,9.5822 C37.5551,10.1382 37.5761,10.6972 37.5761,11.2552 C37.5761,13.3122 37.5761,13.3122 35.2931,12.9672 L35.2931,0.5542 Z" id="Fill-26" fill="#231F20"></path>
            <path d="M69.3522,13.0402 L66.9252,13.0402 C66.9252,11.6262 66.8922,10.2522 66.9382,8.8812 C66.9662,8.0752 66.7242,7.7272 65.8602,7.7732 C64.6772,7.8352 63.4882,7.7882 62.1892,7.7882 L62.1892,12.9272 C61.9002,13.0002 61.7162,13.0792 61.5292,13.0892 C59.7582,13.1832 59.7182,13.1802 59.7012,11.4042 C59.6712,8.2252 59.6892,5.0452 59.6982,1.8652 C59.6992,1.4382 59.7632,1.0112 59.8012,0.5392 L62.1042,0.5392 L62.1042,5.1592 L66.8582,5.1592 C66.9472,3.6512 67.0382,2.1242 67.1342,0.5182 L69.3522,0.5182 L69.3522,13.0402 Z" id="Fill-28" fill="#231F20"></path>
            <path d="M77.0769,7.9959 L79.9749,7.9959 C79.5079,6.5429 79.0809,5.2189 78.6549,3.8939 C78.5439,3.9009 78.4329,3.9079 78.3219,3.9149 C77.9229,5.2229 77.5239,6.5309 77.0769,7.9959 M84.1409,12.9539 C81.7289,13.3279 81.6989,13.3389 80.9439,11.2799 C80.6999,10.6149 80.3859,10.2789 79.6579,10.3739 C79.3049,10.4199 78.9409,10.3799 78.5819,10.3809 C76.0309,10.3919 76.4619,10.2009 75.7029,12.3019 C75.1519,13.8289 73.9799,12.7749 72.9319,13.1939 C73.0729,12.5269 73.1179,12.1389 73.2389,11.7759 C74.3419,8.4519 75.4739,5.1369 76.5609,1.8079 C76.8639,0.8789 77.3139,0.2639 78.3949,0.2839 C79.4519,0.3039 80.1279,0.6149 80.4819,1.7669 C81.6229,5.4829 82.8899,9.1609 84.1409,12.9539" id="Fill-30" fill="#231F20"></path>
            <path d="M27.8062,8.0348 C27.3022,6.5078 26.8632,5.1778 26.4242,3.8468 L26.1062,3.8478 C25.7082,5.2098 25.3102,6.5708 24.8832,8.0348 L27.8062,8.0348 Z M20.8372,12.8948 C20.9082,12.5248 20.9382,12.1328 21.0582,11.7698 C22.1732,8.4058 23.3272,5.0558 24.4132,1.6828 C24.7362,0.6808 25.2992,0.3078 26.3412,0.3338 C27.3622,0.3588 27.9082,0.7058 28.2282,1.7248 C29.2792,5.0638 30.4502,8.3648 31.5142,11.6998 C31.6472,12.1158 31.5072,13.0238 31.3422,13.0628 C30.5722,13.2438 29.3872,13.5798 29.2112,12.4868 C28.8212,10.0588 27.2052,10.2128 25.4442,10.2918 C24.5122,10.3328 23.9912,10.6168 23.7252,11.5628 C23.2382,13.3028 22.9292,13.4138 20.8372,12.8948 L20.8372,12.8948 Z" id="Fill-32" fill="#231F20"></path>
            <path d="M4.8595,26.4687 C5.8925,25.8527 6.7125,25.2377 7.7985,26.4647 C8.2815,27.0097 9.3705,27.1497 10.2045,27.2177 C10.9895,27.2817 11.6925,26.8407 11.8375,25.9397 C11.9755,25.0847 11.4475,24.5867 10.7435,24.2867 C9.5335,23.7717 8.2755,23.3647 7.0865,22.8077 C5.2555,21.9487 4.5605,20.0807 5.3725,18.3167 C5.5665,17.8937 5.8615,17.4827 6.2025,17.1647 C8.2485,15.2577 13.1805,15.9437 14.0025,18.2787 C12.6955,19.5007 12.5575,19.5207 11.1395,18.6427 C10.3055,18.1257 9.4095,17.8927 8.5545,18.4597 C8.1685,18.7157 7.7845,19.2507 7.7585,19.6807 C7.7405,19.9927 8.2495,20.4757 8.6295,20.6477 C9.7895,21.1727 11.0255,21.5317 12.1875,22.0517 C14.5485,23.1077 15.2595,25.7097 13.7485,27.7227 C12.2825,29.6767 10.1625,29.3467 8.1415,29.1827 C6.5185,29.0507 5.4365,28.1347 4.8595,26.4687" id="Fill-34" fill="#231F20"></path>
            <path d="M59.9318,23.9527 L62.9128,23.9527 C62.4198,22.4337 61.9758,21.0647 61.5308,19.6947 C61.4208,19.7047 61.3108,19.7147 61.2008,19.7247 C60.7868,21.1027 60.3728,22.4817 59.9318,23.9527 M55.8408,28.7687 C56.3088,27.3387 56.7748,25.9077 57.2458,24.4787 C58.0068,22.1717 58.7998,19.8747 59.5198,17.5547 C59.8108,16.6207 60.3918,16.2987 61.2998,16.3417 C62.1738,16.3837 62.9238,16.3437 63.2768,17.5247 C64.2898,20.9187 65.4778,24.2607 66.5918,27.6247 C66.7158,27.9967 66.8118,28.3777 66.9208,28.7547 C64.9468,29.3307 64.6078,29.1857 63.9498,27.3417 C63.6858,26.6017 63.2868,26.2067 62.4648,26.2707 C61.9088,26.3137 61.3428,26.3197 60.7888,26.2697 C59.7498,26.1757 59.1698,26.6377 58.8058,27.5927 C58.1938,29.1947 57.7628,29.3497 55.8408,28.7687" id="Fill-36" fill="#231F20"></path>
            <path d="M37.1035,16.4877 L37.1035,18.4627 L31.4595,18.4627 L31.4595,21.1587 C32.7005,21.2357 33.8775,21.3087 35.1235,21.3857 L35.1235,23.4347 L31.4755,23.4347 L31.4755,26.8377 L37.0495,26.8377 C37.3755,28.8517 37.3785,28.9157 35.6275,29.0047 C33.7995,29.0987 31.9635,29.0357 30.1325,29.0727 C29.2465,29.0897 28.8375,28.7427 28.8405,27.8217 C28.8515,24.3607 28.8055,20.8987 28.8465,17.4377 C28.8505,17.1177 29.3115,16.5367 29.5725,16.5297 C32.0385,16.4597 34.5065,16.4877 37.1035,16.4877" id="Fill-38" fill="#231F20"></path>
            <path d="M19.8484,18.6406 L16.3274,18.6406 C16.3274,18.0926 16.2454,17.6106 16.3564,17.1776 C16.4304,16.8876 16.7744,16.4536 17.0034,16.4496 C19.9094,16.3996 22.8174,16.4166 25.8134,16.4166 L25.8134,18.5856 L22.3854,18.5856 L22.3854,28.9066 L19.8484,28.9066 L19.8484,18.6406 Z" id="Fill-40" fill="#231F20"></path>
            <path d="M46.8552,0.4064 L56.3292,0.4064 L56.3292,2.5024 C55.7282,2.5424 55.1802,2.5954 54.6312,2.6114 C52.8682,2.6654 52.8662,2.6594 52.8652,4.4704 C52.8632,6.8634 52.8642,9.2554 52.8642,11.6484 C52.8642,12.0784 52.8642,12.5074 52.8642,13.0184 L50.3952,13.0184 L50.3952,5.6824 C50.3952,2.7384 50.3952,2.7394 47.3912,2.6094 C47.2372,2.6034 47.0852,2.5654 46.8552,2.5304 L46.8552,0.4064 Z" id="Fill-42" fill="#231F20"></path>
            <path d="M91.7906,16.6113 L91.7906,18.5303 C90.9546,18.5303 90.1666,18.5713 89.3846,18.5193 C88.5746,18.4653 88.2416,18.7343 88.2526,19.5893 C88.2826,21.9783 88.2476,24.3673 88.2246,26.7573 C88.2176,27.4283 88.1636,28.0983 88.1266,28.8503 L85.8016,28.8503 L85.8016,18.6353 L82.3666,18.6353 L82.3666,16.6113 L91.7906,16.6113 Z" id="Fill-44" fill="#231F20"></path>
            <path d="M144.2069,31.3523 C142.4719,31.3333 141.2179,30.0493 141.222885,28.2943 C141.2279,26.5313 142.4839,25.2643 144.2309,25.2582713 C146.0479,25.2513 147.2829,26.5273 147.2529,28.3783 C147.2229,30.1553 145.9779,31.3713 144.2069,31.3523" id="Fill-46" fill="#231F20"></path>
        </g>
    </g>
</svg>