<?xml version="1.0" encoding="utf-8"?>
<!-- Generator: Adobe Illustrator 16.0.0, SVG Export Plug-In . SVG Version: 6.00 Build 0)  -->
<!DOCTYPE svg PUBLIC "-//W3C//DTD SVG 1.1//EN" "http://www.w3.org/Graphics/SVG/1.1/DTD/svg11.dtd">
<svg version="1.1" id="Layer_1" xmlns:sketch="http://www.bohemiancoding.com/sketch/ns"
	 xmlns="http://www.w3.org/2000/svg" xmlns:xlink="http://www.w3.org/1999/xlink" x="0px" y="0px" width="16px" height="16px"
	 viewBox="-0.415 -0.893 16 16" enable-background="new -0.415 -0.893 16 16" xml:space="preserve">
<defs>
	<filter id="Adobe_OpacityMaskFilter" filterUnits="userSpaceOnUse" x="1.249" y="-0.423" width="12.672" height="15.061">
		<feColorMatrix  type="matrix" values="1 0 0 0 0  0 1 0 0 0  0 0 1 0 0  0 0 0 1 0"/>
	</filter>
</defs>
<path id="Fill-1" sketch:type="MSShapeGroup" d="M7.585,14.128c-3.214,0-5.829-2.635-5.829-5.871
	c0-3.237,2.615-5.872,5.829-5.872c3.213,0,5.828,2.634,5.828,5.872C13.413,11.493,10.798,14.128,7.585,14.128 M7.078,0.598
	c0-0.281,0.229-0.51,0.507-0.51s0.507,0.229,0.507,0.51S7.863,1.109,7.585,1.109S7.078,0.879,7.078,0.598 M7.838,1.882V1.583
	c0.437-0.115,0.761-0.51,0.761-0.985c0-0.564-0.454-1.021-1.014-1.021c-0.561,0-1.014,0.457-1.014,1.021
	c0,0.475,0.325,0.871,0.761,0.985v0.299c-3.376,0.133-6.083,2.94-6.083,6.375c0,3.52,2.841,6.381,6.336,6.381
	c3.494,0,6.336-2.861,6.336-6.381C13.921,4.823,11.214,2.015,7.838,1.882"/>
<path id="Fill-4" sketch:type="MSShapeGroup" d="M8.591,8.907L6.938,7.243l3.305-1.664L8.591,8.907z M4.926,10.935l1.652-3.329
	L8.23,9.27L4.926,10.935z M10.696,4.779l-4.3,2.167c-0.007,0.002-0.01,0.01-0.018,0.015C6.361,6.972,6.348,6.985,6.333,7
	C6.317,7.016,6.305,7.028,6.295,7.046C6.29,7.054,6.285,7.057,6.28,7.064l-2.152,4.332c-0.048,0.098-0.03,0.217,0.048,0.294
	c0.048,0.049,0.114,0.074,0.18,0.074c0.038,0,0.076-0.008,0.114-0.028l4.3-2.167c0.008-0.003,0.01-0.011,0.018-0.016
	c0.018-0.01,0.031-0.022,0.046-0.038s0.028-0.027,0.038-0.046c0.006-0.008,0.01-0.011,0.016-0.019l2.151-4.331
	c0.048-0.097,0.03-0.217-0.048-0.294C10.912,4.749,10.796,4.731,10.696,4.779L10.696,4.779z"/>
</svg>
