<?xml version="1.0" encoding="utf-8"?>
<!-- Generator: Adobe Illustrator 16.0.0, SVG Export Plug-In . SVG Version: 6.00 Build 0)  -->
<!DOCTYPE svg PUBLIC "-//W3C//DTD SVG 1.1//EN" "http://www.w3.org/Graphics/SVG/1.1/DTD/svg11.dtd">
<svg version="1.1" id="Layer_1" xmlns="http://www.w3.org/2000/svg" xmlns:xlink="http://www.w3.org/1999/xlink" x="0px" y="0px"
   width="653px" height="40px" viewBox="269.219 312.732 653 40" enable-background="new 269.219 312.732 653 40"
   xml:space="preserve">
<line display="none" fill="none" stroke="#000000" stroke-width="20" stroke-miterlimit="10" x1="-1967.487" y1="1362.371" x2="-1640.95" y2="917.761"/>
<line display="none" fill="none" stroke="#000000" stroke-width="20" stroke-miterlimit="10" x1="-1652.048" y1="1449.368" x2="-1356.54" y2="1047.007"/>
<g>
  <path d="M306.698,350.982h-4.218v-29.678l-10.918,29.182h-3.474l-10.918-29.43v29.926h-4.218v-35.188h6.353l10.62,28.636
    l10.571-28.636h6.203L306.698,350.982L306.698,350.982z"/>
  <path d="M358.743,350.982h-4.566l-2.878-8.337h-15.286l-2.829,8.337h-4.467l12.407-35.188h5.161L358.743,350.982z M349.859,338.476
    l-6.253-18.263l-6.204,18.263H349.859z"/>
  <path d="M406.768,333.364c0,6.519-1.506,11.216-4.516,14.095c-2.449,2.35-5.526,3.523-9.23,3.523h-12.259v-35.188h12.259
    c3.672,0,6.75,1.191,9.23,3.573C405.262,322.215,406.768,326.88,406.768,333.364z M402.301,333.364c0-2.415-0.189-4.541-0.57-6.377
    c-0.381-1.836-1.199-3.4-2.457-4.69c-1.621-1.621-3.706-2.432-6.254-2.432h-7.841v27.048h7.841c2.548,0,4.633-0.811,6.254-2.432
    C401.292,342.43,402.301,338.724,402.301,333.364z"/>
  <path d="M454.053,350.982h-23.523v-35.188h23.523v4.069h-19.106v10.72h16.773v4.169h-16.773v12.159h19.106V350.982z"/>
  <path d="M533.409,341.156c0,2.515-0.895,4.715-2.681,6.601c-1.984,2.151-4.93,3.226-8.832,3.226h-14.194v-35.187h14.045
    c3.771,0,6.633,1.076,8.585,3.226c1.521,1.688,2.283,3.64,2.283,5.856c0,1.754-0.447,3.35-1.34,4.789
    c-0.894,1.439-2.135,2.44-3.723,3.002c1.787,0.596,3.208,1.688,4.269,3.275C532.879,337.533,533.409,339.27,533.409,341.156z
     M528.099,325.225c0-1.753-0.612-3.109-1.836-4.069c-1.225-0.959-2.729-1.439-4.516-1.439h-9.728v11.067h9.877
    c1.918,0,3.432-0.455,4.541-1.365C527.544,328.509,528.099,327.111,528.099,325.225z M528.893,340.858
    c0-1.886-0.661-3.391-1.984-4.517c-1.324-1.124-2.961-1.687-4.913-1.687h-9.976v12.258h9.877c2.051,0,3.729-0.513,5.036-1.539
    C528.239,344.349,528.893,342.843,528.893,340.858z"/>
  <path d="M580.01,315.796l-11.812,20.894v14.292h-4.467V336.69l-11.812-20.894h4.963l9.23,16.725l9.182-16.725H580.01z"/>
  <path d="M656.835,350.982h-6.701l-2.283-6.75h-13.993l-2.283,6.75h-6.451l12.357-35.188h6.997L656.835,350.982z M645.866,338.476
    l-5.013-14.839l-5.014,14.839H645.866z"/>
  <path d="M704.806,350.982h-6.948l-5.855-13.3h-7.791v13.3h-6.453v-35.188h14.84c3.972,0,6.998,1.051,9.082,3.151
    c2.084,2.102,3.127,4.69,3.127,7.767c0,2.316-0.588,4.359-1.762,6.129c-1.176,1.771-2.738,3.02-4.69,3.747L704.806,350.982z
     M698.403,326.714c0-1.489-0.529-2.746-1.588-3.772c-1.062-1.025-2.468-1.539-4.22-1.539h-8.438v10.521h8.537
    c1.817,0,3.225-0.455,4.217-1.365C697.907,329.651,698.403,328.369,698.403,326.714z"/>
  <path d="M751.534,321.751h-10.422v29.231h-6.402v-29.231h-10.422v-5.956h27.246V321.751z"/>
  <path d="M779.073,350.982h-6.502v-35.188h6.502V350.982z"/>
  <path d="M829.569,339.767c-0.33,3.176-1.457,5.74-3.375,7.692c-2.714,2.779-6.07,4.168-10.074,4.168
    c-4.037,0-7.361-1.307-9.976-3.92c-1.754-1.753-2.922-3.747-3.5-5.98c-0.577-2.233-0.866-5.004-0.866-8.312s0.289-6.08,0.866-8.313
    c0.578-2.233,1.746-4.226,3.5-5.98c2.646-2.646,5.972-3.97,9.976-3.97c4.07,0,7.428,1.357,10.074,4.069
    c1.918,1.953,3.045,4.5,3.375,7.643h-6.552c-0.133-1.356-0.662-2.597-1.588-3.722c-1.158-1.455-2.928-2.184-5.311-2.184
    c-2.15,0-3.953,0.778-5.41,2.333c-0.76,0.794-1.332,1.854-1.711,3.176c-0.381,1.324-0.596,2.432-0.646,3.325
    c-0.049,0.894-0.073,2.102-0.073,3.623c0,1.522,0.024,2.729,0.073,3.623c0.052,0.894,0.267,2.002,0.646,3.325
    c0.379,1.324,0.951,2.382,1.711,3.176c1.457,1.556,3.26,2.333,5.41,2.333c2.35,0,4.119-0.744,5.311-2.233
    c0.926-1.124,1.455-2.415,1.588-3.871L829.569,339.767L829.569,339.767z"/>
  <path d="M874.19,350.982h-22.73v-35.188h6.402v29.132h16.328V350.982z"/>
  <path d="M920.358,350.982h-25.062v-35.188h25.062v5.807h-18.66v8.188h16.428v5.757h-16.428v9.628h18.66V350.982z"/>
</g>
<rect x="275.876" y="257.769" display="none" width="145.603" height="189.391"/>
</svg> 
