<?xml version="1.0" encoding="utf-8"?>
<!-- Generator: Adobe Illustrator 16.0.0, SVG Export Plug-In . SVG Version: 6.00 Build 0)  -->
<!DOCTYPE svg PUBLIC "-//W3C//DTD SVG 1.1//EN" "http://www.w3.org/Graphics/SVG/1.1/DTD/svg11.dtd">
<svg version="1.1" id="Layer_1" xmlns:sketch="http://www.bohemiancoding.com/sketch/ns"
	 xmlns="http://www.w3.org/2000/svg" xmlns:xlink="http://www.w3.org/1999/xlink" x="0px" y="0px" width="16px" height="16px"
	 viewBox="0.5 1 16 16" enable-background="new 0.5 1 16 16" xml:space="preserve">
<defs>
	<filter id="Adobe_OpacityMaskFilter" filterUnits="userSpaceOnUse" x="1.106" y="1.31" width="10.05" height="12.032">
		<feColorMatrix  type="matrix" values="1 0 0 0 0  0 1 0 0 0  0 0 1 0 0  0 0 0 1 0"/>
	</filter>
</defs>
<path id="Fill-1" sketch:type="MSShapeGroup" d="M9.043,6.535C6.264,8.84,5.374,10.97,5.345,11.043
	l-0.508,0.988c-0.138,0.27-0.317,0.474-0.53,0.606c-0.567,0.355-1.319,0.314-1.87-0.1l-0.188-0.143
	c-0.73-0.551-0.891-1.573-0.358-2.28c0.099-0.131,0.299-0.318,0.512-0.518c0.33-0.308,0.702-0.66,0.929-1
	c0.392-0.59,0.799-1.469,1.015-2.188c0.33-1.099,0.563-1.673,0.933-2.277c0.315-0.517,0.674-0.96,1.063-1.312
	C7.819,1.477,9.055,1.667,9.83,2.062c0.088,0.046,0.172,0.097,0.248,0.155c0.248,0.187,0.426,0.427,0.514,0.698
	C11.154,4.605,9.059,6.521,9.043,6.535 M11.035,2.78c-0.156-0.474-0.521-0.885-1.002-1.129C9.291,1.27,7.78,0.872,6.018,2.473
	c-0.42,0.381-0.805,0.855-1.143,1.411c-0.39,0.64-0.639,1.241-0.979,2.382c-0.2,0.671-0.596,1.522-0.96,2.069
	c-0.197,0.297-0.552,0.63-0.863,0.921C1.837,9.478,1.63,9.67,1.51,9.828c-0.685,0.91-0.479,2.226,0.46,2.932l0.189,0.144
	c0.707,0.532,1.672,0.586,2.404,0.129c0.281-0.177,0.516-0.439,0.692-0.78l0.518-1.006c0.01-0.021,0.892-2.124,3.583-4.358
	C9.453,6.803,11.693,4.759,11.035,2.78"/>
<path id="Fill-4" sketch:type="MSShapeGroup" d="M9.494,3.205C9.57,3.104,9.547,2.957,9.443,2.878
	C9.338,2.8,9.191,2.818,9.115,2.919L8.678,3.5C8.367,3.351,7.823,3.183,7.187,3.382C6.101,3.721,5.232,4.968,4.609,7.09
	C4.581,7.187,4.618,7.287,4.696,7.345c0.021,0.016,0.046,0.029,0.072,0.038c0.124,0.039,0.255-0.027,0.29-0.149
	c0.721-2.448,1.634-3.202,2.273-3.406c0.743-0.235,1.327,0.184,1.35,0.201c0.344,0.261,0.508,0.548,0.5,0.874
	C9.154,5.858,7.67,6.978,7.098,7.328C6.989,7.395,6.958,7.537,7.03,7.647s0.215,0.144,0.324,0.078
	c0.093-0.057,2.257-1.402,2.294-2.798c0.014-0.438-0.18-0.831-0.572-1.167L9.494,3.205z"/>
<defs>
	<filter id="Adobe_OpacityMaskFilter_1_" filterUnits="userSpaceOnUse" x="5.551" y="4.784" width="10.343" height="11.905">
		<feColorMatrix  type="matrix" values="1 0 0 0 0  0 1 0 0 0  0 0 1 0 0  0 0 0 1 0"/>
	</filter>
</defs>
<path id="Fill-6" sketch:type="MSShapeGroup" d="M13.988,10.696c-0.479,0.522-0.965,0.904-1.93,1.524
	c-0.633,0.404-1.367,1.04-1.824,1.579c-0.266,0.312-0.5,0.767-0.707,1.169c-0.133,0.258-0.256,0.503-0.355,0.634
	c-0.533,0.707-1.56,0.835-2.291,0.285l-0.188-0.144c-0.551-0.415-0.798-1.126-0.611-1.771c0.067-0.239,0.22-0.473,0.436-0.677
	l0.795-0.748c0.076-0.062,1.879-1.502,3.325-4.801c0.012-0.025,1.271-2.569,3.059-2.496c0.285,0.011,0.564,0.116,0.812,0.303
	c0.078,0.059,0.148,0.124,0.215,0.194c0.594,0.637,1.119,1.773,0.236,3.564C14.725,9.787,14.398,10.251,13.988,10.696 M15.381,9.527
	c1.053-2.133,0.252-3.477-0.318-4.088c-0.365-0.395-0.863-0.632-1.361-0.653c-2.082-0.086-3.432,2.632-3.49,2.756
	C8.81,10.738,7.033,12.165,7,12.192L6.19,12.953c-0.28,0.262-0.468,0.558-0.562,0.879c-0.235,0.827,0.08,1.743,0.787,2.275
	l0.189,0.143c0.938,0.708,2.26,0.543,2.944-0.366c0.121-0.159,0.25-0.409,0.396-0.698c0.195-0.382,0.416-0.812,0.648-1.084
	c0.428-0.501,1.135-1.113,1.723-1.492c1.002-0.642,1.512-1.045,2.021-1.599C14.777,10.539,15.129,10.039,15.381,9.527"/>
<path id="Fill-9" sketch:type="MSShapeGroup" d="M13.66,7.254l0.438-0.581c0.076-0.101,0.053-0.248-0.051-0.326
	c-0.105-0.079-0.252-0.061-0.328,0.041l-0.418,0.555c-0.43-0.284-0.855-0.36-1.273-0.223c-1.316,0.429-1.977,2.918-2.004,3.025
	c-0.031,0.124,0.045,0.253,0.168,0.289c0.125,0.034,0.254-0.038,0.287-0.159c0.17-0.656,0.809-2.418,1.707-2.711
	c0.307-0.1,0.621-0.021,0.963,0.237c0.006,0.005,0.617,0.479,0.598,1.296c-0.021,0.969-0.926,2.048-2.615,3.119
	c-0.107,0.068-0.137,0.21-0.062,0.319c0.014,0.023,0.033,0.043,0.055,0.06c0.078,0.059,0.184,0.066,0.27,0.013
	c1.848-1.173,2.797-2.344,2.824-3.488C14.232,8.02,13.9,7.521,13.66,7.254"/>
</svg>
