<?xml version="1.0" encoding="utf-8"?>
<!-- Generator: Adobe Illustrator 16.0.0, SVG Export Plug-In . SVG Version: 6.00 Build 0)  -->
<!DOCTYPE svg PUBLIC "-//W3C//DTD SVG 1.1//EN" "http://www.w3.org/Graphics/SVG/1.1/DTD/svg11.dtd">
<svg version="1.1" id="Layer_1" xmlns="http://www.w3.org/2000/svg" xmlns:xlink="http://www.w3.org/1999/xlink" x="0px" y="0px"
	 width="17px" height="17px" viewBox="0 0 17 17" enable-background="new 0 0 17 17" xml:space="preserve">
<path id="Fill-1" d="M8.863,3.967c0.78,0,1.415,0.635,1.415,1.417c0,0.782-0.635,1.417-1.415,1.417S7.45,6.166,7.45,5.383
	C7.45,4.602,8.086,3.967,8.863,3.967 M8.863,7.367c1.092,0,1.979-0.89,1.979-1.983c0-1.093-0.887-1.984-1.979-1.984
	c-1.091,0-1.979,0.89-1.979,1.983C6.884,6.476,7.772,7.367,8.863,7.367"/>
<path id="Fill-3" d="M5.381,1.992C6.3,1.074,7.518,0.567,8.816,0.567c1.297,0,2.516,0.507,3.434,1.425
	c1.711,1.714,1.92,4.941,0.443,6.914l-3.879,5.611L4.931,8.896C3.461,6.933,3.671,3.706,5.381,1.992L5.381,1.992z M8.816,15.516
	l4.336-6.279c1.625-2.172,1.392-5.745-0.504-7.644C11.623,0.567,10.263,0,8.816,0c-1.448,0-2.81,0.567-3.833,1.592
	C3.088,3.491,2.85,7.063,4.473,9.229L8.816,15.516z"/>
<path id="Fill-6" d="M0.283,16.316l-0.201,0.201c-0.11,0.11-0.11,0.289,0,0.399C0.139,16.973,0.21,17,0.283,17
	c0.074,0,0.145-0.027,0.201-0.082l0.198-0.201c0.11-0.111,0.11-0.289,0-0.398C0.572,16.208,0.394,16.207,0.283,16.316"/>
<path id="Fill-8" d="M2.438,14.732c-0.155,0-0.283,0.129-0.283,0.283c0,0.155,0.127,0.284,0.283,0.284h0.515
	c0.155,0,0.283-0.128,0.283-0.282c0-0.156-0.127-0.283-0.283-0.283H2.438V14.732z"/>
<path id="Fill-10" d="M1.776,15.221c-0.11-0.109-0.288-0.109-0.398,0l-0.365,0.365c-0.11,0.111-0.11,0.289,0,0.4
	c0.057,0.057,0.127,0.082,0.201,0.082c0.074,0,0.144-0.029,0.201-0.082L1.78,15.62C1.886,15.514,1.886,15.334,1.776,15.221"/>
<path id="Fill-12" d="M5.525,14.732c-0.156,0-0.283,0.129-0.283,0.283c0,0.155,0.127,0.284,0.283,0.284h0.514
	c0.156,0,0.283-0.128,0.283-0.282c0-0.156-0.127-0.283-0.283-0.283H5.525V14.732z"/>
<path id="Fill-14" d="M3.981,14.732c-0.155,0-0.283,0.129-0.283,0.283c0,0.155,0.128,0.284,0.283,0.284h0.515
	c0.156,0,0.283-0.128,0.283-0.282c0-0.156-0.127-0.283-0.283-0.283H3.981V14.732z"/>
<path id="Fill-16" d="M7.068,14.732c-0.156,0-0.283,0.129-0.283,0.283c0,0.155,0.128,0.284,0.283,0.284h0.283
	c0.155,0,0.283-0.128,0.283-0.282c0-0.156-0.127-0.283-0.283-0.283H7.068V14.732z"/>
<path id="Fill-18" d="M16.479,13.801c0.073,0,0.145-0.027,0.201-0.082l0.2-0.201c0.11-0.109,0.11-0.289,0-0.398
	c-0.11-0.11-0.289-0.11-0.397,0l-0.201,0.197c-0.109,0.111-0.109,0.289,0,0.4C16.336,13.773,16.408,13.801,16.479,13.801"/>
<path id="Fill-20" d="M11.668,14.732c-0.156,0-0.283,0.129-0.283,0.283c0,0.155,0.127,0.283,0.283,0.283h0.602
	c0.156,0,0.283-0.128,0.283-0.283c0-0.154-0.127-0.283-0.283-0.283H11.668z"/>
<path id="Fill-22" d="M13.477,14.732c-0.153,0-0.281,0.129-0.281,0.283c0,0.155,0.128,0.283,0.281,0.283h0.604
	c0.154,0,0.281-0.128,0.281-0.283c0-0.154-0.127-0.283-0.281-0.283H13.477z"/>
<path id="Fill-24" d="M15.428,14.172L15.001,14.6c-0.11,0.111-0.11,0.289,0,0.4c0.058,0.057,0.127,0.082,0.2,0.082
	c0.074,0,0.145-0.027,0.201-0.082l0.427-0.428c0.11-0.111,0.11-0.289,0-0.4C15.719,14.062,15.538,14.062,15.428,14.172"/>
<path id="Fill-26" d="M10.178,14.732c-0.154,0-0.281,0.129-0.281,0.283c0,0.155,0.127,0.283,0.281,0.283h0.283
	c0.155,0,0.282-0.128,0.282-0.283c0-0.154-0.127-0.283-0.282-0.283H10.178z"/>
</svg>
