<?xml version="1.0" encoding="utf-8"?>
<!-- Generator: Adobe Illustrator 16.0.0, SVG Export Plug-In . SVG Version: 6.00 Build 0)  -->
<!DOCTYPE svg PUBLIC "-//W3C//DTD SVG 1.1//EN" "http://www.w3.org/Graphics/SVG/1.1/DTD/svg11.dtd">
<svg version="1.1" id="Layer_1" xmlns="http://www.w3.org/2000/svg" xmlns:xlink="http://www.w3.org/1999/xlink" x="0px" y="0px"
	 width="15px" height="17px" viewBox="0 0 15 17" enable-background="new 0 0 15 17" xml:space="preserve">
<title>Page 1</title>
<desc>Created with Sketch.</desc>
<g id="Page-1_1_">
	<g id="SmartFlyer-Reviews" transform="translate(-879.000000, -729.000000)">
		<g id="FILTERS-JUST-TAGS" transform="translate(-43.000000, 524.000000)">
			<g id="style-hover" transform="translate(505.000000, 27.000000)">
				<g id="Page-1" transform="translate(417.000000, 178.000000)">
					<path id="Fill-1" d="M8.146,7.45C8.232,7.269,8.152,7.056,7.967,6.97C7.783,6.885,7.562,6.962,7.473,7.141
						c-0.022,0.044-0.562,1.09-2.311,1.09c-1.749,0-2.289-1.046-2.31-1.087C2.766,6.962,2.545,6.883,2.358,6.967
						s-0.267,0.3-0.181,0.482c0.029,0.062,0.742,1.508,2.984,1.508C7.404,8.958,8.117,7.511,8.146,7.45"/>
					<path id="Fill-3" d="M6.193,4.498h1.615c0.205,0,0.372-0.163,0.372-0.363c0-0.201-0.167-0.363-0.372-0.363H6.193
						c-0.205,0-0.372,0.163-0.372,0.363C5.822,4.335,5.988,4.498,6.193,4.498"/>
					<path id="Fill-5" d="M2.515,4.498H4.13c0.206,0,0.372-0.163,0.372-0.363c0-0.201-0.167-0.363-0.372-0.363H2.515
						c-0.206,0-0.372,0.163-0.372,0.363C2.143,4.335,2.31,4.498,2.515,4.498"/>
					<path id="Fill-7" d="M9.827,10.842c-2.242,0-2.955,1.447-2.984,1.509c-0.086,0.181-0.006,0.394,0.179,0.479
						c0.184,0.085,0.405,0.008,0.495-0.171c0.022-0.044,0.562-1.091,2.312-1.091c1.748,0,2.287,1.047,2.309,1.088
						c0.062,0.133,0.197,0.211,0.338,0.211c0.052,0,0.105-0.012,0.156-0.034c0.186-0.085,0.267-0.3,0.181-0.482
						C12.781,12.289,12.069,10.842,9.827,10.842"/>
					<g id="Group-11" transform="translate(0.000000, 0.037435)">
						<path id="Fill-9" d="M14.245,9.672c0,3.138-1.486,5.049-4.418,5.68c-2.332-0.502-3.747-1.816-4.229-3.912
							c0.001-0.001,0.003-0.002,0.005-0.002c0.062-0.016,0.125-0.032,0.188-0.049c0.008-0.003,0.017-0.005,0.025-0.008
							c0.061-0.017,0.121-0.034,0.182-0.053c0.01-0.003,0.02-0.006,0.03-0.009c0.06-0.019,0.12-0.038,0.18-0.058
							c0.011-0.004,0.021-0.008,0.032-0.012c0.06-0.02,0.12-0.041,0.18-0.062c0.01-0.004,0.019-0.008,0.029-0.011
							c0.062-0.022,0.123-0.046,0.185-0.071c0.006-0.002,0.013-0.006,0.02-0.008c0.064-0.026,0.128-0.053,0.192-0.082
							c0.001,0,0.003-0.001,0.004-0.002c0.756-0.334,1.483-0.818,2.074-1.515c0.001-0.001,0.001-0.001,0.002-0.001
							c0.807-0.951,1.361-2.299,1.395-4.205c0-0.002,0-0.003,0-0.005h3.925V9.672L14.245,9.672z M0.744,5.112V0.731H9.58v3.831
							v0.363v0.188c0,0.06-0.004,0.117-0.005,0.176c-0.044,2.372-0.962,4.02-2.737,4.921c0,0.001-0.001,0.002-0.002,0.002
							c-0.135,0.068-0.275,0.133-0.42,0.192c-0.002,0.001-0.005,0.002-0.007,0.003c-0.145,0.06-0.294,0.115-0.448,0.166
							c-0.002,0-0.005,0.002-0.008,0.002c-0.155,0.051-0.315,0.098-0.48,0.141c-0.103,0.026-0.203,0.055-0.31,0.077
							c-0.139-0.03-0.272-0.065-0.405-0.101c-0.013-0.004-0.026-0.006-0.038-0.01C2.082,9.959,0.744,8.089,0.744,5.112L0.744,5.112z
							 M14.617,4.562h-4.293V0.368c0-0.201-0.167-0.363-0.372-0.363H0.372C0.167,0.005,0,0.167,0,0.368v4.746
							c0,4.274,2.576,5.82,4.841,6.353c0.643,3.059,2.937,4.205,4.909,4.611c0.025,0.006,0.052,0.008,0.077,0.008
							s0.052-0.002,0.077-0.008c2.318-0.478,5.084-1.978,5.084-6.408V4.925C14.988,4.725,14.822,4.562,14.617,4.562L14.617,4.562z"
							/>
					</g>
					<path id="Fill-12" d="M10.858,9.055h1.615c0.205,0,0.372-0.162,0.372-0.362c0-0.201-0.166-0.363-0.372-0.363h-1.615
						c-0.206,0-0.372,0.162-0.372,0.363C10.486,8.893,10.652,9.055,10.858,9.055"/>
				</g>
			</g>
		</g>
	</g>
</g>
</svg>
