
<svg width="38px" height="107px" viewBox="0 0 38 107" version="1.1" xmlns="http://www.w3.org/2000/svg" xmlns:xlink="http://www.w3.org/1999/xlink">
    <g id="Page-1" stroke="none" stroke-width="1" fill="none" fill-rule="evenodd">
        <g id="SmartFlyer-Blog-Post-Copy-10" transform="translate(-201.000000, -3416.000000)" fill="#DDDDDD">
            <path d="M167.55,3487.9 C168.350004,3486.66666 168.883332,3485.55001 169.15,3484.55 C169.416668,3483.54999 169.55,3482.20001 169.55,3480.5 L169.55,3458.9 C169.55,3457.23333 169.408335,3455.9 169.125,3454.9 C168.841665,3453.9 168.31667,3452.76667 167.55,3451.5 L167.55,3451.4 C169.650011,3451.4 171.924988,3451.36667 174.375,3451.3 C176.825012,3451.23333 179.166655,3451.2 181.4,3451.2 C187.233362,3451.2 191.774984,3452.79165 195.025,3455.975 C198.275016,3459.15835 199.9,3463.6833 199.9,3469.55 C199.9,3475.5167 198.25835,3480.08332 194.975,3483.25 C191.69165,3486.41668 187.000031,3488 180.9,3488 L167.55,3488 L167.55,3487.9 Z M173.65,3452.15 L173.65,3487.1 L180.45,3487 C185.650026,3486.93333 189.408322,3485.52501 191.725,3482.775 C194.041678,3480.02499 195.2,3475.85003 195.2,3470.25 C195.2,3464.0833 194.025012,3459.54168 191.675,3456.625 C189.324988,3453.70832 185.750024,3452.23333 180.95,3452.2 L173.65,3452.15 Z M220.25,3456.35 L214.05,3473.2 L226.35,3473.2 L220.25,3456.35 Z M212.15,3488 L206.05,3488 L206.05,3487.9 C206.750003,3487.2 207.333331,3486.475 207.8,3485.725 C208.266669,3484.975 208.608332,3484.34167 208.825,3483.825 C209.041668,3483.30833 209.449997,3482.28334 210.05,3480.75 L221.1,3450.95 L222.3,3450.95 L233.5,3481.25 C234.233337,3483.25001 234.841664,3484.675 235.325,3485.525 C235.808336,3486.375 236.483329,3487.16666 237.35,3487.9 L237.35,3488 L229.4,3488 L229.4,3487.9 C230.400005,3486.39999 230.333339,3484.11668 229.2,3481.05 L226.7,3474.2 L213.65,3474.2 L211.6,3479.8 C210.333327,3483.20002 210.516659,3485.89999 212.15,3487.9 L212.15,3488 Z M253.9,3487.9 C254.666671,3486.83333 255.191665,3485.875 255.475,3485.025 C255.758335,3484.175 255.9,3483.05001 255.9,3481.65 L255.9,3471.1 L248,3457.3 C246.299992,3454.43332 244.683341,3452.5 243.15,3451.5 L243.15,3451.4 L252.55,3451.4 L252.55,3451.5 C251.816663,3452.03334 251.45,3452.76666 251.45,3453.7 C251.45,3454.63334 251.78333,3455.68333 252.45,3456.85 L259.65,3469.7 L265.6,3459.6 C267.60001,3456.23332 267.683342,3453.53334 265.85,3451.5 L265.85,3451.4 L272.95,3451.4 L272.95,3451.5 C271.749994,3452.43334 270.79167,3453.375 270.075,3454.325 C269.35833,3455.275 268.350007,3456.86666 267.05,3459.1 L260,3471.05 L260,3481.65 C260,3483.11667 260.124999,3484.25 260.375,3485.05 C260.625001,3485.85 261.166663,3486.79999 262,3487.9 L262,3488 L253.9,3488 L253.9,3487.9 Z" id="DAY" transform="translate(220.250000, 3469.475000) rotate(-90.000000) translate(-220.250000, -3469.475000) "></path>
        </g>
    </g>
</svg>