<?xml version="1.0" encoding="utf-8"?>
<!-- Generator: Adobe Illustrator 16.0.0, SVG Export Plug-In . SVG Version: 6.00 Build 0)  -->
<!DOCTYPE svg PUBLIC "-//W3C//DTD SVG 1.1//EN" "http://www.w3.org/Graphics/SVG/1.1/DTD/svg11.dtd">
<svg version="1.1" id="Layer_1" xmlns="http://www.w3.org/2000/svg" xmlns:xlink="http://www.w3.org/1999/xlink" x="0px" y="0px"
	 width="13px" height="16px" viewBox="0 0 13 16" enable-background="new 0 0 13 16" xml:space="preserve">
<title>Page 1</title>
<desc>Created with Sketch.</desc>
<g id="Page-1_1_">
	<g id="SmartFlyer-Reviews" transform="translate(-880.000000, -663.000000)">
		<g id="FILTERS-JUST-TAGS" transform="translate(-43.000000, 524.000000)">
			<g id="style-hover" transform="translate(505.000000, 27.000000)">
				<g id="Page-1" transform="translate(418.000000, 112.000000)">
					<path id="Fill-1" d="M11.213,10.215c-0.551,1.119-1.412,2.007-2.462,2.584c0.077-0.128,0.146-0.262,0.203-0.402
						c0.86-2.12,0.858-4.436,0.028-6.518c0.811-0.492,1.523-0.996,1.878-1.624C12.004,6.021,12.152,8.302,11.213,10.215
						 M7.05,13.406c-1.086-1.328-1.123-2.744-1.154-4.039C5.859,7.839,5.824,6.396,4.045,5.626c-0.158-0.068-0.34,0.006-0.407,0.166
						s0.006,0.345,0.163,0.413c1.411,0.611,1.438,1.688,1.474,3.178c0.031,1.259,0.066,2.72,1.054,4.114
						c-0.073-0.003-0.146-0.005-0.218-0.016c-5.216-0.714-4.992-4.435-4.774-8.032c0.103-1.698,0.2-3.316-0.409-4.365
						C3.798,1.035,6.488,2.58,7.918,5.091c1.236,2.17,1.404,4.745,0.462,7.065C8.128,12.775,7.645,13.22,7.05,13.406 M11.012,3.397
						c-0.078-0.097-0.204-0.139-0.322-0.106c-0.119,0.032-0.208,0.132-0.227,0.255C10.361,4.201,9.625,4.75,8.729,5.299
						C8.644,5.123,8.554,4.949,8.456,4.777C6.938,2.11,4.104,0.454,1.062,0.454c-0.26,0-0.522,0.012-0.78,0.036
						C0.16,0.502,0.056,0.585,0.016,0.704C-0.023,0.822,0.01,0.952,0.101,1.036c0.833,0.771,0.728,2.522,0.616,4.375
						c-0.212,3.521-0.477,7.902,5.311,8.694c0.127,0.018,0.256,0.026,0.384,0.026c0.139,0,0.277-0.011,0.412-0.031
						c0.487,0.519,1.129,1.021,1.981,1.495c0.048,0.025,0.099,0.039,0.148,0.039c0.11,0,0.217-0.061,0.273-0.164
						c0.082-0.152,0.027-0.344-0.123-0.428c-0.632-0.351-1.135-0.717-1.54-1.094c1.834-0.479,3.353-1.722,4.204-3.454
						C12.9,8.191,12.604,5.405,11.012,3.397"/>
				</g>
			</g>
		</g>
	</g>
</g>
</svg>
