<?xml version="1.0" encoding="utf-8"?>
<!-- Generator: Adobe Illustrator 16.0.0, SVG Export Plug-In . SVG Version: 6.00 Build 0)  -->
<!DOCTYPE svg PUBLIC "-//W3C//DTD SVG 1.1//EN" "http://www.w3.org/Graphics/SVG/1.1/DTD/svg11.dtd">
<svg version="1.1" id="Layer_1" xmlns:sketch="http://www.bohemiancoding.com/sketch/ns"
	 xmlns="http://www.w3.org/2000/svg" xmlns:xlink="http://www.w3.org/1999/xlink" x="0px" y="0px" width="12px" height="8px"
	 viewBox="0 0 12 8" enable-background="new 0 0 12 8" xml:space="preserve">
<path id="Fill-1" d="M11.742,2.128c-0.37,0.2-4.912,2.657-5.139,2.778C6.377,5.029,6.219,5.045,6,5.045
	S5.623,5.029,5.396,4.906C5.169,4.785,0.628,2.328,0.258,2.128C-0.002,1.988,0,2.152,0,2.279v5.06C0,7.628,0.373,8,0.661,8h10.678
	C11.628,8,12,7.628,12,7.339v-5.06C12,2.152,12.002,1.988,11.742,2.128 M0.396,0.749c0.325,0.181,4.832,2.686,5,2.779
	C5.563,3.621,5.781,3.666,6,3.666s0.437-0.045,0.604-0.138c0.168-0.093,4.675-2.598,5-2.779C11.93,0.568,12.238,0,11.64,0H0.36
	C-0.237,0,0.07,0.568,0.396,0.749"/>
</svg>
