<?xml version="1.0" encoding="utf-8"?>
<!-- Generator: Adobe Illustrator 16.0.0, SVG Export Plug-In . SVG Version: 6.00 Build 0)  -->
<!DOCTYPE svg PUBLIC "-//W3C//DTD SVG 1.1//EN" "http://www.w3.org/Graphics/SVG/1.1/DTD/svg11.dtd">
<svg version="1.1" id="Layer_1" xmlns="http://www.w3.org/2000/svg" xmlns:xlink="http://www.w3.org/1999/xlink" x="0px" y="0px"
	 width="19px" height="11px" viewBox="0 0 19 11" enable-background="new 0 0 19 11" xml:space="preserve">
<path id="Fill-1" d="M14.342,9.903c-0.049-0.816-0.307-1.6-0.729-2.25c0.422-0.229,0.89-0.358,1.391-0.358
	c1.486,0,2.729,1.142,2.891,2.608H14.342z M5.328,9.903c0.161-2.186,1.986-3.914,4.184-3.914c2.198,0,4.021,1.729,4.184,3.912H5.328
	V9.903z M7.573,3.217c0-0.995,0.824-2.12,1.938-2.12c1.114,0,1.938,1.125,1.938,2.12s-0.823,2.12-1.938,2.12
	C8.397,5.337,7.573,4.212,7.573,3.217L7.573,3.217z M13.711,5.174c0-0.685,0.566-1.467,1.293-1.467s1.292,0.783,1.292,1.467
	c0,0.685-0.565,1.468-1.292,1.468S13.711,5.859,13.711,5.174L13.711,5.174z M16.166,6.837c0.469-0.391,0.775-1.011,0.775-1.663
	c0-1.125-0.904-2.12-1.938-2.12s-1.938,0.995-1.938,2.12c0,0.652,0.308,1.272,0.775,1.663C13.63,6.919,13.436,7,13.242,7.114
	c-0.613-0.733-1.422-1.305-2.357-1.581c0.711-0.505,1.211-1.37,1.211-2.315c0-1.483-1.211-2.771-2.584-2.771
	c-1.373,0-2.585,1.288-2.585,2.771c0,0.946,0.501,1.811,1.212,2.315c-2.003,0.604-3.473,2.479-3.473,4.695
	c0,0.18,0.146,0.326,0.323,0.326h13.246c0.179,0,0.322-0.146,0.322-0.326C18.557,8.663,17.557,7.325,16.166,6.837L16.166,6.837z"/>
<path id="Fill-4" d="M1.105,9.903c0.162-1.469,1.406-2.608,2.892-2.608c0.501,0,0.969,0.13,1.389,0.358
	c-0.42,0.65-0.678,1.435-0.727,2.25H1.105z M5.305,9.903C5.466,7.718,7.292,5.99,9.489,5.99c2.196,0,4.022,1.729,4.185,3.913H5.305z
	 M9.489,5.337c-1.115,0-1.938-1.125-1.938-2.12s0.824-2.12,1.938-2.12c1.114,0,1.938,1.125,1.938,2.12S10.604,5.337,9.489,5.337
	L9.489,5.337z M3.998,6.642c-0.727,0-1.292-0.782-1.292-1.468c0-0.685,0.565-1.467,1.292-1.467S5.29,4.49,5.29,5.174
	C5.29,5.858,4.725,6.642,3.998,6.642L3.998,6.642z M0.443,10.228c0,0.18,0.146,0.326,0.323,0.326h13.245
	c0.178,0,0.322-0.146,0.322-0.326c0-2.217-1.47-4.092-3.473-4.694c0.711-0.505,1.212-1.37,1.212-2.315
	c0-1.483-1.212-2.771-2.585-2.771S6.904,1.734,6.904,3.217c0,0.946,0.5,1.811,1.211,2.315C7.179,5.81,6.372,6.381,5.757,7.114
	C5.564,7,5.37,6.919,5.16,6.837c0.468-0.391,0.775-1.011,0.775-1.663c0-1.125-0.905-2.12-1.938-2.12
	c-1.033,0-1.938,0.995-1.938,2.12c0,0.652,0.307,1.272,0.775,1.663C1.444,7.325,0.443,8.663,0.443,10.228L0.443,10.228z"/>
</svg>
