<?xml version="1.0" encoding="utf-8"?>
<!-- Generator: Adobe Illustrator 16.0.0, SVG Export Plug-In . SVG Version: 6.00 Build 0)  -->
<!DOCTYPE svg PUBLIC "-//W3C//DTD SVG 1.1//EN" "http://www.w3.org/Graphics/SVG/1.1/DTD/svg11.dtd">
<svg version="1.1" id="Layer_1" xmlns="http://www.w3.org/2000/svg" xmlns:xlink="http://www.w3.org/1999/xlink" x="0px" y="0px"
	 width="18px" height="18px" viewBox="0 0 18 18" enable-background="new 0 0 18 18" xml:space="preserve">
<g id="Stroke-1">
	<path d="M10.021,17.223c-4.687,0-8.971-0.317-9.013-0.321l-0.231-0.017v-0.232c0-2.27,3.616-4.047,8.233-4.047
		c4.617,0,8.234,1.777,8.234,4.047v0.224L17.022,16.9C15.133,17.114,12.777,17.223,10.021,17.223z M1.294,16.421
		c0.978,0.066,4.704,0.302,8.728,0.302c2.622,0,4.877-0.099,6.707-0.293c-0.261-1.823-3.689-3.324-7.719-3.324
		C4.988,13.105,1.564,14.601,1.294,16.421z"/>
</g>
<g id="Stroke-3">
	<path d="M3.902,14l-0.06-0.284c-0.26-1.235-0.249-2.713,0.032-4.16C4.125,8.261,4.96,6.672,5.946,5.553
		C4.235,5.73,2.518,6.26,2.568,7.28C2.577,7.468,2.611,7.655,2.67,7.853L2.233,8.077c-0.369-0.479-0.58-1.056-0.609-1.666
		c-0.04-0.797,0.233-1.562,0.77-2.154c0.537-0.592,1.271-0.94,2.069-0.979c0.159-0.008,0.316-0.005,0.47,0.009
		C4.024,2.601,3.212,2.456,2.618,2.94c-0.146,0.12-0.277,0.258-0.4,0.423l-0.44-0.219C1.946,2.562,2.283,2.05,2.753,1.664
		c0.533-0.437,1.206-0.678,1.895-0.678c0.9,0,1.744,0.398,2.313,1.093C7.03,2.164,7.094,2.25,7.152,2.34
		C7.151,1.919,7.064,1.515,6.753,1.204l0.263-0.412C7.08,0.815,8.432,1.325,8.665,2.426c0.133-0.034,0.272-0.051,0.416-0.051
		c0.824,0,1.58,0.569,1.723,0.683l-0.119,0.155l-0.097,0.286c-0.259-0.07-0.53-0.039-0.782,0.054
		c1.555,0.26,2.655,1.698,2.478,3.282C12.216,7.438,11.97,8,11.573,8.458l-0.424-0.25c0.071-0.193,0.117-0.383,0.137-0.565
		c0.056-0.495-0.179-0.899-0.385-1.151c-0.23-0.282-0.542-0.524-0.899-0.71c0.03,0.036,0.06,0.072,0.088,0.109
		c0.995,1.312,0.737,3.192-0.575,4.19c-0.485,0.367-1.061,0.576-1.666,0.605l-0.111-0.479c0.186-0.08,0.351-0.176,0.506-0.292
		C8.929,9.394,8.458,7.92,6.951,5.852c-1.04,1.627-1.469,3.785-1.179,5.983c0.053,0.401,0.163,0.804,0.336,1.231l0.113,0.279
		l-0.295,0.06c-0.627,0.127-1.216,0.293-1.751,0.493L3.902,14z M6.396,5.799C5.432,6.855,4.608,8.4,4.366,9.651
		c-0.247,1.273-0.277,2.567-0.088,3.679c0.397-0.136,0.82-0.254,1.261-0.354C5.41,12.609,5.323,12.255,5.276,11.9
		C4.984,9.682,5.391,7.496,6.396,5.799z M7.055,5.154l0.086,0.114C8.306,6.813,9.464,8.77,8.909,9.882
		c0.105-0.059,0.207-0.125,0.304-0.198c1.093-0.831,1.308-2.396,0.479-3.49C9.41,5.824,9.033,5.541,8.603,5.378l0.111-0.483
		c1.016,0.091,2.002,0.582,2.574,1.281c0.226,0.275,0.378,0.571,0.452,0.876c0.021-0.09,0.036-0.181,0.047-0.273
		c0.152-1.364-0.834-2.599-2.198-2.752C9.361,4,9.134,4.005,8.916,4.042L8.733,3.59c0.311-0.216,0.661-0.443,1.052-0.557
		C9.406,2.874,8.923,2.81,8.564,2.996L8.193,3.188l0.006-0.417C8.206,2.298,7.9,1.934,7.578,1.682
		c0.132,0.512,0.063,1.06,0.004,1.534l-0.02,0.156L7.071,3.399C6.984,3.031,6.817,2.693,6.575,2.396
		c-0.474-0.579-1.177-0.91-1.927-0.91c-0.573,0-1.133,0.2-1.577,0.564C2.999,2.109,2.93,2.172,2.866,2.238
		C3.04,2.18,3.224,2.151,3.416,2.151c1.083,0,2.123,0.932,2.647,1.488L5.768,4.033c-0.381-0.192-0.822-0.278-1.28-0.256
		C3.823,3.81,3.211,4.1,2.764,4.593S2.09,5.723,2.123,6.387c0.006,0.115,0.019,0.229,0.04,0.34c0.561-1.4,3.448-1.673,4.409-1.724
		l0.686-0.037L7.055,5.154z"/>
</g>
</svg>
