<?xml version="1.0" encoding="utf-8"?>
<!-- Generator: Adobe Illustrator 16.0.0, SVG Export Plug-In . SVG Version: 6.00 Build 0)  -->
<!DOCTYPE svg PUBLIC "-//W3C//DTD SVG 1.1//EN" "http://www.w3.org/Graphics/SVG/1.1/DTD/svg11.dtd">
<svg version="1.1" id="Layer_1" xmlns="http://www.w3.org/2000/svg" xmlns:xlink="http://www.w3.org/1999/xlink" x="0px" y="0px"
	 width="19px" height="18px" viewBox="0 0 19 18" enable-background="new 0 0 19 18" xml:space="preserve">
<defs>
	<filter id="Adobe_OpacityMaskFilter" filterUnits="userSpaceOnUse" x="0.667" y="0.005" width="18.234" height="17.579">
		<feColorMatrix  type="matrix" values="1 0 0 0 0  0 1 0 0 0  0 0 1 0 0  0 0 0 1 0"/>
	</filter>
</defs>
<mask maskUnits="userSpaceOnUse" x="0.667" y="0.005" width="18.234" height="17.579" id="mask-2">
	<g filter="url(#Adobe_OpacityMaskFilter)">
		<polygon id="path-1" points="18.9,17.584 18.9,0.005 0.667,0.005 0.667,17.584 		"/>
	</g>
</mask>
<path id="Fill-1" mask="url(#mask-2)" d="M9.784,0.005c-2.476,0-2.787,0.01-3.759,0.053
	C5.054,0.101,4.392,0.25,3.812,0.467C3.212,0.691,2.704,0.992,2.197,1.48C1.69,1.969,1.378,2.459,1.146,3.038
	C0.92,3.596,0.766,4.235,0.722,5.171C0.677,6.108,0.667,6.407,0.667,8.794s0.011,2.686,0.055,3.624
	c0.044,0.936,0.198,1.574,0.424,2.133c0.233,0.578,0.544,1.068,1.051,1.558c0.507,0.488,1.016,0.789,1.615,1.014
	c0.58,0.218,1.243,0.366,2.213,0.408c0.972,0.043,1.283,0.054,3.759,0.054s2.787-0.011,3.759-0.054
	c0.971-0.042,1.633-0.19,2.213-0.408c0.6-0.225,1.107-0.525,1.615-1.014c0.506-0.489,0.818-0.979,1.051-1.558
	c0.226-0.559,0.38-1.197,0.424-2.133c0.045-0.938,0.055-1.236,0.055-3.624c0-2.387-0.01-2.686-0.055-3.624
	c-0.044-0.936-0.198-1.575-0.424-2.133c-0.232-0.578-0.545-1.068-1.051-1.557c-0.508-0.488-1.016-0.789-1.615-1.014
	c-0.58-0.217-1.242-0.366-2.213-0.408C12.57,0.016,12.26,0.005,9.784,0.005 M9.784,1.589c2.435,0,2.722,0.009,3.684,0.051
	c0.89,0.04,1.372,0.183,1.692,0.303c0.426,0.16,0.73,0.35,1.049,0.658s0.517,0.6,0.682,1.01c0.125,0.31,0.273,0.775,0.314,1.632
	c0.044,0.927,0.053,1.205,0.053,3.551c0,2.346-0.009,2.625-0.053,3.551c-0.041,0.857-0.189,1.322-0.314,1.633
	c-0.165,0.41-0.363,0.702-0.682,1.01s-0.623,0.498-1.049,0.658c-0.32,0.119-0.803,0.263-1.692,0.302
	C12.507,15.99,12.219,16,9.784,16c-2.435,0-2.723-0.01-3.684-0.052c-0.889-0.039-1.372-0.183-1.693-0.302
	c-0.425-0.16-0.729-0.351-1.048-0.658s-0.517-0.6-0.682-1.01c-0.125-0.311-0.273-0.775-0.314-1.633
	C2.319,11.419,2.31,11.141,2.31,8.794c0-2.347,0.009-2.625,0.053-3.551c0.041-0.857,0.189-1.322,0.314-1.632
	c0.166-0.41,0.363-0.703,0.682-1.01s0.623-0.498,1.048-0.658C4.728,1.823,5.211,1.68,6.1,1.64C7.061,1.598,7.35,1.589,9.784,1.589"
	/>
<path id="Fill-4" d="M10.215,11.512c-1.711,0-3.099-1.308-3.099-2.921S8.503,5.67,10.215,5.67
	c1.712,0,3.1,1.308,3.1,2.921S11.927,11.512,10.215,11.512 M10.215,4.091c-2.637,0-4.774,2.015-4.774,4.5s2.137,4.5,4.774,4.5
	s4.774-2.015,4.774-4.5S12.852,4.091,10.215,4.091"/>
<path id="Fill-6" d="M15.785,4.5c0,0.678-0.535,1.227-1.193,1.227c-0.66,0-1.193-0.549-1.193-1.227
	s0.533-1.227,1.193-1.227C15.25,3.273,15.785,3.822,15.785,4.5"/>
</svg>
