<?xml version="1.0" encoding="utf-8"?>
<!-- Generator: Adobe Illustrator 16.0.0, SVG Export Plug-In . SVG Version: 6.00 Build 0)  -->
<!DOCTYPE svg PUBLIC "-//W3C//DTD SVG 1.1//EN" "http://www.w3.org/Graphics/SVG/1.1/DTD/svg11.dtd">
<svg version="1.1" id="Layer_1" xmlns="http://www.w3.org/2000/svg" xmlns:xlink="http://www.w3.org/1999/xlink" x="0px" y="0px"
	 width="362.36px" height="314.021px" viewBox="273.82 109.5 362.36 314.021" enable-background="new 273.82 109.5 362.36 314.021"
	 xml:space="preserve">
<g>
	<path d="M603.7,197.658H394.457c-17.911,0-32.479,14.573-32.479,32.48v160.903c0,17.907,14.568,32.48,32.479,32.48H603.7
		c17.911,0,32.479-14.573,32.479-32.48V230.138C636.18,212.231,621.606,197.658,603.7,197.658z M616.021,391.041
		c0,6.792-5.528,12.32-12.32,12.32H394.457c-6.791,0-12.319-5.528-12.319-12.32V230.138c0-6.792,5.528-12.32,12.319-12.32H603.7
		c6.792,0,12.32,5.528,12.32,12.32V391.041z"/>
	<path d="M293.98,302.88v-160.9c0-6.792,5.524-12.32,12.32-12.32h209.243c6.796,0,12.319,5.528,12.319,12.32v29.613h20.16V141.98
		c0-17.906-14.568-32.48-32.479-32.48H306.3c-17.911,0-32.48,14.574-32.48,32.48v160.9c0,17.91,14.569,32.479,32.48,32.479h22.709
		v-20.16H306.3C299.508,315.199,293.98,309.676,293.98,302.88z"/>
</g>
</svg>
