<?xml version="1.0" encoding="utf-8"?>
<!-- Generator: Adobe Illustrator 16.0.0, SVG Export Plug-In . SVG Version: 6.00 Build 0)  -->
<!DOCTYPE svg PUBLIC "-//W3C//DTD SVG 1.1//EN" "http://www.w3.org/Graphics/SVG/1.1/DTD/svg11.dtd">
<svg version="1.1" id="Layer_1" xmlns="http://www.w3.org/2000/svg" xmlns:xlink="http://www.w3.org/1999/xlink" x="0px" y="0px"
	 width="126.333px" height="12.583px" viewBox="0 0 126.333 12.583" enable-background="new 0 0 126.333 12.583"
	 xml:space="preserve">
<g>
	<path fill="#0F3D8B" d="M0.752,11.929c-0.236-0.106-0.255-0.16-0.255-0.566c0-0.745,0.079-1.35,0.098-1.596
		c0-0.16,0.039-0.25,0.138-0.25c0.098,0,0.158,0.054,0.158,0.178s0,0.337,0.059,0.552c0.275,1.1,1.576,1.489,2.738,1.489
		c1.716,0,2.602-0.87,2.602-2.006c0-1.082-0.65-1.597-2.188-2.625L3.313,6.574C1.442,5.315,0.831,4.393,0.831,3.345
		c0-1.771,1.558-2.836,3.843-2.836c0.689,0,1.379,0.088,1.793,0.176c0.335,0.071,0.473,0.071,0.61,0.071
		c0.139,0,0.178,0.021,0.178,0.106c0,0.072-0.079,0.568-0.079,1.598c0,0.229-0.021,0.337-0.138,0.337
		c-0.119,0-0.139-0.071-0.158-0.196C6.86,2.423,6.723,2.017,6.624,1.856c-0.117-0.177-0.69-0.745-2.246-0.745
		c-1.261,0-2.305,0.568-2.305,1.633c0,0.957,0.531,1.508,2.246,2.554L4.812,5.6C6.92,6.893,7.65,7.939,7.65,9.234
		c0,0.886-0.375,1.845-1.617,2.572c-0.729,0.425-1.812,0.53-2.759,0.53C2.467,12.336,1.461,12.231,0.752,11.929"/>
	<path fill="#0F3D8B" d="M25.121,10.192c0.058,0.531,0.177,1.35,0.885,1.561c0.493,0.143,0.947,0.143,1.124,0.143
		c0.079,0,0.138,0.035,0.138,0.105c0,0.09-0.157,0.144-0.355,0.144c-0.394,0-2.325-0.035-2.954-0.089
		c-0.416-0.035-0.494-0.09-0.494-0.16c0-0.053,0.04-0.105,0.118-0.125c0.099-0.018,0.119-0.248,0.079-0.531l-0.828-7.626h-0.039
		l-4.178,7.697c-0.354,0.655-0.453,0.799-0.61,0.799c-0.159,0-0.256-0.144-0.591-0.692c-0.454-0.744-1.597-2.678-2.03-3.494
		c-0.512-0.955-1.911-3.492-2.207-4.112h-0.078l-0.67,6.81c-0.02,0.23-0.02,0.516-0.02,0.762c0,0.231,0.157,0.373,0.414,0.428
		c0.296,0.07,0.551,0.088,0.669,0.088c0.059,0,0.138,0.055,0.138,0.105c0,0.107-0.118,0.144-0.315,0.144
		c-0.65,0-1.478-0.054-1.617-0.054c-0.157,0-0.984,0.054-1.458,0.054c-0.177,0-0.294-0.035-0.294-0.144
		c0-0.053,0.078-0.105,0.176-0.105c0.138,0,0.256-0.018,0.513-0.053c0.571-0.09,0.591-0.639,0.67-1.206l1.261-9.841
		c0.02-0.161,0.099-0.268,0.197-0.268c0.119,0,0.256,0.053,0.356,0.229l5.241,9.364l5.045-9.344c0.079-0.144,0.157-0.25,0.276-0.25
		c0.118,0,0.216,0.123,0.256,0.408L25.121,10.192z"/>
	<path fill="#0F3D8B" d="M36.554,7.319c0.078,0,0.078-0.033,0.058-0.107L34.897,3.08c-0.097-0.23-0.196-0.23-0.295,0l-1.616,4.131
		c-0.021,0.074,0,0.107,0.059,0.107H36.554z M34.622,1.042c0.217-0.497,0.295-0.586,0.414-0.586c0.176,0,0.236,0.213,0.414,0.549
		c0.315,0.639,3.093,6.863,4.157,9.152c0.631,1.346,1.104,1.543,1.477,1.648c0.257,0.07,0.513,0.088,0.691,0.088
		c0.099,0,0.216,0.035,0.216,0.125c0,0.089-0.196,0.124-0.394,0.124c-0.256,0-1.537,0-2.738-0.035
		c-0.336-0.019-0.612-0.019-0.612-0.108c0-0.069,0.039-0.069,0.119-0.104c0.097-0.035,0.275-0.158,0.156-0.406l-1.556-3.459
		c-0.04-0.071-0.059-0.09-0.158-0.09h-4c-0.08,0-0.139,0.036-0.178,0.125l-0.986,2.412c-0.157,0.372-0.256,0.745-0.256,1.012
		c0,0.3,0.296,0.406,0.592,0.406h0.158c0.137,0,0.177,0.054,0.177,0.125c0,0.089-0.098,0.124-0.256,0.124
		c-0.414,0-1.359-0.055-1.556-0.055c-0.178,0-1.044,0.055-1.754,0.055c-0.216,0-0.335-0.035-0.335-0.124
		c0-0.071,0.079-0.125,0.158-0.125c0.119,0,0.375-0.019,0.512-0.035c0.789-0.09,1.124-0.621,1.458-1.383L34.622,1.042z"/>
	<path fill="#0F3D8B" d="M93.586,8.223c0-0.814-0.116-1.118-0.373-1.543c-0.137-0.231-2.48-3.583-3.071-4.38
		c-0.416-0.566-0.828-0.904-1.144-1.1c-0.258-0.143-0.59-0.213-0.73-0.213c-0.098,0-0.178-0.071-0.178-0.143
		c0-0.068,0.059-0.104,0.218-0.104c0.334,0,1.635,0.037,1.715,0.037c0.119,0,0.826-0.037,1.496-0.037
		c0.196,0,0.235,0.037,0.235,0.104c0,0.053-0.116,0.107-0.273,0.159c-0.139,0.054-0.217,0.124-0.217,0.249
		c0,0.213,0.117,0.391,0.234,0.586l3.152,4.699c0.355-0.639,2.523-3.866,2.84-4.362c0.215-0.337,0.293-0.585,0.293-0.78
		c0-0.213-0.078-0.338-0.275-0.392c-0.155-0.034-0.254-0.106-0.254-0.176c0-0.052,0.099-0.089,0.275-0.089
		c0.452,0,1.062,0.037,1.202,0.037c0.117,0,1.358-0.037,1.694-0.037c0.115,0,0.217,0.037,0.217,0.089
		c0,0.069-0.079,0.159-0.217,0.159c-0.197,0-0.534,0.054-0.809,0.195c-0.336,0.178-0.492,0.338-0.869,0.744
		c-0.57,0.604-3.014,4.149-3.369,4.789c-0.295,0.531-0.215,1.01-0.215,1.507v1.294c0,0.25,0,0.887,0.058,1.508
		c0.04,0.442,0.157,0.728,0.671,0.798c0.236,0.036,0.632,0.071,0.789,0.071c0.098,0,0.137,0.069,0.137,0.125
		c0,0.069-0.099,0.124-0.277,0.124c-0.963,0-2.086-0.055-2.185-0.055c-0.079,0-1.185,0.055-1.694,0.055
		c-0.197,0-0.277-0.035-0.277-0.124c0-0.056,0.039-0.125,0.141-0.125c0.157,0,0.354-0.035,0.514-0.071
		c0.353-0.07,0.471-0.354,0.512-0.798c0.037-0.621,0.037-1.258,0.037-1.508V8.223H93.586z"/>
	<path fill="#0F3D8B" d="M103.736,5.103c0-2.342,0-2.768-0.04-3.247c-0.039-0.513-0.138-0.761-0.708-0.833
		c-0.138-0.019-0.433-0.035-0.592-0.035c-0.06,0-0.138-0.071-0.138-0.125c0-0.086,0.078-0.123,0.277-0.123
		c0.785,0,1.909,0.037,2.008,0.037c0.117,0,3.744,0.017,4.139,0c0.336-0.02,0.646-0.072,0.788-0.092
		c0.079-0.016,0.159-0.07,0.237-0.07c0.06,0,0.078,0.07,0.078,0.143c0,0.105-0.101,0.284-0.141,0.709
		c-0.018,0.143-0.057,0.814-0.098,0.994c-0.021,0.07-0.078,0.158-0.157,0.158c-0.099,0-0.138-0.07-0.138-0.195
		c0-0.105-0.021-0.354-0.099-0.53c-0.118-0.249-0.297-0.356-1.243-0.462c-0.295-0.035-2.305-0.054-2.5-0.054
		c-0.08,0-0.1,0.054-0.1,0.159v4.098c0,0.106,0,0.16,0.1,0.16c0.217,0,2.5,0,2.896-0.037c0.413-0.035,0.668-0.052,0.847-0.213
		c0.117-0.105,0.195-0.195,0.255-0.195c0.061,0,0.098,0.037,0.098,0.125c0,0.089-0.098,0.338-0.137,0.833
		c-0.041,0.302-0.078,0.87-0.078,0.978c0,0.123-0.039,0.283-0.158,0.283c-0.079,0-0.116-0.053-0.116-0.143
		c0-0.143,0-0.301-0.079-0.497c-0.061-0.212-0.217-0.39-0.889-0.46c-0.473-0.053-2.322-0.071-2.62-0.071
		c-0.099,0-0.117,0.052-0.117,0.106v1.26c0,0.513-0.021,2.27,0,2.57c0.04,1.012,0.354,1.205,2.067,1.205
		c0.455,0,1.281,0,1.733-0.158c0.455-0.178,0.691-0.445,0.79-1.047c0.039-0.178,0.079-0.229,0.178-0.229s0.117,0.123,0.117,0.229
		c0,0.105-0.139,1.135-0.236,1.453c-0.116,0.393-0.295,0.393-0.965,0.393c-1.301,0-2.307-0.037-3.017-0.055
		c-0.728-0.035-1.183-0.035-1.438-0.035c-0.039,0-0.373,0-0.746,0.019c-0.336,0.017-0.729,0.034-1.006,0.034
		c-0.181,0-0.275-0.034-0.275-0.123c0-0.055,0.04-0.125,0.138-0.125c0.157,0,0.374-0.053,0.532-0.07
		c0.335-0.055,0.373-0.354,0.451-0.799c0.1-0.619,0.1-1.809,0.1-3.262L103.736,5.103L103.736,5.103z"/>
	<path fill="#0F3D8B" d="M115.569,6.378c0,0.09,0.039,0.141,0.119,0.195c0.255,0.125,1.145,0.23,1.911,0.23
		c0.414,0,0.886-0.018,1.301-0.266c0.591-0.354,1.043-1.152,1.043-2.305c0-1.88-1.142-2.963-2.996-2.963
		c-0.51,0-1.063,0.054-1.239,0.09c-0.08,0.035-0.139,0.088-0.139,0.176V6.378z M114.071,5.103c0-2.342,0-2.768-0.039-3.247
		c-0.039-0.513-0.14-0.761-0.707-0.833c-0.14-0.019-0.435-0.035-0.594-0.035c-0.061,0-0.139-0.071-0.139-0.125
		c0-0.086,0.078-0.123,0.275-0.123c0.791,0,1.951,0.037,2.051,0.037c0.178,0,1.635-0.037,2.168-0.037
		c1.103,0,2.324,0.089,3.229,0.656c0.435,0.283,1.202,1.01,1.202,2.058c0,1.116-0.512,2.199-2.128,3.439
		c1.419,1.598,2.622,2.962,3.626,3.9c0.927,0.853,1.498,0.994,1.934,1.047c0.332,0.054,0.512,0.054,0.608,0.054
		c0.099,0,0.157,0.069,0.157,0.125c0,0.089-0.098,0.123-0.412,0.123h-1.086c-0.984,0-1.416-0.088-1.852-0.302
		c-0.75-0.354-1.38-1.082-2.363-2.217c-0.731-0.814-1.5-1.791-1.871-2.199c-0.08-0.069-0.119-0.088-0.237-0.088l-2.207-0.035
		c-0.08,0-0.119,0.035-0.119,0.123V7.78c0,1.453,0,2.624,0.08,3.244c0.06,0.443,0.156,0.727,0.688,0.798
		c0.235,0.036,0.608,0.071,0.769,0.071c0.119,0,0.138,0.07,0.138,0.125c0,0.07-0.078,0.123-0.275,0.123
		c-0.943,0-2.049-0.053-2.129-0.053c-0.02,0-1.18,0.053-1.713,0.053c-0.179,0-0.275-0.034-0.275-0.123
		c0-0.055,0.04-0.125,0.138-0.125c0.155,0,0.374-0.035,0.531-0.071c0.336-0.071,0.373-0.354,0.452-0.798
		c0.1-0.62,0.1-1.809,0.1-3.262V5.103L114.071,5.103z"/>
	<path fill="#0F3D8B" d="M70.68,5.103c0-2.342,0-2.768-0.038-3.247c-0.041-0.513-0.14-0.761-0.71-0.833
		c-0.139-0.019-0.434-0.035-0.592-0.035c-0.059,0-0.139-0.071-0.139-0.125c0-0.086,0.08-0.123,0.276-0.123
		c0.787,0,1.871,0.037,1.969,0.037c0.337,0,4.101,0.017,4.494,0c0.335-0.02,0.631-0.02,0.788-0.072
		c0.098-0.02,0.178-0.09,0.234-0.09c0.08,0,0.119,0.07,0.119,0.143c0,0.105-0.078,0.284-0.138,0.709
		c-0.019,0.143-0.04,0.814-0.079,0.994c-0.019,0.07-0.078,0.158-0.156,0.158c-0.08,0-0.139-0.07-0.139-0.177
		c0-0.124-0.06-0.373-0.156-0.567C76.316,1.68,75.9,1.432,75.23,1.432l-2.837-0.035c-0.098,0-0.139,0.035-0.139,0.16V5.67
		c0,0.088,0,0.143,0.119,0.143l2.364-0.018c0.296,0,0.552,0,0.788-0.018c0.413-0.036,0.648-0.09,0.809-0.268
		c0.078-0.088,0.156-0.16,0.215-0.16c0.08,0,0.102,0.053,0.102,0.125c0,0.089-0.119,0.338-0.16,0.833
		c-0.041,0.302-0.06,0.904-0.06,1.013c0,0.142-0.038,0.302-0.156,0.302c-0.099,0-0.118-0.072-0.118-0.143
		c-0.02-0.159-0.041-0.374-0.117-0.551c-0.08-0.212-0.356-0.409-0.888-0.479c-0.435-0.052-2.483-0.033-2.778-0.033
		c-0.099,0-0.117,0.033-0.117,0.141v1.207c0,1.488,0,2.677,0.078,3.262c0.06,0.443,0.156,0.727,0.631,0.799
		c0.256,0.035,0.631,0.07,0.789,0.07c0.099,0,0.137,0.07,0.137,0.125c0,0.07-0.077,0.123-0.275,0.123
		c-0.967,0-2.09-0.053-2.168-0.053c-0.099,0-1.183,0.053-1.715,0.053c-0.178,0-0.275-0.034-0.275-0.123
		c0-0.055,0.041-0.125,0.139-0.125c0.158,0,0.375-0.053,0.529-0.07c0.338-0.055,0.377-0.354,0.457-0.799
		c0.098-0.619,0.098-1.809,0.098-3.262V5.103L70.68,5.103z"/>
	<path fill="#0F3D8B" d="M83.051,7.797c0,2.216,0.039,3.121,0.354,3.388c0.276,0.248,0.945,0.354,2.307,0.354
		c0.904,0,1.674-0.02,2.088-0.463c0.218-0.229,0.354-0.549,0.412-0.85c0.021-0.107,0.082-0.195,0.179-0.195
		c0.079,0,0.116,0.071,0.116,0.229c0,0.162-0.116,1.064-0.254,1.508c-0.117,0.355-0.178,0.41-1.103,0.41
		c-1.241,0-2.209-0.02-3.017-0.055c-0.788-0.018-1.379-0.035-1.889-0.035c-0.084,0-0.377,0-0.713,0.019
		c-0.355,0.017-0.729,0.035-1.006,0.035c-0.177,0-0.275-0.035-0.275-0.124c0-0.055,0.039-0.125,0.139-0.125
		c0.156,0,0.376-0.035,0.533-0.071c0.334-0.071,0.373-0.354,0.453-0.798c0.099-0.621,0.099-1.809,0.099-3.262v-2.66
		c0-2.343,0-2.768-0.04-3.247c-0.038-0.513-0.139-0.761-0.709-0.833c-0.139-0.019-0.436-0.035-0.59-0.035
		c-0.061,0-0.139-0.071-0.139-0.125c0-0.086,0.078-0.123,0.274-0.123c0.789,0,1.871,0.037,1.974,0.037
		c0.074,0,1.377-0.037,1.908-0.037c0.178,0,0.276,0.037,0.276,0.123c0,0.054-0.08,0.107-0.138,0.107
		c-0.117,0-0.377,0.018-0.574,0.034c-0.512,0.091-0.609,0.32-0.649,0.852c-0.019,0.479-0.019,0.904-0.019,3.247v2.695H83.051z"/>
	<path fill="#0F3D8B" d="M61.934,7.763c0,1.454,0,2.642,0.079,3.262c0.058,0.444,0.137,0.728,0.669,0.798
		c0.236,0.036,0.63,0.071,0.789,0.071c0.118,0,0.138,0.069,0.138,0.125c0,0.069-0.079,0.124-0.276,0.124
		c-0.945,0-2.049-0.055-2.147-0.055c-0.08,0-1.281,0.055-1.794,0.055c-0.197,0-0.276-0.035-0.276-0.124
		c0-0.056,0.04-0.106,0.139-0.106c0.158,0,0.354-0.035,0.513-0.07c0.354-0.072,0.452-0.372,0.511-0.816
		c0.079-0.619,0.079-1.809,0.079-3.262V1.431l-2.501,0.035c-1.084,0.018-1.499,0.125-1.755,0.478
		c-0.196,0.269-0.216,0.374-0.274,0.479c-0.041,0.125-0.099,0.143-0.178,0.143c-0.04,0-0.118-0.035-0.118-0.125
		c0-0.16,0.355-1.506,0.375-1.632c0.039-0.088,0.118-0.282,0.176-0.282c0.119,0,0.296,0.123,0.768,0.178
		c0.495,0.052,1.164,0.072,1.36,0.072h6.542c0.574,0,0.969-0.037,1.244-0.072c0.254-0.036,0.414-0.07,0.491-0.07
		c0.078,0,0.078,0.087,0.078,0.175c0,0.462-0.06,1.544-0.06,1.722c0,0.123-0.077,0.195-0.156,0.195s-0.12-0.055-0.141-0.267
		L66.188,2.3c-0.059-0.461-0.434-0.797-2.088-0.834l-2.167-0.035L61.934,7.763L61.934,7.763z"/>
	<path fill="#0F3D8B" d="M46.285,6.378c0,0.09,0.039,0.141,0.119,0.195c0.255,0.125,1.142,0.23,1.911,0.23
		c0.413,0,0.885-0.018,1.3-0.266c0.591-0.354,1.045-1.152,1.045-2.305c0-1.88-1.144-2.963-2.997-2.963
		c-0.511,0-1.064,0.054-1.239,0.09c-0.082,0.035-0.139,0.088-0.139,0.176V6.378z M44.788,5.103c0-2.342,0-2.768-0.041-3.247
		c-0.04-0.513-0.137-0.761-0.708-0.833c-0.138-0.019-0.433-0.035-0.591-0.035c-0.058,0-0.139-0.071-0.139-0.125
		c0-0.086,0.082-0.123,0.276-0.123c0.79,0,1.951,0.037,2.05,0.037c0.176,0,1.636-0.037,2.167-0.037c1.104,0,2.326,0.089,3.231,0.656
		c0.434,0.283,1.202,1.01,1.202,2.058c0,1.116-0.512,2.199-2.127,3.439c1.418,1.598,2.62,2.962,3.625,3.9
		c0.926,0.853,1.5,0.994,1.932,1.047c0.335,0.054,0.514,0.054,0.611,0.054c0.099,0,0.158,0.069,0.158,0.125
		c0,0.089-0.098,0.123-0.415,0.123h-1.083c-0.985,0-1.419-0.088-1.853-0.302c-0.749-0.354-1.379-1.082-2.364-2.217
		c-0.73-0.814-1.499-1.791-1.873-2.199c-0.079-0.069-0.119-0.088-0.237-0.088l-2.205-0.035c-0.081,0-0.119,0.035-0.119,0.123V7.78
		c0,1.453,0,2.624,0.078,3.244c0.061,0.443,0.159,0.727,0.69,0.798c0.236,0.036,0.61,0.071,0.77,0.071
		c0.118,0,0.138,0.07,0.138,0.125c0,0.07-0.08,0.123-0.277,0.123c-0.945,0-2.048-0.053-2.127-0.053
		c-0.021,0-1.182,0.053-1.714,0.053c-0.177,0-0.276-0.034-0.276-0.123c0-0.055,0.041-0.125,0.138-0.125
		c0.156,0,0.375-0.035,0.532-0.071c0.335-0.071,0.375-0.354,0.454-0.798c0.099-0.62,0.099-1.809,0.099-3.262V5.103H44.788z"/>
</g>
</svg>
