<?xml version="1.0" encoding="UTF-8" standalone="no"?>
<svg width="71px" height="74px" viewBox="0 0 71 74" version="1.1" xmlns="http://www.w3.org/2000/svg" xmlns:xlink="http://www.w3.org/1999/xlink" xmlns:sketch="http://www.bohemiancoding.com/sketch/ns">
    <!-- Generator: Sketch 3.5.1 (25234) - http://www.bohemiancoding.com/sketch -->
    <title>Page 1</title>
    <desc>Created with Sketch.</desc>
    <defs></defs>
    <g id="Page-1" stroke="none" stroke-width="1" fill="none" fill-rule="evenodd" sketch:type="MSPage">
        <g id="SmartFlyer-Home-R2-Copy" sketch:type="MSArtboardGroup" transform="translate(-809.000000, -1928.000000)">
            <g id="why" sketch:type="MSLayerGroup" transform="translate(-57.000000, 1744.000000)">
                <g id="Page-1" transform="translate(866.000000, 184.000000)" sketch:type="MSShapeGroup">
                    <path d="M9.0176,61.6091392 L19.8526,54.7727878 C19.7616,53.8080041 19.7376,51.6318149 20.2396,49.4783149 C20.8366,46.9183824 22.0326,46.1568149 21.9146,45.9210446 C21.6806,45.4583824 21.5246,42.2118554 21.2406,41.4552203 C20.9876,40.7824365 20.7916,40.2329635 20.7916,40.2329635 L19.4676,37.4629095 C18.9966,36.0354635 18.6186,36.1558149 19.5096,35.4228554 L23.2346,35.4228554 L27.1326,40.2023824 L29.6136,43.8809905 L34.0376,43.1263284 L40.3506,39.651923 C40.3506,39.651923 47.1806,36.512923 49.7096,35.4228554 L55.6566,35.4228554 C55.9386,36.4596527 55.6926,37.4855986 54.6646,38.2294095 C53.8656,38.8025581 50.8526,40.2211257 49.4636,41.4009635 C48.0766,42.5817878 39.6226,51.3368554 39.6226,51.3368554 L33.8136,55.7720986 L28.4376,59.9202743 L19.5536,72.5058689 C15.1326,70.8900041 10.4076,66.0019635 9.0176,61.6091392" id="Fill-1" ></path>
                    <path d="M9.0176,61.6091392 L19.8526,54.7727878 C19.7616,53.8080041 19.7376,51.6318149 20.2396,49.4783149 C20.8366,46.9183824 22.0326,46.1568149 21.9146,45.9210446 C21.6806,45.4583824 21.5246,42.2118554 21.2406,41.4552203 C20.9876,40.7824365 20.7916,40.2329635 20.7916,40.2329635 L19.4676,37.4629095 C18.9966,36.0354635 18.6186,36.1558149 19.5096,35.4228554 L23.2346,35.4228554 L27.1326,40.2023824 L29.6136,43.8809905 L34.0376,43.1263284 L40.3506,39.651923 C40.3506,39.651923 47.1806,36.512923 49.7096,35.4228554 L55.6566,35.4228554 C55.9386,36.4596527 55.6926,37.4855986 54.6646,38.2294095 C53.8656,38.8025581 50.8526,40.2211257 49.4636,41.4009635 C48.0766,42.5817878 39.6226,51.3368554 39.6226,51.3368554 L33.8136,55.7720986 L28.4376,59.9202743 L19.5536,72.5058689 C15.1326,70.8900041 10.4076,66.0019635 9.0176,61.6091392 L9.0176,61.6091392 Z" id="Stroke-3" stroke="#000000" stroke-linejoin="round"></path>
                    <path d="M2.082,35.2254595 C1.21,35.2254595 0.5,34.5230811 0.5,33.6579324 C0.5,32.7927838 1.21,32.0943514 2.082,32.0943514 L68.833,32.0943514 C69.705,32.0943514 70.415,32.7947568 70.415,33.6579324 C70.415,34.5220946 69.705,35.2254595 68.833,35.2254595 L2.082,35.2254595 Z" id="Fill-5" ></path>
                    <path d="M2.082,35.2254595 C1.21,35.2254595 0.5,34.5230811 0.5,33.6579324 C0.5,32.7927838 1.21,32.0943514 2.082,32.0943514 L68.833,32.0943514 C69.705,32.0943514 70.415,32.7947568 70.415,33.6579324 C70.415,34.5220946 69.705,35.2254595 68.833,35.2254595 L2.082,35.2254595 L2.082,35.2254595 Z" id="Stroke-7" stroke="#000000" stroke-linejoin="round"></path>
                    <path d="M62.9443,28.8002757 C63.8473,28.8002757 64.6963,29.5736811 64.6963,30.4694108 C64.6963,31.3651405 63.9613,32.0941541 63.0573,32.0941541 L7.8573,32.0941541 C6.9553,32.0941541 6.2183,31.366127 6.2183,30.4694108 C6.2183,29.5726946 7.0033,28.8614378 7.9053,28.8614378 C9.4093,15.565573 21.1723,5.23015405 35.4003,5.23015405 C49.5843,5.23015405 61.3823,15.5626135 62.9443,28.8002757" id="Fill-9" ></path>
                    <path d="M62.9443,28.8002757 C63.8473,28.8002757 64.6963,29.5736811 64.6963,30.4694108 C64.6963,31.3651405 63.9613,32.0941541 63.0573,32.0941541 L7.8573,32.0941541 C6.9553,32.0941541 6.2183,31.366127 6.2183,30.4694108 C6.2183,29.5726946 7.0033,28.8614378 7.9053,28.8614378 C9.4093,15.565573 21.1723,5.23015405 35.4003,5.23015405 C49.5843,5.23015405 61.3823,15.5626135 62.9443,28.8002757 L62.9443,28.8002757 Z" id="Stroke-11" stroke="#000000" stroke-linejoin="round"></path>
                    <g id="Group-16">
                        <path d="M15.4707,21.9209135 C17.8187,17.2873865 21.9667,13.6492243 27.0337,11.8380351" id="Fill-13" ></path>
                        <path d="M15.4707,21.9209135 C17.8187,17.2873865 21.9667,13.6492243 27.0337,11.8380351" id="Stroke-15" stroke="#000000" stroke-linecap="round" stroke-linejoin="round"></path>
                    </g>
                    <g id="Group-20">
                        <path d="M13.5664,28.8480216 L57.3474,28.8480216" id="Fill-17" ></path>
                        <path d="M13.5664,28.8480216 L57.3474,28.8480216" id="Stroke-19" stroke="#000000" stroke-linecap="round" stroke-linejoin="round"></path>
                    </g>
                    <path d="M37.6807,2.74706892 C37.6807,3.95847432 36.6857,4.94101486 35.4567,4.94101486 C34.2297,4.94101486 33.2347,3.95847432 33.2347,2.74706892 C33.2347,1.53566351 34.2297,0.553122973 35.4567,0.553122973 C36.6857,0.553122973 37.6807,1.53566351 37.6807,2.74706892" id="Fill-21" ></path>
                    <path d="M37.6807,2.74706892 C37.6807,3.95847432 36.6857,4.94101486 35.4567,4.94101486 C34.2297,4.94101486 33.2347,3.95847432 33.2347,2.74706892 C33.2347,1.53566351 34.2297,0.553122973 35.4567,0.553122973 C36.6857,0.553122973 37.6807,1.53566351 37.6807,2.74706892 L37.6807,2.74706892 Z" id="Stroke-23" stroke="#000000"></path>
                </g>
            </g>
        </g>
    </g>
</svg>