<?xml version="1.0" encoding="UTF-8" standalone="no"?>
<svg width="22px" height="22px" viewBox="0 0 22 22" version="1.1" xmlns="http://www.w3.org/2000/svg" xmlns:xlink="http://www.w3.org/1999/xlink" xmlns:sketch="http://www.bohemiancoding.com/sketch/ns">
    <!-- Generator: Sketch 3.5.1 (25234) - http://www.bohemiancoding.com/sketch -->
    <title>Page 1</title>
    <desc>Created with Sketch.</desc>
    <defs></defs>
    <g id="Page-1" stroke="none" stroke-width="1" fill="none" fill-rule="evenodd" sketch:type="MSPage">
        <g id="SmartFlyer-Home-R2-Copy" sketch:type="MSArtboardGroup" transform="translate(-721.000000, -4983.000000)" stroke="#919191">
            <g id="footer" sketch:type="MSLayerGroup" transform="translate(-2.000000, 4896.000000)">
                <g id="Group-3" transform="translate(720.000000, 40.000000)" sketch:type="MSShapeGroup">
                    <path d="M9.17494675,60.8142526 C12.3052697,64.6021354 19.9335861,68.2321897 21.774918,67.4167427 C23.6162499,66.6013544 24.010821,64.838878 23.9319068,64.0234311 C23.8529926,63.2080428 19.6705387,60.7090336 18.618349,60.2355483 C17.5661593,59.7620629 16.3561412,61.2877379 15.7774369,61.9453565 C15.1724866,62.5766703 12.8576106,60.6564241 11.8580304,59.6831487 C11.8580304,59.6831487 9.22755623,56.7370176 9.83256529,56.1057038 C10.4375743,55.47439 11.9369446,54.2117624 11.4108498,53.1858775 C10.884755,52.1599926 8.22797605,48.0564529 7.38622432,48.0038434 C6.57077733,47.9512339 4.83466439,48.4247193 4.09813162,50.2923559 C3.36159886,52.1599926 6.88643423,59.2885776 10.8058407,62.2610721" id="Page-1"></path>
                </g>
            </g>
        </g>
    </g>
</svg>