<?xml version="1.0" encoding="utf-8"?>
<!-- Generator: Adobe Illustrator 16.0.0, SVG Export Plug-In . SVG Version: 6.00 Build 0)  -->
<!DOCTYPE svg PUBLIC "-//W3C//DTD SVG 1.1//EN" "http://www.w3.org/Graphics/SVG/1.1/DTD/svg11.dtd">
<svg version="1.1" id="Layer_1" xmlns="http://www.w3.org/2000/svg" xmlns:xlink="http://www.w3.org/1999/xlink" x="0px" y="0px"
	 width="13px" height="16px" viewBox="0 0 13 16" enable-background="new 0 0 13 16" xml:space="preserve">
<path id="Page-1" d="M5.344,10.582C4.905,12.785,4.369,14.896,2.781,16c-0.49-3.329,0.72-5.83,1.282-8.484
	c-0.958-1.543,0.115-4.65,2.135-3.884c2.486,0.941-2.152,5.738,0.96,6.337c3.252,0.625,4.578-5.4,2.562-7.359
	C6.809-0.22,1.243,2.545,1.928,6.596c0.167,0.991,1.235,1.291,0.427,2.658C0.491,8.857-0.066,7.45,0.006,5.573
	c0.115-3.071,2.883-5.222,5.658-5.52c3.51-0.376,6.805,1.234,7.26,4.396c0.512,3.568-1.584,7.434-5.338,7.155
	C6.568,11.529,6.141,11.047,5.344,10.582"/>
</svg>
