
<svg width="10px" height="14px" viewBox="0 0 10 14" version="1.1" xmlns="http://www.w3.org/2000/svg" xmlns:xlink="http://www.w3.org/1999/xlink">
    <g id="Page-1" stroke="none" stroke-width="1" fill="none" fill-rule="evenodd">
        <g id="SmartFlyer-Blog-Post-Copy-10" transform="translate(-1054.000000, -3423.000000)" stroke="#414141">
            <g id="Group-5" transform="translate(1055.000000, 3424.000000)">
                <path d="M4,5.53846154 C3.2592045,5.53846154 2.66666667,4.91281293 2.66666667,4.15384615 C2.66666667,3.38464382 3.2691431,2.76923077 4,2.76923077 C4.7308569,2.76923077 5.33333333,3.39487938 5.33333333,4.15384615 C5.33333333,4.92313379 4.7308569,5.53846154 4,5.53846154 Z" id="Stroke-1" stroke-width="1.35" fill="#414141"></path>
                <path d="M4.01311475,12 C3.21311475,11.3223529 0,8.31515294 0,4.30588235 C0,1.93411765 1.79672131,0 4,0 L4.01311475,0 C5.03606557,0 5.96721311,0.409411765 6.68852459,1.2 C7.52786885,2.10352941 8,3.40235294 8,4.77176471 C8,8.37176471 4.8,11.3223529 4.01311475,12 Z" id="Stroke-3" stroke-width="1.5"></path>
            </g>
        </g>
    </g>
</svg>