<?xml version="1.0" encoding="utf-8"?>
<!-- Generator: Adobe Illustrator 16.0.0, SVG Export Plug-In . SVG Version: 6.00 Build 0)  -->
<!DOCTYPE svg PUBLIC "-//W3C//DTD SVG 1.1//EN" "http://www.w3.org/Graphics/SVG/1.1/DTD/svg11.dtd">
<svg version="1.1" id="Layer_1" xmlns="http://www.w3.org/2000/svg" xmlns:xlink="http://www.w3.org/1999/xlink" x="0px" y="0px"
	 width="17px" height="15px" viewBox="0 0 17 15" enable-background="new 0 0 17 15" xml:space="preserve">
<g id="Stroke-1">
	<path d="M8.08,8.952c-0.18,0-0.363-0.014-0.548-0.042C6.029,8.682,4.711,7.577,3.916,5.881C2.574,3.023,3.87,1.378,4.299,0.941
		c0.128-0.13,0.216-0.193,0.216-0.193C4.73,0.589,5.031,0.555,5.273,0.662C5.525,0.774,5.692,1.014,5.71,1.288
		c0.004,0.033,0.064,0.425,0.68,0.568c1.225,0.28,3.853,2.477,4.38,4.229c0.285,0.948-0.081,1.555-0.325,1.832
		c-0.037,0.043-0.077,0.086-0.119,0.127C9.751,8.629,8.951,8.952,8.08,8.952z M4.929,1.312c-0.007,0.005-0.058,0.046-0.13,0.12
		C4.449,1.787,3.4,3.135,4.55,5.583c0.694,1.481,1.82,2.442,3.088,2.635c0.85,0.13,1.652-0.118,2.195-0.67
		c0.033-0.032,0.06-0.062,0.085-0.091c0.265-0.301,0.325-0.693,0.183-1.17C9.65,4.792,7.262,2.773,6.234,2.538
		C5.136,2.284,5.022,1.441,5.013,1.346L4.929,1.312z"/>
</g>
<g id="Stroke-3">
	<path d="M6.906,11.438c-0.046,0-0.094-0.002-0.141-0.004C4.157,11.299,2.38,7.633,1.898,6.512C1.733,6.136,1.258,5.75,1.105,5.644
		c-0.208-0.142-0.33-0.378-0.326-0.631c0.002-0.246,0.124-0.481,0.325-0.625C1.956,3.769,3.141,3.379,3.61,3.241
		c0.182-0.055,0.391,0.044,0.448,0.228c0.057,0.183-0.03,0.373-0.212,0.433C3.373,4.041,2.279,4.398,1.514,4.956L1.502,5.068
		C1.533,5.089,2.26,5.595,2.54,6.233c0.443,1.029,2.056,4.388,4.261,4.501c0.732,0.048,1.426-0.337,2.244-1.215
		C9.379,9.161,9.63,8.758,9.947,8.249c0.103-0.166,0.321-0.215,0.481-0.112c0.164,0.102,0.215,0.317,0.112,0.481
		c-0.324,0.521-0.604,0.971-0.984,1.378C8.633,10.987,7.809,11.438,6.906,11.438z"/>
</g>
<g id="Stroke-5">
	<path d="M16.018,14.472c-0.023,0-0.048-0.002-0.072-0.007c-3.746-0.793-6.109-2.375-6.655-4.456
		C9.192,9.841,9.255,9.63,9.423,9.532c0.167-0.096,0.386-0.036,0.483,0.13C9.922,9.689,9.959,9.8,9.967,9.831
		c0.476,1.812,2.65,3.214,6.123,3.948c0.189,0.04,0.311,0.227,0.271,0.415C16.325,14.359,16.18,14.472,16.018,14.472z"/>
</g>
<g id="Stroke-7">
	<path d="M13.035,13.405c-0.241,0-0.47-0.115-0.61-0.308c-2.423-3.316-0.902-5.829,0.22-7.032c0.798-0.856,1.607-1.301,1.642-1.32
		c0.164-0.094,0.384-0.123,0.577-0.068c0.2,0.057,0.367,0.192,0.462,0.372c1.911,3.618,0.413,6.072-0.65,7.212
		c-0.567,0.608-1.097,0.946-1.245,1.035C13.304,13.369,13.17,13.405,13.035,13.405z M14.702,5.376c-0.109,0-0.839,0.408-1.546,1.167
		c-0.975,1.045-2.292,3.231-0.167,6.142l0.046,0.021c0.013,0,0.025-0.003,0.037-0.01c0.09-0.055,0.572-0.355,1.091-0.911
		c0.937-1.004,2.252-3.173,0.543-6.408C14.705,5.376,14.703,5.376,14.702,5.376z"/>
</g>
<g id="Stroke-9">
	<path d="M12.646,13.193c-0.025,0-0.051-0.002-0.076-0.008c-0.188-0.042-0.308-0.229-0.266-0.418l0.909-4.076
		c0.042-0.188,0.233-0.306,0.418-0.266c0.188,0.042,0.308,0.229,0.266,0.418l-0.909,4.076
		C12.951,13.083,12.807,13.193,12.646,13.193z"/>
</g>
</svg>
