<?xml version="1.0" encoding="utf-8"?>
<!-- Generator: Adobe Illustrator 16.0.0, SVG Export Plug-In . SVG Version: 6.00 Build 0)  -->
<!DOCTYPE svg PUBLIC "-//W3C//DTD SVG 1.1//EN" "http://www.w3.org/Graphics/SVG/1.1/DTD/svg11.dtd">
<svg version="1.1" id="Layer_1" xmlns="http://www.w3.org/2000/svg" xmlns:xlink="http://www.w3.org/1999/xlink" x="0px" y="0px"
	 width="49.446px" height="47.168px" viewBox="25.251 26.227 49.446 47.168" enable-background="new 25.251 26.227 49.446 47.168"
	 xml:space="preserve">
<path d="M72.868,61.091c-0.486-0.125-1-0.194-1.473-0.375c-3.943-1.444-6.443-4.36-8.068-8.11c-0.293-0.681-0.111-1.306,0.485-1.723
	c0.375-0.264,0.833-0.486,1.278-0.639c1.25-0.43,2.527-0.792,3.458-1.805c0.694-0.764,0.667-1.639-0.111-2.32
	c-0.931-0.819-1.972-1.028-3.139-0.486c-0.75,0.347-1.528,0.542-2.236,0.333c0-2.292,0.028-4.472-0.014-6.667
	c-0.015-0.986-0.097-2-0.361-2.944c-0.819-2.861-2.528-5.125-5.056-6.708c-3.736-2.347-7.792-2.611-11.958-1.5
	c-4.833,1.292-8.889,5.958-8.75,11.333c0.056,2.125,0.014,4.25,0.014,6.417c-0.681,0.236-1.306,0.208-2.458-0.278
	c-0.708-0.305-1.375-0.319-2.083-0.069c-1.556,0.556-1.875,2.042-0.667,3.139c0.25,0.236,0.542,0.458,0.847,0.597
	c0.833,0.347,1.667,0.68,2.514,0.972c1.556,0.528,2.069,1.458,1.389,2.833c-1.973,4.015-4.792,7.056-9.389,8
	c-0.806,0.152-1.181,0.875-0.778,1.57c0.278,0.472,0.722,0.889,1.194,1.193c1.389,0.889,3.028,1.057,4.598,1.403
	c0.208,0.056,0.472,0.278,0.542,0.485c0.194,0.515,0.292,1.057,0.431,1.598c0.153,0.639,0.528,1.027,1.222,0.973
	c0.653-0.042,1.292-0.139,1.931-0.209c1.694-0.166,3.402-0.291,4.958,0.528c1,0.528,1.917,1.208,2.847,1.847
	c1.736,1.195,3.611,1.932,5.736,2c2.723,0.098,5-0.986,7.07-2.597c1.736-1.333,3.639-2.069,5.847-1.847
	c0.986,0.097,1.972,0.222,2.958,0.305c0.598,0.056,1.042-0.208,1.236-0.791c0.125-0.389,0.292-0.792,0.32-1.195
	c0.068-0.818,0.5-1.068,1.264-1.236c1.291-0.277,2.583-0.652,3.818-1.139c0.543-0.222,1.057-0.764,1.375-1.277
	C74.118,61.966,73.716,61.3,72.868,61.091z"/>
</svg>
