<?xml version="1.0" encoding="utf-8"?>
<!-- Generator: Adobe Illustrator 16.0.0, SVG Export Plug-In . SVG Version: 6.00 Build 0)  -->
<!DOCTYPE svg PUBLIC "-//W3C//DTD SVG 1.1//EN" "http://www.w3.org/Graphics/SVG/1.1/DTD/svg11.dtd">
<svg version="1.1" id="Layer_1" xmlns:sketch="http://www.bohemiancoding.com/sketch/ns"
	 xmlns="http://www.w3.org/2000/svg" xmlns:xlink="http://www.w3.org/1999/xlink" x="0px" y="0px" width="18px" height="18px"
	 viewBox="0 0 18 18" enable-background="new 0 0 18 18" xml:space="preserve">
<g id="Stroke-1">
	<path d="M7.671,14.769c-3.864,0-7.008-3.169-7.008-7.063c0-3.894,3.144-7.062,7.008-7.062s7.009,3.168,7.009,7.062
		C14.68,11.6,11.535,14.769,7.671,14.769z M7.671,1.678c-3.293,0-5.973,2.704-5.973,6.027c0,3.324,2.68,6.028,5.973,6.028
		c3.294,0,5.974-2.704,5.974-6.028C13.645,4.381,10.965,1.678,7.671,1.678z"/>
</g>
<g id="Stroke-3">
	
		<rect x="10.975" y="14.006" transform="matrix(0.7041 0.7101 -0.7101 0.7041 14.5827 -5.9511)" width="6.915" height="1.034"/>
</g>
</svg>
