<?xml version="1.0" encoding="utf-8"?>
<!-- Generator: Adobe Illustrator 16.0.0, SVG Export Plug-In . SVG Version: 6.00 Build 0)  -->
<!DOCTYPE svg PUBLIC "-//W3C//DTD SVG 1.1//EN" "http://www.w3.org/Graphics/SVG/1.1/DTD/svg11.dtd">
<svg version="1.1" id="Layer_1" xmlns="http://www.w3.org/2000/svg" xmlns:xlink="http://www.w3.org/1999/xlink" x="0px" y="0px"
	 width="18px" height="9px" viewBox="0 0 18 9" enable-background="new 0 0 18 9" xml:space="preserve">
<g id="Stroke-1">
	<path d="M13.01,8.315c-0.446,0-0.921-0.101-1.337-0.284c-0.512-0.256-0.883-0.794-1.22-1.324c-0.42-0.628-0.801-1.198-1.454-1.198
		c-0.652,0-1.034,0.57-1.437,1.174C7.209,7.237,6.838,7.775,6.341,8.024C4.973,8.629,3.359,8.213,2.533,7.112
		C2.379,6.906,2.283,6.64,2.179,6.276L2.165,6.18c-0.269-0.929-0.273-2.45,0.64-3.504c1.53-1.75,3.881-1.992,6.194-1.992
		s4.664,0.241,6.194,1.99c0.899,1.039,0.909,2.527,0.641,3.51L15.82,6.276c-0.101,0.352-0.2,0.629-0.354,0.836
		C14.899,7.866,13.981,8.315,13.01,8.315z M8.999,4.809c1.027,0,1.577,0.823,2.02,1.484c0.31,0.486,0.615,0.937,0.952,1.104
		c0.313,0.139,0.688,0.219,1.039,0.219c0.764,0,1.455-0.337,1.896-0.924c0.09-0.12,0.163-0.339,0.229-0.563l0.013-0.089
		c0.252-0.878,0.2-2.118-0.482-2.906c-1.345-1.538-3.519-1.75-5.666-1.75s-4.32,0.212-5.666,1.751
		C2.651,3.923,2.599,5.162,2.852,6.04l0.014,0.097c0.056,0.188,0.133,0.429,0.228,0.556C3.73,7.54,5.012,7.848,6.042,7.391
		c0.323-0.161,0.628-0.612,0.912-1.059C7.422,5.632,7.973,4.809,8.999,4.809z"/>
</g>
<g id="Stroke-3">
	<rect x="7.371" y="4.091" transform="matrix(0.3342 0.9425 -0.9425 0.3342 11.4996 -7.397)" width="7.229" height="0.701"/>
</g>
<g id="Stroke-5">
	<rect x="8.982" y="4.2" transform="matrix(0.3262 0.9453 -0.9453 0.3262 12.7515 -8.7884)" width="7.116" height="0.7"/>
</g>
<g id="Stroke-7">
	<path d="M2.417,6.037H1.28c-0.329,0-0.597-0.267-0.597-0.596V3.285c0-0.329,0.268-0.596,0.597-0.596h1.615v0.7H1.383v1.949h1.034
		V6.037z"/>
</g>
<g id="Stroke-9">
	<path d="M16.732,6.037h-1.137V5.338h1.033V3.389h-1.512v-0.7h1.615c0.329,0,0.596,0.268,0.596,0.596v2.156
		C17.328,5.771,17.062,6.037,16.732,6.037z"/>
</g>
</svg>
