<?xml version="1.0" encoding="UTF-8" standalone="no"?>
<svg width="67px" height="71px" viewBox="0 0 67 71" version="1.1" xmlns="http://www.w3.org/2000/svg" xmlns:xlink="http://www.w3.org/1999/xlink" xmlns:sketch="http://www.bohemiancoding.com/sketch/ns">
    <!-- Generator: Sketch 3.5.1 (25234) - http://www.bohemiancoding.com/sketch -->
    <title>Page 1</title>
    <desc>Created with Sketch.</desc>
    <defs></defs>
    <g id="Page-1" stroke="none" stroke-width="1" fill="none" fill-rule="evenodd" sketch:type="MSPage">
        <g id="SmartFlyer-Home-R2-Copy" sketch:type="MSArtboardGroup" transform="translate(-263.000000, -1928.000000)">
            <g id="why" sketch:type="MSLayerGroup" transform="translate(-57.000000, 1744.000000)">
                <g id="Page-1" transform="translate(320.000000, 184.000000)" sketch:type="MSShapeGroup">
                    <path d="M29.8138676,69.5333333 C14.9285437,69.5333333 2.8204169,55.4362667 2.8204169,38.1033333 C2.8204169,35.0392 3.20543099,32.0618667 3.93865634,29.1750667 C7.01027606,34.4082667 16.1232197,38.2190667 27.4471634,38.6801333 C28.2304028,38.7202667 29.0174169,38.7454667 29.8138676,38.7454667 C30.6103183,38.7454667 31.3954451,38.7202667 32.1796282,38.6941333 C43.5026282,38.2190667 52.6174592,34.4082667 55.6881352,29.1872 C56.4194732,32.0488 56.8073183,35.0392 56.8073183,38.1033333 C56.8073183,55.4362667 44.6963606,69.5333333 29.8138676,69.5333333" id="Stroke-1" stroke="#000000" stroke-linejoin="round"></path>
                    <path d="M55.8382718,29.36808 C52.7487225,24.14608 43.5819901,20.3362133 32.1919901,19.8611467 C31.4040324,19.8350133 30.615131,19.8098133 29.8149056,19.8098133 C29.0137366,19.8098133 28.2220042,19.8350133 27.4349901,19.8751467 C16.0431028,20.3362133 6.87825775,24.14608 3.78965211,29.3802133" id="Stroke-3" stroke="#000000"></path>
                    <path d="M8.77313099,29.1616267 C11.1955113,32.55336 19.0099761,34.5310933 27.9473986,34.8306933 C28.5654972,34.8568267 29.1854831,34.8726933 29.8149056,34.8726933 C30.4433845,34.8726933 31.0614831,34.8568267 31.6795817,34.8390933 C40.6151169,34.5310933 48.2785958,32.5458933 50.7019197,29.1616267 C48.2785958,25.7764267 40.6151169,22.86256 31.6795817,22.5564267 C31.0614831,22.5386933 30.4433845,22.5218933 29.8149056,22.5218933 C29.1854831,22.5218933 28.5654972,22.5386933 27.9473986,22.5638933 C19.0099761,22.86256 11.1955113,25.76896 8.77313099,29.1616267 L8.77313099,29.1616267 Z" id="Stroke-5" stroke="#000000" stroke-linecap="round" stroke-linejoin="round"></path>
                    <path d="M38.8210268,30.51608 C38.0528859,30.2659467 37.5518014,29.6322133 37.7150549,29.13848 L47.0393789,1.75448 C47.1762099,1.31581333 47.5187592,0.966746667 47.9594493,0.817413333 C48.3869282,0.67088 48.8823507,0.73248 49.2645338,0.99568 L65.567238,8.84968 C66.2278014,9.30421333 66.3938859,10.20488 65.9362099,10.8610133 C65.4747592,11.51808 64.565069,11.68048 63.900731,11.2259467 L49.2381113,4.49568 L40.506407,29.9943467 C40.383731,30.3630133 39.5910549,30.7662133 38.8210268,30.51608" id="Fill-7" fill="#FFFFFF"></path>
                    <path d="M38.8210268,30.51608 C38.0528859,30.2659467 37.5518014,29.6322133 37.7150549,29.13848 L47.0393789,1.75448 C47.1762099,1.31581333 47.5187592,0.966746667 47.9594493,0.817413333 C48.3869282,0.67088 48.8823507,0.73248 49.2645338,0.99568 L65.567238,8.84968 C66.2278014,9.30421333 66.3938859,10.20488 65.9362099,10.8610133 C65.4747592,11.51808 64.565069,11.68048 63.900731,11.2259467 L49.2381113,4.49568 L40.506407,29.9943467 C40.383731,30.3630133 39.5910549,30.7662133 38.8210268,30.51608 L38.8210268,30.51608 Z" id="Stroke-9" stroke="#000000"></path>
                    <path d="M11.8197437,15.39776 L16.9910113,29.5900267" id="Stroke-11" stroke="#000000" stroke-linecap="round"></path>
                    <path d="M18.1682296,59.16596 C14.4775676,56.5386267 11.5427789,52.60556 9.84041268,47.92396" id="Stroke-13" stroke="#000000" stroke-linecap="round" stroke-linejoin="round"></path>
                    <path d="M28.9549465,62.69508 C25.0057211,62.69508 21.3112845,61.40428 18.1679465,59.1661467" id="Stroke-15" stroke="#000000" stroke-linecap="round" stroke-linejoin="round"></path>
                    <path d="M22.9344775,11.6548133 C20.9867592,6.62321333 14.1338859,3.38454667 8.08218169,5.67774667 C2.02859014,7.97094667 -0.88638169,14.9065467 1.08304085,19.99508 C0.854674648,18.6212133 1.65773099,17.2492133 3.02320986,16.7321467 C4.35094225,16.22908 5.79568873,16.78068 6.5732662,17.8829467 C6.34395634,16.5100133 7.09511127,15.19028 8.45964648,14.67228 C9.78549155,14.17108 11.2340127,14.7217467 12.0097028,15.8249467 C11.7794493,14.45108 12.5324915,13.1313467 13.8970268,12.6133467 C15.2238155,12.1112133 16.668562,12.66188 17.4470831,13.7660133 C17.2158859,12.39308 17.9670408,11.0724133 19.3334634,10.5544133 C20.6583648,10.05228 22.1587873,10.55348 22.9344775,11.6548133 L22.9344775,11.6548133 Z" id="Stroke-17" stroke="#000000" stroke-linejoin="round"></path>
                    <path d="M23.4109324,26.9741733 C23.4109324,27.2439067 23.1910592,27.46324 22.9173972,27.46324 C22.6437352,27.46324 22.4219746,27.2439067 22.4219746,26.9741733 C22.4219746,26.7035067 22.6437352,26.4841733 22.9173972,26.4841733 C23.1910592,26.4841733 23.4109324,26.7035067 23.4109324,26.9741733" id="Fill-19" fill="#000000"></path>
                    <path d="M21.5346493,29.7568133 C21.5346493,30.02748 21.3147761,30.2468133 21.0411141,30.2468133 C20.7674521,30.2468133 20.5466352,30.02748 20.5466352,29.7568133 C20.5466352,29.48708 20.7674521,29.2677467 21.0411141,29.2677467 C21.3147761,29.2677467 21.5346493,29.48708 21.5346493,29.7568133" id="Fill-21" fill="#000000"></path>
                    <path d="M25.2872155,29.7568133 C25.2872155,30.02748 25.0654549,30.2468133 24.7927366,30.2468133 C24.5200183,30.2468133 24.2982577,30.02748 24.2982577,29.7568133 C24.2982577,29.48708 24.5200183,29.2677467 24.7927366,29.2677467 C25.0654549,29.2677467 25.2872155,29.48708 25.2872155,29.7568133" id="Fill-23" fill="#000000"></path>
                </g>
            </g>
        </g>
    </g>
</svg>