<?xml version="1.0" encoding="UTF-8" standalone="no"?>
<svg width="27px" height="27px" viewBox="0 0 27 27" version="1.1" xmlns="http://www.w3.org/2000/svg" xmlns:xlink="http://www.w3.org/1999/xlink">
    <!-- Generator: Sketch 3.6.1 (26313) - http://www.bohemiancoding.com/sketch -->
    <title>Page 1</title>
    <desc>Created with Sketch.</desc>
    <defs></defs>
    <g id="Page-1" stroke="none" stroke-width="1" fill="none" fill-rule="evenodd" opacity="0.475571362">
        <g id="SmartFlyer-Review-Post" transform="translate(-1069.000000, -1685.000000)" fill="#000000">
            <g id="tips" transform="translate(915.000000, 1647.000000)">
                <g id="Page-1" transform="translate(154.000000, 38.000000)">
                    <path d="M26.0357143,26.0357143 L0.964285714,26.0357143 L0.964285714,24.5892857 L1.44642857,24.5892857 L25.5535714,24.5892857 L26.0357143,24.5892857 L26.0357143,26.0357143 Z M2.41071429,23.1139286 C4.15125,22.8969643 5.53982143,21.5132143 5.75678571,19.7678571 L11.0892857,19.7678571 L15.9107143,19.7678571 L21.2432143,19.7678571 C21.4601786,21.5083929 22.8439286,22.8969643 24.5892857,23.1139286 L24.5892857,23.625 L2.41071429,23.625 L2.41071429,23.1139286 Z M12.0535714,17.8392857 L14.9464286,17.8392857 L14.9464286,18.8035714 L12.0535714,18.8035714 L12.0535714,17.8392857 Z M5.78571429,16.875 L5.78571429,11.5714286 C5.78571429,7.31892857 9.2475,3.85714286 13.5,3.85714286 C17.7525,3.85714286 21.2142857,7.31892857 21.2142857,11.5714286 L21.2142857,16.875 L15.9107143,16.875 L11.0892857,16.875 L5.78571429,16.875 Z M25.5535714,23.625 L25.5535714,22.1785714 L25.0714286,22.1785714 C23.4755357,22.1785714 22.1785714,20.8816071 22.1785714,19.2857143 L22.1785714,18.8035714 L15.9107143,18.8035714 L15.9107143,17.8392857 L22.1785714,17.8392857 L22.1785714,11.5714286 C22.1785714,6.94767857 18.5432143,3.16767857 13.9821429,2.91696429 L13.9821429,0.964285714 L15.9107143,0.964285714 L15.9107143,0 L11.0892857,0 L11.0892857,0.964285714 L13.0178571,0.964285714 L13.0178571,2.91696429 C8.45678571,3.16767857 4.82142857,6.94767857 4.82142857,11.5714286 L4.82142857,17.8392857 L11.0892857,17.8392857 L11.0892857,18.8035714 L4.82142857,18.8035714 L4.82142857,19.2857143 C4.82142857,20.8816071 3.52446429,22.1785714 1.92857143,22.1785714 L1.44642857,22.1785714 L1.44642857,23.625 L0,23.625 L0,27 L27,27 L27,23.625 L25.5535714,23.625 Z" id="Fill-1"></path>
                    <path d="M6.75,11.5714286 L7.71428571,11.5714286 C7.71428571,8.37964286 10.3082143,5.78571429 13.5,5.78571429 L13.5,4.82142857 C9.77785714,4.82142857 6.75,7.84928571 6.75,11.5714286" id="Fill-3"></path>
                </g>
            </g>
        </g>
    </g>
</svg>