<?xml version="1.0" encoding="UTF-8" standalone="no"?>
<svg width="72px" height="64px" viewBox="0 0 72 64" version="1.1" xmlns="http://www.w3.org/2000/svg" xmlns:xlink="http://www.w3.org/1999/xlink">
    <!-- Generator: Sketch 3.6.1 (26313) - http://www.bohemiancoding.com/sketch -->
    <title>Page 1</title>
    <desc>Created with Sketch.</desc>
    <defs></defs>
    <g id="Page-1" stroke="none" stroke-width="1" fill="none" fill-rule="evenodd">
        <g id="SmartFlyer-Home-R2-Copy" transform="translate(-1095.000000, -1929.000000)" stroke="#000000">
            <g id="Page-1" transform="translate(1096.000000, 1930.000000)">
                <path d="M7.672,6.80078 C7.672,8.76972286 6.05392308,10.3648943 4.06071795,10.3648943 C2.06661538,10.3648943 0.448538462,8.76972286 0.448538462,6.80078 C0.448538462,4.83272286 2.06661538,3.23666571 4.06071795,3.23666571 C6.05392308,3.23666571 7.672,4.83272286 7.672,6.80078 L7.672,6.80078 Z" id="Stroke-1"></path>
                <path d="M69.5950769,6.80078 C69.5950769,8.76972286 67.977,10.3648943 65.9837949,10.3648943 C63.9896923,10.3648943 62.3716154,8.76972286 62.3716154,6.80078 C62.3716154,4.83272286 63.9896923,3.23666571 65.9837949,3.23666571 C67.977,3.23666571 69.5950769,4.83272286 69.5950769,6.80078 L69.5950769,6.80078 Z" id="Stroke-3"></path>
                <path d="M9.27230769,8.45325714 L9.27230769,23.5653143 L18.3678205,23.5653143 L18.3633333,4.929 C18.3633333,2.45165714 16.3270513,0.442857143 13.8169231,0.442857143 C11.3076923,0.442857143 9.27230769,2.45165714 9.27230769,4.929" id="Stroke-5" stroke-linejoin="round"></path>
                <path d="M13.8173718,0.472705714 L53.2148077,0.472705714 C56.0372436,0.472705714 57.6283974,2.30879143 57.6283974,5.32730571 L57.6436538,61.7171914 L18.3449359,61.7171914 L18.3449359,23.44902" id="Stroke-7" stroke-linejoin="round"></path>
                <path d="M38.0840385,18.9153143 L40.5896795,23.9258 L46.1914744,24.7282571 L42.1377564,28.6280571 L43.0944231,34.1345429 L38.0840385,31.5349714 L33.0736538,34.1345429 L34.0303205,28.6280571 L29.9766026,24.7282571 L35.5792949,23.9258 L38.0840385,18.9153143 L38.0840385,18.9153143 Z" id="Stroke-9"></path>
                <path d="M18.4754231,47.2542743 L57.7956795,47.2542743" id="Stroke-11"></path>
                <path d="M18.4754231,52.7913171 L57.4923462,52.7913171" id="Stroke-13"></path>
                <path d="M57.946,4.88267714 L62.9976667,4.88267714" id="Stroke-15"></path>
                <path d="M7.19788462,4.88267714 L18.7344231,4.88267714" id="Stroke-17"></path>
                <path d="M57.946,8.82171429 L62.9976667,8.82171429" id="Stroke-19"></path>
                <path d="M7.19788462,8.82171429 L18.7344231,8.82171429" id="Stroke-21"></path>
            </g>
        </g>
    </g>
</svg>