<?xml version="1.0" encoding="utf-8"?>
<!-- Generator: Adobe Illustrator 16.0.0, SVG Export Plug-In . SVG Version: 6.00 Build 0)  -->
<!DOCTYPE svg PUBLIC "-//W3C//DTD SVG 1.1//EN" "http://www.w3.org/Graphics/SVG/1.1/DTD/svg11.dtd">
<svg version="1.1" id="Layer_1" xmlns:sketch="http://www.bohemiancoding.com/sketch/ns"
	 xmlns="http://www.w3.org/2000/svg" xmlns:xlink="http://www.w3.org/1999/xlink" x="0px" y="0px" width="15px" height="13px"
	 viewBox="0 0 15 13" enable-background="new 0 0 15 13" xml:space="preserve">
<path id="Page-1" d="M12.997,2.408c0.608-0.384,1.076-0.994,1.296-1.719c-0.569,0.356-1.2,0.615-1.871,0.754
	c-0.538-0.604-1.305-0.981-2.152-0.981c-1.627,0-2.947,1.391-2.947,3.107c0,0.244,0.026,0.48,0.076,0.708
	C4.95,4.147,2.777,2.91,1.324,1.03C1.07,1.489,0.925,2.023,0.925,2.592c0,1.078,0.521,2.029,1.311,2.586
	C1.753,5.162,1.298,5.022,0.901,4.79c0,0.013,0,0.025,0,0.039c0,1.505,1.017,2.761,2.365,3.046C3.018,7.946,2.757,7.984,2.488,7.984
	c-0.189,0-0.374-0.02-0.554-0.056c0.375,1.234,1.464,2.133,2.753,2.157c-1.009,0.834-2.279,1.33-3.661,1.33
	c-0.238,0-0.472-0.014-0.703-0.043c1.304,0.882,2.854,1.396,4.519,1.396c5.421,0,8.386-4.734,8.386-8.841
	c0-0.134-0.004-0.269-0.009-0.402c0.575-0.438,1.075-0.985,1.47-1.608C14.161,2.166,13.594,2.333,12.997,2.408z"/>
</svg>
