<?xml version="1.0" encoding="utf-8"?>
<!-- Generator: Adobe Illustrator 16.0.0, SVG Export Plug-In . SVG Version: 6.00 Build 0)  -->
<!DOCTYPE svg PUBLIC "-//W3C//DTD SVG 1.1//EN" "http://www.w3.org/Graphics/SVG/1.1/DTD/svg11.dtd">
<svg version="1.1" id="Layer_1" xmlns="http://www.w3.org/2000/svg" xmlns:xlink="http://www.w3.org/1999/xlink" x="0px" y="0px"
	 width="80px" height="79.964px" viewBox="10 0 80 79.964" enable-background="new 10 0 80 79.964" xml:space="preserve">
<path d="M83.656,6.379c-8.612-8.614-22.438-8.324-30.833,0.073l-9.989,9.988c5.863-1.881,10.422-0.579,14.404,1.085l2.896-2.895
	c4.126-4.125,11.001-3.909,15.056,0.145c4.125,4.125,4.414,11.074,0.289,15.2L62.016,43.438c-1.521,1.52-3.258,2.389-5.211,2.895
	c-5.212,0.724-10.206-1.881-12.088-6.441l-8.831,8.54c6.08,9.192,18.675,12.304,28.662,6.66c1.665-0.869,3.257-2.172,4.705-3.619
	l14.331-14.332C91.98,28.745,92.271,14.993,83.656,6.379z M36.03,24.402c-1.737,0.869-3.33,2.171-4.705,3.619L16.415,42.859
	c-8.396,8.396-8.686,22.148-0.072,30.762s22.438,8.324,30.834-0.072l9.988-9.988c-5.863,1.881-10.423,0.578-14.404-1.086
	l-2.896,2.895c-4.125,4.126-11.001,3.909-15.055-0.145c-4.125-4.125-4.415-11.074-0.29-15.2l13.97-13.97
	c1.52-1.52,3.257-2.389,5.211-2.895c5.211-0.724,10.206,1.881,12.086,6.441l8.904-8.541C58.541,21.869,45.946,18.756,36.03,24.402z"
	/>
</svg>
