<?xml version="1.0" encoding="utf-8"?>
<!-- Generator: Adobe Illustrator 16.0.0, SVG Export Plug-In . SVG Version: 6.00 Build 0)  -->
<!DOCTYPE svg PUBLIC "-//W3C//DTD SVG 1.1//EN" "http://www.w3.org/Graphics/SVG/1.1/DTD/svg11.dtd">
<svg version="1.1" id="Layer_1" xmlns="http://www.w3.org/2000/svg" xmlns:xlink="http://www.w3.org/1999/xlink" x="0px" y="0px"
	 width="21px" height="12px" viewBox="0 0 21 12" enable-background="new 0 0 21 12" xml:space="preserve">
<g id="Stroke-1">
	<path d="M8.24,11.214c-1.513,0-2.825-0.317-3.898-0.943C2.208,9.029,1.151,6.618,0.796,5.64L0.695,5.36l0.292-0.052
		c0.414-0.074,1.071-0.161,1.855-0.161c0.563,0,1.105,0.044,1.611,0.133l0.163,0.028L4.655,5.47c0.16,0.692,0.407,1.333,0.734,1.904
		c0.986,1.721,2.649,2.757,3.869,3.323l0.848,0.393l-0.931,0.083C8.895,11.198,8.579,11.214,8.24,11.214z M1.374,5.752
		c0.417,1.048,1.407,3.032,3.219,4.086c0.987,0.575,2.2,0.869,3.606,0.875c-1.134-0.646-2.41-1.636-3.244-3.092
		C4.629,7.054,4.378,6.424,4.207,5.746C3.249,5.599,2.069,5.651,1.374,5.752z"/>
</g>
<g id="Stroke-3">
	<path d="M10.148,10.883l-0.854-0.403c-1.184-0.559-2.792-1.57-3.732-3.211C4.333,5.121,4.612,2.5,4.789,1.473L4.84,1.176
		l0.282,0.104c0.64,0.236,1.881,0.774,3.015,1.726l0.126,0.105L8.215,3.27C8.011,3.952,7.907,4.63,7.907,5.288
		c0,1.982,0.924,3.717,1.699,4.822L10.148,10.883z M5.234,1.86c-0.157,1.121-0.281,3.336,0.762,5.16
		C6.669,8.194,7.72,9.027,8.679,9.59c-0.66-1.129-1.271-2.627-1.271-4.302c0-0.654,0.095-1.327,0.283-2.001
		C6.8,2.569,5.855,2.113,5.234,1.86z"/>
</g>
<g id="Stroke-5">
	<path d="M10.506,10.93l-0.192-0.232c-0.663-0.8-2.205-2.929-2.205-5.409c0-2.482,1.542-4.61,2.205-5.41l0.192-0.232l0.192,0.232
		c0.663,0.799,2.204,2.926,2.204,5.41s-1.541,4.61-2.204,5.409L10.506,10.93z M10.506,0.438C9.814,1.328,8.609,3.182,8.609,5.288
		c0,2.105,1.205,3.96,1.897,4.851c0.691-0.891,1.896-2.743,1.896-4.851S11.197,1.328,10.506,0.438z"/>
</g>
<g id="Stroke-7">
	<path d="M10.858,10.893L11.4,10.12c0.778-1.107,1.705-2.845,1.705-4.832c0-0.655-0.103-1.331-0.306-2.009l-0.047-0.157l0.125-0.105
		c1.134-0.957,2.382-1.498,3.025-1.735l0.282-0.104l0.051,0.296c0.177,1.027,0.455,3.648-0.773,5.798
		c-0.941,1.642-2.56,2.657-3.751,3.219L10.858,10.893z M13.324,3.295c0.187,0.671,0.281,1.341,0.281,1.993
		c0,1.68-0.614,3.181-1.276,4.312c0.966-0.565,2.025-1.402,2.7-2.578c1.043-1.825,0.919-4.042,0.762-5.162
		C15.166,2.114,14.216,2.573,13.324,3.295z"/>
</g>
<g id="Stroke-9">
	<path d="M12.784,11.215c-0.339,0-0.653-0.016-0.936-0.041l-0.93-0.083l0.847-0.393c1.222-0.567,2.886-1.604,3.871-3.323
		c0.327-0.573,0.573-1.214,0.733-1.904l0.037-0.162l0.163-0.028c0.506-0.088,1.048-0.133,1.611-0.133c0.78,0,1.44,0.088,1.856,0.162
		l0.293,0.052l-0.102,0.28c-0.356,0.978-1.413,3.387-3.547,4.631C15.606,10.897,14.295,11.215,12.784,11.215z M16.817,5.747
		c-0.171,0.676-0.422,1.307-0.747,1.876c-0.833,1.455-2.11,2.446-3.245,3.092c1.403-0.006,2.617-0.3,3.605-0.874
		c1.812-1.057,2.803-3.039,3.221-4.087C18.952,5.654,17.773,5.601,16.817,5.747z"/>
</g>
</svg>
